<svg width="146" height="96" viewBox="0 0 146 96" fill="none" xmlns="http://www.w3.org/2000/svg">
<path d="M135.066 0.171875H10.9343C4.89528 0.171875 0 5.06715 0 11.1062V84.8932C0 90.932 4.89528 95.8275 10.9343 95.8275H135.066C141.104 95.8275 146 90.9323 146 84.8932V11.1062C146 5.06715 141.105 0.171875 135.066 0.171875Z" fill="#41479B"/>
<path d="M2.51736 47.9994H6.88995L30.2072 32.7225V47.9994H42.7934V32.7225L66.1103 47.9994H70.4829C71.8731 47.9994 73.0003 46.8722 73.0003 45.4821V43.4854L52.9951 30.3788H73V17.7925H52.9949L73 4.6859V2.68923C73 1.29881 71.8728 0.171875 70.4826 0.171875H66.1101L42.7928 15.4488V0.171875H30.2066V15.4488L7.65473 0.673178C5.0216 1.50013 2.8202 3.29747 1.46371 5.64459L20.0054 17.7925H0V30.3788H20.0051L0 43.4854V45.4821C0 46.8722 1.12665 47.9994 2.51736 47.9994Z" fill="#F5F5F5"/>
<path d="M73 20.3099H40.2758V0.171875H32.7242V20.3099H0V27.8614H32.7242V47.9994H40.2758V27.8614H73V20.3099Z" fill="#FF4B55"/>
<path d="M2.3457 4.34262L23.0657 17.7926H27.6892L4.165 2.52246C3.48946 3.0557 2.87895 3.66679 2.3457 4.34262Z" fill="#FF4B55"/>
<path d="M47.4165 17.7925L72.6169 1.43426C72.1789 0.693141 71.4061 0.171875 70.4825 0.171875H69.9378L42.793 17.7925H47.4165Z" fill="#FF4B55"/>
<path d="M25.5135 30.3789L0.361328 46.7058C0.795051 47.4649 1.5798 47.9995 2.51682 47.9995H2.99161L30.1373 30.3789H25.5135Z" fill="#FF4B55"/>
<path d="M72.9599 45.6798L49.3872 30.3789H44.7637L71.5324 47.7549C72.3343 47.3828 72.8844 46.6029 72.9599 45.6798Z" fill="#FF4B55"/>
<path d="M37.2605 61.7247L39.1605 67.9973L45.2494 65.572C45.769 65.365 46.2412 65.9575 45.9241 66.4178L42.2045 71.8141L47.8968 75.0623C48.3824 75.3395 48.2139 76.078 47.6562 76.1171L41.1178 76.5736L42.1275 83.0493C42.2137 83.6019 41.531 83.9307 41.1529 83.5186L36.7193 78.6915L32.2857 83.5186C31.9075 83.9304 31.2249 83.6016 31.311 83.0493L32.3207 76.5736L25.7824 76.1171C25.2246 76.078 25.0558 75.3395 25.5417 75.0623L31.234 71.8141L27.5144 66.4178C27.1973 65.9575 27.6696 65.365 28.1891 65.572L34.2781 67.9973L36.178 61.7247C36.3409 61.1894 37.0985 61.1894 37.2605 61.7247Z" fill="#F5F5F5"/>
<path d="M112.144 17.126L113.072 20.19L116.047 19.0055C116.3 18.9045 116.531 19.1937 116.376 19.4187L114.559 22.0549L117.34 23.6418C117.577 23.777 117.495 24.138 117.222 24.1568L114.028 24.3798L114.521 27.543C114.563 27.8131 114.23 27.9736 114.045 27.7723L111.879 25.4144L109.714 27.7723C109.529 27.9733 109.195 27.8128 109.237 27.543L109.73 24.3798L106.537 24.1568C106.264 24.1377 106.182 23.777 106.419 23.6418L109.199 22.0549L107.383 19.4187C107.228 19.1937 107.459 18.9045 107.712 19.0055L110.686 20.19L111.615 17.126C111.695 16.8642 112.065 16.8642 112.144 17.126Z" fill="#F5F5F5"/>
<path d="M91.45 40.6444L92.3782 43.7084L95.3527 42.5238C95.6062 42.4229 95.8372 42.712 95.682 42.937L93.8653 45.5733L96.6459 47.1602C96.8831 47.2954 96.8007 47.6564 96.5281 47.6752L93.3343 47.8982L93.8277 51.0614C93.8699 51.3315 93.5362 51.492 93.3514 51.2907L91.1857 48.9327L89.0199 51.2907C88.8351 51.4917 88.5018 51.3312 88.5437 51.0614L89.037 47.8982L85.8433 47.6752C85.5707 47.6561 85.4883 47.2954 85.7255 47.1602L88.5061 45.5733L86.6893 42.937C86.5342 42.712 86.7652 42.4229 87.0187 42.5238L89.9931 43.7084L90.9213 40.6444C91.0006 40.3829 91.3707 40.3829 91.45 40.6444Z" fill="#F5F5F5"/>
<path d="M131.725 30.5748L132.653 33.6388L135.628 32.4543C135.881 32.3533 136.112 32.6425 135.957 32.8675L134.14 35.5037L136.921 37.0906C137.158 37.2258 137.076 37.5868 136.803 37.6056L133.609 37.8286L134.103 40.9918C134.145 41.2619 133.811 41.4224 133.627 41.2211L131.461 38.8632L129.295 41.2211C129.11 41.4221 128.777 41.2616 128.819 40.9918L129.312 37.8286L126.119 37.6056C125.846 37.5865 125.764 37.2258 126.001 37.0906L128.781 35.5037L126.965 32.8675C126.81 32.6425 127.041 32.3533 127.294 32.4543L130.269 33.6388L131.197 30.5748C131.276 30.3136 131.646 30.3136 131.725 30.5748Z" fill="#F5F5F5"/>
<path d="M112.144 70.8512L113.072 73.9152L116.047 72.7304C116.3 72.6294 116.531 72.9186 116.376 73.1435L114.559 75.7798L117.34 77.3667C117.577 77.5019 117.495 77.8629 117.222 77.8817L114.028 78.1047L114.521 81.2679C114.563 81.538 114.23 81.6985 114.045 81.4972L111.879 79.1392L109.714 81.4972C109.529 81.6982 109.195 81.5377 109.237 81.2679L109.73 78.1047L106.537 77.8817C106.264 77.8629 106.182 77.5019 106.419 77.3667L109.199 75.7798L107.383 73.1435C107.228 72.9186 107.459 72.6294 107.712 72.7304L110.686 73.9152L111.615 70.8512C111.695 70.59 112.065 70.59 112.144 70.8512Z" fill="#F5F5F5"/>
<path d="M119.326 46.1505L118.581 48.3849L116.226 48.4032C115.921 48.4058 115.794 48.7947 116.04 48.9758L117.934 50.3751L117.224 52.6207C117.132 52.9115 117.463 53.1519 117.711 52.9745L119.627 51.6049L121.543 52.9745C121.791 53.1516 122.122 52.9112 122.03 52.6207L121.32 50.3751L123.214 48.9758C123.46 48.7944 123.333 48.4058 123.029 48.4032L120.673 48.3849L119.928 46.1505C119.831 45.8613 119.422 45.8613 119.326 46.1505Z" fill="#F5F5F5"/>
</svg>
