<svg width="146" height="96" viewBox="0 0 146 96" fill="none" xmlns="http://www.w3.org/2000/svg">
<path d="M113.276 0.172852H32.7246V95.8285H113.276V0.172852Z" fill="#F5F5F5"/>
<path d="M10.9343 0.171875C4.89528 0.171875 0 5.06715 0 11.1062V84.8929C0 90.9317 4.89528 95.8272 10.9343 95.8272H32.7242V0.171875H10.9343Z" fill="#FF4B55"/>
<path d="M135.065 0.171875H113.275V95.827H135.065C141.104 95.827 146 90.9317 146 84.8927V11.1062C146 5.06715 141.104 0.171875 135.065 0.171875Z" fill="#FF4B55"/>
<path d="M88.2745 59.052L103.212 50.5167L99.7843 48.8029C98.823 48.3221 98.2727 47.2841 98.415 46.2185L99.5302 37.8572L93.2063 39.697C91.8093 40.1036 90.3596 39.2442 90.0453 37.8238L89.4397 35.0863L83.5019 42.0355C82.6789 42.9988 81.1105 42.2631 81.3253 41.0144L83.8612 26.2695L79.9787 27.3312C78.8447 27.6414 77.647 27.1253 77.0941 26.0879L73.0058 18.4255V18.4141L73.003 18.4198L72.9998 18.4141V18.4255L68.9116 26.0879C68.3581 27.125 67.1604 27.6411 66.0263 27.3312L62.1439 26.2695L64.6798 41.0144C64.8946 42.2628 63.3262 42.9988 62.503 42.0358L56.5652 35.0866L55.9595 37.8241C55.6452 39.2447 54.1955 40.1036 52.7985 39.6973L46.4746 37.8574L47.5899 46.2188C47.7322 47.2841 47.1818 48.3224 46.2205 48.8032L42.793 50.5167L57.7303 59.0522C59.2776 59.9365 59.9557 61.8117 59.3315 63.4807L58.0545 66.896L70.8538 65.8033C71.5621 65.7429 72.1649 66.3132 72.1441 67.0235L71.7409 80.7236H74.2582L73.8545 67.0229C73.8336 66.3123 74.4365 65.7423 75.1448 65.8028L87.95 66.896L86.6731 63.4807C86.0494 61.8114 86.7273 59.9359 88.2745 59.052Z" fill="#FF4B55"/>
</svg>
