<svg width="146" height="96" viewBox="0 0 146 96" fill="none" xmlns="http://www.w3.org/2000/svg">
<path d="M135.066 0.172852H10.9343C4.89528 0.172852 0 5.06813 0 11.1072V84.8939C0 90.9327 4.89528 95.8282 10.9343 95.8282H135.066C141.104 95.8282 146 90.933 146 84.8939V11.1072C146 5.06813 141.105 0.172852 135.066 0.172852Z" fill="#41479B"/>
<path d="M145.849 9.29887C144.987 4.12072 140.488 0.171875 135.066 0.171875H132.221L85.5862 30.7255V0.17216H60.4138V30.7258L13.7793 0.17216H10.9343C5.5115 0.17216 1.01316 4.12072 0.151418 9.29916L40.01 35.4138H0V60.5862H40.01L0.151418 86.7003C1.01316 91.8784 5.5115 95.8273 10.9343 95.8273H13.7793L60.4138 65.2736V95.8273H85.5862V65.2736L132.221 95.8273H135.066C140.488 95.8273 144.987 91.8787 145.849 86.7003L105.99 60.5857H146V35.4132H105.99L145.849 9.29887Z" fill="#F5F5F5"/>
<path d="M80.5518 0.172852H65.4482V40.4486H0V55.5522H65.4482V95.8279H80.5518V55.5522H146V40.4486H80.5518V0.172852Z" fill="#FF4B55"/>
<path d="M7.07046 95.1233L60.2758 60.5869H51.0287L2.63086 92.0032C3.81511 93.3853 5.33699 94.4683 7.07046 95.1233Z" fill="#FF4B55"/>
<path d="M98.7744 60.5869H89.5273L141.06 94.0372C142.502 93.0902 143.705 91.811 144.563 90.3088L98.7744 60.5869Z" fill="#FF4B55"/>
<path d="M1.1543 6.21761L46.132 35.4139H55.379L4.41249 2.33008C3.04403 3.34866 1.92422 4.68033 1.1543 6.21761Z" fill="#FF4B55"/>
<path d="M94.833 35.4137L143.32 3.93957C142.122 2.56198 140.588 1.48523 138.843 0.842773L85.5859 35.4137H94.833Z" fill="#FF4B55"/>
</svg>
