<svg width="146" height="96" viewBox="0 0 146 96" fill="none" xmlns="http://www.w3.org/2000/svg">
<path d="M135.066 0.172852H10.9343C4.89528 0.172852 0 5.06813 0 11.1072V84.8939C0 90.9327 4.89528 95.8282 10.9343 95.8282H135.066C141.104 95.8282 146 90.933 146 84.8939V11.1072C146 5.06813 141.105 0.172852 135.066 0.172852Z" fill="#F5F5F5"/>
<path d="M0.601562 7.53102H145.398C143.917 3.24883 139.852 0.172852 135.066 0.172852H10.9345C6.14842 0.172852 2.08352 3.24883 0.601562 7.53102Z" fill="#FF4B55"/>
<path d="M146 29.6055H0V36.9634H146V29.6055Z" fill="#FF4B55"/>
<path d="M146 14.8877H0V22.2456H146V14.8877Z" fill="#FF4B55"/>
<path d="M0 49.1621C0 50.5522 1.12722 51.6795 2.51736 51.6795H146V44.3213H0V49.1621Z" fill="#FF4B55"/>
<path d="M146 73.7559H0V81.114H146V73.7559Z" fill="#FF4B55"/>
<path d="M145.399 88.4697H0.601562C2.08352 92.7519 6.14871 95.8279 10.9345 95.8279H135.066C139.852 95.8279 143.917 92.7519 145.399 88.4697Z" fill="#FF4B55"/>
<path d="M146 59.0391H0V66.397H146V59.0391Z" fill="#FF4B55"/>
<path d="M2.51736 51.6788H65.4485C66.8386 51.6788 67.9658 50.5516 67.9658 49.1614V2.68923C67.9658 1.29881 66.8386 0.171875 65.4485 0.171875H10.9343C4.89528 0.17216 0 5.06744 0 11.1065V49.1614C0 50.5519 1.12722 51.6788 2.51736 51.6788Z" fill="#41479B"/>
<path d="M7.06896 5.95038L7.62616 7.62139L9.38756 7.63479C9.61569 7.63679 9.71008 7.92765 9.52672 8.0631L8.10978 9.10933L8.64131 10.7886C8.71032 11.0059 8.46252 11.1861 8.27688 11.0532L6.84397 10.0292L5.41106 11.0535C5.22543 11.1864 4.9782 11.0062 5.04663 10.7889L5.57816 9.10962L4.16122 8.06338C3.97787 7.92765 4.07225 7.63679 4.30038 7.63508L6.06179 7.62168L6.61898 5.95066C6.69084 5.73394 6.99653 5.73394 7.06896 5.95038Z" fill="#F5F5F5"/>
<path d="M7.06896 14.6914L7.62616 16.3624L9.38756 16.3758C9.61569 16.3778 9.71008 16.6684 9.52672 16.8041L8.10978 17.8506L8.64131 19.5299C8.71032 19.7472 8.46252 19.9274 8.27688 19.7945L6.84397 18.7705L5.41106 19.7948C5.22543 19.9274 4.9782 19.7475 5.04663 19.5302L5.57816 17.8509L4.16122 16.8044C3.97787 16.6687 4.07225 16.3781 4.30038 16.3761L6.06179 16.3627L6.61898 14.6917C6.69084 14.4752 6.99653 14.4752 7.06896 14.6914Z" fill="#F5F5F5"/>
<path d="M7.06896 23.4328L7.62616 25.1038L9.38756 25.1172C9.61569 25.1192 9.71008 25.4098 9.52672 25.5455L8.10978 26.592L8.64131 28.2713C8.71032 28.4886 8.46252 28.6688 8.27688 28.536L6.84397 27.512L5.41106 28.5362C5.22543 28.6688 4.9782 28.4892 5.04663 28.2716L5.57816 26.5923L4.16122 25.5458C3.97787 25.4101 4.07225 25.1195 4.30038 25.1175L6.06179 25.1041L6.61898 23.4331C6.69084 23.2164 6.99653 23.2164 7.06896 23.4328Z" fill="#F5F5F5"/>
<path d="M7.06896 32.174L7.62616 33.845L9.38756 33.8584C9.61569 33.8604 9.71008 34.1513 9.52672 34.2867L8.10978 35.3333L8.64131 37.0125C8.71032 37.2298 8.46252 37.4101 8.27688 37.2772L6.84397 36.2532L5.41106 37.2775C5.22543 37.4101 4.9782 37.2301 5.04663 37.0128L5.57816 35.3335L4.16122 34.287C3.97787 34.1519 4.07225 33.8607 4.30038 33.8587L6.06179 33.8453L6.61898 32.1743C6.69084 31.9576 6.99653 31.9576 7.06896 32.174Z" fill="#F5F5F5"/>
<path d="M7.06896 40.915L7.62616 42.586L9.38756 42.5994C9.61569 42.6014 9.71008 42.892 9.52672 43.0277L8.10978 44.0743L8.64131 45.7535C8.71032 45.9708 8.46252 46.1511 8.27688 46.0182L6.84397 44.9942L5.41106 46.0185C5.22543 46.151 4.9782 45.9711 5.04663 45.7538L5.57816 44.0745L4.16122 43.028C3.97787 42.8923 4.07225 42.6017 4.30038 42.5997L6.06179 42.5863L6.61898 40.9153C6.69084 40.6989 6.99653 40.6989 7.06896 40.915Z" fill="#F5F5F5"/>
<path d="M13.8541 10.2363L14.4113 11.9073L16.1727 11.9208C16.4008 11.9227 16.4952 12.2136 16.3119 12.3491L14.8949 13.3956L15.4265 15.0749C15.4955 15.2922 15.2477 15.4724 15.062 15.3395L13.6291 14.3152L12.1962 15.3395C12.0106 15.4721 11.7634 15.2922 11.8318 15.0749L12.3633 13.3956L10.9464 12.3491C10.763 12.2133 10.8574 11.9227 11.0855 11.9208L12.8469 11.9073L13.4041 10.2363C13.476 10.0202 13.782 10.0202 13.8541 10.2363Z" fill="#F5F5F5"/>
<path d="M13.8541 18.9778L14.4113 20.6488L16.1727 20.6622C16.4008 20.6642 16.4952 20.955 16.3119 21.0905L14.8949 22.137L15.4265 23.8163C15.4955 24.0336 15.2477 24.2138 15.062 24.0809L13.6291 23.0566L12.1962 24.0809C12.0106 24.2135 11.7634 24.0339 11.8318 23.8163L12.3633 22.137L10.9464 21.0905C10.763 20.9553 10.8574 20.6642 11.0855 20.6622L12.8469 20.6488L13.4041 18.9778C13.476 18.7613 13.782 18.7613 13.8541 18.9778Z" fill="#F5F5F5"/>
<path d="M13.8541 27.719L14.4113 29.39L16.1727 29.4034C16.4008 29.4054 16.4952 29.696 16.3119 29.8317L14.8949 30.8782L15.4265 32.5575C15.4955 32.7748 15.2477 32.955 15.062 32.8221L13.6291 31.7979L12.1962 32.8221C12.0106 32.9547 11.7634 32.7748 11.8318 32.5575L12.3633 30.8782L10.9464 29.8317C10.763 29.696 10.8574 29.4054 11.0855 29.4034L12.8469 29.39L13.4041 27.719C13.476 27.5025 13.782 27.5025 13.8541 27.719Z" fill="#F5F5F5"/>
<path d="M13.8541 36.46L14.4113 38.131L16.1727 38.1444C16.4008 38.1464 16.4952 38.4369 16.3119 38.5727L14.8949 39.6192L15.4265 41.2985C15.4955 41.5158 15.2477 41.696 15.062 41.5631L13.6291 40.5388L12.1962 41.5631C12.0106 41.696 11.7634 41.5158 11.8318 41.2985L12.3633 39.6192L10.9464 38.5727C10.763 38.4369 10.8574 38.1464 11.0855 38.1444L12.8469 38.131L13.4041 36.46C13.476 36.2438 13.782 36.2438 13.8541 36.46Z" fill="#F5F5F5"/>
<path d="M20.6393 5.95041L21.1965 7.62143L22.9579 7.63483C23.186 7.63683 23.2804 7.92769 23.097 8.06314L21.6801 9.10938L22.2116 10.7887C22.2806 11.006 22.0328 11.1862 21.8472 11.0533L20.4143 10.029L18.9814 11.0533C18.7957 11.1862 18.5485 11.006 18.6169 10.7887L19.1485 9.10938L17.7315 8.06314C17.5482 7.9274 17.6426 7.63654 17.8707 7.63483L19.6321 7.62143L20.1893 5.95041C20.2612 5.73398 20.5671 5.73398 20.6393 5.95041Z" fill="#F5F5F5"/>
<path d="M20.6393 14.6914L21.1965 16.3624L22.9579 16.3758C23.186 16.3778 23.2804 16.6684 23.097 16.8041L21.6801 17.8507L22.2116 19.5299C22.2806 19.7472 22.0328 19.9274 21.8472 19.7946L20.4143 18.7703L18.9814 19.7946C18.7957 19.9272 18.5485 19.7472 18.6169 19.5299L19.1485 17.8507L17.7315 16.8041C17.5482 16.6684 17.6426 16.3778 17.8707 16.3758L19.6321 16.3624L20.1893 14.6914C20.2612 14.4753 20.5671 14.4753 20.6393 14.6914Z" fill="#F5F5F5"/>
<path d="M20.6393 23.4328L21.1965 25.1039L22.9579 25.1173C23.186 25.1193 23.2804 25.4098 23.097 25.5456L21.6801 26.5921L22.2116 28.2714C22.2806 28.4887 22.0328 28.6689 21.8472 28.536L20.4143 27.5117L18.9814 28.536C18.7957 28.6686 18.5485 28.4889 18.6169 28.2714L19.1485 26.5921L17.7315 25.5456C17.5482 25.4098 17.6426 25.1193 17.8707 25.1173L19.6321 25.1039L20.1893 23.4328C20.2612 23.2164 20.5671 23.2164 20.6393 23.4328Z" fill="#F5F5F5"/>
<path d="M20.6393 32.174L21.1965 33.8451L22.9579 33.8585C23.186 33.8605 23.2804 34.1513 23.097 34.2868L21.6801 35.3333L22.2116 37.0126C22.2806 37.2299 22.0328 37.4101 21.8472 37.2772L20.4143 36.2529L18.9814 37.2772C18.7957 37.4098 18.5485 37.2299 18.6169 37.0126L19.1485 35.3333L17.7315 34.2868C17.5482 34.1516 17.6426 33.8605 17.8707 33.8585L19.6321 33.8451L20.1893 32.174C20.2612 31.9576 20.5671 31.9576 20.6393 32.174Z" fill="#F5F5F5"/>
<path d="M20.6393 40.915L21.1965 42.5861L22.9579 42.5995C23.186 42.6015 23.2804 42.892 23.097 43.0278L21.6801 44.0743L22.2116 45.7536C22.2806 45.9709 22.0328 46.1511 21.8472 46.0182L20.4143 44.9939L18.9814 46.0182C18.7957 46.1508 18.5485 45.9709 18.6169 45.7536L19.1485 44.0743L17.7315 43.0278C17.5482 42.892 17.6426 42.6015 17.8707 42.5995L19.6321 42.5861L20.1893 40.915C20.2612 40.6989 20.5671 40.6989 20.6393 40.915Z" fill="#F5F5F5"/>
<path d="M27.4244 10.2363L27.9816 11.9073L29.743 11.9208C29.9712 11.9227 30.0656 12.2136 29.8822 12.3491L28.4653 13.3956L28.9968 15.0749C29.0658 15.2922 28.818 15.4724 28.6324 15.3395L27.1994 14.3152L25.7665 15.3395C25.5809 15.4721 25.3337 15.2922 25.4021 15.0749L25.9336 13.3956L24.5167 12.3491C24.3333 12.2133 24.4277 11.9227 24.6558 11.9208L26.4173 11.9073L26.9745 10.2363C27.046 10.0202 27.3523 10.0202 27.4244 10.2363Z" fill="#F5F5F5"/>
<path d="M27.4244 18.9778L27.9816 20.6488L29.743 20.6622C29.9712 20.6642 30.0656 20.955 29.8822 21.0905L28.4653 22.137L28.9968 23.8163C29.0658 24.0336 28.818 24.2138 28.6324 24.0809L27.1994 23.0566L25.7665 24.0809C25.5809 24.2135 25.3337 24.0339 25.4021 23.8163L25.9336 22.137L24.5167 21.0905C24.3333 20.9553 24.4277 20.6642 24.6558 20.6622L26.4173 20.6488L26.9745 18.9778C27.046 18.7613 27.3523 18.7613 27.4244 18.9778Z" fill="#F5F5F5"/>
<path d="M27.4244 27.719L27.9816 29.39L29.743 29.4034C29.9712 29.4054 30.0656 29.696 29.8822 29.8317L28.4653 30.8782L28.9968 32.5575C29.0658 32.7748 28.818 32.955 28.6324 32.8221L27.1994 31.7979L25.7665 32.8221C25.5809 32.9547 25.3337 32.7748 25.4021 32.5575L25.9336 30.8782L24.5167 29.8317C24.3333 29.696 24.4277 29.4054 24.6558 29.4034L26.4173 29.39L26.9745 27.719C27.046 27.5025 27.3523 27.5025 27.4244 27.719Z" fill="#F5F5F5"/>
<path d="M27.4244 36.46L27.9816 38.131L29.743 38.1444C29.9712 38.1464 30.0656 38.4369 29.8822 38.5727L28.4653 39.6192L28.9968 41.2985C29.0658 41.5158 28.818 41.696 28.6324 41.5631L27.1994 40.5388L25.7665 41.5631C25.5809 41.696 25.3337 41.5158 25.4021 41.2985L25.9336 39.6192L24.5167 38.5727C24.3333 38.4369 24.4277 38.1464 24.6558 38.1444L26.4173 38.131L26.9745 36.46C27.046 36.2438 27.3523 36.2438 27.4244 36.46Z" fill="#F5F5F5"/>
<path d="M34.2079 5.95038L34.7651 7.62139L36.5265 7.6348C36.7547 7.63679 36.849 7.92765 36.6657 8.0631L35.2487 9.10934L35.7803 10.7886C35.8493 11.0059 35.6015 11.1861 35.4158 11.0533L33.9826 10.0293L32.5497 11.0535C32.3641 11.1864 32.1169 11.0062 32.1853 10.7889L32.7168 9.10962L31.2999 8.06339C31.1165 7.92765 31.2109 7.63679 31.4391 7.63508L33.2005 7.62168L33.7577 5.95066C33.8298 5.73394 34.1358 5.73394 34.2079 5.95038Z" fill="#F5F5F5"/>
<path d="M34.2079 14.6914L34.7651 16.3624L36.5265 16.3758C36.7547 16.3778 36.849 16.6684 36.6657 16.8041L35.2487 17.8507L35.7803 19.5299C35.8493 19.7472 35.6015 19.9274 35.4158 19.7946L33.9826 18.7703L32.5497 19.7946C32.3641 19.9272 32.1169 19.7472 32.1853 19.5299L32.7168 17.8507L31.2999 16.8041C31.1165 16.6684 31.2109 16.3778 31.4391 16.3758L33.2005 16.3624L33.7577 14.6914C33.8298 14.4753 34.1358 14.4753 34.2079 14.6914Z" fill="#F5F5F5"/>
<path d="M34.2079 23.4329L34.7651 25.1039L36.5265 25.1173C36.7547 25.1193 36.849 25.4099 36.6657 25.5456L35.2487 26.5921L35.7803 28.2714C35.8493 28.4887 35.6015 28.6689 35.4158 28.536L33.9826 27.5115L32.5497 28.5357C32.3641 28.6683 32.1169 28.4884 32.1853 28.2711L32.7168 26.5918L31.2999 25.5453C31.1165 25.4096 31.2109 25.119 31.4391 25.117L33.2005 25.1036L33.7577 23.4326C33.8298 23.2164 34.1358 23.2164 34.2079 23.4329Z" fill="#F5F5F5"/>
<path d="M34.2079 32.174L34.7651 33.8451L36.5265 33.8585C36.7547 33.8605 36.849 34.1513 36.6657 34.2868L35.2487 35.3333L35.7803 37.0126C35.8493 37.2299 35.6015 37.4101 35.4158 37.2772L33.9826 36.2529L32.5497 37.2772C32.3641 37.4098 32.1169 37.2299 32.1853 37.0126L32.7168 35.3333L31.2999 34.2868C31.1165 34.1516 31.2109 33.8605 31.4391 33.8585L33.2005 33.8451L33.7577 32.174C33.8298 31.9576 34.1358 31.9576 34.2079 32.174Z" fill="#F5F5F5"/>
<path d="M34.2079 40.915L34.7651 42.5861L36.5265 42.5995C36.7547 42.6015 36.849 42.892 36.6657 43.0278L35.2487 44.0743L35.7803 45.7536C35.8493 45.9709 35.6015 46.1511 35.4158 46.0182L33.9826 44.9939L32.5497 46.0182C32.3641 46.1508 32.1169 45.9709 32.1853 45.7536L32.7168 44.0743L31.2999 43.0278C31.1165 42.892 31.2109 42.6015 31.4391 42.5995L33.2005 42.5861L33.7577 40.915C33.8298 40.6989 34.1358 40.6989 34.2079 40.915Z" fill="#F5F5F5"/>
<path d="M40.9928 10.2363L41.55 11.9073L43.3114 11.9208C43.5395 11.9227 43.6339 12.2136 43.4505 12.3491L42.0336 13.3956L42.5651 15.0749C42.6341 15.2922 42.3863 15.4724 42.2007 15.3395L40.7678 14.3152L39.3349 15.3395C39.1493 15.4721 38.902 15.2922 38.9705 15.0749L39.502 13.3956L38.0851 12.3491C37.9017 12.2133 37.9961 11.9227 38.2242 11.9208L39.9856 11.9073L40.5428 10.2363C40.615 10.0202 40.9206 10.0202 40.9928 10.2363Z" fill="#F5F5F5"/>
<path d="M40.9928 18.9778L41.55 20.6488L43.3114 20.6622C43.5395 20.6642 43.6339 20.955 43.4505 21.0905L42.0336 22.137L42.5651 23.8163C42.6341 24.0336 42.3863 24.2138 42.2007 24.0809L40.7678 23.0566L39.3349 24.0809C39.1493 24.2135 38.902 24.0339 38.9705 23.8163L39.502 22.137L38.0851 21.0905C37.9017 20.9553 37.9961 20.6642 38.2242 20.6622L39.9856 20.6488L40.5428 18.9778C40.615 18.7613 40.9206 18.7613 40.9928 18.9778Z" fill="#F5F5F5"/>
<path d="M40.9928 27.719L41.55 29.39L43.3114 29.4034C43.5395 29.4054 43.6339 29.696 43.4505 29.8317L42.0336 30.8782L42.5651 32.5575C42.6341 32.7748 42.3863 32.955 42.2007 32.8221L40.7678 31.7979L39.3349 32.8221C39.1493 32.9547 38.902 32.7748 38.9705 32.5575L39.502 30.8782L38.0851 29.8317C37.9017 29.696 37.9961 29.4054 38.2242 29.4034L39.9856 29.39L40.5428 27.719C40.615 27.5025 40.9206 27.5025 40.9928 27.719Z" fill="#F5F5F5"/>
<path d="M40.9928 36.46L41.55 38.131L43.3114 38.1444C43.5395 38.1464 43.6339 38.4369 43.4505 38.5727L42.0336 39.6192L42.5651 41.2985C42.6341 41.5158 42.3863 41.696 42.2007 41.5631L40.7678 40.5388L39.3349 41.5631C39.1493 41.696 38.902 41.5158 38.9705 41.2985L39.502 39.6192L38.0851 38.5727C37.9017 38.4369 37.9961 38.1464 38.2242 38.1444L39.9856 38.131L40.5428 36.46C40.615 36.2438 40.9206 36.2438 40.9928 36.46Z" fill="#F5F5F5"/>
<path d="M47.7779 5.95041L48.3351 7.62143L50.0965 7.63483C50.3247 7.63683 50.4191 7.92769 50.2357 8.06314L48.8188 9.10938L49.3503 10.7887C49.4193 11.006 49.1715 11.1862 48.9859 11.0533L47.553 10.029L46.12 11.0533C45.9344 11.1862 45.6872 11.006 45.7556 10.7887L46.2871 9.10938L44.8702 8.06314C44.6869 7.9274 44.7812 7.63654 45.0094 7.63483L46.7708 7.62143L47.328 5.95041C47.3995 5.73398 47.7058 5.73398 47.7779 5.95041Z" fill="#F5F5F5"/>
<path d="M47.7779 14.6914L48.3351 16.3624L50.0965 16.3758C50.3247 16.3778 50.4191 16.6684 50.2357 16.8041L48.8188 17.8507L49.3503 19.5299C49.4193 19.7472 49.1715 19.9274 48.9859 19.7946L47.553 18.7703L46.12 19.7946C45.9344 19.9272 45.6872 19.7472 45.7556 19.5299L46.2871 17.8507L44.8702 16.8041C44.6869 16.6684 44.7812 16.3778 45.0094 16.3758L46.7708 16.3624L47.328 14.6914C47.3995 14.4753 47.7058 14.4753 47.7779 14.6914Z" fill="#F5F5F5"/>
<path d="M47.7779 23.4328L48.3351 25.1039L50.0965 25.1173C50.3247 25.1193 50.4191 25.4098 50.2357 25.5456L48.8188 26.5921L49.3503 28.2714C49.4193 28.4887 49.1715 28.6689 48.9859 28.536L47.553 27.5117L46.12 28.536C45.9344 28.6686 45.6872 28.4889 45.7556 28.2714L46.2871 26.5921L44.8702 25.5456C44.6869 25.4098 44.7812 25.1193 45.0094 25.1173L46.7708 25.1039L47.328 23.4328C47.3995 23.2164 47.7058 23.2164 47.7779 23.4328Z" fill="#F5F5F5"/>
<path d="M47.7779 32.174L48.3351 33.8451L50.0965 33.8585C50.3247 33.8605 50.4191 34.1513 50.2357 34.2868L48.8188 35.3333L49.3503 37.0126C49.4193 37.2299 49.1715 37.4101 48.9859 37.2772L47.553 36.2529L46.12 37.2772C45.9344 37.4098 45.6872 37.2299 45.7556 37.0126L46.2871 35.3333L44.8702 34.2868C44.6869 34.1516 44.7812 33.8605 45.0094 33.8585L46.7708 33.8451L47.328 32.174C47.3995 31.9576 47.7058 31.9576 47.7779 32.174Z" fill="#F5F5F5"/>
<path d="M47.7779 40.915L48.3351 42.5861L50.0965 42.5995C50.3247 42.6015 50.4191 42.892 50.2357 43.0278L48.8188 44.0743L49.3503 45.7536C49.4193 45.9709 49.1715 46.1511 48.9859 46.0182L47.553 44.9939L46.12 46.0182C45.9344 46.1508 45.6872 45.9709 45.7556 45.7536L46.2871 44.0743L44.8702 43.0278C44.6869 42.892 44.7812 42.6015 45.0094 42.5995L46.7708 42.5861L47.328 40.915C47.3995 40.6989 47.7058 40.6989 47.7779 40.915Z" fill="#F5F5F5"/>
<path d="M54.5631 10.2363L55.1203 11.9073L56.8817 11.9208C57.1098 11.9227 57.2042 12.2136 57.0209 12.3491L55.6039 13.3956L56.1355 15.0749C56.2045 15.2922 55.9567 15.4724 55.771 15.3395L54.3381 14.3152L52.9052 15.3395C52.7196 15.4721 52.4723 15.2922 52.5408 15.0749L53.0723 13.3956L51.6554 12.3491C51.472 12.2133 51.5664 11.9227 51.7945 11.9208L53.5559 11.9073L54.1131 10.2363C54.185 10.0202 54.491 10.0202 54.5631 10.2363Z" fill="#F5F5F5"/>
<path d="M54.5631 18.9778L55.1203 20.6488L56.8817 20.6622C57.1098 20.6642 57.2042 20.955 57.0209 21.0905L55.6039 22.137L56.1355 23.8163C56.2045 24.0336 55.9567 24.2138 55.771 24.0809L54.3381 23.0566L52.9052 24.0809C52.7196 24.2135 52.4723 24.0339 52.5408 23.8163L53.0723 22.137L51.6554 21.0905C51.472 20.9553 51.5664 20.6642 51.7945 20.6622L53.5559 20.6488L54.1131 18.9778C54.185 18.7613 54.491 18.7613 54.5631 18.9778Z" fill="#F5F5F5"/>
<path d="M54.5631 27.719L55.1203 29.39L56.8817 29.4034C57.1098 29.4054 57.2042 29.696 57.0209 29.8317L55.6039 30.8782L56.1355 32.5575C56.2045 32.7748 55.9567 32.955 55.771 32.8221L54.3381 31.7979L52.9052 32.8221C52.7196 32.9547 52.4723 32.7748 52.5408 32.5575L53.0723 30.8782L51.6554 29.8317C51.472 29.696 51.5664 29.4054 51.7945 29.4034L53.5559 29.39L54.1131 27.719C54.185 27.5025 54.491 27.5025 54.5631 27.719Z" fill="#F5F5F5"/>
<path d="M54.5631 36.46L55.1203 38.131L56.8817 38.1444C57.1098 38.1464 57.2042 38.4369 57.0209 38.5727L55.6039 39.6192L56.1355 41.2985C56.2045 41.5158 55.9567 41.696 55.771 41.5631L54.3381 40.5388L52.9052 41.5631C52.7196 41.696 52.4723 41.5158 52.5408 41.2985L53.0723 39.6192L51.6554 38.5727C51.472 38.4369 51.5664 38.1464 51.7945 38.1444L53.5559 38.131L54.1131 36.46C54.185 36.2438 54.491 36.2438 54.5631 36.46Z" fill="#F5F5F5"/>
<path d="M61.3483 5.95041L61.9055 7.62143L63.6669 7.63483C63.895 7.63683 63.9894 7.92769 63.806 8.06314L62.3891 9.10938L62.9206 10.7887C62.9896 11.006 62.7418 11.1862 62.5562 11.0533L61.1233 10.029L59.6904 11.0533C59.5047 11.1862 59.2575 11.006 59.3259 10.7887L59.8575 9.10938L58.4405 8.06314C58.2572 7.9274 58.3516 7.63654 58.5797 7.63483L60.3411 7.62143L60.8983 5.95041C60.9701 5.73398 61.2758 5.73398 61.3483 5.95041Z" fill="#F5F5F5"/>
<path d="M61.3483 14.6914L61.9055 16.3624L63.6669 16.3758C63.895 16.3778 63.9894 16.6684 63.806 16.8041L62.3891 17.8507L62.9206 19.5299C62.9896 19.7472 62.7418 19.9274 62.5562 19.7946L61.1233 18.7703L59.6904 19.7946C59.5047 19.9272 59.2575 19.7472 59.3259 19.5299L59.8575 17.8507L58.4405 16.8041C58.2572 16.6684 58.3516 16.3778 58.5797 16.3758L60.3411 16.3624L60.8983 14.6914C60.9701 14.4753 61.2758 14.4753 61.3483 14.6914Z" fill="#F5F5F5"/>
<path d="M61.3483 23.4328L61.9055 25.1039L63.6669 25.1173C63.895 25.1193 63.9894 25.4098 63.806 25.5456L62.3891 26.5921L62.9206 28.2714C62.9896 28.4887 62.7418 28.6689 62.5562 28.536L61.1233 27.5117L59.6904 28.536C59.5047 28.6686 59.2575 28.4889 59.3259 28.2714L59.8575 26.5921L58.4405 25.5456C58.2572 25.4098 58.3516 25.1193 58.5797 25.1173L60.3411 25.1039L60.8983 23.4328C60.9701 23.2164 61.2758 23.2164 61.3483 23.4328Z" fill="#F5F5F5"/>
<path d="M61.3483 32.174L61.9055 33.8451L63.6669 33.8585C63.895 33.8605 63.9894 34.1513 63.806 34.2868L62.3891 35.3333L62.9206 37.0126C62.9896 37.2299 62.7418 37.4101 62.5562 37.2772L61.1233 36.2529L59.6904 37.2772C59.5047 37.4098 59.2575 37.2299 59.3259 37.0126L59.8575 35.3333L58.4405 34.2868C58.2572 34.1516 58.3516 33.8605 58.5797 33.8585L60.3411 33.8451L60.8983 32.174C60.9701 31.9576 61.2758 31.9576 61.3483 32.174Z" fill="#F5F5F5"/>
<path d="M61.3483 40.915L61.9055 42.5861L63.6669 42.5995C63.895 42.6015 63.9894 42.892 63.806 43.0278L62.3891 44.0743L62.9206 45.7536C62.9896 45.9709 62.7418 46.1511 62.5562 46.0182L61.1233 44.9939L59.6904 46.0182C59.5047 46.1508 59.2575 45.9709 59.3259 45.7536L59.8575 44.0743L58.4405 43.0278C58.2572 42.892 58.3516 42.6015 58.5797 42.5995L60.3411 42.5861L60.8983 40.915C60.9701 40.6989 61.2758 40.6989 61.3483 40.915Z" fill="#F5F5F5"/>
</svg>
