<svg width="729" height="481" viewBox="0 0 729 481" fill="none" xmlns="http://www.w3.org/2000/svg">
<g opacity="0.9">
<g opacity="0.35">
<path opacity="0.35" d="M675.38 364.514C663.741 323.002 700.751 321.407 701.569 267.923C701.899 246.041 689.835 223.769 660.831 213.548C646.565 208.53 632.362 205.076 619.669 197.09C590.759 178.897 591.278 144.261 583.382 114.753C566.049 49.9056 430.341 -1.64086 362.848 0.0471397C314.199 1.25062 291.754 24.5544 247.399 65.5821C217.058 93.6528 163.58 91.1208 179.167 163.658C193.04 228.271 160.308 223.472 130.329 247.323C100.413 271.127 78.5025 299.526 90.4093 331.754C103.543 367.296 23.1685 387.692 8.83954 433.753C-0.896608 464.996 50.1749 467.622 84.9356 467.622C119.696 467.622 417.066 464.965 542.833 468.669C576.682 469.67 684.692 478.829 699.98 436.895C710.377 408.355 683.512 393.507 675.38 364.514Z" fill="#297AFF"/>
</g>
<path d="M626.619 334.817C601.484 392.944 553.055 440.395 495 466.106" stroke="#66666E" stroke-width="2" stroke-miterlimit="10"/>
<path d="M619.242 350.275C628.019 343.007 634.027 332.52 635.82 321.313C636.261 318.562 636.355 315.436 634.499 313.358C633.996 312.779 633.32 312.31 632.549 312.232C631.322 312.107 630.237 313.014 629.403 313.936C625.03 318.812 623.52 325.549 622.765 332.035C622.026 338.521 620.595 343.273 619.242 350.275Z" fill="#8ED16F"/>
<path d="M607.304 370.078C612.463 359.95 613.8 347.962 610.969 336.959C610.277 334.271 609.113 331.364 606.58 330.176C605.888 329.848 605.07 329.691 604.347 329.91C603.167 330.285 602.522 331.536 602.145 332.708C600.084 338.897 601.39 345.696 603.277 351.948C605.165 358.2 605.762 363.123 607.304 370.078Z" fill="#8ED16F"/>
<path d="M589.735 394.444C596.105 385.02 598.889 373.282 597.442 362.013C597.08 359.247 596.294 356.23 593.918 354.745C593.274 354.339 592.487 354.073 591.732 354.214C590.521 354.433 589.735 355.605 589.2 356.715C586.384 362.607 586.84 369.515 587.957 375.939C589.09 382.378 589.058 387.349 589.735 394.444Z" fill="#8ED16F"/>
<path d="M569.554 415.778C575.925 406.354 578.724 394.616 577.262 383.347C576.9 380.581 576.113 377.564 573.738 376.079C573.093 375.673 572.307 375.407 571.552 375.548C570.341 375.767 569.554 376.939 569.02 378.049C566.204 383.941 566.66 390.849 567.777 397.273C568.894 403.728 568.878 408.698 569.554 415.778Z" fill="#8ED16F"/>
<path d="M539.324 440.411C546.638 431.689 550.649 420.295 550.381 408.948C550.319 406.166 549.831 403.072 547.629 401.368C547.015 400.899 546.276 400.555 545.505 400.618C544.263 400.711 543.366 401.806 542.721 402.853C539.308 408.432 539.041 415.341 539.481 421.843C539.922 428.36 539.387 433.299 539.324 440.411Z" fill="#8ED16F"/>
<path d="M515.636 456.15C522.84 448.397 527.48 437.566 528.455 426.282C528.691 423.515 528.613 420.389 526.914 418.42C526.442 417.873 525.844 417.451 525.184 417.42C524.114 417.373 523.233 418.326 522.557 419.295C519.049 424.422 518.074 431.236 517.76 437.754C517.445 444.256 516.454 449.085 515.636 456.15Z" fill="#8ED16F"/>
<path d="M601.327 378.8C612.904 380.691 625.408 378.315 635.82 372.22C638.369 370.719 641.011 368.703 641.562 365.89C641.703 365.124 641.672 364.28 641.247 363.639C640.571 362.607 639.124 362.373 637.85 362.357C631.039 362.264 624.496 365.593 618.66 369.344C612.809 373.095 607.98 375.174 601.327 378.8Z" fill="#8ED16F"/>
<path d="M587.14 397.226C597.93 401.821 610.639 402.462 622.215 399.024C625.046 398.18 628.113 396.851 629.309 394.241C629.639 393.522 629.796 392.709 629.545 391.99C629.136 390.834 627.799 390.271 626.556 389.943C619.966 388.224 612.809 389.912 606.25 392.162C599.66 394.429 594.454 395.288 587.14 397.226Z" fill="#8ED16F"/>
<path d="M565.937 418.733C575.595 425.375 587.91 428.533 599.943 427.47C602.9 427.204 606.156 426.516 607.854 424.203C608.326 423.562 608.641 422.796 608.546 422.046C608.373 420.827 607.178 419.999 606.03 419.436C599.927 416.451 592.566 416.67 585.677 417.576C578.772 418.467 573.503 418.279 565.937 418.733Z" fill="#8ED16F"/>
<path d="M536.272 443.553C547.173 447.898 559.881 448.273 571.379 444.568C574.195 443.662 577.215 442.271 578.363 439.63C578.677 438.911 578.819 438.082 578.552 437.363C578.111 436.207 576.758 435.675 575.516 435.378C568.894 433.815 561.785 435.66 555.257 438.051C548.73 440.473 543.555 441.443 536.272 443.553Z" fill="#8ED16F"/>
<path d="M512.302 457.775C520.056 466.528 531.255 472.561 543.193 474.39C546.119 474.843 549.453 474.937 551.671 473.108C552.284 472.608 552.788 471.936 552.866 471.17C552.992 469.951 552.033 468.857 551.058 468.044C545.851 463.683 538.663 462.152 531.758 461.37C524.822 460.604 519.741 459.151 512.302 457.775Z" fill="#8ED16F"/>
<path d="M561.118 266.762C551.887 325.055 516.729 377.017 470 401.423" stroke="#66666E" stroke-width="2" stroke-miterlimit="10"/>
<g opacity="0.8">
<path d="M558.778 278.958C563.122 272.375 565.324 263.931 564.85 255.67C564.732 253.639 564.347 251.403 562.915 250.228C562.52 249.908 562.046 249.68 561.563 249.749C560.792 249.863 560.249 250.673 559.884 251.46C557.9 255.636 557.919 260.679 558.374 265.414C558.828 270.15 558.63 273.767 558.778 278.958Z" fill="#64934E"/>
<path d="M554.266 294.979C555.994 286.935 555.125 278.183 551.847 270.812C551.047 269.009 549.922 267.127 548.204 266.693C547.73 266.579 547.217 266.591 546.792 266.864C546.121 267.321 545.913 268.313 545.834 269.215C545.449 273.961 547.197 278.582 549.241 282.713C551.284 286.878 552.341 290.289 554.266 294.979Z" fill="#64934E"/>
<path d="M546.95 315.163C549.517 307.427 549.576 298.619 547.098 290.837C546.496 288.932 545.578 286.901 543.919 286.239C543.465 286.056 542.952 285.999 542.507 286.216C541.797 286.57 541.481 287.528 541.313 288.407C540.424 293.062 541.678 297.888 543.268 302.293C544.847 306.686 545.538 310.223 546.95 315.163Z" fill="#64934E"/>
<path d="M537.61 333.612C540.177 325.876 540.236 317.068 537.768 309.286C537.166 307.381 536.248 305.35 534.589 304.688C534.135 304.505 533.621 304.437 533.177 304.665C532.466 305.019 532.15 305.977 531.982 306.856C531.094 311.511 532.348 316.337 533.937 320.742C535.507 325.146 536.188 328.683 537.61 333.612Z" fill="#64934E"/>
<path d="M522.574 356.034C525.822 348.651 526.671 339.889 524.904 331.856C524.469 329.882 523.739 327.76 522.149 326.904C521.715 326.664 521.201 326.539 520.747 326.71C520.007 326.984 519.602 327.897 519.355 328.752C518.052 333.271 518.861 338.234 520.056 342.798C521.251 347.362 521.606 350.956 522.574 356.034Z" fill="#64934E"/>
<path d="M510.301 371.06C513.609 364.374 514.932 355.919 513.944 347.727C513.698 345.719 513.214 343.505 511.891 342.376C511.526 342.067 511.101 341.851 510.686 341.942C510.025 342.079 509.62 342.912 509.344 343.699C507.912 347.909 508.287 352.918 509.008 357.608C509.729 362.309 509.798 365.903 510.301 371.06Z" fill="#64934E"/>
<path d="M551.837 302.155C559.193 301.63 566.509 297.91 572.018 291.897C573.37 290.425 574.703 288.554 574.634 286.466C574.614 285.895 574.476 285.302 574.131 284.914C573.568 284.287 572.66 284.355 571.87 284.549C567.693 285.576 564.159 289.01 561.108 292.616C558.067 296.244 555.392 298.504 551.837 302.155Z" fill="#64934E"/>
<path d="M545.745 317.569C552.992 319.086 560.861 317.5 567.466 313.176C569.085 312.115 570.764 310.677 571.129 308.623C571.228 308.064 571.218 307.448 570.951 306.98C570.537 306.216 569.638 306.033 568.829 306.011C564.554 305.862 560.417 308.213 556.714 310.883C553.022 313.541 549.961 315.002 545.745 317.569Z" fill="#64934E"/>
<path d="M535.804 336.293C542.646 339.465 550.633 339.716 557.84 337.012C559.607 336.35 561.503 335.323 562.224 333.407C562.421 332.882 562.51 332.277 562.342 331.752C562.066 330.908 561.217 330.52 560.437 330.303C556.28 329.162 551.818 330.52 547.72 332.277C543.623 334.034 540.375 334.753 535.804 336.293Z" fill="#64934E"/>
<path d="M521.152 358.759C528.428 360.094 536.268 358.303 542.784 353.807C544.383 352.712 546.032 351.217 546.358 349.164C546.447 348.593 546.417 347.988 546.15 347.521C545.716 346.767 544.818 346.608 544.008 346.596C539.733 346.551 535.636 349.015 531.993 351.776C528.34 354.549 525.309 356.089 521.152 358.759Z" fill="#64934E"/>
<path d="M508.485 372.76C514.468 377.734 522.159 380.21 529.722 379.594C531.578 379.446 533.632 378.978 534.727 377.312C535.024 376.856 535.241 376.297 535.182 375.738C535.093 374.848 534.342 374.231 533.632 373.809C529.83 371.55 525.22 371.619 520.885 372.178C516.541 372.748 513.244 372.543 508.485 372.76Z" fill="#64934E"/>
</g>
<path d="M23.1685 355.074C104.77 351.37 187.157 389.631 236.672 454.197" stroke="#66666E" stroke-width="2" stroke-miterlimit="10"/>
<path d="M40.3917 354.933C29.9949 350.244 17.868 349.463 6.93643 352.745C4.26253 353.542 1.38416 354.839 0.314595 357.402C0.0157475 358.106 -0.110083 358.918 0.157307 359.637C0.581985 360.794 1.87175 361.372 3.06714 361.7C9.39013 363.482 16.1535 361.888 22.3507 359.731C28.5321 357.574 33.471 356.762 40.3917 354.933Z" fill="#64934E"/>
<path d="M63.5286 356.964C52.1095 356.761 40.6589 360.809 31.9451 368.139C29.806 369.937 27.6826 372.25 27.7298 375.032C27.7455 375.798 27.9343 376.595 28.469 377.142C29.3184 378.033 30.734 378.064 31.9608 377.892C38.4726 377.033 44.0563 372.906 48.8851 368.483C53.6981 364.06 57.9134 361.372 63.5286 356.964Z" fill="#64934E"/>
<path d="M93.2562 362.043C81.9471 360.465 70.0876 363.091 60.5245 369.296C58.1809 370.812 55.7901 372.859 55.4912 375.626C55.4126 376.391 55.507 377.204 55.9631 377.814C56.7024 378.798 58.1022 379.002 59.3448 378.986C65.9195 378.923 71.9593 375.516 77.2914 371.703C82.6235 367.889 87.1219 365.732 93.2562 362.043Z" fill="#64934E"/>
<path d="M121.379 370.781C110.07 369.202 98.2109 371.828 88.6478 378.033C86.3042 379.549 83.9134 381.596 83.6145 384.363C83.5359 385.129 83.6303 385.941 84.0864 386.551C84.8256 387.536 86.2255 387.739 87.4681 387.723C94.0427 387.661 100.083 384.253 105.415 380.44C110.762 376.626 115.261 374.469 121.379 370.781Z" fill="#64934E"/>
<path d="M156.879 387.067C145.791 384.332 133.727 385.723 123.566 390.912C121.081 392.178 118.485 393.96 117.888 396.68C117.73 397.43 117.746 398.243 118.139 398.915C118.768 399.977 120.137 400.306 121.379 400.431C127.923 401.04 134.293 398.274 139.987 395.038C145.696 391.787 150.399 390.115 156.879 387.067Z" fill="#64934E"/>
<path d="M181.463 401.383C171.303 398.336 159.475 398.898 148.81 402.946C146.199 403.931 143.4 405.369 142.362 407.76C142.078 408.417 141.953 409.151 142.204 409.761C142.629 410.746 143.887 411.121 145.051 411.293C151.217 412.199 157.823 410.089 163.863 407.526C169.903 404.947 174.716 403.728 181.463 401.383Z" fill="#64934E"/>
<path d="M74.0356 358.512C70.7011 347.321 63.0884 337.193 53.0377 330.535C50.5682 328.909 47.5955 327.424 44.8115 328.159C44.0408 328.362 43.3015 328.768 42.9083 329.425C42.2791 330.488 42.6881 331.863 43.2386 333.02C46.117 339.147 51.9838 343.554 57.9293 347.133C63.8591 350.712 67.8542 354.135 74.0356 358.512Z" fill="#64934E"/>
<path d="M96.9212 363.154C96.3707 351.494 91.4161 339.85 83.2528 331.004C81.2553 328.831 78.7072 326.69 75.8288 326.752C75.0424 326.768 74.2245 326.987 73.6897 327.518C72.8246 328.393 72.8875 329.831 73.1392 331.097C74.4604 337.74 79.1004 343.398 84.0235 348.29C88.9152 353.182 91.9666 357.449 96.9212 363.154Z" fill="#64934E"/>
<path d="M125.626 372.734C127.435 361.2 124.918 348.805 118.706 338.521C117.18 336.005 115.119 333.395 112.288 332.879C111.502 332.738 110.668 332.785 110.023 333.207C109.001 333.895 108.781 335.317 108.765 336.599C108.718 343.366 112.131 349.837 115.969 355.604C119.791 361.372 121.93 366.154 125.626 372.734Z" fill="#64934E"/>
<path d="M161.047 388.427C160.23 376.783 155.023 365.248 146.656 356.59C144.611 354.464 142.016 352.37 139.137 352.495C138.351 352.526 137.533 352.76 137.014 353.307C136.164 354.198 136.275 355.636 136.542 356.887C138.02 363.498 142.786 369.046 147.804 373.829C152.821 378.627 155.967 382.832 161.047 388.427Z" fill="#64934E"/>
<path d="M184.389 403.65C188.935 392.897 189.501 380.268 185.962 368.78C185.097 365.967 183.729 362.935 181.102 361.763C180.378 361.434 179.56 361.278 178.837 361.544C177.673 361.966 177.107 363.294 176.792 364.529C175.109 371.093 176.855 378.189 179.167 384.707C181.479 391.224 182.392 396.382 184.389 403.65Z" fill="#64934E"/>
<path d="M521.002 470.515C521.002 474.094 450.946 477.001 364.531 477.001C278.117 477.001 208.061 474.094 208.061 470.515C208.061 466.935 278.117 464.028 364.531 464.028C450.946 464.028 521.002 466.935 521.002 470.515Z" fill="#181818"/>
<path d="M497.188 470.452H231.859C223.397 470.452 216.539 463.637 216.539 455.228V69.8336C216.539 61.4249 223.397 54.6104 231.859 54.6104H497.188C505.651 54.6104 512.508 61.4249 512.508 69.8336V455.228C512.524 463.621 505.651 470.452 497.188 470.452Z" fill="#3E89CC"/>
<path d="M495.364 70.9121H233.699V454.134H495.364V70.9121Z" fill="#C3ECFE"/>
<path d="M485.548 82.6191H244V442.428H485.548V82.6191Z" fill="white"/>
<g clip-path="url(#clip0)">
<path d="M406 140.292C406 150.287 402.389 159.439 396.392 166.536C388.885 175.411 377.631 181.084 365.002 181.084C351.987 181.084 340.143 175.011 332.556 165.233C327.191 158.337 324 149.683 324 140.292C324 117.76 342.358 99.4971 365.002 99.4971C387.642 99.4971 406 117.76 406 140.292Z" fill="#E3E5ED"/>
<path d="M394.323 162.162C394.173 162.013 393.833 161.889 393.635 161.761C393.621 161.751 393.611 161.744 393.597 161.737L393.593 161.74C391.795 160.749 386.52 158.144 376.114 155.173C376.11 155.173 376.107 155.169 376.107 155.169C374.221 154.596 372.794 154.222 372.301 154.098L371.419 152.702C371.276 151.296 371.304 149.196 371.349 147.793C372.815 146.1 374.134 143.457 374.881 139.335C375.117 139.512 375.301 139.125 375.301 139.125C375.169 138.893 377.28 133.766 376.898 132.612C376.683 131.956 376.245 132.039 375.902 132.229C375.954 131.928 376.006 131.621 376.058 131.289C376.058 131.289 376.895 123.432 372.895 119.052C372.481 118.658 371.009 118.558 371.009 118.558C364.589 116.602 360.738 117.476 358.325 118.502C354.758 121.418 354.488 126.376 354.651 129.109C354.724 129.755 354.797 130.404 354.87 131.04C354.87 131.054 354.873 131.061 354.873 131.061C354.904 131.313 354.932 131.558 354.963 131.804C354.63 131.596 354.192 131.493 353.949 132.142C353.522 133.282 355.081 138.399 355.279 138.717C355.279 138.717 355.616 139.242 355.88 139.004C355.883 139.004 355.883 138.993 355.883 138.993C356.62 143.488 357.95 146.266 359.345 147.973C359.245 149.797 358.981 151.942 358.793 153.314L357.206 154.962C357.123 154.989 357.04 155.017 356.953 155.045C356.953 155.038 356.953 155.034 356.953 155.034C339.008 159.799 333.935 163.115 333.935 163.115C333.483 163.392 333.021 164.131 332.56 165.23C340.049 174.886 351.838 181.081 365.005 181.081C377.659 181.081 388.906 175.391 396.396 166.532C395.618 164.656 395.062 162.894 394.323 162.162Z" fill="#78C2FF"/>
</g>
<path opacity="0.15" d="M310.739 210.219H349.982" stroke="#0964AF" stroke-width="3" stroke-miterlimit="10" stroke-linecap="round" stroke-linejoin="round"/>
<path opacity="0.15" d="M438.032 222.659H467.854" stroke="#0964AF" stroke-width="3" stroke-miterlimit="10" stroke-linecap="round" stroke-linejoin="round"/>
<path opacity="0.15" d="M310.739 222.659H425.103" stroke="#0964AF" stroke-width="3" stroke-miterlimit="10" stroke-linecap="round" stroke-linejoin="round"/>
<path opacity="0.15" d="M310.739 235.085H467.854" stroke="#0964AF" stroke-width="3" stroke-miterlimit="10" stroke-linecap="round" stroke-linejoin="round"/>
<path opacity="0.15" d="M417.915 247.512H467.854" stroke="#0964AF" stroke-width="3" stroke-miterlimit="10" stroke-linecap="round" stroke-linejoin="round"/>
<path opacity="0.15" d="M310.739 247.512H405.489" stroke="#0964AF" stroke-width="3" stroke-miterlimit="10" stroke-linecap="round" stroke-linejoin="round"/>
<path opacity="0.15" d="M362.849 210.219H467.854" stroke="#0964AF" stroke-width="3" stroke-miterlimit="10" stroke-linecap="round" stroke-linejoin="round"/>
<path opacity="0.15" d="M310.739 296.447H349.982" stroke="#0964AF" stroke-width="3.1215" stroke-miterlimit="10" stroke-linecap="round" stroke-linejoin="round"/>
<path opacity="0.15" d="M438.032 308.889H467.854" stroke="#0964AF" stroke-width="3.1215" stroke-miterlimit="10" stroke-linecap="round" stroke-linejoin="round"/>
<path opacity="0.15" d="M310.739 308.889H425.103" stroke="#0964AF" stroke-width="3.1215" stroke-miterlimit="10" stroke-linecap="round" stroke-linejoin="round"/>
<path opacity="0.15" d="M310.739 321.313H467.854" stroke="#0964AF" stroke-width="3.1215" stroke-miterlimit="10" stroke-linecap="round" stroke-linejoin="round"/>
<path opacity="0.15" d="M417.915 333.74H467.854" stroke="#0964AF" stroke-width="3.1215" stroke-miterlimit="10" stroke-linecap="round" stroke-linejoin="round"/>
<path opacity="0.15" d="M310.739 333.74H405.489" stroke="#0964AF" stroke-width="3.1215" stroke-miterlimit="10" stroke-linecap="round" stroke-linejoin="round"/>
<path opacity="0.15" d="M362.849 296.447H467.854" stroke="#0964AF" stroke-width="3.1215" stroke-miterlimit="10" stroke-linecap="round" stroke-linejoin="round"/>
<path opacity="0.15" d="M310.739 384.238H349.982" stroke="#0964AF" stroke-width="3.1215" stroke-miterlimit="10" stroke-linecap="round" stroke-linejoin="round"/>
<path opacity="0.15" d="M438.032 396.68H467.854" stroke="#0964AF" stroke-width="3.1215" stroke-miterlimit="10" stroke-linecap="round" stroke-linejoin="round"/>
<path opacity="0.15" d="M310.739 396.68H425.103" stroke="#0964AF" stroke-width="3.1215" stroke-miterlimit="10" stroke-linecap="round" stroke-linejoin="round"/>
<path opacity="0.15" d="M310.739 409.104H467.854" stroke="#0964AF" stroke-width="3.1215" stroke-miterlimit="10" stroke-linecap="round" stroke-linejoin="round"/>
<path opacity="0.15" d="M417.915 421.531H467.854" stroke="#0964AF" stroke-width="3.1215" stroke-miterlimit="10" stroke-linecap="round" stroke-linejoin="round"/>
<path opacity="0.15" d="M310.739 421.531H405.489" stroke="#0964AF" stroke-width="3.1215" stroke-miterlimit="10" stroke-linecap="round" stroke-linejoin="round"/>
<path opacity="0.15" d="M362.849 384.238H467.854" stroke="#0964AF" stroke-width="3.1215" stroke-miterlimit="10" stroke-linecap="round" stroke-linejoin="round"/>
<path d="M294.192 241.931H264.842C263.018 241.931 261.539 240.462 261.539 238.649V209.484C261.539 207.671 263.018 206.202 264.842 206.202H294.192C296.017 206.202 297.495 207.671 297.495 209.484V238.649C297.495 240.462 296.017 241.931 294.192 241.931Z" stroke="#2396B5" stroke-width="2" stroke-miterlimit="10"/>
<path d="M294.192 330.988H264.842C263.018 330.988 261.539 329.519 261.539 327.706V298.525C261.539 296.712 263.018 295.243 264.842 295.243H294.192C296.017 295.243 297.495 296.712 297.495 298.525V327.69C297.495 329.519 296.017 330.988 294.192 330.988Z" stroke="#2396B5" stroke-width="2" stroke-miterlimit="10"/>
<path d="M294.192 420.046H264.842C263.018 420.046 261.539 418.576 261.539 416.763V387.599C261.539 385.786 263.018 384.316 264.842 384.316H294.192C296.017 384.316 297.495 385.786 297.495 387.599V416.763C297.495 418.576 296.017 420.046 294.192 420.046Z" stroke="#2396B5" stroke-width="2" stroke-miterlimit="10"/>
<path d="M265.959 217.017L279.517 233.287L305.596 192.385" stroke="#FFA829" stroke-width="3.4699" stroke-miterlimit="10" stroke-linecap="round" stroke-linejoin="round"/>
<path d="M205.261 473.539C205.261 475.298 185.459 476.727 161.047 476.727C136.636 476.727 116.834 475.298 116.834 473.539C116.834 471.779 136.636 470.35 161.047 470.35C185.474 470.334 205.261 471.764 205.261 473.539Z" fill="#181818"/>
<path d="M168.566 291.003C168.755 291.899 169.227 292.669 169.856 293.234C170.548 293.894 171.491 294.318 172.482 294.428C175.093 294.695 179.12 295.245 183.367 295.826C190.193 296.737 197.633 297.68 200.763 297.507C201.471 297.475 204.349 297.57 206.299 296.737C206.362 296.721 206.409 296.706 206.472 296.674C206.488 296.659 206.488 296.659 206.504 296.643C206.976 296.234 206.991 295.135 206.85 294.035C206.724 292.841 206.409 291.632 206.378 291.318C206.063 288.082 203.374 286.998 202.068 286.668C201.644 286.558 201.361 286.527 201.361 286.527C201.203 286.479 201.046 286.432 200.873 286.369C194.471 284.343 187.22 283.84 182.565 283.055C180.315 282.678 177.987 282.788 175.817 283.401C174.338 283.809 172.923 284.469 171.649 285.348C169.651 286.746 168.063 288.631 168.566 291.003Z" fill="white"/>
<path d="M199.945 294.051C200.118 294.522 200.338 294.915 200.605 295.26C200.731 295.418 200.857 295.559 200.983 295.685C202.65 297.287 205.23 296.988 205.717 296.926H205.733C205.922 296.863 206.111 296.8 206.315 296.721C206.378 296.69 206.441 296.658 206.519 296.643C210.625 294.915 219.291 288.553 225.237 284.029C225.284 284.013 225.3 283.997 225.3 283.997C228.839 281.264 231.402 279.222 231.402 279.222L230.883 278.405L228.776 275.326C228.776 275.326 215.579 281.547 209.351 283.73C206.614 284.689 203.94 285.552 202.1 286.684C201.864 286.825 201.644 286.966 201.423 287.123C201.408 287.123 198.608 290.312 199.945 294.051Z" fill="#35AAD3"/>
<path d="M183.382 295.81C190.209 296.721 197.648 297.664 200.778 297.491C201.486 297.459 204.365 297.554 206.315 296.721C206.378 296.705 206.425 296.69 206.488 296.658C206.504 296.643 206.504 296.643 206.519 296.627C210.625 294.899 219.291 288.537 225.237 284.013C224.387 284.531 213.141 291.05 206.865 294.035C205.293 294.789 204.019 295.307 203.326 295.464C202.713 295.59 201.911 295.669 200.999 295.684C200.889 295.684 200.763 295.684 200.653 295.684C194.864 295.653 189.579 292.527 186.512 287.626C185.002 285.222 183.744 283.824 183.744 283.824C183.744 283.824 183.508 290.846 183.382 295.81Z" fill="#2496B5"/>
<path d="M203.453 285.945C203.453 285.945 202.43 286.683 199.426 285.945C196.422 285.207 199.583 288.867 199.583 288.867L204.302 288.568L204.695 287.359L203.453 285.945Z" fill="white"/>
<path d="M155.684 320.3C156.942 323.583 157.257 327.164 156.486 330.605C154.961 337.438 156.691 337.893 156.691 337.893C156.691 337.893 165.955 343.768 173.662 346.172C179.183 347.884 183.886 347.601 183.76 341.506V341.428C183.744 341.051 183.744 340.705 183.729 340.36C183.461 326.677 186.324 325.97 187.032 310.654C187.755 294.93 187.598 285.615 182.565 283.086C177.075 280.321 169.51 278.42 158.798 280.949C150.745 282.85 148.087 284.971 148.166 290.924C148.181 292.904 148.512 295.307 149.031 298.245C150.352 305.722 153.529 314.707 155.684 320.3Z" fill="#C54552"/>
<path d="M155.684 320.3C156.942 323.583 157.257 327.164 156.486 330.605C154.961 337.438 156.691 337.893 156.691 337.893C156.691 337.893 165.955 343.768 173.662 346.172L180.866 345.496L183.744 343.234L183.76 341.428C183.744 341.051 183.744 340.705 183.729 340.36C182.077 340.517 178.334 340.705 172.86 340.077C168.613 339.59 164.76 338.38 162.196 337.406C160.324 336.7 159.223 334.767 159.569 332.788C160.041 330.102 160.592 326.238 160.56 323.237C160.544 320.221 159.144 315.132 157.996 311.456C157.131 308.628 156.832 305.691 157.037 302.737C157.399 297.648 157.021 292.809 157.021 292.809L151.311 289.715L148.134 290.893C148.15 292.872 148.48 295.276 148.999 298.213C150.352 305.722 153.529 314.707 155.684 320.3Z" fill="#8B1F2A"/>
<path d="M181.464 264.282C180.41 264.706 180.85 268.272 180.646 269.419C180.457 270.581 179.623 275.042 177.264 275.718C174.92 276.393 173.458 276.582 173.458 276.975C173.442 277.147 173.505 277.964 173.568 278.781C173.599 279.127 173.631 279.472 173.646 279.755C173.646 279.834 173.662 279.912 173.662 279.975C173.678 280.038 173.678 280.101 173.678 280.163C173.709 280.446 173.646 281.609 173.473 281.829L171.932 282.85C171.727 283.085 171.444 283.242 171.13 283.258L169.51 283.384C169.384 283.384 169.274 283.384 169.164 283.352L168.251 283.085C168.126 282.535 168.031 282.111 168.015 282.096C167.984 282.049 165.137 280.195 163.486 279.111C163.391 277.414 163.25 275.451 163.124 274.948C163.014 274.524 161.803 272.183 160.544 269.403C160.434 269.167 160.324 268.932 160.23 268.696C159.947 268.068 159.679 267.424 159.412 266.78C159.365 266.701 159.333 266.607 159.302 266.528C158.405 264.251 157.697 262.004 157.682 260.496C157.682 256.38 157.823 252.076 160.371 249.956C162.888 247.851 178.884 240.279 179.419 252.689C179.435 252.767 179.435 252.83 179.45 252.909C179.686 253.757 181.416 260.088 182.219 261.25C183.068 262.491 182.517 263.874 181.464 264.282Z" fill="#FEAF84"/>
<path d="M173.473 281.829L173.316 282.599C173.206 283.149 172.718 283.526 172.168 283.51L169.431 283.4C169.352 283.4 169.258 283.384 169.164 283.353L168.251 283.086C168.126 282.536 168.031 282.112 168.015 282.096C167.984 282.049 165.137 280.196 163.486 279.112C163.391 277.415 163.25 275.452 163.124 274.949C163.014 274.525 161.803 272.184 160.544 269.404C160.434 269.168 160.324 268.932 160.23 268.697C159.947 268.068 159.679 267.424 159.412 266.78C159.349 266.608 159.317 266.435 159.333 266.246L159.443 265.021C159.49 264.487 159.899 264.047 160.434 264C161.787 263.843 164.209 263.576 164.335 263.591C164.508 263.607 165.986 266.435 165.986 266.592C165.986 266.718 165.31 268.791 165.121 269.357C165.09 269.451 165.074 269.529 165.058 269.639C165.043 270.268 164.948 272.844 165.027 275.216C165.074 276.928 166.018 278.452 167.465 279.237C167.465 279.237 167.544 279.284 167.669 279.347C168.409 279.724 170.957 281.028 173.473 281.829Z" fill="#F29D77"/>
<path d="M182.14 265.413C185.569 268.524 181.857 275.263 180.756 276.221C179.655 277.179 171.79 279.567 167.276 275.231C166.411 274.43 165.798 273.472 165.342 272.482C165.342 272.482 165.342 272.467 165.326 272.451C165.2 272.168 164.193 269.733 164.272 266.277L162.982 266.592C162.982 266.592 162.746 270.597 163.202 273.079C163.187 274.053 162.007 274.556 161.315 273.88C159.27 271.885 156.172 267.503 155.118 258.706C153.498 245.181 167.072 244.254 170.123 244.568C172.309 244.804 176.084 244.678 177.091 244.097C184.72 239.698 184.012 247.537 182.926 250.49C182.565 251.496 181.747 252.768 181.574 253.224C181.401 253.679 181.763 255.69 181.763 256.601C181.747 257.512 180.945 257.999 180.945 257.999C180.945 257.999 180.174 255.47 180.08 255.109C180.001 254.841 179.686 253.71 179.545 253.208C179.498 253.051 179.372 252.925 179.23 252.862C178.758 252.689 178.286 252.595 178.286 252.595C177.783 252.454 175.817 252.344 174.276 252.265C173.269 252.218 172.372 252.988 172.341 254.009C172.152 258.235 169.982 259.004 168.991 259.13C168.708 259.161 168.487 259.381 168.456 259.664C167.795 264.817 169.777 267.707 170.627 267.848C171.507 268.005 174.197 265.696 174.197 265.696C174.197 265.696 178.727 262.303 182.14 265.413Z" fill="#0B0B3A"/>
<path d="M164.681 262.821C164.681 262.821 164.477 260.512 162.699 260.826C160.592 261.203 159.553 266.12 162.794 267.314C163.501 267.581 164.256 267.031 164.272 266.277C164.288 265.319 164.382 263.984 164.681 262.821Z" fill="#F29D77"/>
<path d="M175.125 286.62C175.125 286.62 183.477 313.969 181.81 327.07L178.727 332.662L175.361 326.567C175.361 326.567 178.098 300.381 172.86 287.091L175.125 286.62Z" fill="#16405A"/>
<path d="M175.707 284.295L175.66 284.656C175.581 285.332 175.392 285.992 175.125 286.62L172.86 287.076L170.894 285.615L173.159 282.991L173.505 283.085C174.307 283.29 175.062 283.698 175.675 284.264L175.707 284.295Z" fill="#103649"/>
<path d="M163.423 278.027C163.423 278.027 162.857 278.703 161.771 280.321C161.771 280.321 163.344 280.918 164.634 281.703C165.814 282.426 171.476 286.416 171.476 286.416L173.143 282.991C173.159 282.991 166.631 278.923 163.423 278.027Z" fill="#8B1F2A"/>
<path d="M173.159 282.991C173.159 282.991 175.141 283.667 175.754 285.144C175.754 285.144 176.714 282.206 175.911 280.604C175.911 280.604 175.33 279.08 173.552 278.357L173.159 282.991Z" fill="#8B1F2A"/>
<path d="M181.983 464.381C181.983 464.381 182.769 466.391 182.675 467.711C182.58 469.03 178.365 469.125 177.862 468.449C177.374 467.758 177.122 461.694 177.122 461.694" fill="#FEAF84"/>
<path d="M176.745 469.611C176.745 470.994 177.122 473.24 177.122 473.24H181.983C181.983 473.24 183.791 473.24 185.034 473.24H189.139C192.143 473.24 193.842 472.863 193.921 472.329C194.235 470.13 192.428 468.669 191.5 468.669C188.81 468.669 184.137 468.967 183.508 467.616C183.052 466.627 183.257 466.375 182.69 466.564C182.69 466.564 182.187 466.674 181.857 467.286C181.338 468.229 180.378 468.857 179.324 468.669C178.727 468.559 178.113 468.339 177.689 467.883C177.689 467.852 176.745 468.229 176.745 469.611Z" fill="#9593AD"/>
<path d="M134.702 459.793C134.702 459.793 133.805 463.343 133.223 464.537C132.641 465.731 128.693 464.254 128.489 463.437C128.284 462.62 130.313 456.887 130.313 456.887" fill="#FEAF84"/>
<path d="M127.026 464.112C126.208 466.142 127.446 468.327 129.092 469.768L129.433 470.066L128 469.21C128 469.21 130.974 470.836 132.091 471.542C132.924 472.061 134.78 472.831 135.74 473.051C139.106 473.82 141.701 473.443 141.969 472.988C143.085 471.055 139.865 469.54 139 469.21C136.515 468.22 134.12 466.249 134.041 464.756C133.978 463.672 134.261 463.515 133.679 463.484C133.679 463.484 133.176 463.405 132.641 463.845C131.823 464.521 130.691 464.756 129.779 464.191C129.26 463.877 128.788 463.437 128.552 462.856C128.536 462.84 127.529 462.84 127.026 464.112Z" fill="#A29FBC"/>
<path d="M151.783 365.148C151.783 365.148 145.177 349.361 156.691 337.894C156.691 337.894 166.521 342.292 174.386 342.81C180.583 343.234 183.728 342.59 183.728 342.59C183.728 342.59 186.135 355 185.364 373.018L151.783 365.148Z" fill="#587FBD"/>
<path d="M176.556 465.904C176.761 465.919 176.949 465.919 177.138 465.919C181.243 465.967 183.571 465.48 183.571 465.48V464.301C183.351 446.221 185.537 416.673 185.962 407.342C185.993 406.682 185.978 406.085 185.899 405.551C185.191 398.718 178.113 399.613 175.141 405.897C174.448 407.357 173.882 408.975 173.458 410.735C172.939 412.84 172.577 415.133 172.357 417.552C170.988 433.135 175.345 454.248 176.556 465.904Z" fill="#587FBD"/>
<path d="M164.287 372.422C164.319 372.61 164.366 372.799 164.398 373.003C165.97 381.234 171.035 403.478 173.457 410.688V410.704C173.819 411.709 175.03 412.573 176.572 412.981C180.126 413.955 185.443 412.62 185.899 405.536C185.962 404.75 185.946 403.902 185.867 402.975C185.569 399.283 185.301 383.496 185.364 373.003C185.396 367.049 183.964 363.436 183.87 362.337C183.634 359.273 183.068 354.796 181.448 354.215C173.363 351.435 162.164 360.923 164.287 372.422Z" fill="#587FBD"/>
<path d="M172.372 417.536C170.988 433.135 175.345 454.247 176.556 465.903C176.761 465.919 176.949 465.919 177.138 465.919C177.138 465.919 176.131 447.461 174.48 434.674C173.206 424.794 175.471 416.342 176.588 412.997C176.918 412.007 177.138 411.457 177.138 411.457L175.14 405.88C172.923 398.639 172.86 381.721 172.86 381.721C178.271 369.813 179.026 354.812 179.026 354.812L174.401 355.456L166.112 365.368L164.398 373.002C165.971 381.234 171.035 403.477 173.458 410.687V410.703C172.938 412.824 172.577 415.101 172.372 417.536Z" fill="#3B619D"/>
<path d="M171.837 405.174C171.837 405.174 173.222 411.426 172.356 417.537C171.491 423.647 175.282 412.164 175.282 412.164L173.269 408.017L171.837 405.174Z" fill="#1C3059"/>
<path d="M148.15 405.425C153.639 400.273 161.252 402.708 157.697 410.703C153.891 419.249 142.11 442.969 135.724 459.887L135.284 460.987C135.284 460.987 132.72 460.547 128.599 458.819C131.635 447.839 133.852 428.926 140.16 415.746C142.204 411.505 145.319 408.096 148.15 405.425Z" fill="#587FBD"/>
<path d="M179.025 354.828C180.095 342.119 164.225 350.555 156.612 354.749C153.403 356.508 152.239 360.059 151.815 363.373C151.39 366.703 147.269 400.964 146.451 407.216C144.595 421.307 156.911 413.61 158.075 409.698C161.016 399.849 178.444 361.755 179.025 354.828Z" fill="#587FBD"/>
<path d="M147.536 398.482C147.536 398.482 147.033 405.221 141.355 413.547C141.355 413.547 150.635 409.274 151.091 408.63C151.547 408.002 153.167 401.467 152.979 400.776C152.806 400.085 147.536 398.482 147.536 398.482Z" fill="#587FBD"/>
<path d="M272.801 209.208L262.011 247.066L127.624 391.649L126.381 392.984L113.452 406.525L88.6792 383.543L102.442 369.107L105.116 366.216L237.238 224.084L272.801 209.208Z" fill="#FFC25B"/>
<path d="M95.7079 375.98L88.6575 383.568L113.445 406.541L120.496 398.953L95.7079 375.98Z" fill="#FE7F9A"/>
<path d="M102.799 368.385L95.7417 375.967L120.509 398.963L127.567 391.381L102.799 368.385Z" fill="#FFE7C5"/>
<path d="M237.238 224.084L262.011 247.066L272.801 209.208L237.238 224.084Z" fill="#FFE7C5"/>
<path d="M260.076 214.533L269.073 222.293L272.801 209.208L260.076 214.533Z" fill="#FFC25B"/>
<path d="M272.801 209.208L256.915 242.353L106.594 400.163L113.452 406.525L262.011 247.066L272.801 209.208Z" fill="black" fill-opacity="0.15"/>
<path opacity="0.67" d="M166.741 344.852L166.663 345.748L165.42 347.083C164.76 346.863 163.942 346.486 163.501 345.889C162.668 344.758 162.274 343.878 162.274 343.878L161.708 344.538C161.708 344.538 147.647 333.621 141.607 323.064L144.155 320.315L146.467 321.227C146.467 321.227 153.23 328.028 153.671 328.657C154.111 329.301 158.893 336.511 158.893 336.511L166.741 344.852Z" fill="#BEC4CC"/>
<path d="M160.371 341.993L164.791 338.317C164.791 338.317 166.097 340.469 167.056 340.768C167.276 340.831 167.984 340.627 168.22 340.627C169.478 340.627 170.249 341.019 171.79 341.726C172.829 342.197 174.213 342.637 174.26 343.061C174.323 343.486 173.584 344.13 172.86 344.082C172.766 344.082 172.64 344.051 172.498 344.004C172.498 344.13 172.483 344.255 172.42 344.444C172.121 345.371 167.78 351.434 163.454 344.837C162.495 343.36 160.371 341.993 160.371 341.993Z" fill="#FFBC9F"/>
<path d="M158.138 298.904C156.675 303.397 155.118 310.497 152.177 316.514C152.114 316.655 152.051 316.781 151.988 316.891C151.972 316.922 151.956 316.938 151.941 316.969C151.941 316.969 151.878 317.236 151.72 317.629C151.186 318.87 149.739 321.399 146.467 321.226C146.31 321.226 145.885 321.242 145.35 321.273C144.705 321.305 143.903 321.321 143.164 321.273C142.252 321.211 141.45 321.038 141.182 320.582C141.166 320.582 141.166 320.567 141.166 320.567C141.135 320.472 141.088 320.315 141.056 320.111C141.041 320.032 141.009 319.954 141.009 319.86C140.978 319.781 140.978 319.687 140.962 319.593C140.93 319.341 140.915 319.09 140.899 318.839C140.883 318.713 140.883 318.587 140.883 318.462C140.852 316.859 141.135 315.288 141.182 314.786C141.654 309.728 146.656 293.893 148.354 287.296C148.606 286.322 149.157 285.458 149.912 284.861C150.572 284.311 151.39 283.965 152.287 283.918C152.302 283.918 152.302 283.918 152.318 283.902C152.444 283.902 152.57 283.887 152.696 283.902C154.913 283.965 156.439 285.709 157.461 287.798C158.138 289.181 158.594 290.673 158.767 292.181C159.066 294.412 158.83 296.736 158.138 298.904Z" fill="#C54552"/>
<path d="M165.751 340.407L162.982 342.905L162.967 342.92L162.243 343.549C162.243 343.549 156.628 338.679 152.255 334.563C148.213 330.731 144.092 326.458 141.528 321.337C141.402 321.101 141.277 320.834 141.166 320.598C141.166 320.583 141.166 320.583 141.166 320.567C141.135 320.473 141.088 320.316 141.056 320.111C141.041 320.033 141.009 319.954 141.009 319.86C140.978 319.782 140.978 319.687 140.962 319.593C140.93 319.342 140.915 319.09 140.899 318.839C140.883 318.713 140.883 318.588 140.883 318.462C140.899 317.504 141.135 316.42 141.906 315.509C141.969 315.43 142.047 315.352 142.11 315.273C142.409 314.975 142.771 314.708 143.211 314.472C143.479 314.331 143.762 314.205 144.029 314.126C147.269 312.995 150.289 314.975 150.289 314.975C150.462 315.147 150.651 315.336 150.824 315.54C151.201 315.949 151.595 316.404 151.988 316.891C153.073 318.274 154.158 319.954 155.008 321.934C157.682 328.107 165.751 340.407 165.751 340.407Z" fill="#C54552"/>
<path d="M231.67 279.709C231.67 279.709 238.418 275.028 238.716 271.43C239.047 267.472 236.263 265.571 234.438 267.755C231.56 271.195 232.331 277.4 232.331 277.4L231.67 279.709Z" fill="#FFBC9F"/>
</g>
<defs>
<clipPath id="clip0">
<rect x="324" y="99.4971" width="82" height="81.5872" fill="white"/>
</clipPath>
</defs>
</svg>
