<svg width="657" height="457" viewBox="0 0 657 457" fill="none" xmlns="http://www.w3.org/2000/svg">
<g opacity="0.5">
<path opacity="0.5" d="M313.391 369.232C294.801 369.284 276.204 369.733 257.647 371.797C250.65 372.575 243.798 374.29 236.781 374.976C222.774 376.354 209.011 378.926 194.951 380.113C183.628 381.07 172.259 381.63 160.969 382.844C150.384 383.978 138.666 383.721 128.167 381.841C120.392 380.45 112.584 379.665 104.934 377.436C96.3807 374.936 87.0954 373.149 78.1794 373.215C65.4715 373.307 53.0999 373.32 40.9394 377.726C36.6726 379.276 31.4431 381.821 28.2051 385.073C20.7861 392.512 19.7837 411.077 27.1895 418.793C39.6666 431.778 66.2959 436.876 83.7915 437.12C102.956 437.384 121.579 435.96 140.769 435.122C158.608 434.344 176.394 433.236 194.259 433.276C230.747 433.355 267.235 433.276 303.658 430.835C337.877 428.547 372.183 429.332 406.475 429.332C441.644 429.332 476.57 429.609 511.482 434.285C526.696 436.322 542.193 437.035 557.48 438.459C571.17 439.739 584.327 438.433 597.964 437.252C609.413 436.263 620.795 433.322 631.195 428.349C639.432 424.412 654.111 412.185 656.637 402.794C663.72 376.46 556.86 377.093 540.452 377.152C522.099 377.218 503.601 377.825 485.262 377.126C477.546 376.829 469.949 375.325 462.418 373.67C454.919 372.021 447.362 372.443 439.758 371.751C408.045 368.869 376.258 369.291 344.439 369.291C334.112 369.291 323.752 369.205 313.391 369.232Z" fill="#297AFF"/>
</g>
<g clip-path="url(#clip0)">
<path d="M616.687 260.396L619.747 281.441L613.614 400.131L603.313 397.975L586.239 263.041L616.687 260.396Z" fill="#292949"/>
<path d="M566.119 256.446L564.692 312.84C564.318 327.61 566.251 342.348 570.422 356.522L584.116 403.053L595.762 398.72L589.028 357.158C586.985 344.545 586.653 331.713 588.042 319.012L594.957 255.773L566.119 256.446Z" fill="#292949"/>
<path d="M595.802 392.362L581.854 398.753C583.244 400.409 582.307 402.949 580.174 403.304L570 405C570 405 565 414.5 574 414.5C574.943 415.159 578.487 414.499 582.493 413.435C590.943 411.192 596.251 403.054 595.884 394.319L595.802 392.362Z" fill="#51537E"/>
<path d="M613.5 395L601.559 397.222L602.008 398.653C603.028 401.904 600.766 405.262 597.369 405.538C592.788 405.909 590.822 411.523 594.016 414.827C594.648 415.481 595.169 416.041 595.505 416.44C596.176 417.24 598.9 416.695 602.164 415.646C610.69 412.905 615.128 403.806 613.5 395Z" fill="#51537E"/>
<path d="M587.288 128.127C588.369 131.629 589.912 134.986 591.871 138.079C591.917 131.648 592.854 125.225 594.641 119.052C594.779 118.584 594.911 118.05 594.667 117.621C594.436 117.225 593.955 117.067 593.507 116.961C585.553 115.042 585.408 122.026 587.288 128.127Z" fill="#3F3D56"/>
<path d="M591.653 138.204C592.484 140.849 593.856 143.843 596.599 145.452C599.831 147.351 603.286 146.382 605.693 144.924C613.66 140.103 627.462 113.539 606.702 107.01C587.855 101.094 588.211 127.23 591.653 138.204Z" fill="#FFC1C7"/>
<path d="M608.055 138.323C609.294 140.156 612.117 139.741 614.115 138.791C622.339 134.9 627.357 125.185 625.768 116.229C624.442 108.738 615.177 102.914 613.053 112.108C612.302 115.366 614.188 119.956 613.64 123.576C612.862 128.76 610.323 133.667 608.055 138.323Z" fill="#3F3D56"/>
<path d="M587.782 97.4471C578.332 102.677 574.105 114.192 565.459 120.668C573.228 124.229 582.461 124.46 590.394 121.288C598.176 118.175 616.627 116.289 614.214 105.506C611.761 94.5255 596.065 92.8636 587.782 97.4471Z" fill="#3F3D56"/>
<path d="M624.449 165.369C629.863 174.767 629.836 185.404 629.091 195.587C627.396 218.63 629.592 245.346 621.652 267.373C606.656 267.36 577.91 260.482 562.973 258.945C560.065 238.916 561.76 227.203 563.402 204.517C564.213 193.332 565.947 178.328 569.904 167.67C573.142 158.945 581.788 147.681 594.825 148.044C607.045 148.373 619.529 156.822 624.449 165.369Z" fill="#8CABEF"/>
<path d="M600.029 152.693C598.664 153.274 596.989 153.03 595.366 151.46C593.975 150.108 594.403 149.673 594.7 147.681C595.135 144.746 595.914 141.831 596.52 138.93L604.592 140.611C604.586 140.611 602.97 148.473 602.845 149.007C602.456 150.715 601.394 152.113 600.029 152.693Z" fill="#FFC1C7"/>
<path d="M519.303 173.546L516.32 170.607C514.197 168.515 511.316 167.374 508.337 167.445L503.061 167.571L501.926 172.617L516.949 179.106L519.303 173.546Z" fill="#EAC1A4"/>
<path d="M593.368 154.784L582 151.5L554.023 173.905C549.983 177.14 544.561 178.064 539.677 176.349L523.112 170.532C521.091 169.823 518.843 170.479 517.521 172.165L515.033 175.338C512.791 178.197 513.585 182.377 516.719 184.216L532.118 193.248C541.856 198.96 553.977 198.721 563.482 192.63L587.314 177.358L593.368 154.784Z" fill="#8CABEF"/>
<path d="M104.796 399.078C105.538 399.419 106.195 399.923 106.717 400.551L107.42 401.397C109.079 403.392 111.428 404.69 114 405.033L116.611 405.381C117.197 405.46 117.759 405.663 118.26 405.977C122.016 408.334 119.787 414.13 115.391 413.551C115.133 413.517 114.876 413.459 114.628 413.378L100.659 408.773C98.4915 408.059 97.0273 406.035 97.0273 403.753C97.0273 399.898 101.022 397.34 104.524 398.952L104.796 399.078Z" fill="#575A89"/>
<path d="M59.9226 405.429C59.5659 405.073 59.162 404.767 58.7223 404.521L56.5439 403.299C53.8849 401.808 50.5974 403.697 50.5456 406.745L50.4788 410.675C50.4769 410.789 50.5513 410.889 50.6602 410.92L50.6141 410.927L59.7411 416.172C61.5841 417.231 63.6312 417.887 65.7467 418.095L67.5998 418.277C67.9776 418.314 68.3587 418.301 68.733 418.237C73.7441 417.387 73.3487 410.063 68.2752 409.758L64 409.5L59.9226 405.429Z" fill="#575A89"/>
<path d="M73.608 284.253C78.6529 288.35 82.3311 294.242 83.015 300.704C83.9163 309.221 84.894 321.059 85.3987 327.385C85.6318 330.307 85.3152 333.227 84.4793 336.036L63.9857 404.897C63.6916 405.886 62.6945 406.488 61.6829 406.289L52.4143 404.467C51.3987 404.267 50.7032 403.326 50.811 402.296L57.6131 337.349C58.1553 332.173 56.9994 326.986 54.5433 322.397C50.0556 314.013 42.8069 299.272 38.8828 284.918C35.064 270.95 48.5136 264.614 59.9842 273.453C64.9662 277.292 69.7953 281.157 73.608 284.253Z" fill="#618FD8"/>
<path d="M113.56 291.062L115.485 318.278C115.933 324.608 115.847 330.965 115.228 337.28L109.176 398.99C109.072 400.053 108.151 400.846 107.084 400.792L97.5805 400.308C96.5522 400.256 95.732 399.443 95.6837 398.415C95.172 387.519 92.4562 330.846 91.2701 329.571C89.9578 328.159 78.7007 291.828 78.7007 291.828L113.56 291.062Z" fill="#618FD8"/>
<path d="M96.1702 307.821C54.1688 307.05 51.089 285.86 41.8433 283.545C32.5976 281.23 37.4183 270.223 37.4183 270.223C37.4183 270.223 39.1659 265.31 39.9177 262.738C45.3121 244.245 61.5086 220.51 61.5086 220.503C69.4948 209.602 77.5139 199.973 84.4317 194.163C105.02 176.871 127.073 176.066 127.073 176.066C158.833 185.998 147.628 200.93 147.991 204.86C137.545 214.436 129.974 228.787 124.395 244.186C121.764 252.344 118.665 266.438 120.828 283.545C121.52 289.032 122.325 293.787 123.123 297.929C123.281 303.343 118.084 308.171 96.1702 307.821Z" fill="#5D66D3"/>
<path d="M127.198 179.41C127.198 179.41 134.268 175.539 138.647 182.272C143.962 190.45 113.917 227.329 114.629 306.199C106.755 307.795 86.463 311.6 65.5381 301.728C70.2928 278.296 90.8088 207.624 127.198 179.41Z" fill="white"/>
<path d="M142.741 154.507C146.302 157.284 149.388 163.186 148.162 167.836C147.568 170.072 145.959 171.575 145.419 173.996C144.344 178.764 136.054 182.272 139.536 187.805C141.33 190.648 144.799 191.848 148.01 192.857C148.399 192.976 148.808 193.101 149.21 193.022C149.87 192.89 150.312 192.237 150.437 191.578C150.562 190.918 150.437 190.239 150.365 189.573C149.632 182.595 154.361 175.605 156.108 169.01C157.856 162.428 157.764 154.91 153.2 149.442C149.309 149.805 147.733 149.053 145.234 152.061L142.741 154.507Z" fill="#292949"/>
<path d="M134.405 182.424C139.042 182.786 143.565 180.247 146.5 176.646C149.435 173.045 150.984 168.502 151.947 163.958C155.146 148.829 136.621 143.935 126.855 153.188C118.341 161.254 120.933 181.368 134.405 182.424Z" fill="#EACDB0"/>
<path d="M111.338 179.581C113.797 179.397 116.257 179.146 118.46 177.55C122.027 174.978 124.131 169.174 126.321 165.501C128.629 161.63 131.267 157.475 135.527 155.998C138.31 155.035 140.776 155.661 143.388 156.71C145.175 157.429 144.964 158.128 146.863 157.805C148.32 157.554 150.22 155.787 151.024 154.626C152.376 152.661 152.462 150.029 151.743 147.754C150.635 144.252 148.584 141.884 145.313 140.427C133.845 135.309 122.271 138.527 114.259 148.466C110.408 153.248 109.029 159.783 105.158 164.314C102.771 167.11 99.7969 168.396 97.5151 171.483C91.5931 179.496 81.866 188.841 78.3708 198.225C78.2389 198.575 78.1202 198.971 78.2851 199.3C78.6148 199.98 79.6304 199.749 80.303 199.406C84.2467 197.441 88.1903 195.469 92.1339 193.503C93.6836 192.732 95.2532 191.94 96.5259 190.773C99.7046 187.858 100.806 182.833 104.657 180.907C106.767 179.858 109.056 179.753 111.338 179.581Z" fill="#292949"/>
<path d="M95.2272 199.452L63.5332 192.02L55.0591 149.897L65.5842 150.814L73.7022 178.322L114.787 179.496L117.135 182.628L95.2272 199.452Z" fill="#5D66D3"/>
<path d="M68.5385 146.646L67.5031 135.6L59.6818 129.618L59.2202 132.837L61.9834 135.6C61.9834 135.6 62.6758 138.818 64.6278 140.434C64.397 142.274 62.9 146.185 62.9 146.185L68.5385 146.646Z" fill="#EBCEB1"/>
<path d="M254.627 396.089L256.618 399.283C257.503 400.702 258.917 401.71 260.547 402.082L264.359 402.954C268.44 403.886 269.56 409.981 265.5 411C264.252 411.309 255.306 409.548 249.844 408.419C247.3 407.893 245.385 405.803 245.056 403.227L244.565 399.385C243.811 393.493 251.747 390.893 254.627 396.089Z" fill="#575A89"/>
<path d="M209.242 402.44L210.012 403.878C211.287 406.258 212.386 407.707 214.956 408.536C220.605 410.357 222.559 416.757 216.647 417.283C213.956 417.523 210.779 417.157 207.243 415.668C204.407 414.474 202.049 412.265 199.676 410.305C198.223 409.105 196.796 407.967 196.462 407.59C196.355 407.472 196.281 406.606 196.233 405.225C195.97 397.752 206.131 395.639 209.242 402.44Z" fill="#575A89"/>
<path d="M234.902 268.554L223.625 337.129L209.785 399.95C209.468 401.388 208.155 402.384 206.684 402.3L199.348 401.881C197.718 401.788 196.462 400.409 196.521 398.778L198.888 332.776C198.888 332.776 189.649 269.418 189.616 250.682L234.902 268.554Z" fill="#BDBFC1"/>
<path d="M263.2 271.938L258.155 395.749C258.091 397.303 256.85 398.551 255.296 398.623L247.663 398.978C246.08 399.052 244.713 397.882 244.541 396.307L237.837 334.801L227.622 278.058L254.884 242.946L263.2 271.938Z" fill="#BDBFC1"/>
<path d="M256.282 205.302C249.364 171.641 258.148 155.417 243.007 146.059C243.007 146.059 218.343 139.286 202.634 150.557C202.417 150.715 202.199 150.873 201.988 151.032L196.277 162.896L191.944 216.137C191.944 216.137 179.823 286.038 186.26 286.598C193.547 287.238 227.008 271.647 233.359 272.01C239.71 272.38 259.144 275.862 277.49 269.616C293.225 264.274 263.2 238.956 256.282 205.302Z" fill="#8CABEF"/>
<path d="M225.617 145.023L220.816 145.202L220.328 150.029L237.955 199.32L241.905 177.959L237.592 146.943L225.617 145.023Z" fill="white"/>
<path d="M240.105 218.261L233.312 271.924L247.63 273.942L257.535 273.177L245.005 226.617L240.105 218.261Z" fill="white"/>
<path d="M232.119 147.161C228.828 147.299 225.544 147.431 222.253 147.57C221.857 144.978 221.666 142.353 221.686 139.728C218.85 139.161 215.527 138.172 214.656 135.415C214.379 134.544 214.405 133.615 214.438 132.704C214.557 128.939 213.502 125.12 214.788 121.407C215.217 120.174 214.88 118.763 215.414 117.575C216.357 115.491 218.593 114.324 220.769 113.625C226.322 111.838 232.699 112.194 237.638 115.3C238.951 116.125 240.184 117.173 240.903 118.545C242.017 120.662 241.767 123.214 241.483 125.588C241.226 127.785 240.969 129.981 240.712 132.17C240.415 134.696 239.881 137.591 237.665 138.838C236.491 139.497 235.001 139.563 233.972 140.44C232.171 141.977 232.851 144.899 232.119 147.161Z" fill="#E8B0B5"/>
<path d="M246.251 98.239C245.513 98.173 244.761 98.0807 243.976 97.8169C241.516 96.9859 239.676 95.0536 237.078 94.3018C231.816 92.7717 225.445 93.5961 220.618 96.1286C215.995 98.5489 209.526 99.8811 205.463 102.948C203.768 104.227 202.529 106.034 201.632 107.967C198.532 114.647 199.7 123.089 204.494 128.675C205.569 129.928 206.802 131.036 208.081 132.084C210.726 134.248 213.904 136.938 217.195 137.413C216.872 134.577 213.047 126.037 214.887 123.412C217.334 119.936 222.675 119.567 226.527 119.6C231.117 119.64 234.744 117.859 239.307 117.701C241.628 117.622 244.286 117.866 245.935 116.224C247.841 114.324 251.712 108.488 252.536 105.995C253.261 103.818 252.437 101.279 250.729 99.7426C249.272 98.4236 247.794 98.3775 246.251 98.239Z" fill="#3F3D56"/>
<path d="M278.114 174.431C277.421 172.227 276.153 170.248 274.441 168.697L250.709 147.196C248.689 145.366 245.627 145.311 243.542 147.068C241.5 148.789 241.008 151.738 242.38 154.029L262.56 187.728C263.924 190.007 266.291 191.501 268.935 191.754C272.963 192.14 276.681 189.581 277.828 185.701C278.005 185.102 278.182 184.506 278.355 183.935C279.182 181.203 279.289 178.168 278.433 175.445L278.114 174.431Z" fill="#8CABEF"/>
<path d="M206.143 270.692C200.419 265.528 193.672 263.107 186.102 263.496C178.531 263.886 172.068 266.985 166.904 272.71C161.734 278.441 159.314 285.187 159.71 292.752C160.099 300.323 163.198 306.786 168.922 311.95C171.191 313.994 173.624 315.61 176.203 316.791C180.127 318.584 184.394 319.369 188.964 319.138C196.541 318.749 202.997 315.65 208.161 309.919C213.318 304.201 215.738 297.454 215.355 289.876C214.966 282.305 211.86 275.849 206.143 270.692Z" fill="#FF6584"/>
<path d="M215.362 289.883C214.967 282.305 211.867 275.849 206.15 270.692C204.303 269.023 202.344 267.651 200.293 266.557C203.426 270.824 205.16 275.75 205.444 281.27C205.826 288.854 203.406 295.594 198.249 301.312C193.086 307.037 186.629 310.136 179.052 310.532C174.482 310.763 170.215 309.978 166.291 308.184C165.81 307.967 165.335 307.723 164.86 307.472C166.028 309.055 167.373 310.558 168.929 311.957C171.198 314.001 173.631 315.617 176.21 316.797C180.134 318.591 184.4 319.376 188.97 319.145C196.548 318.756 203.004 315.656 208.168 309.925C213.325 304.207 215.745 297.467 215.362 289.883Z" fill="#D95771"/>
<path d="M422.085 170.203C419.988 147.207 408.434 126.083 387.753 107.426C367.072 88.7751 344.789 79.3641 321.503 79.4498C301.264 79.5289 283.03 87.0209 267.302 101.728C264.651 104.207 263.147 107.709 263.18 111.337C263.213 114.964 264.776 118.439 267.466 120.873L279.779 131.979C284.692 136.411 292.144 136.437 297.11 132.038C305.913 124.236 315.087 120.405 325.157 120.332C337.344 120.24 349.537 125.621 361.401 136.318C373.225 146.983 379.635 158.636 380.459 170.936C381.264 183.196 376.371 195.297 365.918 206.891C351.502 222.871 337.218 229.512 323.449 226.624C308.954 223.577 291.57 212.794 271.746 194.559L266.418 189.751C261.096 184.95 252.866 185.379 248.072 190.694L206.209 237.11C203.887 239.688 202.7 243.012 202.885 246.481C203.063 249.95 204.58 253.136 207.158 255.457L219.649 266.721C220.658 267.631 221.765 268.35 222.939 268.884C227.964 271.179 234.111 270.085 238.002 265.772L265.112 235.712C265.449 235.336 266.029 235.303 266.405 235.619C290.244 255.991 312.792 266.952 333.413 268.199C355.347 269.518 376.377 259.203 395.917 237.538C415.378 215.979 424.182 193.319 422.085 170.203Z" fill="#F16782"/>
<path d="M422.085 170.203C419.988 147.207 408.434 126.083 387.753 107.426C374.953 95.8778 361.526 87.8781 347.638 83.4727C354.18 87.4165 360.59 92.2176 366.855 97.8629C387.536 116.52 399.089 137.637 401.186 160.641C403.284 183.756 394.48 206.416 375.019 227.995C355.479 249.66 334.448 259.974 312.515 258.655C306.177 258.273 299.662 256.974 292.988 254.764C307.1 262.936 320.633 267.447 333.42 268.218C355.354 269.537 376.384 259.223 395.924 237.558C415.378 215.979 424.182 193.319 422.085 170.203Z" fill="#D95771"/>
<path d="M242.95 149.394C246.608 151.007 249.58 146.097 246.456 143.604L241.234 139.436C240.16 138.58 238.741 138.29 237.418 138.658L234.958 139.341C233.491 139.749 232.344 140.895 231.936 142.362C231.254 144.815 232.818 147.326 235.321 147.795L236.827 148.077L242.248 149.171C242.489 149.22 242.725 149.294 242.95 149.394Z" fill="#EAC1A4"/>
<path d="M207.956 149.462C207.916 148.502 206.979 147.84 206.061 148.123L196.981 150.923C194.882 151.57 193.102 152.98 191.991 154.875L162.186 205.683C160.681 208.248 160.183 211.281 160.787 214.192L160.982 215.133C161.728 218.729 164.079 221.786 167.364 223.428L199.542 239.521C203.143 241.321 207.522 239.893 209.369 236.316C211.005 233.147 210.132 229.261 207.298 227.096L193.836 216.812C188.642 212.844 187.579 205.45 191.443 200.18L199.769 188.826C200.856 187.344 201.588 185.632 201.908 183.822L207.935 149.778C207.954 149.674 207.961 149.568 207.956 149.462Z" fill="#8CABEF"/>
<path d="M211.761 231L217.13 232.105C219.061 232.503 220.255 234.447 219.737 236.349C219.439 237.439 219.701 238.607 220.436 239.466L221.771 241.028C224.301 243.987 223.097 248.562 219.438 249.892C217.554 250.577 215.446 250.197 213.919 248.897L206 242.154L211.761 231Z" fill="#E7CAAD"/>
<path d="M66.5993 185.622C62.3392 186.921 59.1342 189.54 57.0766 193.404C55.0191 197.269 54.63 201.391 55.9292 205.651C57.2283 209.918 59.8464 213.117 63.7109 215.174C67.5753 217.232 71.697 217.621 75.9572 216.322C77.6454 215.807 79.1688 215.082 80.5207 214.159C82.5782 212.754 84.2335 210.874 85.4798 208.54C87.5374 204.675 87.9265 200.553 86.6273 196.293C85.3282 192.039 82.7167 188.834 78.8456 186.77C74.9745 184.712 70.8529 184.329 66.5993 185.622Z" fill="#297AFF"/>
<path d="M78.8456 186.77C74.9745 184.712 70.8595 184.323 66.6059 185.622C65.2342 186.038 63.968 186.598 62.814 187.291C65.8541 187.007 68.8085 187.62 71.631 189.117C75.5021 191.182 78.1136 194.387 79.4127 198.641C80.7119 202.901 80.3228 207.016 78.2653 210.887C77.0189 213.222 75.357 215.095 73.3061 216.506C73.0555 216.678 72.7917 216.843 72.5279 217.001C73.6622 216.896 74.8031 216.671 75.9571 216.322C77.6454 215.807 79.1687 215.082 80.5206 214.159C82.5782 212.754 84.2334 210.874 85.4798 208.54C87.5374 204.675 87.9265 200.553 86.6273 196.293C85.3282 192.039 82.7101 188.84 78.8456 186.77Z" fill="#1460DC"/>
<path d="M81.1209 48.8354C69.112 43.0318 55.2236 42.4647 39.8317 47.1537C24.4464 51.8427 13.1563 60.0733 6.27146 71.6211C0.290097 81.6653 -1.43111 92.9164 1.17378 105.078C1.60903 107.129 2.90158 108.909 4.70193 109.978C6.50887 111.039 8.6917 111.303 10.6965 110.69L19.8565 107.9C23.5099 106.786 25.7455 103.106 25.0399 99.3399C23.8001 92.6592 24.631 86.9809 27.592 81.9753C31.1729 75.9145 37.4642 71.4826 46.2879 68.7919C55.0852 66.1143 62.7613 66.4045 69.0922 69.6624C75.4033 72.9137 79.9339 78.935 82.5585 87.5612C86.179 99.452 85.2162 108.5 79.6898 114.456C73.8668 120.721 63.3615 126.122 48.4377 130.508L44.4743 131.715C40.5175 132.922 38.2754 137.123 39.4822 141.08L50.0007 175.611C50.5876 177.53 51.8802 179.106 53.6475 180.043C55.4149 180.986 57.446 181.184 59.3651 180.597L68.657 177.768C69.4088 177.537 70.0946 177.207 70.7079 176.785C73.3392 174.984 74.6252 171.614 73.6491 168.403L66.8369 146.039C66.7511 145.762 66.9094 145.465 67.1798 145.373C84.3589 139.635 96.4931 131.734 103.239 121.895C110.421 111.429 111.575 97.9549 106.662 81.8302C101.782 65.7714 93.1825 54.672 81.1209 48.8354Z" fill="#297AFF"/>
<path d="M81.1208 48.8354C69.1119 43.0318 55.2236 42.4647 39.8316 47.1537C30.3089 50.0555 22.3492 54.3159 16.0381 59.882C19.9355 57.8178 24.2221 56.0701 28.8779 54.6522C44.2632 49.9632 58.1582 50.5303 70.1671 56.3339C82.2287 62.1705 90.8282 73.2699 95.7148 89.3287C100.621 105.447 99.4738 118.927 92.2922 129.393C90.2215 132.414 87.6364 135.256 84.5566 137.901C92.8 133.344 99.0583 127.989 103.246 121.888C110.428 111.422 111.582 97.9483 106.669 81.8236C101.782 65.7714 93.1825 54.672 81.1208 48.8354Z" fill="#1460DC"/>
<path d="M489.133 202.096C483.732 201.331 478.825 202.578 474.532 205.803C470.246 209.028 467.68 213.4 466.915 218.795C466.15 224.203 467.397 229.109 470.621 233.396C473.846 237.683 478.218 240.248 483.613 241.013C485.756 241.317 487.82 241.304 489.799 240.974C492.806 240.473 495.622 239.253 498.213 237.307C502.5 234.082 505.065 229.71 505.83 224.315C506.595 218.92 505.349 214.007 502.124 209.714C498.899 205.42 494.527 202.861 489.133 202.096Z" fill="#297AFF"/>
<path d="M502.124 209.708C498.899 205.421 494.527 202.855 489.133 202.097C487.392 201.853 485.697 201.813 484.061 201.985C487.583 203.251 490.544 205.454 492.898 208.58C496.123 212.873 497.369 217.786 496.604 223.181C495.839 228.582 493.274 232.955 488.987 236.173C486.396 238.119 483.586 239.339 480.573 239.84C480.203 239.899 479.828 239.946 479.452 239.985C480.764 240.453 482.149 240.796 483.606 241.007C485.75 241.311 487.814 241.298 489.792 240.968C492.799 240.467 495.615 239.247 498.207 237.301C502.493 234.076 505.059 229.704 505.824 224.309C506.595 218.914 505.349 214.007 502.124 209.708Z" fill="#1460DC"/>
<path d="M576.057 57.7851C565.736 45.1227 550.608 37.3077 531.101 34.5378C511.601 31.7745 494.811 35.0654 481.186 44.3247C469.349 52.3706 461.613 63.9778 458.204 78.8231C457.63 81.3227 458.131 83.9738 459.589 86.0908C461.039 88.2078 463.334 89.6257 465.873 89.9885L477.486 91.6372C482.122 92.2901 486.501 89.3619 487.675 84.818C489.753 76.7589 493.617 70.8894 499.493 66.8664C506.602 61.9927 515.887 60.3308 527.072 61.9136C538.223 63.4964 546.592 67.7897 551.934 74.6815C557.255 81.5535 559.168 90.582 557.618 101.517C555.481 116.586 549.724 126.129 540.512 129.875C530.804 133.819 516.349 134.366 497.514 131.511L492.489 130.798C487.471 130.086 482.815 133.588 482.103 138.607L475.897 182.378C475.554 184.805 476.174 187.225 477.651 189.19C479.129 191.156 481.278 192.422 483.705 192.765L495.483 194.433C496.433 194.565 497.369 194.552 498.266 194.4C502.118 193.761 505.29 190.687 505.87 186.625L509.899 158.28C509.952 157.93 510.275 157.673 510.625 157.712C532.657 160.238 550.212 157.752 562.802 150.326C576.189 142.432 584.445 128.068 587.34 107.637C590.222 87.2845 586.424 70.5135 576.057 57.7851Z" fill="#297AFF"/>
<path d="M576.057 57.785C565.736 45.1226 550.608 37.3076 531.101 34.5377C519.026 32.8296 507.994 33.4429 498.102 36.3513C503.496 36.0809 509.154 36.3579 515.063 37.1955C534.57 39.9588 549.692 47.7804 560.019 60.4428C570.386 73.1711 574.184 89.9422 571.296 110.294C568.401 130.726 560.144 145.09 546.757 152.984C542.893 155.266 538.553 157.079 533.765 158.425C545.273 157.633 554.987 154.936 562.795 150.333C576.182 142.438 584.439 128.074 587.334 107.643C590.222 87.2844 586.424 70.5134 576.057 57.785Z" fill="#1460DC"/>
<path d="M506.496 406.5C504.175 404.178 506.073 400.229 509.337 400.59L512.462 400.937C513.234 401.022 513.971 401.303 514.605 401.752L525.434 409.428C528.093 411.313 526.759 415.5 523.5 415.5C518.378 415.5 513.465 413.466 509.842 409.844L506.496 406.5Z" fill="#575A89"/>
<path d="M390.786 369.122C390.786 369.122 381.725 375.757 381.844 381.62C381.844 381.62 381.527 385.683 381.719 390.067C381.978 395.993 385.577 400.887 389.963 404.881C394.434 408.952 400.367 411.032 406.401 410.645L422.131 409.635L430.255 373.956L390.786 369.122Z" fill="#3B3387"/>
<path d="M418.418 377.049C418.418 377.049 407.55 374.497 403.824 381.909L403.16 383.135C399.052 390.724 399.739 400.01 404.92 406.911C407.78 410.722 412.282 412.945 417.047 412.9L512.5 412L508.145 400.844L476.155 391.815C478.964 389.922 481.318 386.935 482.729 383.894C485.262 378.44 483.283 374.411 481.246 369.286C480.619 367.717 477.638 359.005 475.08 359.691C475.066 359.697 418.418 377.049 418.418 377.049Z" fill="#474EBB"/>
<path d="M362.26 244.83C359.934 243.212 357.989 241.106 356.563 238.658L354.372 234.897C353.612 233.592 354.043 231.919 355.34 231.144C356.456 230.477 357.888 230.682 358.773 231.635L362.077 235.196C362.41 235.555 362.989 235.511 363.264 235.107C363.651 234.539 364.513 234.622 364.784 235.255L368 242.781L363.944 246L362.26 244.83Z" fill="#A0734B"/>
<path d="M426.444 260.733L395.086 269.155L367.349 239.385L361.203 244.991L386.75 294.229L425.052 286.466L426.444 260.733Z" fill="#EED5D5"/>
<path d="M395.541 349.231C402.367 330.231 403.679 310.097 406.139 290.153C406.864 284.271 407.629 278.256 410.261 272.947C413.281 266.847 418.055 263.734 423.542 262.125C430.533 260.08 438.684 260.476 445.892 260.271C452.717 260.278 457.92 286.117 464.469 298.773C468.485 306.529 472.659 313.414 475.264 321.816C477.763 329.882 480.151 338.086 481.489 346.435C483.507 359.045 489.423 367.994 483.362 372.063C482.815 372.228 482.287 372.386 481.786 372.545C471.96 375.71 461.818 377.959 451.543 378.975C442.423 379.878 433.197 379.793 424.103 378.599C411.659 376.963 399.623 374.807 388.834 367.935C391.063 361.696 393.306 355.464 395.541 349.231Z" fill="#EED5D5"/>
<path d="M449.848 241.291C446.346 229.433 429.358 224.79 424.933 238.297C423.601 242.353 422.744 246.679 423.417 250.893C424.096 255.108 426.523 259.216 430.374 261.056C430.394 261.07 430.42 261.076 430.44 261.089C430.249 262.171 430.064 263.252 429.873 264.334C429.833 264.565 429.794 264.822 429.919 265.026C430.064 265.257 430.354 265.323 430.618 265.369C431.911 265.607 433.203 265.844 434.496 266.075C435.135 266.194 435.801 266.306 436.428 266.128C437.8 265.739 438.413 264.13 438.518 262.712C438.545 262.375 438.551 262.026 438.558 261.683C446.34 259.302 452.136 249.04 449.848 241.291Z" fill="#A0616A"/>
<path d="M429.642 220.576C426.523 220.009 423.753 222.964 420.812 224.461C418.365 225.707 415.622 225.971 413.09 226.993C410.557 228.015 408.031 230.231 407.886 233.107C405.4 231.709 402.71 230.271 399.861 230.726C397.012 231.181 394.268 234.472 395.31 237.301C396.24 239.827 399.478 240.526 400.481 243.019C402.07 246.963 397.236 252.846 400.316 255.523C401.054 256.169 402.083 256.354 402.808 257.014C403.712 257.838 403.962 259.21 404.338 260.43C406.033 265.976 411.441 269.735 416.928 269.181C420.377 267.704 423.186 264.505 424.525 260.779C426.134 256.295 423.76 254.633 423.489 250.359C423.193 245.69 424.835 240.816 427.881 237.295C429.866 235.006 432.656 233.067 435.544 232.889C436.718 232.817 436.316 233.779 437.668 232.915C438.248 232.546 439.066 231.102 439.251 230.396C436.177 227.765 433.744 221.321 429.642 220.576Z" fill="#292949"/>
<path d="M463.348 227.712C464.95 228.214 466.711 228.207 468.228 228.932C470.509 230.021 470.292 232.421 470.879 234.525C471.532 236.86 472.481 239.992 473.945 241.839C475 243.171 476.51 243.956 477.816 244.998C479.122 246.04 480.302 247.557 480.217 249.357C480.131 251.065 478.937 252.556 478.713 254.257C478.423 256.79 478.825 258.109 477.955 260.674C477.506 262 477.012 263.404 475.976 264.288C474.611 265.449 472.725 265.363 471.077 265.033C469.428 264.704 467.726 264.189 466.078 264.684C462.497 265.759 463.038 269.366 461.996 272.341C460.413 276.865 455.018 279.364 451.016 277.603C447.619 276.113 445.76 272.057 446.043 268.12C446.188 266.148 447.032 264.334 447.151 262.362C447.27 260.457 446.281 257.786 448.055 256.328C448.49 255.972 449.031 255.794 449.426 255.392C449.743 255.062 449.927 254.613 450.046 254.165C450.468 252.602 450.171 250.874 449.288 249.641C448.648 248.75 447.712 248.091 447.336 247.029C446.907 245.816 447.323 244.424 447.448 243.105C447.745 239.913 446.096 236.715 443.471 235.396C441.743 234.525 440.174 233.991 438.677 232.705C438.453 232.507 435.056 229.308 434.944 229.974C435.142 228.82 435.848 227.825 436.567 226.914C437.747 225.417 439.046 223.966 440.668 223.103C445.905 220.306 445.931 227.205 450.086 226.433C451.088 226.248 451.866 225.358 452.783 224.844C454.511 223.868 456.575 224.303 458.283 225.134C459.997 225.952 461.547 227.145 463.348 227.712Z" fill="#292949"/>
<path d="M369.492 368.496C365.977 367.651 362.66 368.166 359.626 370.019C356.593 371.872 354.628 374.596 353.783 378.111C352.939 381.626 353.447 384.95 355.307 387.977C357.16 391.011 359.884 392.976 363.399 393.82C364.79 394.157 366.155 394.275 367.481 394.183C369.499 394.045 371.431 393.411 373.264 392.297C376.298 390.437 378.263 387.72 379.107 384.205C379.951 380.696 379.437 377.372 377.584 374.339C375.724 371.305 373 369.34 369.492 368.496Z" fill="#F16782"/>
<path d="M377.584 374.338C375.724 371.304 373 369.339 369.492 368.495C368.358 368.224 367.243 368.092 366.155 368.099C368.397 369.154 370.217 370.796 371.569 373.006C373.422 376.046 373.937 379.363 373.093 382.872C372.249 386.387 370.283 389.111 367.25 390.964C365.417 392.085 363.484 392.711 361.466 392.85C361.216 392.87 360.972 392.876 360.721 392.876C361.559 393.272 362.449 393.582 363.399 393.813C364.79 394.149 366.155 394.268 367.481 394.175C369.499 394.037 371.431 393.404 373.264 392.289C376.298 390.43 378.263 387.712 379.107 384.197C379.951 380.695 379.437 377.371 377.584 374.338Z" fill="#D95771"/>
<path d="M435.953 278.757C429.939 269.755 420.456 263.635 407.761 260.581C395.066 257.528 383.783 258.642 374.207 263.885C365.885 268.449 360.055 275.618 356.87 285.194C356.336 286.809 356.501 288.59 357.325 290.074C358.149 291.564 359.574 292.646 361.229 293.042L368.786 294.862C371.8 295.587 374.88 293.932 375.942 291.004C377.821 285.82 380.743 282.186 384.871 279.904C389.87 277.141 396.102 276.627 403.382 278.374C410.643 280.122 415.892 283.485 418.978 288.372C422.058 293.246 422.751 299.32 421.036 306.436C418.675 316.249 414.276 322.178 407.959 324.071C401.305 326.063 391.729 325.509 379.483 322.435L376.212 321.651C372.948 320.866 369.65 322.884 368.866 326.148L362.007 354.639C361.625 356.222 361.882 357.857 362.733 359.242C363.583 360.627 364.922 361.603 366.505 361.986L374.174 363.832C374.794 363.984 375.414 364.03 376.014 363.99C378.599 363.812 380.888 361.986 381.521 359.341L385.959 340.888C386.012 340.657 386.243 340.512 386.473 340.558C400.856 343.612 412.595 343.084 421.366 338.976C430.697 334.61 437.048 325.654 440.253 312.352C443.438 299.116 441.987 287.812 435.953 278.757Z" fill="#F16782"/>
<path d="M435.953 278.756C429.939 269.754 420.455 263.634 407.761 260.581C399.9 258.688 392.58 258.398 385.873 259.697C389.454 259.855 393.167 260.396 397.011 261.326C409.706 264.379 419.196 270.493 425.204 279.502C431.244 288.55 432.689 299.86 429.503 313.103C426.305 326.405 419.948 335.361 410.616 339.727C407.919 340.987 404.945 341.91 401.7 342.497C409.343 342.702 415.925 341.534 421.366 338.989C430.697 334.623 437.048 325.667 440.253 312.365C443.438 299.115 441.987 287.811 435.953 278.756Z" fill="#D95771"/>
<path d="M147.2 101.694C143.962 101.602 141.146 102.663 138.831 104.846C136.516 107.029 135.29 109.779 135.197 113.018C135.105 116.256 136.167 119.072 138.35 121.387C140.533 123.702 143.283 124.928 146.52 125.021C147.806 125.06 149.02 124.915 150.167 124.592C151.908 124.097 153.491 123.187 154.889 121.868C157.204 119.679 158.43 116.935 158.523 113.697C158.615 110.465 157.56 107.649 155.371 105.328C153.181 103.013 150.431 101.786 147.2 101.694Z" fill="#8ED16F"/>
<path d="M155.37 105.328C153.181 103.013 150.431 101.786 147.2 101.694C146.158 101.661 145.155 101.753 144.199 101.964C146.362 102.479 148.255 103.58 149.851 105.269C152.04 107.59 153.095 110.406 153.003 113.638C152.911 116.876 151.684 119.626 149.369 121.809C147.971 123.128 146.388 124.038 144.647 124.532C144.43 124.592 144.212 124.645 143.995 124.691C144.799 124.882 145.637 124.994 146.514 125.021C147.8 125.06 149.013 124.915 150.161 124.592C151.902 124.097 153.484 123.187 154.882 121.868C157.197 119.679 158.424 116.935 158.516 113.697C158.622 110.465 157.56 107.649 155.37 105.328Z" fill="#69B447"/>
<path d="M188.964 10.7692C182.033 3.98298 172.589 0.368921 160.89 0.0259812C149.198 -0.316958 139.504 2.73652 132.078 9.10069C125.622 14.6339 121.83 21.9939 120.794 30.9829C120.623 32.4997 121.091 34.0298 122.094 35.1773C123.089 36.3314 124.54 37.0173 126.064 37.0635L133.028 37.2679C135.804 37.347 138.198 35.329 138.587 32.5723C139.279 27.6788 141.172 23.9592 144.377 21.1959C148.255 17.8522 153.616 16.2563 160.33 16.4475C167.017 16.6454 172.239 18.6239 175.847 22.3434C179.441 26.0498 181.169 31.2533 180.977 37.8087C180.714 46.8438 177.95 52.8585 172.754 55.6811C167.287 58.6489 158.793 59.9349 147.483 59.4864L144.469 59.4007C141.462 59.315 138.943 61.6891 138.857 64.6965L138.092 90.9445C138.053 92.402 138.58 93.787 139.576 94.8488C140.578 95.9106 141.93 96.5173 143.388 96.5569L150.451 96.7613C151.018 96.7811 151.572 96.7085 152.093 96.5569C154.322 95.9237 155.997 93.8991 156.063 91.4655L156.557 74.4702C156.564 74.2592 156.742 74.0877 156.946 74.0877C170.123 74.1207 180.318 71.4893 187.256 66.2793C194.635 60.7329 198.559 51.7109 198.915 39.4574C199.271 27.2435 195.921 17.595 188.964 10.7692Z" fill="#8ED16F"/>
<path d="M188.964 10.7688C182.033 3.98259 172.589 0.368538 160.89 0.025598C153.649 -0.185442 147.18 0.909327 141.535 3.27693C144.7 2.76252 148.057 2.55148 151.598 2.6504C163.29 2.99334 172.741 6.6074 179.665 13.3936C186.629 20.2195 189.972 29.8679 189.616 42.0687C189.26 54.3222 185.336 63.3441 177.957 68.8905C175.827 70.4931 173.387 71.8517 170.65 72.9596C177.39 71.7329 182.949 69.4972 187.249 66.2591C194.628 60.7127 198.552 51.6908 198.908 39.4373C199.271 27.2431 195.921 17.5947 188.964 10.7688Z" fill="#69B447"/>
<path d="M394.024 338.638C392.823 338.877 391.585 338.858 390.392 338.584L380.409 336.293C378.51 335.857 377.3 333.991 377.676 332.079C378.014 330.369 379.525 329.144 381.268 329.169L387.823 329.263C388.522 329.273 389.039 328.616 388.865 327.939C388.652 327.115 389.448 326.389 390.249 326.676L397.853 329.403C399.719 330.072 400.923 331.889 400.81 333.869C400.695 335.905 399.216 337.606 397.215 338.004L394.024 338.638Z" fill="#A0734B"/>
<path d="M448.252 303.323L434.773 329.479L397.665 330.29L397.638 337.663L441.664 346.415L457.188 321.717L448.252 303.323Z" fill="#EED5D5"/>
<path d="M150.688 238.065C151.673 235.976 152.081 233.662 151.872 231.362L148.538 194.724L139.148 194.315L132.731 225.259L124.923 238.291L130.678 243.84C134.314 247.345 140.09 247.769 144.441 245.205C147.036 243.676 149.054 241.532 150.338 238.807L150.688 238.065Z" fill="#5D66D3"/>
<path d="M147.773 194.69L147.735 187.872C147.722 185.582 146.434 183.49 144.396 182.447L143.496 181.986C142.14 181.292 140.519 181.359 139.225 182.162C137.062 183.505 136.512 186.412 138.035 188.452L138.956 189.685L139.865 190.938C141.478 193.163 144.019 194.528 146.764 194.647L147.773 194.69Z" fill="#EAC1A4"/>
<path d="M641.815 177.28C642.258 175.557 642.233 173.747 641.743 172.037L632.108 138.418C631.695 136.974 630.277 136.059 628.791 136.276L624.612 136.886C623.157 137.099 622.07 138.336 622.047 139.807L621.384 181.167C621.341 183.82 622.561 186.335 624.671 187.944C627.889 190.398 632.398 190.186 635.419 187.493C635.944 187.026 636.467 186.563 636.966 186.125C639.004 184.337 640.617 181.944 641.292 179.317L641.815 177.28Z" fill="#8CABEF"/>
<path d="M630.628 136.002L629.462 130.083C628.927 127.362 626.92 125.166 624.258 124.387L623.848 124.267C622.51 123.876 621.065 124.214 620.04 125.159C618.084 126.962 618.09 130.053 620.053 131.848L621.026 132.738L625.326 136.781L630.628 136.002Z" fill="#FFC1C7"/>
<path d="M306.878 377.765C320.618 377.765 331.757 375.624 331.757 372.984C331.757 370.344 320.618 368.203 306.878 368.203C293.138 368.203 282 370.344 282 372.984C282 375.624 293.138 377.765 306.878 377.765Z" fill="#297AFF"/>
<path d="M307.296 374.733C308.895 374.733 310.19 373.039 310.19 370.948C310.19 368.858 308.895 367.163 307.296 367.163C305.697 367.163 304.401 368.858 304.401 370.948C304.401 373.039 305.697 374.733 307.296 374.733Z" fill="#3F3D56"/>
<path d="M307.296 370.105C308.895 370.105 310.19 368.411 310.19 366.32C310.19 364.23 308.895 362.535 307.296 362.535C305.697 362.535 304.401 364.23 304.401 366.32C304.401 368.411 305.697 370.105 307.296 370.105Z" fill="#3F3D56"/>
<path d="M307.296 365.472C308.895 365.472 310.19 363.777 310.19 361.687C310.19 359.596 308.895 357.901 307.296 357.901C305.697 357.901 304.401 359.596 304.401 361.687C304.401 363.777 305.697 365.472 307.296 365.472Z" fill="#3F3D56"/>
<path d="M307.296 360.846C308.895 360.846 310.19 359.151 310.19 357.061C310.19 354.97 308.895 353.275 307.296 353.275C305.697 353.275 304.401 354.97 304.401 357.061C304.401 359.151 305.697 360.846 307.296 360.846Z" fill="#3F3D56"/>
<path d="M307.296 356.211C308.895 356.211 310.19 354.516 310.19 352.426C310.19 350.335 308.895 348.641 307.296 348.641C305.697 348.641 304.401 350.335 304.401 352.426C304.401 354.516 305.697 356.211 307.296 356.211Z" fill="#3F3D56"/>
<path d="M307.296 351.583C308.895 351.583 310.19 349.888 310.19 347.798C310.19 345.707 308.895 344.013 307.296 344.013C305.697 344.013 304.401 345.707 304.401 347.798C304.401 349.888 305.697 351.583 307.296 351.583Z" fill="#3F3D56"/>
<path d="M307.296 346.956C308.895 346.956 310.19 345.261 310.19 343.171C310.19 341.08 308.895 339.386 307.296 339.386C305.697 339.386 304.401 341.08 304.401 343.171C304.401 345.261 305.697 346.956 307.296 346.956Z" fill="#3F3D56"/>
<path d="M296.451 311.484C296.055 310.981 295.695 310.45 295.373 309.896L302.98 308.644L294.751 308.71C293.963 306.993 293.533 305.134 293.488 303.246C293.442 301.358 293.782 299.48 294.487 297.727L305.53 303.446L295.344 295.97C296.294 294.314 297.576 292.872 299.11 291.734C300.643 290.596 302.396 289.787 304.257 289.357C306.118 288.927 308.048 288.885 309.926 289.234C311.804 289.584 313.589 290.317 315.171 291.387C316.752 292.458 318.095 293.843 319.116 295.457C320.137 297.07 320.814 298.876 321.103 300.763C321.393 302.649 321.29 304.575 320.801 306.42C320.311 308.265 319.446 309.989 318.259 311.484C318.878 312.265 319.409 313.112 319.841 314.01L309.963 319.135L320.501 315.606C320.984 317.038 321.232 318.539 321.234 320.05C321.237 323.162 320.189 326.183 318.259 328.624C319.868 330.668 320.869 333.124 321.147 335.71C321.425 338.296 320.969 340.908 319.832 343.247C318.695 345.586 316.921 347.559 314.715 348.939C312.508 350.319 309.958 351.051 307.355 351.051C304.751 351.051 302.201 350.319 299.994 348.939C297.788 347.559 296.015 345.586 294.877 343.247C293.74 340.908 293.284 338.296 293.562 335.71C293.841 333.124 294.842 330.668 296.451 328.624C294.528 326.18 293.483 323.162 293.483 320.054C293.483 316.946 294.528 313.928 296.451 311.484Z" fill="#297AFF"/>
<path opacity="0.1" d="M321.234 320.051C321.238 323.162 320.189 326.183 318.259 328.624C319.868 330.669 320.869 333.124 321.147 335.71C321.425 338.296 320.97 340.908 319.832 343.248C318.695 345.587 316.921 347.559 314.715 348.939C312.508 350.319 309.958 351.051 307.355 351.051C304.752 351.051 302.201 350.319 299.994 348.939C297.788 347.559 296.015 345.587 294.877 343.248C293.74 340.908 293.284 338.296 293.562 335.71C293.841 333.124 294.842 330.669 296.451 328.624C294.589 326.267 321.234 318.499 321.234 320.051Z" fill="black"/>
</g>
<defs>
<clipPath id="clip0">
<rect width="657" height="457" fill="white"/>
</clipPath>
</defs>
</svg>
