<svg width="663" height="486" viewBox="0 0 663 486" fill="none" xmlns="http://www.w3.org/2000/svg">
<g opacity="0.9">
<g clip-path="url(#clip0)">
<path opacity="0.2" d="M87.7417 246.225C79.022 248.857 70.8604 255.23 68.6822 264.072C66.1908 274.234 71.9359 284.478 72.7664 294.912C75.4483 329.097 26.7784 353.216 33.7215 386.797C36.4784 400.149 47.6214 409.97 58.6011 418.085C76.1903 431.042 95.7059 442.49 117.318 445.72C150.121 450.631 184.394 436.198 216.278 445.319C241.995 452.679 261.674 474.247 287.214 482.205C306.654 488.266 327.599 485.878 347.796 483.423C358.687 482.103 370.095 480.58 378.883 474.05C395.22 461.895 396.248 437.892 407.187 420.69C424.082 394.163 461.125 388.953 492.185 394.109C523.246 399.264 553.407 411.957 584.876 410.923C591.601 410.698 598.49 409.787 604.358 406.488C611.491 402.482 616.311 395.421 620.572 388.436C647.204 344.611 661.823 294.553 662.959 243.293C663.143 234.485 662.83 225.296 658.684 217.521C653.443 207.686 642.967 201.802 632.539 197.844C607.496 188.321 579.832 186.764 555.293 176.024C531.625 165.664 512.457 147.497 491.845 131.928C450.77 100.961 403.162 79.7745 352.649 69.984C340.812 67.6986 328.525 66.0661 316.763 68.7052C303.21 71.7456 291.529 80.1866 281.026 89.2738C253.083 113.447 230.688 143.273 204.938 169.766C187.174 188.036 167.83 204.704 147.133 219.575C137.603 226.438 127.474 234.587 116.855 239.661C107.135 244.3 98.0203 243.13 87.7417 246.225Z" fill="#297AFF"/>
<path d="M212.296 31.3838C212.296 31.3838 185.987 66.2973 204.808 106.992C223.63 147.687 172.005 213.073 172.005 213.073" stroke="#535461" stroke-width="2" stroke-miterlimit="10"/>
<path d="M224.093 18.3176C222.003 27.3027 212.003 32.6557 212.003 32.6557C212.003 32.6557 205.401 23.4393 207.49 14.4542C209.58 5.46905 214.978 -0.951819 219.58 0.116058C224.181 1.18394 226.182 9.33245 224.093 18.3176Z" fill="#8ED16F"/>
<path d="M217.377 16.7521C218.033 13.9312 217.708 11.445 216.65 11.1989C215.592 10.9528 214.201 13.0401 213.544 15.861C212.888 18.6819 213.213 21.1682 214.271 21.4143C215.329 21.6603 216.72 19.573 217.377 16.7521Z" fill="#8ED16F"/>
<path opacity="0.3" d="M217.377 16.7521C218.033 13.9312 217.708 11.445 216.65 11.1989C215.592 10.9528 214.201 13.0401 213.544 15.861C212.888 18.6819 213.213 21.1682 214.271 21.4143C215.329 21.6603 216.72 19.573 217.377 16.7521Z" fill="black"/>
<path d="M219.546 58.2364C210.86 61.3653 200.929 55.883 200.929 55.883C200.929 55.883 205.081 45.3335 213.773 42.2115C222.466 39.0895 230.791 40.1709 232.391 44.5649C233.99 48.9588 228.232 55.1076 219.546 58.2364Z" fill="#8ED16F"/>
<path d="M217.105 51.309C219.83 50.3243 221.739 48.6987 221.37 47.6782C221 46.6577 218.492 46.6287 215.768 47.6135C213.043 48.5982 211.134 50.2238 211.503 51.2443C211.873 52.2647 214.381 52.2937 217.105 51.309Z" fill="#8ED16F"/>
<path opacity="0.3" d="M217.105 51.309C219.83 50.3243 221.739 48.6987 221.37 47.6782C221 46.6577 218.492 46.6287 215.768 47.6135C213.043 48.5982 211.134 50.2238 211.503 51.2443C211.873 52.2647 214.381 52.2937 217.105 51.309Z" fill="black"/>
<path d="M217.524 90.0489C208.838 93.1777 198.907 87.6955 198.907 87.6955C198.907 87.6955 203.059 77.146 211.752 74.024C220.444 70.902 228.769 71.9834 230.369 76.3774C231.968 80.7713 226.21 86.9269 217.524 90.0489Z" fill="#8ED16F"/>
<path d="M215.185 83.6013C217.912 82.6202 219.825 80.9969 219.457 79.9754C219.089 78.954 216.58 78.9212 213.852 79.9023C211.125 80.8834 209.213 82.5068 209.581 83.5282C209.949 84.5497 212.458 84.5824 215.185 83.6013Z" fill="#8ED16F"/>
<path opacity="0.3" d="M215.185 83.6013C217.912 82.6202 219.825 80.9969 219.457 79.9754C219.089 78.954 216.58 78.9212 213.852 79.9023C211.125 80.8834 209.213 82.5068 209.581 83.5282C209.949 84.5497 212.458 84.5824 215.185 83.6013Z" fill="black"/>
<path d="M227.673 127.37C218.987 130.499 209.056 125.017 209.056 125.017C209.056 125.017 213.208 114.467 221.9 111.345C230.593 108.223 238.918 109.305 240.518 113.699C242.117 118.093 236.358 124.262 227.673 127.37Z" fill="#8ED16F"/>
<path d="M225.336 120.939C228.063 119.958 229.975 118.335 229.607 117.313C229.239 116.292 226.73 116.259 224.003 117.24C221.276 118.221 219.363 119.845 219.731 120.866C220.099 121.888 222.608 121.92 225.336 120.939Z" fill="#8ED16F"/>
<path opacity="0.3" d="M225.336 120.939C228.063 119.958 229.975 118.335 229.607 117.313C229.239 116.292 226.73 116.259 224.003 117.24C221.276 118.221 219.363 119.845 219.731 120.866C220.099 121.888 222.608 121.92 225.336 120.939Z" fill="black"/>
<path d="M221.07 161.501C212.385 164.63 202.453 159.148 202.453 159.148C202.453 159.148 206.605 148.598 215.298 145.476C223.99 142.354 232.315 143.436 233.915 147.83C235.515 152.223 229.763 158.379 221.07 161.501Z" fill="#8ED16F"/>
<path d="M218.752 154.492C221.476 153.507 223.386 151.881 223.016 150.861C222.647 149.84 220.139 149.811 217.414 150.796C214.69 151.781 212.78 153.406 213.15 154.427C213.519 155.447 216.027 155.476 218.752 154.492Z" fill="#8ED16F"/>
<path opacity="0.3" d="M218.752 154.492C221.476 153.507 223.386 151.881 223.016 150.861C222.647 149.84 220.139 149.811 217.414 150.796C214.69 151.781 212.78 153.406 213.15 154.427C213.519 155.447 216.027 155.476 218.752 154.492Z" fill="black"/>
<path d="M180.33 67.2764C186.743 73.915 198.076 73.398 198.076 73.398C198.076 73.398 199.009 62.1003 192.597 55.4618C186.184 48.8232 178.241 46.0889 174.851 49.3402C171.461 52.5914 173.918 60.6379 180.33 67.2764Z" fill="#8ED16F"/>
<path d="M190.353 64.92C191.134 64.1659 190.136 61.8655 188.123 59.7817C186.11 57.698 183.844 56.62 183.063 57.374C182.281 58.128 183.279 60.4285 185.292 62.5122C187.305 64.596 189.571 65.674 190.353 64.92Z" fill="#8ED16F"/>
<path opacity="0.3" d="M190.353 64.92C191.134 64.1659 190.136 61.8655 188.123 59.7817C186.11 57.698 183.844 56.62 183.063 57.374C182.281 58.128 183.279 60.4285 185.292 62.5122C187.305 64.596 189.571 65.674 190.353 64.92Z" fill="black"/>
<path d="M176.648 172.697C183.06 179.336 194.394 178.819 194.394 178.819C194.394 178.819 195.326 167.521 188.914 160.883C182.502 154.244 174.558 151.51 171.168 154.761C167.779 158.012 170.236 166.059 176.648 172.697Z" fill="#8ED16F"/>
<path d="M186.66 170.351C187.442 169.597 186.444 167.296 184.431 165.212C182.418 163.129 180.152 162.051 179.37 162.805C178.589 163.559 179.587 165.859 181.6 167.943C183.613 170.027 185.879 171.105 186.66 170.351Z" fill="#8ED16F"/>
<path opacity="0.3" d="M186.66 170.351C187.442 169.597 186.444 167.296 184.431 165.212C182.418 163.129 180.152 162.051 179.37 162.805C178.589 163.559 179.587 165.859 181.6 167.943C183.613 170.027 185.879 171.105 186.66 170.351Z" fill="black"/>
<path d="M185.15 104.536C193.414 108.658 203.917 104.373 203.917 104.373C203.917 104.373 201.024 93.4153 192.767 89.2935C184.51 85.1716 176.103 85.2124 174 89.4567C171.897 93.701 176.886 100.414 185.15 104.536Z" fill="#8ED16F"/>
<path d="M193.788 98.9545C194.273 97.9832 192.564 96.1473 189.97 94.8541C187.377 93.5609 184.881 93.3 184.396 94.2714C183.911 95.2428 185.62 97.0786 188.213 98.3718C190.807 99.6651 193.302 99.9259 193.788 98.9545Z" fill="#8ED16F"/>
<path opacity="0.3" d="M193.788 98.9545C194.273 97.9832 192.564 96.1473 189.97 94.8541C187.377 93.5609 184.881 93.3 184.396 94.2714C183.911 95.2428 185.62 97.0786 188.213 98.3718C190.807 99.6651 193.302 99.9259 193.788 98.9545Z" fill="black"/>
<path d="M188.615 141.653C196.879 145.775 207.382 141.49 207.382 141.49C207.382 141.49 204.489 130.533 196.232 126.411C187.975 122.289 179.569 122.33 177.465 126.574C175.362 130.818 180.386 137.572 188.615 141.653Z" fill="#8ED16F"/>
<path d="M197.255 136.077C197.74 135.105 196.031 133.269 193.437 131.976C190.844 130.683 188.348 130.422 187.863 131.393C187.378 132.365 189.087 134.201 191.68 135.494C194.274 136.787 196.77 137.048 197.255 136.077Z" fill="#8ED16F"/>
<path opacity="0.3" d="M197.255 136.077C197.74 135.105 196.031 133.269 193.437 131.976C190.844 130.683 188.348 130.422 187.863 131.393C187.378 132.365 189.087 134.201 191.68 135.494C194.274 136.787 196.77 137.048 197.255 136.077Z" fill="black"/>
<path d="M85.5843 106.428C85.5843 106.428 133.635 154.441 106.509 225.69C79.3831 296.938 153.007 415.419 153.007 415.419C153.007 415.419 152.218 415.303 150.754 415.044C52.0531 397.639 3.0428 284.852 57.9071 201.068C78.2804 169.915 95.0596 133.376 85.5843 106.428Z" fill="#8ED16F"/>
<path d="M0 300.625C0 300.625 54.8302 291.898 59.8266 341C64.8229 390.102 165.26 396.91 165.26 396.91C165.26 396.91 164.579 397.359 163.374 398.162C80.4449 452.576 1.1708 432.81 13.1171 360.582C17.5688 333.722 17.2012 306.753 0 300.625Z" fill="#7DBA61"/>
<path d="M71.7044 300.019C80.0315 300.019 86.7819 282.421 86.7819 260.712C86.7819 239.003 80.0315 221.404 71.7044 221.404C63.3774 221.404 56.627 239.003 56.627 260.712C56.627 282.421 63.3774 300.019 71.7044 300.019Z" fill="#8ED16F"/>
<path opacity="0.3" d="M71.7044 300.019C80.0315 300.019 86.7819 282.421 86.7819 260.712C86.7819 239.003 80.0315 221.404 71.7044 221.404C63.3774 221.404 56.627 239.003 56.627 260.712C56.627 282.421 63.3774 300.019 71.7044 300.019Z" fill="black"/>
<path d="M70.327 403.468C74.2958 399.503 70.3522 389.132 61.5187 380.305C52.6852 371.479 42.3069 367.538 38.3381 371.504C34.3692 375.47 38.3128 385.84 47.1463 394.667C55.9798 403.494 66.3582 407.434 70.327 403.468Z" fill="#8ED16F"/>
<path opacity="0.3" d="M70.327 403.468C74.2958 399.503 70.3522 389.132 61.5187 380.305C52.6852 371.479 42.3069 367.538 38.3381 371.504C34.3692 375.47 38.3128 385.84 47.1463 394.667C55.9798 403.494 66.3582 407.434 70.327 403.468Z" fill="black"/>
<path d="M492.75 180.56H135.833C131.52 180.56 127.384 182.272 124.334 185.319C121.285 188.366 119.571 192.499 119.571 196.809V405.848C119.571 410.157 121.285 414.29 124.334 417.338C127.384 420.385 131.52 422.097 135.833 422.097H492.75C497.063 422.097 501.2 420.385 504.249 417.338C507.299 414.29 509.012 410.157 509.012 405.848V196.809C509.012 192.499 507.299 188.366 504.249 185.319C501.2 182.272 497.063 180.56 492.75 180.56Z" fill="url(#paint0_linear)"/>
<path d="M487.537 183.403H141.041C131.714 183.403 124.153 190.959 124.153 200.279V402.379C124.153 411.699 131.714 419.255 141.041 419.255H487.537C496.864 419.255 504.425 411.699 504.425 402.379V200.279C504.425 190.959 496.864 183.403 487.537 183.403Z" fill="#297AFF"/>
<path d="M504.425 224.676H124.153V267.915H504.425V224.676Z" fill="#297AFF"/>
<path opacity="0.3" d="M504.425 224.676H124.153V267.915H504.425V224.676Z" fill="black"/>
<path d="M468.368 300.02H160.216V320.983H468.368V300.02Z" fill="#D6D6E3"/>
<path d="M185.783 403.535C202.441 403.535 215.945 390.042 215.945 373.396C215.945 356.751 202.441 343.258 185.783 343.258C169.125 343.258 155.621 356.751 155.621 373.396C155.621 390.042 169.125 403.535 185.783 403.535Z" fill="#297AFF"/>
<path opacity="0.3" d="M185.783 403.535C202.441 403.535 215.945 390.042 215.945 373.396C215.945 356.751 202.441 343.258 185.783 343.258C169.125 343.258 155.621 356.751 155.621 373.396C155.621 390.042 169.125 403.535 185.783 403.535Z" fill="black"/>
<path d="M482.806 125.247C483.293 126.786 484.327 128.092 485.712 128.92C491.968 133.049 505.568 132.172 507.202 132.172C507.549 132.172 508.005 132.791 508.509 133.831C510.912 138.783 514.635 153.298 514.887 156.563C515.221 160.515 518.897 179.009 524.914 185.899C525.098 186.11 525.281 186.307 525.458 186.491C531.36 192.415 538.283 185.899 538.283 185.899L539.277 182.45C538.998 183.811 538.684 185.396 538.371 187.171C538.215 188.062 538.058 189.007 537.908 189.98C537.012 195.461 536.54 201.003 536.499 206.556C536.484 208.572 536.57 210.588 536.758 212.596C536.812 213.154 536.874 213.704 536.949 214.242C537.256 216.687 537.406 219.15 537.398 221.615C537.343 236.252 533.606 254.461 533.606 254.461L533.749 254.413C533.661 254.869 533.606 255.093 533.606 255.093L533.824 255.025C533.72 255.701 533.62 256.392 533.525 257.1C532.259 266.282 531.53 277.709 531.183 284.307C531.004 287.787 531.159 291.277 531.646 294.727L538.29 341.462V363.228C538.267 366.526 538.67 369.813 539.488 373.009C541.652 381.232 539.869 409.936 538.868 423.553C538.589 427.266 538.371 429.865 538.31 430.613V430.837L538.501 430.763C538.501 430.919 538.501 431.001 538.501 431.001C538.784 430.879 539.081 430.793 539.386 430.742C536.751 434.823 531.98 441.571 528.311 442.706C526.148 443.365 524.225 444.639 522.776 446.373L522.681 446.502L522.545 446.692C522.091 447.299 521.816 448.02 521.749 448.774C521.696 448.644 521.655 448.51 521.626 448.372C521.347 449.889 522.259 451.277 525.125 451.95C526.796 452.269 528.496 452.406 530.196 452.358C540.134 452.358 557.771 449.304 559.718 446.019V434.687L560.038 434.789V434.891L561.256 435.293L564.599 424.083C568.608 421.118 565.279 368.043 564.599 355.848C563.986 344.734 570.868 300.522 572.086 292.734L571.923 292.537L572.107 291.401C572.352 291.579 572.58 291.779 572.787 292C573.187 292.474 573.536 292.99 573.829 293.537C574.404 294.51 574.898 295.529 575.306 296.584C582.031 313.344 585.06 361.269 585.06 365.568V410.636C585.046 415.084 585.665 419.51 586.898 423.784C587.516 426.033 587.993 428.318 588.328 430.627C588.471 431.531 588.593 432.429 588.709 433.286C588.825 434.143 588.94 435.123 589.029 435.925C589.029 436.136 589.076 436.34 589.097 436.531C589.117 436.721 589.097 436.714 589.097 436.809C589.281 438.585 589.376 439.748 589.376 439.748C589.401 439.65 589.448 439.56 589.512 439.482L589.546 439.911C589.594 439.749 589.686 439.603 589.812 439.489C590.088 439.218 590.389 438.972 590.71 438.755V444.482L590.547 444.359V445.346C597.476 450.569 608.755 452.147 617.414 452.086C623.03 452.086 627.577 451.406 629.156 450.617C631.416 449.508 630.177 446.924 628.121 444.944C626.528 443.407 624.452 442.224 623.139 442.373C620.947 442.611 613.452 434.129 609.525 429.484L609.967 429.287L610.593 429.015V353.869C610.593 353.869 611.601 324.199 614.603 294.856C616.027 280.065 614.275 265.141 609.463 251.08L609.368 250.801L610.28 250.944C611.247 251.094 611.764 251.182 611.764 251.182C611.764 251.182 611.764 250.951 611.703 250.502H611.764C611.764 250.502 610.593 237.776 610.58 221.792C610.58 203.672 612.111 181.58 618.449 169.078C622.097 161.882 623.316 156.155 623.214 151.638C623.373 147.664 622.228 143.747 619.953 140.483C618.999 139.17 617.701 138.144 616.202 137.518L616.073 137.443H616.005C614.91 137 613.741 136.77 612.561 136.763H598.872C597.287 136.764 595.73 136.354 594.352 135.573L588.995 132.539C587.211 128.642 586.953 123.812 587.334 119.282C587.334 118.922 587.402 118.561 587.436 118.208L587.824 117.8C588.123 117.48 588.403 117.119 588.675 116.813C588.669 117.082 588.648 117.35 588.614 117.616C588.546 118.044 588.43 118.296 588.246 118.35C591.173 117.97 594.44 117.391 596.237 115.133C596.312 115.045 596.38 114.95 596.448 114.854C596.979 113.995 597.42 113.084 597.762 112.134C598.014 111.485 598.35 110.872 598.763 110.311C599.212 109.726 599.797 109.25 600.281 108.692L600.362 108.597C602.085 106.556 602.18 103.631 602.2 100.965C602.234 94.4899 602.044 87.3616 597.708 82.5052C594.107 78.4649 588.362 76.9345 582.909 76.7577C577.457 76.5808 572.018 77.5603 566.573 77.5875C562.87 77.5875 558.404 77.5263 556.362 80.5871C555.362 82.0903 555.239 84.056 554.15 85.4979C553.524 86.3278 552.564 87.0419 552.509 88.0758C552.502 88.5529 552.625 89.0229 552.863 89.4362V89.4838C554.184 92.0821 556.988 93.7009 559.915 94.211C559.421 94.8061 558.966 95.4332 558.554 96.0883C556.767 98.9429 555.823 102.244 555.831 105.611C555.831 106.005 555.831 106.393 555.872 106.781C556.176 111.354 558.216 115.639 561.576 118.759C561.522 119.139 561.467 119.52 561.406 119.895L561.529 120.003C561.914 120.352 562.316 120.684 562.733 120.996L562.883 121.112C562.883 121.35 562.883 121.588 562.883 121.792C562.883 122.187 562.883 122.588 562.842 122.976C562.802 123.363 562.842 123.601 562.802 123.914L562.713 123.84L556.063 118.289L545.369 108.4C545.369 108.4 518.631 88.9532 517.29 98.1969C517.128 99.8385 517.582 101.482 518.563 102.808C523.471 110.29 540.345 116.657 540.345 116.657C540.345 116.657 550.406 127.288 557.138 138.749C556.9 138.878 556.662 139.001 556.41 139.116C550.42 141.898 541.679 140.722 541.679 140.722C531.585 142.293 530.673 153.346 530.727 157.814C530.727 158.025 530.727 158.229 530.727 158.413C530.727 158.597 530.727 158.637 530.727 158.739L517.331 127.308L517.29 127.213C516.853 126.19 516.165 125.293 515.289 124.606C514.414 123.919 513.379 123.463 512.28 123.282C503.322 121.779 480.934 118.643 482.806 125.247ZM538.889 430.647C539.084 430.601 539.282 430.564 539.481 430.538L539.42 430.633L538.889 430.647Z" fill="url(#paint1_linear)"/>
<path d="M605.822 424.22C605.822 424.22 618.51 440.156 621.444 439.83C624.378 439.503 631.205 446.006 627.305 447.992C623.404 449.978 600.948 451.243 589.866 442.789V430.049L605.822 424.22Z" fill="#ACA9C9"/>
<path d="M541.706 425.192C541.706 425.192 534.219 438.524 529.018 440.156C523.818 441.789 519.257 447.638 526.091 449.264C532.925 450.889 557.335 447.312 559.609 443.407V426.165L541.706 425.192Z" fill="#ACA9C9"/>
<path d="M532.306 294.224L538.773 340.327V361.759C538.753 365.011 539.146 368.252 539.943 371.404C542.054 379.519 540.318 407.828 539.338 421.261C539.018 425.641 538.773 428.444 538.773 428.444C543 426.492 560.902 432.668 560.902 432.668L562.713 426.512L564.156 421.615C568.063 418.69 564.837 366.337 564.156 354.277C563.713 346.04 567.389 319.336 569.744 303.332C570.425 298.809 570.977 295.17 571.31 292.98C571.521 291.619 571.637 290.864 571.637 290.864C572.354 291.449 572.951 292.167 573.393 292.98C573.953 293.941 574.433 294.946 574.829 295.986C581.378 312.521 584.359 359.793 584.359 364.004V408.46C584.346 412.846 584.948 417.212 586.149 421.431C586.955 424.508 587.544 427.638 587.912 430.797C588.375 434.327 588.593 437.17 588.593 437.17C588.92 435.218 609.096 426.437 609.096 426.437V352.298C609.096 352.298 610.069 323.05 613.003 294.088C614.264 280.914 612.993 267.621 609.259 254.924C608.449 252.155 607.639 249.809 606.938 247.952C605.747 244.789 604.896 243.041 604.896 243.041H538.432C537.316 243.252 536.39 245.496 535.553 248.904C535.008 251.19 534.532 253.992 534.117 257.066C532.885 266.119 532.177 277.39 531.836 283.906C531.665 287.353 531.822 290.808 532.306 294.224Z" fill="#618FD8"/>
<g opacity="0.1">
<path opacity="0.1" d="M607.924 426.648V352.509C607.924 352.509 608.898 323.261 611.832 294.299C614.765 265.337 603.663 243.245 603.663 243.245H604.963C604.963 243.245 616.025 265.358 613.132 294.299C610.239 323.241 609.224 352.509 609.224 352.509V426.648C609.224 426.648 589.048 435.429 588.722 437.381C588.722 437.381 588.722 436.946 588.62 436.198C593.017 433.144 607.924 426.648 607.924 426.648Z" fill="black"/>
<path opacity="0.1" d="M540.726 428.24C540.112 428.252 539.505 428.377 538.936 428.607V428.281C539.53 428.221 540.129 428.207 540.726 428.24Z" fill="black"/>
<path opacity="0.1" d="M563.018 421.778C566.926 418.853 563.699 366.5 563.018 354.44C562.338 342.381 570.506 291.034 570.506 291.034C570.934 291.364 571.312 291.754 571.629 292.19C570.431 299.863 563.733 343.483 564.325 354.44C565.006 366.473 568.233 418.826 564.325 421.778L561.072 432.831L559.887 432.436L563.018 421.778Z" fill="black"/>
</g>
<path d="M545.607 162.773L538.8 186.838C538.8 186.838 531.639 193.639 525.785 186.838C519.931 180.036 516.323 161.8 515.969 157.896C515.615 153.992 510.435 133.831 508.481 133.831C506.528 133.831 487.005 135.131 484.725 127.03C482.901 120.514 504.697 123.629 513.423 125.091C514.498 125.274 515.509 125.725 516.362 126.403C517.215 127.081 517.883 127.963 518.304 128.968L531.686 160.902C531.686 160.902 538.773 152.693 545.607 162.773Z" fill="#F7C4A7"/>
<path d="M589.539 106.842C589.539 106.842 581.078 130.58 591.819 139.035C602.561 147.489 553.408 149.768 553.408 149.768L560.079 143.428C560.079 143.428 564.796 124.73 561.542 109.12L589.539 106.842Z" fill="#F7C4A7"/>
<path opacity="0.1" d="M579.124 139.035C579.124 139.035 587.749 136.919 587.749 134.647L595.393 139.035H614.595C614.595 139.035 628.59 146.836 616.876 170.255C605.161 193.673 610.368 251.196 610.368 251.196C610.368 251.196 568.716 243.714 534.219 255.1C534.219 255.1 539.426 229.41 537.472 214.779C535.519 200.149 540.726 179.662 540.726 179.662L543.653 167.303C543.653 167.303 543.49 155.74 531.448 161.61C531.448 161.61 529.658 144.864 542.026 142.912C542.026 142.912 556.321 144.864 560.575 137.708C560.575 137.735 570.016 143.265 579.124 139.035Z" fill="black"/>
<path d="M579.124 138.389C579.124 138.389 587.748 136.274 587.748 134.002L593.351 137.219C594.689 137.986 596.205 138.389 597.748 138.389H611.178C612.582 138.385 613.966 138.715 615.218 139.351C616.469 139.987 617.55 140.912 618.373 142.048C621.457 146.381 624.22 154.924 616.875 169.609C605.161 193.021 610.368 250.55 610.368 250.55C610.368 250.55 568.716 243.068 534.218 254.454C534.218 254.454 539.426 228.764 537.472 214.134C535.518 199.503 540.726 179.064 540.726 179.064L543.653 166.705C543.653 166.705 543.489 155.142 531.448 161.012C531.448 161.012 529.705 144.728 541.515 142.402C541.844 142.329 542.181 142.306 542.516 142.334C545.041 142.599 556.811 143.45 560.582 137.076C560.575 137.083 570.016 142.613 579.124 138.389Z" fill="#E14B5A"/>
<path opacity="0.1" d="M611.995 167.976C611.995 167.976 601.581 174.479 584.658 167.976C584.658 167.976 566.109 161.175 560.249 147.816C554.388 134.457 589.859 150.095 589.859 150.095C589.859 150.095 597.347 150.095 599.62 148.469C601.894 146.843 617.849 160.821 611.995 167.976Z" fill="black"/>
<path d="M611.995 166.677C611.995 166.677 601.581 173.18 584.659 166.677C584.659 166.677 566.11 159.876 560.249 146.517C554.388 133.158 540.726 118.528 540.726 118.528C540.726 118.528 516.97 109.42 518.263 100.319C519.557 91.2186 545.6 110.4 545.6 110.4L556.015 120.153L589.859 148.768C589.859 148.768 597.347 148.768 599.62 147.143C601.894 145.517 617.849 159.522 611.995 166.677Z" fill="#F7C4A7"/>
<path opacity="0.1" d="M561.229 110.094L589.212 107.815C587.773 112.114 586.795 116.553 586.292 121.058C583.039 124.429 578.591 126.389 573.906 126.516C569.221 126.644 564.674 124.928 561.242 121.739C561.955 117.889 561.951 113.942 561.229 110.094Z" fill="black"/>
<path d="M573.76 125.54C583.643 125.54 591.655 117.534 591.655 107.658C591.655 97.7823 583.643 89.7764 573.76 89.7764C563.876 89.7764 555.864 97.7823 555.864 107.658C555.864 117.534 563.876 125.54 573.76 125.54Z" fill="#F7C4A7"/>
<path opacity="0.1" d="M583.583 111.542C582.534 109.814 584.665 107.563 583.964 105.672C583.317 103.93 580.744 103.631 579.88 102.006C579.199 100.693 579.88 99.0808 579.607 97.632C579.219 95.7616 577.204 94.5984 575.292 94.5032C573.379 94.408 571.534 95.1222 569.717 95.7343C566.756 96.7342 563.638 97.5028 560.534 97.1491C557.43 96.7954 554.333 95.1086 552.951 92.3403C552.725 91.937 552.606 91.4829 552.604 91.0207C552.658 90.0005 553.598 89.2999 554.204 88.4837C555.266 87.0621 555.388 85.1236 556.355 83.6408C558.329 80.6208 562.665 80.6956 566.272 80.682C571.582 80.682 576.864 79.689 582.174 79.8658C587.483 80.0427 593.065 81.5459 596.584 85.5317C600.804 90.3269 600.995 97.3464 600.961 103.74C600.961 106.372 600.852 109.236 599.17 111.27C598.68 111.861 598.081 112.351 597.612 112.956C596.591 114.317 596.318 116.058 595.359 117.439C593.657 119.894 590.335 120.493 587.374 120.887C588.245 120.772 587.524 114.943 587.374 114.405C586.802 111.725 586.183 111.78 583.583 111.542Z" fill="black"/>
<path d="M583.583 110.896C582.534 109.169 584.665 106.917 583.964 105.026C583.317 103.285 580.744 102.986 579.88 101.36C579.199 100.047 579.88 98.4353 579.607 96.9865C579.219 95.1161 577.204 93.9529 575.292 93.8577C573.379 93.7625 571.534 94.4767 569.717 95.0888C566.756 96.0887 563.638 96.8573 560.534 96.5036C557.43 96.1499 554.333 94.4631 552.951 91.6948C552.725 91.2915 552.606 90.8374 552.604 90.3752C552.658 89.355 553.598 88.6544 554.204 87.8382C555.266 86.4166 555.388 84.4781 556.355 82.9953C558.329 79.9753 562.665 80.0501 566.272 80.0365C571.582 80.0365 576.864 79.0435 582.174 79.2203C587.483 79.3972 593.065 80.9003 596.584 84.8862C600.804 89.6814 600.995 96.7009 600.961 103.095C600.961 105.727 600.852 108.59 599.17 110.624C598.68 111.216 598.081 111.706 597.612 112.311C596.591 113.671 596.318 115.413 595.359 116.793C593.657 119.249 590.335 119.847 587.374 120.242C588.245 120.126 587.524 114.297 587.374 113.76C586.802 111.046 586.183 111.127 583.583 110.896Z" fill="#0D0909"/>
<path opacity="0.1" d="M611.832 168.793C611.832 168.793 603.044 146.027 596.21 145.381C589.376 144.735 609.225 145.381 609.225 145.381L615.733 157.087L611.832 168.793Z" fill="black"/>
<path d="M612.486 168.793C612.486 168.793 603.698 146.027 596.864 145.381C590.029 144.735 609.879 145.381 609.879 145.381L616.386 157.087L612.486 168.793Z" fill="#E14B5A"/>
<path d="M587.885 430.851C588.348 434.381 588.565 437.225 588.565 437.225C588.892 435.272 609.068 426.491 609.068 426.491V421.206C608.554 421.187 608.039 421.212 607.53 421.281C603.616 421.805 599.988 423.703 596.639 425.73C593.81 427.585 590.888 429.294 587.885 430.851Z" fill="#618FD8"/>
<path opacity="0.3" d="M587.885 430.851C588.348 434.381 588.565 437.225 588.565 437.225C588.892 435.272 609.068 426.491 609.068 426.491V421.206C608.554 421.187 608.039 421.212 607.53 421.281C603.616 421.805 599.988 423.703 596.639 425.73C593.81 427.585 590.888 429.294 587.885 430.851Z" fill="black"/>
<path d="M538.772 428.443C543 426.491 560.902 432.667 560.902 432.667L562.713 426.512C559.588 425.879 556.484 425.09 553.435 424.151C552.011 423.74 550.619 423.226 549.269 422.614C548.367 422.133 547.44 421.702 546.492 421.322C544.157 420.519 541.727 420.859 539.331 421.261C539.018 425.641 538.772 428.443 538.772 428.443Z" fill="#618FD8"/>
<path opacity="0.3" d="M538.772 428.443C543 426.491 560.902 432.667 560.902 432.667L562.713 426.512C559.588 425.879 556.484 425.09 553.435 424.151C552.011 423.74 550.619 423.226 549.269 422.614C548.367 422.133 547.44 421.702 546.492 421.322C544.157 420.519 541.727 420.859 539.331 421.261C539.018 425.641 538.772 428.443 538.772 428.443Z" fill="black"/>
<path opacity="0.4" d="M627.127 446.979C627.4 446.862 627.642 446.685 627.835 446.461C628.029 446.238 628.168 445.972 628.244 445.686C628.365 446.135 628.319 446.612 628.113 447.029C627.908 447.446 627.557 447.774 627.127 447.951C623.22 449.903 600.771 451.203 589.689 442.748V441.775C600.771 450.23 623.22 448.931 627.127 446.979Z" fill="white"/>
<path opacity="0.4" d="M525.92 448.277C532.727 449.903 557.165 446.325 559.438 442.421V443.394C557.158 447.298 532.755 450.876 525.92 449.25C523.13 448.57 522.238 447.209 522.517 445.72C522.735 446.822 523.756 447.733 525.92 448.277Z" fill="white"/>
<path opacity="0.1" d="M565.619 211.392C565.619 211.392 558.458 209.113 556.505 211.392C554.551 213.67 537.854 219.01 537.854 219.01" fill="black"/>
<path d="M484.596 122.044H519.414V121.309H484.596V122.044Z" fill="#8ED16F"/>
<path d="M484.596 122.778H519.414V122.044H484.596V122.778Z" fill="#8ED16F"/>
<path opacity="0.1" d="M484.596 122.778H519.414V122.044H484.596V122.778Z" fill="black"/>
<path d="M484.596 123.514H519.414V122.779H484.596V123.514Z" fill="#8ED16F"/>
<path d="M484.596 124.241H519.414V123.507H484.596V124.241Z" fill="#8ED16F"/>
<path opacity="0.1" d="M484.596 124.241H519.414V123.507H484.596V124.241Z" fill="black"/>
<path d="M484.596 124.976H519.414V124.241H484.596V124.976Z" fill="#8ED16F"/>
<path d="M484.596 125.704H519.414V124.97H484.596V125.704Z" fill="#8ED16F"/>
<path opacity="0.1" d="M484.596 125.704H519.414V124.97H484.596V125.704Z" fill="black"/>
<path d="M484.596 126.438H519.414V125.704H484.596V126.438Z" fill="#8ED16F"/>
<path d="M484.596 127.166H519.414V126.431H484.596V127.166Z" fill="#8ED16F"/>
<path opacity="0.1" d="M484.596 127.166H519.414V126.431H484.596V127.166Z" fill="black"/>
<path d="M484.596 116.195H519.414V115.461H484.596V116.195Z" fill="#8ED16F"/>
<path d="M509.224 98.8031L535.993 121.05L536.463 120.485L509.694 98.2383L509.224 98.8031Z" fill="#8ED16F"/>
<path d="M484.818 87.098L511.587 109.345L512.057 108.78L485.288 86.5332L484.818 87.098Z" fill="#8ED16F"/>
<path d="M484.596 116.922H519.414V116.187H484.596V116.922Z" fill="#8ED16F"/>
<path opacity="0.1" d="M484.596 116.922H519.414V116.187H484.596V116.922Z" fill="black"/>
<path d="M484.596 117.664H519.414V116.929H484.596V117.664Z" fill="#8ED16F"/>
<path d="M484.596 118.392H519.414V117.657H484.596V118.392Z" fill="#8ED16F"/>
<path opacity="0.1" d="M484.596 118.392H519.414V117.657H484.596V118.392Z" fill="black"/>
<path d="M484.596 119.119H519.414V118.385H484.596V119.119Z" fill="#8ED16F"/>
<path d="M484.596 119.854H519.414V119.119H484.596V119.854Z" fill="#8ED16F"/>
<path opacity="0.1" d="M484.596 119.854H519.414V119.119H484.596V119.854Z" fill="black"/>
<path d="M484.596 120.582H519.414V119.847H484.596V120.582Z" fill="#8ED16F"/>
<path d="M484.596 121.316H519.414V120.582H484.596V121.316Z" fill="#8ED16F"/>
<path opacity="0.1" d="M484.596 121.316H519.414V120.582H484.596V121.316Z" fill="black"/>
<path d="M480.183 149.838L492.658 152.153L497.173 127.858L484.698 125.543L480.183 149.838Z" fill="#8ED16F"/>
<path d="M491.408 139.399C491.933 136.574 491.214 134.071 489.802 133.809C488.39 133.547 486.82 135.625 486.295 138.451C485.77 141.276 486.489 143.779 487.901 144.041C489.313 144.303 490.883 142.225 491.408 139.399Z" fill="#8ED16F"/>
<path opacity="0.1" d="M491.408 139.399C491.933 136.574 491.214 134.071 489.802 133.809C488.39 133.547 486.82 135.625 486.295 138.451C485.77 141.276 486.489 143.779 487.901 144.041C489.313 144.303 490.883 142.225 491.408 139.399Z" fill="black"/>
<path d="M482.317 201.12L494.792 203.435L499.307 179.139L486.832 176.824L482.317 201.12Z" fill="#8ED16F"/>
<path d="M493.536 190.675C494.061 187.849 493.342 185.346 491.93 185.084C490.518 184.822 488.948 186.9 488.423 189.726C487.898 192.551 488.617 195.054 490.029 195.316C491.441 195.578 493.011 193.5 493.536 190.675Z" fill="#8ED16F"/>
<path opacity="0.1" d="M493.536 190.675C494.061 187.849 493.342 185.346 491.93 185.084C490.518 184.822 488.948 186.9 488.423 189.726C487.898 192.551 488.617 195.054 490.029 195.316C491.441 195.578 493.011 193.5 493.536 190.675Z" fill="black"/>
<path d="M437.196 75.0721L431.158 86.2227L452.907 97.9833L458.946 86.8328L437.196 75.0721Z" fill="#8ED16F"/>
<path d="M451.752 89.5027C452.442 88.2399 450.949 86.098 448.418 84.7186C445.887 83.3392 443.277 83.2447 442.587 84.5075C441.898 85.7703 443.391 87.9122 445.922 89.2915C448.453 90.6709 451.063 90.7655 451.752 89.5027Z" fill="#8ED16F"/>
<path opacity="0.1" d="M451.752 89.5027C452.442 88.2399 450.949 86.098 448.418 84.7186C445.887 83.3392 443.277 83.2447 442.587 84.5075C441.898 85.7703 443.391 87.9122 445.922 89.2915C448.453 90.6709 451.063 90.7655 451.752 89.5027Z" fill="black"/>
<path d="M389.44 295.125L383.401 306.275L405.151 318.036L411.189 306.886L389.44 295.125Z" fill="#8ED16F"/>
<path d="M401.805 309.206C402.488 307.944 400.992 305.812 398.463 304.444C395.933 303.077 393.329 302.991 392.645 304.253C391.962 305.515 393.458 307.647 395.987 309.015C398.517 310.382 401.121 310.468 401.805 309.206Z" fill="#8ED16F"/>
<path opacity="0.1" d="M401.805 309.206C402.488 307.944 400.992 305.812 398.463 304.444C395.933 303.077 393.329 302.991 392.645 304.253C391.962 305.515 393.458 307.647 395.987 309.015C398.517 310.382 401.121 310.468 401.805 309.206Z" fill="black"/>
<path d="M360.222 113.53L354.183 124.681L375.932 136.441L381.971 125.291L360.222 113.53Z" fill="#8ED16F"/>
<path d="M372.58 127.6C373.264 126.338 371.767 124.206 369.238 122.839C366.709 121.471 364.104 121.385 363.421 122.647C362.737 123.91 364.234 126.041 366.763 127.409C369.292 128.777 371.897 128.862 372.58 127.6Z" fill="#8ED16F"/>
<path opacity="0.1" d="M372.58 127.6C373.264 126.338 371.767 124.206 369.238 122.839C366.709 121.471 364.104 121.385 363.421 122.647C362.737 123.91 364.234 126.041 366.763 127.409C369.292 128.777 371.897 128.862 372.58 127.6Z" fill="black"/>
<path d="M396.842 75.0683L390.804 86.2188L412.553 97.9794L418.592 86.8289L396.842 75.0683Z" fill="#8ED16F"/>
<path d="M409.202 89.1394C409.885 87.8774 408.389 85.7455 405.859 84.3778C403.33 83.0101 400.726 82.9245 400.042 84.1865C399.359 85.4486 400.855 87.5804 403.384 88.9481C405.914 90.3158 408.518 90.4015 409.202 89.1394Z" fill="#8ED16F"/>
<path opacity="0.1" d="M409.202 89.1394C409.885 87.8774 408.389 85.7455 405.859 84.3778C403.33 83.0101 400.726 82.9245 400.042 84.1865C399.359 85.4486 400.855 87.5804 403.384 88.9481C405.914 90.3158 408.518 90.4015 409.202 89.1394Z" fill="black"/>
<path d="M433.404 120.45L420.792 121.828L423.479 146.393L436.092 145.014L433.404 120.45Z" fill="#8ED16F"/>
<path d="M428.842 138.614C430.269 138.458 431.173 136.016 430.861 133.159C430.548 130.303 429.137 128.113 427.71 128.269C426.282 128.425 425.378 130.868 425.691 133.724C426.004 136.581 427.414 138.77 428.842 138.614Z" fill="#8ED16F"/>
<path opacity="0.1" d="M428.842 138.614C430.269 138.458 431.173 136.016 430.861 133.159C430.548 130.303 429.137 128.113 427.71 128.269C426.282 128.425 425.378 130.868 425.691 133.724C426.004 136.581 427.414 138.77 428.842 138.614Z" fill="black"/>
<path d="M519.882 254.96L507.269 256.338L509.957 280.902L522.57 279.524L519.882 254.96Z" fill="#8ED16F"/>
<path d="M515.324 273.125C516.752 272.969 517.656 270.527 517.343 267.67C517.031 264.813 515.62 262.624 514.192 262.78C512.765 262.936 511.861 265.378 512.173 268.235C512.486 271.092 513.897 273.281 515.324 273.125Z" fill="#8ED16F"/>
<path opacity="0.1" d="M515.324 273.125C516.752 272.969 517.656 270.527 517.343 267.67C517.031 264.813 515.62 262.624 514.192 262.78C512.765 262.936 511.861 265.378 512.173 268.235C512.486 271.092 513.897 273.281 515.324 273.125Z" fill="black"/>
<path d="M384.016 172.631L377.977 183.781L399.726 195.542L405.765 184.391L384.016 172.631Z" fill="#8ED16F"/>
<path d="M396.371 186.711C397.054 185.449 395.558 183.317 393.028 181.949C390.499 180.581 387.895 180.496 387.211 181.758C386.528 183.02 388.024 185.152 390.553 186.519C393.083 187.887 395.687 187.973 396.371 186.711Z" fill="#8ED16F"/>
<path opacity="0.1" d="M396.371 186.711C397.054 185.449 395.558 183.317 393.028 181.949C390.499 180.581 387.895 180.496 387.211 181.758C386.528 183.02 388.024 185.152 390.553 186.519C393.083 187.887 395.687 187.973 396.371 186.711Z" fill="black"/>
<path d="M329.132 156.969L323.093 168.119L344.843 179.88L350.881 168.729L329.132 156.969Z" fill="#8ED16F"/>
<path d="M343.297 171.789C343.986 170.526 342.493 168.384 339.962 167.005C337.432 165.625 334.821 165.531 334.132 166.794C333.443 168.056 334.935 170.198 337.466 171.578C339.997 172.957 342.608 173.052 343.297 171.789Z" fill="#8ED16F"/>
<path opacity="0.1" d="M343.297 171.789C343.986 170.526 342.493 168.384 339.962 167.005C337.432 165.625 334.821 165.531 334.132 166.794C333.443 168.056 334.935 170.198 337.466 171.578C339.997 172.957 342.608 173.052 343.297 171.789Z" fill="black"/>
<path d="M311.554 420.678L305.516 431.828L327.265 443.589L333.304 432.438L311.554 420.678Z" fill="#8ED16F"/>
<path d="M323.912 434.752C324.596 433.49 323.099 431.358 320.57 429.99C318.041 428.622 315.436 428.537 314.753 429.799C314.069 431.061 315.566 433.193 318.095 434.56C320.624 435.928 323.229 436.014 323.912 434.752Z" fill="#8ED16F"/>
<path opacity="0.1" d="M323.912 434.752C324.596 433.49 323.099 431.358 320.57 429.99C318.041 428.622 315.436 428.537 314.753 429.799C314.069 431.061 315.566 433.193 318.095 434.56C320.624 435.928 323.229 436.014 323.912 434.752Z" fill="black"/>
<path d="M295.73 424.976L293.416 437.441L317.73 441.949L320.045 429.483L295.73 424.976Z" fill="#8ED16F"/>
<path opacity="0.05" d="M295.73 424.976L293.416 437.441L317.73 441.949L320.045 429.483L295.73 424.976Z" fill="black"/>
<path d="M311.826 434.569C312.088 433.158 310.008 431.59 307.18 431.065C304.352 430.541 301.848 431.26 301.586 432.671C301.324 434.082 303.404 435.651 306.231 436.175C309.059 436.699 311.564 435.98 311.826 434.569Z" fill="#8ED16F"/>
<path opacity="0.1" d="M311.826 434.569C312.088 433.158 310.008 431.59 307.18 431.065C304.352 430.541 301.848 431.26 301.586 432.671C301.324 434.082 303.404 435.651 306.231 436.175C309.059 436.699 311.564 435.98 311.826 434.569Z" fill="black"/>
<path d="M298.008 432.451L295.693 444.917L320.008 449.424L322.323 436.959L298.008 432.451Z" fill="#8ED16F"/>
<path d="M314.097 442.045C314.359 440.634 312.279 439.065 309.451 438.541C306.623 438.017 304.119 438.736 303.857 440.146C303.595 441.557 305.675 443.126 308.502 443.65C311.33 444.174 313.835 443.456 314.097 442.045Z" fill="#8ED16F"/>
<path opacity="0.1" d="M314.097 442.045C314.359 440.634 312.279 439.065 309.451 438.541C306.623 438.017 304.119 438.736 303.857 440.146C303.595 441.557 305.675 443.126 308.502 443.65C311.33 444.174 313.835 443.456 314.097 442.045Z" fill="black"/>
<path d="M337.209 452.725L331.17 463.876L352.919 475.637L358.958 464.486L337.209 452.725Z" fill="#8ED16F"/>
<path d="M349.574 466.8C350.257 465.538 348.761 463.406 346.232 462.038C343.702 460.67 341.098 460.585 340.414 461.847C339.731 463.109 341.227 465.241 343.757 466.608C346.286 467.976 348.89 468.062 349.574 466.8Z" fill="#8ED16F"/>
<path opacity="0.1" d="M349.574 466.8C350.257 465.538 348.761 463.406 346.232 462.038C343.702 460.67 341.098 460.585 340.414 461.847C339.731 463.109 341.227 465.241 343.757 466.608C346.286 467.976 348.89 468.062 349.574 466.8Z" fill="black"/>
<path d="M321.39 457.016L319.076 469.481L343.391 473.989L345.705 461.523L321.39 457.016Z" fill="#8ED16F"/>
<path opacity="0.05" d="M321.39 457.016L319.076 469.481L343.391 473.989L345.705 461.523L321.39 457.016Z" fill="black"/>
<path d="M337.478 466.609C337.74 465.198 335.66 463.63 332.833 463.105C330.005 462.581 327.5 463.3 327.238 464.711C326.977 466.122 329.056 467.691 331.884 468.215C334.712 468.739 337.216 468.02 337.478 466.609Z" fill="#8ED16F"/>
<path opacity="0.1" d="M337.478 466.609C337.74 465.198 335.66 463.63 332.833 463.105C330.005 462.581 327.5 463.3 327.238 464.711C326.977 466.122 329.056 467.691 331.884 468.215C334.712 468.739 337.216 468.02 337.478 466.609Z" fill="black"/>
<path d="M323.666 464.499L321.352 476.965L345.667 481.472L347.981 469.006L323.666 464.499Z" fill="#8ED16F"/>
<path d="M339.762 474.093C340.024 472.682 337.944 471.113 335.116 470.589C332.289 470.065 329.784 470.783 329.522 472.194C329.26 473.605 331.34 475.174 334.168 475.698C336.996 476.222 339.5 475.504 339.762 474.093Z" fill="#8ED16F"/>
<path opacity="0.1" d="M339.762 474.093C340.024 472.682 337.944 471.113 335.116 470.589C332.289 470.065 329.784 470.783 329.522 472.194C329.26 473.605 331.34 475.174 334.168 475.698C336.996 476.222 339.5 475.504 339.762 474.093Z" fill="black"/>
<path d="M375.701 432.072L369.662 443.223L391.411 454.983L397.45 443.833L375.701 432.072Z" fill="#8ED16F"/>
<path d="M388.053 446.143C388.737 444.881 387.241 442.749 384.711 441.382C382.182 440.014 379.577 439.928 378.894 441.19C378.21 442.452 379.707 444.584 382.236 445.952C384.765 447.32 387.37 447.405 388.053 446.143Z" fill="#8ED16F"/>
<path opacity="0.1" d="M388.053 446.143C388.737 444.881 387.241 442.749 384.711 441.382C382.182 440.014 379.577 439.928 378.894 441.19C378.21 442.452 379.707 444.584 382.236 445.952C384.765 447.32 387.37 447.405 388.053 446.143Z" fill="black"/>
<path d="M359.878 436.366L357.563 448.832L381.878 453.339L384.193 440.874L359.878 436.366Z" fill="#8ED16F"/>
<path opacity="0.05" d="M359.878 436.366L357.563 448.832L381.878 453.339L384.193 440.874L359.878 436.366Z" fill="black"/>
<path d="M375.967 445.959C376.229 444.548 374.149 442.979 371.321 442.455C368.493 441.931 365.989 442.65 365.727 444.061C365.465 445.471 367.545 447.04 370.372 447.564C373.2 448.089 375.705 447.37 375.967 445.959Z" fill="#8ED16F"/>
<path opacity="0.1" d="M375.967 445.959C376.229 444.548 374.149 442.979 371.321 442.455C368.493 441.931 365.989 442.65 365.727 444.061C365.465 445.471 367.545 447.04 370.372 447.564C373.2 448.089 375.705 447.37 375.967 445.959Z" fill="black"/>
<path d="M362.155 443.848L359.841 456.313L384.156 460.821L386.47 448.355L362.155 443.848Z" fill="#8ED16F"/>
<path d="M378.25 453.443C378.512 452.032 376.432 450.464 373.605 449.939C370.777 449.415 368.272 450.134 368.01 451.545C367.748 452.956 369.828 454.525 372.656 455.049C375.484 455.573 377.988 454.854 378.25 453.443Z" fill="#8ED16F"/>
<path opacity="0.1" d="M378.25 453.443C378.512 452.032 376.432 450.464 373.605 449.939C370.777 449.415 368.272 450.134 368.01 451.545C367.748 452.956 369.828 454.525 372.656 455.049C375.484 455.573 377.988 454.854 378.25 453.443Z" fill="black"/>
</g>
</g>
<defs>
<linearGradient id="paint0_linear" x1="314.292" y1="422.097" x2="314.292" y2="180.56" gradientUnits="userSpaceOnUse">
<stop stop-color="#808080" stop-opacity="0.25"/>
<stop offset="0.54" stop-color="#808080" stop-opacity="0.12"/>
<stop offset="1" stop-color="#808080" stop-opacity="0.1"/>
</linearGradient>
<linearGradient id="paint1_linear" x1="-437348" y1="284722" x2="-437348" y2="77306.5" gradientUnits="userSpaceOnUse">
<stop stop-color="#808080" stop-opacity="0.25"/>
<stop offset="0.54" stop-color="#808080" stop-opacity="0.12"/>
<stop offset="1" stop-color="#808080" stop-opacity="0.1"/>
</linearGradient>
<clipPath id="clip0">
<rect width="663" height="486" fill="white"/>
</clipPath>
</defs>
</svg>
