<svg width="623" height="468" viewBox="0 0 623 468" fill="none" xmlns="http://www.w3.org/2000/svg">
<g opacity="0.9">
<g clip-path="url(#clip0)">
<path opacity="0.6" d="M14.9755 468C14.9755 468 -30.29 406.625 36.5842 350.685C63.4526 328.203 167.982 312.376 80.1043 186.986C28.4271 113.276 103.482 5.87644 223.29 74.0702C325.248 132.105 396.16 8.52971 486.435 0.325511C555.101 -5.91201 596.399 78.7716 554.973 144.615C508.497 218.487 597.12 206.082 616.378 230.543C650.298 273.601 540.218 324.711 590.72 379.406C642.141 435.101 606.883 468.023 606.883 468.023H14.9755V468Z" fill="#297AFF" fill-opacity="0.2"/>
<g opacity="0.25">
<path opacity="0.25" d="M451.398 106.037V330.739C451.398 340.48 443.497 348.381 433.757 348.381H159.278C149.539 348.381 141.638 340.48 141.638 330.739V106.037C141.638 96.2739 149.539 88.3955 159.278 88.3955H433.746C443.485 88.3955 451.398 96.2739 451.398 106.037Z" fill="#2A507A"/>
<path opacity="0.25" d="M451.398 106.037V137.458H141.638V106.037C141.638 96.2739 149.539 88.3955 159.278 88.3955H433.746C443.485 88.3955 451.398 96.2739 451.398 106.037Z" fill="#2A507A"/>
<path opacity="0.25" d="M186.519 186.671H156.625C155.136 186.671 153.926 185.461 153.926 183.972V154.076C153.926 152.586 155.136 151.376 156.625 151.376H186.519C188.009 151.376 189.219 152.586 189.219 154.076V183.972C189.219 185.461 188.009 186.671 186.519 186.671Z" fill="#2A507A"/>
<path opacity="0.25" d="M236.812 186.671H206.918C205.428 186.671 204.218 185.461 204.218 183.972V154.076C204.218 152.586 205.428 151.376 206.918 151.376H236.812C238.301 151.376 239.511 152.586 239.511 154.076V183.972C239.511 185.461 238.301 186.671 236.812 186.671Z" fill="#2A507A"/>
<path opacity="0.25" d="M287.104 186.671H257.21C255.721 186.671 254.511 185.461 254.511 183.972V154.076C254.511 152.586 255.721 151.376 257.21 151.376H287.104C288.594 151.376 289.804 152.586 289.804 154.076V183.972C289.804 185.461 288.594 186.671 287.104 186.671Z" fill="#2A507A"/>
<path opacity="0.25" d="M337.396 186.671H307.502C306.013 186.671 304.803 185.461 304.803 183.972V154.076C304.803 152.586 306.013 151.376 307.502 151.376H337.396C338.886 151.376 340.096 152.586 340.096 154.076V183.972C340.107 185.461 338.897 186.671 337.396 186.671Z" fill="#2A507A"/>
<path opacity="0.25" d="M387.689 186.671H357.795C356.305 186.671 355.095 185.461 355.095 183.972V154.076C355.095 152.586 356.305 151.376 357.795 151.376H387.689C389.178 151.376 390.388 152.586 390.388 154.076V183.972C390.4 185.461 389.19 186.671 387.689 186.671Z" fill="#2A507A" stroke="#2A507A" stroke-width="1.3019" stroke-miterlimit="10"/>
<path opacity="0.25" d="M437.981 186.671H408.087C406.598 186.671 405.388 185.461 405.388 183.972V154.076C405.388 152.586 406.598 151.376 408.087 151.376H437.981C439.471 151.376 440.681 152.586 440.681 154.076V183.972C440.692 185.461 439.482 186.671 437.981 186.671Z" fill="#2A507A"/>
<path opacity="0.25" d="M186.519 234.035H156.625C155.136 234.035 153.926 232.825 153.926 231.335V201.439C153.926 199.95 155.136 198.739 156.625 198.739H186.519C188.009 198.739 189.219 199.95 189.219 201.439V231.335C189.219 232.825 188.009 234.035 186.519 234.035Z" fill="#2A507A"/>
<path opacity="0.25" d="M236.812 234.035H206.918C205.428 234.035 204.218 232.825 204.218 231.335V201.439C204.218 199.95 205.428 198.739 206.918 198.739H236.812C238.301 198.739 239.511 199.95 239.511 201.439V231.335C239.511 232.825 238.301 234.035 236.812 234.035Z" fill="#2A507A"/>
<path opacity="0.25" d="M287.104 234.035H257.21C255.721 234.035 254.511 232.825 254.511 231.335V201.439C254.511 199.95 255.721 198.739 257.21 198.739H287.104C288.594 198.739 289.804 199.95 289.804 201.439V231.335C289.804 232.825 288.594 234.035 287.104 234.035Z" stroke="#2A507A" stroke-width="1.3019" stroke-miterlimit="10"/>
<path opacity="0.25" d="M337.396 234.035H307.502C306.013 234.035 304.803 232.825 304.803 231.335V201.439C304.803 199.95 306.013 198.739 307.502 198.739H337.396C338.886 198.739 340.096 199.95 340.096 201.439V231.335C340.107 232.825 338.897 234.035 337.396 234.035Z" fill="#2A507A"/>
<path opacity="0.25" d="M387.689 234.035H357.795C356.305 234.035 355.095 232.825 355.095 231.335V201.439C355.095 199.95 356.305 198.739 357.795 198.739H387.689C389.178 198.739 390.388 199.95 390.388 201.439V231.335C390.4 232.825 389.19 234.035 387.689 234.035Z" fill="#2A507A"/>
<path opacity="0.25" d="M437.981 234.035H408.087C406.598 234.035 405.388 232.825 405.388 231.335V201.439C405.388 199.95 406.598 198.739 408.087 198.739H437.981C439.471 198.739 440.681 199.95 440.681 201.439V231.335C440.692 232.825 439.482 234.035 437.981 234.035Z" fill="#2A507A"/>
<path opacity="0.25" d="M186.519 281.398H156.625C155.136 281.398 153.926 280.188 153.926 278.698V248.802C153.926 247.313 155.136 246.103 156.625 246.103H186.519C188.009 246.103 189.219 247.313 189.219 248.802V278.698C189.219 280.188 188.009 281.398 186.519 281.398Z" fill="#2A507A"/>
<path opacity="0.25" d="M236.812 281.398H206.918C205.428 281.398 204.218 280.188 204.218 278.698V248.802C204.218 247.313 205.428 246.103 206.918 246.103H236.812C238.301 246.103 239.511 247.313 239.511 248.802V278.698C239.511 280.188 238.301 281.398 236.812 281.398Z" fill="#2A507A"/>
<path opacity="0.25" d="M287.104 281.398H257.21C255.721 281.398 254.511 280.188 254.511 278.698V248.802C254.511 247.313 255.721 246.103 257.21 246.103H287.104C288.594 246.103 289.804 247.313 289.804 248.802V278.698C289.804 280.188 288.594 281.398 287.104 281.398Z" fill="#2A507A"/>
<path opacity="0.25" d="M337.396 281.398H307.502C306.013 281.398 304.803 280.188 304.803 278.698V248.802C304.803 247.313 306.013 246.103 307.502 246.103H337.396C338.886 246.103 340.096 247.313 340.096 248.802V278.698C340.107 280.188 338.897 281.398 337.396 281.398Z" fill="#2A507A"/>
<path opacity="0.25" d="M387.689 281.398H357.795C356.305 281.398 355.095 280.188 355.095 278.698V248.802C355.095 247.313 356.305 246.103 357.795 246.103H387.689C389.178 246.103 390.388 247.313 390.388 248.802V278.698C390.4 280.188 389.19 281.398 387.689 281.398Z" fill="#2A507A"/>
<path opacity="0.25" d="M437.981 281.398H408.087C406.598 281.398 405.388 280.188 405.388 278.698V248.802C405.388 247.313 406.598 246.103 408.087 246.103H437.981C439.471 246.103 440.681 247.313 440.681 248.802V278.698C440.692 280.188 439.482 281.398 437.981 281.398Z" fill="#2A507A"/>
<path opacity="0.25" d="M186.519 328.773H156.625C155.136 328.773 153.926 327.562 153.926 326.073V296.177C153.926 294.687 155.136 293.477 156.625 293.477H186.519C188.009 293.477 189.219 294.687 189.219 296.177V326.073C189.219 327.562 188.009 328.773 186.519 328.773Z" stroke="#2A507A" stroke-width="1.3019" stroke-miterlimit="10"/>
<path opacity="0.25" d="M236.812 328.773H206.918C205.428 328.773 204.218 327.562 204.218 326.073V296.177C204.218 294.687 205.428 293.477 206.918 293.477H236.812C238.301 293.477 239.511 294.687 239.511 296.177V326.073C239.511 327.562 238.301 328.773 236.812 328.773Z" fill="#2A507A"/>
<path opacity="0.25" d="M287.104 328.773H257.21C255.721 328.773 254.511 327.562 254.511 326.073V296.177C254.511 294.687 255.721 293.477 257.21 293.477H287.104C288.594 293.477 289.804 294.687 289.804 296.177V326.073C289.804 327.562 288.594 328.773 287.104 328.773Z" fill="#2A507A"/>
<path opacity="0.25" d="M337.396 328.773H307.502C306.013 328.773 304.803 327.562 304.803 326.073V296.177C304.803 294.687 306.013 293.477 307.502 293.477H337.396C338.886 293.477 340.096 294.687 340.096 296.177V326.073C340.107 327.562 338.897 328.773 337.396 328.773Z" fill="#2A507A"/>
<path opacity="0.25" d="M387.689 328.773H357.795C356.305 328.773 355.095 327.562 355.095 326.073V296.177C355.095 294.687 356.305 293.477 357.795 293.477H387.689C389.178 293.477 390.388 294.687 390.388 296.177V326.073C390.4 327.562 389.19 328.773 387.689 328.773Z" fill="#2A507A"/>
<path opacity="0.25" d="M437.981 328.773H408.087C406.598 328.773 405.388 327.562 405.388 326.073V296.177C405.388 294.687 406.598 293.477 408.087 293.477H437.981C439.471 293.477 440.681 294.687 440.681 296.177V326.073C440.692 327.562 439.482 328.773 437.981 328.773Z" fill="#2A507A"/>
<path opacity="0.25" d="M166.703 115.754C166.703 119.304 163.828 122.178 160.279 122.178C156.73 122.178 153.856 119.304 153.856 115.754C153.856 112.205 156.73 109.331 160.279 109.331C163.828 109.331 166.703 112.217 166.703 115.754Z" fill="#2A507A"/>
<path opacity="0.25" d="M214.958 122.178C218.506 122.178 221.382 119.302 221.382 115.754C221.382 112.207 218.506 109.331 214.958 109.331C211.411 109.331 208.535 112.207 208.535 115.754C208.535 119.302 211.411 122.178 214.958 122.178Z" fill="#2A507A"/>
<path opacity="0.25" d="M269.615 122.178C273.162 122.178 276.038 119.302 276.038 115.754C276.038 112.207 273.162 109.331 269.615 109.331C266.067 109.331 263.191 112.207 263.191 115.754C263.191 119.302 266.067 122.178 269.615 122.178Z" fill="#2A507A"/>
<path opacity="0.25" d="M330.705 115.754C330.705 119.304 327.831 122.178 324.282 122.178C320.733 122.178 317.859 119.304 317.859 115.754C317.859 112.205 320.733 109.331 324.282 109.331C327.831 109.342 330.705 112.217 330.705 115.754Z" fill="#2A507A"/>
<path opacity="0.25" d="M385.373 115.754C385.373 119.304 382.499 122.178 378.95 122.178C375.401 122.178 372.527 119.304 372.527 115.754C372.527 112.205 375.401 109.331 378.95 109.331C382.499 109.342 385.373 112.217 385.373 115.754Z" fill="#2A507A"/>
<path opacity="0.25" d="M440.041 115.754C440.041 119.304 437.167 122.178 433.618 122.178C430.069 122.178 427.194 119.304 427.194 115.754C427.194 112.205 430.069 109.331 433.618 109.331C437.167 109.342 440.041 112.217 440.041 115.754Z" fill="#2A507A"/>
<path opacity="0.25" d="M160.291 115.754V85.6143" stroke="#2A507A" stroke-width="5.4139" stroke-miterlimit="10" stroke-linecap="round"/>
<path opacity="0.25" d="M214.958 115.754V85.6143" stroke="#2A507A" stroke-width="5.4139" stroke-miterlimit="10" stroke-linecap="round"/>
<path opacity="0.25" d="M269.615 115.754V85.6143" stroke="#2A507A" stroke-width="5.4139" stroke-miterlimit="10" stroke-linecap="round"/>
<path opacity="0.25" d="M378.95 115.754V85.6143" stroke="#2A507A" stroke-width="5.4139" stroke-miterlimit="10" stroke-linecap="round"/>
<path opacity="0.25" d="M433.618 115.754V85.6143" stroke="#2A507A" stroke-width="5.4139" stroke-miterlimit="10" stroke-linecap="round"/>
<path opacity="0.25" d="M261.562 217.789L270.08 224.911L282.345 207.863" stroke="#2A507A" stroke-width="3.9056" stroke-miterlimit="10" stroke-linecap="round" stroke-linejoin="round"/>
<path opacity="0.25" d="M186.519 328.773H156.625C155.136 328.773 153.926 327.562 153.926 326.073V296.177C153.926 294.687 155.136 293.477 156.625 293.477H186.519C188.009 293.477 189.219 294.687 189.219 296.177V326.073C189.219 327.562 188.009 328.773 186.519 328.773Z" fill="#2A507A"/>
</g>
<path d="M445.335 99.9745V324.676C445.335 334.417 437.434 342.318 427.694 342.318H153.227C143.488 342.318 135.586 334.417 135.586 324.676V99.9745C135.586 90.2109 143.488 82.3325 153.227 82.3325H427.694C437.434 82.3325 445.335 90.2225 445.335 99.9745Z" fill="white"/>
<path d="M445.336 99.9745V131.395H135.575V99.9745C135.575 90.2109 143.476 82.3325 153.216 82.3325H427.683C437.434 82.3325 445.336 90.2225 445.336 99.9745Z" fill="#E6505C"/>
<path d="M180.457 180.608H150.563C149.073 180.608 147.863 179.398 147.863 177.909V148.013C147.863 146.523 149.073 145.313 150.563 145.313H180.457C181.946 145.313 183.156 146.523 183.156 148.013V177.909C183.168 179.398 181.958 180.608 180.457 180.608Z" fill="#ACE2F9"/>
<path d="M230.749 180.608H200.855C199.366 180.608 198.156 179.398 198.156 177.909V148.013C198.156 146.523 199.366 145.313 200.855 145.313H230.749C232.239 145.313 233.449 146.523 233.449 148.013V177.909C233.461 179.398 232.25 180.608 230.749 180.608Z" fill="#ACE2F9"/>
<path d="M281.042 180.608H251.148C249.658 180.608 248.448 179.398 248.448 177.909V148.013C248.448 146.523 249.658 145.313 251.148 145.313H281.042C282.531 145.313 283.741 146.523 283.741 148.013V177.909C283.753 179.398 282.543 180.608 281.042 180.608Z" fill="#ACE2F9"/>
<path d="M331.334 180.608H301.44C299.951 180.608 298.741 179.398 298.741 177.909V148.013C298.741 146.523 299.951 145.313 301.44 145.313H331.334C332.824 145.313 334.034 146.523 334.034 148.013V177.909C334.045 179.398 332.835 180.608 331.334 180.608Z" fill="#ACE2F9"/>
<path d="M381.627 180.608H351.733C350.243 180.608 349.033 179.398 349.033 177.909V148.013C349.033 146.523 350.243 145.313 351.733 145.313H381.627C383.116 145.313 384.326 146.523 384.326 148.013V177.909C384.338 179.398 383.128 180.608 381.627 180.608Z" fill="#ACE2F9" stroke="#ACE2F9" stroke-width="1.3019" stroke-miterlimit="10"/>
<path d="M431.93 180.608H402.037C400.547 180.608 399.337 179.398 399.337 177.909V148.013C399.337 146.523 400.547 145.313 402.037 145.313H431.93C433.42 145.313 434.63 146.523 434.63 148.013V177.909C434.63 179.398 433.42 180.608 431.93 180.608Z" fill="#ACE2F9"/>
<path d="M180.457 227.972H150.563C149.073 227.972 147.863 226.762 147.863 225.272V195.376C147.863 193.887 149.073 192.676 150.563 192.676H180.457C181.946 192.676 183.156 193.887 183.156 195.376V225.272C183.168 226.762 181.958 227.972 180.457 227.972Z" fill="#ACE2F9"/>
<path d="M230.749 227.972H200.855C199.366 227.972 198.156 226.762 198.156 225.272V195.376C198.156 193.887 199.366 192.676 200.855 192.676H230.749C232.239 192.676 233.449 193.887 233.449 195.376V225.272C233.461 226.762 232.25 227.972 230.749 227.972Z" fill="#ACE2F9"/>
<path d="M281.042 227.972H251.148C249.658 227.972 248.448 226.762 248.448 225.272V195.376C248.448 193.887 249.658 192.676 251.148 192.676H281.042C282.531 192.676 283.741 193.887 283.741 195.376V225.272C283.753 226.762 282.543 227.972 281.042 227.972Z" stroke="#ACE2F9" stroke-width="1.3019" stroke-miterlimit="10"/>
<path d="M331.334 227.972H301.44C299.951 227.972 298.741 226.762 298.741 225.272V195.376C298.741 193.887 299.951 192.676 301.44 192.676H331.334C332.824 192.676 334.034 193.887 334.034 195.376V225.272C334.045 226.762 332.835 227.972 331.334 227.972Z" fill="#ACE2F9"/>
<path d="M381.627 227.972H351.733C350.243 227.972 349.033 226.762 349.033 225.272V195.376C349.033 193.887 350.243 192.676 351.733 192.676H381.627C383.116 192.676 384.326 193.887 384.326 195.376V225.272C384.338 226.762 383.128 227.972 381.627 227.972Z" fill="#ACE2F9"/>
<path d="M431.93 227.972H402.037C400.547 227.972 399.337 226.762 399.337 225.272V195.376C399.337 193.887 400.547 192.676 402.037 192.676H431.93C433.42 192.676 434.63 193.887 434.63 195.376V225.272C434.63 226.762 433.42 227.972 431.93 227.972Z" fill="#ACE2F9"/>
<path d="M180.457 275.347H150.563C149.073 275.347 147.863 274.137 147.863 272.647V242.751C147.863 241.262 149.073 240.051 150.563 240.051H180.457C181.946 240.051 183.156 241.262 183.156 242.751V272.647C183.168 274.137 181.958 275.347 180.457 275.347Z" fill="#ACE2F9"/>
<path d="M230.749 275.347H200.855C199.366 275.347 198.156 274.137 198.156 272.647V242.751C198.156 241.262 199.366 240.051 200.855 240.051H230.749C232.239 240.051 233.449 241.262 233.449 242.751V272.647C233.461 274.137 232.25 275.347 230.749 275.347Z" fill="#ACE2F9"/>
<path d="M281.042 275.347H251.148C249.658 275.347 248.448 274.137 248.448 272.647V242.751C248.448 241.262 249.658 240.051 251.148 240.051H281.042C282.531 240.051 283.741 241.262 283.741 242.751V272.647C283.753 274.137 282.543 275.347 281.042 275.347Z" fill="#ACE2F9"/>
<path d="M331.334 275.347H301.44C299.951 275.347 298.741 274.137 298.741 272.647V242.751C298.741 241.262 299.951 240.051 301.44 240.051H331.334C332.824 240.051 334.034 241.262 334.034 242.751V272.647C334.045 274.137 332.835 275.347 331.334 275.347Z" fill="#ACE2F9"/>
<path d="M381.627 275.347H351.733C350.243 275.347 349.033 274.137 349.033 272.647V242.751C349.033 241.262 350.243 240.051 351.733 240.051H381.627C383.116 240.051 384.326 241.262 384.326 242.751V272.647C384.338 274.137 383.128 275.347 381.627 275.347Z" fill="#ACE2F9"/>
<path d="M431.93 275.347H402.037C400.547 275.347 399.337 274.137 399.337 272.647V242.751C399.337 241.262 400.547 240.051 402.037 240.051H431.93C433.42 240.051 434.63 241.262 434.63 242.751V272.647C434.63 274.137 433.42 275.347 431.93 275.347Z" fill="#ACE2F9"/>
<path d="M180.457 322.71H150.563C149.073 322.71 147.863 321.499 147.863 320.01V290.114C147.863 288.624 149.073 287.414 150.563 287.414H180.457C181.946 287.414 183.156 288.624 183.156 290.114V320.01C183.168 321.499 181.958 322.71 180.457 322.71Z" stroke="#ACE2F9" stroke-width="1.3019" stroke-miterlimit="10"/>
<path d="M230.749 322.71H200.855C199.366 322.71 198.156 321.499 198.156 320.01V290.114C198.156 288.624 199.366 287.414 200.855 287.414H230.749C232.239 287.414 233.449 288.624 233.449 290.114V320.01C233.461 321.499 232.25 322.71 230.749 322.71Z" fill="#ACE2F9"/>
<path d="M281.042 322.71H251.148C249.658 322.71 248.448 321.499 248.448 320.01V290.114C248.448 288.624 249.658 287.414 251.148 287.414H281.042C282.531 287.414 283.741 288.624 283.741 290.114V320.01C283.753 321.499 282.543 322.71 281.042 322.71Z" fill="#ACE2F9"/>
<path d="M331.334 322.71H301.44C299.951 322.71 298.741 321.499 298.741 320.01V290.114C298.741 288.624 299.951 287.414 301.44 287.414H331.334C332.824 287.414 334.034 288.624 334.034 290.114V320.01C334.045 321.499 332.835 322.71 331.334 322.71Z" fill="#ACE2F9"/>
<path d="M381.627 322.71H351.733C350.243 322.71 349.033 321.499 349.033 320.01V290.114C349.033 288.624 350.243 287.414 351.733 287.414H381.627C383.116 287.414 384.326 288.624 384.326 290.114V320.01C384.338 321.499 383.128 322.71 381.627 322.71Z" fill="#ACE2F9"/>
<path d="M431.93 322.71H402.037C400.547 322.71 399.337 321.499 399.337 320.01V290.114C399.337 288.624 400.547 287.414 402.037 287.414H431.93C433.42 287.414 434.63 288.624 434.63 290.114V320.01C434.63 321.499 433.42 322.71 431.93 322.71Z" fill="#ACE2F9"/>
<path d="M160.652 109.703C160.652 113.252 157.778 116.127 154.228 116.127C150.679 116.127 147.805 113.252 147.805 109.703C147.805 106.154 150.679 103.279 154.228 103.279C157.778 103.279 160.652 106.154 160.652 109.703Z" fill="#BDE7FF"/>
<path d="M208.896 116.127C212.443 116.127 215.319 113.251 215.319 109.703C215.319 106.155 212.443 103.279 208.896 103.279C205.348 103.279 202.473 106.155 202.473 109.703C202.473 113.251 205.348 116.127 208.896 116.127Z" fill="#BDE7FF"/>
<path d="M263.564 116.127C267.111 116.127 269.987 113.251 269.987 109.703C269.987 106.155 267.111 103.279 263.564 103.279C260.016 103.279 257.141 106.155 257.141 109.703C257.141 113.251 260.016 116.127 263.564 116.127Z" fill="#BDE7FF"/>
<path d="M324.643 109.703C324.643 113.252 321.769 116.127 318.22 116.127C314.671 116.127 311.797 113.252 311.797 109.703C311.797 106.154 314.671 103.279 318.22 103.279C321.769 103.279 324.643 106.154 324.643 109.703Z" fill="#BDE7FF"/>
<path d="M379.311 109.703C379.311 113.252 376.437 116.127 372.888 116.127C369.339 116.127 366.464 113.252 366.464 109.703C366.464 106.154 369.339 103.279 372.888 103.279C376.437 103.279 379.311 106.154 379.311 109.703Z" fill="#BDE7FF"/>
<path d="M433.978 109.703C433.978 113.252 431.104 116.127 427.555 116.127C424.006 116.127 421.132 113.252 421.132 109.703C421.132 106.154 424.006 103.279 427.555 103.279C431.104 103.279 433.978 106.154 433.978 109.703Z" fill="#BDE7FF"/>
<path d="M154.229 109.703V79.563" stroke="#192469" stroke-width="5.4139" stroke-miterlimit="10" stroke-linecap="round"/>
<path d="M208.896 109.703V79.563" stroke="#192469" stroke-width="5.4139" stroke-miterlimit="10" stroke-linecap="round"/>
<path d="M263.563 109.703V79.563" stroke="#192469" stroke-width="5.4139" stroke-miterlimit="10" stroke-linecap="round"/>
<path d="M372.888 109.703V79.563" stroke="#192469" stroke-width="5.4139" stroke-miterlimit="10" stroke-linecap="round"/>
<path d="M427.555 109.703V79.563" stroke="#192469" stroke-width="5.4139" stroke-miterlimit="10" stroke-linecap="round"/>
<path d="M255.5 211.726L264.017 218.848L276.282 201.8" stroke="#E6505C" stroke-width="3.9056" stroke-miterlimit="10" stroke-linecap="round" stroke-linejoin="round"/>
<path d="M180.457 322.71H150.563C149.073 322.71 147.863 321.499 147.863 320.01V290.114C147.863 288.624 149.073 287.414 150.563 287.414H180.457C181.946 287.414 183.156 288.624 183.156 290.114V320.01C183.168 321.499 181.958 322.71 180.457 322.71Z" fill="#ACE2F9"/>
<g opacity="0.25">
<path opacity="0.25" d="M554.849 417.348C609.466 362.727 609.466 274.169 554.849 219.548C500.232 164.927 411.68 164.927 357.062 219.548C302.445 274.169 302.445 362.727 357.062 417.348C411.68 471.969 500.232 471.969 554.849 417.348Z" fill="#2A507A"/>
<path opacity="0.7" d="M545.049 407.547C594.254 358.339 594.254 278.556 545.049 229.348C495.844 180.14 416.067 180.14 366.862 229.348C317.657 278.556 317.657 358.339 366.862 407.547C416.067 456.756 495.844 456.756 545.049 407.547Z" fill="#2A507A"/>
<path opacity="0.25" d="M455.959 440.047C523.111 440.047 577.548 385.607 577.548 318.451C577.548 251.295 523.111 196.854 455.959 196.854C388.808 196.854 334.371 251.295 334.371 318.451C334.371 385.607 388.808 440.047 455.959 440.047Z" fill="#2A507A"/>
<path opacity="0.25" d="M569.984 318.451H558.01" stroke="#2A507A" stroke-width="5.4139" stroke-miterlimit="10" stroke-linecap="round"/>
<path opacity="0.25" d="M455.959 432.483V420.509" stroke="#2A507A" stroke-width="5.4139" stroke-miterlimit="10" stroke-linecap="round"/>
<path opacity="0.25" d="M341.935 318.451H353.897" stroke="#2A507A" stroke-width="5.4139" stroke-miterlimit="10" stroke-linecap="round"/>
<path opacity="0.25" d="M455.959 204.418V216.381" stroke="#2A507A" stroke-width="5.4139" stroke-miterlimit="10" stroke-linecap="round"/>
<path opacity="0.25" d="M554.705 375.473L544.337 369.479" stroke="#2A507A" stroke-width="3.2483" stroke-miterlimit="10" stroke-linecap="round"/>
<path opacity="0.25" d="M398.941 417.204L404.922 406.835" stroke="#2A507A" stroke-width="3.2483" stroke-miterlimit="10" stroke-linecap="round"/>
<path opacity="0.25" d="M357.213 261.429L367.569 267.41" stroke="#2A507A" stroke-width="3.2483" stroke-miterlimit="10" stroke-linecap="round"/>
<path opacity="0.25" d="M512.978 219.698L506.985 230.055" stroke="#2A507A" stroke-width="3.2483" stroke-miterlimit="10" stroke-linecap="round"/>
<path opacity="0.25" d="M512.954 417.215L506.973 406.847" stroke="#2A507A" stroke-width="3.2483" stroke-miterlimit="10" stroke-linecap="round"/>
<path opacity="0.25" d="M357.189 375.449L367.557 369.468" stroke="#2A507A" stroke-width="3.2483" stroke-miterlimit="10" stroke-linecap="round"/>
<path opacity="0.25" d="M398.964 219.674L404.945 230.043" stroke="#2A507A" stroke-width="3.2483" stroke-miterlimit="10" stroke-linecap="round"/>
<path opacity="0.25" d="M554.717 261.452L544.349 267.433" stroke="#2A507A" stroke-width="3.2483" stroke-miterlimit="10" stroke-linecap="round"/>
<path opacity="0.25" d="M485.632 362.939C484.468 362.939 483.316 362.404 482.572 361.38L451.712 319.032L482.083 236.758C482.804 234.803 484.98 233.802 486.935 234.523C488.89 235.245 489.891 237.421 489.169 239.376L460.206 317.857L488.681 356.923C489.914 358.61 489.542 360.973 487.854 362.206C487.18 362.695 486.4 362.939 485.632 362.939Z" fill="#2A507A"/>
<path opacity="0.25" d="M455.959 327.9C461.177 327.9 465.408 323.669 465.408 318.45C465.408 313.232 461.177 309.001 455.959 309.001C450.741 309.001 446.51 313.232 446.51 318.45C446.51 323.669 450.741 327.9 455.959 327.9Z" fill="#2A507A"/>
</g>
<path d="M548.785 411.288C603.403 356.667 603.403 268.109 548.785 213.488C494.168 158.867 405.616 158.867 350.999 213.488C296.382 268.109 296.382 356.667 350.999 411.288C405.616 465.909 494.168 465.909 548.785 411.288Z" fill="#E6505C"/>
<path opacity="0.7" d="M538.986 401.487C588.191 352.279 588.191 272.496 538.986 223.288C489.781 174.08 410.003 174.08 360.798 223.288C311.593 272.496 311.593 352.279 360.798 401.487C410.003 450.696 489.781 450.696 538.986 401.487Z" fill="#ACE2F9"/>
<path d="M449.897 433.984C517.049 433.984 571.486 379.544 571.486 312.388C571.486 245.232 517.049 190.791 449.897 190.791C382.746 190.791 328.309 245.232 328.309 312.388C328.309 379.544 382.746 433.984 449.897 433.984Z" fill="white"/>
<path d="M563.922 312.388H551.948" stroke="#192469" stroke-width="5.4139" stroke-miterlimit="10" stroke-linecap="round"/>
<path d="M449.897 426.42V414.445" stroke="#192469" stroke-width="5.4139" stroke-miterlimit="10" stroke-linecap="round"/>
<path d="M335.872 312.388H347.834" stroke="#192469" stroke-width="5.4139" stroke-miterlimit="10" stroke-linecap="round"/>
<path d="M449.897 198.355V210.318" stroke="#192469" stroke-width="5.4139" stroke-miterlimit="10" stroke-linecap="round"/>
<g opacity="0.3">
<g opacity="0.3">
<g opacity="0.3">
<path opacity="0.3" d="M548.643 369.41L538.275 363.417" stroke="#101747" stroke-width="3.2483" stroke-miterlimit="10" stroke-linecap="round"/>
</g>
<g opacity="0.3">
<path opacity="0.3" d="M392.879 411.141L398.86 400.772" stroke="#101747" stroke-width="3.2483" stroke-miterlimit="10" stroke-linecap="round"/>
</g>
<g opacity="0.3">
<path opacity="0.3" d="M351.151 255.366L361.519 261.347" stroke="#101747" stroke-width="3.2483" stroke-miterlimit="10" stroke-linecap="round"/>
</g>
<g opacity="0.3">
<path opacity="0.3" d="M506.916 213.635L500.923 224.003" stroke="#101747" stroke-width="3.2483" stroke-miterlimit="10" stroke-linecap="round"/>
</g>
<g opacity="0.3">
<path opacity="0.3" d="M506.892 411.152L500.911 400.784" stroke="#101747" stroke-width="3.2483" stroke-miterlimit="10" stroke-linecap="round"/>
</g>
<g opacity="0.3">
<path opacity="0.3" d="M351.139 369.386L361.507 363.405" stroke="#101747" stroke-width="3.2483" stroke-miterlimit="10" stroke-linecap="round"/>
</g>
<g opacity="0.3">
<path opacity="0.3" d="M392.902 213.623L398.883 223.992" stroke="#101747" stroke-width="3.2483" stroke-miterlimit="10" stroke-linecap="round"/>
</g>
<g opacity="0.3">
<path opacity="0.3" d="M548.655 255.389L538.287 261.37" stroke="#101747" stroke-width="3.2483" stroke-miterlimit="10" stroke-linecap="round"/>
</g>
</g>
</g>
<path d="M479.569 356.876C478.406 356.876 477.254 356.341 476.509 355.317L445.649 312.969L476.02 230.695C476.742 228.74 478.918 227.739 480.873 228.46C482.828 229.182 483.828 231.358 483.107 233.313L454.144 311.794L482.618 350.86C483.852 352.547 483.479 354.91 481.792 356.143C481.117 356.644 480.337 356.876 479.569 356.876Z" fill="#E6505C"/>
<path d="M449.897 321.837C455.115 321.837 459.346 317.607 459.346 312.388C459.346 307.169 455.115 302.938 449.897 302.938C444.679 302.938 440.448 307.169 440.448 312.388C440.448 317.607 444.679 321.837 449.897 321.837Z" fill="#192469"/>
<path d="M561.782 453.094L565.18 458.994L569.532 458.156L566.541 451.244" fill="#FDAEB3"/>
<path d="M569.852 455.572C568.721 453.963 568.39 456.25 566.44 456.506C566.295 456.525 566.153 456.5 566.01 456.467C565.544 456.36 564.444 456.125 564.035 456.21C563.51 456.318 562.617 457.615 562.249 457.985C561.864 458.356 559.973 459.53 558.782 460.024C557.872 460.394 554.405 461.46 553.774 462.649C552.729 464.616 554.928 465.816 557.15 465.969C557.286 465.978 557.423 465.985 557.561 465.991C559.732 466.075 561.636 464.884 563.272 463.456C563.612 463.159 564.015 462.839 564.5 462.5C566.461 460.95 567.198 460.594 569.592 459.628C570.824 459.131 571.276 457.616 570.518 456.525C570.302 456.215 570.08 455.896 569.852 455.572Z" fill="#918EA8"/>
<path d="M531.714 396.12C515.807 385.775 517.77 401.231 517.77 401.231L556 456.5C556 456.5 565.491 454.933 567 452.192C567 452.181 549.673 407.903 531.714 396.12Z" fill="#464878"/>
<path d="M536.961 350C536.961 350 538.824 353.954 538.347 359.02C537.926 363.58 536.894 367.444 536.517 371.611C536.14 375.767 531.37 400.546 531.37 400.546C531.37 400.546 518.48 404.511 517.548 400.624C515.662 392.773 513 350.27 513 350.27C513 350.27 525.402 352.909 536.961 350Z" fill="#464878"/>
<path d="M503.355 393.708C502.191 371.283 489.251 389.158 489.251 389.158L472.192 457.538C472.192 457.538 482.672 455.953 486 456C486.011 456 505.5 416 503.355 393.708Z" fill="#575A89"/>
<path d="M542.755 348.731C542.755 348.731 546.77 359.53 533.365 371.935C529.886 375.159 526.709 376.38 522.438 380.349C519.262 383.293 499.782 402.587 499.782 402.587C499.782 402.587 487.739 393.022 489.251 389.17C492.312 381.373 513.92 342.342 513.92 342.342C513.92 342.342 531.107 344.239 542.755 348.731Z" fill="#575A89"/>
<path d="M472.5 455.5L471.39 461.832L475.811 462.042L480 456" fill="#FDAEB3"/>
<path d="M547.294 274.625C541.743 277.348 532.434 274.997 532.434 274.997L535.553 265.059L536.891 260.812C536.891 260.812 537.845 259.997 539.253 258.868C543.582 255.377 552.216 249 549.97 255.226C546.98 263.442 547.294 274.625 547.294 274.625Z" fill="#FDAEB3"/>
<path d="M542.139 260.172C542.139 260.172 539.742 263.465 535.553 265.048L536.891 260.8C536.891 260.8 537.845 259.986 539.253 258.857L539.719 258.775L542.139 260.172Z" fill="#E58099"/>
<path d="M530.246 241.634C530.246 241.634 526.639 259.695 529.49 262.72C532.352 265.746 545.699 260.183 545.699 260.183C545.699 260.183 556.137 250.42 555.404 241.61C554.776 234.174 539.16 227.948 532.446 235.641C531.2 237.049 530.77 239.19 530.246 241.634Z" fill="#FDAEB3"/>
<path d="M528.815 229.496C528.815 229.496 525.871 238.783 532.83 242.146C537.449 244.368 542.721 244.869 542.721 247.15C542.709 249.431 543.698 247.778 544.711 247.359C546.875 246.463 547.945 249.454 546.607 252.258C545.595 254.4 545.711 257.751 548.958 258.566C548.958 258.566 552.612 253.783 554.45 250.501C555.905 247.906 559.663 238.783 553.577 236.793C553.182 234.756 551.297 232.72 549.156 231.742C543.326 229.066 537.857 229.869 533.668 230.043C531.759 230.125 529.665 226.11 528.815 229.496Z" fill="#1D2468"/>
<path d="M517.295 290.626C515.119 289.754 511.966 288.311 508.649 286.739C506.054 285.506 503.366 284.179 500.981 282.992C496.547 280.805 493.103 279.047 493.103 279.047C493.103 279.047 495.977 270.203 497.827 269.819C498.921 269.598 507.183 271.111 513.688 272.368C515.073 272.635 516.387 272.891 517.528 273.136C520.041 273.613 521.728 273.962 521.728 273.962L517.295 290.626Z" fill="#FDAEB3"/>
<path d="M493.103 279.036C488.949 276.941 487.227 274.229 482.724 265.63C481.106 262.534 477.499 255.319 476.091 252.328L477.627 248.174C478.476 248.698 490.287 260.114 491.835 261.917C494.302 264.792 497.839 269.819 497.839 269.819C499.608 272.914 497.257 281.142 493.103 279.036Z" fill="#FDAEB3"/>
<path d="M532.527 275.94C525.743 273.682 510.464 270.948 510.464 270.948C510.464 270.948 506.287 280.339 506.124 287.193C511.058 290.3 523.427 294.082 523.427 294.082" fill="#FCAE24"/>
<path d="M550.552 317.368C550.366 317.764 550.168 318.171 549.982 318.567C548.993 320.522 548.039 322.489 547.189 324.479C540.347 340.305 542.756 348.754 542.756 348.754C531.515 350.22 512.71 344.588 512.71 344.588C512.71 344.588 512.757 342.982 512.722 341.725C512.606 336.151 512.385 319.731 513.874 306.01C514.014 304.847 514.142 303.706 514.316 302.601C515.061 297.062 516.155 292.209 517.714 289.055C524.102 276.115 532.422 274.997 532.422 274.997C540.161 275.917 547.282 274.637 547.282 274.637C560.711 282.317 557.196 303.427 550.552 317.368Z" fill="#FECB22"/>
<path d="M492.556 300.203C492.556 300.203 491.986 290.917 493.568 289.893C494.511 289.276 502.75 287.659 509.254 286.46C510.651 286.192 511.966 285.96 513.118 285.762C515.619 285.285 517.318 284.994 517.318 284.994L519.296 302.135C511.721 302.089 492.556 300.203 492.556 300.203Z" fill="#FDAEB3"/>
<path d="M493.58 289.882C493.58 289.882 489.24 286.146 485.889 284.366C483.794 283.26 476.109 279.014 470.5 276.5C467.126 274.987 465.5 273 465.5 273L462.651 277.22C462.651 277.22 470.68 285.145 477.999 291.511C485.319 297.876 487.925 299.762 492.556 300.204C497.188 300.634 496.361 292.128 493.58 289.882Z" fill="#FDAEB3"/>
<path d="M538.392 302.135C529.944 306.953 516.795 306.232 513.886 305.999C514.025 304.835 514.153 303.695 514.328 302.589L538.392 302.135Z" fill="#FCAE24"/>
<path d="M540.568 301.344C530.06 305.673 513.35 303.369 513.35 303.369C511.011 295.2 511.535 285.774 511.535 285.774C515.899 284.319 529.083 282.201 529.083 282.201C529.083 282.201 542.476 280.514 544.443 289.591C546.479 298.947 540.568 301.344 540.568 301.344Z" fill="#FECB22"/>
<path d="M465.261 279.774C465.261 279.774 463.441 277.921 461.265 277.958C460.88 277.964 460.436 278.201 459.964 278.579C456.204 281.59 453.226 281.592 453.791 276.807C453.945 275.502 454.218 274.198 454.597 273.062C455.753 269.598 460.726 269.852 464.192 271.005C465.13 271.335 464.961 273.114 468 274.986" fill="#FDAEB3"/>
<path d="M465.561 273.133C465.561 273.133 465.674 271.812 464.642 269.757C464.379 269.225 463.704 267.28 463.366 267.28C463.028 267.28 462.578 267.702 462.447 268.198C462.315 268.693 462.503 270.546 462.503 270.546" fill="#FDAEB3"/>
<path d="M532.422 274.998L534.168 272.717C534.168 272.717 541.08 274.265 547.282 272.868V274.625L541.766 275.777C541.778 275.766 537.286 276.778 532.422 274.998Z" fill="#FCAE24"/>
<path d="M478.983 461.866C478.862 460.039 476.804 459.465 474.979 459.611C474.705 459.633 474.422 459.644 474.133 459.641C473.319 459.633 472.821 459.274 472.3 458.648C471.869 458.131 470.925 458.295 470.4 458.717C467.063 461.406 462.184 460.901 459 460.353C456.625 459.944 454.902 463.555 456.852 464.971C457.483 465.429 459.134 465.793 459.913 465.823C463.642 465.962 474.968 466 477.82 466C478.229 466 478.574 465.692 478.656 465.24C478.798 464.486 479.072 463.218 478.983 461.866Z" fill="#9E9BB8"/>
<path d="M469.006 250C469.006 250 468.802 242.525 470.755 240.523C472.73 238.521 476.477 238.317 476.976 240.972C477.476 243.627 469.892 247.835 469.892 247.835L469.006 250Z" fill="#FDAEB3"/>
<path d="M177.81 404.495C176.301 414.333 170.173 452.329 170.173 452.329H162.953C162.953 452.329 161.635 421.088 162.953 413.645C164.282 406.183 165.183 403.856 164.789 400.567C164.744 400.194 162.773 392.664 161.151 386.459C160.914 385.575 160.689 384.731 160.486 383.935C159.642 380.725 159 378.329 159 378.329H177.844C177.844 378.319 178.216 401.883 177.81 404.495Z" fill="#FDAEB3"/>
<path d="M176.535 384.206C171.02 386.58 161.187 387.826 160.733 387.884C160.489 386.836 160.256 385.836 160.046 384.893L160.07 384.683L164.794 382.705C164.794 382.705 182.19 381.763 176.535 384.206Z" fill="#E58099"/>
<path d="M170.065 451.969C170.065 451.969 169.926 453.144 170.426 454.017C170.927 454.901 172.416 458.835 175.511 461.36L175.895 462.396L173.103 462.628C173.103 462.628 169.088 460.22 168.82 459.754C168.553 459.3 167.517 457.287 167.214 456.659C166.912 456.042 164.5 456.364 164.5 455.829C161.891 456.804 163 451.969 163 451.969C163 451.969 166.679 450.642 166.947 450.561C167.215 450.479 168.401 450.375 168.401 450.375L170.065 451.969Z" fill="#FDAEB3"/>
<path d="M162.21 448.329C162.21 448.329 159.694 451.811 160.03 455.064C160.22 456.9 160.088 460.232 160.043 463.05C160.033 463.682 160.543 464.198 161.175 464.202C161.665 464.206 162.102 463.899 162.265 463.437L163.229 460.71C163.229 460.71 166.862 463.891 168.189 464.194C169.517 464.497 177.218 464.194 177.492 464.194C177.781 464.194 181.952 463.299 175.025 460.71C175.025 460.71 175.068 462.018 172.326 460.669C169.57 459.305 167.015 456.592 165.255 454.375C164.317 453.218 162.628 450.712 162.21 448.329Z" fill="#E16567"/>
<path d="M161.873 376.77C161.873 376.77 161.873 378.388 161.699 381.025C161.64 381.78 161.594 382.623 161.501 383.525C160.989 389.025 159.802 397.093 157.009 404.75C153.553 414.23 137 450.535 137 450.535L130.5 447.165C130.5 447.165 137.192 419.946 139.764 412.73C142.324 405.515 146.432 402.701 146.56 399.407C146.63 397.534 145.629 390.858 144.744 385.456C144.454 383.642 144.186 381.976 143.965 380.682C143.686 379.064 143.511 378.025 143.511 378.025L161.873 376.77Z" fill="#FDAEB3"/>
<path d="M137.406 449.057C137.406 449.057 137.015 450.245 137.496 451.227C137.977 452.209 139.18 456.487 142.699 459.529L143 460.644L139.39 460.487C139.39 460.487 134.684 457.42 134.413 456.911C134.157 456.402 133.18 454.172 132.909 453.493C132.624 452.815 131.165 451.445 131.255 450.887C131.345 450.33 130 447.179 130 447.179C130 447.179 133.285 447.215 133.646 447.179C134.007 447.142 135.541 447.191 135.541 447.191L137.406 449.057Z" fill="#FDAEB3"/>
<path d="M130.527 445.48C130.527 445.48 127.338 448.267 127.184 451.44C127.104 453.134 127.383 456.268 127.147 458.872C127.092 459.474 127.552 460.02 128.157 460.02C128.635 460.02 129.042 459.673 129.119 459.202L129.647 455.965C129.647 455.965 132.925 461.034 134.281 461.484C138.914 463.02 143.945 461.985 144.253 462.023C144.561 462.062 149.106 461.741 142.174 458.504C142.174 458.504 142.02 459.724 139.324 458.131C136.628 456.539 134.332 453.713 132.823 451.452C132.006 450.258 130.62 447.741 130.527 445.48Z" fill="#E16567"/>
<path d="M162.653 383.996C162.292 384.287 161.908 384.543 161.501 384.776C156.369 387.779 147.456 387.29 144.744 387.069C144.454 384.916 144.186 382.937 143.965 381.401C149.62 381.11 158.126 380.889 161.687 381.809C163.363 382.251 163.956 382.937 162.653 383.996Z" fill="#E58099"/>
<path d="M197.5 274C197.5 274 200.076 282.02 198.179 283.452C196.736 284.534 184.075 284.15 178.141 283.905C176.279 283.824 175.081 283.766 175.081 283.766L175.79 277.901L176.454 272.443L197.5 274Z" fill="#FDAEB3"/>
<path d="M195.558 273.286C195.558 273.286 198.359 268.512 201.614 266.248C204.87 263.983 218.584 251.736 218.584 251.736L221.62 255.899C221.62 255.899 212.081 275.493 198.472 283.545L195.558 273.286Z" fill="#FDAEB3"/>
<path d="M217.443 252.479C217.443 252.479 218.485 250.695 218.63 249.124C218.775 247.554 219.23 245.282 220.851 243.968C222.455 242.66 223.548 241.196 224.142 241.238C224.729 241.262 225.003 242.557 224.123 243.397C223.261 244.231 222.174 245.946 222.381 246.295C222.587 246.643 226.029 242.594 226.435 242.281C226.841 241.968 231.031 238.222 231.732 238.1C232.433 237.978 232.488 239.646 230.35 241.545C228.725 242.966 228.031 244.33 228.344 244.746C228.664 245.181 230.974 246.155 230.341 249.439C229.69 252.729 228.507 254.521 226.518 255.501C224.53 256.482 222.315 256.825 220.928 257.866" fill="#FDAEB3"/>
<path d="M182.156 273.025C182.156 273.025 182.156 281.101 181.097 284.382C181.097 284.382 178.083 284.615 173.859 284.289C172.37 284.185 170.729 284.01 169.018 283.731C168.285 283.603 167.54 283.463 166.772 283.312V269.976C166.784 269.976 175.546 270.755 182.156 273.025Z" fill="#FECB22"/>
<path d="M173.87 284.29C172.381 284.185 170.74 284.01 169.03 283.731L168.657 283.172L169.611 279.076C169.6 279.076 171.857 281.916 173.87 284.29Z" fill="#FCAE24"/>
<path d="M173.94 326.928C173.94 326.928 163.375 333.887 142.406 327.533C142.406 327.533 145.815 315.488 144.663 307.598C144.349 305.422 143.151 302.094 141.58 298.394C140.614 296.136 139.532 293.774 138.403 291.434C136.471 287.408 134.481 283.544 133.015 280.775C131.77 278.389 132.864 275.468 135.366 274.479C141.044 272.21 151.866 269.045 166.772 269.964C167.68 272.047 169.274 279.064 170.182 280.391C174.673 286.989 174.115 287.699 173.172 292.633C171.834 299.569 170.508 316.466 173.94 326.928Z" fill="#FECB22"/>
<path d="M143.116 287.001C143.116 287.001 142.557 293.599 141.591 298.405C140.625 296.148 139.543 293.785 138.415 291.446L143.116 287.001Z" fill="#FCAE24"/>
<path d="M143.709 325.892C143.709 325.892 139.985 329.034 138.705 339.81C137.425 350.586 143.709 383.938 143.709 383.938C143.709 383.938 153.332 388.558 178.467 383.938C178.467 383.938 178.979 343.278 173.335 324.74L143.709 325.892Z" fill="#434175"/>
<path d="M146.862 267.509C146.862 267.509 144.558 271.628 142.987 272.047C142.987 272.047 150.295 274.945 154.996 274.549C159.697 274.154 162.071 269.825 162.071 269.825C162.071 269.825 158.243 269.429 157.719 265.065" fill="#FDAEB3"/>
<path d="M158.231 258.792C158.231 258.792 158.138 259.851 158.045 260.899C157.952 261.807 157.87 262.691 157.859 262.889C157.649 265.1 157.731 266.857 157.417 269.813L146.874 267.509C146.874 267.509 148.747 265.507 147.491 255.383L158.045 258.734L158.231 258.792Z" fill="#FDAEB3"/>
<path d="M158.231 258.792C158.231 258.792 158.138 259.851 158.045 260.899C155.764 260.957 153.134 260.457 153.134 260.457L158.045 258.723L158.231 258.792Z" fill="#E58099"/>
<path d="M149.574 232.143C149.574 232.143 152.774 229.804 155.415 231.817C158.057 233.842 158.383 238.032 157.091 240.883C155.799 243.734 149.167 234.936 149.167 234.936" fill="#332F62"/>
<path d="M163.735 256.535C163.794 257.419 163.235 258.234 162.409 258.548C159.977 259.468 154.647 261.085 149.004 260.259C142.045 259.247 135.308 240.15 149.33 233.68C152.052 232.423 162.781 240.93 163.735 256.535Z" fill="#FDAEB3"/>
<path d="M133.236 245.898C133.236 245.898 130.816 246.469 130.188 247.912C130.188 247.912 133.132 246.608 134.412 247.667" fill="#332F62"/>
<path d="M135.459 246.492C135.459 246.492 130.188 247.795 126.976 244.188C122.542 239.207 131.014 228.815 137.937 238.474" fill="#332F62"/>
<path d="M133.969 248.238C133.969 248.238 133.073 247.923 132.794 246.864C132.398 245.34 132.142 240.65 136.285 236.519C136.285 236.519 137.367 235.541 138.112 236.123" fill="#FAC12A"/>
<path d="M147.852 261.771C147.852 261.771 136.355 258.525 133.609 247.458C130.863 236.391 147.561 225.487 154.589 236.018C154.589 236.018 149.609 237.077 148.247 240.766C146.886 244.455 147.747 249.82 146.292 248.901C144.791 247.958 142.65 249.168 142.976 251.275C143.244 252.997 145.92 255.08 147.281 257.407C148.108 258.816 148.282 260.771 147.852 261.771Z" fill="#332F62"/>
<path d="M154.612 234.052C154.612 234.052 160 239.533 148.678 244.967C149.248 242.815 146.176 237.566 146.176 237.566" fill="#332F62"/>
<path d="M133.038 315.687C133.038 315.687 127.127 314.767 126.056 312.649C125.242 311.043 127.872 298.65 129.163 292.843C129.571 291.027 129.85 289.852 129.85 289.852L135.493 291.586L140.741 293.204L133.038 315.687Z" fill="#FDAEB3"/>
<path d="M132.864 312.975C132.864 312.975 134.4 317.653 134.342 321.563C134.295 325.474 135.575 343.185 135.575 343.185L132.026 343.907C132.026 343.907 124.939 326.428 125.963 310.764L132.864 312.975Z" fill="#FDAEB3"/>
<path d="M132.314 343.151C132.314 343.151 131.005 346.22 133.726 351.32C136.106 353.957 138.322 354.353 140.082 353.76C144.593 352.243 137.571 350.617 137.571 345.857C137.571 348.584 145.285 351.32 138.19 343.689C137.908 343.355 135.369 342 135.369 342" fill="#FDAEB3"/>
<path d="M132.805 277.121C132.805 277.121 129.71 287.746 128.779 294.495C128.779 294.495 133.608 296.695 140.02 296.881C140.02 296.881 142.452 290.911 143.395 285.5" fill="#FECB22"/>
<path d="M273.129 422.871C273.129 422.871 291.689 421.87 291.712 418.088C291.724 415.156 280.378 417.634 280.378 417.634C280.378 417.634 292.794 414.027 298.542 411.083C299.799 410.431 301.091 409.733 301.964 408.627C302.848 407.522 303.232 405.892 302.51 404.671C301.545 403.018 299.229 402.878 297.321 403.111C289.676 404.03 284.3 408.127 277.422 411.583C282.461 409.058 286.941 405.811 291.142 402.064C295.005 398.619 299.497 395.384 302.068 390.764C303.686 387.878 304.326 383.607 301.463 381.233C298.694 378.929 294.726 380 291.689 381.07C283.52 383.933 276.364 389.635 271.662 396.885C272.873 393.499 273.815 390.008 274.49 386.47C274.758 385.039 274.862 383.281 273.676 382.444C272.151 381.35 270.103 382.816 268.916 384.271C266.042 387.797 263.843 391.893 262.481 396.234C263.424 386.493 264.343 376.555 262.225 367.001C261.737 364.813 261.073 362.614 259.712 360.845C258.35 359.076 256.163 357.796 253.94 358.029C251.834 358.262 250.1 359.751 248.692 361.334C244.142 366.431 241.478 373.169 241.303 380C241.14 386.831 243.479 393.685 247.773 398.992C245.515 396.618 242.956 394.523 240.186 392.777C239.558 392.382 238.65 392.044 238.185 392.614C237.94 392.905 237.952 393.324 237.987 393.708C238.417 398.34 241.524 402.227 244.492 405.799C238.464 398.759 228.969 394.837 219.729 395.559C218.612 395.64 217.344 395.896 216.774 396.862C216.448 397.421 216.436 398.107 216.494 398.759C216.983 403.402 221.091 406.777 225.117 409.139C228.503 411.129 232.075 412.793 235.636 414.446C233.6 414.155 231.529 414.085 229.481 414.225C229.015 414.26 228.491 414.329 228.201 414.702C227.665 415.412 228.422 416.366 229.143 416.878C234.298 420.602 240.779 422.417 247.11 421.928" fill="#83C068"/>
<path opacity="0.45" d="M294.202 388.216C294.435 388.053 294.656 388.414 294.435 388.576C288.535 393.033 283.078 398.049 278.237 403.658C273.361 409.314 269.475 415.482 265.67 421.87C265.53 422.103 265.181 421.917 265.297 421.673C271.627 408.418 282.391 396.769 294.202 388.216ZM267.496 393.01C264.11 401.703 262.074 412.642 262.749 421.998C262.76 422.231 263.11 422.219 263.121 421.987C263.272 412.572 264.68 402.052 267.997 393.196C268.09 392.917 267.601 392.731 267.496 393.01ZM255.744 373.809C254.15 389.763 255.43 406.765 259.712 422.231C259.782 422.487 260.154 422.359 260.096 422.103C258.478 413.992 257.012 405.893 256.326 397.642C255.674 389.705 255.744 381.78 256.023 373.832C256.035 373.681 255.755 373.646 255.744 373.809ZM241.326 397.642C246.12 404.45 251.427 417.041 257.722 422.534C257.978 422.755 258.304 422.394 258.071 422.15C252.381 415.9 246.807 404.17 241.71 397.397C241.536 397.165 241.152 397.397 241.326 397.642ZM292.957 408.185C283.45 412.468 273.652 417.518 265.6 424.209C265.355 424.419 265.588 424.838 265.879 424.652C274.746 418.763 283.322 412.968 293.073 408.569C293.318 408.476 293.201 408.08 292.957 408.185ZM233.867 407.021C240.791 411.153 248.18 419.973 255.732 422.86C255.965 422.953 256.163 422.615 255.918 422.499C248.611 418.926 241.14 410.687 234.065 406.649C233.832 406.509 233.635 406.882 233.867 407.021Z" fill="#5E884A"/>
<path d="M275.98 465.975H249.716L242.606 421.766H283.089L275.98 465.975Z" fill="#7FD2EF"/>
<path d="M275.956 465.975H267.997L275.142 421.766H283.089L275.956 465.975Z" fill="#46BFE0"/>
<path d="M318.231 109.703V79.563" stroke="#192469" stroke-width="5.4139" stroke-miterlimit="10" stroke-linecap="round"/>
</g>
</g>
<defs>
<clipPath id="clip0">
<rect width="623" height="468" fill="white"/>
</clipPath>
</defs>
</svg>
