<svg width="544" height="463" viewBox="0 0 544 463" fill="none" xmlns="http://www.w3.org/2000/svg">
<g opacity="0.9">
<g clip-path="url(#clip0)">
<path d="M147.304 143.691C155.839 162.301 160.631 179.901 154.347 187.747C153.98 188.214 153.575 188.631 153.133 189.023C148.29 193.281 138.782 193.382 122.711 187.039C79.9487 170.16 77.913 141.025 69.2644 112.585C60.7423 84.4986 30.9527 89.2365 30.1941 89.3629C99.5976 65.2185 132.826 112.155 147.304 143.691Z" fill="#8CC373"/>
<path d="M154.347 187.747C153.98 188.214 153.575 188.631 153.133 189.023C145.104 184.184 129.716 173.938 122.471 162.428C119.044 156.995 116.174 150.892 113.127 144.424C107.374 132.206 101.418 119.572 91.0122 109.881L92.1755 108.63C102.809 118.548 108.84 131.334 114.669 143.703C117.691 150.122 120.549 156.174 123.912 161.518C130.98 172.75 146.52 183.047 154.347 187.747Z" fill="#5F894B"/>
<path d="M139.869 151.297C139.363 152.535 139.035 153.23 139.009 153.318C138.883 152.636 138.744 151.954 138.617 151.297C132.915 122.086 125.29 119.028 102.417 93.4817C79.0257 67.3538 92.479 43.0073 92.479 43.0073C170.847 65.6355 145.205 138.233 139.869 151.297Z" fill="#70AE53"/>
<path d="M139.869 151.297C139.363 152.535 139.035 153.23 139.009 153.318C138.883 152.636 138.744 151.954 138.617 151.297C141.159 126.041 125.91 96.4257 121.118 91.1066C116.161 85.598 113.102 78.03 111.951 75.1746C111.761 74.6945 111.572 74.2523 111.521 74.1386L112.621 73.5195C112.722 73.6964 112.849 74.0123 113.127 74.6945C114.252 77.4867 117.249 84.9031 122.054 90.2475C128.135 96.9816 142.208 126.761 139.869 151.297Z" fill="#5F894B"/>
<path d="M487 140.81H146.621C135.81 140.81 127.035 132.055 127.035 121.24V19.5707C127.035 8.76827 135.798 0 146.621 0H487C497.811 0 506.586 8.75563 506.586 19.5707V121.24C506.586 132.042 497.824 140.81 487 140.81Z" fill="#F5F5F5"/>
<path d="M474.23 40.4175H427.838V45.0669H474.23V40.4175Z" fill="#B8D6FF"/>
<path d="M481.146 54.8208H427.838V59.4703H481.146V54.8208Z" fill="#B8D6FF"/>
<path d="M455.327 69.1353H427.75V73.7847H455.327V69.1353Z" fill="#B8D6FF"/>
<path d="M470.247 83.4502H427.75V88.0997H470.247V83.4502Z" fill="#B8D6FF"/>
<path d="M289.221 305.411H146.924V310.162H289.221V305.411Z" fill="white"/>
<path d="M252.604 283.213H146.924V287.963H252.604V283.213Z" fill="url(#paint0_linear)"/>
<path d="M261.113 294.318H146.924V299.069H261.113V294.318Z" fill="url(#paint1_linear)"/>
<path d="M221.019 305.411H146.924V310.162H221.019V305.411Z" fill="url(#paint2_linear)"/>
<path d="M217.921 127.873H176.575V132.964H217.921V127.873Z" fill="#D6D6D6"/>
<path d="M227.935 118.814H166.536V123.906H227.935V118.814Z" fill="#D6D6D6"/>
<path d="M208.008 48.9457C208.008 54.8333 203.229 59.6091 197.337 59.6091C191.445 59.6091 186.665 54.8333 186.665 48.9457C186.665 43.058 191.445 38.2822 197.337 38.2822C203.229 38.2822 208.008 43.058 208.008 48.9457Z" fill="#4AAFFF"/>
<path d="M216.593 83.7154V103.994C210.701 106.672 204.139 108.163 197.248 108.163C190.344 108.163 183.794 106.672 177.902 103.994V83.7154C177.902 73.0393 186.564 64.3848 197.248 64.3848C207.932 64.3848 216.593 73.0393 216.593 83.7154Z" fill="#4AAFFF"/>
<path d="M363.48 33.165H264.047V39.5707H363.48V33.165Z" fill="white"/>
<path d="M412.805 33.165H374.165V39.5707H412.805V33.165Z" fill="white"/>
<path d="M310.742 18.585H264.047V24.9906H310.742V18.585Z" fill="white"/>
<path d="M197.235 109.439C190.294 109.439 183.618 107.999 177.359 105.156C160.226 97.3732 149.15 80.1904 149.15 61.3904C149.15 34.8961 170.721 13.3418 197.235 13.3418C223.75 13.3418 245.321 34.8961 245.321 61.3904C245.321 80.1904 234.245 97.3732 217.112 105.156C210.866 107.999 204.177 109.439 197.235 109.439ZM197.235 15.8687C172.124 15.8687 151.679 36.2859 151.679 61.3904C151.679 79.2049 162.173 95.478 178.408 102.844C184.326 105.535 190.661 106.899 197.235 106.899C203.81 106.899 210.145 105.535 216.063 102.844C232.298 95.478 242.792 79.1923 242.792 61.3904C242.792 36.2985 222.359 15.8687 197.235 15.8687Z" fill="#D3DAE0"/>
<path d="M444.769 320.143H317.948C312.107 320.143 307.378 315.418 307.378 309.58V159.004C307.378 153.167 312.107 148.441 317.948 148.441H444.769C450.61 148.441 455.339 153.167 455.339 159.004V309.58C455.339 315.418 450.598 320.143 444.769 320.143Z" fill="#F5F5F5"/>
<path d="M397.202 219.661C391.537 203.843 376.415 194.127 360.471 194.607C356.614 194.721 352.707 195.441 348.863 196.806C337.256 200.962 328.924 210.198 325.497 221.127C323.12 228.695 323.107 237.072 325.99 245.107C326.281 245.903 326.585 246.699 326.926 247.457C328.443 250.944 330.428 254.09 332.793 256.857C342.693 268.481 359.105 273.395 374.341 267.95C393.99 260.938 404.232 239.308 397.202 219.661ZM371.142 259.055C359.725 263.136 347.409 259.46 340 250.742C338.23 248.67 336.738 246.295 335.612 243.692C335.36 243.111 335.132 242.53 334.917 241.923C332.755 235.897 332.767 229.617 334.55 223.944C337.117 215.757 343.363 208.821 352.062 205.713C354.933 204.69 357.866 204.146 360.762 204.071C372.71 203.704 384.052 210.994 388.3 222.858C393.56 237.577 385.885 253.787 371.142 259.055Z" fill="#4AAFFF"/>
<path d="M334.538 223.945L325.51 221.127C328.924 210.211 337.256 200.963 348.876 196.806C352.707 195.441 356.614 194.721 360.483 194.607L360.762 204.058C357.866 204.146 354.933 204.677 352.062 205.7C343.338 208.821 337.104 215.757 334.538 223.945Z" fill="#1A598C"/>
<path d="M335.6 243.692L326.926 247.47C326.597 246.699 326.281 245.916 325.99 245.12C323.107 237.072 323.133 228.708 325.497 221.14L334.525 223.957C332.742 229.63 332.73 235.909 334.892 241.936C335.119 242.517 335.36 243.111 335.6 243.692Z" fill="#2273B5"/>
<path d="M332.793 256.87C330.428 254.103 328.443 250.944 326.926 247.47L335.6 243.692C336.738 246.307 338.23 248.67 339.987 250.742L332.793 256.87Z" fill="#3788CC"/>
<path d="M429.988 242.745C423.704 239.776 416.433 241.355 411.907 246.156C410.807 247.318 409.884 248.67 409.163 250.186C406.975 254.798 407.254 259.927 409.441 264.135C410.958 267.041 413.411 269.492 416.61 271.008C416.926 271.159 417.255 271.298 417.571 271.425C419.038 272.006 420.543 272.347 422.035 272.461C428.331 272.966 434.578 269.605 437.435 263.566C441.127 255.745 437.789 246.434 429.988 242.745ZM433.895 261.873C431.745 266.409 427.067 268.923 422.351 268.544C421.225 268.456 420.1 268.203 419 267.761C418.76 267.672 418.52 267.559 418.279 267.445C415.877 266.308 414.044 264.476 412.906 262.29C411.262 259.144 411.06 255.291 412.691 251.841C413.234 250.704 413.93 249.694 414.752 248.822C418.14 245.221 423.59 244.033 428.306 246.27C434.16 249.049 436.664 256.023 433.895 261.873Z" fill="#4AAFFF"/>
<path d="M412.906 262.302L409.441 264.122C407.241 259.927 406.975 254.785 409.163 250.173C409.884 248.657 410.819 247.305 411.907 246.143L414.752 248.822C413.93 249.693 413.234 250.704 412.691 251.841C411.06 255.316 411.262 259.169 412.906 262.302Z" fill="#1A598C"/>
<path d="M419 267.773L417.571 271.412C417.255 271.286 416.926 271.147 416.61 270.995C413.411 269.479 410.971 267.028 409.441 264.122L412.905 262.303C414.043 264.476 415.877 266.32 418.279 267.458C418.519 267.571 418.76 267.672 419 267.773Z" fill="#2273B5"/>
<path d="M437.435 215.96C440.407 209.681 438.826 202.416 434.022 197.893C432.858 196.794 431.505 195.872 429.988 195.151C425.373 192.978 420.239 193.244 416.042 195.429C413.133 196.945 410.68 199.397 409.163 202.593C409.011 202.909 408.872 203.237 408.746 203.553C408.164 205.019 407.823 206.522 407.709 208.013C407.203 214.305 410.567 220.534 416.611 223.402C424.412 227.091 433.743 223.768 437.435 215.96ZM418.28 219.864C413.74 217.716 411.224 213.042 411.603 208.329C411.692 207.205 411.945 206.08 412.387 204.981C412.489 204.741 412.59 204.501 412.704 204.261C413.841 201.873 415.675 200.028 417.862 198.891C421.011 197.249 424.867 197.047 428.319 198.676C429.457 199.22 430.481 199.915 431.341 200.736C434.945 204.122 436.133 209.567 433.895 214.28C431.126 220.13 424.134 222.631 418.28 219.864Z" fill="#4AAFFF"/>
<path d="M417.85 198.891L416.029 195.429C420.227 193.231 425.373 192.965 429.975 195.151C431.493 195.871 432.845 196.806 434.009 197.893L431.328 200.735C430.456 199.914 429.444 199.219 428.306 198.676C424.854 197.046 420.998 197.248 417.85 198.891Z" fill="#4AAFFF"/>
<path d="M412.388 204.98L408.746 203.553C408.873 203.237 409.012 202.908 409.163 202.592C410.681 199.396 413.134 196.957 416.042 195.429L417.863 198.891C415.688 200.028 413.842 201.86 412.704 204.26C412.577 204.5 412.476 204.74 412.388 204.98Z" fill="#2273B5"/>
<path d="M407.696 208.013C407.823 206.509 408.164 205.006 408.733 203.553L412.375 204.98C411.945 206.08 411.692 207.204 411.591 208.329L407.696 208.013Z" fill="#3788CC"/>
<path d="M351.632 276.137H325.497V279.612H351.632V276.137Z" fill="#4AAFFF"/>
<path d="M404.662 276.137H389.287V279.612H404.662V276.137Z" fill="#4AAFFF"/>
<path d="M332.085 163.173H319.58V165.839H332.085V163.173Z" fill="#4AAFFF"/>
<path d="M391.132 173.23H371.724V175.908H391.132V173.23Z" fill="#4AAFFF"/>
<path d="M358.485 173.23H346.638V175.908H358.485V173.23Z" fill="#4AAFFF"/>
<path d="M343.06 173.23H319.58V175.908H343.06V173.23Z" fill="#4AAFFF"/>
<path d="M354.439 163.173H335.903V165.839H354.439V163.173Z" fill="#4AAFFF"/>
<path d="M367.285 173.23H362.19V175.908H367.285V173.23Z" fill="#4AAFFF"/>
<path d="M391.132 163.325H377.287V166.003H391.132V163.325Z" fill="#4AAFFF"/>
<path d="M407.886 173.23H396.076V175.908H407.886V173.23Z" fill="#4AAFFF"/>
<path d="M373.671 163.325H358.991V166.003H373.671V163.325Z" fill="#4AAFFF"/>
<path d="M273.656 51.7124H271.115V113.229H273.656V51.7124Z" fill="#C9E0FF"/>
<path d="M285.314 51.7124H282.772V113.229H285.314V51.7124Z" fill="#C9E0FF"/>
<path d="M296.984 51.7124H294.443V113.229H296.984V51.7124Z" fill="#C9E0FF"/>
<path d="M308.655 51.7124H306.114V113.229H308.655V51.7124Z" fill="#C9E0FF"/>
<path d="M320.313 51.7124H317.771V113.229H320.313V51.7124Z" fill="#C9E0FF"/>
<path d="M331.983 51.7124H329.442V113.229H331.983V51.7124Z" fill="#C9E0FF"/>
<path d="M343.641 51.7124H341.1V113.229H343.641V51.7124Z" fill="#C9E0FF"/>
<path d="M355.312 51.7124H352.771V113.229H355.312V51.7124Z" fill="#C9E0FF"/>
<path d="M366.982 51.7124H364.441V113.229H366.982V51.7124Z" fill="#C9E0FF"/>
<path d="M378.64 51.7124H376.099V113.229H378.64V51.7124Z" fill="#C9E0FF"/>
<path d="M390.311 51.7124H387.77V113.229H390.311V51.7124Z" fill="#C9E0FF"/>
<path d="M401.981 51.7124H399.44V113.229H401.981V51.7124Z" fill="#C9E0FF"/>
<path d="M273.656 70.1084H271.115V113.23H273.656V70.1084Z" fill="#FF6559"/>
<path d="M285.314 85.0044H282.772V113.23H285.314V85.0044Z" fill="#FF6559"/>
<path d="M296.984 60.5947H294.443V113.23H296.984V60.5947Z" fill="#FF6559"/>
<path d="M308.655 97.9038H306.114V113.229H308.655V97.9038Z" fill="#FF6559"/>
<path d="M320.313 82.4648H317.771V113.23H320.313V82.4648Z" fill="#FF6559"/>
<path d="M331.983 70.9551H329.442V113.23H331.983V70.9551Z" fill="#FF6559"/>
<path d="M343.641 85.9521H341.1V113.217H343.641V85.9521Z" fill="#FF6559"/>
<path d="M355.312 67.0381H352.771V113.229H355.312V67.0381Z" fill="#FF6559"/>
<path d="M366.982 87.8599H364.441V113.23H366.982V87.8599Z" fill="#FF6559"/>
<path d="M378.64 72.6353H376.099V113.23H378.64V72.6353Z" fill="#FF6559"/>
<path d="M390.311 92.939H387.77V113.23H390.311V92.939Z" fill="#FF6559"/>
<path d="M401.981 72.6353H399.44V113.23H401.981V72.6353Z" fill="#FF6559"/>
<path d="M283.835 366.675H74.3853C66.3562 366.675 59.8572 360.181 59.8572 352.158V162.958C59.8572 154.935 66.3562 148.441 74.3853 148.441H283.835C291.864 148.441 298.363 154.935 298.363 162.958V352.158C298.363 360.169 291.851 366.675 283.835 366.675Z" fill="#F5F5F5"/>
<path d="M148.239 214.545C153.069 201.038 148.707 186.484 138.39 177.715C135.937 175.618 133.13 173.862 130.045 172.51C129.362 172.219 128.666 171.941 127.958 171.689C120.814 169.137 113.38 169.149 106.666 171.259C96.9676 174.291 88.7615 181.67 85.0695 191.967C83.8556 195.366 83.2234 198.827 83.1223 202.251C82.6924 216.389 91.3283 229.794 105.363 234.823C122.799 241.052 142.006 231.98 148.239 214.545ZM108.183 226.926C97.6503 223.161 91.1892 213.104 91.5053 202.504C91.5812 199.939 92.0617 197.337 92.972 194.797C95.7284 187.077 101.886 181.544 109.156 179.269C114.189 177.69 119.765 177.677 125.126 179.598C125.657 179.787 126.175 180.002 126.694 180.217C129.02 181.215 131.119 182.542 132.953 184.108C140.691 190.691 143.966 201.594 140.337 211.727C135.659 224.791 121.257 231.588 108.183 226.926Z" fill="#78C3FF"/>
<path d="M109.156 179.257L106.653 171.247C96.9549 174.279 88.7489 181.657 85.0568 191.954C83.843 195.353 83.2108 198.815 83.1096 202.239L91.5053 202.491C91.5812 199.927 92.0616 197.324 92.972 194.784C95.7284 187.065 101.886 181.531 109.156 179.257Z" fill="#1173C2"/>
<path d="M126.694 180.204L130.044 172.51C129.362 172.219 128.666 171.941 127.958 171.689C120.814 169.137 113.38 169.149 106.666 171.259L109.169 179.269C114.201 177.69 119.777 177.677 125.139 179.598C125.657 179.775 126.175 179.99 126.694 180.204Z" fill="#1487E3"/>
<path d="M138.39 177.715C135.937 175.618 133.13 173.862 130.045 172.51L126.694 180.204C129.02 181.202 131.119 182.529 132.953 184.096L138.39 177.715Z" fill="#4AAFFF"/>
<path d="M255.031 282.606H243.386V322.455H255.031V282.606Z" fill="#4AAFFF"/>
<path d="M237.722 293.775H226.077V322.455H237.722V293.775Z" fill="#4AAFFF"/>
<path d="M271.823 264.134H260.178V322.455H271.823V264.134Z" fill="#4AAFFF"/>
<path d="M232.386 181.897H265.501C267.587 181.897 269.282 180.204 269.282 178.119C269.282 176.022 267.587 174.342 265.501 174.342H232.386C230.3 174.342 228.605 176.035 228.605 178.119C228.605 180.204 230.3 181.897 232.386 181.897Z" fill="#1487E3"/>
<path d="M232.386 195.088H265.501C267.587 195.088 269.282 193.395 269.282 191.31C269.282 189.225 267.587 187.532 265.501 187.532H232.386C230.3 187.532 228.605 189.225 228.605 191.31C228.605 193.395 230.3 195.088 232.386 195.088Z" fill="#4AAFFF"/>
<path d="M232.386 208.291H265.501C267.587 208.291 269.282 206.598 269.282 204.513C269.282 202.428 267.587 200.735 265.501 200.735H232.386C230.3 200.735 228.605 202.428 228.605 204.513C228.605 206.585 230.3 208.291 232.386 208.291Z" fill="#4AAFFF"/>
<path d="M209.184 182.554H183.921V185.65H209.184V182.554Z" fill="#1487E3"/>
<path d="M196.552 214.14H176.221V217.236H196.552V214.14Z" fill="#1487E3"/>
<path d="M2.44893 239.312C8.80891 236.267 15.1436 256.52 15.1436 256.52C25.967 270.809 41.0767 251.807 39.5973 273.159C37.0053 310.519 82.6379 284.909 61.5854 323.912C40.533 362.914 80.1723 345.971 67.0856 377.418C54.0116 408.865 70.9547 446.377 51.2805 430.963C51.2805 430.963 33.9454 392.997 16.0793 381.247C-1.78685 369.497 26.7888 355.561 21.2001 339.604C13.0826 316.42 -6.49046 317.342 7.62037 292.427C21.7312 267.512 -19.1851 249.659 2.44893 239.312Z" fill="#8CC373"/>
<path d="M85.9001 270.784C76.9986 267.739 78.8447 284.884 75.0767 297.569C71.3088 310.254 33.2247 303.103 49.2069 334.878C65.2017 366.654 28.9889 345.504 39.7997 373.236C50.623 400.969 40.7353 430.622 52.4943 423.066C64.2534 415.524 59.0946 380.615 71.3341 376.458C83.5609 372.314 85.5587 367.475 73.4456 356.193C61.3326 344.91 105.17 333.716 94.359 310.936C83.5483 288.169 96.1924 274.309 85.9001 270.784Z" fill="#70AE53"/>
<path d="M78.2124 406.869L65.4924 455.057H37.0811L24.3738 406.869H78.2124Z" fill="url(#paint3_linear)"/>
<path d="M78.2123 406.869C78.2123 406.869 50.2183 412.125 50.2183 455.069H37.0811L24.3611 406.869H78.2123Z" fill="url(#paint4_linear)"/>
<path d="M161.718 333.915H121.662V336.29H161.718V333.915Z" fill="#E2D2CA"/>
<path d="M127.024 450.517H130.539V342.467H127.024L127.024 450.517Z" fill="#706865"/>
<path d="M183.289 333.245H155.447V336.644H183.289V333.245Z" fill="#CCBDB7"/>
<path d="M174.64 304.299H164.095V336.302H174.64V304.299Z" fill="#998E89"/>
<path d="M261.556 336.328H107.298V342.468H261.556V336.328Z" fill="#B59074"/>
<path d="M77.6854 299.145C77.6854 299.145 76.0037 322.784 80.6188 325.614C83.5143 327.382 95.0584 333.371 94.717 334.483C94.3756 335.607 88.1927 344.464 88.1927 344.464C88.1927 344.464 66.0149 329.871 65.2942 325.273C64.5988 320.775 66.3816 290.654 69.4288 289.265C71.7174 288.228 72.9186 289.088 75.7888 291.223C79.8602 294.217 77.6854 299.145 77.6854 299.145Z" fill="#FFB555"/>
<path d="M104.984 435.773C104.984 435.773 104.289 440.561 104.213 441.269C104.124 441.989 96.5378 440.852 96.5378 440.852L95.9182 435.154C95.9182 435.154 104.036 435.091 104.984 435.773Z" fill="#424773"/>
<path d="M104.289 440.663C104.289 440.663 106.691 443.543 109.017 444.807C111.344 446.057 114.998 446.563 116.376 447.864C117.375 448.799 119.993 452.842 110.332 452.766C100.672 452.678 96.0193 453.335 94.9825 451.781C93.9457 450.239 96.4745 440.347 96.4745 440.347C96.4745 440.347 98.7631 441.155 104.289 440.663Z" fill="#CBCEDA"/>
<path d="M153.575 435.811C153.575 435.811 152.88 440.599 152.804 441.307C152.715 442.027 145.129 440.89 145.129 440.89L144.509 435.192C144.522 435.205 152.627 435.141 153.575 435.811Z" fill="#424773"/>
<path d="M152.88 440.713C152.88 440.713 155.282 443.594 157.609 444.857C159.935 446.108 168.483 447.144 169.861 448.445C170.86 449.38 172.503 453.158 158.924 452.804C149.276 452.552 144.611 453.373 143.574 451.819C142.537 450.265 145.066 440.385 145.066 440.385C145.066 440.385 147.228 441.257 152.88 440.713Z" fill="#CBCEDA"/>
<path d="M80.5051 353.144C80.5051 353.144 108.082 357.806 114.315 358.779C120.549 359.752 154.321 368.154 158.545 370.718C161.908 372.753 156.774 421.673 155.586 440.347H142.284L141.323 384.364C125.354 384.768 113.974 380.636 102.342 382.393C90.7216 384.161 81.0236 386.663 73.6394 376.758C73.6394 376.758 73.3612 355.305 80.5051 353.144Z" fill="#575A89"/>
<path d="M107.69 440.384L94.7297 439.588L93.4653 384.351C86.5996 384.528 84.2351 384.086 78.6717 383.416L68.2024 359.107C77.382 360.939 106.767 368.343 110.687 370.718C114.063 372.753 108.891 421.711 107.69 440.384Z" fill="#575A89"/>
<path d="M93.2123 249.845C93.2123 249.845 103.328 247.053 107.184 254.899C111.04 262.745 109.296 277.603 104.2 279.005C99.1044 280.408 91.7835 278.79 89.6593 273.914C87.5477 269.037 85.8534 262.1 86.3592 257.603C86.8649 253.105 90.5191 250.906 93.2123 249.845Z" fill="#EEA886"/>
<path d="M101.545 277.439C101.545 277.439 101.431 283.402 102.089 284.678C102.746 285.954 88.0156 285.626 88.0156 285.626C88.0156 285.626 90.3421 278.462 89.0272 272.36C87.7122 266.32 101.545 277.439 101.545 277.439Z" fill="#EEA886"/>
<path d="M88.2307 270.098C88.2307 270.098 89.0146 271.703 92.8331 271.437C96.6516 271.185 101.684 266.586 103.302 266.169C104.921 265.752 105.022 264.842 105.022 264.842L105.882 266.371L107.538 266.624C107.538 266.624 106.413 262.012 108.866 260.395C111.319 258.765 107.753 245.701 95.324 248.86C95.324 248.86 85.8283 250.603 85.7018 255.897C85.5628 261.178 86.3846 267.293 88.2307 270.098Z" fill="#3A3F47"/>
<path d="M102.872 284.514C102.872 284.514 102.834 282.088 101.734 281.848C100.634 281.62 90.1524 280.18 88.7995 280.711L88.2178 283.92C88.2052 283.92 90.8099 285.524 102.872 284.514Z" fill="#E2D2CA"/>
<path d="M105.894 263.755C105.616 261.759 103.34 259.472 102.051 262.58C100.748 265.689 102.923 270.199 104.377 269.959C105.844 269.719 106.286 266.459 105.894 263.755Z" fill="#EEA886"/>
<path d="M146.773 313.219H146.76C146.823 313.245 146.836 313.257 146.773 313.219Z" fill="#323657"/>
<path d="M90.2536 251.26C90.2536 251.26 77.9255 250.679 88.1041 269.909L90.2536 251.26Z" fill="#3A3F47"/>
<path d="M62.7905 446.929L63.7135 449.506L102.455 437.516L100.596 432.298L62.7905 446.929Z" fill="#918783"/>
<path d="M103.783 393.587H99.3826V435.685H103.783V393.587Z" fill="#918783"/>
<path d="M114.568 391.351H88.5972V393.827H114.568V391.351Z" fill="#5E5854"/>
<path d="M140.716 446.929L139.793 449.507L101.052 437.517L102.746 431.97L140.716 446.929Z" fill="#918783"/>
<path d="M113.418 449.241V452.236L101.052 437.517L102.746 431.97L113.418 449.241Z" fill="#918783"/>
<path d="M144.333 450.517C144.333 452.513 142.714 454.131 140.716 454.131C138.719 454.131 137.1 452.513 137.1 450.517C137.1 448.521 138.719 446.904 140.716 446.904C142.714 446.904 144.333 448.521 144.333 450.517Z" fill="#BFB2AC"/>
<path d="M113.721 450.517C113.721 452.513 112.103 454.131 110.105 454.131C108.107 454.131 106.489 452.513 106.489 450.517C106.489 448.521 108.107 446.904 110.105 446.904C112.103 446.904 113.721 448.521 113.721 450.517Z" fill="#BFB2AC"/>
<path d="M66.4067 450.517C66.4067 452.513 64.7883 454.131 62.7905 454.131C60.7928 454.131 59.1743 452.513 59.1743 450.517C59.1743 448.521 60.7928 446.904 62.7905 446.904C64.7883 446.904 66.4067 448.521 66.4067 450.517Z" fill="#BFB2AC"/>
<path d="M127.883 391.35H75.6245C73.0578 391.35 70.9841 389.278 70.9841 386.713V386.6C70.9841 384.035 73.0578 381.963 75.6245 381.963H127.883C130.449 381.963 132.523 384.035 132.523 386.6V386.713C132.523 389.278 130.437 391.35 127.883 391.35Z" fill="#E2D2CA"/>
<path d="M241.819 342.48H238.304V450.53H241.819V342.48Z" fill="#706865"/>
<path d="M210.259 319.714H128.489C125.935 319.714 123.862 317.642 123.862 315.089V260.168C123.862 257.616 125.935 255.543 128.489 255.543H210.259C212.813 255.543 214.886 257.616 214.886 260.168V315.089C214.886 317.642 212.813 319.714 210.259 319.714Z" fill="#B8ABA5"/>
<path d="M211.321 259.005H127.415V309.657H211.321V259.005Z" fill="#F5F7FF"/>
<path d="M207.591 314.432C207.591 315.873 206.074 317.035 204.215 317.035C202.344 317.035 200.839 315.873 200.839 314.432C200.839 312.992 202.356 311.83 204.215 311.83C206.074 311.817 207.591 312.992 207.591 314.432Z" fill="#918681"/>
<path d="M188.22 336.416V335.279C188.22 335.279 186.614 328.179 175.247 328.179C163.88 328.179 164.108 336.429 164.108 336.429H188.22V336.416Z" fill="#998E89"/>
<path d="M163.969 329.227C163.969 329.227 166.434 329.038 167.345 328.495C168.255 327.951 173.667 324.313 174.931 324.894C176.208 325.475 184.667 328.065 184.364 329.303C184.073 330.541 183.289 330.415 182.695 330.2C182.101 329.985 175.955 328.697 175.412 328.911C175.412 328.911 181.443 331.11 181.468 332.714C181.494 334.319 180.204 334.711 179.635 335.317C179.066 335.924 178.371 337.427 176.815 337.553C175.26 337.667 167.674 335.026 166.106 334.913C164.55 334.799 161.655 335.014 161.453 334.749C161.276 334.483 163.969 329.227 163.969 329.227Z" fill="#EEA886"/>
<path d="M119.019 287.887C111.154 286.51 102.86 284.514 102.86 284.514L88.2053 283.92C88.2053 283.92 74.7519 286.876 69.454 289.277C68.9483 289.504 68.9483 301.267 67.5701 304.362L71.9576 313.623C71.9576 313.623 74.499 331.969 75.0175 340.13C75.2577 343.87 74.3347 376.328 74.3347 376.328C74.3347 376.328 75.6497 376.972 85.6638 378.084C95.6653 379.183 120.675 377.692 120.827 376.505C120.991 375.317 115.984 332.537 115.769 330.313C115.428 326.915 116.756 311.198 116.756 311.198C118.64 313.724 123.444 325.159 128.451 330.591C131.398 333.788 145.989 335.746 148.745 335.847C154.739 336.049 165.65 337.237 165.966 336.656C166.219 336.302 166.915 326.965 166.232 326.738C165.638 326.536 145.357 325.373 140.16 322.619C138.263 321.608 132.573 309.227 132.573 309.227C132.573 309.227 123.369 289.833 119.019 287.887Z" fill="#FFB555"/>
<path d="M90.1272 375.38H65.5218C60.6032 375.38 56.6077 371.388 56.6077 366.473V325.563C56.6077 320.648 60.6032 316.656 65.5218 316.656H90.1272C95.0457 316.656 99.0413 320.648 99.0413 325.563V366.473C99.0413 371.388 95.0584 375.38 90.1272 375.38Z" fill="#E2D2CA"/>
<path d="M91.5308 389.013C85.272 389.013 80.2017 386.916 76.4464 382.772C67.9622 373.409 69.4921 356.959 69.5553 356.265C69.6818 354.963 70.845 354.016 72.1347 354.155C73.4371 354.281 74.3727 355.431 74.2463 356.732C74.2337 356.922 72.8807 371.83 79.9488 379.613C82.8064 382.759 86.5996 384.288 91.5181 384.288C92.8205 384.288 93.8826 385.349 93.8826 386.65C93.8826 387.952 92.8331 389.013 91.5308 389.013Z" fill="#E2D2CA"/>
<path d="M157.28 265.714H134.028C133.661 265.714 133.357 265.423 133.357 265.044V263.693C133.357 263.326 133.661 263.023 134.028 263.023H157.28C157.647 263.023 157.938 263.314 157.938 263.693V265.044C157.938 265.423 157.647 265.714 157.28 265.714Z" fill="#DFE1E8"/>
<path d="M157.28 271.45H134.028C133.661 271.45 133.357 271.147 133.357 270.78V269.428C133.357 269.062 133.661 268.759 134.028 268.759H157.28C157.647 268.759 157.938 269.062 157.938 269.428V270.78C157.938 271.159 157.647 271.45 157.28 271.45Z" fill="#DFE1E8"/>
<path d="M155.712 305.613H135.595C134.369 305.613 133.357 304.615 133.357 303.39V277.59C133.357 276.365 134.356 275.367 135.595 275.367H155.712C156.951 275.367 157.95 276.365 157.95 277.59V303.39C157.938 304.615 156.939 305.613 155.712 305.613Z" fill="#DFE1E8"/>
<path d="M203.14 305.614H166.434C164.487 305.614 162.907 304.034 162.907 302.089V266.573C162.907 264.628 164.487 263.048 166.434 263.048H203.14C205.087 263.048 206.668 264.628 206.668 266.573V302.089C206.668 304.034 205.087 305.614 203.14 305.614Z" fill="#DFE1E8"/>
<path d="M482.208 266.763L458.159 279.978L434.021 242.012L463.217 231.867L482.208 266.763Z" fill="#292C47"/>
<path d="M480.678 265.625L458.197 277.982L435.615 242.467L462.926 232.991L480.678 265.625Z" fill="#E2D2CA"/>
<path d="M488.922 258.993C488.922 258.993 484.737 256.996 482.903 255.948C481.07 254.899 476.341 253.471 475.962 253.13C475.583 252.789 461.952 251.955 461.13 251.235C460.308 250.527 459.499 252.903 463.027 253.673C466.555 254.444 469.234 256.123 469.5 257.5C469.765 258.877 468.11 259.422 467.718 260.559C467.326 261.696 467.832 261.444 468.388 261.684C468.944 261.924 473.028 259.675 474.811 260.306C476.607 260.951 479.338 260.054 480.716 260.534C482.094 261.001 488.77 263.25 488.77 263.25L488.922 258.993Z" fill="#EEA886"/>
<path d="M456.996 275.202C456.996 275.202 453.481 272.044 451.774 270.717C450.067 269.391 446.881 265.499 446.413 265.272C445.945 265.044 439.851 252.549 438.852 252.043C437.853 251.538 439.787 249.858 441.899 252.877C443.998 255.897 446.097 258.278 447.5 258C448.904 257.722 449.296 255.43 450.219 254.621C451.142 253.812 451.091 254.381 451.546 254.81C451.989 255.24 451.458 259.953 452.76 261.393C454.063 262.833 454.29 265.752 455.276 266.864C456.25 267.975 460.966 273.383 460.966 273.383L456.996 275.202Z" fill="#EEA886"/>
<path d="M532.708 444.2C532.708 444.2 533.467 449.469 533.568 450.265C533.657 451.061 542.027 449.797 542.027 449.797L542.697 443.518C542.697 443.518 533.745 443.455 532.708 444.2Z" fill="#424773"/>
<path d="M533.468 449.595C533.468 449.595 530.812 452.779 528.258 454.156C525.691 455.546 521.671 456.089 520.153 457.529C519.066 458.565 516.17 463.025 526.817 462.937C537.463 462.849 542.597 463.569 543.735 461.863C544.873 460.157 542.091 449.254 542.091 449.254C542.091 449.254 539.562 450.138 533.468 449.595Z" fill="#CBCEDA"/>
<path d="M472.776 444.2C472.776 444.2 473.535 449.469 473.636 450.265C473.724 451.061 482.095 449.797 482.095 449.797L482.777 443.518C482.765 443.518 473.813 443.455 472.776 444.2Z" fill="#424773"/>
<path d="M473.535 449.595C473.535 449.595 470.879 452.779 468.325 454.156C465.758 455.546 456.326 456.683 454.809 458.111C453.709 459.147 451.9 463.316 466.871 462.924C477.517 462.646 482.651 463.556 483.789 461.85C484.927 460.145 482.133 449.241 482.133 449.241C482.133 449.241 479.768 450.201 473.535 449.595Z" fill="#CBCEDA"/>
<path d="M525.78 308.671C525.78 308.671 533.644 321.154 533.05 332.424C532.468 343.706 535.895 356.012 537.083 367.8C538.398 380.927 543.785 412.033 543.987 419.058C544.177 426.082 543.153 448.521 543.153 448.521L532.367 448.761C532.367 448.761 523.314 394.395 520.962 388.849C518.623 383.302 506.991 343.757 506.599 339.322C506.207 334.887 525.78 308.671 525.78 308.671Z" fill="#5B84C5"/>
<path d="M484.408 310.364C484.408 310.364 478.491 341.28 477.707 348.179C476.923 355.077 476.405 381.584 476.013 385.905C475.621 390.226 473.408 442.356 471.322 448.774H485.104C485.104 448.774 495.687 410.871 495.687 392.93C495.687 374.989 503.855 353.94 509.14 342.102C514.413 330.263 526.501 329.985 529.738 308.027C529.738 308.027 488.796 303.39 484.408 310.364Z" fill="#5B84C5"/>
<path d="M512.668 203.768C512.668 203.768 502.123 199.838 497.255 207.861C492.387 215.884 492.855 231.955 498.178 233.926C503.501 235.897 511.48 234.874 514.211 229.845C516.929 224.829 519.395 217.565 519.268 212.713C519.142 207.861 515.437 205.17 512.668 203.768Z" fill="#EEA886"/>
<path d="M499.316 234.28C499.316 234.28 499.745 237.122 499.025 238.525C498.304 239.927 512.693 239.965 512.693 239.965C512.693 239.965 513.856 232.334 516.082 225.903C518.294 219.459 499.316 234.28 499.316 234.28Z" fill="#EEA886"/>
<path d="M516.082 225.903C516.082 225.903 515.083 227.533 511.037 226.901C506.978 226.269 502.034 220.875 500.34 220.281C498.646 219.687 498.633 218.701 498.633 218.701L497.571 220.243L495.775 220.356C495.775 220.356 497.419 215.53 494.941 213.572C492.463 211.601 497.508 197.968 510.518 202.504C510.518 202.504 520.507 205.258 520.141 210.931C519.774 216.617 518.32 223.073 516.082 225.903Z" fill="#3A3F47"/>
<path d="M498.178 238.361C498.178 238.361 498.228 235.682 499.442 235.429C500.656 235.177 512.858 234.002 514.35 234.583V237.704C514.337 237.704 511.467 239.472 498.178 238.361Z" fill="#E2D2CA"/>
<path d="M498.898 216.642C499.126 215.695 501.553 212.965 502.476 215.884C503.4 218.803 501.073 222.719 499.771 222.378C498.468 222.037 498.317 219.043 498.898 216.642Z" fill="#EEA886"/>
<path d="M449.763 270.01C449.763 270.01 449.776 270.01 449.788 270.01C449.7 270.048 449.687 270.048 449.763 270.01Z" fill="#323657"/>
<path d="M534.643 338.387C534.643 338.387 528.169 340.295 517.144 341.508C506.106 342.721 478.541 341.066 478.377 339.764C478.2 338.463 484.307 291.273 483.966 288.835C483.624 286.409 483.435 277.742 483.435 277.742C483.296 280.117 480.881 289.808 477.96 295.089C476.898 296.997 473.37 302.986 471.663 301.621C463.406 295.038 450.623 270.212 449.801 269.997C450.484 269.707 455.858 267.23 456.616 266.978C457.274 266.75 463.229 273.055 466.846 276.971C468.451 278.715 469.602 279.978 469.602 279.978C470.639 277.641 474.445 262.871 475.621 257.767C478.276 246.244 477.871 245.764 477.871 245.764C485.938 243.326 498.19 238.361 498.19 238.361L514.349 237.704C514.349 237.704 529.181 240.963 535.035 243.604C535.592 243.857 535.592 256.832 537.109 260.231L532.266 270.439C532.266 270.439 529.472 290.667 528.89 299.663C528.612 303.794 534.643 338.387 534.643 338.387Z" fill="#CE4754"/>
<path d="M537.766 277.073C537.349 278.437 535.427 279.587 534.176 280.092C533.379 280.408 532.481 280.522 531.584 280.357L530.951 280.244L519.875 278.184C519.875 278.184 517.447 250.288 535.01 243.604C535.478 243.756 541.648 264.59 537.766 277.073Z" fill="#CE4754"/>
<path d="M534.188 280.092C533.392 280.408 532.494 280.521 531.596 280.357L530.964 280.243L532.064 265.992L534.188 280.092Z" fill="#8A1A1A"/>
<path d="M469.577 279.978L468.224 285.702C468.224 285.702 466.757 279.953 466.82 276.971C468.439 278.715 469.577 279.978 469.577 279.978Z" fill="#8A1A1A"/>
<path d="M515.665 204.715C515.665 204.715 529.485 202.997 515.892 226.067L515.665 204.715Z" fill="#3A3F47"/>
<path d="M445.136 239.965L443.732 237.565L454.796 233.736L456.199 236.137L445.136 239.965Z" fill="#292C47"/>
<path d="M123.8 208.3H129V211.45H123.8V220H120.3V211.45H104.1V207.95L119.1 184.6H123.8V208.3ZM120.3 188.65H120.2L107.85 208.3H120.3V188.65Z" fill="#78C3FF"/>
<path d="M367.15 231.25C369.083 231.817 370.683 232.933 371.95 234.6C373.217 236.267 373.85 238.3 373.85 240.7C373.85 242.267 373.533 243.683 372.9 244.95C372.3 246.183 371.483 247.25 370.45 248.15C369.417 249.017 368.2 249.683 366.8 250.15C365.433 250.65 364 250.9 362.5 250.9C361 250.9 359.55 250.65 358.15 250.15C356.783 249.683 355.583 249.017 354.55 248.15C353.517 247.25 352.683 246.183 352.05 244.95C351.45 243.683 351.15 242.267 351.15 240.7C351.15 239.5 351.317 238.4 351.65 237.4C351.983 236.367 352.45 235.45 353.05 234.65C353.65 233.817 354.35 233.117 355.15 232.55C355.983 231.983 356.883 231.55 357.85 231.25V231.15C357.05 230.883 356.317 230.5 355.65 230C355.017 229.467 354.467 228.85 354 228.15C353.533 227.417 353.167 226.633 352.9 225.8C352.633 224.933 352.5 224.05 352.5 223.15C352.5 221.717 352.767 220.417 353.3 219.25C353.833 218.083 354.55 217.1 355.45 216.3C356.383 215.467 357.45 214.833 358.65 214.4C359.85 213.933 361.133 213.7 362.5 213.7C363.833 213.7 365.1 213.933 366.3 214.4C367.533 214.833 368.6 215.467 369.5 216.3C370.433 217.1 371.167 218.083 371.7 219.25C372.233 220.417 372.5 221.717 372.5 223.15C372.5 224.05 372.367 224.933 372.1 225.8C371.833 226.633 371.467 227.417 371 228.15C370.533 228.85 369.967 229.467 369.3 230C368.667 230.5 367.95 230.883 367.15 231.15V231.25ZM356 223.35C356 224.283 356.167 225.133 356.5 225.9C356.833 226.667 357.3 227.333 357.9 227.9C358.5 228.467 359.183 228.917 359.95 229.25C360.75 229.55 361.6 229.7 362.5 229.7C363.4 229.7 364.233 229.55 365 229.25C365.8 228.917 366.5 228.467 367.1 227.9C367.7 227.333 368.167 226.667 368.5 225.9C368.833 225.133 369 224.283 369 223.35C369 222.417 368.833 221.55 368.5 220.75C368.167 219.917 367.7 219.217 367.1 218.65C366.533 218.05 365.85 217.583 365.05 217.25C364.283 216.917 363.433 216.75 362.5 216.75C361.567 216.75 360.7 216.917 359.9 217.25C359.133 217.583 358.45 218.05 357.85 218.65C357.283 219.217 356.833 219.917 356.5 220.75C356.167 221.55 356 222.417 356 223.35ZM354.75 240.3C354.75 241.367 354.933 242.367 355.3 243.3C355.667 244.233 356.183 245.033 356.85 245.7C357.55 246.367 358.367 246.9 359.3 247.3C360.267 247.667 361.333 247.85 362.5 247.85C363.667 247.85 364.717 247.667 365.65 247.3C366.617 246.9 367.433 246.367 368.1 245.7C368.8 245.033 369.333 244.233 369.7 243.3C370.067 242.367 370.25 241.367 370.25 240.3C370.25 239.233 370.067 238.25 369.7 237.35C369.333 236.45 368.8 235.667 368.1 235C367.433 234.333 366.617 233.817 365.65 233.45C364.717 233.083 363.667 232.9 362.5 232.9C361.333 232.9 360.267 233.083 359.3 233.45C358.367 233.817 357.55 234.333 356.85 235C356.183 235.667 355.667 236.45 355.3 237.35C354.933 238.25 354.75 239.233 354.75 240.3Z" fill="#78C3FF"/>
<path d="M419.348 206.256L417.668 207.636L416.828 206.64L419.48 204.504H420.788V213H419.348V206.256ZM426.672 206.256L424.992 207.636L424.152 206.64L426.804 204.504H428.112V213H426.672V206.256Z" fill="#78C3FF"/>
<path d="M422.06 253.8H418.592L418.508 255.636C418.644 255.596 418.804 255.568 418.988 255.552C419.18 255.536 419.352 255.528 419.504 255.528C419.92 255.528 420.304 255.588 420.656 255.708C421.016 255.828 421.328 256.004 421.592 256.236C421.856 256.46 422.06 256.74 422.204 257.076C422.356 257.404 422.432 257.784 422.432 258.216C422.432 258.688 422.348 259.112 422.18 259.488C422.02 259.856 421.8 260.168 421.52 260.424C421.24 260.68 420.912 260.876 420.536 261.012C420.16 261.148 419.76 261.216 419.336 261.216C418.624 261.216 418.024 261.052 417.536 260.724C417.048 260.388 416.692 259.932 416.468 259.356L417.776 258.876C417.896 259.212 418.096 259.484 418.376 259.692C418.656 259.892 418.988 259.992 419.372 259.992C419.588 259.992 419.792 259.956 419.984 259.884C420.176 259.812 420.344 259.708 420.488 259.572C420.632 259.436 420.744 259.268 420.824 259.068C420.912 258.86 420.956 258.628 420.956 258.372C420.956 258.044 420.9 257.772 420.788 257.556C420.676 257.34 420.528 257.168 420.344 257.04C420.168 256.904 419.968 256.812 419.744 256.764C419.52 256.708 419.292 256.68 419.06 256.68C418.9 256.68 418.728 256.692 418.544 256.716C418.368 256.74 418.192 256.776 418.016 256.824C417.848 256.864 417.68 256.912 417.512 256.968C417.352 257.024 417.208 257.084 417.08 257.148L417.224 252.504H422.06V253.8ZM424.152 259.68L427.428 256.464C427.692 256.208 427.9 255.952 428.052 255.696C428.212 255.432 428.292 255.132 428.292 254.796C428.292 254.396 428.16 254.08 427.896 253.848C427.64 253.608 427.32 253.488 426.936 253.488C426.528 253.488 426.2 253.628 425.952 253.908C425.704 254.18 425.552 254.524 425.496 254.94L424.092 254.724C424.132 254.372 424.232 254.048 424.392 253.752C424.552 253.456 424.756 253.2 425.004 252.984C425.252 252.768 425.54 252.6 425.868 252.48C426.204 252.352 426.568 252.288 426.96 252.288C427.328 252.288 427.68 252.34 428.016 252.444C428.36 252.548 428.664 252.708 428.928 252.924C429.192 253.132 429.4 253.392 429.552 253.704C429.712 254.008 429.792 254.364 429.792 254.772C429.792 255.044 429.756 255.3 429.684 255.54C429.612 255.772 429.512 255.992 429.384 256.2C429.264 256.408 429.12 256.608 428.952 256.8C428.792 256.984 428.616 257.164 428.424 257.34L425.976 259.68H429.804V261H424.152V259.68Z" fill="#78C3FF"/>
</g>
</g>
<defs>
<linearGradient id="paint0_linear" x1="304.54" y1="285.593" x2="101.377" y2="285.593" gradientUnits="userSpaceOnUse">
<stop stop-color="#FFC05C"/>
<stop offset="1" stop-color="#FF3857"/>
</linearGradient>
<linearGradient id="paint1_linear" x1="304.54" y1="296.69" x2="101.378" y2="296.69" gradientUnits="userSpaceOnUse">
<stop stop-color="#FFC05C"/>
<stop offset="1" stop-color="#FF3857"/>
</linearGradient>
<linearGradient id="paint2_linear" x1="304.54" y1="307.788" x2="101.378" y2="307.788" gradientUnits="userSpaceOnUse">
<stop stop-color="#FFC05C"/>
<stop offset="1" stop-color="#FF3857"/>
</linearGradient>
<linearGradient id="paint3_linear" x1="24.3711" y1="430.962" x2="78.2092" y2="430.962" gradientUnits="userSpaceOnUse">
<stop stop-color="#FF9340"/>
<stop offset="1" stop-color="#FFCE45"/>
</linearGradient>
<linearGradient id="paint4_linear" x1="24.3711" y1="430.962" x2="78.2092" y2="430.962" gradientUnits="userSpaceOnUse">
<stop stop-color="#C97332"/>
<stop offset="1" stop-color="#FFCE45"/>
</linearGradient>
<clipPath id="clip0">
<rect width="544" height="463" fill="white"/>
</clipPath>
</defs>
</svg>
