<svg width="612" height="459" viewBox="0 0 612 459" fill="none" xmlns="http://www.w3.org/2000/svg">
<path opacity="0.2" d="M220.031 399.396C255.783 403.077 291.837 403.634 327.8 404.736C344.293 405.245 360.468 404.627 375.691 409.373C389.946 413.805 401.329 422.716 416.038 426.53C427.451 429.497 439.772 429.388 451.699 428.298C502.129 423.697 549.612 401.201 578.924 368.012C605.771 337.609 616.988 298.718 609.944 261.946C605.681 239.643 592.861 218.842 589.793 196.369C586.543 172.614 597.88 151.897 605.031 129.303C610.019 113.551 612.211 97.2169 611.485 80.9801C611.077 71.6206 609.611 62.031 604.078 53.7733C589.067 31.3493 551.214 27.1237 519.604 29.6421C480.482 32.766 441.465 42.4403 407.043 57.66C379.863 69.6833 352.955 87.1672 321.769 91.9136C286.606 97.2653 259.411 77.953 227.756 69.1505C156.555 49.3539 70.5847 88.257 39.1867 140.019C0.441914 203.901 4.84095 308.417 77.3873 355.832C116.918 381.67 167.847 393.887 218.429 399.227C218.958 399.287 219.487 399.336 220.031 399.396Z" fill="#297AFF"/>
<path d="M60.6595 123.902C60.6595 123.902 109.12 143.518 111.268 202.154C113.416 260.79 201.142 322.679 201.142 322.679C201.142 322.679 200.547 322.834 199.433 323.089C124.255 340.362 55.6824 275.125 69.434 199.283C74.5285 171.091 75.4597 140.16 60.6595 123.902Z" fill="#8ED16F"/>
<path d="M58.2577 287.217C58.2577 287.217 94.5017 264.584 112.773 297.887C131.045 331.19 204.274 305.885 204.274 305.885C204.274 305.885 203.926 306.407 203.313 307.338C160.859 370.783 98.7421 380.555 85.5414 325.778C80.6389 305.405 72.2879 286.401 58.2577 287.217Z" fill="#7DBA61"/>
<path opacity="0.3" d="M108.898 265.278C114.8 262.78 114.305 248.281 107.792 232.895C101.28 217.508 91.2158 207.06 85.3139 209.558C79.4119 212.056 79.9069 226.554 86.4194 241.941C92.9318 257.328 102.996 267.776 108.898 265.278Z" fill="black"/>
<path opacity="0.3" d="M138.956 339.012C140.579 335.011 134.673 328.844 125.764 325.238C116.855 321.632 108.317 321.952 106.694 325.953C105.07 329.955 110.976 336.122 119.885 339.728C128.794 343.334 137.332 343.014 138.956 339.012Z" fill="black"/>
<g opacity="0.6">
<path d="M567.539 131.831C567.539 131.831 535.844 137.95 527.566 173.22C519.288 208.49 458.775 235.549 458.775 235.549C458.775 235.549 459.117 235.713 459.761 236.001C503.254 255.411 552.562 224.044 553.254 176.458C553.521 158.771 556.637 139.92 567.539 131.831Z" fill="#8ED16F"/>
<path d="M549.563 231.064C549.563 231.064 530.297 213.039 515.264 231.042C500.232 249.045 458.876 225.001 458.876 225.001C458.876 225.001 459.024 225.359 459.285 225.996C477.458 269.486 513.93 282.797 528.445 251.181C533.839 239.42 541.16 228.9 549.563 231.064Z" fill="#7DBA61"/>
<path opacity="0.3" d="M521.492 211.747C518.214 209.531 520.238 200.806 526.015 192.258C531.791 183.711 539.132 178.578 542.41 180.794C545.689 183.009 543.664 191.735 537.888 200.282C532.111 208.829 524.771 213.962 521.492 211.747Z" fill="black"/>
<path opacity="0.3" d="M494.508 252.843C494.001 250.226 498.313 247.192 504.139 246.067C509.966 244.942 515.101 246.152 515.608 248.77C516.116 251.387 511.803 254.421 505.977 255.546C500.15 256.671 495.015 255.461 494.508 252.843Z" fill="black"/>
</g>
<g clip-path="url(#clip0)">
<path opacity="0.8" d="M258.162 449.156C258.162 454.411 224.77 458.673 183.578 458.673C142.391 458.673 109 454.411 109 449.156C109 443.9 142.391 439.638 183.584 439.638C224.77 439.644 258.162 443.906 258.162 449.156Z" fill="#060B12"/>
<path opacity="0.8" d="M416.218 459.006C457.409 459.006 490.802 454.745 490.802 449.489C490.802 444.232 457.409 439.971 416.218 439.971C375.026 439.971 341.634 444.232 341.634 449.489C341.634 454.745 375.026 459.006 416.218 459.006Z" fill="#060B12"/>
<path d="M542.014 103.63L347.738 37.6426L254.609 312.264L448.884 378.251L542.014 103.63Z" fill="#FBE6BF"/>
<path d="M527.442 146.548L333.174 80.5644L347.732 37.6348L542 103.618L527.442 146.548Z" fill="url(#paint0_linear)"/>
<path d="M376.678 82.0921C384.652 76.4279 386.529 65.3666 380.869 57.3859C375.209 49.4053 364.157 47.5275 356.182 53.1918C348.208 58.856 346.332 69.9173 351.991 77.8979C357.651 85.8786 368.704 87.7563 376.678 82.0921Z" fill="white"/>
<path d="M393.86 109.201L337.646 90.1074L322.132 135.856L378.346 154.95L393.86 109.201Z" fill="white"/>
<path d="M455.992 130.305L399.778 111.212L384.264 156.961L440.478 176.054L455.992 130.305Z" fill="white"/>
<path d="M518.213 151.132L462 132.038L446.485 177.787L502.699 196.88L518.213 151.132Z" fill="white"/>
<path d="M375.301 163.932L319.087 144.838L303.573 190.587L359.787 209.681L375.301 163.932Z" fill="white"/>
<path d="M437.426 185.039L381.212 165.946L365.698 211.695L421.912 230.788L437.426 185.039Z" fill="white"/>
<path d="M499.654 205.862L443.44 186.769L427.926 232.517L484.14 251.611L499.654 205.862Z" fill="white"/>
<path d="M356.74 218.668L300.526 199.574L285.012 245.323L341.226 264.417L356.74 218.668Z" fill="white"/>
<path d="M418.867 239.77L362.653 220.677L347.139 266.426L403.353 285.519L418.867 239.77Z" fill="white"/>
<path d="M481.09 260.59L424.876 241.497L409.362 287.245L465.576 306.339L481.09 260.59Z" fill="white"/>
<path d="M338.175 273.396L281.961 254.303L266.447 300.052L322.661 319.145L338.175 273.396Z" fill="white"/>
<path d="M400.308 294.501L344.094 275.407L328.579 321.156L384.793 340.25L400.308 294.501Z" fill="white"/>
<path d="M462.531 315.321L406.317 296.228L390.803 341.976L447.017 361.07L462.531 315.321Z" fill="white"/>
<path d="M521.774 113.808L403.189 73.531C400.194 72.5149 398.592 69.2578 399.607 66.2604C400.623 63.2629 403.877 61.6598 406.872 62.6758L525.457 102.952C528.452 103.968 530.054 107.226 529.039 110.223C528.023 113.22 524.769 114.824 521.774 113.808Z" fill="white"/>
<path d="M439.017 103.991L441.397 104.798L443.963 97.2398C444.042 97.014 444.127 96.7882 444.223 96.5567L441.668 97.5785C441.6 97.601 441.538 97.6123 441.482 97.618C441.425 97.618 441.374 97.6123 441.324 97.5954C441.245 97.5672 441.183 97.5276 441.132 97.4768C441.081 97.4204 441.047 97.364 441.036 97.3075L440.805 96.5624L445.069 94.8237L446.191 95.2019L442.779 105.261L444.962 106.001L444.606 107.056L438.667 105.041L439.017 103.991Z" fill="#FBE6BF"/>
<path d="M458.775 105.696C458.448 106.667 458.059 107.468 457.608 108.106C457.156 108.744 456.671 109.235 456.158 109.579C455.639 109.918 455.098 110.121 454.528 110.183C453.958 110.245 453.394 110.178 452.83 109.986C452.26 109.794 451.775 109.5 451.364 109.105C450.952 108.716 450.647 108.225 450.444 107.638C450.241 107.05 450.157 106.367 450.19 105.588C450.224 104.809 450.405 103.934 450.737 102.964C451.065 101.993 451.454 101.185 451.905 100.547C452.351 99.904 452.836 99.4129 453.355 99.0685C453.874 98.7242 454.415 98.521 454.979 98.4589C455.543 98.3968 456.107 98.4645 456.677 98.6564C457.241 98.8484 457.726 99.1419 458.143 99.5314C458.561 99.9266 458.865 100.418 459.068 101.005C459.272 101.592 459.356 102.28 459.322 103.065C459.288 103.85 459.108 104.725 458.775 105.696ZM457.348 105.21C457.636 104.363 457.805 103.63 457.856 103.009C457.906 102.388 457.878 101.857 457.754 101.422C457.636 100.988 457.438 100.643 457.179 100.384C456.914 100.124 456.615 99.9378 456.276 99.8249C455.938 99.712 455.583 99.6725 455.216 99.7177C454.849 99.7628 454.488 99.9209 454.133 100.192C453.778 100.463 453.428 100.864 453.095 101.389C452.757 101.914 452.447 102.602 452.159 103.449C451.871 104.296 451.702 105.03 451.651 105.651C451.6 106.271 451.629 106.796 451.747 107.231C451.866 107.66 452.057 108.01 452.317 108.264C452.582 108.524 452.881 108.71 453.219 108.829C453.558 108.941 453.913 108.981 454.28 108.936C454.646 108.891 455.007 108.733 455.368 108.462C455.729 108.191 456.073 107.796 456.412 107.271C456.75 106.74 457.06 106.057 457.348 105.21Z" fill="#FBE6BF"/>
<path d="M467.749 108.744C467.422 109.715 467.033 110.517 466.582 111.155C466.13 111.793 465.651 112.284 465.132 112.628C464.613 112.973 464.072 113.17 463.502 113.232C462.932 113.294 462.368 113.227 461.804 113.035C461.235 112.843 460.749 112.549 460.338 112.154C459.926 111.765 459.621 111.273 459.418 110.686C459.215 110.099 459.131 109.416 459.164 108.637C459.198 107.858 459.379 106.983 459.712 106.012C460.039 105.041 460.428 104.234 460.874 103.596C461.319 102.953 461.804 102.462 462.323 102.117C462.842 101.773 463.384 101.57 463.948 101.508C464.512 101.446 465.076 101.513 465.645 101.705C466.209 101.897 466.694 102.191 467.112 102.586C467.529 102.981 467.834 103.472 468.037 104.059C468.24 104.646 468.325 105.335 468.291 106.12C468.257 106.899 468.076 107.774 467.749 108.744ZM466.317 108.259C466.604 107.412 466.773 106.678 466.824 106.058C466.875 105.437 466.847 104.906 466.723 104.471C466.604 104.037 466.407 103.692 466.147 103.433C465.882 103.173 465.583 102.987 465.245 102.874C464.906 102.761 464.551 102.721 464.184 102.767C463.818 102.812 463.457 102.97 463.102 103.241C462.746 103.512 462.396 103.912 462.064 104.437C461.725 104.962 461.415 105.651 461.127 106.498C460.84 107.345 460.67 108.078 460.62 108.699C460.569 109.32 460.597 109.845 460.716 110.28C460.834 110.709 461.026 111.059 461.285 111.313C461.55 111.573 461.849 111.759 462.188 111.877C462.526 111.996 462.882 112.03 463.248 111.985C463.615 111.94 463.976 111.781 464.337 111.51C464.698 111.24 465.042 110.844 465.38 110.319C465.719 109.789 466.029 109.1 466.317 108.259Z" fill="#FBE6BF"/>
<path d="M476.718 111.787C476.39 112.758 476.001 113.559 475.55 114.197C475.099 114.835 474.614 115.326 474.1 115.671C473.581 116.009 473.04 116.213 472.47 116.275C471.901 116.337 471.337 116.269 470.772 116.077C470.203 115.885 469.718 115.592 469.306 115.197C468.894 114.807 468.59 114.316 468.387 113.729C468.183 113.142 468.099 112.459 468.133 111.68C468.167 110.901 468.347 110.026 468.68 109.055C469.007 108.084 469.396 107.277 469.842 106.639C470.287 105.995 470.772 105.504 471.291 105.16C471.81 104.815 472.352 104.612 472.916 104.55C473.48 104.488 474.044 104.556 474.614 104.748C475.178 104.94 475.663 105.233 476.08 105.628C476.498 106.024 476.802 106.515 477.005 107.102C477.208 107.689 477.293 108.377 477.259 109.162C477.225 109.941 477.045 110.816 476.718 111.787ZM475.285 111.302C475.573 110.455 475.742 109.721 475.792 109.1C475.843 108.479 475.815 107.948 475.691 107.514C475.572 107.079 475.375 106.735 475.116 106.475C474.851 106.215 474.552 106.029 474.213 105.916C473.875 105.803 473.519 105.764 473.153 105.809C472.786 105.854 472.425 106.012 472.07 106.283C471.714 106.554 471.365 106.955 471.032 107.48C470.693 108.005 470.383 108.694 470.096 109.54C469.808 110.387 469.639 111.121 469.588 111.742C469.537 112.363 469.565 112.888 469.684 113.322C469.802 113.751 469.994 114.101 470.254 114.355C470.519 114.615 470.818 114.801 471.156 114.92C471.494 115.033 471.85 115.072 472.216 115.027C472.583 114.982 472.944 114.824 473.305 114.553C473.666 114.282 474.01 113.887 474.349 113.362C474.687 112.837 474.997 112.148 475.285 111.302Z" fill="#FBE6BF"/>
<path d="M488.67 115.851C488.342 116.822 487.953 117.623 487.502 118.261C487.051 118.899 486.566 119.39 486.052 119.735C485.534 120.079 484.992 120.277 484.422 120.339C483.853 120.401 483.289 120.333 482.725 120.141C482.155 119.949 481.67 119.656 481.258 119.26C480.846 118.871 480.542 118.38 480.339 117.793C480.136 117.206 480.051 116.523 480.085 115.744C480.119 114.965 480.299 114.09 480.632 113.119C480.959 112.148 481.348 111.341 481.794 110.703C482.24 110.059 482.725 109.568 483.244 109.224C483.762 108.879 484.304 108.676 484.868 108.614C485.432 108.552 485.996 108.62 486.566 108.812C487.13 109.004 487.615 109.297 488.032 109.692C488.45 110.087 488.754 110.579 488.957 111.166C489.16 111.753 489.245 112.441 489.211 113.226C489.183 114.005 489.002 114.88 488.67 115.851ZM487.243 115.365C487.53 114.519 487.699 113.785 487.75 113.164C487.801 112.543 487.773 112.012 487.649 111.578C487.53 111.143 487.333 110.799 487.073 110.539C486.808 110.279 486.509 110.093 486.171 109.98C485.832 109.867 485.477 109.828 485.111 109.873C484.744 109.918 484.383 110.076 484.028 110.347C483.672 110.618 483.322 111.019 482.99 111.544C482.651 112.069 482.341 112.758 482.053 113.604C481.766 114.451 481.597 115.185 481.546 115.806C481.495 116.427 481.529 116.952 481.642 117.386C481.76 117.815 481.952 118.165 482.211 118.419C482.476 118.679 482.775 118.865 483.114 118.984C483.452 119.097 483.808 119.136 484.174 119.091C484.541 119.046 484.902 118.888 485.263 118.617C485.624 118.346 485.968 117.951 486.306 117.426C486.645 116.895 486.955 116.207 487.243 115.365Z" fill="#FBE6BF"/>
<path d="M497.644 118.894C497.317 119.865 496.927 120.666 496.476 121.304C496.025 121.942 495.54 122.433 495.027 122.778C494.508 123.116 493.966 123.32 493.396 123.382C492.827 123.444 492.263 123.376 491.699 123.184C491.129 122.992 490.644 122.699 490.232 122.303C489.82 121.908 489.516 121.423 489.313 120.836C489.11 120.249 489.025 119.566 489.059 118.787C489.093 118.008 489.273 117.133 489.606 116.162C489.933 115.191 490.322 114.384 490.768 113.746C491.214 113.102 491.699 112.611 492.218 112.267C492.737 111.922 493.278 111.719 493.842 111.657C494.406 111.595 494.97 111.663 495.54 111.855C496.104 112.047 496.589 112.34 497.006 112.735C497.424 113.13 497.728 113.622 497.931 114.209C498.134 114.796 498.219 115.484 498.185 116.269C498.151 117.048 497.971 117.923 497.644 118.894ZM496.211 118.408C496.499 117.562 496.668 116.828 496.719 116.207C496.769 115.586 496.741 115.055 496.617 114.621C496.499 114.186 496.301 113.842 496.042 113.582C495.777 113.322 495.478 113.136 495.139 113.018C494.801 112.905 494.446 112.865 494.079 112.91C493.712 112.955 493.351 113.114 492.996 113.384C492.641 113.655 492.291 114.056 491.958 114.581C491.62 115.106 491.31 115.795 491.022 116.642C490.734 117.488 490.565 118.222 490.514 118.843C490.463 119.464 490.492 119.989 490.61 120.424C490.729 120.853 490.92 121.203 491.18 121.457C491.445 121.716 491.744 121.903 492.082 122.021C492.421 122.134 492.776 122.174 493.143 122.128C493.509 122.083 493.87 121.925 494.231 121.654C494.592 121.383 494.936 120.988 495.275 120.463C495.613 119.944 495.923 119.255 496.211 118.408Z" fill="#FBE6BF"/>
<path d="M506.612 121.942C506.285 122.913 505.896 123.715 505.444 124.353C504.993 124.99 504.508 125.482 503.995 125.826C503.476 126.17 502.934 126.368 502.365 126.43C501.795 126.492 501.231 126.424 500.667 126.232C500.097 126.04 499.612 125.747 499.2 125.352C498.789 124.962 498.484 124.471 498.281 123.884C498.078 123.297 497.993 122.614 498.027 121.835C498.061 121.056 498.242 120.181 498.574 119.21C498.902 118.239 499.291 117.432 499.736 116.794C500.182 116.151 500.667 115.659 501.186 115.315C501.705 114.971 502.246 114.768 502.81 114.705C503.374 114.643 503.938 114.711 504.508 114.903C505.072 115.095 505.557 115.388 505.975 115.784C506.392 116.179 506.697 116.67 506.9 117.257C507.103 117.844 507.187 118.533 507.154 119.317C507.12 120.096 506.939 120.971 506.612 121.942ZM505.179 121.457C505.467 120.61 505.636 119.876 505.687 119.255C505.738 118.634 505.71 118.104 505.585 117.669C505.467 117.234 505.27 116.89 505.01 116.63C504.745 116.371 504.446 116.184 504.108 116.072C503.769 115.959 503.414 115.919 503.047 115.964C502.681 116.009 502.32 116.167 501.964 116.438C501.609 116.709 501.259 117.11 500.926 117.635C500.588 118.16 500.278 118.849 499.99 119.696C499.702 120.542 499.533 121.276 499.482 121.897C499.432 122.518 499.46 123.043 499.578 123.478C499.697 123.907 499.889 124.257 500.148 124.511C500.413 124.77 500.712 124.957 501.051 125.075C501.389 125.188 501.744 125.228 502.111 125.182C502.478 125.137 502.839 124.979 503.2 124.708C503.561 124.437 503.905 124.042 504.243 123.517C504.581 122.987 504.892 122.304 505.179 121.457Z" fill="#FBE6BF"/>
<path d="M511.998 130.054C511.395 129.783 510.876 129.438 510.447 129.015C510.019 128.592 509.686 128.123 509.443 127.609L510.069 127.113C510.126 127.067 510.194 127.039 510.272 127.028C510.351 127.017 510.425 127.022 510.498 127.045C510.594 127.079 510.69 127.163 510.78 127.305C510.87 127.446 510.983 127.609 511.124 127.796C511.26 127.982 511.434 128.179 511.643 128.383C511.852 128.586 512.128 128.767 512.461 128.93L514.142 124.917C513.82 124.685 513.504 124.443 513.206 124.189C512.907 123.935 512.653 123.647 512.45 123.336C512.247 123.02 512.123 122.67 512.066 122.281C512.01 121.891 512.072 121.445 512.241 120.943C512.371 120.564 512.568 120.22 512.839 119.91C513.11 119.599 513.431 119.351 513.803 119.17C514.181 118.984 514.604 118.877 515.078 118.837C515.552 118.798 516.054 118.871 516.59 119.052L517.052 117.945C517.097 117.849 517.165 117.776 517.255 117.719C517.346 117.663 517.453 117.657 517.566 117.697L518.073 117.872L517.447 119.368C517.966 119.622 518.383 119.915 518.705 120.26C519.026 120.604 519.292 120.977 519.495 121.383L518.987 121.778C518.829 121.897 518.688 121.936 518.553 121.891C518.479 121.868 518.4 121.806 518.316 121.705C518.231 121.603 518.13 121.485 518.011 121.349C517.893 121.214 517.746 121.067 517.583 120.92C517.413 120.768 517.21 120.632 516.973 120.508L515.45 124.166C515.783 124.409 516.105 124.657 516.421 124.911C516.736 125.171 517.002 125.453 517.222 125.763C517.436 126.074 517.583 126.418 517.65 126.796C517.718 127.175 517.673 127.604 517.515 128.078C517.357 128.546 517.131 128.953 516.838 129.314C516.545 129.67 516.195 129.952 515.795 130.167C515.394 130.375 514.943 130.505 514.446 130.55C513.95 130.596 513.426 130.528 512.873 130.342L512.309 131.696C512.264 131.792 512.196 131.866 512.1 131.916C512.004 131.967 511.903 131.973 511.795 131.939L511.288 131.764L511.998 130.054ZM513.589 121.248C513.504 121.496 513.476 121.727 513.499 121.936C513.521 122.151 513.589 122.354 513.696 122.546C513.803 122.738 513.944 122.918 514.114 123.093C514.283 123.268 514.48 123.438 514.695 123.601L516.11 120.192C515.766 120.107 515.45 120.079 515.174 120.096C514.892 120.119 514.649 120.175 514.441 120.277C514.232 120.378 514.052 120.514 513.911 120.677C513.77 120.847 513.662 121.039 513.589 121.248ZM516.139 127.846C516.229 127.587 516.251 127.35 516.223 127.135C516.189 126.915 516.116 126.712 515.998 126.52C515.879 126.328 515.727 126.147 515.535 125.972C515.349 125.797 515.14 125.628 514.915 125.459L513.347 129.224C513.691 129.308 514.018 129.337 514.317 129.308C514.616 129.28 514.886 129.207 515.123 129.088C515.36 128.97 515.569 128.806 515.738 128.592C515.907 128.383 516.043 128.134 516.139 127.846Z" fill="#FBE6BF"/>
<path opacity="0.2" d="M432.011 90.757L398.974 79.5356L395.042 91.1306L428.079 102.352L432.011 90.757Z" fill="white"/>
<path d="M374.716 142.89L360.287 123.471L382.827 114.705L381.507 111.301L358.031 120.435L343.005 100.203L340.078 102.382L354.506 121.806L331.967 130.573L333.287 133.971L356.762 124.843L371.788 145.069L374.716 142.89Z" fill="#F9BF47"/>
<path d="M417.786 216.912L403.561 198.662L425.22 190.844L423.895 187.666L401.338 195.806L386.527 176.799L383.729 178.775L397.954 197.031L376.295 204.843L377.62 208.021L400.177 199.881L414.988 218.888L417.786 216.912Z" fill="#F9BF47"/>
<path d="M337.827 250.008L323.607 231.758L345.267 223.94L343.941 220.767L321.385 228.907L306.568 209.901L303.776 211.877L317.995 230.127L296.336 237.945L297.661 241.123L320.223 232.983L335.035 251.989L337.827 250.008Z" fill="#F9BF47"/>
<path d="M443.36 343.358L429.14 325.108L450.8 317.296L449.474 314.117L426.918 322.257L412.106 303.251L409.309 305.227L423.534 323.477L401.875 331.295L403.194 334.473L425.756 326.333L440.568 345.339L443.36 343.358Z" fill="#F9BF47"/>
<path d="M410.849 0H152.516V365.164H410.849V0Z" fill="url(#paint1_linear)"/>
<path d="M410.849 0H152.516V57.0871H410.849V0Z" fill="url(#paint2_linear)"/>
<path d="M207.575 36.6466C212.23 25.24 206.764 12.2167 195.366 7.55825C183.969 2.89977 170.956 8.37018 166.301 19.7768C161.646 31.1833 167.112 44.2066 178.51 48.8651C189.907 53.5236 202.92 48.0532 207.575 36.6466Z" fill="#EEEFF8"/>
<path d="M236.446 66.6494H161.699V127.485H236.446V66.6494Z" fill="white"/>
<path d="M319.056 66.6494H244.309V127.485H319.056V66.6494Z" fill="white"/>
<path d="M401.672 66.2769H326.924V127.112H401.672V66.2769Z" fill="white"/>
<path d="M236.446 139.424H161.699V200.259H236.446V139.424Z" fill="white"/>
<path d="M319.056 139.424H244.309V200.259H319.056V139.424Z" fill="white"/>
<path d="M401.672 139.051H326.924V199.887H401.672V139.051Z" fill="white"/>
<path d="M236.446 212.198H161.699V273.034H236.446V212.198Z" fill="white"/>
<path d="M319.056 212.198H244.309V273.034H319.056V212.198Z" fill="white"/>
<path d="M401.672 211.826H326.924V272.661H401.672V211.826Z" fill="white"/>
<path d="M236.446 284.979H161.699V345.814H236.446V284.979Z" fill="white"/>
<path d="M319.056 284.979H244.309V345.814H319.056V284.979Z" fill="white"/>
<path d="M401.672 284.6H326.924V345.435H401.672V284.6Z" fill="white"/>
<path d="M390.853 20.3445H233.163C229.181 20.3445 225.949 17.1156 225.949 13.1246C225.949 9.13933 229.176 5.90479 233.163 5.90479H390.853C394.835 5.90479 398.067 9.13368 398.067 13.1246C398.062 17.11 394.835 20.3445 390.853 20.3445Z" fill="white"/>
<path d="M288.197 42.1504H291.367V32.0968C291.367 31.7977 291.378 31.4872 291.395 31.1824L288.761 33.4347C288.693 33.4911 288.626 33.5306 288.558 33.5532C288.49 33.5758 288.423 33.5871 288.361 33.5871C288.259 33.5871 288.163 33.5645 288.084 33.5194C288 33.4742 287.938 33.4234 287.898 33.3613L287.323 32.571L291.705 28.772H293.194V42.1504H296.094V43.5504H288.197V42.1504Z" fill="#EBF0FD"/>
<path d="M312.451 36.1834C312.451 37.4761 312.31 38.5882 312.033 39.5309C311.757 40.4736 311.379 41.2526 310.9 41.8735C310.42 42.4888 309.851 42.9517 309.196 43.2509C308.542 43.5557 307.843 43.7025 307.092 43.7025C306.337 43.7025 305.637 43.5501 304.989 43.2509C304.34 42.9517 303.776 42.4888 303.296 41.8735C302.817 41.2582 302.439 40.4736 302.163 39.5309C301.886 38.5882 301.751 37.4705 301.751 36.1834C301.751 34.8964 301.886 33.7731 302.163 32.8303C302.439 31.882 302.811 31.0974 303.296 30.4821C303.776 29.8611 304.34 29.3982 304.989 29.0991C305.637 28.7942 306.337 28.6475 307.092 28.6475C307.837 28.6475 308.542 28.7999 309.196 29.0991C309.851 29.3982 310.42 29.8611 310.9 30.4821C311.379 31.103 311.757 31.8876 312.033 32.8303C312.316 33.7731 312.451 34.8907 312.451 36.1834ZM310.55 36.1834C310.55 35.0601 310.454 34.1117 310.268 33.3497C310.082 32.5876 309.828 31.9667 309.507 31.5038C309.185 31.0353 308.818 30.7022 308.401 30.499C307.984 30.2958 307.549 30.1942 307.092 30.1942C306.641 30.1942 306.207 30.2958 305.79 30.499C305.372 30.7022 305.006 31.0353 304.69 31.5038C304.374 31.9723 304.12 32.5876 303.934 33.3497C303.742 34.1117 303.652 35.0601 303.652 36.1834C303.652 37.3068 303.748 38.2495 303.934 39.0115C304.12 39.7736 304.374 40.3889 304.69 40.8518C305.006 41.3203 305.372 41.6534 305.79 41.8566C306.207 42.0598 306.641 42.1614 307.092 42.1614C307.544 42.1614 307.978 42.0598 308.401 41.8566C308.818 41.6534 309.185 41.3203 309.507 40.8518C309.828 40.3833 310.076 39.7736 310.268 39.0115C310.454 38.2495 310.55 37.3068 310.55 36.1834Z" fill="#EBF0FD"/>
<path d="M324.381 36.1834C324.381 37.4761 324.24 38.5882 323.963 39.5309C323.687 40.4736 323.309 41.2526 322.829 41.8735C322.35 42.4888 321.78 42.9517 321.126 43.2509C320.472 43.5557 319.772 43.7025 319.022 43.7025C318.266 43.7025 317.567 43.5501 316.918 43.2509C316.27 42.9517 315.706 42.4888 315.226 41.8735C314.747 41.2582 314.369 40.4736 314.092 39.5309C313.822 38.5882 313.681 37.4705 313.681 36.1834C313.681 34.8964 313.816 33.7731 314.092 32.8303C314.369 31.882 314.741 31.0974 315.226 30.4821C315.706 29.8611 316.27 29.3982 316.918 29.0991C317.567 28.7942 318.266 28.6475 319.022 28.6475C319.767 28.6475 320.472 28.7999 321.126 29.0991C321.78 29.3982 322.35 29.8611 322.829 30.4821C323.309 31.103 323.687 31.8876 323.963 32.8303C324.24 33.7731 324.381 34.8907 324.381 36.1834ZM322.48 36.1834C322.48 35.0601 322.384 34.1117 322.198 33.3497C322.012 32.5876 321.758 31.9667 321.436 31.5038C321.115 31.0353 320.748 30.7022 320.331 30.499C319.913 30.2958 319.479 30.1942 319.022 30.1942C318.571 30.1942 318.137 30.2958 317.719 30.499C317.302 30.7022 316.935 31.0353 316.619 31.5038C316.303 31.9723 316.05 32.5876 315.864 33.3497C315.677 34.1117 315.581 35.0601 315.581 36.1834C315.581 37.3068 315.677 38.2495 315.864 39.0115C316.05 39.7736 316.303 40.3889 316.619 40.8518C316.935 41.3203 317.302 41.6534 317.719 41.8566C318.137 42.0598 318.571 42.1614 319.022 42.1614C319.473 42.1614 319.908 42.0598 320.331 41.8566C320.748 41.6534 321.115 41.3203 321.436 40.8518C321.758 40.3833 322.006 39.7736 322.198 39.0115C322.384 38.2495 322.48 37.3068 322.48 36.1834Z" fill="#EBF0FD"/>
<path d="M336.304 36.1834C336.304 37.4761 336.163 38.5882 335.887 39.5309C335.611 40.4736 335.233 41.2526 334.753 41.8735C334.274 42.4888 333.704 42.9517 333.05 43.2509C332.396 43.5557 331.696 43.7025 330.946 43.7025C330.19 43.7025 329.491 43.5501 328.842 43.2509C328.193 42.9517 327.629 42.4888 327.15 41.8735C326.671 41.2582 326.293 40.4736 326.016 39.5309C325.74 38.5882 325.604 37.4705 325.604 36.1834C325.604 34.8964 325.74 33.7731 326.016 32.8303C326.293 31.882 326.665 31.0974 327.15 30.4821C327.629 29.8611 328.193 29.3982 328.842 29.0991C329.491 28.7942 330.19 28.6475 330.946 28.6475C331.696 28.6475 332.396 28.7999 333.05 29.0991C333.704 29.3982 334.274 29.8611 334.753 30.4821C335.233 31.103 335.611 31.8876 335.887 32.8303C336.169 33.7731 336.304 34.8907 336.304 36.1834ZM334.404 36.1834C334.404 35.0601 334.308 34.1117 334.122 33.3497C333.935 32.5876 333.682 31.9667 333.36 31.5038C333.039 31.0353 332.672 30.7022 332.255 30.499C331.837 30.2958 331.403 30.1942 330.946 30.1942C330.495 30.1942 330.06 30.2958 329.643 30.499C329.226 30.7022 328.859 31.0353 328.543 31.5038C328.227 31.9723 327.973 32.5876 327.787 33.3497C327.596 34.1117 327.505 35.0601 327.505 36.1834C327.505 37.3068 327.601 38.2495 327.787 39.0115C327.973 39.7736 328.227 40.3889 328.543 40.8518C328.859 41.3203 329.226 41.6534 329.643 41.8566C330.06 42.0598 330.495 42.1614 330.946 42.1614C331.397 42.1614 331.832 42.0598 332.255 41.8566C332.672 41.6534 333.039 41.3203 333.36 40.8518C333.682 40.3833 333.93 39.7736 334.122 39.0115C334.308 38.2495 334.404 37.3068 334.404 36.1834Z" fill="#EBF0FD"/>
<path d="M352.205 36.1834C352.205 37.4761 352.064 38.5882 351.787 39.5309C351.511 40.4736 351.133 41.2526 350.654 41.8735C350.174 42.4888 349.605 42.9517 348.95 43.2509C348.296 43.5557 347.597 43.7025 346.846 43.7025C346.091 43.7025 345.391 43.5501 344.743 43.2509C344.094 42.9517 343.53 42.4888 343.05 41.8735C342.571 41.2582 342.193 40.4736 341.917 39.5309C341.64 38.5882 341.505 37.4705 341.505 36.1834C341.505 34.8964 341.64 33.7731 341.917 32.8303C342.193 31.882 342.565 31.0974 343.05 30.4821C343.53 29.8611 344.094 29.3982 344.743 29.0991C345.391 28.7942 346.091 28.6475 346.846 28.6475C347.597 28.6475 348.296 28.7999 348.95 29.0991C349.605 29.3982 350.174 29.8611 350.654 30.4821C351.133 31.103 351.511 31.8876 351.787 32.8303C352.064 33.7731 352.205 34.8907 352.205 36.1834ZM350.304 36.1834C350.304 35.0601 350.208 34.1117 350.022 33.3497C349.836 32.5876 349.582 31.9667 349.26 31.5038C348.939 31.0353 348.572 30.7022 348.155 30.499C347.738 30.2958 347.303 30.1942 346.846 30.1942C346.395 30.1942 345.961 30.2958 345.543 30.499C345.126 30.7022 344.759 31.0353 344.444 31.5038C344.128 31.9723 343.874 32.5876 343.688 33.3497C343.496 34.1117 343.406 35.0601 343.406 36.1834C343.406 37.3068 343.502 38.2495 343.688 39.0115C343.874 39.7736 344.128 40.3889 344.444 40.8518C344.759 41.3203 345.126 41.6534 345.543 41.8566C345.961 42.0598 346.395 42.1614 346.846 42.1614C347.298 42.1614 347.732 42.0598 348.155 41.8566C348.572 41.6534 348.939 41.3203 349.26 40.8518C349.582 40.3833 349.83 39.7736 350.022 39.0115C350.208 38.2495 350.304 37.3068 350.304 36.1834Z" fill="#EBF0FD"/>
<path d="M364.129 36.1834C364.129 37.4761 363.988 38.5882 363.711 39.5309C363.435 40.4736 363.057 41.2526 362.577 41.8735C362.098 42.4888 361.528 42.9517 360.874 43.2509C360.22 43.5557 359.52 43.7025 358.77 43.7025C358.014 43.7025 357.315 43.5501 356.666 43.2509C356.018 42.9517 355.454 42.4888 354.974 41.8735C354.495 41.2582 354.117 40.4736 353.84 39.5309C353.564 38.5882 353.429 37.4705 353.429 36.1834C353.429 34.8964 353.564 33.7731 353.84 32.8303C354.117 31.882 354.489 31.0974 354.974 30.4821C355.454 29.8611 356.018 29.3982 356.666 29.0991C357.315 28.7942 358.014 28.6475 358.77 28.6475C359.52 28.6475 360.22 28.7999 360.874 29.0991C361.528 29.3982 362.098 29.8611 362.577 30.4821C363.057 31.103 363.435 31.8876 363.711 32.8303C363.993 33.7731 364.129 34.8907 364.129 36.1834ZM362.228 36.1834C362.228 35.0601 362.132 34.1117 361.946 33.3497C361.76 32.5876 361.506 31.9667 361.184 31.5038C360.863 31.0353 360.496 30.7022 360.079 30.499C359.661 30.2958 359.227 30.1942 358.77 30.1942C358.319 30.1942 357.885 30.2958 357.467 30.499C357.05 30.7022 356.683 31.0353 356.367 31.5038C356.052 31.9723 355.798 32.5876 355.612 33.3497C355.42 34.1117 355.33 35.0601 355.33 36.1834C355.33 37.3068 355.425 38.2495 355.612 39.0115C355.798 39.7736 356.052 40.3889 356.367 40.8518C356.683 41.3203 357.05 41.6534 357.467 41.8566C357.885 42.0598 358.319 42.1614 358.77 42.1614C359.221 42.1614 359.656 42.0598 360.079 41.8566C360.496 41.6534 360.863 41.3203 361.184 40.8518C361.506 40.3833 361.76 39.7736 361.946 39.0115C362.132 38.2495 362.228 37.3068 362.228 36.1834Z" fill="#EBF0FD"/>
<path d="M376.058 36.1834C376.058 37.4761 375.917 38.5882 375.641 39.5309C375.365 40.4736 374.987 41.2526 374.507 41.8735C374.028 42.4888 373.458 42.9517 372.804 43.2509C372.15 43.5557 371.45 43.7025 370.7 43.7025C369.944 43.7025 369.245 43.5501 368.596 43.2509C367.947 42.9517 367.383 42.4888 366.904 41.8735C366.424 41.2582 366.047 40.4736 365.77 39.5309C365.494 38.5882 365.358 37.4705 365.358 36.1834C365.358 34.8964 365.494 33.7731 365.77 32.8303C366.047 31.882 366.419 31.0974 366.904 30.4821C367.383 29.8611 367.947 29.3982 368.596 29.0991C369.245 28.7942 369.944 28.6475 370.7 28.6475C371.444 28.6475 372.15 28.7999 372.804 29.0991C373.458 29.3982 374.028 29.8611 374.507 30.4821C374.987 31.103 375.365 31.8876 375.641 32.8303C375.923 33.7731 376.058 34.8907 376.058 36.1834ZM374.158 36.1834C374.158 35.0601 374.062 34.1117 373.876 33.3497C373.689 32.5876 373.436 31.9667 373.114 31.5038C372.793 31.0353 372.426 30.7022 372.009 30.499C371.591 30.2958 371.157 30.1942 370.7 30.1942C370.249 30.1942 369.814 30.2958 369.397 30.499C368.98 30.7022 368.613 31.0353 368.297 31.5038C367.981 31.9723 367.727 32.5876 367.541 33.3497C367.349 34.1117 367.259 35.0601 367.259 36.1834C367.259 37.3068 367.355 38.2495 367.541 39.0115C367.727 39.7736 367.981 40.3889 368.297 40.8518C368.613 41.3203 368.98 41.6534 369.397 41.8566C369.814 42.0598 370.249 42.1614 370.7 42.1614C371.151 42.1614 371.586 42.0598 372.009 41.8566C372.426 41.6534 372.793 41.3203 373.114 40.8518C373.436 40.3833 373.689 39.7736 373.876 39.0115C374.062 38.2495 374.158 37.3068 374.158 36.1834Z" fill="#EBF0FD"/>
<path d="M385.765 43.6745C384.936 43.6012 384.18 43.3923 383.498 43.0649C382.815 42.7318 382.229 42.3085 381.732 41.7948L382.28 40.9537C382.33 40.8803 382.398 40.8182 382.488 40.7674C382.578 40.7222 382.669 40.694 382.765 40.694C382.894 40.694 383.041 40.7618 383.205 40.8916C383.368 41.0214 383.571 41.1738 383.814 41.3375C384.056 41.5069 384.338 41.6706 384.671 41.8286C385.004 41.9867 385.404 42.094 385.867 42.1504L386.245 36.6861C385.765 36.545 385.292 36.3813 384.829 36.195C384.367 36.0144 383.949 35.7773 383.582 35.4838C383.216 35.1902 382.923 34.8233 382.697 34.3774C382.477 33.9314 382.364 33.3782 382.364 32.7121C382.364 32.2097 382.46 31.7186 382.657 31.2388C382.855 30.759 383.137 30.3356 383.509 29.963C383.881 29.5905 384.344 29.2856 384.891 29.0485C385.438 28.8115 386.07 28.6929 386.781 28.6929L386.882 27.1914C386.893 27.0615 386.944 26.943 387.034 26.8414C387.125 26.7398 387.243 26.689 387.395 26.689H388.072L387.926 28.7268C388.648 28.8171 389.268 29.0034 389.787 29.2856C390.306 29.5679 390.774 29.9066 391.186 30.3074L390.746 30.9848C390.61 31.188 390.453 31.2952 390.272 31.2952C390.176 31.2952 390.058 31.2501 389.917 31.1654C389.776 31.0807 389.606 30.9791 389.409 30.8662C389.212 30.7533 388.98 30.6404 388.721 30.5275C388.461 30.4146 388.163 30.3356 387.824 30.2848L387.486 35.2636C387.976 35.416 388.467 35.5797 388.947 35.7604C389.426 35.941 389.86 36.1724 390.244 36.4547C390.627 36.7369 390.938 37.0869 391.175 37.5159C391.411 37.9393 391.53 38.4699 391.53 39.1021C391.53 39.7231 391.428 40.3045 391.22 40.8464C391.017 41.3883 390.712 41.8682 390.317 42.2802C389.922 42.6923 389.437 43.031 388.868 43.285C388.298 43.5447 387.644 43.6745 386.91 43.6745L386.786 45.5148C386.769 45.6446 386.719 45.7575 386.628 45.8591C386.538 45.9607 386.42 46.0059 386.273 46.0059H385.596L385.765 43.6745ZM384.101 32.5258C384.101 32.8532 384.158 33.1411 384.276 33.3838C384.395 33.6266 384.553 33.8411 384.761 34.0274C384.964 34.2136 385.207 34.3717 385.483 34.5128C385.76 34.6483 386.053 34.7725 386.38 34.8854L386.69 30.2453C386.245 30.2848 385.861 30.3751 385.534 30.5106C385.207 30.6461 384.942 30.821 384.733 31.0243C384.524 31.2275 384.367 31.4589 384.265 31.7186C384.152 31.9783 384.101 32.2436 384.101 32.5258ZM389.81 39.3618C389.81 39.0175 389.748 38.7239 389.618 38.4756C389.488 38.2272 389.319 38.0183 389.099 37.8377C388.879 37.6571 388.625 37.5046 388.326 37.3748C388.033 37.245 387.717 37.1264 387.379 37.0135L387.029 42.1391C387.474 42.0996 387.869 41.998 388.219 41.8456C388.563 41.6932 388.856 41.4956 389.093 41.2529C389.33 41.0158 389.511 40.7335 389.629 40.4118C389.747 40.0957 389.81 39.7457 389.81 39.3618Z" fill="#EBF0FD"/>
<path d="M274.468 29.2012H230.541V44.6231H274.468V29.2012Z" fill="#EBF0FD"/>
<path d="M227.258 114.581L202.197 97.2678L225.532 77.6799L222.582 74.1631L198.277 94.5582L172.179 76.5227L169.573 80.3048L194.633 97.6177L171.299 117.206L174.249 120.722L198.548 100.327L224.646 118.363L227.258 114.581Z" fill="#FFACDC"/>
<path d="M308.542 185.396L284.204 169.398L306.873 151.301L304.007 148.049L280.402 166.892L255.048 150.228L252.516 153.722L276.854 169.726L254.191 187.818L257.056 191.069L280.661 172.227L306.01 188.89L308.542 185.396Z" fill="#FFACDC"/>
<path d="M226.587 257.251L202.248 241.247L224.911 223.155L222.046 219.904L198.441 238.747L173.093 222.083L170.56 225.571L194.899 241.575L172.235 259.667L175.095 262.918L198.706 244.075L224.054 260.745L226.587 257.251Z" fill="#FFACDC"/>
<path d="M390.176 325.819L365.832 309.822L388.501 291.73L385.636 288.473L362.03 307.321L336.682 290.652L334.144 294.146L358.488 310.149L335.819 328.241L338.685 331.493L362.29 312.65L387.638 329.314L390.176 325.819Z" fill="#FFACDC"/>
<path d="M403.302 353.999C403.302 393.508 371.304 425.526 331.832 425.526C301.994 425.526 276.426 407.231 265.726 381.225C262.269 372.836 260.368 363.641 260.368 353.999C260.368 314.501 292.366 282.472 331.838 282.472C341.049 282.472 349.859 284.222 357.947 287.406C384.497 297.843 403.302 323.731 403.302 353.999Z" fill="#D73E4D"/>
<path opacity="0.1" d="M363.305 314.632C363.305 354.141 331.307 386.153 291.829 386.153C282.619 386.153 273.814 384.42 265.72 381.231C263.977 376.986 262.629 372.549 261.721 367.943C261.551 367.079 261.394 366.21 261.258 365.323C260.666 361.637 260.361 357.855 260.361 354.011C260.361 314.502 292.36 282.479 331.826 282.479C341.048 282.479 349.853 284.234 357.935 287.412C361.393 295.801 363.305 304.996 363.305 314.632Z" fill="white"/>
<path d="M334.752 338.559C339.801 322.101 330.563 304.664 314.118 299.611C297.673 294.558 280.249 303.804 275.2 320.262C270.151 336.72 279.39 354.158 295.835 359.21C312.28 364.263 329.704 355.017 334.752 338.559Z" fill="white"/>
<path d="M294.852 317.539C295.783 317.539 296.652 317.675 297.464 317.951C298.271 318.228 298.97 318.629 299.557 319.154C300.149 319.678 300.606 320.322 300.944 321.078C301.283 321.835 301.452 322.693 301.452 323.658C301.452 324.477 301.328 325.233 301.085 325.933C300.837 326.627 300.504 327.293 300.087 327.937C299.669 328.575 299.184 329.196 298.637 329.794C298.09 330.393 297.509 331.002 296.894 331.629L291.113 337.556C291.525 337.443 291.936 337.353 292.354 337.285C292.771 337.217 293.177 337.183 293.566 337.183H300.927C301.226 337.183 301.457 337.268 301.632 337.443C301.807 337.618 301.892 337.838 301.892 338.12V339.78H287.227V338.843C287.227 338.645 287.266 338.448 287.345 338.245C287.418 338.041 287.542 337.85 287.717 337.68L294.757 330.601C295.343 330.009 295.873 329.439 296.353 328.891C296.832 328.343 297.244 327.796 297.588 327.243C297.932 326.689 298.192 326.131 298.378 325.56C298.564 324.996 298.654 324.386 298.654 323.743C298.654 323.099 298.553 322.535 298.35 322.044C298.146 321.558 297.864 321.157 297.503 320.841C297.148 320.525 296.725 320.288 296.246 320.124C295.766 319.966 295.247 319.887 294.7 319.887C294.147 319.887 293.634 319.972 293.166 320.13C292.698 320.294 292.28 320.525 291.914 320.813C291.553 321.101 291.243 321.451 290.994 321.846C290.741 322.247 290.566 322.687 290.464 323.167C290.38 323.466 290.261 323.681 290.092 323.811C289.928 323.94 289.714 324.008 289.449 324.008C289.398 324.008 289.342 324.008 289.291 324.002C289.235 323.997 289.173 323.986 289.099 323.98L287.672 323.737C287.813 322.732 288.09 321.846 288.501 321.073C288.913 320.299 289.432 319.656 290.058 319.131C290.69 318.606 291.406 318.211 292.218 317.94C293.036 317.675 293.91 317.539 294.852 317.539Z" fill="#D73E4D"/>
<path d="M320.302 328.789C320.302 330.714 320.094 332.379 319.682 333.784C319.27 335.196 318.7 336.358 317.984 337.279C317.268 338.199 316.422 338.887 315.446 339.333C314.47 339.785 313.421 340.011 312.31 340.011C311.182 340.011 310.138 339.785 309.174 339.333C308.209 338.882 307.363 338.199 306.652 337.279C305.936 336.358 305.372 335.196 304.966 333.784C304.554 332.379 304.351 330.714 304.351 328.789C304.351 326.864 304.554 325.199 304.966 323.782C305.378 322.37 305.936 321.202 306.652 320.276C307.369 319.35 308.209 318.662 309.174 318.21C310.138 317.759 311.187 317.533 312.31 317.533C313.421 317.533 314.47 317.759 315.446 318.21C316.422 318.662 317.268 319.35 317.984 320.276C318.7 321.202 319.264 322.37 319.682 323.782C320.094 325.199 320.302 326.864 320.302 328.789ZM317.465 328.789C317.465 327.112 317.324 325.701 317.042 324.561C316.76 323.42 316.382 322.5 315.908 321.806C315.429 321.106 314.882 320.609 314.256 320.31C313.63 320.005 312.981 319.858 312.31 319.858C311.633 319.858 310.984 320.011 310.364 320.31C309.738 320.615 309.191 321.112 308.722 321.806C308.254 322.5 307.876 323.42 307.594 324.561C307.312 325.701 307.171 327.112 307.171 328.789C307.171 330.471 307.312 331.876 307.594 333.011C307.876 334.146 308.249 335.06 308.722 335.76C309.196 336.454 309.743 336.957 310.364 337.256C310.984 337.561 311.639 337.708 312.31 337.708C312.987 337.708 313.635 337.555 314.256 337.256C314.882 336.951 315.429 336.454 315.908 335.76C316.382 335.06 316.76 334.146 317.042 333.011C317.324 331.876 317.465 330.471 317.465 328.789Z" fill="#D73E4D"/>
<path d="M509.19 353.999C509.19 393.508 477.191 425.526 437.725 425.526C407.887 425.526 382.319 407.231 371.619 381.225C368.162 372.836 366.261 363.641 366.261 353.999C366.261 314.501 398.259 282.472 437.731 282.472C446.942 282.472 455.752 284.222 463.84 287.406C490.39 297.843 509.19 323.731 509.19 353.999Z" fill="url(#paint3_linear)"/>
<path opacity="0.1" d="M469.193 314.632C469.193 354.141 437.195 386.159 397.729 386.159C388.512 386.159 379.713 384.42 371.619 381.231C368.162 372.842 366.261 363.647 366.261 354.005C366.261 314.508 398.259 282.479 437.731 282.479C446.942 282.479 455.752 284.228 463.84 287.412C467.287 295.801 469.193 304.99 469.193 314.632Z" fill="white"/>
<path d="M418.065 359.715C434.799 355.728 445.134 338.92 441.151 322.172C437.167 305.425 420.372 295.081 403.638 299.068C386.904 303.055 376.568 319.864 380.552 336.611C384.536 353.358 401.331 363.702 418.065 359.715Z" fill="#EBF0FD"/>
<path d="M409.45 343.838C408.045 343.838 406.759 343.646 405.592 343.279C404.424 342.907 403.42 342.371 402.58 341.671C401.739 340.976 401.091 340.13 400.628 339.136C400.171 338.143 399.94 337.031 399.94 335.8C399.94 333.988 400.414 332.492 401.361 331.318C402.309 330.144 403.657 329.308 405.417 328.806C403.933 328.253 402.817 327.429 402.061 326.333C401.305 325.238 400.927 323.923 400.927 322.399C400.927 321.36 401.13 320.389 401.536 319.486C401.942 318.577 402.518 317.787 403.268 317.121C404.012 316.449 404.909 315.924 405.953 315.54C406.996 315.157 408.158 314.97 409.45 314.97C410.724 314.97 411.886 315.162 412.936 315.54C413.985 315.924 414.887 316.449 415.632 317.121C416.382 317.787 416.957 318.577 417.363 319.486C417.769 320.389 417.972 321.366 417.972 322.399C417.972 323.923 417.589 325.233 416.833 326.333C416.072 327.429 414.955 328.253 413.483 328.806C415.242 329.308 416.596 330.144 417.538 331.318C418.486 332.498 418.954 333.988 418.954 335.8C418.954 337.036 418.723 338.148 418.255 339.136C417.792 340.13 417.138 340.976 416.309 341.671C415.474 342.365 414.475 342.901 413.308 343.279C412.135 343.652 410.849 343.838 409.45 343.838ZM409.45 341.038C410.369 341.038 411.193 340.909 411.92 340.655C412.648 340.401 413.268 340.034 413.77 339.571C414.278 339.102 414.667 338.543 414.932 337.894C415.203 337.245 415.338 336.523 415.338 335.738C415.338 334.767 415.18 333.932 414.853 333.243C414.532 332.554 414.097 331.99 413.556 331.561C413.009 331.126 412.383 330.81 411.672 330.607C410.961 330.403 410.222 330.302 409.45 330.302C408.671 330.302 407.932 330.403 407.227 330.607C406.517 330.81 405.891 331.132 405.344 331.561C404.796 331.995 404.368 332.554 404.041 333.243C403.719 333.932 403.561 334.767 403.561 335.738C403.561 336.523 403.696 337.245 403.967 337.894C404.238 338.543 404.627 339.102 405.129 339.571C405.637 340.034 406.252 340.401 406.979 340.655C407.701 340.909 408.525 341.038 409.45 341.038ZM409.45 327.479C410.369 327.479 411.153 327.338 411.802 327.056C412.45 326.774 412.981 326.396 413.387 325.933C413.793 325.47 414.086 324.933 414.272 324.324C414.453 323.72 414.549 323.093 414.549 322.455C414.549 321.801 414.442 321.18 414.227 320.604C414.007 320.028 413.691 319.52 413.263 319.085C412.834 318.651 412.304 318.306 411.666 318.058C411.029 317.81 410.29 317.685 409.45 317.685C408.609 317.685 407.87 317.81 407.233 318.058C406.596 318.306 406.065 318.651 405.637 319.085C405.208 319.52 404.892 320.022 404.672 320.604C404.452 321.18 404.351 321.801 404.351 322.455C404.351 323.099 404.441 323.72 404.627 324.324C404.808 324.928 405.107 325.464 405.513 325.933C405.919 326.396 406.449 326.774 407.098 327.056C407.741 327.338 408.525 327.479 409.45 327.479Z" fill="#2C6DA6"/>
<path d="M412.163 57.0874H409.54V275.563H412.163V57.0874Z" fill="url(#paint4_linear)"/>
<path d="M480.767 288.281L478.28 287.44L526.314 145.577L528.801 146.424L480.767 288.281Z" fill="url(#paint5_linear)"/>
<path d="M261.721 367.942L152.415 367.823V47.3838H155.043V365.204L261.258 365.323C261.394 366.209 261.552 367.078 261.721 367.942Z" fill="url(#paint6_linear)"/>
<path d="M196.41 440.231L196.872 447.445L204.882 446.932L204.464 439.153L196.41 440.231Z" fill="#F9A387"/>
<path d="M195.303 452.399C194.504 452.4 193.886 451.478 193.902 450.312C193.949 447.514 194.348 443.045 196.52 444.381C199.618 446.286 203.786 446.428 204.95 444.455C206.12 442.482 212.665 447.783 215.309 448.252C217.953 448.711 217.049 451.914 214.865 452.125C213.049 452.299 199.668 452.377 195.303 452.399Z" fill="#6284B8"/>
<path d="M165.985 435.907L163.898 442.827L171.581 445.153L173.91 437.719L165.985 435.907Z" fill="#F9A387"/>
<path d="M166.908 447.601C165.454 449.421 159.808 446.235 162.924 443.752C163.32 442.334 164.168 440.145 165.454 441.348C167.291 443.064 170.076 444.138 171.117 443.408C172.158 442.684 181.058 447.637 182.778 448.511C184.498 449.384 186.119 454.427 174.843 452.607C173.594 452.257 168.769 452.777 166.908 447.601Z" fill="#6284B8"/>
<path d="M207.854 372.193V441.264C207.854 441.264 201.441 443.409 196.844 442.833C195.366 442.653 194.08 442.19 193.251 441.286L189.641 392.006L188.203 372.356L188.051 317.691H199.191L207.854 372.193Z" fill="#2C3051"/>
<path d="M226.033 270.019L224.065 275.924L211.199 277.008C209.422 276.872 207.725 276.195 206.343 275.072L200.46 270.29L198.564 268.749L195.784 251.713L209.744 266.384C211.357 268.078 213.579 269.065 215.92 269.122L226.033 270.019Z" fill="#688DC3"/>
<path opacity="0.2" d="M224.663 274.146L224.071 275.93L211.205 277.014C209.428 276.878 207.73 276.201 206.348 275.077L200.465 270.296V268.055L202.428 267.999C202.428 267.999 206.371 271.99 209.648 273.96C212.271 275.535 221.211 274.586 224.663 274.146Z" fill="#023B74"/>
<path d="M197.335 320.164V364.967C197.335 366.062 197.188 367.158 196.901 368.213L190.476 391.753L189.805 394.208L177.221 440.333C169.212 443.172 163.791 437.821 162.217 435.969C161.907 435.602 161.744 435.377 161.744 435.377C161.744 435.377 171.648 395.732 172.884 383.963C174.124 372.193 175.049 362.28 172.884 354.231C172.613 353.226 172.376 351.945 172.167 350.471C172.162 350.466 172.162 350.466 172.162 350.466C170.684 340.118 170.577 320.293 170.577 320.293L197.335 320.164Z" fill="#494970"/>
<path d="M200.888 319.695C197.668 322.348 185.637 323.144 177.069 321.942C171.637 321.185 167.604 319.616 168.084 317.217C168.777 313.768 168.885 301.665 169.014 289.212C169.014 289.207 169.014 289.207 169.014 289.207C169.11 279.306 169.217 269.184 169.629 263.014C170.56 249.077 180.459 244.431 180.459 244.431C214.51 236.692 200.888 319.695 200.888 319.695Z" fill="#7D9BC4"/>
<path d="M192.721 246.452C192.456 246.723 191.847 246.943 191.029 247.124C187.165 247.959 178.62 247.733 179.387 246.452C180.312 244.905 180.312 237.781 180.312 237.781C180.312 237.781 178.146 230.968 175.67 221.981C173.194 213 186.19 203.398 193.928 214.857C201.667 226.316 192.383 237.465 191.452 239.633C191.367 239.825 191.317 240.034 191.277 240.254C190.894 242.585 192.721 246.452 192.721 246.452Z" fill="#F9A387"/>
<path d="M179.849 236.291C179.849 236.291 170.723 226.627 172.889 219.192C175.055 211.758 175.986 207.112 180.938 207.112C185.89 207.112 184.96 203.398 188.987 204.945C193.009 206.491 196.726 205.255 198.271 208.659C199.817 212.069 197.036 216.404 193.009 216.093C188.987 215.783 185.58 214.547 184.96 217.64C184.339 220.739 186.195 219.808 185.89 222.286C185.58 224.764 183.414 220.118 183.104 222.907C182.794 225.695 179.393 225.385 179.697 228.484C180.002 231.583 182.168 231.707 179.849 236.291Z" fill="#0A111E"/>
<path opacity="0.5" d="M180.797 374.355C178.829 376.98 177.52 375.337 176.866 379.605C176.212 383.872 175.557 387.479 173.916 391.741C172.275 396.009 170.966 401.586 170.639 405.848C170.312 410.115 166.048 432.752 163.752 435.049C163.34 435.461 162.81 435.76 162.223 435.969C161.913 435.602 161.75 435.377 161.75 435.377C161.75 435.377 171.654 395.732 172.889 383.963C174.13 372.193 175.055 362.28 172.889 354.231C172.619 353.226 172.382 351.945 172.173 350.471C172.308 350.686 176.86 357.668 176.539 360.903C176.212 364.183 174.57 363.855 176.539 366.808C178.502 369.76 182.76 371.73 180.797 374.355Z" fill="#2C3051"/>
<path d="M196.844 442.833C195.366 442.652 194.08 442.19 193.251 441.286L189.805 394.213L190.476 391.758C191.412 395.207 192.963 400.965 194.238 405.853C196.207 413.4 193.911 410.776 196.207 415.698C198.502 420.62 196.207 419.965 194.898 425.215C193.584 430.465 194.898 430.465 197.194 434.4C199.061 437.606 197.487 441.506 196.844 442.833Z" fill="#20243A"/>
<path d="M201.368 441.778C200.223 441.778 199.467 441.614 199.411 441.603L199.552 440.959C199.58 440.965 202.451 441.575 205.587 440.321L205.829 440.931C204.143 441.608 202.547 441.778 201.368 441.778Z" fill="#12131E"/>
<path opacity="0.1" d="M192.721 246.452C192.456 246.723 191.847 246.943 191.029 247.124C188.914 243.884 184.802 239.859 187.357 240.497C188.925 240.886 190.374 240.581 191.283 240.265C190.893 242.585 192.721 246.452 192.721 246.452Z" fill="#441F37"/>
<path d="M456.344 425.165C456.344 425.165 458.561 428.027 458.589 429.172C458.617 430.318 457.015 432.204 457.015 432.204L466.649 427.84C466.649 427.84 463.147 423.048 462.532 421.591L456.344 425.165Z" fill="#F9A387"/>
<path d="M450.828 439.068C450.208 437.967 450.439 436.646 451.392 435.833C453.473 434.055 456.953 431.176 457.935 430.922C459.368 430.555 461.77 430.821 462.301 428.839C462.645 427.563 464.1 426.909 465.313 426.705C466.136 426.57 466.982 426.959 467.377 427.665L469.12 430.775L450.828 439.068Z" fill="#0A111E"/>
<path d="M401.417 434.58C401.417 434.58 402.343 438.08 401.925 439.147C401.502 440.214 399.291 441.326 399.291 441.326L409.867 441.072C409.867 441.072 408.508 435.291 408.513 433.705L401.417 434.58Z" fill="#F9A387"/>
<path d="M390.915 445.221C390.774 443.962 391.501 442.839 392.697 442.461C395.303 441.636 399.635 440.344 400.639 440.502C402.1 440.728 404.209 441.907 405.467 440.293C406.279 439.249 407.876 439.215 409.071 439.508C409.884 439.706 410.51 440.394 410.6 441.196L410.989 444.741L390.915 445.221Z" fill="#0A111E"/>
<path d="M466.655 421.106C466.356 421.625 466.017 422.105 465.651 422.545C461.68 427.343 454.522 427.343 454.522 427.343C454.522 427.343 425.344 378.458 422.721 372.554C420.098 366.649 418.79 343.353 418.79 343.353L416.167 316.116C416.167 316.116 433.54 310.866 437.149 314.473C438.661 315.986 439.479 321.128 439.902 327.513C440.483 336.358 440.291 347.586 440.099 354.829C439.772 367.298 466.655 421.106 466.655 421.106Z" fill="#0191D9"/>
<path d="M413.544 368.28C409.28 373.53 413.381 432.751 413.381 432.751C412.586 433.473 411.773 434.055 410.961 434.512C404.39 438.221 397.644 434.06 397.644 434.06L392.398 366.146L407.481 314.309L431.447 314.456L434.527 314.478C436.823 324.972 417.809 363.03 413.544 368.28Z" fill="#0CA1F0"/>
<path d="M410.002 248.812L404.085 256.658L406.133 260.598L410.431 255.58L414.052 250.291L410.002 248.812Z" fill="#F9A387"/>
<path d="M410.415 269.687C410.415 291.25 392.952 308.727 371.405 308.727C355.121 308.727 341.167 298.741 335.323 284.55C333.439 279.972 332.396 274.953 332.396 269.692C332.396 248.134 349.859 230.652 371.405 230.652C376.431 230.652 381.242 231.606 385.653 233.344C400.149 239.035 410.415 253.164 410.415 269.687Z" fill="url(#paint7_linear)"/>
<path opacity="0.1" d="M388.58 248.196C388.58 269.76 371.117 287.237 349.57 287.237C344.539 287.237 339.739 286.288 335.317 284.55C333.433 279.972 332.39 274.953 332.39 269.692C332.39 248.134 349.852 230.652 371.399 230.652C376.425 230.652 381.236 231.606 385.647 233.344C387.542 237.917 388.58 242.935 388.58 248.196Z" fill="white"/>
<path d="M365.591 270.772C373.607 265.88 376.143 255.41 371.256 247.388C366.368 239.365 355.907 236.827 347.89 241.719C339.874 246.611 337.338 257.08 342.226 265.103C347.114 273.125 357.575 275.663 365.591 270.772Z" fill="#EBF0FD"/>
<path d="M358.753 251.16V251.781C358.753 251.956 358.736 252.102 358.697 252.215C358.657 252.328 358.618 252.424 358.578 252.503L353.964 261.823C353.897 261.959 353.801 262.071 353.682 262.167C353.564 262.263 353.4 262.314 353.203 262.314H352.216L356.903 253.107C356.971 252.977 357.038 252.859 357.112 252.746C357.179 252.639 357.258 252.531 357.349 252.435H351.528C351.437 252.435 351.358 252.402 351.291 252.328C351.223 252.26 351.184 252.181 351.184 252.091V251.148H358.753V251.16Z" fill="black"/>
<path d="M436.823 277.725C435.841 282.975 442.722 312.176 438.791 314.473C438.622 314.569 438.419 314.665 438.176 314.75C432.682 316.742 408.632 316.443 408.632 316.443C408.632 316.443 403.713 318.413 403.059 308.896C402.54 301.388 403.657 271.222 409.946 252.695C408.598 251.476 407.622 251.538 408.141 250.33C408.632 249.184 410.814 246.666 412.868 244.442C414.926 242.218 416.861 240.282 416.861 240.282C423.703 233.666 434.758 231.459 441.414 240.976C443.315 243.691 443.89 247.31 443.709 251.227C443.23 261.524 437.533 273.926 436.823 277.725Z" fill="#892068"/>
<path d="M429.558 269.822L428.965 269.545C438.075 249.98 430.889 243.59 430.815 243.528L431.238 243.025C431.549 243.296 438.876 249.805 429.558 269.822Z" fill="#681852"/>
<path d="M427.313 268.868C427.313 268.868 426.901 269.726 426.207 271.092C423.376 276.641 415.789 290.59 411.582 289.54C410.228 289.201 407.193 288.36 403.431 287.299C392.63 284.245 375.849 279.368 375.849 279.368C375.849 279.368 365.031 273.79 367.981 270.838C370.931 267.886 377.491 274.445 377.158 273.463C376.402 271.194 374.862 270.183 376.176 269.856C378.043 269.387 379.053 271.781 379.651 273.017C380.514 274.801 382.279 275.981 384.242 276.218L406.793 278.916C406.844 278.922 406.9 278.927 406.951 278.927C409.105 279.119 411.142 277.9 411.999 275.907C412.01 275.879 412.027 275.845 412.038 275.817L415.519 265.267L427.313 268.868Z" fill="#F9A387"/>
<path d="M428.627 271.493C428.627 271.493 427.888 271.639 426.721 271.679C426.467 271.69 426.196 271.69 425.903 271.69C424.82 271.685 423.494 271.572 422.09 271.239C419.128 270.533 415.789 268.828 413.544 264.939C413.544 264.939 418.463 239.678 428.627 241.975C428.875 242.032 429.118 242.105 429.343 242.19C438.295 245.588 428.627 271.493 428.627 271.493Z" fill="#892068"/>
<path opacity="0.2" d="M428.627 271.493C428.627 271.493 427.888 271.64 426.72 271.679C427.566 269.224 430.618 260.22 431.74 254.598C432.863 248.992 430.15 243.618 429.343 242.179C438.295 245.588 428.627 271.493 428.627 271.493Z" fill="#681852"/>
<path d="M425.903 271.685C422.862 277.572 415.643 290.556 411.582 289.534C410.228 289.195 407.193 288.354 403.431 287.293L403.747 287.225C403.747 287.225 403.882 287.259 404.125 287.321C405.603 287.688 410.95 288.947 412.072 288.382C413.206 287.812 423.545 276.573 422.09 271.228C423.494 271.566 424.82 271.679 425.903 271.685Z" fill="#DC907F"/>
<path d="M411.993 275.901C411.632 277.369 410.064 283.567 409.777 281.829C409.489 280.118 407.475 279.153 406.951 278.927C409.105 279.113 411.142 277.9 411.993 275.901Z" fill="#DC907F"/>
<path opacity="0.7" d="M438.791 314.473C438.622 314.569 438.419 314.665 438.176 314.75C436.259 313.147 432.57 309.613 433.055 306.435C433.709 302.168 434.696 296.918 433.055 292.328C431.413 287.733 430.432 284.126 433.055 282.156C435.678 280.186 438.628 269.687 439.282 266.08C439.829 263.065 441.752 252.944 443.71 251.233C443.236 261.524 437.539 273.926 436.823 277.725C435.836 282.975 442.723 312.176 438.791 314.473Z" fill="#681852"/>
<path d="M435.294 236.5C432.942 239.926 424.978 239.356 421.345 238.893C420.217 238.752 419.506 238.617 419.506 238.617C419.506 238.617 423.72 233.847 419.687 229.444C419.636 229.387 419.585 229.331 419.534 229.269C415.62 224.894 414.193 219.435 414.554 211.832C414.921 204.126 422.986 195.326 431.047 202.659C439.113 209.997 436.913 218.064 433.613 223.567C430.319 229.082 435.294 236.5 435.294 236.5Z" fill="#F9A387"/>
<path d="M417.673 207.987C417.673 207.987 408.874 204.318 411.807 198.814C414.74 193.311 416.207 199.548 421.339 198.814C426.472 198.081 434.171 196.246 436.732 201.016C439.299 205.786 435.982 223.325 432.694 225.927C429.4 228.529 435.632 218.622 432.699 214.592C429.766 210.556 428.666 209.822 427.567 213.858C426.467 217.894 422.067 217.527 422.434 212.757C422.8 207.987 421.7 210.189 417.673 207.987Z" fill="#4C322B"/>
<path d="M426.41 229.303C426.072 229.534 424.131 230.838 422.8 231.832C421.334 232.932 423.55 236.793 421.339 238.899C420.211 238.758 419.5 238.622 419.5 238.622C419.5 238.622 423.714 233.852 419.681 229.449C419.63 229.393 419.579 229.337 419.529 229.274C419.901 229.438 423.635 230.985 426.41 229.303Z" fill="#DA8E7E"/>
</g>
<defs>
<linearGradient id="paint0_linear" x1="333.174" y1="92.0929" x2="542" y2="92.0929" gradientUnits="userSpaceOnUse">
<stop stop-color="#FFC546"/>
<stop offset="1" stop-color="#F7A803"/>
</linearGradient>
<linearGradient id="paint1_linear" x1="152.518" y1="182.583" x2="410.849" y2="182.583" gradientUnits="userSpaceOnUse">
<stop stop-color="#EDEEFB"/>
<stop offset="1" stop-color="#D9DDF9"/>
</linearGradient>
<linearGradient id="paint2_linear" x1="152.518" y1="28.544" x2="410.849" y2="28.544" gradientUnits="userSpaceOnUse">
<stop stop-color="#4771AF"/>
<stop offset="1" stop-color="#375788"/>
</linearGradient>
<linearGradient id="paint3_linear" x1="366.254" y1="354.002" x2="509.189" y2="354.002" gradientUnits="userSpaceOnUse">
<stop stop-color="#0CDCF9"/>
<stop offset="0.3808" stop-color="#0BCBE6"/>
<stop offset="1" stop-color="#08A8BE"/>
</linearGradient>
<linearGradient id="paint4_linear" x1="409.537" y1="166.325" x2="412.161" y2="166.325" gradientUnits="userSpaceOnUse">
<stop stop-color="#4771AF"/>
<stop offset="1" stop-color="#375788"/>
</linearGradient>
<linearGradient id="paint5_linear" x1="478.28" y1="216.93" x2="528.799" y2="216.93" gradientUnits="userSpaceOnUse">
<stop stop-color="#FFC546"/>
<stop offset="1" stop-color="#F7A803"/>
</linearGradient>
<linearGradient id="paint6_linear" x1="152.416" y1="207.661" x2="261.721" y2="207.661" gradientUnits="userSpaceOnUse">
<stop stop-color="#4771AF"/>
<stop offset="1" stop-color="#375788"/>
</linearGradient>
<linearGradient id="paint7_linear" x1="332.398" y1="269.684" x2="410.412" y2="269.684" gradientUnits="userSpaceOnUse">
<stop stop-color="#4771AF"/>
<stop offset="1" stop-color="#375788"/>
</linearGradient>
<clipPath id="clip0">
<rect x="109" width="433" height="459" fill="white"/>
</clipPath>
</defs>
</svg>
