<svg width="533" height="500" viewBox="0 0 533 500" fill="none" xmlns="http://www.w3.org/2000/svg">
<g opacity="0.9">
<path opacity="0.7" d="M491.913 477.164C491.822 474.029 469.783 471.393 433.385 469.591C427.992 469.333 427.523 466.228 432.794 465.637C440.655 464.759 444.911 463.85 444.911 462.956C444.79 459.048 362.087 456.791 260.117 457.927C158.146 459.063 75.731 463.168 75.8522 467.016C75.8522 468.015 81.29 468.909 90.9993 469.666C94.1953 469.909 94.0287 471.787 90.7873 471.969C38.9539 474.877 6.19068 478.694 6.31186 482.572C6.43304 486.449 38.7721 489.448 89.8481 491.206C93.6349 491.327 96.013 492.72 95.907 494.235C96.0282 498.158 178.731 500.415 280.702 499.264C382.672 498.113 465.087 494.038 464.966 490.176C464.966 489.6 463.088 489.055 459.604 488.54C453.985 487.737 454.606 484.42 460.437 483.814C480.568 481.708 491.989 479.451 491.913 477.164Z" fill="#297AFF" fill-opacity="0.15"/>
<path opacity="0.7" d="M146.165 484.754C173.144 484.754 195.014 482.577 195.014 479.892C195.014 477.206 173.144 475.029 146.165 475.029C119.186 475.029 97.3154 477.206 97.3154 479.892C97.3154 482.577 119.186 484.754 146.165 484.754Z" fill="#18212D"/>
<path opacity="0.7" d="M399.47 477.755C399.47 479.936 383.778 481.709 364.435 481.709C345.092 481.709 329.384 479.936 329.384 477.755C329.384 475.574 345.077 473.817 364.435 473.817C383.793 473.817 399.47 475.604 399.47 477.755Z" fill="#141C28"/>
<path d="M402.196 163.983L408.073 152.017L409.573 152.926L403.575 165.074L402.196 163.983Z" fill="#39B5A9"/>
<path d="M263.601 74.1909C265.718 69.7467 267.104 64.9899 267.705 60.104C268.22 53.6665 268.448 34.0207 271.204 33.6118C276.415 32.8241 278.172 53.4999 277.854 58.1804C277.43 64.0423 277.203 70.5859 274.431 75.0694C271.659 79.5529 263.601 74.1909 263.601 74.1909Z" fill="#F9BBC1"/>
<g style="mix-blend-mode:multiply" opacity="0.17">
<path d="M263.601 74.1909C265.718 69.7467 267.104 64.9899 267.705 60.104C268.22 53.6665 268.448 34.0207 271.204 33.6118C276.415 32.8241 278.172 53.4999 277.854 58.1804C277.43 64.0423 277.203 70.5859 274.431 75.0694C271.659 79.5529 263.601 74.1909 263.601 74.1909Z" fill="#F9BBC1"/>
</g>
<path d="M162.206 382.237C162.206 382.237 154.359 391.098 152.451 393.779C150.542 396.46 150.149 398.99 153.284 402.413C156.42 405.837 171.461 415.258 176.489 419.742C181.518 424.225 189.47 428.345 191.182 423.513C192.894 418.681 190.046 415.303 187.835 411.789C185.623 408.275 174.202 394.128 174.99 388.766C175.778 383.404 162.206 382.237 162.206 382.237Z" fill="#575A89"/>
<path d="M123.899 352.187C123.899 352.187 113.371 357.609 110.615 359.412C107.858 361.214 106.586 363.426 108.267 367.758C109.948 372.09 120.491 386.313 123.611 392.326C126.731 398.34 132.578 405.065 135.925 401.172C139.273 397.279 137.834 393.099 137.061 389.055C136.289 385.01 130.821 367.682 133.441 362.941C136.062 358.2 123.899 352.187 123.899 352.187Z" fill="#575A89"/>
<path d="M233.624 217.225C233.624 217.225 249.18 225.465 249.862 228.313C250.543 231.16 245.59 228.222 244.515 228.192C243.439 228.161 256.148 237.583 254.557 241.824C252.967 246.065 243.303 245.883 236.881 240.521C230.458 235.159 228.656 222.254 228.656 222.254L233.624 217.225Z" fill="#F9BBC1"/>
<path d="M215.948 136.445C215.948 136.445 210.48 161.893 208.162 178.509L240.88 218.74L228.929 232.039C228.929 232.039 190.516 200.851 186.941 195.337C181.867 187.567 175.096 143.913 177.989 133.234C180.882 122.556 215.948 136.445 215.948 136.445Z" fill="#1154C1"/>
<path d="M183.396 213.938L156.768 208.136C157.108 226.055 159.404 243.882 163.614 261.303C170.385 287.522 176.217 298.549 176.217 298.549C176.217 298.549 162.206 321.27 162.493 330.192C162.781 339.113 156.783 387.236 156.783 387.236L176.353 392.143C176.353 392.143 204.527 318.422 206.738 303.169C208.95 287.916 202.436 217.739 202.436 217.739L183.396 213.938Z" fill="#FF285A"/>
<g style="mix-blend-mode:multiply" opacity="0.25">
<path d="M183.396 213.938L156.768 208.136C157.108 226.055 159.404 243.882 163.614 261.303C170.385 287.522 176.217 298.549 176.217 298.549C176.217 298.549 162.206 321.27 162.493 330.192C162.781 339.113 156.783 387.236 156.783 387.236L176.353 392.143C176.353 392.143 204.527 318.422 206.738 303.169C208.95 287.916 202.436 217.739 202.436 217.739L183.396 213.938Z" fill="#AF2045"/>
</g>
<g style="mix-blend-mode:multiply" opacity="0.2">
<path d="M189.683 261.485L163.493 234.614C163.493 234.614 179.67 287.432 179.564 290.219C179.564 291.809 169.37 314.697 163.857 334.251C161.335 343.278 159.956 352.585 159.752 361.955L200.482 324.088L189.683 261.485Z" fill="#AF2045"/>
</g>
<path d="M182.821 207.728L160.328 211.954C160.328 211.954 159.54 214.983 162.418 229.933C166.417 250.745 182.003 275.587 183.715 279.373C185.427 283.16 187.123 287.416 183.351 288.674C179.58 289.931 167.977 294.566 155.405 309.88C142.833 325.193 121.354 350.853 121.354 350.853L134.669 366.954C134.669 366.954 174.142 345.036 194.303 329.086C214.464 313.136 218.947 305.684 219.265 297.504C219.583 289.325 222.219 236.113 213.206 217.846C209.662 210.59 182.821 207.728 182.821 207.728Z" fill="#EB4252"/>
<g style="mix-blend-mode:multiply" opacity="0.15">
<g style="mix-blend-mode:multiply" opacity="0.15">
<path d="M183.321 288.673C179.549 289.915 167.946 294.566 155.374 309.879C147.407 319.589 135.88 333.418 128.503 342.279C137.077 334.705 151.421 322.148 161.206 313.409C175.99 300.231 188.168 297.413 192.091 296.747C196.014 296.08 194.984 291.642 193.894 287.659C192.803 283.675 181.776 256.668 180.473 235.522C179.844 226.401 179.92 217.245 180.7 208.136L160.297 211.968C160.297 211.968 159.51 214.998 162.387 229.948C166.386 250.76 181.973 275.601 183.684 279.388C185.396 283.175 187.123 287.416 183.321 288.673Z" fill="#AF2045"/>
</g>
<g style="mix-blend-mode:multiply" opacity="0.15">
<path d="M133.805 365.908L134.668 366.954C134.668 366.954 137.531 365.363 142.09 362.743C138.44 364.151 135.547 365.257 133.805 365.908Z" fill="#AF2045"/>
</g>
<g style="mix-blend-mode:multiply" opacity="0.15">
<path d="M122.081 350.005L121.354 350.853L125.716 356.139L122.081 350.005Z" fill="#AF2045"/>
</g>
</g>
<path d="M209.874 86.4451L195.863 76.7661C195.863 76.7661 190.849 108.742 184.215 116.891C177.58 125.04 208.344 125.161 208.344 125.161C208.344 125.161 210.767 107.121 214.282 101.471C217.796 95.8212 209.874 86.4451 209.874 86.4451Z" fill="#F9BBC1"/>
<g style="mix-blend-mode:multiply" opacity="0.36">
<path d="M209.874 86.4451L195.863 76.7661C195.863 76.7661 190.849 108.742 184.215 116.891C177.58 125.04 208.344 125.161 208.344 125.161C208.344 125.161 210.767 107.121 214.282 101.471C217.796 95.8212 209.874 86.4451 209.874 86.4451Z" fill="#F9BBC1"/>
</g>
<path d="M187.547 109.272C187.547 109.272 192.303 118.24 207.238 119.239C207.238 119.239 215.175 136.401 216.038 145.747C216.902 155.092 215.963 163.666 216.462 181.903C216.962 200.14 217.75 228.647 217.75 228.647C217.75 228.647 198.437 232.903 187.592 230.449C176.747 227.995 157.298 219.528 155.389 215.817C153.481 212.106 166.871 162.06 166.871 162.06C166.871 162.06 178.065 113.62 187.547 109.272Z" fill="#2C75EC"/>
<path opacity="0.77" d="M215.009 154.424L207.556 160.528L216.826 200.047L216.417 153.333L215.009 154.424Z" fill="#1154C1"/>
<path d="M196.605 124.01L208.087 119.269C218.355 119.328 228.594 118.143 238.578 115.74L263.858 70.541L276.536 74.5399C276.536 74.5399 260.268 124.828 256.482 130.13C251.119 137.703 218.614 159.288 207.556 160.53C196.499 161.772 196.605 124.01 196.605 124.01Z" fill="#2C75EC"/>
<path d="M218.387 111.785C228.954 110.458 235.977 97.1087 234.076 81.969C232.174 66.8292 222.066 55.6321 211.5 56.9594C200.934 58.2868 193.91 71.636 195.812 86.7757C197.714 101.915 207.821 113.113 218.387 111.785Z" fill="#F9BBC1"/>
<g style="mix-blend-mode:multiply" opacity="0.36">
<path d="M207.814 84.0525C208.284 72.0257 212.207 61.9377 219.856 58.4538C217.287 57.1281 214.381 56.6006 211.51 56.9391C200.907 58.2721 193.924 71.6167 195.817 86.7486C197.711 101.881 207.829 113.089 218.402 111.757C218.912 111.697 219.418 111.606 219.916 111.484C211.389 108.333 207.299 97.1698 207.814 84.0525Z" fill="#F9BBC1"/>
</g>
<path d="M218.841 75.2662C222.522 75.5994 232.216 77.1898 237.729 73.7514C244.243 69.7223 243.788 52.1517 230.459 53.5755C217.129 54.9993 213.797 54.2874 206.541 54.6812C198.316 55.1357 187.577 60.1342 184.608 70.8432C182.261 79.3256 188.001 96.4267 187.335 103.531C186.668 110.635 198.892 107.696 198.589 97.4718C198.12 81.0221 209.722 74.4482 218.841 75.2662Z" fill="#4F555D"/>
<path d="M207.814 81.4004C207.814 81.4004 206.662 72.3121 200.755 74.5084C195.317 76.5684 194.257 86.2323 201.906 88.9133" fill="#F9BBC1"/>
<path d="M238.578 115.739L244.97 114.225L256.512 83.688L238.578 115.739Z" fill="#1154C1"/>
<g style="mix-blend-mode:multiply" opacity="0.36">
<path d="M207.814 81.4004C207.814 81.4004 206.662 72.3121 200.755 74.5084C195.317 76.5684 194.257 86.2323 201.906 88.9133" fill="#F9BBC1"/>
</g>
<path opacity="0.44" d="M197.65 56.8477C194.545 58.0309 191.753 59.9127 189.492 62.3476C187.23 64.7824 185.559 67.705 184.608 70.889C182.261 79.3714 188.001 96.4725 187.335 103.576C186.668 110.68 198.892 107.742 198.589 97.5176C198.527 95.6119 198.649 93.7047 198.953 91.8223C196.634 89.3214 194.85 86.3739 193.71 83.1601C192.569 79.9464 192.095 76.5337 192.318 73.1308C192.833 67.8596 195.439 61.6038 197.65 56.8477Z" fill="#2E3134"/>
<path d="M291.062 77.1148C291.062 77.1148 286.518 69.6775 283.943 63.9065C281.368 58.1355 280.429 40.4891 277.702 40.4133C272.568 40.277 272.552 58.8019 273.431 63.3006C274.521 68.9353 275.976 75.1759 279.187 79.2051C282.398 83.2342 291.062 77.1148 291.062 77.1148Z" fill="#F9BBC1"/>
<path d="M359.482 146.836L355.483 135.824L351.454 125.736L339.775 127.054L311.344 115.224L290.441 72.2515L275.491 76.3563C275.491 76.3563 283.337 120.465 289.442 129.265C295.546 138.066 341.851 171.147 341.851 171.147L359.482 146.836Z" fill="#FFCB00"/>
<path d="M367.146 398.642C367.146 398.642 374.205 407.806 375.901 410.533C377.598 413.259 377.794 415.758 374.507 418.894C371.221 422.029 355.998 430.224 350.757 434.253C345.516 438.282 336.503 446.371 335.155 441.478C333.807 436.586 337.852 429.042 340.23 425.755C342.608 422.469 354.604 409.442 354.271 404.171C353.938 398.9 367.146 398.642 367.146 398.642Z" fill="#A29FBC"/>
<path d="M469.601 255.866C469.601 255.866 477.705 247.61 480.204 245.566C482.703 243.521 485.112 242.975 488.671 245.808C492.231 248.64 502.44 262.667 507.151 267.211C511.861 271.755 521.041 279.677 516.436 281.661C511.831 283.645 503.758 280.707 500.168 278.783C496.578 276.859 481.991 266.771 476.872 267.847C471.752 268.922 469.601 255.866 469.601 255.866Z" fill="#A29FBC"/>
<path d="M369.872 229.04L393.547 215.892C397.099 225.678 400.063 235.668 402.424 245.808C405.923 261.349 404.075 273.072 408.301 273.527C409.815 273.678 413.027 266.998 431.87 264.211C449.486 261.621 471.54 253.048 471.54 253.048L481.719 269.528C481.719 269.528 439.913 302.852 427.068 307.396C414.223 311.94 404.347 316.742 398.061 315.651C391.775 314.56 370.796 293.097 368.343 285.16C365.889 277.223 369.872 229.04 369.872 229.04Z" fill="#5E88C9"/>
<path opacity="0.31" d="M397.94 310.774C382.339 293.688 389.458 245.369 389.458 245.369L367.525 271.119C367.434 277.617 367.616 282.903 368.297 285.1C370.781 293.037 391.715 314.515 398.016 315.591C400.879 316.09 404.484 315.348 408.755 313.97C406.089 314.243 401.787 315 397.94 310.774Z" fill="#2D5697"/>
<path d="M395.062 226.314C395.062 226.314 397.198 244.99 383.05 267.211C375.401 279.207 364.677 294.249 363.571 296.945C362.466 299.641 355.059 306.987 359.118 312.258C363.178 317.53 367.373 331.253 369.479 347.354C371.584 363.456 374.023 405.292 374.023 405.292L351.211 409.503C351.211 409.503 336.897 369.454 333.368 354.822C329.839 340.19 324.007 321.498 324.28 313.925C324.552 306.351 330.884 250.852 341.199 228.737C351.514 206.623 395.062 226.314 395.062 226.314Z" fill="#5E88C9"/>
<g style="mix-blend-mode:multiply" opacity="0.15">
<g style="mix-blend-mode:multiply" opacity="0.15">
<path d="M369.251 406.033L374.038 405.14V404.428L369.251 406.033Z" fill="#2E78EC"/>
</g>
<g style="mix-blend-mode:multiply" opacity="0.15">
<path d="M395.062 226.313C387.105 222.874 378.766 220.397 370.221 218.937C370.993 227.873 371.569 248.382 363.374 266.483C357.512 279.434 349.045 295.869 348.349 298.686C347.652 301.503 341.366 309.849 346.137 314.484C350.908 319.119 357.013 332.101 361.405 347.808C365.298 361.713 372.387 395.688 373.902 403.065C373.372 394.204 371.296 361.228 369.479 347.354C367.373 331.252 363.178 317.514 359.118 312.258C355.059 307.002 362.466 299.625 363.571 296.944C364.677 294.263 375.401 279.207 383.05 267.21C397.198 244.914 395.062 226.313 395.062 226.313Z" fill="#2E78EC"/>
</g>
</g>
<path d="M375.25 118.981C375.25 118.981 377.461 117.739 386.958 122.147C395.395 126.055 400.242 138.597 399.394 168.845C399.046 181.539 403.635 225.268 401.56 233.251C400.984 235.478 365.783 235.402 356.967 236.674C348.151 237.947 337.351 234.599 337.382 233.402C337.412 232.206 334.595 170.663 336.761 158C338.927 145.337 342.895 128.372 351.438 125.737C359.981 123.101 375.25 118.981 375.25 118.981Z" fill="#FFCB00"/>
<path d="M358.179 99.0773L370.297 91.7007C370.297 91.7007 369.782 113.164 376.946 119.738C376.946 119.738 371.887 130.583 351.908 128.084L350.105 110.135L358.179 99.0773Z" fill="#F9BBC1"/>
<g style="mix-blend-mode:multiply" opacity="0.36">
<path d="M358.179 99.0773L370.297 91.7007C370.297 91.7007 369.782 113.164 376.946 119.738C376.946 119.738 371.887 130.583 351.908 128.084L350.105 110.135L358.179 99.0773Z" fill="#F9BBC1"/>
</g>
<path d="M371.425 96.6802C373.953 81.9973 367.695 68.664 357.448 66.8995C347.2 65.1349 336.843 75.6073 334.315 90.2902C331.787 104.973 338.045 118.306 348.292 120.071C358.54 121.835 368.896 111.363 371.425 96.6802Z" fill="#F9BBC1"/>
<g style="mix-blend-mode:multiply" opacity="0.36">
<path d="M357.513 66.92C355.09 66.5141 352.603 66.7544 350.303 67.6168C358.103 71.3127 363.178 82.3095 362.132 94.7907C361.087 107.272 354.438 117.042 346.273 119.556C346.95 119.788 347.644 119.965 348.349 120.086C358.603 121.859 368.964 111.392 371.493 96.6992C374.023 82.0065 367.767 68.6771 357.513 66.92Z" fill="#F9BBC1"/>
</g>
<g style="mix-blend-mode:multiply">
<path d="M391.487 163.013L379.067 154.925L388.731 180.645L374.341 221.421L401.242 188.854L401.818 167.845L391.487 163.013Z" fill="#FFCB00"/>
</g>
<path d="M351.863 86.6571C346.788 88.9443 331.702 90.5651 327.294 85.3999C322.583 79.8409 323.992 66.4206 335.625 64.4363C347.258 62.452 349.394 65.3148 357.649 63.1185C367.813 60.4223 377.007 61.3615 381.884 70.6921C386.519 79.5834 386.974 86.7177 380.93 99.1232C378.864 103.169 377.487 107.53 376.855 112.029C376.797 112.569 376.563 113.075 376.189 113.47C375.815 113.864 375.323 114.125 374.786 114.213C374.25 114.301 373.7 114.21 373.22 113.955C372.74 113.7 372.357 113.295 372.129 112.801C370.418 109.181 368.767 103.319 368.206 93.8974C367.51 81.81 360.542 82.7643 351.863 86.6571Z" fill="#4F555E"/>
<path opacity="0.44" d="M376.87 112.058C377.502 107.56 378.879 103.198 380.945 99.1527C387.004 86.7472 386.534 79.613 381.899 70.7216C378.415 64.0569 372.811 61.6333 366.116 61.8151C378.233 65.7988 374.75 84.2177 367.767 90.4583C368.011 91.6004 368.163 92.7604 368.221 93.927C368.782 103.348 370.433 109.21 372.144 112.831C372.372 113.324 372.755 113.73 373.235 113.985C373.715 114.24 374.265 114.33 374.801 114.243C375.338 114.155 375.83 113.894 376.204 113.499C376.578 113.105 376.812 112.598 376.87 112.058Z" fill="#2C3137"/>
<path d="M379.764 220.057C379.764 220.057 367.752 228.221 367.449 230.66C367.146 233.099 370.948 230.191 371.827 230.069C372.705 229.948 363.147 238.824 364.844 242.187C366.54 245.55 374.432 244.505 379.218 239.521C384.005 234.538 384.293 223.798 384.293 223.798L379.764 220.057Z" fill="#F9BBC1"/>
<path d="M393.714 127.206C397.198 130.402 406.574 141.111 409.724 146.731C420.115 165.18 423.766 175.268 423.008 180.706C423.008 180.706 420.524 186.371 416.45 193.884C409.622 206.395 400.52 217.521 389.609 226.692L388.322 227.783L374.341 221.421C374.341 221.421 393.865 182.22 398.319 179.009C398.319 179.009 377.113 158.985 376.174 145.791C375.068 130.629 380.551 115.134 393.714 127.206Z" fill="#FFCB00"/>
<g style="mix-blend-mode:multiply" opacity="0.42">
<g style="mix-blend-mode:multiply" opacity="0.42">
<path d="M374.341 221.42L374.674 220.663C374.477 221.148 374.341 221.42 374.341 221.42Z" fill="#FFCB00"/>
</g>
<g style="mix-blend-mode:multiply" opacity="0.42">
<path d="M409.724 146.73C406.574 141.11 397.198 130.401 393.714 127.205C388.382 122.328 384.323 121.949 381.445 124.176C383.003 124.909 384.472 125.818 385.822 126.887C389.549 129.795 397.94 139.671 401.53 145.063C413.329 162.634 417.783 172.404 417.45 177.872C417.04 182.623 415.794 187.263 413.769 191.58C407.961 204.596 399.773 216.411 389.624 226.419L388.428 227.6L386.368 226.858L388.322 227.752L389.609 226.661C400.52 217.49 409.622 206.363 416.45 193.852C420.524 186.279 423.008 180.674 423.008 180.674C423.766 175.267 420.115 165.179 409.724 146.73Z" fill="#FFCB00"/>
</g>
</g>
<g style="mix-blend-mode:multiply" opacity="0.52">
<path d="M336.534 151.033L336.094 166.998C336.094 166.998 301.468 141.596 295.409 135.431C289.35 129.266 287.927 128.1 285.761 120.845C283.595 113.589 280.959 103.107 280.959 103.107C280.959 103.107 290.759 122.89 295.061 127.525C308.36 141.823 336.534 151.033 336.534 151.033Z" fill="#FFCB00"/>
</g>
<path d="M362.966 88.7629C362.966 88.7629 364.314 82.704 368.313 84.0521C372.312 85.4002 372.16 96.4879 366.101 96.9878" fill="#F9BBC1"/>
<g style="mix-blend-mode:multiply" opacity="0.36">
<path d="M366.101 96.987C372.16 96.4872 372.312 85.3843 368.313 84.0514C364.314 82.7184 362.966 88.7621 362.966 88.7621" fill="#F9BBC1"/>
</g>
<g opacity="0.74">
<path opacity="0.74" d="M241.788 21.2056L263.433 42.0783L238.077 25.9315L241.788 21.2056Z" fill="#446292"/>
</g>
<g opacity="0.74">
<path opacity="0.74" d="M309.451 26.6588L285.17 44.381L305.437 22.1753L309.451 26.6588Z" fill="#446292"/>
</g>
<g opacity="0.74">
<path opacity="0.74" d="M255.497 0.697266L266.872 28.5377L250.18 3.51463L255.497 0.697266Z" fill="#446292"/>
</g>
<g opacity="0.74">
<path opacity="0.74" d="M299.681 7.61962L282.989 32.6275L294.364 4.78711L299.681 7.61962Z" fill="#446292"/>
</g>
<g opacity="0.74">
<path opacity="0.74" d="M279.535 0L276.991 29.9004L273.522 0.106029L279.535 0Z" fill="#446292"/>
</g>
<path d="M182.048 265.695C173.62 264.634 165.125 264.193 156.632 264.377C146.029 264.816 127.731 271.269 120.945 273.784L119.703 249.185C126.858 245.409 134.505 242.65 142.424 240.99C148.896 239.646 155.509 239.102 162.115 239.369C167.91 239.553 173.657 240.479 179.216 242.126L182.048 265.695Z" fill="#91D96F"/>
<path d="M148.24 241.611C152.784 241.232 156.752 245.519 157.328 251.199C157.903 256.879 154.571 261.802 150.088 262.181C145.604 262.56 141.575 258.273 141.09 252.593C140.605 246.913 143.756 242.005 148.24 241.611Z" fill="#7AB161"/>
<path d="M44.2458 220.345C38.8717 217.254 33.2778 214.562 27.5092 212.291C20.2484 209.597 6.11262 208.78 0.835975 208.559L6.93647 191.651C12.8174 191.127 18.7427 191.427 24.5406 192.542C29.2763 193.463 33.8812 194.961 38.2519 197.004C42.1006 198.762 45.7079 201.006 48.9853 203.682L44.2458 220.345Z" fill="#91D96F"/>
<path d="M28.2805 194.6C31.446 195.627 32.9084 199.631 31.6941 203.617C30.4798 207.602 26.8487 209.976 23.724 208.967C20.5993 207.958 19.096 203.936 20.3715 199.976C21.647 196.016 25.1516 193.601 28.2805 194.6Z" fill="#7AB161"/>
<path d="M464.326 192.152C468.489 187.811 472.323 183.166 475.796 178.256C480.012 172.037 484.003 158.872 485.414 153.938L500.116 163.735C499.277 169.418 497.644 174.946 495.264 180.16C493.311 184.416 490.838 188.41 487.9 192.054C485.352 195.272 482.396 198.146 479.105 200.605L464.326 192.152Z" fill="#91D96F"/>
<path d="M492.455 183.203C490.759 185.95 486.615 186.377 483.099 184.279C479.582 182.181 478.149 178.184 479.82 175.471C481.491 172.759 485.66 172.297 489.138 174.447C492.617 176.597 494.118 180.485 492.455 183.203Z" fill="#7AB161"/>
<g filter="url(#filter0_f)">
<path d="M245.645 298.13C251.524 295.209 257.185 291.85 262.583 288.079C269.234 283.233 278.325 271.106 281.646 266.529L292.757 282.251C289.728 287.821 285.954 292.93 281.545 297.429C277.936 301.099 273.901 304.3 269.531 306.962C265.718 309.33 261.624 311.188 257.351 312.488L245.645 298.13Z" fill="#91D96F"/>
<path d="M276.463 297.332C274.259 299.088 270.777 298.166 268.566 295.342C266.355 292.519 266.405 288.762 268.577 287.027C270.75 285.292 274.263 286.194 276.427 289.048C278.592 291.903 278.63 295.59 276.463 297.332Z" fill="#7AB161"/>
</g>
<g filter="url(#filter1_f)">
<path d="M468.247 342.877C464.542 348.295 461.241 353.99 458.37 359.916C454.931 367.393 452.916 382.414 452.252 388.03L434.88 379.732C434.805 373.392 435.605 367.091 437.256 361.012C438.615 356.048 440.574 351.284 443.089 346.828C445.26 342.9 447.926 339.281 451.022 336.059L468.247 342.877Z" fill="#91D96F"/>
<path d="M441.739 358.616C442.805 356.008 446.294 355.113 449.602 356.498C452.91 357.883 454.701 361.186 453.651 363.761C452.602 366.335 449.096 367.263 445.814 365.829C442.531 364.394 440.698 361.195 441.739 358.616Z" fill="#7AB161"/>
</g>
<g filter="url(#filter2_f)">
<path d="M20.879 307.227C26.3203 308.852 31.8834 310.072 37.5234 310.875C44.5907 311.739 57.5 309.441 62.3028 308.508L60.0433 325.011C54.8383 326.743 49.4353 327.744 43.9906 327.986C39.5416 328.174 35.0998 327.815 30.7648 326.917C26.9554 326.163 23.2705 324.92 19.8003 323.218L20.879 307.227Z" fill="#91D96F"/>
<path d="M40.8344 324.923C38.4044 324.731 36.7476 322.092 37.017 319.001C37.2865 315.91 39.5366 313.564 41.9346 313.75C44.3327 313.937 46.0215 316.581 45.7042 319.664C45.3869 322.747 43.234 325.101 40.8344 324.923Z" fill="#7AB161"/>
</g>
<g filter="url(#filter3_f)">
<path d="M107.36 112.702C109.043 117.65 111.02 122.431 113.275 127.006C116.185 132.65 123.75 140.528 126.609 143.41L115.938 152.13C112.42 149.459 109.231 146.187 106.463 142.408C104.206 139.314 102.271 135.882 100.7 132.19C99.2992 128.967 98.2424 125.527 97.5556 121.954L107.36 112.702Z" fill="#91D96F"/>
<path d="M106.718 138.208C105.656 136.334 106.389 133.482 108.313 131.738C110.238 129.993 112.686 130.146 113.735 131.994C114.784 133.842 114.064 136.72 112.121 138.425C110.178 140.13 107.773 140.052 106.718 138.208Z" fill="#7AB161"/>
</g>
<g filter="url(#filter4_f)">
<path d="M217.347 367.078C224.84 368.522 232.334 369.472 239.769 369.921C249.032 370.312 264.495 366.415 270.219 364.872L273.561 384.714C267.629 387.245 261.172 388.923 254.377 389.7C248.821 390.325 243.068 390.298 237.248 389.62C232.147 389.065 227.019 387.918 221.991 386.205L217.347 367.078Z" fill="#91D96F"/>
<path d="M249.234 386.34C246.089 386.33 243.002 383.339 242.181 379.636C241.361 375.933 243.325 372.939 246.428 372.944C249.531 372.95 252.66 375.945 253.417 379.643C254.174 383.34 252.336 386.336 249.234 386.34Z" fill="#7AB161"/>
</g>
<g filter="url(#filter5_f)">
<path d="M431.73 56.2322C433.978 62.4496 436.638 68.4698 439.689 74.2439C443.629 81.3704 453.998 91.4385 457.92 95.1248L442.93 105.614C438.09 102.168 433.718 97.9837 429.94 93.1835C426.86 89.2543 424.233 84.9153 422.118 80.2639C420.23 76.2031 418.824 71.8841 417.935 67.4127L431.73 56.2322Z" fill="#91D96F"/>
<path d="M430.371 87.9635C428.93 85.5934 430 82.0685 432.706 79.9632C435.413 77.8579 438.812 78.1323 440.237 80.4692C441.661 82.8062 440.608 86.3643 437.876 88.4197C435.145 90.4752 431.803 90.2957 430.371 87.9635Z" fill="#7AB161"/>
</g>
<g filter="url(#filter6_f)">
<path d="M210.22 168.091C215.497 169.914 220.862 171.361 226.272 172.421C233.042 173.615 245.151 172.148 249.651 171.529L248.601 186.934C243.772 188.283 238.706 188.934 233.551 188.867C229.338 188.805 225.095 188.228 220.918 187.149C217.249 186.234 213.667 184.866 210.257 183.078L210.22 168.091Z" fill="#91D96F"/>
<path d="M230.35 185.816C228.029 185.504 226.28 182.932 226.331 180.038C226.381 177.145 228.363 175.059 230.653 175.364C232.943 175.668 234.723 178.247 234.626 181.131C234.529 184.014 232.641 186.113 230.35 185.816Z" fill="#7AB161"/>
</g>
</g>
<defs>
<filter id="filter0_f" x="235.646" y="256.529" width="67.1122" height="65.9589" filterUnits="userSpaceOnUse" color-interpolation-filters="sRGB">
<feFlood flood-opacity="0" result="BackgroundImageFix"/>
<feBlend mode="normal" in="SourceGraphic" in2="BackgroundImageFix" result="shape"/>
<feGaussianBlur stdDeviation="5" result="effect1_foregroundBlur"/>
</filter>
<filter id="filter1_f" x="424.875" y="326.06" width="53.3716" height="71.9708" filterUnits="userSpaceOnUse" color-interpolation-filters="sRGB">
<feFlood flood-opacity="0" result="BackgroundImageFix"/>
<feBlend mode="normal" in="SourceGraphic" in2="BackgroundImageFix" result="shape"/>
<feGaussianBlur stdDeviation="5" result="effect1_foregroundBlur"/>
</filter>
<filter id="filter2_f" x="9.80029" y="297.227" width="62.5025" height="40.8071" filterUnits="userSpaceOnUse" color-interpolation-filters="sRGB">
<feFlood flood-opacity="0" result="BackgroundImageFix"/>
<feBlend mode="normal" in="SourceGraphic" in2="BackgroundImageFix" result="shape"/>
<feGaussianBlur stdDeviation="5" result="effect1_foregroundBlur"/>
</filter>
<filter id="filter3_f" x="94.5557" y="109.702" width="35.0538" height="45.4279" filterUnits="userSpaceOnUse" color-interpolation-filters="sRGB">
<feFlood flood-opacity="0" result="BackgroundImageFix"/>
<feBlend mode="normal" in="SourceGraphic" in2="BackgroundImageFix" result="shape"/>
<feGaussianBlur stdDeviation="1.5" result="effect1_foregroundBlur"/>
</filter>
<filter id="filter4_f" x="214.347" y="361.872" width="62.214" height="31.278" filterUnits="userSpaceOnUse" color-interpolation-filters="sRGB">
<feFlood flood-opacity="0" result="BackgroundImageFix"/>
<feBlend mode="normal" in="SourceGraphic" in2="BackgroundImageFix" result="shape"/>
<feGaussianBlur stdDeviation="1.5" result="effect1_foregroundBlur"/>
</filter>
<filter id="filter5_f" x="412.935" y="51.2324" width="49.9848" height="59.3816" filterUnits="userSpaceOnUse" color-interpolation-filters="sRGB">
<feFlood flood-opacity="0" result="BackgroundImageFix"/>
<feBlend mode="normal" in="SourceGraphic" in2="BackgroundImageFix" result="shape"/>
<feGaussianBlur stdDeviation="2.5" result="effect1_foregroundBlur"/>
</filter>
<filter id="filter6_f" x="205.22" y="163.091" width="49.4309" height="30.7806" filterUnits="userSpaceOnUse" color-interpolation-filters="sRGB">
<feFlood flood-opacity="0" result="BackgroundImageFix"/>
<feBlend mode="normal" in="SourceGraphic" in2="BackgroundImageFix" result="shape"/>
<feGaussianBlur stdDeviation="2.5" result="effect1_foregroundBlur"/>
</filter>
</defs>
</svg>
