<svg width="40" height="40" viewBox="0 0 40 40" fill="none" xmlns="http://www.w3.org/2000/svg">
<g opacity="0.5">
<path opacity="0.5" d="M20 40C31.0457 40 40 31.0457 40 20C40 8.95431 31.0457 0 20 0C8.95431 0 0 8.95431 0 20C0 31.0457 8.95431 40 20 40Z" fill="url(#paint0_linear)"/>
</g>
<path d="M20.0389 39.4504C30.8517 39.4504 39.6171 30.6849 39.6171 19.8722C39.6171 9.05941 30.8517 0.293945 20.0389 0.293945C9.22616 0.293945 0.460693 9.05941 0.460693 19.8722C0.460693 30.6849 9.22616 39.4504 20.0389 39.4504Z" fill="#F5F5F5"/>
<path d="M20.0574 39.5276C23.883 39.5338 27.6257 38.4137 30.819 36.307C30.0975 32.3643 27.3519 32.1396 27.3519 32.1396H12.2115C12.2115 32.1396 9.62069 32.3523 8.81152 35.9792C12.1037 38.295 16.0323 39.5346 20.0574 39.5276Z" fill="#6C63FF"/>
<path d="M19.8493 28.9095C25.0683 28.9095 29.2991 24.6786 29.2991 19.4596C29.2991 14.2406 25.0683 10.0098 19.8493 10.0098C14.6303 10.0098 10.3994 14.2406 10.3994 19.4596C10.3994 24.6786 14.6303 28.9095 19.8493 28.9095Z" fill="#333333"/>
<path opacity="0.1" d="M16.7996 27.3311H22.8546V32.1752C22.8546 32.9779 22.5358 33.7478 21.9682 34.3155C21.4007 34.8833 20.631 35.2024 19.8282 35.2027C19.0253 35.2027 18.2552 34.8837 17.6874 34.316C17.1197 33.7482 16.8007 32.9781 16.8007 32.1752V27.3311H16.7996Z" fill="black"/>
<path d="M16.9916 27.1064H22.665C22.7159 27.1064 22.7647 27.1267 22.8007 27.1627C22.8367 27.1987 22.8569 27.2475 22.8569 27.2984V31.9506C22.857 32.3483 22.7787 32.7421 22.6265 33.1096C22.4744 33.477 22.2513 33.8109 21.97 34.0921C21.6887 34.3733 21.3548 34.5964 20.9873 34.7485C20.6199 34.9006 20.226 34.9788 19.8283 34.9786C19.0253 34.9786 18.2553 34.6597 17.6875 34.0919C17.1197 33.5241 16.8008 32.7541 16.8008 31.9511V27.2984C16.8008 27.2477 16.8208 27.199 16.8566 27.1631C16.8924 27.1271 16.9409 27.1067 16.9916 27.1064Z" fill="#FDB797"/>
<path opacity="0.1" d="M16.8103 29.6171C18.7618 30.3462 20.9099 30.3521 22.8653 29.6337V28.8887H16.8103V29.6171Z" fill="black"/>
<path d="M19.8492 30.0222C24.6426 30.0222 28.5283 26.1365 28.5283 21.3432C28.5283 16.5498 24.6426 12.6641 19.8492 12.6641C15.0559 12.6641 11.1702 16.5498 11.1702 21.3432C11.1702 26.1365 15.0559 30.0222 19.8492 30.0222Z" fill="#FDB797"/>
<path opacity="0.1" d="M13.667 13.4488C13.667 13.4488 17.3249 20.8734 27.6429 16.5617L25.2406 12.795L20.9822 11.2666L13.667 13.4488Z" fill="black"/>
<path d="M13.667 13.3396C13.667 13.3396 17.3249 20.7643 27.6429 16.4514L25.2406 12.6846L20.9822 11.1562L13.667 13.3396Z" fill="#333333"/>
<path d="M13.635 12.8368C13.8817 12.0733 14.3079 11.3801 14.878 10.8156C16.5852 9.12789 19.384 8.77201 20.8196 6.84766C21.1634 7.38175 20.8975 8.20296 20.3038 8.43218C21.6792 8.42301 23.2729 8.30267 24.0505 7.17144C24.2427 7.61885 24.304 8.11161 24.2272 8.59246C24.1504 9.0733 23.9387 9.52248 23.6167 9.88777C24.8356 9.94508 26.1382 10.7703 26.215 11.9881C26.2677 12.7995 25.7565 13.5674 25.0924 14.0328C24.4282 14.4981 23.619 14.7118 22.8253 14.8866C20.5078 15.3984 12.1227 17.5399 13.635 12.8368Z" fill="#333333"/>
<path d="M11.1668 22.8494C11.6128 22.8494 11.9743 22.1715 11.9743 21.3353C11.9743 20.4991 11.6128 19.8213 11.1668 19.8213C10.7209 19.8213 10.3594 20.4991 10.3594 21.3353C10.3594 22.1715 10.7209 22.8494 11.1668 22.8494Z" fill="#FDB797"/>
<path d="M28.5272 22.8494C28.9731 22.8494 29.3347 22.1715 29.3347 21.3353C29.3347 20.4991 28.9731 19.8213 28.5272 19.8213C28.0812 19.8213 27.7197 20.4991 27.7197 21.3353C27.7197 22.1715 28.0812 22.8494 28.5272 22.8494Z" fill="#FDB797"/>
<defs>
<linearGradient id="paint0_linear" x1="20" y1="40" x2="20" y2="0" gradientUnits="userSpaceOnUse">
<stop stop-color="#808080" stop-opacity="0.25"/>
<stop offset="0.54" stop-color="#808080" stop-opacity="0.12"/>
<stop offset="1" stop-color="#808080" stop-opacity="0.1"/>
</linearGradient>
</defs>
</svg>
