<svg width="584" height="356" viewBox="0 0 584 356" fill="none" xmlns="http://www.w3.org/2000/svg">
<g clip-path="url(#clip0)">
<path opacity="0.1" d="M584 211.823C584.032 228.703 579.419 245.267 570.666 259.705C570.666 277.363 562.427 293.368 549.062 305.032C545.717 307.948 542.115 310.556 538.301 312.825C538.148 312.922 537.99 313.014 537.832 313.106C537.546 313.274 537.26 313.443 536.969 313.616L536.698 313.774C524.044 320.816 509.782 324.471 495.298 324.383H110.863C107.8 324.383 104.765 324.26 101.756 324.016C91.0647 323.174 80.5588 320.744 70.5856 316.804C68.6389 316.035 66.7297 315.209 64.8579 314.325C63.9662 313.907 63.0831 313.477 62.2084 313.035C61.6622 312.759 61.116 312.474 60.5749 312.188C54.2857 308.877 48.3854 304.875 42.9834 300.258C25.6268 285.35 14.8656 264.755 14.8656 242.007C5.1293 227.028 -0.0356704 209.542 0.000185426 191.682C0.000185426 141.117 40.4514 100.125 90.3568 100.125C91.8883 100.125 93.4198 100.171 94.9512 100.253C95.1708 100.253 95.3852 100.253 95.6047 100.283C104.018 85.9563 115.264 72.7923 128.786 61.2043C165.664 29.633 219.562 9.73145 279.6 9.73145C330.047 9.73145 376.16 23.7829 411.48 46.9998C424.865 39.4405 439.982 35.4777 455.357 35.4985C505.252 35.4985 545.714 76.4901 545.714 127.055C545.706 130.254 545.536 133.451 545.203 136.634C557.23 145.14 567.034 156.412 573.786 169.498C580.538 182.584 584.042 197.1 584 211.823Z" fill="#6C63FF"/>
<g opacity="0.2">
<path opacity="0.2" d="M70.6379 316.115C70.6379 316.35 70.6124 316.579 70.5869 316.804C68.6402 316.035 66.731 315.209 64.8592 314.325C63.8592 314.194 62.9293 313.741 62.2097 313.035C61.6635 312.759 61.1173 312.473 60.5762 312.188C60.6987 311.931 60.8368 311.683 60.9897 311.443C62.0413 309.78 63.6391 308.74 65.4003 308.796C67.1615 308.852 68.6878 309.99 69.6322 311.708C70.3545 313.062 70.7017 314.583 70.6379 316.115Z" fill="#3F3D56"/>
<path opacity="0.2" d="M70.9135 307.384C70.8787 308.914 70.4364 310.406 69.6322 311.709C68.5806 313.366 66.9827 314.407 65.2215 314.351L64.8591 314.325C63.8592 314.194 62.9292 313.741 62.2097 313.035C61.7217 312.572 61.31 312.035 60.9896 311.444C60.2851 310.086 59.9406 308.57 59.9888 307.042C60.0371 305.513 60.4765 304.022 61.2653 302.712C62.3169 301.049 63.9147 300.009 65.6759 300.065C67.4371 300.121 68.9634 301.258 69.9078 302.977C70.6301 304.33 70.9773 305.851 70.9135 307.384Z" fill="#3F3D56"/>
<path opacity="0.2" d="M71.1898 298.668C71.3146 294.723 68.9714 291.448 65.9562 291.353C62.941 291.258 60.3956 294.378 60.2708 298.323C60.1461 302.267 62.4892 305.542 65.5044 305.637C68.5196 305.732 71.0651 302.612 71.1898 298.668Z" fill="#3F3D56"/>
<path opacity="0.2" d="M71.4633 289.935C71.588 285.991 69.2449 282.716 66.2297 282.621C63.2145 282.526 60.669 285.646 60.5443 289.59C60.4195 293.535 62.7627 296.81 65.7779 296.905C68.7931 297 71.3385 293.88 71.4633 289.935Z" fill="#3F3D56"/>
<path opacity="0.2" d="M71.7835 280.627C71.902 276.681 69.5526 273.408 66.5359 273.318C63.5191 273.227 60.9776 276.353 60.8591 280.3C60.7406 284.246 63.09 287.519 66.1067 287.609C69.1234 287.699 71.665 284.574 71.7835 280.627Z" fill="#3F3D56"/>
<path opacity="0.2" d="M47.7165 220.616C46.9976 219.644 46.3493 218.621 45.7767 217.556L60.2031 215.653L44.674 215.281C43.2882 211.997 42.5875 208.465 42.6147 204.901C42.6419 201.337 43.3965 197.816 44.8323 194.553L65.3131 206.004L46.5526 191.289C48.4451 188.231 50.9485 185.595 53.9063 183.547C56.8641 181.499 60.2129 180.082 63.7434 179.385C67.2739 178.688 70.9104 178.726 74.4256 179.496C77.9409 180.266 81.2595 181.752 84.1741 183.861C87.0887 185.97 89.5367 188.657 91.3653 191.754C93.1938 194.851 94.3637 198.291 94.8017 201.86C95.2397 205.429 94.9365 209.05 93.911 212.496C92.8855 215.943 91.1598 219.141 88.8415 221.891C89.9586 223.405 90.9086 225.034 91.6748 226.752L72.7407 235.836L92.8183 229.802C94.0827 233.97 94.2864 238.388 93.4111 242.654C92.5357 246.921 90.609 250.902 87.8053 254.238C90.7202 258.189 92.4634 262.88 92.8354 267.775C93.2074 272.67 92.1932 277.57 89.9088 281.916C87.6245 286.262 84.1622 289.878 79.9178 292.35C75.6734 294.823 70.8183 296.052 65.9076 295.897C60.997 295.742 56.229 294.21 52.149 291.475C48.0689 288.741 44.8414 284.914 42.8356 280.433C40.8298 275.952 40.1267 270.998 40.8066 266.136C41.4864 261.275 43.5219 256.702 46.6802 252.942C43.1977 248.22 41.405 242.465 41.5902 236.603C41.7753 230.74 43.9276 225.11 47.7012 220.616H47.7165Z" fill="#6C63FF"/>
<path opacity="0.1" d="M93.9311 238.253C93.7501 244.118 91.5915 249.751 87.8053 254.237C90.7202 258.189 92.4634 262.88 92.8354 267.775C93.2074 272.669 92.1932 277.57 89.9089 281.916C87.6245 286.261 84.1622 289.877 79.9178 292.35C75.6734 294.822 70.8183 296.051 65.9076 295.897C60.997 295.742 56.229 294.21 52.149 291.475C48.0689 288.74 44.8414 284.914 42.8356 280.433C40.8298 275.952 40.1267 270.997 40.8066 266.136C41.4864 261.274 43.5219 256.702 46.6802 252.942C43.3263 248.387 94.023 235.315 93.9311 238.253Z" fill="black"/>
</g>
<path d="M489.049 70.5939V314.993C489.049 317.483 488.059 319.872 486.296 321.632C484.534 323.393 482.144 324.383 479.651 324.383H104.349C103.472 324.384 102.599 324.26 101.756 324.015C99.7941 323.455 98.0684 322.271 96.8405 320.643C95.6125 319.015 94.9492 317.032 94.9512 314.993V205.927C94.9512 205.371 94.9512 204.82 94.9512 204.269V100.252C95.1707 100.252 95.3851 100.252 95.6046 100.283C104.017 85.9561 115.264 72.7921 128.786 61.2041H479.651C482.144 61.2041 484.534 62.1934 486.296 63.9543C488.059 65.7152 489.049 68.1035 489.049 70.5939Z" fill="white"/>
<path d="M424.737 92.9443H372.733C367.664 92.9443 363.555 97.0501 363.555 102.115C363.555 107.179 367.664 111.285 372.733 111.285H424.737C429.806 111.285 433.915 107.179 433.915 102.115C433.915 97.0501 429.806 92.9443 424.737 92.9443Z" fill="#3F3D56"/>
<path opacity="0.1" d="M423.215 96.0088H374.249C370.874 96.0088 368.139 98.741 368.139 102.111C368.139 105.482 370.874 108.214 374.249 108.214H423.215C426.59 108.214 429.326 105.482 429.326 102.111C429.326 98.741 426.59 96.0088 423.215 96.0088Z" fill="black"/>
<path d="M422.358 96.6777H411.138C408.135 96.6777 405.701 99.1097 405.701 102.11V102.115C405.701 105.115 408.135 107.547 411.138 107.547H422.358C425.361 107.547 427.795 105.115 427.795 102.115V102.11C427.795 99.1097 425.361 96.6777 422.358 96.6777Z" fill="#6C63FF"/>
<path d="M416.58 105.511C418.457 105.511 419.979 103.991 419.979 102.115C419.979 100.239 418.457 98.7178 416.58 98.7178C414.702 98.7178 413.18 100.239 413.18 102.115C413.18 103.991 414.702 105.511 416.58 105.511Z" fill="white"/>
<path d="M424.737 213.848H372.733C367.664 213.848 363.555 217.953 363.555 223.018C363.555 228.083 367.664 232.189 372.733 232.189H424.737C429.806 232.189 433.915 228.083 433.915 223.018C433.915 217.953 429.806 213.848 424.737 213.848Z" fill="#3F3D56"/>
<path opacity="0.1" d="M423.215 216.913H374.249C370.874 216.913 368.139 219.645 368.139 223.016C368.139 226.386 370.874 229.118 374.249 229.118H423.215C426.59 229.118 429.326 226.386 429.326 223.016C429.326 219.645 426.59 216.913 423.215 216.913Z" fill="black"/>
<path d="M422.358 217.581H411.138C408.135 217.581 405.701 220.013 405.701 223.013V223.018C405.701 226.018 408.135 228.45 411.138 228.45H422.358C425.361 228.45 427.795 226.018 427.795 223.018V223.013C427.795 220.013 425.361 217.581 422.358 217.581Z" fill="#6C63FF"/>
<path d="M416.58 226.415C418.457 226.415 419.979 224.894 419.979 223.018C419.979 221.142 418.457 219.621 416.58 219.621C414.702 219.621 413.18 221.142 413.18 223.018C413.18 224.894 414.702 226.415 416.58 226.415Z" fill="white"/>
<path d="M424.737 274.297H372.733C367.664 274.297 363.555 278.403 363.555 283.467C363.555 288.532 367.664 292.638 372.733 292.638H424.737C429.806 292.638 433.915 288.532 433.915 283.467C433.915 278.403 429.806 274.297 424.737 274.297Z" fill="#3F3D56"/>
<path opacity="0.1" d="M423.215 277.368H374.249C370.874 277.368 368.139 280.1 368.139 283.471C368.139 286.841 370.874 289.573 374.249 289.573H423.215C426.59 289.573 429.326 286.841 429.326 283.471C429.326 280.1 426.59 277.368 423.215 277.368Z" fill="black"/>
<path d="M422.358 278.036H411.138C408.135 278.036 405.701 280.468 405.701 283.468V283.473C405.701 286.473 408.135 288.905 411.138 288.905H422.358C425.361 288.905 427.795 286.473 427.795 283.473V283.468C427.795 280.468 425.361 278.036 422.358 278.036Z" fill="#6C63FF"/>
<path d="M416.58 286.865C418.457 286.865 419.979 285.344 419.979 283.468C419.979 281.592 418.457 280.071 416.58 280.071C414.702 280.071 413.18 281.592 413.18 283.468C413.18 285.344 414.702 286.865 416.58 286.865Z" fill="white"/>
<path d="M185.777 81.3965H155.521C152.518 81.3965 150.084 83.8284 150.084 86.8284V86.8335C150.084 89.8334 152.518 92.2653 155.521 92.2653H185.777C188.78 92.2653 191.214 89.8334 191.214 86.8335V86.8284C191.214 83.8284 188.78 81.3965 185.777 81.3965Z" fill="#6C63FF"/>
<path d="M258.859 96.6777H155.521C152.518 96.6777 150.084 99.1097 150.084 102.11V102.115C150.084 105.115 152.518 107.547 155.521 107.547H258.859C261.862 107.547 264.296 105.115 264.296 102.115V102.11C264.296 99.1097 261.862 96.6777 258.859 96.6777Z" fill="#6C63FF"/>
<path d="M258.859 111.963H155.521C152.518 111.963 150.084 114.395 150.084 117.395V117.4C150.084 120.4 152.518 122.832 155.521 122.832H258.859C261.862 122.832 264.296 120.4 264.296 117.4V117.395C264.296 114.395 261.862 111.963 258.859 111.963Z" fill="#6C63FF"/>
<g opacity="0.5">
<path opacity="0.5" d="M185.777 141.846H155.521C152.518 141.846 150.084 144.278 150.084 147.278V147.283C150.084 150.283 152.518 152.715 155.521 152.715H185.777C188.78 152.715 191.214 150.283 191.214 147.283V147.278C191.214 144.278 188.78 141.846 185.777 141.846Z" fill="#6C63FF"/>
<path opacity="0.5" d="M229.899 157.132H155.521C152.518 157.132 150.084 159.564 150.084 162.564V162.569C150.084 165.569 152.518 168.001 155.521 168.001H229.899C232.902 168.001 235.336 165.569 235.336 162.569V162.564C235.336 159.564 232.902 157.132 229.899 157.132Z" fill="#6C63FF"/>
<path opacity="0.5" d="M258.859 172.412H155.521C152.518 172.412 150.084 174.844 150.084 177.844V177.849C150.084 180.849 152.518 183.281 155.521 183.281H258.859C261.862 183.281 264.296 180.849 264.296 177.849V177.844C264.296 174.844 261.862 172.412 258.859 172.412Z" fill="#6C63FF"/>
</g>
<path d="M185.777 202.301H155.521C152.518 202.301 150.084 204.733 150.084 207.733V207.738C150.084 210.738 152.518 213.17 155.521 213.17H185.777C188.78 213.17 191.214 210.738 191.214 207.738V207.733C191.214 204.733 188.78 202.301 185.777 202.301Z" fill="#6C63FF"/>
<path d="M258.859 217.581H155.521C152.518 217.581 150.084 220.013 150.084 223.013V223.018C150.084 226.018 152.518 228.45 155.521 228.45H258.859C261.862 228.45 264.296 226.018 264.296 223.018V223.013C264.296 220.013 261.862 217.581 258.859 217.581Z" fill="#6C63FF"/>
<path d="M215.605 232.867H155.521C152.518 232.867 150.084 235.299 150.084 238.299V238.304C150.084 241.304 152.518 243.736 155.521 243.736H215.605C218.608 243.736 221.042 241.304 221.042 238.304V238.299C221.042 235.299 218.608 232.867 215.605 232.867Z" fill="#6C63FF"/>
<path d="M185.777 262.75H155.521C152.518 262.75 150.084 265.182 150.084 268.182V268.187C150.084 271.187 152.518 273.619 155.521 273.619H185.777C188.78 273.619 191.214 271.187 191.214 268.187V268.182C191.214 265.182 188.78 262.75 185.777 262.75Z" fill="#6C63FF"/>
<path d="M258.859 278.036H155.521C152.518 278.036 150.084 280.468 150.084 283.468V283.473C150.084 286.473 152.518 288.905 155.521 288.905H258.859C261.862 288.905 264.296 286.473 264.296 283.473V283.468C264.296 280.468 261.862 278.036 258.859 278.036Z" fill="#6C63FF"/>
<path d="M236.535 293.316H155.521C152.518 293.316 150.084 295.748 150.084 298.748V298.753C150.084 301.753 152.518 304.185 155.521 304.185H236.535C239.538 304.185 241.972 301.753 241.972 298.753V298.748C241.972 295.748 239.538 293.316 236.535 293.316Z" fill="#6C63FF"/>
<path opacity="0.7" d="M132.727 132.604H465.566" stroke="#3F3D56" stroke-miterlimit="10" stroke-linecap="round"/>
<path opacity="0.7" d="M132.727 194.063H465.566" stroke="#3F3D56" stroke-miterlimit="10" stroke-linecap="round"/>
<path opacity="0.7" d="M132.727 255.522H465.566" stroke="#3F3D56" stroke-miterlimit="10" stroke-linecap="round"/>
<path opacity="0.7" d="M132.727 318.513H465.566" stroke="#3F3D56" stroke-miterlimit="10" stroke-linecap="round"/>
<path opacity="0.1" d="M405.838 356C447.475 356 481.227 353.602 481.227 350.644C481.227 347.687 447.475 345.289 405.838 345.289C364.202 345.289 330.449 347.687 330.449 350.644C330.449 353.602 364.202 356 405.838 356Z" fill="#6C63FF"/>
<path opacity="0.1" d="M35.9989 83.0388C42.0972 83.0388 47.0408 78.0995 47.0408 72.0067C47.0408 65.9138 42.0972 60.9746 35.9989 60.9746C29.9007 60.9746 24.957 65.9138 24.957 72.0067C24.957 78.0995 29.9007 83.0388 35.9989 83.0388Z" fill="#6C63FF"/>
<path opacity="0.1" d="M82.0204 22.0642C88.1187 22.0642 93.0623 17.1249 93.0623 11.0321C93.0623 4.93923 88.1187 0 82.0204 0C75.9221 0 70.9785 4.93923 70.9785 11.0321C70.9785 17.1249 75.9221 22.0642 82.0204 22.0642Z" fill="#6C63FF"/>
<path opacity="0.1" d="M78.2787 71.4102C88.4988 71.4102 96.7839 63.1325 96.7839 52.9214C96.7839 42.7103 88.4988 34.4326 78.2787 34.4326C68.0585 34.4326 59.7734 42.7103 59.7734 52.9214C59.7734 63.1325 68.0585 71.4102 78.2787 71.4102Z" fill="#6C63FF"/>
<path d="M424.737 153.394H372.733C367.664 153.394 363.555 157.499 363.555 162.564C363.555 167.629 367.664 171.734 372.733 171.734H424.737C429.806 171.734 433.915 167.629 433.915 162.564C433.915 157.499 429.806 153.394 424.737 153.394Z" fill="#3F3D56"/>
<path opacity="0.1" d="M423.215 156.464H374.249C370.874 156.464 368.139 159.196 368.139 162.566C368.139 165.937 370.874 168.669 374.249 168.669H423.215C426.59 168.669 429.326 165.937 429.326 162.566C429.326 159.196 426.59 156.464 423.215 156.464Z" fill="black"/>
<path d="M370.191 337.134C370.993 337.017 371.794 336.854 372.58 336.67C372.478 337.456 372.25 338.22 371.907 338.935C371.125 340.414 369.599 341.306 368.195 342.214C368.002 342.033 367.752 341.925 367.488 341.908C367.223 341.89 366.961 341.964 366.745 342.117C365.056 343.137 363.708 344.576 361.916 345.453C361.288 345.759 360.635 346.004 360.022 346.345C358.536 347.25 357.306 348.52 356.449 350.033C355.938 350.824 355.525 351.864 356.025 352.649C356.217 352.915 356.464 353.136 356.75 353.297C357.478 353.804 358.349 354.064 359.236 354.037C359.747 353.991 360.257 353.797 360.814 353.71C361.513 353.588 362.228 353.649 362.932 353.588C363.954 353.456 364.956 353.197 365.913 352.818L369.42 351.594C370.411 351.274 371.375 350.878 372.305 350.41C372.861 350.109 373.387 349.758 373.954 349.482C374.591 349.2 375.25 348.968 375.924 348.788L377.915 348.207C378.201 348.098 378.509 348.057 378.813 348.09C379.089 348.141 379.324 348.314 379.605 348.386C380.033 348.462 380.475 348.419 380.881 348.263L383.188 347.61C383.675 347.5 384.14 347.307 384.562 347.039C385.618 346.289 385.807 344.8 385.802 343.499C385.797 341.529 385.574 339.566 385.138 337.644C384.843 337.764 384.584 337.959 384.388 338.21C384.152 337.879 383.898 337.56 383.627 337.257C382.564 336.021 381.779 334.572 381.325 333.008C382.158 332.389 382.854 331.604 383.367 330.703C382.147 326.056 380.896 321.338 378.415 317.238C377.604 315.901 376.674 314.647 375.863 313.331C373.448 309.506 372.953 304.66 370.191 301.09C369.929 300.728 369.788 300.292 369.788 299.845C369.788 299.398 369.929 298.963 370.191 298.601C370.508 298.183 371.018 297.79 370.921 297.27C370.85 296.897 370.462 296.556 370.61 296.209C370.681 296.041 370.855 295.949 370.988 295.826C371.457 295.388 371.396 294.648 371.442 294.006C371.544 292.384 372.509 290.945 373.438 289.64C373.626 289.327 373.876 289.057 374.173 288.844C374.423 288.691 374.719 288.62 374.969 288.467C375.847 287.911 375.786 286.62 376.205 285.661C376.756 284.396 378.145 283.759 379.053 282.734C380.212 281.428 380.508 279.612 381.728 278.475C381.853 278.355 381.988 278.246 382.132 278.148C381.602 280.083 381.36 282.085 381.412 284.09C381.294 290.991 383.01 298.132 382.208 305.002C381.575 310.439 384.898 315.861 389.61 318.579C391.455 319.562 393.384 320.38 395.374 321.022C398.324 322.078 401.265 323.164 404.159 324.378C406.201 325.235 408.216 326.155 410.203 327.137C412.656 328.335 415.042 329.664 417.35 331.121C420.189 332.942 423.032 334.788 425.048 337.506C426.282 337.444 427.468 337.008 428.448 336.257C429.224 336.869 430.164 337.333 430.894 338.011C431.902 339.061 432.576 340.385 432.833 341.816H432.527C432.563 342.495 432.593 343.173 432.629 343.856C432.656 344.03 432.629 344.208 432.553 344.366C432.479 344.468 432.385 344.553 432.277 344.616L430.705 345.682C429.561 346.453 428.3 347.427 428.239 348.809C428.207 349.211 428.329 349.61 428.581 349.926C428.966 350.283 429.457 350.506 429.98 350.558C432.716 351.135 435.519 351.696 438.291 351.323C439.608 351.145 440.971 350.711 441.828 349.691C442.614 348.763 442.849 347.503 443.064 346.305C443.406 344.264 443.692 342.178 443.916 340.108C443.985 338.7 444.271 337.312 444.764 335.992C444.802 335.877 444.879 335.779 444.983 335.716C445.1 335.665 445.238 335.716 445.361 335.665C445.483 335.614 445.565 335.426 445.606 335.273C446.111 333.258 446.357 331.188 446.336 329.111C446.36 328.572 446.278 328.033 446.096 327.525C445.88 327.1 445.572 326.728 445.194 326.437C444.816 326.146 444.378 325.942 443.911 325.842C442.981 325.653 442.037 325.54 441.088 325.505C440.296 325.429 439.512 325.286 438.745 325.077C438.434 324.96 438.1 324.916 437.77 324.949C437.606 324.972 437.455 325.053 437.346 325.177C437.237 325.302 437.177 325.462 437.178 325.628C437.195 325.745 437.237 325.858 437.3 325.959L436.504 325.801C435.861 325.684 434.972 325.403 434.008 325.169C434.008 325.005 434.018 324.835 434.038 324.659C434.04 324.476 433.991 324.297 433.895 324.142C433.799 323.986 433.661 323.862 433.497 323.781L420.01 316.58L417.488 315.233C411.965 312.28 406.257 309.551 400.719 306.598C400.351 306.711 400.045 306.287 399.937 305.91C399.83 305.532 399.754 305.084 399.401 304.915C399.228 304.834 398.998 304.839 398.891 304.691C398.8 304.558 398.765 304.395 398.794 304.237C398.973 301.549 400.897 299.07 400.514 296.408C400.351 295.27 399.764 294.148 400.004 293.031C400.183 292.261 400.734 291.634 401.025 290.899C401.688 289.257 401.025 287.283 401.75 285.677C402.233 284.621 402.561 283.501 402.725 282.351C403.067 280.061 403.755 277.835 404.767 275.751C405.255 274.7 405.895 273.726 406.666 272.859C407.069 272.421 407.523 272.028 407.911 271.574C409.085 270.172 409.519 268.305 409.851 266.474C410.454 263.204 410.872 259.813 410.117 256.569C409.861 255.467 409.473 254.371 409.489 253.238C409.489 251.882 410.035 250.326 409.376 249.24C410.055 248.695 410.508 247.92 410.648 247.062C410.657 246.753 410.718 246.448 410.826 246.159C411.05 245.844 411.342 245.583 411.679 245.394C412.205 244.992 412.608 244.451 412.841 243.831C413.074 243.211 413.128 242.539 412.996 241.89C413.695 242.206 414.43 241.497 414.762 240.799C415.094 240.1 415.344 239.268 416.054 238.952C416.533 238.748 417.075 238.871 417.585 238.738C418.397 238.529 418.892 237.718 419.464 237.121C420.628 235.867 422.276 235.219 423.803 234.449C428.326 232.148 432.012 228.512 435.621 224.931C437.503 223.185 439.212 221.262 440.726 219.188C441.129 218.592 441.496 217.974 441.844 217.342L441.935 217.296L441.966 217.408C442.022 217.633 442.089 217.857 442.155 218.076C442.318 218.587 442.502 219.132 442.665 219.652C443.217 221.183 443.814 222.815 444.937 223.972C445.282 224.326 445.673 224.629 446.101 224.875C447.029 225.373 448.048 225.679 449.098 225.773C449.496 225.824 449.899 225.855 450.302 225.875C450.706 225.895 451.109 225.911 451.507 225.921L459.767 226.14C456.928 222.029 456.704 216.684 456.893 211.681C457.368 198.828 459.874 185.858 457.546 173.209C457.265 171.679 456.893 170.148 455.959 168.919C454.733 167.313 452.722 166.537 450.762 166.083C448.802 165.629 446.765 165.41 444.932 164.589C443.401 163.89 441.992 162.768 440.338 162.401C439.119 162.197 437.873 162.218 436.662 162.462C435.171 162.683 433.689 162.945 432.216 163.248L431.858 163.324H431.874L431.629 163.38H431.562L431.343 163.431H431.261L431.057 163.487L430.965 163.513L430.776 163.574L430.669 163.61L430.495 163.666L430.383 163.712L430.22 163.773L430.097 163.824L429.949 163.89L429.827 163.951L429.689 164.018L429.566 164.089L429.439 164.161L429.316 164.242L429.199 164.319L429.076 164.405L428.974 164.487L428.857 164.589L428.76 164.676C428.72 164.712 428.682 164.751 428.647 164.793L428.561 164.88C428.52 164.925 428.483 164.973 428.448 165.023C428.448 165.048 428.402 165.074 428.382 165.104C428.361 165.135 428.29 165.237 428.244 165.313V165.344C428.129 165.535 428.035 165.739 427.963 165.951C427.928 166.058 427.892 166.165 427.866 166.272C427.814 166.49 427.776 166.712 427.754 166.935C427.754 167.047 427.754 167.165 427.729 167.277C427.729 167.501 427.729 167.731 427.729 167.955C427.749 168.338 427.792 168.72 427.856 169.098C426.046 170.167 424.536 171.677 423.468 173.487C422.4 175.297 421.809 177.348 421.75 179.449C421.691 181.549 422.165 183.63 423.13 185.498C424.094 187.365 425.516 188.957 427.264 190.127C427.289 190.328 427.302 190.531 427.305 190.733V190.866C427.276 191.588 427.201 192.307 427.08 193.018C425.062 192.627 423.01 192.444 420.954 192.473C419.729 192.473 418.494 192.585 417.258 192.682C415.934 191.086 414.7 189.417 413.562 187.683L410.836 183.69C409.9 182.385 409.048 181.022 408.284 179.61C407.615 178.314 407.095 176.937 406.349 175.682C404.818 173.096 402.316 170.898 402.005 167.904L401.285 168.052C400.892 167.41 400.397 166.731 400.213 166.359C399.227 164.234 398.468 162.012 397.947 159.728C397.696 158.545 397.508 157.311 396.859 156.291C396.417 155.653 395.882 155.086 395.272 154.608C394.287 153.681 393.133 152.954 391.872 152.465C391.309 152.261 390.71 152.174 390.112 152.209C389.515 152.244 388.93 152.401 388.395 152.669C388.229 152.592 388.059 152.524 387.885 152.465C387.253 152.225 386.572 152.141 385.9 152.219C385.229 152.297 384.585 152.535 384.026 152.914C382.953 153.735 382.494 155.143 382.331 156.485C382.048 158.341 382.367 160.238 383.239 161.901C384.26 163.727 386.088 164.961 387.599 166.41C388.651 167.428 389.571 168.572 390.34 169.817C390.577 172.572 390.507 175.345 390.131 178.085C389.937 179.258 389.62 180.41 389.529 181.594C389.156 185.868 391.382 190.142 390.585 194.345C390.454 194.976 390.522 195.633 390.781 196.225C391.04 196.816 391.476 197.312 392.03 197.644C393.173 198.262 394.511 198.343 395.767 198.665C398.232 199.297 400.361 200.873 402.852 201.46C404.001 201.735 405.195 201.786 406.339 202.092L406.518 202.148C405.637 203.144 405.008 204.337 404.685 205.627C404.175 207.769 404.654 210.059 404.144 212.201C403.725 213.966 402.674 215.506 401.637 217C399.643 219.884 397.645 222.774 395.644 225.671C394.307 227.703 392.832 229.64 391.229 231.47C388.477 234.474 383.729 236.856 382.331 240.467C382.3 240.38 382.259 240.294 382.229 240.207C380.248 241.661 379.508 244.369 377.93 246.251C377.159 247.164 376.21 247.903 375.378 248.75C374.347 249.843 373.403 251.014 372.555 252.254C370.207 255.508 367.843 258.777 366.164 262.424C365.285 264.321 364.606 266.295 363.907 268.259C361.161 275.996 356.679 283.336 354.815 291.338C354.361 293.291 353.172 295.056 352.993 297.056C352.794 299.187 353.769 301.238 354.78 303.12C356.311 305.996 358.016 308.791 359.374 311.75C360.175 313.474 360.87 315.254 361.763 316.937C362.738 318.773 363.933 320.476 364.954 322.287C367.44 326.933 368.869 332.07 370.191 337.134ZM403.965 190.983L403.72 190.861C402.805 190.465 401.967 189.911 401.244 189.224C399.044 186.878 398.1 183.343 397.411 180.186C397.329 179.808 397.257 179.436 397.191 179.059C399.861 182.848 402.383 186.765 403.965 190.994V190.983Z" fill="url(#paint0_linear)"/>
<path d="M393.936 160.355C393.685 159.177 393.502 157.953 392.853 156.943C392.409 156.309 391.872 155.745 391.261 155.27C390.27 154.35 389.113 153.628 387.851 153.144C387.218 152.906 386.538 152.823 385.867 152.9C385.196 152.977 384.553 153.213 383.991 153.587C382.914 154.403 382.46 155.801 382.291 157.157C382.009 159.002 382.328 160.888 383.2 162.538C384.247 164.354 386.054 165.568 387.57 167.016C388.671 168.077 389.629 169.278 390.418 170.587C390.778 171.265 391.213 171.902 391.715 172.484C391.969 172.769 392.285 172.992 392.639 173.134C392.994 173.277 393.376 173.335 393.757 173.305C394.394 173.137 394.971 172.796 395.426 172.321C396.049 171.775 397.723 170.791 397.775 169.939C397.815 169.24 396.509 167.659 396.187 167.001C395.205 164.871 394.45 162.644 393.936 160.355Z" fill="#FBBEBE"/>
<path opacity="0.1" d="M393.936 160.355C393.685 159.177 393.502 157.953 392.853 156.943C392.409 156.309 391.872 155.745 391.261 155.27C390.27 154.35 389.113 153.628 387.851 153.144C387.218 152.906 386.538 152.823 385.867 152.9C385.196 152.977 384.553 153.213 383.991 153.587C382.914 154.403 382.46 155.801 382.291 157.157C382.009 159.002 382.328 160.888 383.2 162.538C384.247 164.354 386.054 165.568 387.57 167.016C388.671 168.077 389.629 169.278 390.418 170.587C390.778 171.265 391.213 171.902 391.715 172.484C391.969 172.769 392.285 172.992 392.639 173.134C392.994 173.277 393.376 173.335 393.757 173.305C394.394 173.137 394.971 172.796 395.426 172.321C396.049 171.775 397.723 170.791 397.775 169.939C397.815 169.24 396.509 167.659 396.187 167.001C395.205 164.871 394.45 162.644 393.936 160.355Z" fill="black"/>
<path d="M429.246 193.931C426.553 193.21 423.773 192.867 420.986 192.911C416.335 192.977 411.547 194.105 407.116 192.676C405.976 192.289 404.867 191.816 403.798 191.264C402.881 190.872 402.041 190.321 401.317 189.637C399.112 187.306 398.162 183.792 397.478 180.66C396.874 177.509 396.524 174.314 396.431 171.107C395.283 171.643 394.068 172.168 392.807 172.061C391.546 171.954 390.255 170.985 390.255 169.72C390.443 172.688 390.581 175.692 390.086 178.62C389.892 179.783 389.576 180.93 389.489 182.103C389.111 186.352 391.342 190.595 390.545 194.783C390.412 195.411 390.48 196.065 390.739 196.653C390.998 197.241 391.436 197.732 391.99 198.057C393.134 198.674 394.476 198.751 395.732 199.077C398.198 199.705 400.326 201.271 402.828 201.857C403.976 202.127 405.176 202.178 406.32 202.484C407.948 202.918 409.434 203.851 411.098 204.142C412.343 204.366 413.65 204.213 414.891 204.321C415.988 204.412 417.06 204.698 418.163 204.729C420.858 204.795 423.401 203.275 425.187 201.255C426.974 199.235 428.112 196.364 429.246 193.931Z" fill="#F86D70"/>
<path opacity="0.1" d="M429.246 193.931C426.553 193.21 423.773 192.867 420.986 192.911C416.335 192.977 411.547 194.105 407.116 192.676C405.976 192.289 404.867 191.816 403.798 191.264C402.881 190.872 402.041 190.321 401.317 189.637C399.112 187.306 398.162 183.792 397.478 180.66C396.874 177.509 396.524 174.314 396.431 171.107C395.283 171.643 394.068 172.168 392.807 172.061C391.546 171.954 390.255 170.985 390.255 169.72C390.443 172.688 390.581 175.692 390.086 178.62C389.892 179.783 389.576 180.93 389.489 182.103C389.111 186.352 391.342 190.595 390.545 194.783C390.412 195.411 390.48 196.065 390.739 196.653C390.998 197.241 391.436 197.732 391.99 198.057C393.134 198.674 394.476 198.751 395.732 199.077C398.198 199.705 400.326 201.271 402.828 201.857C403.976 202.127 405.176 202.178 406.32 202.484C407.948 202.918 409.434 203.851 411.098 204.142C412.343 204.366 413.65 204.213 414.891 204.321C415.988 204.412 417.06 204.698 418.163 204.729C420.858 204.795 423.401 203.275 425.187 201.255C426.974 199.235 428.112 196.364 429.246 193.931Z" fill="black"/>
<path d="M436.627 325.234C437.46 325.338 438.268 325.59 439.011 325.979C439.981 326.668 440.707 327.647 441.084 328.774C442.197 331.518 442.426 334.537 442.477 337.501C442.518 339.893 442.437 342.341 441.579 344.575C441.345 345.28 440.94 345.916 440.4 346.426C439.921 346.801 439.367 347.069 438.776 347.212C437.495 347.564 436.015 347.559 434.968 346.743C433.804 345.835 433.513 344.228 433.268 342.774C432.936 340.816 432.467 338.73 431.007 337.378C429.924 336.358 428.373 335.848 427.586 334.614C426.647 333.13 427.142 331.192 427.74 329.539C428.25 328.106 429.021 325.204 430.522 324.469C432.023 323.735 435.07 324.954 436.627 325.234Z" fill="#FBBEBE"/>
<path d="M381.336 332.273C381.786 333.874 382.585 335.356 383.674 336.613C384.338 337.378 385.17 338.307 384.823 339.255C384.677 339.578 384.463 339.865 384.195 340.097C379.264 344.912 372.367 347.237 365.526 348.115C365.418 348.143 365.303 348.143 365.195 348.115C364.996 348.028 364.944 347.773 364.924 347.554C364.812 346.842 364.812 346.118 364.924 345.406C365.256 343.739 366.721 342.56 368.155 341.637C369.59 340.714 371.157 339.827 371.954 338.322C372.949 336.455 372.53 334.022 373.715 332.273C374.674 330.85 376.461 330.233 378.161 329.978C378.748 329.886 379.999 329.243 380.499 329.539C380.999 329.835 381.163 331.686 381.336 332.273Z" fill="#FBBEBE"/>
<path d="M437.301 325.061C437.301 324.896 437.361 324.737 437.47 324.613C437.579 324.489 437.729 324.409 437.893 324.388C438.223 324.355 438.556 324.397 438.868 324.51C439.635 324.723 440.419 324.868 441.211 324.944C442.161 324.977 443.107 325.088 444.039 325.275C444.505 325.373 444.944 325.573 445.323 325.862C445.702 326.15 446.011 326.52 446.229 326.943C446.411 327.449 446.493 327.986 446.469 328.524C446.49 330.587 446.245 332.644 445.739 334.644C445.698 334.797 445.637 334.976 445.489 335.032C445.341 335.088 445.234 335.032 445.116 335.088C445.063 335.117 445.017 335.157 444.979 335.204C444.941 335.251 444.913 335.306 444.897 335.364C444.403 336.671 444.115 338.048 444.044 339.444C443.82 341.484 443.534 343.555 443.192 345.595C442.993 346.788 442.743 348.043 441.956 348.961C441.094 349.981 439.731 350.405 438.414 350.583C435.637 350.95 432.834 350.394 430.093 349.823C429.569 349.771 429.077 349.551 428.689 349.196C428.437 348.882 428.315 348.485 428.347 348.084C428.408 346.712 429.674 345.743 430.812 344.978L432.39 343.922C432.5 343.861 432.594 343.775 432.666 343.672C432.743 343.514 432.77 343.336 432.742 343.162L432.64 341.122C433.685 341.141 434.705 341.442 435.592 341.993C436.479 342.544 437.2 343.326 437.679 344.254C437.893 344.687 438.102 345.192 438.551 345.36C438.844 345.427 439.15 345.378 439.407 345.222C439.663 345.067 439.849 344.819 439.925 344.529C440.06 343.945 440.044 343.336 439.879 342.759C438.955 337.827 439.174 332.757 438.613 327.774C438.577 327.213 438.401 326.67 438.102 326.193C437.862 325.851 437.357 325.52 437.301 325.061Z" fill="#F86D70"/>
<path d="M375.108 168.001H386.329C389.332 168.001 391.766 165.569 391.766 162.569V162.564C391.766 159.564 389.332 157.132 386.329 157.132H375.108C372.106 157.132 369.672 159.564 369.672 162.564V162.569C369.672 165.569 372.106 168.001 375.108 168.001Z" fill="#6C63FF"/>
<path d="M380.886 165.961C382.764 165.961 384.286 164.44 384.286 162.564C384.286 160.688 382.764 159.167 380.886 159.167C379.008 159.167 377.486 160.688 377.486 162.564C377.486 164.44 379.008 165.961 380.886 165.961Z" fill="white"/>
<path d="M368.629 344.183C368.4 344.565 368.037 344.861 367.823 345.254C367.701 345.44 367.652 345.665 367.684 345.886C367.716 346.106 367.827 346.307 367.996 346.452C368.226 346.553 368.482 346.578 368.726 346.524C373.657 345.908 378.285 343.813 381.999 340.515C382.617 339.995 383.165 339.397 383.628 338.735C384.062 338.077 384.429 337.272 385.159 336.996C385.603 338.911 385.833 340.87 385.843 342.836C385.843 344.132 385.659 345.606 384.603 346.355C384.178 346.619 383.712 346.809 383.224 346.916L380.917 347.569C380.508 347.723 380.066 347.765 379.636 347.692C379.365 347.62 379.125 347.447 378.844 347.396C378.54 347.363 378.232 347.404 377.946 347.513L375.95 348.094C375.275 348.27 374.616 348.5 373.979 348.783C373.408 349.053 372.882 349.4 372.325 349.701C371.395 350.167 370.429 350.56 369.436 350.874L365.929 352.093C364.968 352.468 363.965 352.725 362.943 352.858C362.238 352.919 361.518 352.858 360.819 352.976C360.308 353.067 359.798 353.261 359.236 353.302C358.35 353.329 357.479 353.072 356.75 352.568C356.466 352.407 356.219 352.188 356.025 351.925C355.515 351.145 355.959 350.114 356.449 349.324C357.313 347.822 358.542 346.562 360.023 345.662C360.635 345.325 361.294 345.08 361.922 344.774C363.713 343.907 365.066 342.459 366.756 341.469C368.354 340.536 369.38 342.948 368.629 344.183Z" fill="#F86D70"/>
<path d="M417.932 202.964C419.787 204.236 421.911 205.062 424.139 205.377C425.304 205.521 426.478 205.584 427.651 205.565C432.548 205.56 437.437 205.153 442.267 204.346C440.347 202.23 438.402 199.965 437.672 197.206C437.312 195.743 437.236 194.224 437.448 192.733C437.742 190.827 438.2 188.95 438.816 187.122C436.756 187.23 434.691 187.177 432.639 186.964C431.47 186.842 428.601 185.781 427.585 186.587C426.569 187.393 427.35 189.989 427.365 191.208C427.368 191.252 427.368 191.296 427.365 191.34C427.316 193.197 426.916 195.028 426.186 196.737C424.726 200.031 421.561 202.745 417.932 202.964Z" fill="#FBBEBE"/>
<path opacity="0.1" d="M427.371 191.182C428.844 192.144 430.507 192.778 432.246 193.042C433.986 193.306 435.761 193.194 437.454 192.712C437.748 190.806 438.206 188.929 438.822 187.102C436.762 187.21 434.697 187.157 432.645 186.944C431.476 186.821 428.607 185.76 427.591 186.566C426.575 187.372 427.356 189.963 427.371 191.182Z" fill="black"/>
<path d="M434.111 192.615C440.908 192.615 446.419 187.11 446.419 180.318C446.419 173.527 440.908 168.021 434.111 168.021C427.313 168.021 421.803 173.527 421.803 180.318C421.803 187.11 427.313 192.615 434.111 192.615Z" fill="#FBBEBE"/>
<path d="M381.893 242.538C381.888 243.53 382.142 244.506 382.629 245.37C383.116 246.235 383.819 246.958 384.67 247.47C385.617 247.967 386.632 248.324 387.682 248.531C393.297 249.888 399.076 250.979 404.86 250.647C406.113 250.637 407.352 250.377 408.504 249.882C409.078 249.629 409.581 249.241 409.973 248.752C410.365 248.263 410.633 247.687 410.756 247.072C410.761 246.767 410.82 246.465 410.929 246.18C411.154 245.866 411.445 245.607 411.782 245.42C412.308 245.024 412.712 244.487 412.946 243.871C413.18 243.256 413.235 242.586 413.104 241.941C413.803 242.257 414.538 241.548 414.87 240.855C415.202 240.161 415.457 239.325 416.162 239.024C416.642 238.82 417.183 238.942 417.693 238.809C418.505 238.6 419 237.789 419.572 237.203C420.736 235.958 422.395 235.316 423.916 234.546C428.449 232.266 432.14 228.65 435.759 225.095C437.641 223.363 439.351 221.453 440.864 219.392C441.27 218.8 441.645 218.187 441.987 217.556C443.078 215.462 444.025 213.296 444.821 211.074C445.28 209.88 445.745 208.626 445.556 207.361C445.556 207.248 445.515 207.136 445.489 207.019C445.253 206.207 444.875 205.444 444.371 204.765C443.121 202.928 441.482 201.194 439.328 200.623C437.174 200.052 435.029 200.74 432.839 201.205C432.115 201.367 431.379 201.479 430.639 201.541C428.322 201.704 426.045 201.082 423.788 200.465L421.348 199.792C420.128 199.455 419.516 197.981 418.285 197.721C417.732 197.638 417.168 197.667 416.626 197.808C414.12 198.282 411.588 198.899 409.377 200.174C408.883 200.457 408.412 200.777 407.968 201.133C406.364 202.33 405.21 204.031 404.691 205.963C404.181 208.09 404.66 210.365 404.15 212.492C403.731 214.246 402.675 215.776 401.643 217.255L395.63 225.86C394.289 227.876 392.812 229.798 391.209 231.613C387.973 235.127 381.979 237.769 381.893 242.538Z" fill="#F86D70"/>
<path d="M397.942 160.355C397.691 159.177 397.508 157.953 396.859 156.943C396.415 156.309 395.878 155.745 395.267 155.27C394.276 154.35 393.119 153.628 391.856 153.144C391.224 152.906 390.544 152.823 389.873 152.9C389.202 152.977 388.559 153.213 387.997 153.587C386.92 154.403 386.466 155.801 386.297 157.157C386.015 159.002 386.334 160.888 387.206 162.538C388.227 164.354 390.06 165.568 391.576 167.016C392.677 168.077 393.634 169.278 394.424 170.587C394.784 171.265 395.219 171.902 395.721 172.484C395.975 172.769 396.291 172.992 396.645 173.134C397 173.277 397.382 173.335 397.763 173.305C398.399 173.137 398.977 172.796 399.432 172.321C400.055 171.775 401.729 170.791 401.78 169.939C401.821 169.24 400.514 167.659 400.193 167.001C399.211 164.871 398.456 162.644 397.942 160.355Z" fill="#FBBEBE"/>
<path d="M354.693 302.778C356.224 305.634 357.929 308.388 359.313 311.346C360.114 313.065 360.809 314.83 361.702 316.503C362.677 318.323 363.877 320.017 364.898 321.812C367.45 326.351 368.895 331.472 370.217 336.516C373.912 335.967 377.467 334.717 380.692 332.834C380.909 332.712 381.119 332.577 381.32 332.431C382.184 331.814 382.904 331.019 383.434 330.1C382.213 325.51 380.963 320.802 378.477 316.727C377.665 315.401 376.736 314.177 375.924 312.846C373.51 309.046 373.009 304.257 370.248 300.702C369.984 300.344 369.842 299.912 369.842 299.467C369.842 299.023 369.984 298.591 370.248 298.233C370.564 297.82 371.075 297.427 370.978 296.912C370.906 296.54 370.518 296.203 370.666 295.856C370.738 295.688 370.911 295.596 371.044 295.474C371.514 295.045 371.452 294.306 371.498 293.673C371.6 292.062 372.565 290.649 373.499 289.333C373.689 289.023 373.939 288.754 374.235 288.542C374.485 288.389 374.781 288.318 375.031 288.165C375.909 287.619 375.848 286.334 376.271 285.38C376.823 284.126 378.211 283.488 379.125 282.473C380.284 281.178 380.575 279.377 381.8 278.245C381.926 278.127 382.061 278.018 382.203 277.918C381.672 279.846 381.43 281.841 381.483 283.84C381.366 290.695 383.081 297.784 382.28 304.593C381.647 309.99 384.975 315.375 389.692 318.079C391.542 319.055 393.474 319.867 395.466 320.506C398.416 321.552 401.367 322.628 404.262 323.837C406.303 324.684 408.345 325.602 410.316 326.576C412.769 327.764 415.155 329.085 417.463 330.534C420.306 332.339 423.155 334.175 425.171 336.873C427.126 336.822 428.918 335.649 430.154 334.135C431.389 332.62 432.16 330.789 432.88 328.978C433.507 327.412 434.13 325.806 434.176 324.117C434.177 323.936 434.126 323.758 434.031 323.604C433.935 323.45 433.798 323.326 433.635 323.245L420.128 316.105L417.575 314.769C412.047 311.836 406.344 309.122 400.785 306.195C400.412 306.302 400.106 305.879 399.999 305.511C399.892 305.144 399.815 304.685 399.463 304.522C399.284 304.44 399.06 304.44 398.952 304.297C398.865 304.165 398.832 304.005 398.861 303.849C399.039 301.176 400.969 298.718 400.581 296.071C400.418 294.938 399.831 293.826 400.07 292.72C400.249 291.95 400.8 291.327 401.091 290.598C401.75 288.966 401.091 287.028 401.816 285.411C402.3 284.362 402.628 283.249 402.791 282.106C403.139 279.83 403.837 277.621 404.859 275.557C405.348 274.511 405.988 273.541 406.758 272.68C407.166 272.247 407.621 271.854 408.003 271.405C409.183 270.013 409.611 268.156 409.948 266.366C410.551 263.117 410.969 259.736 410.214 256.528C409.959 255.431 409.571 254.345 409.586 253.217C409.586 251.733 410.255 249.994 409.224 248.918C408.789 248.532 408.261 248.265 407.692 248.143C405.291 247.496 402.841 247.044 400.367 246.791L389.105 245.327C387.804 245.241 386.531 244.911 385.353 244.353C383.822 243.511 382.801 241.946 382.188 240.313C380.207 241.757 379.462 244.445 377.885 246.312C377.114 247.224 376.164 247.959 375.332 248.795C374.298 249.879 373.352 251.044 372.504 252.279C370.151 255.507 367.782 258.761 366.097 262.378C365.224 264.26 364.566 266.223 363.841 268.172C361.089 275.858 356.602 283.151 354.739 291.093C354.28 293.036 353.09 294.785 352.911 296.774C352.702 298.881 353.677 300.921 354.693 302.778Z" fill="#434175"/>
<path opacity="0.1" d="M413.767 238.972C414.041 239.483 414.183 240.055 414.181 240.635C413.93 239.39 412.215 238.702 412.108 237.472C412.057 236.906 412.159 236.932 412.511 237.233C413.047 237.677 413.277 238.482 413.767 238.972Z" fill="black"/>
<path opacity="0.1" d="M408.556 242.746C408.915 243.053 409.185 243.452 409.337 243.899C409.622 244.528 409.677 245.238 409.49 245.903C409.24 245.786 409.153 245.48 409.076 245.21C408.961 244.792 408.789 244.393 408.566 244.021C408.362 243.7 407.427 242.935 407.438 242.583C407.422 242.053 408.306 242.558 408.556 242.746Z" fill="black"/>
<path opacity="0.1" d="M407.953 201.133C408.745 201.81 409.615 202.389 410.546 202.857C412.987 204.091 415.687 204.739 418.142 205.917C419.353 206.532 420.529 207.213 421.665 207.957C424.1 209.488 426.53 211.018 428.96 212.573C429.545 212.91 430.085 213.32 430.568 213.792C431.446 214.731 431.441 216.342 432.242 217.362C432.685 217.867 433.228 218.272 433.838 218.553C434.447 218.835 435.109 218.985 435.78 218.995C437.124 219.006 438.46 218.782 439.726 218.332C440.494 218.104 441.248 217.83 441.982 217.51C442.751 217.187 443.477 216.772 444.147 216.276C444.816 215.806 445.386 215.208 445.824 214.518C446.262 213.827 446.559 213.057 446.699 212.252C446.787 211.139 446.639 210.02 446.265 208.967C446.063 208.282 445.803 207.615 445.489 206.973C445.31 206.609 445.101 206.259 444.867 205.927C443.192 203.556 440.242 202.439 437.388 201.883C435.882 201.592 434.351 201.414 432.839 201.159C432.115 201.321 431.38 201.433 430.639 201.495C428.322 201.658 426.045 201.036 423.788 200.419L421.348 199.746C420.128 199.409 419.516 197.935 418.285 197.675C417.732 197.592 417.168 197.621 416.626 197.762C414.12 198.236 411.588 198.853 409.377 200.128C408.876 200.425 408.4 200.761 407.953 201.133Z" fill="black"/>
<path d="M402.005 168.495C402.316 171.469 404.828 173.652 406.359 176.217C407.105 177.467 407.625 178.834 408.294 180.124C409.058 181.536 409.911 182.899 410.847 184.204L413.578 188.167C415.186 190.498 416.809 192.849 418.861 194.798C422.435 195.405 425.447 198.062 428.841 199.352C431.562 200.372 434.523 200.525 437.377 201.081C440.23 201.637 443.181 202.749 444.855 205.126C445.481 206.065 445.953 207.098 446.254 208.186C446.628 209.237 446.776 210.354 446.688 211.466C446.549 212.272 446.252 213.043 445.814 213.735C445.376 214.426 444.805 215.024 444.136 215.495C442.793 216.425 441.299 217.115 439.72 217.535C438.453 217.983 437.118 218.207 435.774 218.198C435.102 218.188 434.44 218.037 433.83 217.756C433.22 217.475 432.675 217.07 432.231 216.566C431.435 215.546 431.44 213.919 430.562 212.996C430.079 212.524 429.539 212.114 428.954 211.777L421.659 207.186C420.523 206.442 419.347 205.761 418.136 205.146C415.681 203.948 412.98 203.3 410.54 202.086C408.1 200.872 405.828 198.817 405.349 196.129C403.863 187.871 398.14 180.909 393.25 174.09C393.408 174.06 393.362 173.692 393.418 173.539C394.126 171.939 395.398 170.654 396.992 169.928C398.564 169.077 400.31 168.857 402.005 168.495Z" fill="#F86D70"/>
<path d="M427.791 168.557C427.699 167.662 427.877 166.76 428.302 165.966C429.113 164.619 430.808 164.145 432.35 163.829C433.891 163.513 435.311 163.268 436.801 163.054C438.014 162.81 439.261 162.788 440.482 162.987C442.146 163.355 443.545 164.472 445.076 165.16C446.914 165.981 448.956 166.18 450.916 166.649C452.876 167.119 454.893 167.868 456.123 169.465C457.057 170.674 457.43 172.219 457.711 173.724C460.044 186.286 457.532 199.169 457.057 211.935C456.869 216.903 457.093 222.213 459.937 226.298L451.662 226.079C449.543 226.023 447.266 225.91 445.602 224.605C444.132 223.457 443.438 221.606 442.815 219.856C442.251 218.497 441.893 217.062 441.753 215.598C441.625 212.599 443.33 209.656 442.774 206.703C442.36 204.499 440.732 202.714 439.037 201.271C437.342 199.827 435.413 198.567 434.019 196.808C431.543 193.671 431.068 189.392 431.375 185.408C431.558 183.042 431.987 180.67 431.778 178.304C431.673 176.493 431.02 174.757 429.904 173.326C428.603 171.755 427.914 170.776 427.791 168.557Z" fill="#434175"/>
<path opacity="0.1" d="M428.301 165.965C429.097 164.639 430.751 164.16 432.268 163.849C431.463 164.131 430.773 164.668 430.302 165.379C429.881 166.175 429.703 167.078 429.792 167.975C429.904 170.193 430.593 171.173 431.91 172.744C433.03 174.173 433.686 175.91 433.789 177.722C433.993 180.088 433.569 182.455 433.386 184.826C433.074 188.805 433.549 193.089 436.03 196.226C437.418 197.985 439.333 199.24 441.048 200.689C442.763 202.137 444.371 203.917 444.785 206.12C445.336 209.068 443.631 212.016 443.764 215.015C443.899 216.479 444.255 217.913 444.82 219.269C445.448 221.024 446.143 222.875 447.608 224.023C449.272 225.328 451.554 225.441 453.672 225.497L459.533 225.65C459.66 225.864 459.798 226.078 459.941 226.287L451.666 226.068C449.548 226.012 447.271 225.9 445.607 224.594C444.136 223.446 443.442 221.595 442.819 219.845C442.255 218.487 441.898 217.051 441.758 215.587C441.63 212.588 443.335 209.645 442.779 206.692C442.365 204.488 440.737 202.703 439.042 201.26C437.347 199.816 435.417 198.557 434.024 196.797C431.548 193.66 431.073 189.381 431.379 185.398C431.563 183.031 431.992 180.659 431.783 178.293C431.678 176.482 431.025 174.746 429.909 173.315C428.592 171.744 427.903 170.765 427.785 168.546C427.698 167.654 427.877 166.755 428.301 165.965Z" fill="black"/>
<path opacity="0.1" d="M366.133 295.428L381.335 332.431C382.199 331.814 382.919 331.019 383.449 330.1C382.229 325.51 380.978 320.802 378.492 316.727C377.68 315.401 376.751 314.177 375.939 312.845C373.525 309.046 373.024 304.256 370.263 300.701C369.999 300.344 369.857 299.911 369.857 299.467C369.857 299.023 369.999 298.59 370.263 298.233C370.579 297.82 371.09 297.427 370.993 296.912C370.921 296.54 370.533 296.203 370.681 295.856C370.753 295.688 370.926 295.596 371.059 295.474C371.529 295.045 371.467 294.306 371.513 293.673C371.615 292.061 372.58 290.649 373.515 289.333C373.704 289.023 373.954 288.754 374.25 288.542C374.5 288.389 374.796 288.318 375.046 288.165C375.924 287.619 375.863 286.334 376.286 285.38C376.838 284.125 378.226 283.488 379.14 282.473C380.299 281.177 380.59 279.377 381.815 278.245L381.922 277.979L380.774 270.839L366.133 295.428Z" fill="black"/>
<path d="M498.774 339.623C508.346 339.623 516.106 338.132 516.106 336.292C516.106 334.453 508.346 332.962 498.774 332.962C489.203 332.962 481.443 334.453 481.443 336.292C481.443 338.132 489.203 339.623 498.774 339.623Z" fill="#6C63FF"/>
<path d="M499.065 337.511C500.179 337.511 501.082 336.331 501.082 334.874C501.082 333.418 500.179 332.237 499.065 332.237C497.952 332.237 497.049 333.418 497.049 334.874C497.049 336.331 497.952 337.511 499.065 337.511Z" fill="#3F3D56"/>
<path d="M499.065 334.287C500.179 334.287 501.082 333.107 501.082 331.651C501.082 330.194 500.179 329.014 499.065 329.014C497.952 329.014 497.049 330.194 497.049 331.651C497.049 333.107 497.952 334.287 499.065 334.287Z" fill="#3F3D56"/>
<path d="M499.065 331.059C500.179 331.059 501.082 329.878 501.082 328.422C501.082 326.966 500.179 325.785 499.065 325.785C497.952 325.785 497.049 326.966 497.049 328.422C497.049 329.878 497.952 331.059 499.065 331.059Z" fill="#3F3D56"/>
<path d="M499.065 327.836C500.179 327.836 501.082 326.656 501.082 325.199C501.082 323.743 500.179 322.562 499.065 322.562C497.952 322.562 497.049 323.743 497.049 325.199C497.049 326.656 497.952 327.836 499.065 327.836Z" fill="#3F3D56"/>
<path d="M499.065 324.608C500.179 324.608 501.082 323.427 501.082 321.971C501.082 320.515 500.179 319.334 499.065 319.334C497.952 319.334 497.049 320.515 497.049 321.971C497.049 323.427 497.952 324.608 499.065 324.608Z" fill="#3F3D56"/>
<path d="M499.065 321.384C500.179 321.384 501.082 320.204 501.082 318.747C501.082 317.291 500.179 316.11 499.065 316.11C497.952 316.11 497.049 317.291 497.049 318.747C497.049 320.204 497.952 321.384 499.065 321.384Z" fill="#3F3D56"/>
<path d="M499.065 318.16C500.179 318.16 501.082 316.98 501.082 315.524C501.082 314.067 500.179 312.887 499.065 312.887C497.952 312.887 497.049 314.067 497.049 315.524C497.049 316.98 497.952 318.16 499.065 318.16Z" fill="#3F3D56"/>
<path d="M491.509 293.45C491.233 293.099 490.982 292.729 490.758 292.343L496.057 291.471L490.325 291.517C489.776 290.321 489.476 289.025 489.445 287.71C489.413 286.395 489.65 285.087 490.141 283.866L497.834 287.849L490.738 282.642C491.4 281.488 492.293 280.484 493.361 279.691C494.43 278.898 495.65 278.334 496.947 278.035C498.243 277.735 499.588 277.706 500.896 277.949C502.204 278.193 503.448 278.703 504.55 279.449C505.652 280.195 506.587 281.16 507.299 282.284C508.01 283.408 508.481 284.666 508.683 285.981C508.885 287.295 508.813 288.636 508.472 289.922C508.131 291.207 507.528 292.408 506.701 293.45C507.133 293.993 507.503 294.584 507.804 295.209L500.922 298.779L508.263 296.321C508.6 297.319 508.772 298.364 508.774 299.417C508.776 301.584 508.046 303.689 506.701 305.39C507.822 306.814 508.519 308.524 508.713 310.326C508.907 312.127 508.59 313.947 507.797 315.577C507.005 317.206 505.769 318.58 504.232 319.542C502.695 320.503 500.918 321.013 499.105 321.013C497.292 321.013 495.515 320.503 493.978 319.542C492.44 318.58 491.205 317.206 490.413 315.577C489.62 313.947 489.303 312.127 489.497 310.326C489.691 308.524 490.388 306.814 491.509 305.39C490.17 303.687 489.441 301.585 489.441 299.42C489.441 297.254 490.17 295.152 491.509 293.45Z" fill="#6C63FF"/>
<path opacity="0.1" d="M508.774 299.417C508.776 301.584 508.046 303.689 506.701 305.39C507.822 306.814 508.519 308.524 508.713 310.326C508.907 312.127 508.59 313.947 507.797 315.577C507.005 317.206 505.77 318.58 504.232 319.542C502.695 320.503 500.918 321.013 499.105 321.013C497.292 321.013 495.515 320.503 493.978 319.542C492.44 318.58 491.205 317.206 490.413 315.577C489.62 313.947 489.303 312.127 489.497 310.326C489.691 308.524 490.388 306.814 491.509 305.39C490.212 303.747 508.774 298.336 508.774 299.417Z" fill="black"/>
<path d="M532.528 301.544C538.964 301.544 544.182 300.541 544.182 299.304C544.182 298.068 538.964 297.065 532.528 297.065C526.091 297.065 520.873 298.068 520.873 299.304C520.873 300.541 526.091 301.544 532.528 301.544Z" fill="#6C63FF"/>
<path d="M532.727 300.131C533.477 300.131 534.085 299.336 534.085 298.356C534.085 297.376 533.477 296.581 532.727 296.581C531.977 296.581 531.369 297.376 531.369 298.356C531.369 299.336 531.977 300.131 532.727 300.131Z" fill="#3F3D56"/>
<path d="M532.727 297.963C533.477 297.963 534.085 297.168 534.085 296.188C534.085 295.208 533.477 294.413 532.727 294.413C531.977 294.413 531.369 295.208 531.369 296.188C531.369 297.168 531.977 297.963 532.727 297.963Z" fill="#3F3D56"/>
<path d="M532.727 295.79C533.477 295.79 534.085 294.995 534.085 294.015C534.085 293.035 533.477 292.24 532.727 292.24C531.977 292.24 531.369 293.035 531.369 294.015C531.369 294.995 531.977 295.79 532.727 295.79Z" fill="#3F3D56"/>
<path d="M532.727 293.622C533.477 293.622 534.085 292.827 534.085 291.847C534.085 290.867 533.477 290.072 532.727 290.072C531.977 290.072 531.369 290.867 531.369 291.847C531.369 292.827 531.977 293.622 532.727 293.622Z" fill="#3F3D56"/>
<path d="M532.727 291.455C533.477 291.455 534.085 290.661 534.085 289.68C534.085 288.7 533.477 287.905 532.727 287.905C531.977 287.905 531.369 288.7 531.369 289.68C531.369 290.661 531.977 291.455 532.727 291.455Z" fill="#3F3D56"/>
<path d="M532.727 289.287C533.477 289.287 534.085 288.492 534.085 287.512C534.085 286.532 533.477 285.737 532.727 285.737C531.977 285.737 531.369 286.532 531.369 287.512C531.369 288.492 531.977 289.287 532.727 289.287Z" fill="#3F3D56"/>
<path d="M532.727 287.114C533.477 287.114 534.085 286.32 534.085 285.339C534.085 284.359 533.477 283.564 532.727 283.564C531.977 283.564 531.369 284.359 531.369 285.339C531.369 286.32 531.977 287.114 532.727 287.114Z" fill="#3F3D56"/>
<path d="M527.646 270.503C527.456 270.269 527.285 270.02 527.136 269.758L530.709 269.172L526.855 269.202C526.46 268.352 526.257 267.426 526.258 266.489C526.257 265.655 526.416 264.83 526.727 264.056L531.904 266.739L527.13 263.235C527.573 262.455 528.173 261.776 528.891 261.239C529.61 260.702 530.432 260.32 531.306 260.116C532.18 259.912 533.086 259.892 533.968 260.055C534.85 260.219 535.689 260.563 536.432 261.066C537.174 261.57 537.804 262.221 538.282 262.98C538.76 263.738 539.076 264.588 539.209 265.474C539.342 266.361 539.29 267.265 539.057 268.131C538.823 268.996 538.412 269.804 537.851 270.503C538.14 270.869 538.388 271.266 538.591 271.686L533.966 274.088L538.897 272.431C539.247 273.457 539.334 274.555 539.151 275.624C538.968 276.692 538.521 277.699 537.851 278.551C538.608 279.509 539.079 280.661 539.211 281.874C539.344 283.087 539.131 284.313 538.598 285.411C538.066 286.509 537.234 287.435 536.199 288.083C535.164 288.731 533.967 289.075 532.746 289.075C531.524 289.075 530.328 288.731 529.293 288.083C528.258 287.435 527.426 286.509 526.893 285.411C526.361 284.313 526.148 283.087 526.28 281.874C526.413 280.661 526.884 279.509 527.641 278.551C526.738 277.408 526.248 275.994 526.248 274.537C526.248 273.081 526.738 271.667 527.641 270.523L527.646 270.503Z" fill="#6C63FF"/>
<path opacity="0.1" d="M539.251 274.517C539.252 275.973 538.763 277.386 537.862 278.531C538.619 279.489 539.091 280.64 539.223 281.853C539.355 283.067 539.143 284.292 538.61 285.391C538.077 286.489 537.246 287.415 536.211 288.063C535.176 288.711 533.979 289.055 532.758 289.055C531.536 289.055 530.339 288.711 529.304 288.063C528.269 287.415 527.438 286.489 526.905 285.391C526.372 284.292 526.16 283.067 526.292 281.853C526.424 280.64 526.896 279.489 527.653 278.531C526.775 277.424 539.251 273.787 539.251 274.517Z" fill="black"/>
</g>
<defs>
<linearGradient id="paint0_linear" x1="406.334" y1="354.057" x2="406.334" y2="152.256" gradientUnits="userSpaceOnUse">
<stop stop-color="#808080" stop-opacity="0.25"/>
<stop offset="0.54" stop-color="#808080" stop-opacity="0.12"/>
<stop offset="1" stop-color="#808080" stop-opacity="0.1"/>
</linearGradient>
<clipPath id="clip0">
<rect width="584" height="356" fill="white"/>
</clipPath>
</defs>
</svg>
