<svg width="439" height="348" viewBox="0 0 439 348" fill="none" xmlns="http://www.w3.org/2000/svg">
<g opacity="0.1">
<ellipse cx="1.49659" cy="1.5" rx="1.49659" ry="1.5" fill="#F9F9F9"/>
<ellipse cx="1.49659" cy="24.5" rx="1.49659" ry="1.5" fill="#F9F9F9"/>
<ellipse cx="1.49659" cy="47.5" rx="1.49659" ry="1.5" fill="#F9F9F9"/>
<ellipse cx="1.49659" cy="70.5" rx="1.49659" ry="1.5" fill="#F9F9F9"/>
<ellipse cx="1.49659" cy="93.5" rx="1.49659" ry="1.5" fill="#F9F9F9"/>
<ellipse cx="1.49659" cy="116.5" rx="1.49659" ry="1.5" fill="#F9F9F9"/>
<ellipse cx="1.49659" cy="139.5" rx="1.49659" ry="1.5" fill="#F9F9F9"/>
<ellipse cx="1.49659" cy="162.5" rx="1.49659" ry="1.5" fill="#F9F9F9"/>
<ellipse cx="24.4443" cy="1.5" rx="1.49659" ry="1.5" fill="#F9F9F9"/>
<ellipse cx="24.4443" cy="24.5" rx="1.49659" ry="1.5" fill="#F9F9F9"/>
<ellipse cx="24.4443" cy="47.5" rx="1.49659" ry="1.5" fill="#F9F9F9"/>
<ellipse cx="24.4443" cy="70.5" rx="1.49659" ry="1.5" fill="#F9F9F9"/>
<ellipse cx="24.4443" cy="93.5" rx="1.49659" ry="1.5" fill="#F9F9F9"/>
<ellipse cx="24.4443" cy="116.5" rx="1.49659" ry="1.5" fill="#F9F9F9"/>
<ellipse cx="24.4443" cy="139.5" rx="1.49659" ry="1.5" fill="#F9F9F9"/>
<ellipse cx="24.4443" cy="162.5" rx="1.49659" ry="1.5" fill="#F9F9F9"/>
<ellipse cx="47.3921" cy="1.5" rx="1.49659" ry="1.5" fill="#F9F9F9"/>
<ellipse cx="47.3921" cy="24.5" rx="1.49659" ry="1.5" fill="#F9F9F9"/>
<ellipse cx="47.3921" cy="47.5" rx="1.49659" ry="1.5" fill="#F9F9F9"/>
<ellipse cx="47.3921" cy="70.5" rx="1.49659" ry="1.5" fill="#F9F9F9"/>
<ellipse cx="47.3921" cy="93.5" rx="1.49659" ry="1.5" fill="#F9F9F9"/>
<ellipse cx="47.3921" cy="116.5" rx="1.49659" ry="1.5" fill="#F9F9F9"/>
<ellipse cx="47.3921" cy="139.5" rx="1.49659" ry="1.5" fill="#F9F9F9"/>
<ellipse cx="47.3921" cy="162.5" rx="1.49659" ry="1.5" fill="#F9F9F9"/>
<ellipse cx="70.3397" cy="1.5" rx="1.49659" ry="1.5" fill="#F9F9F9"/>
<ellipse cx="70.3397" cy="24.5" rx="1.49659" ry="1.5" fill="#F9F9F9"/>
<ellipse cx="70.3397" cy="47.5" rx="1.49659" ry="1.5" fill="#F9F9F9"/>
<ellipse cx="70.3397" cy="70.5" rx="1.49659" ry="1.5" fill="#F9F9F9"/>
<ellipse cx="70.3397" cy="93.5" rx="1.49659" ry="1.5" fill="#F9F9F9"/>
<ellipse cx="70.3397" cy="116.5" rx="1.49659" ry="1.5" fill="#F9F9F9"/>
<ellipse cx="70.3397" cy="139.5" rx="1.49659" ry="1.5" fill="#F9F9F9"/>
<ellipse cx="70.3397" cy="162.5" rx="1.49659" ry="1.5" fill="#F9F9F9"/>
<ellipse cx="93.2875" cy="1.5" rx="1.49659" ry="1.5" fill="#F9F9F9"/>
<ellipse cx="93.2875" cy="24.5" rx="1.49659" ry="1.5" fill="#F9F9F9"/>
<ellipse cx="93.2875" cy="47.5" rx="1.49659" ry="1.5" fill="#F9F9F9"/>
<ellipse cx="93.2875" cy="70.5" rx="1.49659" ry="1.5" fill="#F9F9F9"/>
<ellipse cx="93.2875" cy="93.5" rx="1.49659" ry="1.5" fill="#F9F9F9"/>
<ellipse cx="93.2875" cy="116.5" rx="1.49659" ry="1.5" fill="#F9F9F9"/>
<ellipse cx="93.2875" cy="139.5" rx="1.49659" ry="1.5" fill="#F9F9F9"/>
<ellipse cx="93.2875" cy="162.5" rx="1.49659" ry="1.5" fill="#F9F9F9"/>
<ellipse cx="116.235" cy="1.5" rx="1.49659" ry="1.5" fill="#F9F9F9"/>
<ellipse cx="116.235" cy="24.5" rx="1.49659" ry="1.5" fill="#F9F9F9"/>
<ellipse cx="116.235" cy="47.5" rx="1.49659" ry="1.5" fill="#F9F9F9"/>
<ellipse cx="116.235" cy="70.5" rx="1.49659" ry="1.5" fill="#F9F9F9"/>
<ellipse cx="116.235" cy="93.5" rx="1.49659" ry="1.5" fill="#F9F9F9"/>
<ellipse cx="116.235" cy="116.5" rx="1.49659" ry="1.5" fill="#F9F9F9"/>
<ellipse cx="116.235" cy="139.5" rx="1.49659" ry="1.5" fill="#F9F9F9"/>
<ellipse cx="116.235" cy="162.5" rx="1.49659" ry="1.5" fill="#F9F9F9"/>
<ellipse cx="139.183" cy="1.5" rx="1.49659" ry="1.5" fill="#F9F9F9"/>
<ellipse cx="139.183" cy="24.5" rx="1.49659" ry="1.5" fill="#F9F9F9"/>
<ellipse cx="139.183" cy="47.5" rx="1.49659" ry="1.5" fill="#F9F9F9"/>
<ellipse cx="139.183" cy="70.5" rx="1.49659" ry="1.5" fill="#F9F9F9"/>
<ellipse cx="139.183" cy="93.5" rx="1.49659" ry="1.5" fill="#F9F9F9"/>
<ellipse cx="139.183" cy="116.5" rx="1.49659" ry="1.5" fill="#F9F9F9"/>
<ellipse cx="139.183" cy="139.5" rx="1.49659" ry="1.5" fill="#F9F9F9"/>
<ellipse cx="139.183" cy="162.5" rx="1.49659" ry="1.5" fill="#F9F9F9"/>
<ellipse cx="162.131" cy="1.5" rx="1.49659" ry="1.5" fill="#F9F9F9"/>
<ellipse cx="162.131" cy="24.5" rx="1.49659" ry="1.5" fill="#F9F9F9"/>
<ellipse cx="162.131" cy="47.5" rx="1.49659" ry="1.5" fill="#F9F9F9"/>
<ellipse cx="162.131" cy="70.5" rx="1.49659" ry="1.5" fill="#F9F9F9"/>
<ellipse cx="162.131" cy="93.5" rx="1.49659" ry="1.5" fill="#F9F9F9"/>
<ellipse cx="162.131" cy="116.5" rx="1.49659" ry="1.5" fill="#F9F9F9"/>
<ellipse cx="162.131" cy="139.5" rx="1.49659" ry="1.5" fill="#F9F9F9"/>
<ellipse cx="162.131" cy="162.5" rx="1.49659" ry="1.5" fill="#F9F9F9"/>
<ellipse cx="185.078" cy="1.5" rx="1.49659" ry="1.5" fill="#F9F9F9"/>
<ellipse cx="185.078" cy="24.5" rx="1.49659" ry="1.5" fill="#F9F9F9"/>
<ellipse cx="185.078" cy="47.5" rx="1.49659" ry="1.5" fill="#F9F9F9"/>
<ellipse cx="185.078" cy="70.5" rx="1.49659" ry="1.5" fill="#F9F9F9"/>
<ellipse cx="185.078" cy="93.5" rx="1.49659" ry="1.5" fill="#F9F9F9"/>
<ellipse cx="185.078" cy="116.5" rx="1.49659" ry="1.5" fill="#F9F9F9"/>
<ellipse cx="185.078" cy="139.5" rx="1.49659" ry="1.5" fill="#F9F9F9"/>
<ellipse cx="185.078" cy="162.5" rx="1.49659" ry="1.5" fill="#F9F9F9"/>
<ellipse cx="208.026" cy="1.5" rx="1.49659" ry="1.5" fill="#F9F9F9"/>
<ellipse cx="208.026" cy="24.5" rx="1.49659" ry="1.5" fill="#F9F9F9"/>
<ellipse cx="208.026" cy="47.5" rx="1.49659" ry="1.5" fill="#F9F9F9"/>
<ellipse cx="208.026" cy="70.5" rx="1.49659" ry="1.5" fill="#F9F9F9"/>
<ellipse cx="208.026" cy="93.5" rx="1.49659" ry="1.5" fill="#F9F9F9"/>
<ellipse cx="208.026" cy="116.5" rx="1.49659" ry="1.5" fill="#F9F9F9"/>
<ellipse cx="208.026" cy="139.5" rx="1.49659" ry="1.5" fill="#F9F9F9"/>
<ellipse cx="208.026" cy="162.5" rx="1.49659" ry="1.5" fill="#F9F9F9"/>
<ellipse cx="230.974" cy="1.5" rx="1.49659" ry="1.5" fill="#F9F9F9"/>
<ellipse cx="230.974" cy="24.5" rx="1.49659" ry="1.5" fill="#F9F9F9"/>
<ellipse cx="230.974" cy="47.5" rx="1.49659" ry="1.5" fill="#F9F9F9"/>
<ellipse cx="230.974" cy="70.5" rx="1.49659" ry="1.5" fill="#F9F9F9"/>
<ellipse cx="230.974" cy="93.5" rx="1.49659" ry="1.5" fill="#F9F9F9"/>
<ellipse cx="230.974" cy="116.5" rx="1.49659" ry="1.5" fill="#F9F9F9"/>
<ellipse cx="230.974" cy="139.5" rx="1.49659" ry="1.5" fill="#F9F9F9"/>
<ellipse cx="230.974" cy="162.5" rx="1.49659" ry="1.5" fill="#F9F9F9"/>
<ellipse cx="253.922" cy="1.5" rx="1.49659" ry="1.5" fill="#F9F9F9"/>
<ellipse cx="253.922" cy="24.5" rx="1.49659" ry="1.5" fill="#F9F9F9"/>
<ellipse cx="253.922" cy="47.5" rx="1.49659" ry="1.5" fill="#F9F9F9"/>
<ellipse cx="253.922" cy="70.5" rx="1.49659" ry="1.5" fill="#F9F9F9"/>
<ellipse cx="253.922" cy="93.5" rx="1.49659" ry="1.5" fill="#F9F9F9"/>
<ellipse cx="253.922" cy="116.5" rx="1.49659" ry="1.5" fill="#F9F9F9"/>
<ellipse cx="253.922" cy="139.5" rx="1.49659" ry="1.5" fill="#F9F9F9"/>
<ellipse cx="253.922" cy="162.5" rx="1.49659" ry="1.5" fill="#F9F9F9"/>
<ellipse cx="276.869" cy="1.5" rx="1.49659" ry="1.5" fill="#F9F9F9"/>
<ellipse cx="276.869" cy="24.5" rx="1.49659" ry="1.5" fill="#F9F9F9"/>
<ellipse cx="276.869" cy="47.5" rx="1.49659" ry="1.5" fill="#F9F9F9"/>
<ellipse cx="276.869" cy="70.5" rx="1.49659" ry="1.5" fill="#F9F9F9"/>
<ellipse cx="276.869" cy="93.5" rx="1.49659" ry="1.5" fill="#F9F9F9"/>
<ellipse cx="276.869" cy="116.5" rx="1.49659" ry="1.5" fill="#F9F9F9"/>
<ellipse cx="276.869" cy="139.5" rx="1.49659" ry="1.5" fill="#F9F9F9"/>
<ellipse cx="276.869" cy="162.5" rx="1.49659" ry="1.5" fill="#F9F9F9"/>
<ellipse cx="299.817" cy="1.5" rx="1.49659" ry="1.5" fill="#F9F9F9"/>
<ellipse cx="299.817" cy="24.5" rx="1.49659" ry="1.5" fill="#F9F9F9"/>
<ellipse cx="299.817" cy="47.5" rx="1.49659" ry="1.5" fill="#F9F9F9"/>
<ellipse cx="299.817" cy="70.5" rx="1.49659" ry="1.5" fill="#F9F9F9"/>
<ellipse cx="299.817" cy="93.5" rx="1.49659" ry="1.5" fill="#F9F9F9"/>
<ellipse cx="299.817" cy="116.5" rx="1.49659" ry="1.5" fill="#F9F9F9"/>
<ellipse cx="299.817" cy="139.5" rx="1.49659" ry="1.5" fill="#F9F9F9"/>
<ellipse cx="299.817" cy="162.5" rx="1.49659" ry="1.5" fill="#F9F9F9"/>
<ellipse cx="322.765" cy="1.5" rx="1.49659" ry="1.5" fill="#F9F9F9"/>
<ellipse cx="322.765" cy="24.5" rx="1.49659" ry="1.5" fill="#F9F9F9"/>
<ellipse cx="322.765" cy="47.5" rx="1.49659" ry="1.5" fill="#F9F9F9"/>
<ellipse cx="322.765" cy="70.5" rx="1.49659" ry="1.5" fill="#F9F9F9"/>
<ellipse cx="322.765" cy="93.5" rx="1.49659" ry="1.5" fill="#F9F9F9"/>
<ellipse cx="322.765" cy="116.5" rx="1.49659" ry="1.5" fill="#F9F9F9"/>
<ellipse cx="322.765" cy="139.5" rx="1.49659" ry="1.5" fill="#F9F9F9"/>
<ellipse cx="322.765" cy="162.5" rx="1.49659" ry="1.5" fill="#F9F9F9"/>
<ellipse cx="345.713" cy="1.5" rx="1.49659" ry="1.5" fill="#F9F9F9"/>
<ellipse cx="345.713" cy="24.5" rx="1.49659" ry="1.5" fill="#F9F9F9"/>
<ellipse cx="345.713" cy="47.5" rx="1.49659" ry="1.5" fill="#F9F9F9"/>
<ellipse cx="345.713" cy="70.5" rx="1.49659" ry="1.5" fill="#F9F9F9"/>
<ellipse cx="345.713" cy="93.5" rx="1.49659" ry="1.5" fill="#F9F9F9"/>
<ellipse cx="345.713" cy="116.5" rx="1.49659" ry="1.5" fill="#F9F9F9"/>
<ellipse cx="345.713" cy="139.5" rx="1.49659" ry="1.5" fill="#F9F9F9"/>
<ellipse cx="345.713" cy="162.5" rx="1.49659" ry="1.5" fill="#F9F9F9"/>
<ellipse cx="368.66" cy="1.5" rx="1.49659" ry="1.5" fill="#F9F9F9"/>
<ellipse cx="368.66" cy="24.5" rx="1.49659" ry="1.5" fill="#F9F9F9"/>
<ellipse cx="368.66" cy="47.5" rx="1.49659" ry="1.5" fill="#F9F9F9"/>
<ellipse cx="368.66" cy="70.5" rx="1.49659" ry="1.5" fill="#F9F9F9"/>
<ellipse cx="368.66" cy="93.5" rx="1.49659" ry="1.5" fill="#F9F9F9"/>
<ellipse cx="368.66" cy="116.5" rx="1.49659" ry="1.5" fill="#F9F9F9"/>
<ellipse cx="368.66" cy="139.5" rx="1.49659" ry="1.5" fill="#F9F9F9"/>
<ellipse cx="368.66" cy="162.5" rx="1.49659" ry="1.5" fill="#F9F9F9"/>
<ellipse cx="391.608" cy="1.5" rx="1.49659" ry="1.5" fill="#F9F9F9"/>
<ellipse cx="391.608" cy="24.5" rx="1.49659" ry="1.5" fill="#F9F9F9"/>
<ellipse cx="391.608" cy="47.5" rx="1.49659" ry="1.5" fill="#F9F9F9"/>
<ellipse cx="391.608" cy="70.5" rx="1.49659" ry="1.5" fill="#F9F9F9"/>
<ellipse cx="391.608" cy="93.5" rx="1.49659" ry="1.5" fill="#F9F9F9"/>
<ellipse cx="391.608" cy="116.5" rx="1.49659" ry="1.5" fill="#F9F9F9"/>
<ellipse cx="391.608" cy="139.5" rx="1.49659" ry="1.5" fill="#F9F9F9"/>
<ellipse cx="391.608" cy="162.5" rx="1.49659" ry="1.5" fill="#F9F9F9"/>
<ellipse cx="414.556" cy="1.5" rx="1.49659" ry="1.5" fill="#F9F9F9"/>
<ellipse cx="414.556" cy="24.5" rx="1.49659" ry="1.5" fill="#F9F9F9"/>
<ellipse cx="414.556" cy="47.5" rx="1.49659" ry="1.5" fill="#F9F9F9"/>
<ellipse cx="414.556" cy="70.5" rx="1.49659" ry="1.5" fill="#F9F9F9"/>
<ellipse cx="414.556" cy="93.5" rx="1.49659" ry="1.5" fill="#F9F9F9"/>
<ellipse cx="414.556" cy="116.5" rx="1.49659" ry="1.5" fill="#F9F9F9"/>
<ellipse cx="414.556" cy="139.5" rx="1.49659" ry="1.5" fill="#F9F9F9"/>
<ellipse cx="414.556" cy="162.5" rx="1.49659" ry="1.5" fill="#F9F9F9"/>
<ellipse cx="1.49659" cy="185.5" rx="1.49659" ry="1.5" fill="#F9F9F9"/>
<ellipse cx="1.49659" cy="208.5" rx="1.49659" ry="1.5" fill="#F9F9F9"/>
<ellipse cx="1.49659" cy="231.5" rx="1.49659" ry="1.5" fill="#F9F9F9"/>
<ellipse cx="1.49659" cy="254.5" rx="1.49659" ry="1.5" fill="#F9F9F9"/>
<ellipse cx="1.49659" cy="277.5" rx="1.49659" ry="1.5" fill="#F9F9F9"/>
<ellipse cx="1.49659" cy="300.5" rx="1.49659" ry="1.5" fill="#F9F9F9"/>
<ellipse cx="1.49659" cy="323.5" rx="1.49659" ry="1.5" fill="#F9F9F9"/>
<ellipse cx="1.49659" cy="346.5" rx="1.49659" ry="1.5" fill="#F9F9F9"/>
<ellipse cx="24.4443" cy="185.5" rx="1.49659" ry="1.5" fill="#F9F9F9"/>
<ellipse cx="24.4443" cy="208.5" rx="1.49659" ry="1.5" fill="#F9F9F9"/>
<ellipse cx="24.4443" cy="231.5" rx="1.49659" ry="1.5" fill="#F9F9F9"/>
<ellipse cx="24.4443" cy="254.5" rx="1.49659" ry="1.5" fill="#F9F9F9"/>
<ellipse cx="24.4443" cy="277.5" rx="1.49659" ry="1.5" fill="#F9F9F9"/>
<ellipse cx="24.4443" cy="300.5" rx="1.49659" ry="1.5" fill="#F9F9F9"/>
<ellipse cx="24.4443" cy="323.5" rx="1.49659" ry="1.5" fill="#F9F9F9"/>
<ellipse cx="24.4443" cy="346.5" rx="1.49659" ry="1.5" fill="#F9F9F9"/>
<ellipse cx="47.3921" cy="185.5" rx="1.49659" ry="1.5" fill="#F9F9F9"/>
<ellipse cx="47.3921" cy="208.5" rx="1.49659" ry="1.5" fill="#F9F9F9"/>
<ellipse cx="47.3921" cy="231.5" rx="1.49659" ry="1.5" fill="#F9F9F9"/>
<ellipse cx="47.3921" cy="254.5" rx="1.49659" ry="1.5" fill="#F9F9F9"/>
<ellipse cx="47.3921" cy="277.5" rx="1.49659" ry="1.5" fill="#F9F9F9"/>
<ellipse cx="47.3921" cy="300.5" rx="1.49659" ry="1.5" fill="#F9F9F9"/>
<ellipse cx="47.3921" cy="323.5" rx="1.49659" ry="1.5" fill="#F9F9F9"/>
<ellipse cx="47.3921" cy="346.5" rx="1.49659" ry="1.5" fill="#F9F9F9"/>
<ellipse cx="70.3397" cy="185.5" rx="1.49659" ry="1.5" fill="#F9F9F9"/>
<ellipse cx="70.3397" cy="208.5" rx="1.49659" ry="1.5" fill="#F9F9F9"/>
<ellipse cx="70.3397" cy="231.5" rx="1.49659" ry="1.5" fill="#F9F9F9"/>
<ellipse cx="70.3397" cy="254.5" rx="1.49659" ry="1.5" fill="#F9F9F9"/>
<ellipse cx="70.3397" cy="277.5" rx="1.49659" ry="1.5" fill="#F9F9F9"/>
<ellipse cx="70.3397" cy="300.5" rx="1.49659" ry="1.5" fill="#F9F9F9"/>
<ellipse cx="70.3397" cy="323.5" rx="1.49659" ry="1.5" fill="#F9F9F9"/>
<ellipse cx="70.3397" cy="346.5" rx="1.49659" ry="1.5" fill="#F9F9F9"/>
<ellipse cx="93.2875" cy="185.5" rx="1.49659" ry="1.5" fill="#F9F9F9"/>
<ellipse cx="93.2875" cy="208.5" rx="1.49659" ry="1.5" fill="#F9F9F9"/>
<ellipse cx="93.2875" cy="231.5" rx="1.49659" ry="1.5" fill="#F9F9F9"/>
<ellipse cx="93.2875" cy="254.5" rx="1.49659" ry="1.5" fill="#F9F9F9"/>
<ellipse cx="93.2875" cy="277.5" rx="1.49659" ry="1.5" fill="#F9F9F9"/>
<ellipse cx="93.2875" cy="300.5" rx="1.49659" ry="1.5" fill="#F9F9F9"/>
<ellipse cx="93.2875" cy="323.5" rx="1.49659" ry="1.5" fill="#F9F9F9"/>
<ellipse cx="93.2875" cy="346.5" rx="1.49659" ry="1.5" fill="#F9F9F9"/>
<ellipse cx="116.235" cy="185.5" rx="1.49659" ry="1.5" fill="#F9F9F9"/>
<ellipse cx="116.235" cy="208.5" rx="1.49659" ry="1.5" fill="#F9F9F9"/>
<ellipse cx="116.235" cy="231.5" rx="1.49659" ry="1.5" fill="#F9F9F9"/>
<ellipse cx="116.235" cy="254.5" rx="1.49659" ry="1.5" fill="#F9F9F9"/>
<ellipse cx="116.235" cy="277.5" rx="1.49659" ry="1.5" fill="#F9F9F9"/>
<ellipse cx="116.235" cy="300.5" rx="1.49659" ry="1.5" fill="#F9F9F9"/>
<ellipse cx="116.235" cy="323.5" rx="1.49659" ry="1.5" fill="#F9F9F9"/>
<ellipse cx="116.235" cy="346.5" rx="1.49659" ry="1.5" fill="#F9F9F9"/>
<ellipse cx="139.183" cy="185.5" rx="1.49659" ry="1.5" fill="#F9F9F9"/>
<ellipse cx="139.183" cy="208.5" rx="1.49659" ry="1.5" fill="#F9F9F9"/>
<ellipse cx="139.183" cy="231.5" rx="1.49659" ry="1.5" fill="#F9F9F9"/>
<ellipse cx="139.183" cy="254.5" rx="1.49659" ry="1.5" fill="#F9F9F9"/>
<ellipse cx="139.183" cy="277.5" rx="1.49659" ry="1.5" fill="#F9F9F9"/>
<ellipse cx="139.183" cy="300.5" rx="1.49659" ry="1.5" fill="#F9F9F9"/>
<ellipse cx="139.183" cy="323.5" rx="1.49659" ry="1.5" fill="#F9F9F9"/>
<ellipse cx="139.183" cy="346.5" rx="1.49659" ry="1.5" fill="#F9F9F9"/>
<ellipse cx="162.131" cy="185.5" rx="1.49659" ry="1.5" fill="#F9F9F9"/>
<ellipse cx="162.131" cy="208.5" rx="1.49659" ry="1.5" fill="#F9F9F9"/>
<ellipse cx="162.131" cy="231.5" rx="1.49659" ry="1.5" fill="#F9F9F9"/>
<ellipse cx="162.131" cy="254.5" rx="1.49659" ry="1.5" fill="#F9F9F9"/>
<ellipse cx="162.131" cy="277.5" rx="1.49659" ry="1.5" fill="#F9F9F9"/>
<ellipse cx="162.131" cy="300.5" rx="1.49659" ry="1.5" fill="#F9F9F9"/>
<ellipse cx="162.131" cy="323.5" rx="1.49659" ry="1.5" fill="#F9F9F9"/>
<ellipse cx="162.131" cy="346.5" rx="1.49659" ry="1.5" fill="#F9F9F9"/>
<ellipse cx="185.078" cy="185.5" rx="1.49659" ry="1.5" fill="#F9F9F9"/>
<ellipse cx="185.078" cy="208.5" rx="1.49659" ry="1.5" fill="#F9F9F9"/>
<ellipse cx="185.078" cy="231.5" rx="1.49659" ry="1.5" fill="#F9F9F9"/>
<ellipse cx="185.078" cy="254.5" rx="1.49659" ry="1.5" fill="#F9F9F9"/>
<ellipse cx="185.078" cy="277.5" rx="1.49659" ry="1.5" fill="#F9F9F9"/>
<ellipse cx="185.078" cy="300.5" rx="1.49659" ry="1.5" fill="#F9F9F9"/>
<ellipse cx="185.078" cy="323.5" rx="1.49659" ry="1.5" fill="#F9F9F9"/>
<ellipse cx="185.078" cy="346.5" rx="1.49659" ry="1.5" fill="#F9F9F9"/>
<ellipse cx="208.026" cy="185.5" rx="1.49659" ry="1.5" fill="#F9F9F9"/>
<ellipse cx="208.026" cy="208.5" rx="1.49659" ry="1.5" fill="#F9F9F9"/>
<ellipse cx="208.026" cy="231.5" rx="1.49659" ry="1.5" fill="#F9F9F9"/>
<ellipse cx="208.026" cy="254.5" rx="1.49659" ry="1.5" fill="#F9F9F9"/>
<ellipse cx="208.026" cy="277.5" rx="1.49659" ry="1.5" fill="#F9F9F9"/>
<ellipse cx="208.026" cy="300.5" rx="1.49659" ry="1.5" fill="#F9F9F9"/>
<ellipse cx="208.026" cy="323.5" rx="1.49659" ry="1.5" fill="#F9F9F9"/>
<ellipse cx="208.026" cy="346.5" rx="1.49659" ry="1.5" fill="#F9F9F9"/>
<ellipse cx="230.974" cy="185.5" rx="1.49659" ry="1.5" fill="#F9F9F9"/>
<ellipse cx="230.974" cy="208.5" rx="1.49659" ry="1.5" fill="#F9F9F9"/>
<ellipse cx="230.974" cy="231.5" rx="1.49659" ry="1.5" fill="#F9F9F9"/>
<ellipse cx="230.974" cy="254.5" rx="1.49659" ry="1.5" fill="#F9F9F9"/>
<ellipse cx="230.974" cy="277.5" rx="1.49659" ry="1.5" fill="#F9F9F9"/>
<ellipse cx="230.974" cy="300.5" rx="1.49659" ry="1.5" fill="#F9F9F9"/>
<ellipse cx="230.974" cy="323.5" rx="1.49659" ry="1.5" fill="#F9F9F9"/>
<ellipse cx="230.974" cy="346.5" rx="1.49659" ry="1.5" fill="#F9F9F9"/>
<ellipse cx="253.922" cy="185.5" rx="1.49659" ry="1.5" fill="#F9F9F9"/>
<ellipse cx="253.922" cy="208.5" rx="1.49659" ry="1.5" fill="#F9F9F9"/>
<ellipse cx="253.922" cy="231.5" rx="1.49659" ry="1.5" fill="#F9F9F9"/>
<ellipse cx="253.922" cy="254.5" rx="1.49659" ry="1.5" fill="#F9F9F9"/>
<ellipse cx="253.922" cy="277.5" rx="1.49659" ry="1.5" fill="#F9F9F9"/>
<ellipse cx="253.922" cy="300.5" rx="1.49659" ry="1.5" fill="#F9F9F9"/>
<ellipse cx="253.922" cy="323.5" rx="1.49659" ry="1.5" fill="#F9F9F9"/>
<ellipse cx="253.922" cy="346.5" rx="1.49659" ry="1.5" fill="#F9F9F9"/>
<ellipse cx="276.869" cy="185.5" rx="1.49659" ry="1.5" fill="#F9F9F9"/>
<ellipse cx="276.869" cy="208.5" rx="1.49659" ry="1.5" fill="#F9F9F9"/>
<ellipse cx="276.869" cy="231.5" rx="1.49659" ry="1.5" fill="#F9F9F9"/>
<ellipse cx="276.869" cy="254.5" rx="1.49659" ry="1.5" fill="#F9F9F9"/>
<ellipse cx="276.869" cy="277.5" rx="1.49659" ry="1.5" fill="#F9F9F9"/>
<ellipse cx="276.869" cy="300.5" rx="1.49659" ry="1.5" fill="#F9F9F9"/>
<ellipse cx="276.869" cy="323.5" rx="1.49659" ry="1.5" fill="#F9F9F9"/>
<ellipse cx="276.869" cy="346.5" rx="1.49659" ry="1.5" fill="#F9F9F9"/>
<ellipse cx="299.817" cy="185.5" rx="1.49659" ry="1.5" fill="#F9F9F9"/>
<ellipse cx="299.817" cy="208.5" rx="1.49659" ry="1.5" fill="#F9F9F9"/>
<ellipse cx="299.817" cy="231.5" rx="1.49659" ry="1.5" fill="#F9F9F9"/>
<ellipse cx="299.817" cy="254.5" rx="1.49659" ry="1.5" fill="#F9F9F9"/>
<ellipse cx="299.817" cy="277.5" rx="1.49659" ry="1.5" fill="#F9F9F9"/>
<ellipse cx="299.817" cy="300.5" rx="1.49659" ry="1.5" fill="#F9F9F9"/>
<ellipse cx="299.817" cy="323.5" rx="1.49659" ry="1.5" fill="#F9F9F9"/>
<ellipse cx="299.817" cy="346.5" rx="1.49659" ry="1.5" fill="#F9F9F9"/>
<ellipse cx="322.765" cy="185.5" rx="1.49659" ry="1.5" fill="#F9F9F9"/>
<ellipse cx="322.765" cy="208.5" rx="1.49659" ry="1.5" fill="#F9F9F9"/>
<ellipse cx="322.765" cy="231.5" rx="1.49659" ry="1.5" fill="#F9F9F9"/>
<ellipse cx="322.765" cy="254.5" rx="1.49659" ry="1.5" fill="#F9F9F9"/>
<ellipse cx="322.765" cy="277.5" rx="1.49659" ry="1.5" fill="#F9F9F9"/>
<ellipse cx="322.765" cy="300.5" rx="1.49659" ry="1.5" fill="#F9F9F9"/>
<ellipse cx="322.765" cy="323.5" rx="1.49659" ry="1.5" fill="#F9F9F9"/>
<ellipse cx="322.765" cy="346.5" rx="1.49659" ry="1.5" fill="#F9F9F9"/>
<ellipse cx="345.713" cy="185.5" rx="1.49659" ry="1.5" fill="#F9F9F9"/>
<ellipse cx="345.713" cy="208.5" rx="1.49659" ry="1.5" fill="#F9F9F9"/>
<ellipse cx="345.713" cy="231.5" rx="1.49659" ry="1.5" fill="#F9F9F9"/>
<ellipse cx="345.713" cy="254.5" rx="1.49659" ry="1.5" fill="#F9F9F9"/>
<ellipse cx="345.713" cy="277.5" rx="1.49659" ry="1.5" fill="#F9F9F9"/>
<ellipse cx="345.713" cy="300.5" rx="1.49659" ry="1.5" fill="#F9F9F9"/>
<ellipse cx="345.713" cy="323.5" rx="1.49659" ry="1.5" fill="#F9F9F9"/>
<ellipse cx="345.713" cy="346.5" rx="1.49659" ry="1.5" fill="#F9F9F9"/>
<ellipse cx="368.66" cy="185.5" rx="1.49659" ry="1.5" fill="#F9F9F9"/>
<ellipse cx="368.66" cy="208.5" rx="1.49659" ry="1.5" fill="#F9F9F9"/>
<ellipse cx="368.66" cy="231.5" rx="1.49659" ry="1.5" fill="#F9F9F9"/>
<ellipse cx="368.66" cy="254.5" rx="1.49659" ry="1.5" fill="#F9F9F9"/>
<ellipse cx="368.66" cy="277.5" rx="1.49659" ry="1.5" fill="#F9F9F9"/>
<ellipse cx="368.66" cy="300.5" rx="1.49659" ry="1.5" fill="#F9F9F9"/>
<ellipse cx="368.66" cy="323.5" rx="1.49659" ry="1.5" fill="#F9F9F9"/>
<ellipse cx="368.66" cy="346.5" rx="1.49659" ry="1.5" fill="#F9F9F9"/>
<ellipse cx="391.608" cy="185.5" rx="1.49659" ry="1.5" fill="#F9F9F9"/>
<ellipse cx="391.608" cy="208.5" rx="1.49659" ry="1.5" fill="#F9F9F9"/>
<ellipse cx="391.608" cy="231.5" rx="1.49659" ry="1.5" fill="#F9F9F9"/>
<ellipse cx="391.608" cy="254.5" rx="1.49659" ry="1.5" fill="#F9F9F9"/>
<ellipse cx="391.608" cy="277.5" rx="1.49659" ry="1.5" fill="#F9F9F9"/>
<ellipse cx="391.608" cy="300.5" rx="1.49659" ry="1.5" fill="#F9F9F9"/>
<ellipse cx="391.608" cy="323.5" rx="1.49659" ry="1.5" fill="#F9F9F9"/>
<ellipse cx="391.608" cy="346.5" rx="1.49659" ry="1.5" fill="#F9F9F9"/>
<ellipse cx="414.556" cy="185.5" rx="1.49659" ry="1.5" fill="#F9F9F9"/>
<ellipse cx="414.556" cy="208.5" rx="1.49659" ry="1.5" fill="#F9F9F9"/>
<ellipse cx="414.556" cy="231.5" rx="1.49659" ry="1.5" fill="#F9F9F9"/>
<ellipse cx="414.556" cy="254.5" rx="1.49659" ry="1.5" fill="#F9F9F9"/>
<ellipse cx="414.556" cy="277.5" rx="1.49659" ry="1.5" fill="#F9F9F9"/>
<ellipse cx="414.556" cy="300.5" rx="1.49659" ry="1.5" fill="#F9F9F9"/>
<ellipse cx="414.556" cy="323.5" rx="1.49659" ry="1.5" fill="#F9F9F9"/>
<ellipse cx="414.556" cy="346.5" rx="1.49659" ry="1.5" fill="#F9F9F9"/>
</g>
</svg>
