<svg width="306" height="190" viewBox="0 0 306 190" fill="none" xmlns="http://www.w3.org/2000/svg">
<g clip-path="url(#clip0)">
<path d="M232.625 169.05C270.889 169.05 301.909 138.143 301.909 100.017C301.909 61.8907 270.889 30.9834 232.625 30.9834C194.36 30.9834 163.34 61.8907 163.34 100.017C163.34 138.143 194.36 169.05 232.625 169.05Z" fill="#F2F2F2"/>
<path d="M37.588 52.7263C52.201 52.7263 64.0472 40.9231 64.0472 26.3632C64.0472 11.8032 52.201 0 37.588 0C22.9751 0 11.1289 11.8032 11.1289 26.3632C11.1289 40.9231 22.9751 52.7263 37.588 52.7263Z" fill="#FF6584"/>
<path d="M85.0542 141.6C123.319 141.6 154.339 110.693 154.339 72.5666C154.339 34.4405 123.319 3.5332 85.0542 3.5332C46.7893 3.5332 15.7695 34.4405 15.7695 72.5666C15.7695 110.693 46.7893 141.6 85.0542 141.6Z" fill="#F2F2F2"/>
<path d="M81.7799 145.405C123.811 145.405 157.884 143.58 157.884 141.329C157.884 139.077 123.811 137.252 81.7799 137.252C39.7487 137.252 5.67578 139.077 5.67578 141.329C5.67578 143.58 39.7487 145.405 81.7799 145.405Z" fill="#3F3D56"/>
<path opacity="0.1" d="M66.5059 144.28C97.9916 144.28 123.516 143.022 123.516 141.469C123.516 139.916 97.9916 138.657 66.5059 138.657C35.0203 138.657 9.49609 139.916 9.49609 141.469C9.49609 143.022 35.0203 144.28 66.5059 144.28Z" fill="black"/>
<path d="M229.897 174.214C271.928 174.214 306.001 172.206 306.001 169.73C306.001 167.253 271.928 165.245 229.897 165.245C187.866 165.245 153.793 167.253 153.793 169.73C153.793 172.206 187.866 174.214 229.897 174.214Z" fill="#3F3D56"/>
<path opacity="0.1" d="M214.619 172.977C246.105 172.977 271.629 171.593 271.629 169.885C271.629 168.177 246.105 166.792 214.619 166.792C183.134 166.792 157.609 168.177 157.609 169.885C157.609 171.593 183.134 172.977 214.619 172.977Z" fill="black"/>
<path d="M109.355 161.712C136.177 161.712 157.92 160.617 157.92 159.266C157.92 157.915 136.177 156.82 109.355 156.82C82.5327 156.82 60.7891 157.915 60.7891 159.266C60.7891 160.617 82.5327 161.712 109.355 161.712Z" fill="#3F3D56"/>
<path d="M23.4321 152.293C36.3733 152.293 46.8643 151.765 46.8643 151.113C46.8643 150.461 36.3733 149.933 23.4321 149.933C10.4909 149.933 0 150.461 0 151.113C0 151.765 10.4909 152.293 23.4321 152.293Z" fill="#3F3D56"/>
<path d="M259.935 190C284.021 190 303.546 189.017 303.546 187.804C303.546 186.591 284.021 185.607 259.935 185.607C235.85 185.607 216.324 186.591 216.324 187.804C216.324 189.017 235.85 190 259.935 190Z" fill="#3F3D56"/>
<path d="M255.264 117.683H167.977V169.322H255.264V117.683Z" fill="#3F3D56"/>
<path d="M196.073 163.615C206.92 163.615 215.713 154.853 215.713 144.046C215.713 133.239 206.92 124.478 196.073 124.478C185.227 124.478 176.434 133.239 176.434 144.046C176.434 154.853 185.227 163.615 196.073 163.615Z" fill="#297AFF"/>
<path d="M228.258 125.837H221.711V132.36H228.258V125.837Z" fill="#297AFF"/>
<path opacity="0.5" d="M236.441 125.837H229.895V132.36H236.441V125.837Z" fill="#297AFF"/>
<path opacity="0.2" d="M244.625 125.837H238.078V132.36H244.625V125.837Z" fill="#297AFF"/>
<path d="M228.258 133.99H221.711V140.513H228.258V133.99Z" fill="#2F2E41"/>
<path opacity="0.5" d="M236.441 133.99H229.895V140.513H236.441V133.99Z" fill="#2F2E41"/>
<path opacity="0.2" d="M244.625 133.99H238.078V140.513H244.625V133.99Z" fill="#2F2E41"/>
<path d="M228.258 142.144H221.711V148.666H228.258V142.144Z" fill="#FF6584"/>
<path opacity="0.5" d="M236.441 142.144H229.895V148.666H236.441V142.144Z" fill="#FF6584"/>
<path opacity="0.2" d="M244.625 142.144H238.078V148.666H244.625V142.144Z" fill="#FF6584"/>
<path opacity="0.5" d="M196.07 124.478V163.615C206.917 163.615 216.256 154.853 216.256 144.046C216.256 133.239 206.917 124.478 196.07 124.478Z" fill="#3F3D56"/>
<path d="M273.948 121.352C273.948 121.352 285.405 126.515 281.313 132.495C277.222 138.474 264.947 149.889 264.674 152.335C264.401 154.781 262.765 156.955 262.765 156.955C262.765 156.955 257.309 151.248 257.855 150.704C258.4 150.161 263.856 144.997 264.129 143.638C264.401 142.279 272.585 131.679 272.585 131.679L265.22 125.157L273.948 121.352Z" fill="#FFB9B9"/>
<path opacity="0.1" d="M273.948 121.352C273.948 121.352 285.405 126.515 281.313 132.495C277.222 138.474 264.947 149.889 264.674 152.335C264.401 154.781 262.765 156.955 262.765 156.955C262.765 156.955 257.309 151.248 257.855 150.704C258.4 150.161 263.856 144.997 264.129 143.638C264.401 142.279 272.585 131.679 272.585 131.679L265.22 125.157L273.948 121.352Z" fill="black"/>
<path d="M259.492 132.767C259.492 132.767 267.403 136.029 266.857 141.193C266.312 146.356 276.404 161.033 276.404 161.033C276.404 161.033 277.495 164.566 277.223 165.653C276.95 166.74 284.315 166.469 284.315 166.469V164.022C284.315 164.022 278.586 154.238 278.041 151.52C277.495 148.803 274.222 138.203 274.222 138.203C274.222 138.203 273.131 128.69 267.675 128.69C266.087 128.69 264.521 129.059 263.101 129.766C261.68 130.474 260.445 131.501 259.492 132.767Z" fill="#FFB9B9"/>
<path d="M259.9 108.171C259.9 108.171 276.266 121.488 275.721 122.576C275.175 123.663 267.265 127.739 265.901 128.011C264.537 128.283 254.887 108.171 254.887 108.171H259.9Z" fill="#2F2E41"/>
<path opacity="0.1" d="M259.9 108.171C259.9 108.171 276.266 121.488 275.721 122.576C275.175 123.663 267.265 127.739 265.901 128.011C264.537 128.283 254.887 108.171 254.887 108.171H259.9Z" fill="black"/>
<path d="M242.172 110.888C242.172 110.888 240.535 118.226 244.899 121.216C249.264 124.205 256.629 135.892 257.447 135.892C258.265 135.892 269.995 129.641 269.449 128.554C268.904 127.467 262.903 117.954 262.903 117.954L260.993 107.898C260.993 107.898 244.354 107.355 242.172 110.888Z" fill="#2F2E41"/>
<path d="M259.902 86.9717L262.357 102.735L266.722 113.878C266.722 113.878 273.268 120.673 269.449 121.217C265.631 121.76 263.448 113.878 263.448 113.878L259.902 107.356V86.9717Z" fill="#FFB9B9"/>
<path opacity="0.1" d="M259.902 86.9717L262.357 102.735L266.722 113.878C266.722 113.878 273.268 120.673 269.449 121.217C265.631 121.76 263.448 113.878 263.448 113.878L259.902 107.356V86.9717Z" fill="black"/>
<path d="M250.763 69.4414C250.763 69.4414 250.763 75.1489 248.854 75.6925C246.945 76.236 256.492 83.5742 256.492 83.5742C256.492 83.5742 255.401 74.0618 259.219 71.6157L250.763 69.4414Z" fill="#FFB9B9"/>
<path opacity="0.1" d="M250.763 69.4414C250.763 69.4414 250.763 75.1489 248.854 75.6925C246.945 76.236 256.492 83.5742 256.492 83.5742C256.492 83.5742 255.401 74.0618 259.219 71.6157L250.763 69.4414Z" fill="black"/>
<path d="M255.129 74.0617C258.594 74.0617 261.403 71.263 261.403 67.8106C261.403 64.3583 258.594 61.5596 255.129 61.5596C251.664 61.5596 248.855 64.3583 248.855 67.8106C248.855 71.263 251.664 74.0617 255.129 74.0617Z" fill="#FFB9B9"/>
<path d="M255.401 80.856C255.401 80.856 249.673 73.7896 248.855 74.0614C248.036 74.3331 242.035 80.3124 241.49 82.2149C240.944 84.1174 239.853 97.7067 240.671 100.425C241.49 103.142 241.49 110.209 241.217 110.752C240.944 111.296 239.308 112.655 240.944 112.655C242.581 112.655 248.309 108.578 252.128 109.393C255.947 110.209 261.13 109.122 261.402 108.578C261.675 108.034 261.13 93.9017 261.402 92.8145C261.675 91.7274 260.857 86.2917 260.584 85.2045C260.311 84.1174 260.311 79.7688 257.584 78.6817L256.42 78.5672L256.355 81.2556L255.401 80.856Z" fill="#297AFF"/>
<path d="M243.398 94.9893C243.398 94.9893 243.944 103.415 248.036 106.948C252.127 110.481 260.856 116.46 261.402 117.547C261.947 118.635 267.13 124.342 268.221 121.896C268.538 121.133 268.614 120.293 268.44 119.486C268.281 118.684 267.96 117.923 267.495 117.249C267.031 116.576 266.433 116.004 265.738 115.569L263.311 114.014L251.309 101.512L250.763 94.9893H243.398Z" fill="#FFB9B9"/>
<path d="M259.084 149.754C259.084 149.754 255.947 149.074 254.856 150.977C253.765 152.879 255.947 158.043 255.947 158.043C255.947 158.043 262.221 171.089 263.312 169.458C264.403 167.827 262.494 161.848 262.494 161.848C262.494 161.848 265.222 155.869 264.131 155.597C263.04 155.325 259.084 153.015 259.084 149.754Z" fill="#2F2E41"/>
<path d="M278.314 165.381C278.314 165.381 276.678 164.566 276.405 165.381C276.132 166.197 274.495 170.273 276.405 170.817C278.314 171.361 297.136 171.904 296.59 170.817C296.045 169.73 293.044 168.371 291.135 167.827C289.225 167.284 284.315 163.207 284.315 163.207C284.315 163.207 281.587 166.74 278.314 165.381Z" fill="#2F2E41"/>
<path d="M261.447 62.8492C261.329 62.4548 261.07 62.1175 260.718 61.9015C260.736 61.479 260.684 61.0565 260.564 60.6509C260.163 59.4701 259.214 59.5378 258.318 59.0157C257.929 58.7892 257.953 58.5891 257.751 58.2171C257.486 57.7294 257.088 57.3256 256.604 57.0517C256.03 56.6868 255.423 56.311 254.743 56.2648C253.314 56.1677 252.218 57.507 250.852 57.9368C250.25 58.1262 249.603 58.1341 248.998 58.3132C248.393 58.4923 247.789 58.9199 247.699 59.5425C247.657 59.83 247.731 60.1248 247.688 60.4122C247.604 60.9833 247.102 61.3833 246.765 61.8531C246.02 62.8919 246.106 64.3594 246.701 65.4897C246.826 65.7236 246.97 65.9473 247.13 66.159C247.18 66.6933 247.334 67.2127 247.584 67.688C248.179 68.8183 249.203 69.6629 250.273 70.3646C250.186 69.9898 250.133 69.6077 250.115 69.2233C250.1 69.0951 250.116 68.9653 250.163 68.8451C250.283 68.5969 250.598 68.5308 250.838 68.3949C251.335 68.1133 251.53 67.4902 251.544 66.9204C251.559 66.3506 251.438 65.7799 251.497 65.2131C251.5 65.0828 251.53 64.9544 251.585 64.8362C251.64 64.718 251.719 64.6126 251.818 64.5269C252.002 64.4226 252.211 64.3728 252.422 64.3834C253.441 64.342 254.506 64.3233 255.405 63.8432C255.695 63.6514 256.006 63.4943 256.333 63.3753C257.097 63.1769 257.877 63.7103 258.318 64.3631C258.758 65.016 258.977 65.7929 259.384 66.4673C259.79 67.1417 260.491 67.7432 261.277 67.6632C261.321 67.6633 261.365 67.6541 261.405 67.6362C261.445 67.6183 261.482 67.5921 261.511 67.5593C261.545 67.4987 261.56 67.4294 261.554 67.3603L261.598 64.3694C261.635 63.8578 261.583 63.3437 261.447 62.8492Z" fill="#2F2E41"/>
<path d="M245.853 81.1279C245.853 81.1279 251.854 83.8458 251.581 89.5533C251.309 95.2607 253.218 95.8043 248.581 96.3479C243.944 96.8915 242.853 96.3479 242.58 96.8915C242.307 97.435 240.67 84.3893 241.762 83.0304C242.853 81.6715 245.853 81.1279 245.853 81.1279Z" fill="#297AFF"/>
<path d="M125.151 35.0603C129.971 35.0603 133.879 31.1664 133.879 26.3631C133.879 21.5599 129.971 17.666 125.151 17.666C120.33 17.666 116.422 21.5599 116.422 26.3631C116.422 31.1664 120.33 35.0603 125.151 35.0603Z" fill="#2F2E41"/>
<path d="M131.015 121.624L126.105 134.941C126.105 134.941 122.013 138.203 124.468 139.29C126.923 140.377 131.833 138.203 131.833 138.203L135.652 128.419L135.106 121.624H131.015Z" fill="#2F2E41"/>
<path opacity="0.1" d="M131.015 121.624L126.105 134.941C126.105 134.941 122.013 138.203 124.468 139.29C126.923 140.377 131.833 138.203 131.833 138.203L135.652 128.419L135.106 121.624H131.015Z" fill="black"/>
<path d="M131.423 42.6699L135.514 43.2135C135.514 43.2135 137.424 58.1617 136.605 59.2488C135.787 60.336 131.695 64.6845 130.059 63.5974C128.422 62.5102 131.423 42.6699 131.423 42.6699Z" fill="#575A89"/>
<path d="M92.2822 69.9844C92.2822 69.9844 86.554 72.4304 85.4629 72.7022C84.3718 72.974 82.7351 75.6919 84.6446 76.2354C86.554 76.779 93.9189 71.3433 93.9189 71.3433L92.2822 69.9844Z" fill="#A0616A"/>
<path d="M132.926 127.059L135.926 138.202C135.926 138.202 136.199 142.279 137.563 142.551C138.927 142.823 143.018 141.192 143.018 140.648C143.018 140.105 141.382 135.756 141.382 135.756C141.382 135.756 141.382 132.495 139.745 131.136C138.109 129.777 136.634 125.225 136.634 125.225L132.926 127.059Z" fill="#2F2E41"/>
<path d="M136.745 101.511C137.296 102.791 137.228 112.078 136.625 118.259C136.333 121.262 135.916 123.531 135.381 123.798L131.472 122.825L129.926 122.439L129.885 119.058L129.653 100.424L125.016 81.1275V76.2354L136.745 77.3225L138.605 80.2333L138.654 80.3121C138.654 80.3121 135.927 99.6089 136.745 101.511Z" fill="#2F2E41"/>
<path opacity="0.1" d="M134.29 107.491C134.874 108.363 135.847 113.587 136.625 118.259C136.333 121.262 135.916 123.531 135.381 123.798L131.472 122.825C131.412 122.7 131.352 122.569 131.289 122.439C130.79 121.395 130.321 120.243 129.885 119.058L129.653 100.424L125.016 81.1275V76.2354L136.745 77.3225L138.605 80.2333L127.743 79.4968L130.198 90.0964L133.199 101.24C133.199 101.24 133.199 105.86 134.29 107.491Z" fill="black"/>
<path d="M114.921 65.3643C114.921 65.3643 111.102 73.7896 116.557 85.4763C119.933 92.7491 122.937 100.187 125.559 107.763C125.559 107.763 127.468 116.732 130.196 122.439C132.924 128.147 132.378 128.418 132.378 128.418L136.743 125.972C136.743 125.972 134.288 109.122 133.196 107.491C132.105 105.86 132.105 101.24 132.105 101.24L129.105 90.0967L126.65 79.4971L138.652 80.3124C138.652 80.3124 138.652 64.8207 133.196 61.8311L114.921 65.3643Z" fill="#2F2E41"/>
<path d="M119.422 30.4395C119.422 30.4395 119.422 34.788 118.058 35.0598C116.694 35.3316 113.966 35.3316 113.148 36.6905C112.329 38.0494 119.422 55.9872 119.422 55.9872L126.786 51.3669L129.241 39.1366C129.241 39.1366 125.695 36.9623 125.695 35.8752V30.983L119.422 30.4395Z" fill="#A0616A"/>
<path opacity="0.1" d="M119.422 30.4395C119.422 30.4395 119.422 34.788 118.058 35.0598C116.694 35.3316 113.966 35.3316 113.148 36.6905C112.329 38.0494 119.422 55.9872 119.422 55.9872L126.786 51.3669L129.241 39.1366C129.241 39.1366 125.695 36.9623 125.695 35.8752V30.983L119.422 30.4395Z" fill="black"/>
<path d="M123.652 35.1961C127.268 35.1961 130.199 32.2757 130.199 28.6732C130.199 25.0708 127.268 22.1504 123.652 22.1504C120.036 22.1504 117.105 25.0708 117.105 28.6732C117.105 32.2757 120.036 35.1961 123.652 35.1961Z" fill="#A0616A"/>
<path d="M120.239 50.5523C120.239 50.5523 117.784 35.0605 117.238 35.0605C116.693 35.0605 109.055 36.6913 108.51 36.963C107.964 37.2348 106.055 39.6809 106.055 39.6809L109.874 50.5523C109.874 50.5523 111.51 58.1623 112.601 59.5212C113.692 60.8801 115.875 64.6851 114.783 65.2287C113.692 65.7723 112.601 66.5876 113.692 66.5876C114.783 66.5876 123.785 64.9569 124.331 65.7723C124.876 66.5876 133.878 62.7826 133.878 62.5109C133.878 62.2391 132.787 49.4652 132.787 49.4652L135.514 43.2141L127.331 37.5066L120.239 50.5523Z" fill="#575A89"/>
<path d="M108.786 38.3213L106.058 39.6802C106.058 39.6802 98.4203 57.0745 97.8747 57.3462C97.3292 57.618 94.6014 62.7819 94.3286 63.8691C94.0559 64.9562 93.5103 68.4894 92.692 69.033C92.2531 69.33 91.7977 69.6022 91.3281 69.8484C91.3281 69.8484 92.9648 72.5662 93.7831 72.5662C94.6014 72.5662 97.3292 68.7612 97.3292 68.7612C97.3292 68.7612 103.33 72.5662 104.967 69.5766C106.603 66.5869 110.695 47.562 110.695 47.562L108.786 38.3213Z" fill="#575A89"/>
<path d="M130.197 46.6116C130.197 46.6116 126.378 37.3709 124.196 38.4581C122.014 39.5452 125.833 46.068 128.288 47.1552L130.197 46.6116Z" fill="#A0616A"/>
<path opacity="0.1" d="M126.38 46.8825L130.207 46.0205L131.017 50.144C131.017 50.144 134.563 56.395 133.745 59.1129C132.926 61.8307 128.016 66.1793 126.38 63.7332C124.743 61.2871 123.379 57.4822 124.47 55.3079C125.561 53.1336 127.198 47.9697 126.38 46.8825Z" fill="black"/>
<path d="M127.196 46.3396L131.023 45.4775L131.833 49.601C131.833 49.601 135.379 55.8521 134.561 58.5699C133.743 61.2878 128.833 65.6363 127.196 63.1903C125.559 60.7442 124.196 56.9392 125.287 54.7649C126.378 52.5906 128.014 47.4267 127.196 46.3396Z" fill="#575A89"/>
<path d="M131.351 27.364C132.086 25.8009 130.028 23.2948 126.754 21.7666C123.48 20.2383 120.23 20.2666 119.495 21.8298C118.76 23.393 120.818 25.899 124.092 27.4273C127.367 28.9555 130.617 28.9272 131.351 27.364Z" fill="#2F2E41"/>
<path d="M130.334 22.8297C132.444 22.8297 134.153 21.1262 134.153 19.0247C134.153 16.9233 132.444 15.2197 130.334 15.2197C128.225 15.2197 126.516 16.9233 126.516 19.0247C126.516 21.1262 128.225 22.8297 130.334 22.8297Z" fill="#2F2E41"/>
<path d="M126.789 17.6663C126.789 16.7279 127.137 15.8225 127.766 15.1244C128.396 14.4262 129.262 13.9844 130.198 13.8838C129.665 13.8258 129.125 13.8804 128.615 14.044C128.104 14.2076 127.634 14.4766 127.234 14.8335C126.835 15.1904 126.515 15.6271 126.297 16.1152C126.078 16.6033 125.965 17.1318 125.965 17.6663C125.965 18.2009 126.078 18.7294 126.297 19.2175C126.515 19.7056 126.835 20.1423 127.234 20.4992C127.634 20.856 128.104 21.125 128.615 21.2887C129.125 21.4523 129.665 21.5069 130.198 21.4488C129.262 21.3483 128.396 20.9065 127.766 20.2083C127.137 19.5101 126.789 18.6048 126.789 17.6663Z" fill="#2F2E41"/>
<path d="M113.147 75.2842H17.6758V141.328H113.147V75.2842Z" fill="#3F3D56"/>
<path d="M37.864 81.8076H25.3164V94.3097H37.864V81.8076Z" fill="#F2F2F2"/>
<path d="M37.864 102.191H25.3164V114.694H37.864V102.191Z" fill="#297AFF"/>
<path d="M37.864 122.575H25.3164V135.077H37.864V122.575Z" fill="#F2F2F2"/>
<path d="M103.601 85.748H43.8633V86.8352H103.601V85.748Z" fill="#F2F2F2"/>
<path d="M62.4119 89.2812H43.8633V90.3684H62.4119V89.2812Z" fill="#F2F2F2"/>
<path d="M103.601 106.132H43.8633V107.219H103.601V106.132Z" fill="#F2F2F2"/>
<path d="M62.4119 109.665H43.8633V110.752H62.4119V109.665Z" fill="#F2F2F2"/>
<path d="M103.601 126.516H43.8633V127.603H103.601V126.516Z" fill="#F2F2F2"/>
<path d="M62.4119 130.049H43.8633V131.136H62.4119V130.049Z" fill="#F2F2F2"/>
<path d="M269.995 181.805C269.995 187.338 266.695 189.27 262.623 189.27C262.528 189.27 262.434 189.268 262.34 189.266C262.152 189.262 261.964 189.253 261.78 189.241C258.105 188.982 255.25 186.951 255.25 181.805C255.25 176.482 262.078 169.763 262.592 169.265L262.593 169.264C262.612 169.245 262.623 169.235 262.623 169.235C262.623 169.235 269.995 176.274 269.995 181.805Z" fill="#297AFF"/>
<path d="M262.354 188.424L265.051 184.67L262.347 188.837L262.34 189.267C262.152 189.263 261.964 189.254 261.78 189.242L262.07 183.707L262.068 183.664L262.073 183.656L262.101 183.133L259.391 178.957L262.109 182.741L262.116 182.852L262.335 178.67L260.015 174.354L262.363 177.936L262.592 169.266L262.593 169.236V169.265L262.555 176.102L264.865 173.392L262.545 176.691L262.484 180.435L264.641 176.842L262.475 180.986L262.441 183.068L265.572 178.066L262.429 183.794L262.354 188.424Z" fill="#3F3D56"/>
<path d="M30.7686 144.028C30.7686 149.561 27.4681 151.492 23.396 151.492C23.3017 151.492 23.2074 151.491 23.1138 151.489C22.9251 151.485 22.7378 151.476 22.5533 151.463C18.8782 151.204 16.0234 149.173 16.0234 144.028C16.0234 138.704 22.8512 131.986 23.3655 131.488L23.3662 131.487C23.3859 131.467 23.396 131.458 23.396 131.458C23.396 131.458 30.7686 138.496 30.7686 144.028Z" fill="#297AFF"/>
<path d="M23.1274 150.646L25.824 146.892L23.1206 151.058L23.1138 151.489C22.9251 151.485 22.7378 151.476 22.5533 151.463L22.8437 145.929L22.8417 145.885L22.8464 145.878L22.8742 145.355L20.1641 141.178L22.8824 144.963L22.8892 145.073L23.1084 140.892L20.7883 136.576L23.1368 140.158L23.3655 131.488L23.3662 131.458V131.487L23.3282 138.324L25.638 135.613L23.3187 138.913L23.2576 142.657L25.4148 139.064L23.2488 143.208L23.2149 145.29L26.3451 140.288L23.2027 146.016L23.1274 150.646Z" fill="#3F3D56"/>
</g>
<defs>
<clipPath id="clip0">
<rect width="306" height="190" fill="white"/>
</clipPath>
</defs>
</svg>
