<svg width="295" height="62" viewBox="0 0 295 62" fill="none" xmlns="http://www.w3.org/2000/svg">
<path opacity="0.5" d="M55.4237 47.606L43.1468 39.2372L46.707 16.7146L55.3318 14.7367L55.2169 14.2451L46.7989 16.1772L48.4067 5.97918L35.7853 18.7039L34.0627 19.104L35.7509 2.06917L35.2455 2.02344L33.5459 19.2298L18.9147 22.591L14.6885 6.03635L14.1946 6.16211L18.4324 22.7511L1.55029 32.9949L1.81443 33.4293L18.7195 23.1741L26.2533 28.3074L7.95859 46.7485L7.68297 47.0229L20.2928 51.8132L14.9985 55.5632L15.2971 55.9748L20.8786 52.0304L39.7015 59.1874L40.0001 59.3017L43.0664 39.7859L55.1365 48.0175L55.4237 47.606ZM42.6874 38.917L32.7764 32.1603L33.8444 21.3906L36.0495 19.1726L46.1787 16.8518L42.6874 38.917ZM32.2941 31.8287L27.0342 28.2388L33.2702 21.9622L32.2941 31.8287ZM47.6602 7.45401L46.2591 16.2916L36.7155 18.4867L47.6602 7.45401ZM35.1192 19.3784L33.9248 20.5788L34.0167 19.6299L35.1192 19.3784ZM19.3511 22.9912L33.4884 19.7443L33.3506 21.1505L26.6093 27.9416L19.3511 22.9912ZM8.60172 46.8285L26.6782 28.6047L32.2366 32.4004L31.0652 44.1876L20.7867 51.4588L8.60172 46.8285ZM39.5752 58.6043L21.3609 51.6875L31.5591 44.4734L32.719 32.7319L42.5956 39.4658L39.5752 58.6043Z" fill="url(#paint0_linear)"/>
<path d="M52.6216 8.56316C52.8168 8.03725 52.9431 7.46561 52.9431 6.8711C52.9431 4.20727 50.7726 2.04647 48.0967 2.04647C46.9023 2.04647 45.8113 2.49235 44.9615 3.21261C40.7926 1.16614 36.107 0 31.1342 0C13.9421 0 0 13.8794 0 30.9943C0 35.9561 1.18289 40.6436 3.26157 44.8051C2.73329 45.5825 2.42321 46.5086 2.42321 47.5147C2.42321 50.1785 4.59376 52.3393 7.26963 52.3393C7.67158 52.3393 8.05057 52.2821 8.41807 52.1907C14.1029 58.2272 22.1764 62 31.1342 62C48.3264 62 62.2685 48.1206 62.2685 31.0057C62.2799 22.1682 58.559 14.211 52.6216 8.56316ZM48.0393 6.72248C47.534 6.72248 47.2583 7.07689 47.1665 7.28268L46.2822 7.0083L46.7875 4.28729H49.5208V5.28195H47.5455L47.3847 6.05938C47.5799 5.94505 47.89 5.83072 48.223 5.83072C49.2222 5.83072 49.9687 6.50526 49.9687 7.53421C49.9687 8.58602 49.1877 9.38632 48.0393 9.38632C47.132 9.38632 46.5348 8.95187 46.1903 8.28877L47.0861 7.75143C47.2583 8.10585 47.5455 8.4031 48.0393 8.4031C48.5446 8.4031 48.9121 8.07155 48.9121 7.54564C48.9121 7.03116 48.5561 6.72248 48.0393 6.72248ZM31.1342 3.57846C35.4983 3.57846 39.6212 4.59598 43.2847 6.39093C43.2733 6.55099 43.2388 6.71105 43.2388 6.8711C43.2388 7.53421 43.3766 8.16301 43.6178 8.73465L23.922 19.4815C23.3708 18.6469 22.6243 17.9266 21.694 17.4121C21.6366 17.3778 21.5677 17.355 21.4988 17.3207L27.1721 3.87571C28.4698 3.68136 29.7906 3.57846 31.1342 3.57846ZM25.9777 4.07007L20.5571 16.9205C17.6975 15.983 14.4704 17.1492 12.9429 19.8702C12.7707 20.1789 12.6328 20.4876 12.518 20.8077L6.31642 19.1042C10.0489 11.3985 17.2955 5.70496 25.9777 4.07007ZM16.3538 21.1621V19.7787H21.0969V21.1164L18.5243 26.5584H16.9165L19.5579 21.1507H16.3538V21.1621ZM7.45338 50.4529C6.51166 50.4529 5.90299 50.007 5.54697 49.321L6.47721 48.7837C6.67244 49.1495 6.94807 49.4468 7.47635 49.4468C8.0276 49.4468 8.38362 49.0924 8.38362 48.5665C8.38362 48.052 8.01612 47.7547 7.47635 47.7547C7.23518 47.7547 7.02846 47.8348 6.87916 47.9262L6.37385 47.1717L7.68307 46.177H5.86853V45.1824H9.1301V46.177L8.13096 46.9316C8.94635 47.0802 9.45167 47.709 9.45167 48.5436C9.46315 49.6069 8.65924 50.4529 7.45338 50.4529ZM9.73878 43.376L15.6762 30.4569L14.7575 30.0225L8.80854 42.953C8.3262 42.7929 7.8094 42.6786 7.26963 42.6786C6.9251 42.6786 6.59205 42.7129 6.27049 42.7815C4.55931 39.2145 3.59462 35.213 3.59462 30.9943C3.59462 27.0957 4.4215 23.3915 5.8915 20.0417L12.2424 21.7795C11.7371 24.409 12.9314 27.1757 15.4121 28.5591C17.307 29.6223 19.5235 29.6109 21.3495 28.7306L26.6898 37.8197C25.6906 38.4942 24.8178 39.3974 24.1862 40.5178C23.4052 41.9126 23.0951 43.4332 23.187 44.9194L11.9782 46.3828C11.6682 45.1023 10.8413 44.0277 9.73878 43.376ZM37.6459 57.6327L35.4524 52.7623L34.5106 53.1625L36.6238 57.8613C34.8437 58.2157 33.0062 58.4101 31.1227 58.4101C23.3593 58.4101 16.3653 55.2089 11.3581 50.0756C11.8289 49.3325 12.1161 48.4636 12.1161 47.5147C12.1161 47.4689 12.1046 47.4346 12.1046 47.4003L23.3133 45.9369C23.7498 48.1435 25.1164 50.1442 27.2295 51.3332C31.0768 53.4711 35.9347 52.1106 38.0823 48.2921C38.8977 46.8401 39.2078 45.2281 39.0585 43.6847L56.8019 40.9065C53.5863 49.1724 46.4429 55.5062 37.6459 57.6327ZM34.6255 47.0116V48.7494H27.9531V47.0116L31.318 44.3363C32.1449 43.7075 32.6272 43.2731 32.6272 42.3699C32.6272 41.5925 32.076 41.1009 31.2146 41.1009C30.2384 41.1009 29.7216 41.6153 29.2967 42.2899L27.6659 41.3067C28.3895 40.1405 29.5149 39.2602 31.2491 39.2602C33.3507 39.2602 34.6255 40.5864 34.6255 42.267C34.6255 43.799 33.902 44.6565 32.4664 45.7883L30.8471 47.023H34.6255V47.0116ZM57.2153 39.809L38.9092 42.6786C38.5532 41.1009 37.7263 39.6489 36.486 38.5285L41.4243 32.3548L40.6778 31.646L35.6821 37.8883C35.4753 37.7396 35.2571 37.6024 35.0274 37.4767C32.6272 36.139 29.8365 36.1733 27.5511 37.3052L22.2108 28.2275C22.9803 27.6902 23.6464 26.9814 24.1402 26.1125C24.4848 25.4951 24.7144 24.8434 24.8408 24.1918L39.9083 25.8381C39.5868 28.0103 40.5974 30.2512 42.6416 31.3944C44.6629 32.5263 47.0861 32.229 48.7858 30.8571L57.3187 39.4774C57.2957 39.5803 57.2498 39.6946 57.2153 39.809ZM47.3617 27.2901V28.4448H46.7645V29.6452H45.4438V28.4448H42.5268V27.2901L45.2601 23.5058H46.7645V27.2901H47.3617ZM49.5323 30.1368C49.7505 29.8739 49.9572 29.5995 50.118 29.3022C51.5994 26.6727 50.6577 23.3457 48.0163 21.8709C47.5569 21.6194 47.0746 21.4593 46.5922 21.345L47.7292 13.1591L46.7301 12.9305L45.5816 21.1964C43.5833 21.1049 41.608 22.0996 40.5514 23.9631C40.3907 24.2489 40.2758 24.5462 40.161 24.8434L24.9556 23.1857C24.9786 22.2139 24.7834 21.265 24.3929 20.3847L44.1001 9.63784C44.9729 10.8954 46.4315 11.7186 48.0852 11.7186C48.8432 11.7186 49.5437 11.5357 50.1869 11.227C55.4123 16.2117 58.6738 23.2314 58.6738 31.0057C58.6738 33.5552 58.3178 36.0133 57.6632 38.357L49.5323 30.1368Z" fill="url(#paint1_linear)"/>
<path d="M45.4323 27.2902V25.2666L43.9623 27.2902H45.4323Z" fill="url(#paint2_linear)"/>
<path d="M117.417 35.0989V34.0014H99.9374L113.374 17.2295C115.591 14.4742 116.888 11.0672 117.084 7.5459H97.2386C95.1599 7.5459 93.4717 9.22652 93.4717 11.2959V12.3934H110.549L97.0893 29.3139C94.9302 32.0349 93.6554 35.3847 93.4602 38.8374H113.65C115.728 38.8489 117.417 37.1683 117.417 35.0989Z" fill="white"/>
<path d="M131.405 7.55664C129.326 7.55664 127.638 9.23726 127.638 11.3066V38.8482H144.991C147.07 38.8482 148.758 37.1676 148.758 35.0982V33.8635H133.288V7.55664H131.405Z" fill="white"/>
<path d="M172.002 7.53418C162.998 7.53418 155.958 14.4282 155.958 23.2314C155.958 32.0118 163.01 38.8829 172.002 38.8829C181.155 38.8829 188.046 32.1375 188.046 23.1857C188.046 14.2567 181.144 7.53418 172.002 7.53418ZM172.002 34.0011C166.019 34.0011 161.505 29.3708 161.505 23.2314C161.505 17.1606 166.111 12.416 172.002 12.416C177.882 12.416 182.499 17.1492 182.499 23.1857C182.487 29.245 177.882 34.0011 172.002 34.0011Z" fill="white"/>
<path d="M207.489 38.8482C209.568 38.8482 211.256 37.1676 211.256 35.0982V12.5528H216.952C219.283 12.5528 221.178 10.6664 221.178 8.3455V7.55664H199.45C197.371 7.55664 195.683 9.23726 195.683 11.3066V12.5413H205.606V38.8482H207.489Z" fill="white"/>
<path d="M241.207 38.8482C243.286 38.8482 244.974 37.1676 244.974 35.0982V12.5528H250.67C253.002 12.5528 254.897 10.6664 254.897 8.3455V7.55664H233.168C231.089 7.55664 229.401 9.23726 229.401 11.3066V12.5413H239.324V38.8482H241.207Z" fill="white"/>
<path d="M278.589 7.55664C269.608 7.55664 262.568 14.4392 262.568 23.231C262.568 31.9885 269.608 38.8482 278.589 38.8482C287.719 38.8482 294.61 32.1143 294.61 23.1853C294.598 14.2791 287.719 7.55664 278.589 7.55664ZM278.589 33.9778C272.617 33.9778 268.115 29.359 268.115 23.231C268.115 17.1716 272.72 12.4384 278.589 12.4384C284.457 12.4384 289.063 17.1602 289.063 23.1853C289.051 29.2332 284.457 33.9778 278.589 33.9778Z" fill="white"/>
<path d="M94.4363 54.1909C93.8965 54.0079 93.4716 53.7793 93.173 53.4935L93.5749 52.6474C93.862 52.9104 94.241 53.1162 94.7004 53.2877C95.1598 53.4477 95.6306 53.5278 96.113 53.5278C96.7446 53.5278 97.227 53.4249 97.5371 53.2076C97.8471 52.9904 98.0079 52.7046 98.0079 52.3502C98.0079 52.0872 97.916 51.8814 97.7553 51.7099C97.583 51.5499 97.3763 51.4241 97.1236 51.3327C96.871 51.2412 96.5149 51.1497 96.0556 51.0354C95.4813 50.8982 95.0105 50.761 94.6545 50.6238C94.2984 50.4866 93.9999 50.2694 93.7472 49.9836C93.4945 49.6978 93.3682 49.3091 93.3682 48.8174C93.3682 48.4059 93.4716 48.04 93.6898 47.7199C93.908 47.3884 94.2295 47.1254 94.666 46.931C95.1024 46.7367 95.6536 46.6338 96.2967 46.6338C96.7446 46.6338 97.1925 46.691 97.6289 46.8053C98.0653 46.9196 98.4443 47.0911 98.7544 47.3083L98.3869 48.1772C98.0653 47.9714 97.7208 47.8228 97.3533 47.7085C96.9858 47.6056 96.6298 47.5484 96.2852 47.5484C95.6651 47.5484 95.1942 47.6627 94.8842 47.8914C94.5741 48.12 94.4133 48.4059 94.4133 48.7603C94.4133 49.0232 94.5052 49.2405 94.6774 49.4005C94.8497 49.5606 95.0679 49.6863 95.332 49.7778C95.5962 49.8693 95.9407 49.9607 96.3886 50.0636C96.9628 50.2008 97.4337 50.338 97.7782 50.4752C98.1228 50.6124 98.4328 50.8296 98.6855 51.104C98.9382 51.3898 99.0645 51.7671 99.0645 52.2473C99.0645 52.6474 98.9496 53.0133 98.7314 53.3448C98.5132 53.6764 98.1802 53.9393 97.7323 54.1337C97.2844 54.328 96.7331 54.4195 96.09 54.4195C95.5273 54.4652 94.976 54.3738 94.4363 54.1909Z" fill="white"/>
<path d="M106.3 53.9504C105.68 53.6074 105.197 53.1501 104.853 52.5556C104.508 51.9611 104.324 51.298 104.324 50.5548C104.324 49.8117 104.497 49.1486 104.853 48.5541C105.209 47.9596 105.691 47.4908 106.311 47.1593C106.931 46.8163 107.632 46.6562 108.39 46.6562C108.987 46.6562 109.538 46.7591 110.032 46.9535C110.526 47.1479 110.951 47.4451 111.307 47.8453L110.595 48.5312C110.021 47.9253 109.297 47.628 108.436 47.628C107.862 47.628 107.356 47.7538 106.897 48.0053C106.437 48.2568 106.081 48.6113 105.817 49.0571C105.553 49.503 105.427 50.0061 105.427 50.5548C105.427 51.1036 105.553 51.6066 105.817 52.0525C106.081 52.4984 106.437 52.8528 106.897 53.1043C107.356 53.3559 107.873 53.4816 108.436 53.4816C109.286 53.4816 110.009 53.1729 110.595 52.567L111.307 53.253C110.962 53.6417 110.526 53.9389 110.032 54.1447C109.527 54.3505 108.987 54.4534 108.378 54.4534C107.609 54.4648 106.92 54.2933 106.3 53.9504Z" fill="white"/>
<path d="M117.141 46.7363H118.232V54.3734H117.141V46.7363Z" fill="white"/>
<path d="M130.371 53.4245V54.3734H124.801V46.7363H130.21V47.6852H125.892V50.029H129.739V50.955H125.892V53.4245H130.371Z" fill="white"/>
<path d="M143.015 46.7363V54.3734H142.12L137.514 48.6799V54.3734H136.423V46.7363H137.319L141.924 52.4299V46.7363H143.015Z" fill="white"/>
<path d="M150.94 53.9504C150.319 53.6074 149.837 53.1501 149.493 52.5556C149.148 51.9611 148.964 51.298 148.964 50.5548C148.964 49.8117 149.136 49.1486 149.493 48.5541C149.849 47.9596 150.331 47.4908 150.951 47.1593C151.571 46.8163 152.272 46.6562 153.03 46.6562C153.627 46.6562 154.178 46.7591 154.672 46.9535C155.166 47.1479 155.591 47.4451 155.947 47.8453L155.235 48.5312C154.66 47.9253 153.937 47.628 153.076 47.628C152.501 47.628 151.996 47.7538 151.537 48.0053C151.077 48.2568 150.721 48.6113 150.457 49.0571C150.193 49.503 150.067 50.0061 150.067 50.5548C150.067 51.1036 150.193 51.6066 150.457 52.0525C150.721 52.4984 151.077 52.8528 151.537 53.1043C151.996 53.3559 152.513 53.4816 153.076 53.4816C153.925 53.4816 154.649 53.1729 155.235 52.567L155.947 53.253C155.602 53.6417 155.166 53.9389 154.672 54.1447C154.167 54.3505 153.627 54.4534 153.018 54.4534C152.249 54.4648 151.56 54.2933 150.94 53.9504Z" fill="white"/>
<path d="M167.351 53.4245V54.3734H161.781V46.7363H167.19V47.6852H162.872V50.029H166.719V50.955H162.872V53.4245H167.351Z" fill="white"/>
<path d="M181.982 53.9508C181.362 53.6078 180.879 53.1505 180.523 52.5445C180.167 51.95 179.995 51.2869 179.995 50.5438C179.995 49.8121 180.167 49.149 180.523 48.5431C180.879 47.9486 181.362 47.4798 181.982 47.1368C182.602 46.7938 183.303 46.6338 184.072 46.6338C184.842 46.6338 185.531 46.8053 186.151 47.1368C186.771 47.4798 187.253 47.9371 187.609 48.5316C187.954 49.1261 188.138 49.7892 188.138 50.5324C188.138 51.2755 187.965 51.9386 187.609 52.5331C187.253 53.1276 186.771 53.5964 186.151 53.9279C185.531 54.2709 184.83 54.431 184.072 54.431C183.303 54.4653 182.602 54.2938 181.982 53.9508ZM185.599 53.1047C186.047 52.8532 186.403 52.4988 186.668 52.0529C186.932 51.6071 187.058 51.104 187.058 50.5552C187.058 50.0065 186.932 49.5034 186.668 49.0575C186.403 48.6117 186.059 48.2572 185.599 48.0057C185.152 47.7542 184.646 47.6284 184.084 47.6284C183.521 47.6284 183.016 47.7542 182.556 48.0057C182.097 48.2572 181.741 48.6117 181.488 49.0575C181.235 49.5034 181.098 50.0065 181.098 50.5552C181.098 51.104 181.224 51.6071 181.488 52.0529C181.752 52.4988 182.108 52.8532 182.556 53.1047C183.016 53.3563 183.521 53.482 184.084 53.482C184.646 53.482 185.152 53.3677 185.599 53.1047Z" fill="white"/>
<path d="M195.189 47.6852V50.3491H199.036V51.2866H195.189V54.3734H194.086V46.7363H199.496V47.6852H195.189Z" fill="white"/>
<path d="M219.134 46.7363V54.3734H218.238L213.633 48.6799V54.3734H212.542V46.7363H213.438L218.043 52.4299V46.7363H219.134Z" fill="white"/>
<path d="M226.495 53.5846C225.921 53.0015 225.646 52.1669 225.646 51.0808V46.7363H226.737V51.0351C226.737 52.6699 227.46 53.4931 228.896 53.4931C229.596 53.4931 230.136 53.2873 230.503 52.8872C230.871 52.487 231.066 51.8696 231.066 51.0351V46.7363H232.134V51.0808C232.134 52.1783 231.847 53.0129 231.284 53.596C230.71 54.1791 229.918 54.4649 228.896 54.4649C227.862 54.4649 227.07 54.1676 226.495 53.5846Z" fill="white"/>
<path d="M245.755 54.3741L245.743 48.8064L242.976 53.4366H242.47L239.703 48.8292V54.3627H238.646V46.7256H239.542L242.746 52.0876L245.904 46.7256H246.8L246.812 54.3627H245.755V54.3741Z" fill="white"/>
<path d="M259.594 51.0808C259.846 51.4009 259.973 51.8125 259.973 52.3041C259.973 52.9672 259.72 53.4702 259.226 53.8361C258.732 54.2019 257.997 54.3734 257.044 54.3734H253.38V46.7363H256.814C257.687 46.7363 258.365 46.9078 258.847 47.2622C259.329 47.6167 259.559 48.0968 259.559 48.7142C259.559 49.1143 259.467 49.4573 259.283 49.7546C259.1 50.0404 258.847 50.2691 258.537 50.4177C258.985 50.5434 259.341 50.7607 259.594 51.0808ZM254.483 47.6281V50.0747H256.722C257.285 50.0747 257.722 49.9718 258.02 49.766C258.319 49.5602 258.48 49.2515 258.48 48.8514C258.48 48.4512 258.33 48.1426 258.02 47.9368C257.722 47.731 257.285 47.6281 256.722 47.6281H254.483ZM258.399 53.1844C258.709 52.9786 258.87 52.6585 258.87 52.2241C258.87 51.378 258.25 50.9436 256.998 50.9436H254.483V53.4817H256.998C257.618 53.4931 258.089 53.3902 258.399 53.1844Z" fill="white"/>
<path d="M271.514 53.4245V54.3734H265.944V46.7363H271.354V47.6852H267.035V50.029H270.883V50.955H267.035V53.4245H271.514Z" fill="white"/>
<path d="M282.689 54.3734L281.035 52.0297C280.828 52.0411 280.667 52.0526 280.553 52.0526H278.658V54.3734H277.567V46.7363H280.553C281.54 46.7363 282.333 46.9764 282.895 47.4452C283.47 47.9139 283.745 48.5656 283.745 49.4002C283.745 49.9947 283.596 50.4863 283.309 50.9093C283.022 51.3209 282.597 51.6296 282.057 51.8125L283.872 54.3734H282.689ZM282.103 50.6806C282.471 50.3834 282.654 49.9604 282.654 49.4002C282.654 48.8514 282.471 48.4284 282.103 48.1311C281.736 47.8339 281.207 47.6852 280.518 47.6852H278.658V51.1151H280.518C281.207 51.1265 281.747 50.9779 282.103 50.6806Z" fill="white"/>
<path d="M290.36 54.1909C289.82 54.0079 289.396 53.7793 289.097 53.4935L289.499 52.6474C289.786 52.9104 290.165 53.1162 290.624 53.2877C291.084 53.4477 291.555 53.5278 292.037 53.5278C292.669 53.5278 293.151 53.4249 293.461 53.2076C293.771 52.9904 293.932 52.7046 293.932 52.3502C293.932 52.0872 293.84 51.8814 293.679 51.7099C293.507 51.5499 293.3 51.4241 293.048 51.3327C292.795 51.2412 292.439 51.1497 291.98 51.0354C291.405 50.8982 290.934 50.761 290.578 50.6238C290.222 50.4866 289.924 50.2694 289.671 49.9836C289.418 49.6978 289.292 49.3091 289.292 48.8174C289.292 48.4059 289.396 48.04 289.614 47.7199C289.832 47.3884 290.153 47.1254 290.59 46.931C291.026 46.7367 291.578 46.6338 292.221 46.6338C292.669 46.6338 293.116 46.691 293.553 46.8053C293.989 46.9196 294.368 47.0911 294.678 47.3083L294.311 48.1772C293.989 47.9714 293.645 47.8228 293.277 47.7085C292.91 47.6056 292.554 47.5484 292.209 47.5484C291.589 47.5484 291.118 47.6627 290.808 47.8914C290.498 48.12 290.337 48.4059 290.337 48.7603C290.337 49.0232 290.429 49.2405 290.601 49.4005C290.774 49.5606 290.992 49.6863 291.256 49.7778C291.52 49.8693 291.865 49.9607 292.313 50.0636C292.887 50.2008 293.358 50.338 293.702 50.4752C294.047 50.6124 294.357 50.8296 294.609 51.104C294.862 51.3898 294.988 51.7671 294.988 52.2473C294.988 52.6474 294.874 53.0133 294.655 53.3448C294.437 53.6764 294.104 53.9393 293.656 54.1337C293.208 54.328 292.657 54.4195 292.014 54.4195C291.451 54.4652 290.9 54.3738 290.36 54.1909Z" fill="white"/>
<defs>
<linearGradient id="paint0_linear" x1="1.55144" y1="30.6573" x2="55.4254" y2="30.6573" gradientUnits="userSpaceOnUse">
<stop stop-color="#6B489D"/>
<stop offset="0.3479" stop-color="#953F98"/>
<stop offset="1" stop-color="#E9008C"/>
</linearGradient>
<linearGradient id="paint1_linear" x1="-3.3028" y1="60.1706" x2="62.6344" y2="3.81126" gradientUnits="userSpaceOnUse">
<stop stop-color="#6B489D"/>
<stop offset="0.3479" stop-color="#953F98"/>
<stop offset="1" stop-color="#E9008C"/>
</linearGradient>
<linearGradient id="paint2_linear" x1="43.7681" y1="27.6952" x2="46.1559" y2="25.6542" gradientUnits="userSpaceOnUse">
<stop stop-color="#6B489D"/>
<stop offset="0.3479" stop-color="#953F98"/>
<stop offset="1" stop-color="#E9008C"/>
</linearGradient>
</defs>
</svg>
