<svg width="174" height="41" viewBox="0 0 174 41" fill="none" xmlns="http://www.w3.org/2000/svg">
<path d="M20.8984 24.2765V23.3326H5.8389L17.4248 8.84256C19.331 6.45456 20.4536 3.51007 20.6231 0.473999H3.50901C1.71571 0.473999 0.261293 1.92512 0.261293 3.71435V4.65828H14.9819L3.37487 19.2821C1.51096 21.6349 0.409558 24.5301 0.240112 27.5168H17.6507C19.444 27.5168 20.8984 26.0587 20.8984 24.2765Z" fill="white"/>
<path d="M32.9644 0.474365C31.1711 0.474365 29.7167 1.92548 29.7167 3.71472V27.5101H44.6774C46.4707 27.5101 47.9251 26.059 47.9251 24.2698V23.1991H34.5812V0.474365H32.9644Z" fill="white"/>
<path d="M67.9621 0.453369C60.2029 0.453369 54.124 6.4128 54.124 14.0206C54.124 21.6072 60.2029 27.5455 67.9621 27.5455C75.8484 27.5455 81.8002 21.7129 81.8002 13.9854C81.7932 6.26487 75.8484 0.453369 67.9621 0.453369ZM67.9621 23.319C62.8081 23.319 58.9179 19.3178 58.9179 14.0135C58.9179 8.77262 62.8929 4.66583 67.9621 4.66583C73.0314 4.66583 77.0063 8.75148 77.0063 13.9713C77.0063 19.2192 73.0314 23.319 67.9621 23.319Z" fill="white"/>
<path d="M98.5542 27.5172C100.34 27.5172 101.802 26.0661 101.802 24.2769V4.78545H106.716C108.728 4.78545 110.366 3.15118 110.366 1.14358V0.474365H91.6281C89.8418 0.474365 88.3804 1.92548 88.3804 3.71472V4.78545H96.9374V27.5172H98.5542Z" fill="white"/>
<path d="M127.628 27.5172C129.415 27.5172 130.876 26.0661 130.876 24.2769V4.78545H135.79C137.802 4.78545 139.44 3.15118 139.44 1.14358V0.474365H120.709C118.923 0.474365 117.462 1.92548 117.462 3.71472V4.78545H126.019V27.5172H127.628Z" fill="white"/>
<path d="M159.851 0.474365C152.106 0.474365 146.042 6.4197 146.042 14.0134C146.042 21.5789 152.106 27.5101 159.851 27.5101C167.724 27.5101 173.661 21.6916 173.661 13.9711C173.661 6.27882 167.724 0.474365 159.851 0.474365ZM159.851 23.3047C154.704 23.3047 150.821 19.3107 150.821 14.0134C150.821 8.77952 154.789 4.68683 159.851 4.68683C164.914 4.68683 168.881 8.76544 168.881 13.9782C168.874 19.205 164.914 23.3047 159.851 23.3047Z" fill="white"/>
<path d="M1.08728 40.7743C0.621302 40.6193 0.261229 40.4221 0 40.1755L0.345953 39.4429C0.600122 39.6683 0.917833 39.8515 1.31321 39.9924C1.70858 40.1332 2.11102 40.2037 2.52757 40.2037C3.07827 40.2037 3.48071 40.1121 3.75606 39.9219C4.02435 39.7388 4.16555 39.4922 4.16555 39.1823C4.16555 38.9569 4.08789 38.7737 3.93962 38.6328C3.79136 38.4919 3.60779 38.3863 3.38892 38.3088C3.17006 38.2313 2.86646 38.1468 2.47109 38.0552C1.97687 37.9354 1.57444 37.8157 1.26379 37.6959C0.960195 37.5762 0.698965 37.393 0.480097 37.1465C0.261229 36.8999 0.155326 36.5618 0.155326 36.1462C0.155326 35.794 0.247109 35.477 0.437736 35.1952C0.621303 34.9135 0.903713 34.688 1.28497 34.519C1.66622 34.3499 2.1322 34.2654 2.68996 34.2654C3.07827 34.2654 3.46659 34.3147 3.84078 34.4133C4.22203 34.5119 4.53974 34.6599 4.81509 34.843L4.50444 35.5967C4.22909 35.4206 3.93256 35.2868 3.61485 35.1952C3.29714 35.1037 2.99355 35.0614 2.68996 35.0614C2.15338 35.0614 1.75094 35.16 1.48265 35.3502C1.21436 35.5474 1.08022 35.794 1.08022 36.1039C1.08022 36.3293 1.15788 36.5125 1.30615 36.6534C1.45441 36.7943 1.64504 36.907 1.87097 36.9845C2.0969 37.062 2.40049 37.1465 2.78174 37.231C3.27596 37.3508 3.67839 37.4705 3.98198 37.5903C4.28558 37.71 4.5468 37.8932 4.75861 38.1397C4.97748 38.3863 5.08338 38.7174 5.08338 39.1259C5.08338 39.4711 4.9916 39.7881 4.80097 40.0699C4.61035 40.3587 4.32794 40.5841 3.93962 40.7461C3.55837 40.9152 3.08533 40.9926 2.52051 40.9926C2.03335 40.9997 1.55326 40.9222 1.08728 40.7743Z" fill="white"/>
<path d="M11.3176 40.5633C10.7881 40.2745 10.3715 39.8659 10.0679 39.3588C9.76435 38.8445 9.61609 38.2669 9.61609 37.6329C9.61609 36.9919 9.76435 36.4142 10.0679 35.9071C10.3715 35.3999 10.7881 34.9913 11.3247 34.7025C11.8613 34.4137 12.4614 34.2657 13.118 34.2657C13.6334 34.2657 14.1064 34.3503 14.5371 34.5264C14.9678 34.7025 15.3278 34.9561 15.6314 35.2942L15.0172 35.8859C14.523 35.3647 13.9017 35.104 13.1533 35.104C12.6591 35.104 12.2213 35.2167 11.8189 35.4351C11.4235 35.6535 11.1129 35.9564 10.8869 36.3438C10.661 36.7312 10.5551 37.1609 10.5551 37.64C10.5551 38.119 10.6681 38.5487 10.8869 38.9361C11.1129 39.3235 11.4235 39.6264 11.8189 39.8448C12.2143 40.0632 12.6591 40.1759 13.1533 40.1759C13.8875 40.1759 14.5088 39.9152 15.0172 39.3869L15.6314 39.9786C15.3278 40.3168 14.9607 40.5774 14.53 40.7535C14.0994 40.9296 13.6263 41.0141 13.1109 41.0141C12.4473 41.0001 11.8542 40.8592 11.3176 40.5633Z" fill="white"/>
<path d="M20.6653 34.329H21.6114V40.9224H20.6653V34.329Z" fill="white"/>
<path d="M32.0748 40.1052V40.9224H27.2738V34.329H31.9406V35.1461H28.2199V37.1748H31.5382V37.9779H28.2199V40.1052H32.0748Z" fill="white"/>
<path d="M42.9757 34.329V40.9224H42.1991L38.2312 36.0055V40.9224H37.2852V34.329H38.0618L42.0296 39.2458V34.329H42.9757Z" fill="white"/>
<path d="M49.81 40.5633C49.2805 40.2745 48.864 39.8659 48.5604 39.3588C48.2568 38.8445 48.1085 38.2669 48.1085 37.6329C48.1085 36.9919 48.2568 36.4142 48.5604 35.9071C48.864 35.3928 49.2805 34.9913 49.8171 34.7025C50.3537 34.4137 50.9538 34.2657 51.6104 34.2657C52.1258 34.2657 52.5988 34.3503 53.0295 34.5264C53.4602 34.7025 53.8203 34.9561 54.1239 35.2942L53.5096 35.8859C53.0154 35.3647 52.3941 35.104 51.6457 35.104C51.1515 35.104 50.7138 35.2167 50.3113 35.4351C49.9159 35.6535 49.6053 35.9564 49.3794 36.3438C49.1534 36.7312 49.0475 37.1609 49.0475 37.64C49.0475 38.119 49.1605 38.5487 49.3794 38.9361C49.6053 39.3235 49.9159 39.6264 50.3113 39.8448C50.7067 40.0632 51.1515 40.1759 51.6457 40.1759C52.38 40.1759 53.0013 39.9152 53.5096 39.3869L54.1239 39.9786C53.8203 40.3168 53.4531 40.5774 53.0225 40.7535C52.5918 40.9296 52.1187 41.0141 51.6033 41.0141C50.9326 41.0001 50.3396 40.8592 49.81 40.5633Z" fill="white"/>
<path d="M63.9517 40.1052V40.9224H59.1508V34.329H63.8176V35.1461H60.0968V37.1748H63.4151V37.9779H60.0968V40.1052H63.9517Z" fill="white"/>
<path d="M76.5684 40.5632C76.0318 40.2744 75.6153 39.8658 75.3046 39.3516C75.001 38.8374 74.8457 38.2597 74.8457 37.6258C74.8457 36.9918 75.001 36.4142 75.3046 35.8999C75.6082 35.3857 76.0318 34.9842 76.5684 34.6883C77.105 34.3995 77.7051 34.2516 78.3758 34.2516C79.0395 34.2516 79.6326 34.3995 80.1691 34.6883C80.7057 34.9771 81.1223 35.3857 81.4259 35.8929C81.7295 36.4071 81.8777 36.9777 81.8777 37.6187C81.8777 38.2597 81.7295 38.8374 81.4259 39.3446C81.1223 39.8588 80.7057 40.2603 80.1691 40.5491C79.6326 40.8379 79.0324 40.9859 78.3758 40.9859C77.7051 40.9999 77.105 40.8591 76.5684 40.5632ZM79.682 39.8306C80.0703 39.6122 80.3739 39.3093 80.5998 38.9219C80.8257 38.5345 80.9316 38.1048 80.9316 37.6258C80.9316 37.1468 80.8187 36.7171 80.5998 36.3296C80.3739 35.9422 80.0703 35.6393 79.682 35.4209C79.2937 35.2025 78.8559 35.0898 78.3758 35.0898C77.8887 35.0898 77.4509 35.2025 77.0556 35.4209C76.6602 35.6393 76.3566 35.9422 76.1307 36.3296C75.9047 36.7171 75.7988 37.1468 75.7988 37.6258C75.7988 38.1048 75.9118 38.5345 76.1307 38.9219C76.3566 39.3093 76.6602 39.6122 77.0556 39.8306C77.4509 40.049 77.8887 40.1617 78.3758 40.1617C78.8559 40.1617 79.2937 40.056 79.682 39.8306Z" fill="white"/>
<path d="M87.9496 35.1532V37.4496H91.2679V38.2597H87.9496V40.9295H87.0035V34.3361H91.6704V35.1532H87.9496Z" fill="white"/>
<path d="M108.594 34.329V40.9224H107.817L103.849 36.0055V40.9224H102.903V34.329H103.68L107.648 39.2458V34.329H108.594Z" fill="white"/>
<path d="M114.941 40.2461C114.447 39.746 114.207 39.0204 114.207 38.0765V34.329H115.153V38.0413C115.153 39.4572 115.774 40.1616 117.017 40.1616C117.624 40.1616 118.083 39.9855 118.408 39.6403C118.732 39.2951 118.888 38.7598 118.888 38.0413V34.329H119.805V38.0765C119.805 39.0275 119.558 39.746 119.071 40.2461C118.577 40.7463 117.892 40.9928 117.01 40.9928C116.12 40.9998 115.435 40.7533 114.941 40.2461Z" fill="white"/>
<path d="M131.547 40.9295L131.54 36.1253L129.146 40.1335H128.715L126.329 36.1535V40.9295H125.425V34.3361H126.202L128.963 38.9712L131.681 34.3361H132.457L132.464 40.9295H131.547Z" fill="white"/>
<path d="M143.478 38.0835C143.697 38.3653 143.81 38.7175 143.81 39.1402C143.81 39.7108 143.591 40.1546 143.161 40.4575C142.73 40.7674 142.102 40.9224 141.276 40.9224H138.12V34.329H141.085C141.841 34.329 142.427 34.4769 142.836 34.7798C143.245 35.0827 143.457 35.4983 143.457 36.0337C143.457 36.3788 143.38 36.6747 143.217 36.9283C143.055 37.1819 142.843 37.3721 142.568 37.5059C142.956 37.6116 143.253 37.8088 143.478 38.0835ZM139.066 35.0968V37.2101H141C141.487 37.2101 141.855 37.1185 142.123 36.9424C142.384 36.7663 142.518 36.4986 142.518 36.1534C142.518 35.8083 142.384 35.5476 142.123 35.3645C141.862 35.1884 141.487 35.0968 141 35.0968H139.066ZM142.448 39.901C142.716 39.7249 142.85 39.4501 142.85 39.0697C142.85 38.3371 142.314 37.9708 141.233 37.9708H139.059V40.1686H141.233C141.77 40.1616 142.179 40.0771 142.448 39.901Z" fill="white"/>
<path d="M153.751 40.1052V40.9224H148.95V34.329H153.617V35.1461H149.896V37.1748H153.215V37.9779H149.896V40.1052H153.751Z" fill="white"/>
<path d="M163.388 40.9295L161.962 38.9007C161.786 38.9148 161.645 38.9219 161.546 38.9219H159.915V40.9295H158.969V34.3361H161.546C162.4 34.3361 163.078 34.5403 163.565 34.9489C164.059 35.3575 164.299 35.921 164.299 36.6325C164.299 37.1397 164.172 37.5764 163.925 37.9357C163.678 38.2949 163.311 38.5556 162.845 38.7176L164.412 40.9295H163.388ZM162.887 37.7314C163.205 37.4707 163.36 37.1044 163.36 36.6254C163.36 36.1464 163.205 35.7801 162.887 35.5265C162.569 35.2729 162.118 35.1461 161.518 35.1461H159.915V38.1118H161.518C162.111 38.1188 162.569 37.992 162.887 37.7314Z" fill="white"/>
<path d="M170.004 40.7746C169.538 40.6197 169.178 40.4224 168.917 40.1759L169.263 39.4433C169.517 39.6687 169.834 39.8518 170.23 39.9927C170.625 40.1336 171.028 40.2041 171.444 40.2041C171.995 40.2041 172.397 40.1125 172.673 39.9223C172.941 39.7391 173.082 39.4926 173.082 39.1826C173.082 38.9572 173.005 38.7741 172.856 38.6332C172.708 38.4923 172.524 38.3866 172.306 38.3092C172.087 38.2317 171.783 38.1471 171.388 38.0556C170.893 37.9358 170.491 37.8161 170.18 37.6963C169.877 37.5766 169.616 37.3934 169.397 37.1469C169.178 36.9003 169.072 36.5622 169.072 36.1466C169.072 35.7943 169.164 35.4774 169.354 35.1956C169.538 34.9138 169.82 34.6884 170.202 34.5193C170.583 34.3503 171.049 34.2657 171.607 34.2657C171.995 34.2657 172.383 34.3151 172.757 34.4137C173.139 34.5123 173.456 34.6602 173.732 34.8434L173.421 35.5971C173.146 35.421 172.849 35.2872 172.531 35.1956C172.214 35.104 171.91 35.0618 171.607 35.0618C171.07 35.0618 170.668 35.1604 170.399 35.3506C170.131 35.5478 169.997 35.7944 169.997 36.1043C169.997 36.3297 170.075 36.5129 170.223 36.6537C170.371 36.7946 170.562 36.9073 170.788 36.9848C171.014 37.0623 171.317 37.1469 171.698 37.2314C172.193 37.3511 172.595 37.4709 172.899 37.5906C173.202 37.7104 173.463 37.8935 173.675 38.1401C173.894 38.3866 174 38.7177 174 39.1263C174 39.4715 173.908 39.7884 173.718 40.0702C173.527 40.359 173.245 40.5845 172.856 40.7465C172.475 40.9155 172.002 40.993 171.437 40.993C170.943 41.0001 170.463 40.9226 170.004 40.7746Z" fill="white"/>
</svg>
