<svg width="199" height="197" viewBox="0 0 199 197" fill="none" xmlns="http://www.w3.org/2000/svg">
<g clip-path="url(#clip0)">
<path d="M199.001 80.9076C199.017 73.5449 197.482 71.6117 194.145 68.8124L104.11 1.47C102.843 0.516454 101.298 -0.0024458 99.7078 -0.00873128C98.1179 -0.0150168 96.569 0.491652 95.2936 1.43514L6.85093 66.8873C3.49474 69.6704 0.351687 72.9148 0.335499 80.2775H0.238379L0.0117517 181.093V185.581C0.00820489 187.025 0.290987 188.456 0.843937 189.791C1.39689 191.127 2.20917 192.341 3.23438 193.364C4.2596 194.388 5.47765 195.2 6.81895 195.756C8.16025 196.311 9.59851 196.598 11.0516 196.601H15.4114L99.2757 196.786L187.497 196.982C188.95 196.985 190.39 196.704 191.733 196.155C193.077 195.605 194.299 194.798 195.329 193.779C196.358 192.76 197.176 191.55 197.735 190.217C198.294 188.884 198.583 187.454 198.586 186.01L198.82 80.8915L199.001 80.9076Z" fill="url(#paint0_linear)"/>
<path d="M1.89062 80.748L196.948 81.1879L196.734 175.032C196.722 180.135 194.671 185.024 191.032 188.624C187.393 192.225 182.465 194.241 177.33 194.231L20.6445 193.878C15.6022 193.867 10.771 191.865 7.21359 188.314C3.65622 184.762 1.66414 179.952 1.67558 174.94L1.89062 80.748Z" fill="#6C63FF"/>
<path d="M1.89825 80.7432L1.67972 178.775C1.67112 182.767 3.25771 186.599 6.09075 189.428C8.9238 192.258 12.7714 193.854 16.788 193.865L181.565 194.219" fill="#F5F5F5"/>
<path d="M196.964 81.1748L196.746 179.204C196.734 183.196 195.129 187.02 192.281 189.835C189.434 192.651 185.579 194.228 181.562 194.219L16.793 193.855" fill="white"/>
<path d="M95.2719 4.09438L8.39942 67.726C5.10258 70.4314 2.01619 73.5872 2 80.7462L197.164 81.3602C197.18 74.2012 195.672 72.3216 192.388 69.6002L103.932 4.11851C102.681 3.19408 101.165 2.69285 99.606 2.68851C98.0472 2.68416 96.528 3.17693 95.2719 4.09438Z" fill="#6C63FF"/>
<path opacity="0.3" d="M95.2719 4.09438L8.39942 67.726C5.10258 70.4314 2.01619 73.5872 2 80.7462L197.164 81.3602C197.18 74.2012 195.672 72.3216 192.388 69.6002L103.932 4.11851C102.681 3.19408 101.165 2.69285 99.606 2.68851C98.0472 2.68416 96.528 3.17693 95.2719 4.09438Z" fill="black"/>
<path d="M175.843 26.2393L152.239 7.82715L95.1727 79.6661L64.5057 56.0362L45.3047 80.2908L89.9334 114.171L100.997 123.006L175.843 26.2393Z" fill="url(#paint1_linear)"/>
<path d="M174.12 25.7886L152.717 9.47852L96.0236 82.9584L64.5363 58.9638L48.125 80.2342L90.3094 112.334L101.128 120.391L174.12 25.7886Z" fill="white"/>
</g>
<defs>
<linearGradient id="paint0_linear" x1="99.5023" y1="196.995" x2="99.5023" y2="-0.00200221" gradientUnits="userSpaceOnUse">
<stop stop-color="#808080" stop-opacity="0.25"/>
<stop offset="0.54" stop-color="#808080" stop-opacity="0.12"/>
<stop offset="1" stop-color="#808080" stop-opacity="0.1"/>
</linearGradient>
<linearGradient id="paint1_linear" x1="110.413" y1="123.036" x2="110.673" y2="7.74225" gradientUnits="userSpaceOnUse">
<stop stop-opacity="0.12"/>
<stop offset="0.55" stop-opacity="0.09"/>
<stop offset="1" stop-opacity="0.02"/>
</linearGradient>
<clipPath id="clip0">
<rect width="199" height="197" fill="white"/>
</clipPath>
</defs>
</svg>
