<svg width="372" height="282" viewBox="0 0 372 282" fill="none" xmlns="http://www.w3.org/2000/svg">
<g clip-path="url(#clip0)">
<path d="M73.4201 2.87207C73.4201 2.87207 72.1275 7.91397 81.1619 22.1656C90.1963 36.4173 89.5688 38.4361 89.0477 42.5114C88.5265 46.5868 88.5574 48.8181 83.3082 53.8223C83.3082 53.8223 67.5812 58.9841 65.4795 62.2026C63.3777 65.4211 68.9526 77.1226 68.9526 77.1226C68.9526 77.1226 74.3081 91.3366 55.0771 96.7898C55.0771 96.7898 40.0289 96.8104 35.8563 100.125C35.8563 100.125 37.4712 94.3562 32.4517 85.8731C27.4323 77.39 34.3477 69.1194 34.3477 69.1194C34.3477 69.1194 39.9158 66.0551 43.4507 65.8186C46.9856 65.5821 48.1067 63.9643 45.8336 59.9027C45.8336 59.9027 42.5455 58.189 37.9924 61.8598C33.4392 65.5307 30.038 68.1459 26.0711 67.8375C22.1042 67.529 16.447 65.8563 12.7338 58.518C9.02065 51.1797 7.06635 40.8045 4.28575 36.0677C1.50516 31.3308 0 30.2923 0 30.2923C0 30.2923 3.51432 32.9589 15.6481 23.9068C27.782 14.8547 34.1146 18.7278 34.1146 18.7278C34.1146 18.7278 43.8655 21.3465 45.429 38.5355C45.429 38.5355 48.2644 54.9157 54.0279 44.993C54.0279 44.993 52.0771 39.4061 48.1787 31.18C44.2804 22.954 54.7136 15.2112 62.3526 12.62C69.9915 10.0288 73.4201 2.87207 73.4201 2.87207Z" fill="#006BBB"/>
<path d="M10.6253 33.9227L10.5911 33.837C12.9911 32.8361 24.062 38.8309 32.9147 44.0373L32.8667 44.1161C20.3797 36.7744 12.4802 33.1549 10.6253 33.9227Z" fill="#444053"/>
<path d="M32.6848 44.0026L32.7808 43.9512C39.8506 48.1156 48.333 53.4009 54.6862 57.6921C55.2896 58.1 55.917 58.5045 56.5582 58.8849L56.4587 59.046C55.8176 58.6621 55.1867 58.2577 54.5799 57.8464C48.2335 53.5585 39.7512 48.1636 32.6848 44.0026Z" fill="#444053"/>
<path d="M56.2737 58.9437L56.4314 58.8203C69.1755 66.4671 87.1037 64.6471 87.2614 64.6471L85.2831 66.8921C85.1254 66.9024 69.1069 66.6419 56.2737 58.9437Z" fill="#444053"/>
<path d="M68.6337 14.3926C68.6337 14.3926 64.4611 26.0085 67.6326 34.1934C70.804 42.3784 64.2039 62.659 64.2039 62.659C64.2039 62.659 62.0131 71.1902 58.4885 73.3221C58.4885 73.3221 53.3764 79.6665 50.3798 80.3931C47.3832 81.1197 40.4917 87.5566 40.6734 91.1178" stroke="#444053" stroke-miterlimit="10"/>
<path d="M74.2771 15.2109C74.2771 15.2109 71.3354 21.1748 66.957 21.1234" stroke="#444053" stroke-miterlimit="10"/>
<path d="M80.1745 22.9648C80.1745 22.9648 78.395 31.1669 67.3721 33.4599" stroke="#444053" stroke-miterlimit="10"/>
<path d="M84.7653 35.1875C84.7653 35.1875 79.5779 43.4958 68.4006 42.4847" stroke="#444053" stroke-miterlimit="10"/>
<path d="M83.7951 50.751C83.7951 50.751 74.0339 57.1433 66.6521 53.6335" stroke="#444053" stroke-miterlimit="10"/>
<path d="M61.7354 15.2109C61.7354 15.2109 64.2862 20.6059 67.108 18.9812" stroke="#444053" stroke-miterlimit="10"/>
<path d="M52.396 23.4062C52.396 23.4062 55.8246 30.6452 66.5527 29.3736" stroke="#444053" stroke-miterlimit="10"/>
<path d="M51.3606 34.292C51.3606 34.292 60.7961 40.0228 68.4488 38.4702" stroke="#444053" stroke-miterlimit="10"/>
<path d="M56.3284 45.8945C56.3284 45.8945 63.7959 51.8482 67.2999 50.4806" stroke="#444053" stroke-miterlimit="10"/>
<path d="M54.5798 50.333C54.5798 50.333 56.5993 56.5883 54.6141 57.7708" stroke="#444053" stroke-miterlimit="10"/>
<path d="M47.9663 59.7148C47.9663 59.7148 51.8166 55.8931 50.7435 55.1904" stroke="#444053" stroke-miterlimit="10"/>
<path d="M40.893 27.9688C40.893 27.9688 44.2633 43.9719 39.885 48.2906" stroke="#444053" stroke-miterlimit="10"/>
<path d="M26.8013 66.0449C26.8013 66.0449 42.0551 56.2525 43.3854 50.4668" stroke="#444053" stroke-miterlimit="10"/>
<path d="M17.9658 59.142C17.9658 59.142 32.3145 52.4549 36.206 46.0488" stroke="#444053" stroke-miterlimit="10"/>
<path d="M27.6003 22.8408C27.6003 22.8408 34.5433 34.419 30.2061 42.5217" stroke="#444053" stroke-width="0.75" stroke-miterlimit="10"/>
<path d="M13.2859 48.6261C13.2859 48.6261 23.9146 44.3245 26.0643 40.1807" stroke="#444053" stroke-width="0.75" stroke-miterlimit="10"/>
<path d="M15.5281 26.3711C15.5281 26.3711 19.0835 32.9245 17.4275 35.7728" stroke="#444053" stroke-width="0.75" stroke-miterlimit="10"/>
<path d="M52.365 65.1441C52.365 65.1441 61.9651 63.8588 62.9937 66.3643" stroke="#444053" stroke-miterlimit="10"/>
<path d="M67.7148 84.8111C67.7148 84.8111 67.1971 74.316 61.2004 70.2578" stroke="#444053" stroke-miterlimit="10"/>
<path d="M41.3901 69.3662C41.3901 69.3662 51.4668 70.5556 55.0291 77.1261" stroke="#444053" stroke-miterlimit="10"/>
<path d="M58.2897 92.4238C58.2897 92.4238 59.8463 84.7359 52.4851 79.2998" stroke="#444053" stroke-miterlimit="10"/>
<path d="M34.1318 78.6551C34.1318 78.6551 42.4908 78.2266 46.9685 82.1992" stroke="#444053" stroke-miterlimit="10"/>
<path d="M45.6518 93.8528C45.6518 93.8528 44.87 87.7518 42.6895 86.5967" stroke="#444053" stroke-miterlimit="10"/>
<path opacity="0.1" d="M175.301 67.6525C156.488 77.1159 135.913 81.2427 115.853 84.4234C95.7918 87.6042 75.5425 90.0549 55.7731 96.7043C43.0599 100.982 29.6232 107.909 23.3557 118.671C17.3145 129.005 19.5465 140.025 22.742 149.629C25.142 156.851 28.2277 164.158 34.7969 168.573C39.3638 171.637 45.2919 173.073 50.2702 175.681C67.5881 184.747 70.3961 206.012 67.6052 225.573C66.2955 234.748 64.0463 244.043 64.0772 253.037C64.1081 262.031 66.7035 270.943 73.8419 276.255C80.9185 281.52 91.5437 282.589 101.956 281.739C123.114 280.026 144.389 271.255 164.652 261.829C209.519 240.966 252.496 216.092 295.374 191.28C311.235 182.098 327.168 172.871 341.77 161.995C349.879 155.956 357.884 149.019 361.629 140.717C366.398 130.181 362.76 118.702 353.146 113.962C337.032 106.01 310.09 116.495 296.194 106.109C288.517 100.392 287.516 89.9315 288.767 80.1116C291.448 59.0117 302.53 35.7559 294.071 17.9019C288.263 5.63825 272.979 -1.49787 256.288 0.26731C238.802 2.11818 219.424 13.6107 214.212 29.1031C208.857 45.0583 191.913 59.2791 175.301 67.6525Z" fill="#006BBB"/>
<path opacity="0.1" d="M220.404 269.421C239.361 269.421 254.728 265.626 254.728 260.945C254.728 256.264 239.361 252.469 220.404 252.469C201.448 252.469 186.081 256.264 186.081 260.945C186.081 265.626 201.448 269.421 220.404 269.421Z" fill="#006BBB"/>
<path d="M367.718 46.5146H50.452C48.0869 46.5146 46.1697 48.4313 46.1697 50.7956V226.748C46.1697 229.112 48.0869 231.029 50.452 231.029H367.718C370.083 231.029 372 229.112 372 226.748V50.7956C372 48.4313 370.083 46.5146 367.718 46.5146Z" fill="url(#paint0_linear)"/>
<path d="M367.238 49.1094H50.9696C48.6045 49.1094 46.6873 51.026 46.6873 53.3904V226.134C46.6873 228.499 48.6045 230.415 50.9696 230.415H367.238C369.603 230.415 371.52 228.499 371.52 226.134V53.3904C371.52 51.026 369.603 49.1094 367.238 49.1094Z" fill="white"/>
<path d="M367.238 49.1094H50.9696C48.6045 49.1094 46.6873 51.026 46.6873 53.3904V226.134C46.6873 228.499 48.6045 230.415 50.9696 230.415H367.238C369.603 230.415 371.52 228.499 371.52 226.134V53.3904C371.52 51.026 369.603 49.1094 367.238 49.1094Z" fill="#272727"/>
<path opacity="0.04" d="M367.238 49.1094H50.9696C48.6045 49.1094 46.6873 51.026 46.6873 53.3904V226.134C46.6873 228.499 48.6045 230.415 50.9696 230.415H367.238C369.603 230.415 371.52 228.499 371.52 226.134V53.3904C371.52 51.026 369.603 49.1094 367.238 49.1094Z" fill="#212121"/>
<path d="M369.874 47.0293H48.3398C47.9025 47.0293 47.483 47.203 47.1737 47.5122C46.8644 47.8214 46.6907 48.2407 46.6907 48.6779V55.6564H371.523V48.6779C371.523 48.2407 371.35 47.8214 371.04 47.5122C370.731 47.203 370.312 47.0293 369.874 47.0293Z" fill="#5A5773"/>
<path d="M53.1741 53.5652C54.405 53.5652 55.4027 52.5677 55.4027 51.3373C55.4027 50.1068 54.405 49.1094 53.1741 49.1094C51.9433 49.1094 50.9456 50.1068 50.9456 51.3373C50.9456 52.5677 51.9433 53.5652 53.1741 53.5652Z" fill="white"/>
<path d="M59.1741 53.5652C60.405 53.5652 61.4027 52.5677 61.4027 51.3373C61.4027 50.1068 60.405 49.1094 59.1741 49.1094C57.9433 49.1094 56.9456 50.1068 56.9456 51.3373C56.9456 52.5677 57.9433 53.5652 59.1741 53.5652Z" fill="white"/>
<path d="M65.1744 53.5652C66.4052 53.5652 67.403 52.5677 67.403 51.3373C67.403 50.1068 66.4052 49.1094 65.1744 49.1094C63.9436 49.1094 62.9458 50.1068 62.9458 51.3373C62.9458 52.5677 63.9436 53.5652 65.1744 53.5652Z" fill="white"/>
<path opacity="0.1" d="M335.797 95.7891H71.9251C69.9956 95.7891 68.4314 97.3528 68.4314 99.2817V196.493C68.4314 198.422 69.9956 199.986 71.9251 199.986H335.797C337.727 199.986 339.291 198.422 339.291 196.493V99.2817C339.291 97.3528 337.727 95.7891 335.797 95.7891Z" fill="#006BBB"/>
<path d="M342.314 92.4136L78.5275 85.6925C76.5986 85.6434 74.9951 87.1667 74.9459 89.095L72.4683 186.275C72.4191 188.203 73.9429 189.806 75.8718 189.856L339.658 196.577C341.587 196.626 343.191 195.102 343.24 193.174L345.718 95.9941C345.767 94.0658 344.243 92.4628 342.314 92.4136Z" fill="#303030"/>
<path opacity="0.2" d="M115.551 107.714L304.234 112.509" stroke="#5A5773" stroke-miterlimit="10"/>
<path opacity="0.2" d="M115.177 122.448L303.86 127.243" stroke="#5A5773" stroke-miterlimit="10"/>
<path opacity="0.2" d="M114.803 137.18L303.486 141.975" stroke="#5A5773" stroke-miterlimit="10"/>
<path opacity="0.2" d="M114.426 151.915L303.113 156.71" stroke="#5A5773" stroke-miterlimit="10"/>
<path opacity="0.2" d="M131.576 148.351L131.099 167.082" stroke="#5A5773" stroke-miterlimit="10" stroke-dasharray="12 12"/>
<path opacity="0.2" d="M114.052 166.65L302.735 171.442" stroke="#5A5773" stroke-miterlimit="10"/>
<path opacity="0.2" d="M152.439 167.623L153.149 139.699" stroke="#5A5773" stroke-miterlimit="10" stroke-dasharray="12 12"/>
<path opacity="0.2" d="M277.257 137.492C273.894 137.784 270.609 135.899 268.597 133.917C266.512 131.861 265 129.331 263.539 126.87C263.077 126.092 262.597 125.29 262.113 124.516C259.566 120.478 257.022 117.763 254.111 115.971C253.044 115.314 251.901 114.792 250.706 114.415C250.592 114.687 250.428 114.936 250.223 115.148C249.782 115.607 249.178 115.872 248.543 115.885H248.43C247.859 115.87 247.313 115.652 246.889 115.271C246.465 114.89 246.191 114.37 246.115 113.805C245.036 113.856 243.97 114.074 242.958 114.452C239.964 115.58 237.691 118.003 235.624 120.392C233.121 123.278 230.707 126.305 228.458 129.393C228.001 130.017 227.544 130.644 227.087 131.275C224.645 134.682 222.122 138.202 218.858 140.954C214.476 144.67 209.206 146.27 204.759 145.239C199.425 144.001 195.609 139.288 192.883 135.319C192.54 134.805 192.197 134.291 191.827 133.767C189.283 129.996 186.653 126.099 182.772 123.827C177.66 120.828 170.6 121.345 165.972 125.05C163.716 126.857 162.022 129.311 160.38 131.683C159.817 132.498 159.234 133.342 158.634 134.15C155.549 138.294 152.439 140.543 149.086 141.03C147.756 141.177 146.414 141.177 145.085 141.03C144.2 140.968 143.285 140.899 142.39 140.923C140.157 141.019 137.987 141.689 136.091 142.871C134.194 144.052 132.635 145.704 131.566 147.665L131.093 167.394L279.314 171.164L280.144 138.524C279.89 138.662 279.61 138.745 279.322 138.768C279.033 138.79 278.743 138.752 278.471 138.655C278.199 138.558 277.95 138.404 277.741 138.205C277.531 138.005 277.367 137.763 277.257 137.496V137.492Z" fill="#006BBB"/>
<path opacity="0.2" d="M175.527 121.876L174.351 168.182" stroke="#5A5773" stroke-miterlimit="10" stroke-dasharray="12 12"/>
<path opacity="0.2" d="M196.198 139.593L195.458 168.716" stroke="#5A5773" stroke-miterlimit="10" stroke-dasharray="12 12"/>
<path opacity="0.2" d="M216.756 143.01L216.091 169.241" stroke="#5A5773" stroke-miterlimit="10" stroke-dasharray="12 12"/>
<path opacity="0.2" d="M236.707 119.535L235.432 169.731" stroke="#5A5773" stroke-miterlimit="10" stroke-dasharray="12 12"/>
<path opacity="0.2" d="M257.012 117.783L255.678 170.248" stroke="#5A5773" stroke-miterlimit="10" stroke-dasharray="12 12"/>
<path opacity="0.2" d="M279.5 137.509L278.649 170.831" stroke="#5A5773" stroke-miterlimit="10" stroke-dasharray="12 12"/>
<path d="M250.501 112.101C250.273 111.882 250.004 111.71 249.71 111.596C249.416 111.481 249.102 111.425 248.786 111.432C248.221 111.443 247.677 111.652 247.252 112.024C246.826 112.396 246.545 112.906 246.458 113.465C246.437 113.601 246.428 113.738 246.431 113.876C246.431 113.969 246.431 114.061 246.452 114.15C246.524 114.687 246.777 115.184 247.168 115.559C247.594 115.983 248.165 116.228 248.766 116.244H248.879C249.515 116.233 250.121 115.969 250.562 115.511C250.766 115.297 250.93 115.049 251.046 114.777C251.135 114.564 251.193 114.339 251.217 114.109C251.226 114.005 251.226 113.901 251.217 113.797C251.216 113.481 251.151 113.169 251.028 112.877C250.905 112.586 250.726 112.322 250.501 112.101ZM250.381 114.568C250.304 114.735 250.198 114.887 250.069 115.017C249.85 115.244 249.572 115.405 249.267 115.484C248.962 115.563 248.641 115.556 248.34 115.465C248.039 115.374 247.768 115.201 247.558 114.966C247.349 114.731 247.208 114.443 247.151 114.133C247.132 114.044 247.122 113.953 247.12 113.862C247.117 113.724 247.13 113.586 247.161 113.451C247.246 113.077 247.453 112.742 247.75 112.5C248.047 112.258 248.417 112.122 248.8 112.114H248.879C249.319 112.126 249.739 112.306 250.05 112.618C250.36 112.93 250.539 113.35 250.549 113.79C250.549 113.825 250.549 113.862 250.549 113.897C250.543 114.13 250.485 114.359 250.381 114.568Z" fill="#006BBB"/>
<path d="M279.52 139.117C280.656 139.117 281.577 138.196 281.577 137.06C281.577 135.925 280.656 135.004 279.52 135.004C278.384 135.004 277.463 135.925 277.463 137.06C277.463 138.196 278.384 139.117 279.52 139.117Z" fill="#006BBB"/>
<path d="M247.12 113.862C247.122 113.953 247.132 114.044 247.151 114.133C246.918 114.133 246.685 114.133 246.465 114.15C245.384 114.202 244.318 114.42 243.304 114.798C240.311 115.926 238.038 118.349 235.967 120.738C233.464 123.62 231.05 126.65 228.798 129.735C228.342 130.359 227.892 130.99 227.426 131.62C224.982 135.027 222.458 138.544 219.197 141.3C214.812 145.012 209.539 146.612 205.089 145.581C199.761 144.347 195.945 139.63 193.202 135.661C192.859 135.151 192.495 134.633 192.146 134.109C189.598 130.338 186.965 126.441 183.084 124.169C177.972 121.17 170.906 121.687 166.284 125.392C164.059 127.195 162.344 129.649 160.702 132.021C160.136 132.837 159.553 133.684 158.953 134.489C155.868 138.633 152.755 140.882 149.401 141.368C148.072 141.514 146.73 141.514 145.4 141.368C144.503 141.286 143.603 141.251 142.702 141.262C140.31 141.361 137.992 142.123 136.007 143.462C134.022 144.8 132.448 146.663 131.459 148.844L130.829 148.569C131.872 146.272 133.532 144.308 135.624 142.897C137.716 141.486 140.159 140.683 142.681 140.576C143.606 140.563 144.531 140.6 145.452 140.686C146.731 140.825 148.022 140.825 149.302 140.686C152.467 140.23 155.443 138.068 158.401 134.078C158.995 133.279 159.574 132.44 160.136 131.627C161.806 129.228 163.534 126.722 165.866 124.851C168.337 122.918 171.329 121.764 174.458 121.537C177.588 121.309 180.715 122.018 183.441 123.572C187.459 125.927 190.137 129.889 192.729 133.725C193.071 134.239 193.414 134.753 193.781 135.271C196.438 139.137 200.141 143.726 205.253 144.909C209.491 145.893 214.541 144.347 218.762 140.772C221.947 138.074 224.454 134.602 226.871 131.216C227.32 130.585 227.776 129.955 228.242 129.327C230.508 126.243 232.932 123.185 235.442 120.282C237.571 117.828 239.899 115.336 243.057 114.154C244.151 113.75 245.3 113.518 246.465 113.468C246.695 113.468 246.931 113.448 247.151 113.468C247.125 113.598 247.114 113.73 247.12 113.862Z" fill="#006BBB"/>
<path d="M279.64 137.382C275.619 138.884 271.367 136.642 268.947 134.263C266.862 132.207 265.35 129.674 263.889 127.213C263.427 126.438 262.947 125.633 262.46 124.862C259.912 120.821 257.368 118.106 254.454 116.313C253.387 115.658 252.243 115.137 251.049 114.761C250.83 114.689 250.607 114.627 250.364 114.569C250.468 114.361 250.525 114.133 250.532 113.9C250.758 113.959 250.981 114.024 251.217 114.092C252.477 114.487 253.683 115.038 254.807 115.731C257.817 117.578 260.43 120.361 263.036 124.495C263.526 125.276 264.006 126.082 264.476 126.867C265.916 129.287 267.404 131.792 269.423 133.773C271.696 136.008 275.677 138.13 279.397 136.741L279.64 137.382Z" fill="#006BBB"/>
<path opacity="0.5" d="M122.307 104.811L115.932 104.648C115.762 104.644 115.62 104.779 115.616 104.949L115.553 107.416C115.549 107.586 115.683 107.728 115.854 107.732L122.229 107.895C122.399 107.899 122.541 107.765 122.545 107.594L122.608 105.127C122.612 104.957 122.478 104.815 122.307 104.811Z" fill="#006BBB"/>
<path d="M121.929 119.541L115.554 119.379C115.383 119.375 115.242 119.509 115.237 119.679L115.174 122.146C115.17 122.317 115.305 122.458 115.475 122.463L121.85 122.625C122.02 122.629 122.162 122.495 122.166 122.325L122.229 119.858C122.234 119.687 122.099 119.546 121.929 119.541Z" fill="#006BBB"/>
<path opacity="0.5" d="M121.553 134.279L115.178 134.116C115.008 134.112 114.866 134.246 114.862 134.417L114.799 136.884C114.795 137.054 114.929 137.196 115.099 137.2L121.475 137.362C121.645 137.367 121.787 137.232 121.791 137.062L121.854 134.595C121.858 134.425 121.724 134.283 121.553 134.279Z" fill="#006BBB"/>
<path opacity="0.5" d="M121.178 149.01L114.803 148.848C114.633 148.843 114.491 148.978 114.487 149.148L114.424 151.615C114.419 151.786 114.554 151.927 114.724 151.931L121.099 152.094C121.27 152.098 121.411 151.964 121.416 151.793L121.479 149.326C121.483 149.156 121.348 149.014 121.178 149.01Z" fill="#006BBB"/>
<path opacity="0.5" d="M120.802 163.745L114.427 163.582C114.257 163.578 114.115 163.712 114.111 163.883L114.048 166.35C114.044 166.52 114.178 166.662 114.349 166.666L120.724 166.828C120.894 166.833 121.036 166.698 121.04 166.528L121.103 164.061C121.107 163.89 120.973 163.749 120.802 163.745Z" fill="#006BBB"/>
<path opacity="0.5" d="M133.774 170.245L127.399 170.083C127.229 170.079 127.087 170.213 127.083 170.384L127.02 172.851C127.016 173.021 127.15 173.162 127.321 173.167L133.696 173.329C133.866 173.334 134.008 173.199 134.012 173.029L134.075 170.562C134.079 170.391 133.945 170.25 133.774 170.245Z" fill="#006BBB"/>
<path opacity="0.5" d="M155.539 170.8L149.163 170.638C148.993 170.633 148.851 170.768 148.847 170.938L148.784 173.405C148.78 173.576 148.914 173.717 149.085 173.722L155.46 173.884C155.63 173.888 155.772 173.754 155.776 173.583L155.839 171.116C155.844 170.946 155.709 170.805 155.539 170.8Z" fill="#006BBB"/>
<path d="M176.676 172.309L170.299 172.118C170.129 172.113 169.987 172.247 169.981 172.417L169.907 174.885C169.902 175.055 170.036 175.197 170.207 175.202L176.584 175.394C176.754 175.399 176.897 175.265 176.902 175.094L176.976 172.627C176.981 172.456 176.847 172.314 176.676 172.309Z" fill="#006BBB"/>
<path opacity="0.5" d="M198.557 171.895L192.182 171.732C192.011 171.728 191.87 171.863 191.865 172.033L191.802 174.5C191.798 174.67 191.933 174.812 192.103 174.816L198.478 174.979C198.648 174.983 198.79 174.848 198.794 174.678L198.857 172.211C198.862 172.041 198.727 171.899 198.557 171.895Z" fill="#006BBB"/>
<path opacity="0.5" d="M219.187 172.424L212.812 172.262C212.642 172.257 212.5 172.392 212.496 172.562L212.433 175.029C212.428 175.2 212.563 175.341 212.733 175.346L219.108 175.508C219.279 175.512 219.42 175.378 219.425 175.207L219.488 172.74C219.492 172.57 219.357 172.429 219.187 172.424Z" fill="#006BBB"/>
<path d="M238.526 172.913L232.151 172.751C231.981 172.747 231.839 172.881 231.835 173.052L231.772 175.519C231.768 175.689 231.902 175.83 232.073 175.835L238.448 175.997C238.618 176.002 238.76 175.867 238.764 175.697L238.827 173.23C238.831 173.059 238.697 172.918 238.526 172.913Z" fill="#006BBB"/>
<path d="M258.917 173.432L252.542 173.27C252.371 173.265 252.23 173.4 252.225 173.57L252.162 176.037C252.158 176.207 252.293 176.349 252.463 176.353L258.838 176.516C259.009 176.52 259.15 176.386 259.154 176.215L259.217 173.748C259.222 173.578 259.087 173.436 258.917 173.432Z" fill="#006BBB"/>
<path d="M280.833 175.435L274.792 175.254C274.529 175.246 274.309 175.453 274.301 175.716L274.237 177.848C274.229 178.111 274.436 178.33 274.699 178.338L280.741 178.52C281.004 178.527 281.224 178.32 281.231 178.057L281.295 175.925C281.303 175.662 281.096 175.443 280.833 175.435Z" fill="#006BBB"/>
<path d="M336.302 207.534C337.087 207.534 337.848 207.806 338.455 208.304C339.062 208.802 339.478 209.495 339.631 210.265C339.784 211.035 339.666 211.834 339.295 212.526C338.925 213.219 338.326 213.761 337.601 214.062C336.875 214.362 336.068 214.402 335.317 214.174C334.565 213.946 333.916 213.465 333.48 212.812C333.043 212.16 332.847 211.376 332.924 210.595C333.001 209.813 333.346 209.083 333.901 208.528C334.216 208.212 334.59 207.961 335.002 207.791C335.414 207.62 335.856 207.533 336.302 207.534ZM336.302 207.006C335.525 207.006 334.765 207.236 334.12 207.668C333.474 208.099 332.971 208.713 332.674 209.43C332.377 210.148 332.3 210.937 332.452 211.699C332.604 212.46 332.978 213.159 333.528 213.708C334.078 214.256 334.778 214.63 335.54 214.78C336.302 214.931 337.091 214.852 337.809 214.554C338.526 214.256 339.138 213.752 339.569 213.106C340 212.459 340.229 211.7 340.227 210.924C340.227 210.409 340.125 209.899 339.927 209.423C339.73 208.948 339.441 208.516 339.076 208.152C338.712 207.788 338.279 207.5 337.803 207.303C337.327 207.106 336.817 207.005 336.302 207.006Z" fill="#006BBB"/>
<path d="M335.249 212.082L335.454 211.808C335.655 212.005 335.924 212.116 336.205 212.12C336.548 212.12 336.819 211.945 336.819 211.667C336.819 211.39 336.569 211.167 335.876 211.167V210.851C336.493 210.851 336.726 210.646 336.726 210.379C336.726 210.111 336.517 209.984 336.212 209.984C335.972 209.992 335.742 210.086 335.564 210.248L335.345 209.984C335.589 209.769 335.903 209.647 336.229 209.642C336.761 209.642 337.155 209.899 337.155 210.348C337.155 210.663 336.925 210.872 336.589 210.985V211.002C336.762 211.021 336.923 211.099 337.044 211.225C337.164 211.35 337.236 211.514 337.248 211.688C337.248 212.175 336.788 212.469 336.24 212.469C336.057 212.477 335.874 212.446 335.704 212.379C335.533 212.313 335.378 212.211 335.249 212.082Z" fill="#006BBB"/>
<path d="M352.515 207.763C353.301 207.763 354.062 208.035 354.669 208.533C355.276 209.031 355.691 209.724 355.845 210.494C355.998 211.264 355.879 212.063 355.509 212.756C355.139 213.448 354.54 213.991 353.815 214.291C353.089 214.592 352.282 214.631 351.53 214.404C350.779 214.176 350.13 213.695 349.693 213.042C349.257 212.389 349.061 211.605 349.138 210.824C349.215 210.043 349.56 209.312 350.115 208.757C350.43 208.441 350.804 208.191 351.216 208.02C351.628 207.849 352.069 207.762 352.515 207.763ZM352.515 207.235C351.739 207.235 350.98 207.466 350.334 207.897C349.689 208.328 349.186 208.941 348.888 209.658C348.591 210.375 348.514 211.164 348.665 211.926C348.817 212.687 349.19 213.386 349.739 213.935C350.288 214.484 350.988 214.858 351.75 215.009C352.511 215.16 353.3 215.083 354.018 214.786C354.735 214.489 355.348 213.986 355.78 213.34C356.211 212.695 356.441 211.936 356.441 211.16C356.442 210.644 356.34 210.134 356.143 209.657C355.946 209.181 355.657 208.748 355.292 208.384C354.928 208.019 354.495 207.73 354.018 207.533C353.542 207.336 353.031 207.235 352.515 207.235Z" fill="#5A5773"/>
<path d="M352.567 210.748C352.567 210.58 352.567 210.368 352.591 210.2H352.567C352.471 210.347 352.361 210.495 352.265 210.642L351.579 211.537H353.434V211.897H351.099V211.609L352.491 209.778H353.002V212.692H352.577L352.567 210.748Z" fill="#5A5773"/>
<path d="M343.57 208.918C343.637 208.852 343.728 208.815 343.822 208.815C343.916 208.815 344.007 208.852 344.074 208.918L345.843 210.694C345.876 210.726 345.903 210.764 345.921 210.806C345.939 210.849 345.948 210.894 345.948 210.941C345.948 210.987 345.939 211.032 345.921 211.075C345.903 211.117 345.876 211.155 345.843 211.187L344.101 212.935C344.069 212.971 344.03 212.999 343.986 213.018C343.943 213.038 343.896 213.048 343.848 213.048C343.8 213.048 343.753 213.038 343.709 213.018C343.665 212.999 343.626 212.971 343.594 212.935C343.559 212.903 343.531 212.864 343.512 212.821C343.493 212.778 343.484 212.731 343.484 212.683C343.484 212.636 343.493 212.589 343.512 212.546C343.531 212.503 343.559 212.464 343.594 212.432L345.089 210.923L343.57 209.422C343.535 209.39 343.506 209.351 343.487 209.307C343.468 209.264 343.458 209.216 343.458 209.169C343.458 209.121 343.468 209.074 343.487 209.03C343.506 208.986 343.535 208.947 343.57 208.915V208.918Z" fill="#5A5773"/>
<path d="M340.553 210.923C340.552 211.687 340.777 212.433 341.2 213.068C341.623 213.703 342.226 214.199 342.931 214.491C343.636 214.784 344.412 214.861 345.161 214.712C345.91 214.564 346.598 214.196 347.138 213.657C347.677 213.117 348.045 212.429 348.194 211.681C348.342 210.932 348.265 210.156 347.972 209.451C347.68 208.747 347.184 208.144 346.549 207.721C345.913 207.298 345.167 207.073 344.403 207.074C343.382 207.075 342.404 207.481 341.682 208.203C340.96 208.924 340.554 209.903 340.553 210.923ZM341.146 210.923C341.145 210.167 341.406 209.434 341.885 208.849C342.363 208.264 343.03 207.863 343.772 207.715C344.513 207.566 345.283 207.679 345.951 208.035C346.618 208.391 347.141 208.967 347.431 209.665C347.721 210.363 347.76 211.14 347.541 211.864C347.322 212.587 346.858 213.212 346.23 213.633C345.601 214.053 344.846 214.242 344.094 214.168C343.341 214.094 342.637 213.761 342.103 213.227C341.798 212.925 341.557 212.566 341.393 212.171C341.229 211.776 341.145 211.351 341.146 210.923Z" fill="#5A5773"/>
<path opacity="0.2" d="M133.534 64.7979H58.269C57.5381 64.7979 56.9456 65.3902 56.9456 66.1209V71.6495C56.9456 72.3802 57.5381 72.9725 58.269 72.9725H133.534C134.265 72.9725 134.857 72.3802 134.857 71.6495V66.1209C134.857 65.3902 134.265 64.7979 133.534 64.7979Z" fill="#5A5773"/>
<path d="M242.467 259.512C241.898 257.456 241.528 255.639 241.528 255.639C241.528 255.639 241.552 253.377 240.472 251.715L240.451 251.149L240.29 246.968C240.549 246.198 240.874 245.451 241.26 244.736C241.967 243.393 241.027 238.608 241.027 238.608C241.027 238.608 237.972 231.928 238.487 227.595C239.001 223.263 232.02 208.692 232.02 208.692C232.003 207.262 232.151 205.835 232.459 204.439C232.513 204.145 232.53 203.846 232.507 203.548C232.507 203.51 232.507 203.479 232.507 203.438C232.507 203.438 232.507 203.462 232.507 203.472C232.305 200.638 229.853 195.4 229.853 195.4L229.764 185.245C229.764 185.245 230.968 179.205 228.317 171.267C227.395 168.498 226.785 166.277 226.387 164.556C226.343 164.364 226.298 164.176 226.26 163.997C231.06 163.075 234.698 162.325 234.698 162.325C234.698 162.325 231.458 150.757 229.493 148.786C227.529 146.815 225.773 140.454 225.773 140.454C225.773 140.454 224.474 132.245 225.965 129.774C227.457 127.302 227.525 123.138 227.525 123.138C227.525 123.138 231.043 120.368 231.451 119.186C231.859 118.003 232.511 115.344 232.459 113.956C232.408 112.567 231.904 111.347 232.027 110.61C232.151 109.873 230.837 107.148 231.389 105.812C231.529 105.402 231.594 104.97 231.581 104.537C231.581 104.537 231.581 104.509 231.581 104.499C231.581 104.489 231.581 104.499 231.581 104.482C231.542 103.333 231.392 102.191 231.132 101.071C230.054 100.227 228.808 99.6205 227.477 99.2925L227.385 98.9841L227.145 98.158C227.021 98.0826 226.901 98.0175 226.781 97.9592L226.761 97.661L226.682 96.4785L227.145 93.8051C228.077 89.1265 221.868 88.6638 221.868 88.6638C221.467 87.9666 220.82 87.4437 220.054 87.1968C218.793 86.8061 220.116 94.1752 220.716 94.6243C221.165 94.967 222.609 97.236 223.305 98.3534L223.415 98.5351C223.318 98.632 223.227 98.7351 223.144 98.8435L223.442 100.444L223.487 100.688C223.098 101.211 222.787 101.789 222.564 102.401C222.564 102.401 223.744 103.601 223.572 104.996C223.401 106.391 224.039 108.098 224.069 108.19C224.001 108.115 223.171 107.286 222.386 107.525C221.601 107.765 219.403 108.516 219.403 108.516C219.403 108.516 217.754 108.859 217.918 109.232C218.083 109.606 216.862 111.248 216.862 111.248L212.241 107.193C212.193 107.07 212.141 106.946 212.097 106.816C211.888 106.22 211.734 105.606 211.637 104.982C212.119 104.846 212.589 104.675 213.046 104.472C213.509 104.293 213.922 104.007 214.25 103.635C214.678 103.083 214.737 102.357 214.894 101.685C215.196 100.376 215.923 99.1897 216.406 97.9352C217.238 95.8281 217.456 93.529 217.037 91.303C216.94 90.6145 216.68 89.9591 216.28 89.3904C215.512 88.417 214.178 88.0605 213.194 87.2996C212.21 86.5387 211.534 85.3425 210.393 84.7838C209.364 84.2834 208.13 84.3931 206.998 84.6261C204.774 85.0735 202.653 85.9326 200.745 87.1591C200.11 87.567 199.414 88.04 198.66 87.9337C198.015 87.8412 197.525 87.3476 197.093 86.8746C197.093 86.854 197.093 86.8335 197.11 86.8129L197.059 86.7547C196.627 87.8208 196.435 88.9686 196.497 90.1171C196.497 90.2953 196.51 90.4735 196.538 90.6518C196.538 90.7134 196.538 90.7751 196.555 90.8368C196.558 90.8882 196.558 90.9397 196.555 90.9911C196.557 91.0706 196.549 91.1501 196.531 91.2276C196.445 91.4602 196.311 91.6717 196.137 91.848C196.008 92.0069 195.893 92.1766 195.794 92.3552C195.794 92.2935 195.828 92.2318 195.849 92.1736C195.579 92.599 195.438 93.0926 195.441 93.596C195.43 93.9624 195.564 94.3183 195.814 94.5865C196.046 94.7965 196.297 94.9836 196.565 95.1452C196.495 95.6389 196.47 96.138 196.49 96.6362C196.552 98.1209 196.998 99.564 197.784 100.825C198.57 102.087 199.669 103.123 200.974 103.834L201.139 104.211C201.766 105.688 202.263 107.419 202.137 109.04C202.137 109.16 202.113 109.277 202.095 109.383C202.041 109.445 201.989 109.51 201.941 109.575C201.941 109.575 194.58 109.918 192.787 108.427C190.994 106.936 188.559 112.427 188.559 112.427C188.559 112.427 185.94 113.04 185.395 112.55C184.85 112.06 181.771 112.615 181.771 112.615C180.462 111.541 178.794 111.004 177.104 111.114C176.045 110.37 174.885 109.782 173.659 109.366L173.576 109.339C173.038 109.166 172.467 109.115 171.907 109.191C171.907 109.191 168.173 106.34 167.055 104.773C165.937 103.207 160.678 97.4451 160.654 97.4211L160.63 97.1298L160.541 96.266C160.392 96.294 160.242 96.3123 160.092 96.3209C160.062 96.2363 160.024 96.1369 159.978 96.0227C159.656 95.1929 159.268 94.3905 158.816 93.6234C158.816 93.6234 158.775 92.5266 159.084 92.2524C159.392 91.9782 158.785 87.968 158.785 87.968C158.785 87.968 155.23 80.4686 152.525 86.2748C152.525 86.2748 147.142 90.1719 151.945 94.2815C151.945 94.2815 153.831 95.1041 154.119 95.8033C154.308 96.2592 154.986 97.5171 155.442 98.3603L155.645 98.7373L155.593 98.7818L155.689 99.4948L155.727 99.7724C154.873 100.304 154.301 100.818 154.458 101.181C154.74 101.804 154.943 102.459 155.062 103.131C155.062 103.131 161.782 110.915 162.745 114.312C162.745 114.312 180.334 123.868 186.019 124.382L185.237 129.523C185.237 129.523 185.052 132.608 185.168 133.691C185.285 134.774 184.723 139.775 184.723 139.775C184.723 139.775 184.037 147.113 183.235 148.166C182.432 149.218 182.762 153.591 182.762 153.591C182.644 155.696 182.346 157.786 181.87 159.84C181.147 162.644 181.87 166.051 181.87 166.051C181.87 166.051 179.258 172.731 185.947 168.015C185.947 168.015 189.31 167.672 193.185 167.394C193.185 167.521 193.185 167.648 193.185 167.781C193.185 168.282 193.205 168.81 193.222 169.392C193.315 173.163 193.493 178.342 193.812 182.256C194.381 189.176 197.021 202.821 197.021 202.821L197.285 209.714C197.175 210.367 197.135 211.03 197.165 211.692C197.21 214.123 197.946 216.491 199.287 218.519L199.994 223.098C199.994 223.098 201.365 226.077 201.441 227.897C201.442 228.045 201.431 228.193 201.406 228.339C201.368 228.572 201.357 228.809 201.372 229.045C201.372 231.136 202.833 236.082 202.833 236.082C202.833 236.082 203.103 241.113 203.861 241.377C204.516 241.604 203.11 244.311 202.692 245.093C202.692 245.045 202.668 244.997 202.658 244.949L202.572 245.103C202.431 245.515 202.367 245.95 202.383 246.385C202.355 246.731 202.424 247.077 202.584 247.385C202.745 247.692 202.989 247.948 203.289 248.123C204.756 248.945 205.555 249.645 204.348 249.984C203.904 250.075 203.464 250.19 203.031 250.327L202.963 250.162C202.806 250.239 202.679 250.365 202.6 250.521C202.522 250.677 202.496 250.854 202.527 251.026C202.507 251.393 202.651 251.927 203.042 252.716C204.351 255.368 205.229 256.359 205.229 256.359L205.805 256.27C205.728 256.494 205.623 256.709 205.493 256.907C205.286 257.232 205.004 257.503 204.67 257.696C204.359 257.898 204.009 258.033 203.642 258.09C203.233 258.118 202.834 258.233 202.473 258.426C202.111 258.619 201.794 258.886 201.543 259.211C200.83 260.212 200.409 261.555 201.941 262.662L207.406 264.314C207.406 264.314 216.729 265.164 216.156 263.101C215.584 261.038 215.217 259.228 215.217 259.228C215.204 257.955 214.898 256.702 214.322 255.567C214.221 255.382 214.107 255.204 213.979 255.036L214.305 254.985C214.305 254.985 214.809 250.361 215.676 249.453C215.875 249.24 215.916 249.086 215.865 248.966C215.947 248.712 215.707 248.575 215.398 248.503C215.378 248.565 215.357 248.623 215.34 248.688C215.049 248.638 214.754 248.617 214.459 248.627C214.459 248.627 214.065 246.227 215.011 245.316C215.087 245.213 215.14 245.096 215.168 244.971C215.196 244.846 215.197 244.717 215.172 244.592C215.168 244.262 215.122 243.934 215.035 243.616C215.035 243.616 215.014 243.653 215.001 243.674C214.421 241.508 212.618 238.097 212.618 238.097C212.618 238.097 212.46 235.91 213.029 235.012C213.598 234.114 212.494 223.119 212.494 223.119C212.494 223.119 212.515 217.782 211.74 215.328C210.965 212.874 212.347 209.895 212.347 209.895C212.347 209.895 212.347 209.837 212.323 209.738C212.33 209.726 212.336 209.713 212.34 209.7C212.34 209.7 212.296 209.357 212.22 208.864C212.22 208.864 212.22 208.898 212.22 208.915C212.014 207.51 211.627 204.967 211.37 203.794C211.003 202.129 211.072 194.084 211.072 194.084L212.299 190.602L214.939 196.429L217.805 204.213C217.805 204.213 219.142 205.827 219.235 207.513C219.235 207.596 219.235 207.678 219.235 207.76C219.235 207.942 219.235 208.103 219.235 208.288C219.229 209.286 219.541 210.259 220.126 211.068C220.126 211.068 220.949 214.763 222.04 215.671C223.13 216.579 223.205 218.413 223.205 218.413C223.205 218.413 224.693 223.763 225.335 224.689C225.873 225.47 225.986 227.667 226.02 228.339C226.02 228.462 226.02 228.534 226.02 228.534C226.02 228.534 226.274 230.457 226.329 232.082C226.329 232.281 226.329 232.476 226.329 232.658C226.329 232.658 226.329 232.63 226.329 232.617C226.345 233.059 226.309 233.502 226.223 233.936C226.223 233.957 226.223 233.984 226.202 234.012C226.202 233.919 226.202 233.826 226.202 233.737C225.978 234.849 225.892 235.984 225.945 237.117C225.986 239.06 226.37 241.346 227.597 242.652C229.723 244.911 230.995 244.568 230.995 244.568C230.995 244.568 230.128 247.526 228.938 248.157C228.893 248.18 228.852 248.209 228.815 248.243C228.815 248.188 228.787 248.13 228.777 248.075C228.651 248.226 228.558 248.402 228.505 248.592C228.451 248.781 228.437 248.98 228.465 249.175C228.427 250.464 229.319 252.517 230.124 253.446C230.417 253.712 230.77 253.903 231.153 254.001C231.094 254.046 231.032 254.087 230.968 254.124C230.836 254.204 230.7 254.275 230.56 254.337C230.368 254.431 230.162 254.494 229.949 254.522C229.541 254.549 229.143 254.664 228.781 254.857C228.42 255.05 228.104 255.318 227.855 255.643C227.141 256.64 226.716 257.984 228.249 259.091L233.717 260.743C233.717 260.743 243.04 261.576 242.467 259.512Z" fill="url(#paint1_linear)"/>
<path d="M207.166 264.324L201.876 262.679C200.392 261.568 200.796 260.225 201.489 259.227C201.726 258.906 202.03 258.639 202.379 258.446C202.729 258.252 203.116 258.136 203.515 258.106C203.868 258.049 204.203 257.916 204.499 257.716C204.825 257.521 205.099 257.251 205.298 256.927C205.655 256.308 205.834 255.602 205.816 254.888C205.816 254.888 211.483 252.989 213.115 254.607C213.407 254.899 213.654 255.233 213.849 255.597C214.409 256.735 214.708 257.983 214.723 259.251C214.723 259.251 215.083 261.061 215.639 263.124C216.194 265.188 207.166 264.324 207.166 264.324Z" fill="#2D293D"/>
<path d="M232.631 260.77L227.337 259.111C225.852 258.001 226.26 256.657 226.95 255.66C227.186 255.338 227.49 255.071 227.84 254.879C228.19 254.686 228.577 254.571 228.976 254.542C229.181 254.514 229.381 254.451 229.566 254.357C229.703 254.297 229.836 254.227 229.963 254.148C231.393 253.288 231.276 251.321 231.276 251.321C231.276 251.321 236.944 249.422 238.579 251.039C238.798 251.258 238.991 251.501 239.155 251.763C240.205 253.425 240.184 255.694 240.184 255.694C240.184 255.694 240.547 257.507 241.099 259.567C241.651 261.627 232.631 260.77 232.631 260.77Z" fill="#2D293D"/>
<path opacity="0.1" d="M213.115 254.594C213.407 254.886 213.654 255.22 213.849 255.584L205.298 256.911C205.655 256.292 205.834 255.586 205.816 254.872C205.816 254.872 211.483 252.976 213.115 254.594Z" fill="black"/>
<path opacity="0.1" d="M239.145 251.763L239.207 253.37C237.959 255.622 231.475 255.389 229.555 254.357C229.693 254.297 229.826 254.227 229.953 254.148C231.383 253.288 231.266 251.321 231.266 251.321C231.266 251.321 236.934 249.422 238.569 251.039C238.787 251.258 238.981 251.501 239.145 251.763Z" fill="black"/>
<path d="M239.899 244.794C239.525 245.509 239.212 246.255 238.963 247.022L239.186 252.787C237.815 255.252 230.193 254.741 229.12 253.473C228.047 252.205 226.823 248.811 227.968 248.181C229.113 247.55 229.95 244.599 229.95 244.599C229.95 244.599 228.719 244.942 226.658 242.68C224.598 240.417 224.982 235.214 225.287 233.96C225.592 232.705 225.074 228.558 225.074 228.558C225.074 228.558 225.036 225.638 224.416 224.712C223.795 223.787 222.359 218.433 222.359 218.433C222.359 218.433 222.29 216.606 221.231 215.691C220.171 214.776 219.372 211.085 219.372 211.085C218.739 210.177 218.439 209.079 218.522 207.976C218.669 206.142 217.133 204.226 217.133 204.226L214.349 196.442L211.785 190.615L210.602 194.098C210.602 194.098 210.547 202.139 210.904 203.804C211.26 205.47 211.871 209.909 211.871 209.909C211.871 209.909 210.52 212.884 211.274 215.338C212.028 217.792 212.011 223.132 212.011 223.132C212.011 223.132 213.095 234.128 212.543 235.026C211.991 235.924 212.152 238.111 212.152 238.111C212.152 238.111 215.392 244.417 214.476 245.329C213.561 246.241 213.945 248.637 213.945 248.637C213.945 248.637 216.002 248.558 215.145 249.469C214.288 250.381 213.825 255.002 213.825 255.002L205.037 256.373C205.037 256.373 204.187 255.382 202.915 252.726C201.643 250.069 203.042 250.309 204.204 249.984C205.367 249.658 204.599 248.955 203.176 248.122C201.753 247.29 202.49 245.298 202.49 245.298C202.49 245.298 204.468 241.641 203.728 241.377C202.987 241.113 202.72 236.082 202.72 236.082C202.72 236.082 201.029 230.152 201.348 228.541C201.667 226.93 199.977 223.112 199.977 223.112L199.291 218.533C196.459 214.087 197.316 209.895 197.316 209.895L197.042 202.814C197.042 202.814 194.47 189.172 193.912 182.249C193.569 177.814 193.373 171.754 193.291 167.97C193.243 165.845 193.226 164.439 193.226 164.439L224.639 159.942C224.639 159.942 224.663 161.399 225.39 164.604C225.777 166.318 226.37 168.545 227.268 171.318C229.84 179.257 228.684 185.296 228.684 185.296L228.784 195.452C228.784 195.452 231.818 202.132 231.324 204.49C231.033 205.887 230.896 207.313 230.916 208.74C230.916 208.74 237.691 223.317 237.201 227.65C236.711 231.982 239.67 238.662 239.67 238.662C239.67 238.662 240.578 243.451 239.899 244.794Z" fill="#B3B3BC"/>
<path opacity="0.05" d="M220.404 207.465L229.956 205.816C229.956 205.816 224.745 211.575 220.404 207.465Z" fill="black"/>
<path opacity="0.1" d="M228.208 196.493C228.208 196.493 228.667 199.873 226.634 201.23C226.634 201.23 230.337 200.503 228.208 196.493Z" fill="black"/>
<path opacity="0.1" d="M227.203 185.714C227.203 185.714 219.431 192.627 216.492 192.192C213.554 191.757 227.203 185.714 227.203 185.714Z" fill="black"/>
<path opacity="0.1" d="M208.631 211.022C208.631 211.022 202.583 212.637 202.493 215.094C202.404 217.552 208.631 211.022 208.631 211.022Z" fill="black"/>
<path opacity="0.05" d="M211.137 241.404C211.137 241.404 202.586 243.341 205.072 244.342C207.557 245.343 211.61 246.055 211.61 246.055C211.61 246.055 214.387 246.103 211.137 241.404Z" fill="black"/>
<g opacity="0.05">
<path opacity="0.05" d="M203.398 246.145C203.178 246.017 202.988 245.842 202.844 245.631C202.7 245.421 202.605 245.181 202.565 244.929L202.483 245.086C202.483 245.086 201.753 247.088 203.169 247.911C203.333 248.003 203.484 248.096 203.632 248.188C203.882 248.13 204.16 248.085 204.42 248.007C205.593 247.671 204.821 246.968 203.398 246.145Z" fill="black"/>
<path opacity="0.05" d="M214.459 245.137C214.689 244.908 214.658 244.349 214.486 243.633C214.12 244.215 214.058 245.096 214.078 245.765C214.157 245.53 214.287 245.316 214.459 245.137Z" fill="black"/>
<path opacity="0.05" d="M211.75 208.867C211.466 209.742 211.305 210.652 211.271 211.572C211.411 210.931 211.611 210.304 211.867 209.7C211.867 209.7 211.822 209.388 211.75 208.867Z" fill="black"/>
<path opacity="0.05" d="M231.324 204.288C231.373 204.024 231.39 203.755 231.376 203.486C231.287 204.038 231.232 204.545 231.194 204.991C231.232 204.755 231.276 204.528 231.324 204.288Z" fill="black"/>
<path opacity="0.05" d="M212.543 234.831C212.652 234.65 212.697 234.043 212.697 233.203C212.453 233.861 212.337 234.559 212.354 235.26C212.399 235.11 212.463 234.966 212.543 234.831Z" fill="black"/>
<path opacity="0.05" d="M214.881 248.523C214.343 250.189 214.048 253.044 214.048 253.044L205.26 254.415C205.26 254.415 204.41 253.425 203.145 250.762C203.035 250.529 202.942 250.319 202.87 250.128C202.353 250.391 202.164 250.947 202.922 252.527C204.194 255.183 205.041 256.174 205.041 256.174L213.828 254.803C213.828 254.803 214.308 250.179 215.152 249.267C215.56 248.828 215.275 248.626 214.881 248.523Z" fill="black"/>
<path opacity="0.05" d="M202.713 235.866C202.713 235.866 202.98 240.901 203.721 241.165C204.064 240.315 204.273 239.516 203.94 239.4C203.2 239.136 202.932 234.101 202.932 234.101C202.932 234.101 201.242 228.174 201.561 226.56C201.88 224.946 200.189 221.131 200.189 221.131L199.504 216.555C196.702 212.13 197.563 207.932 197.563 207.932L197.289 200.854C197.289 200.854 194.717 187.212 194.158 180.288C193.815 175.857 193.62 169.793 193.538 166.009C193.538 165.324 193.51 164.721 193.5 164.21L193.25 164.244C193.25 164.244 193.25 165.65 193.311 167.775C193.397 171.545 193.575 177.618 193.935 182.05C194.494 188.974 197.066 202.615 197.066 202.615L197.316 209.69C197.316 209.69 196.455 213.889 199.257 218.313L199.942 222.893C199.942 222.893 201.626 226.701 201.314 228.318C201.002 229.936 202.713 235.866 202.713 235.866Z" fill="black"/>
<path opacity="0.05" d="M229.343 251.506C228.583 250.498 228.06 249.333 227.81 248.096C226.939 248.942 228.098 252.058 229.116 253.271C230.189 254.546 237.811 255.057 239.179 252.586L239.124 251.194C237.228 253.234 230.354 252.713 229.343 251.506Z" fill="black"/>
<path opacity="0.05" d="M240.119 242.834C239.744 243.549 239.431 244.294 239.183 245.062L239.22 246.09C239.371 245.71 239.591 245.203 239.906 244.599C240.115 244.017 240.2 243.397 240.156 242.779C240.136 242.8 240.129 242.817 240.119 242.834Z" fill="black"/>
<path opacity="0.05" d="M229.518 244.393C229.773 243.821 229.99 243.232 230.169 242.632C230.169 242.632 228.938 242.974 226.878 240.712C225.379 239.067 225.163 235.862 225.297 233.758C224.978 235.012 224.594 240.215 226.668 242.474C228.002 243.951 228.993 244.318 229.518 244.393Z" fill="black"/>
<path opacity="0.05" d="M225.088 228.356C225.27 229.789 225.374 231.23 225.4 232.675C225.427 232.444 225.468 232.215 225.523 231.989C225.842 230.735 225.311 226.591 225.311 226.591C225.311 226.591 225.273 223.667 224.652 222.742C224.032 221.816 222.595 216.462 222.595 216.462C222.595 216.462 222.527 214.639 221.467 213.72C220.408 212.802 219.602 209.124 219.602 209.124C218.967 208.218 218.666 207.119 218.752 206.015C218.899 204.182 217.38 202.269 217.38 202.269L214.572 194.471L212.008 188.645L210.825 192.141C210.825 192.141 210.825 192.572 210.825 193.251L211.785 190.423L214.349 196.25L217.137 204.038C217.137 204.038 218.673 205.954 218.508 207.784C218.424 208.888 218.724 209.988 219.358 210.896C219.358 210.896 220.161 214.591 221.217 215.503C222.273 216.414 222.348 218.245 222.348 218.245C222.348 218.245 223.795 223.598 224.405 224.524C225.016 225.449 225.088 228.356 225.088 228.356Z" fill="black"/>
</g>
<path d="M226.048 93.8488L225.602 96.536L225.681 97.7185L225.736 98.5925L222.705 99.0244L222.338 98.4075C221.652 97.2901 220.264 95.0176 219.828 94.6749C219.246 94.2259 217.956 86.8567 219.18 87.2474C219.927 87.5045 220.552 88.0281 220.936 88.7178C220.936 88.7178 226.946 89.1737 226.048 93.8488Z" fill="#FFCDD3"/>
<path opacity="0.1" d="M225.736 98.5931L222.705 99.025L222.338 98.4081C222.73 97.9251 223.277 97.5929 223.887 97.468C224.496 97.343 225.13 97.433 225.681 97.7225L225.736 98.5931Z" fill="black"/>
<path d="M226.562 100.008L222.582 101.091L222.472 100.498L222.184 98.8975C222.184 98.8975 223.692 96.7176 226.051 98.212L226.284 99.0243L226.562 100.008Z" fill="#DCE6F2"/>
<path d="M161.268 96.6319L157.071 99.0998C157.071 99.0998 156.893 98.757 156.649 98.3046C156.211 97.4648 155.552 96.2001 155.367 95.7477C155.086 95.0621 153.262 94.219 153.262 94.219C148.609 90.1059 153.814 86.2157 153.814 86.2157C156.423 80.4129 159.876 87.9295 159.876 87.9295C159.876 87.9295 160.465 91.9294 160.167 92.2139C159.869 92.4984 159.91 93.5849 159.91 93.5849C160.352 94.3522 160.729 95.1547 161.038 95.9842C161.189 96.3852 161.268 96.6319 161.268 96.6319Z" fill="#FFCDD3"/>
<path opacity="0.1" d="M161.268 96.6322L157.071 99.1C157.071 99.1 156.893 98.7573 156.649 98.3048C157.236 97.777 159.313 95.9536 160.023 96.005C160.365 96.0374 160.71 96.0374 161.052 96.005C161.189 96.3854 161.268 96.6322 161.268 96.6322Z" fill="black"/>
<path d="M161.755 97.9143L157.03 100.471L156.893 99.443L156.797 98.7301C156.797 98.7301 159.499 96.2314 160.325 96.2897C160.745 96.3328 161.168 96.3155 161.583 96.2383L161.672 97.1054L161.755 97.9143Z" fill="#DCE6F2"/>
<path d="M215.049 111.998C215.049 111.998 194.134 115.175 198.009 113.749C200.707 112.755 201.729 110.976 201.88 109.04C202.003 107.419 201.537 105.688 200.913 104.21C200.365 102.904 199.686 101.657 198.886 100.488C198.886 100.488 214.607 91.0384 211.716 99.1857C211.266 100.419 211.008 101.713 210.952 103.025C210.902 104.326 211.092 105.626 211.511 106.86C212.193 108.866 213.417 110.645 215.049 111.998Z" fill="#FFCDD3"/>
<path opacity="0.1" d="M211.716 99.1854C211.266 100.418 211.008 101.713 210.952 103.024C209.488 104.354 207.825 104.334 205.696 104.416C204.057 104.478 202.267 104.944 200.923 104.207C200.375 102.901 199.697 101.653 198.897 100.484C198.897 100.484 214.607 91.0382 211.716 99.1854Z" fill="black"/>
<path d="M205.085 104.992C209.887 104.992 213.78 101.1 213.78 96.2996C213.78 91.4991 209.887 87.6074 205.085 87.6074C200.283 87.6074 196.39 91.4991 196.39 96.2996C196.39 101.1 200.283 104.992 205.085 104.992Z" fill="#FFCDD3"/>
<path opacity="0.1" d="M215.049 111.998C215.049 111.998 194.134 115.176 198.009 113.75C200.707 112.756 201.729 110.977 201.88 109.04C202.884 107.868 204.965 106.984 206.285 106.483C207.502 106.023 208.831 105.95 210.091 106.274C210.587 106.401 211.062 106.6 211.5 106.864C212.186 108.87 213.414 110.648 215.049 111.998Z" fill="black"/>
<path opacity="0.1" d="M226.562 100.008L222.581 101.092L222.472 100.499C222.879 99.8913 223.463 99.4242 224.146 99.1611C224.828 98.8979 225.575 98.8515 226.284 99.0281L226.562 100.008Z" fill="black"/>
<path opacity="0.1" d="M161.755 97.9144L157.03 100.471L156.893 99.443C158.576 98.3599 161.425 97.2049 161.672 97.1055L161.755 97.9144Z" fill="black"/>
<path opacity="0.1" d="M225.396 164.6C217.312 166.197 205.795 168.315 203.937 167.825C202.394 167.421 197.529 167.657 193.308 167.966C193.26 165.841 193.243 164.435 193.243 164.435L224.656 159.938C224.656 159.938 224.67 161.395 225.396 164.6Z" fill="black"/>
<path d="M233.44 162.379C233.44 162.379 206.824 168.007 203.913 167.243C201.002 166.478 186.279 167.993 186.279 167.993C179.806 172.699 182.33 166.026 182.33 166.026C182.33 166.026 181.613 162.619 182.309 159.815C182.767 157.761 183.054 155.672 183.166 153.57C183.166 153.57 182.851 149.197 183.615 148.145C184.38 147.092 185.045 139.757 185.045 139.757C185.045 139.757 185.583 134.763 185.47 133.673C185.357 132.584 185.528 129.506 185.528 129.506L186.279 124.364C180.794 123.843 163.74 114.267 163.74 114.267C162.804 110.867 156.289 103.079 156.289 103.079C156.175 102.408 155.978 101.753 155.703 101.129C155.22 99.9774 161.7 97.3896 161.7 97.3896C161.7 97.3896 166.822 103.186 167.905 104.752C168.989 106.318 172.609 109.174 172.609 109.174C173.152 109.101 173.704 109.152 174.224 109.324C174.254 109.33 174.282 109.338 174.31 109.348C175.503 109.768 176.629 110.358 177.653 111.1C180.272 110.853 182.168 112.608 182.168 112.608C182.168 112.608 185.144 112.056 185.676 112.546C186.207 113.036 188.741 112.43 188.741 112.43C188.741 112.43 191.09 106.928 192.828 108.433C194.566 109.938 201.691 109.592 201.691 109.592C202.593 108.293 204.866 107.299 206.292 106.778C207.509 106.317 208.838 106.244 210.098 106.569C210.644 106.708 211.163 106.94 211.63 107.254L216.115 111.319C216.115 111.319 217.294 109.667 217.144 109.307C216.993 108.947 218.58 108.594 218.58 108.594C218.58 108.594 220.672 107.854 221.467 107.607C222.263 107.36 223.031 108.197 223.096 108.272C223.068 108.18 222.451 106.435 222.612 105.078C222.773 103.72 221.635 102.483 221.635 102.483C223.949 96.1077 229.919 101.143 229.919 101.143C229.919 101.143 230.707 104.546 230.172 105.883C229.637 107.22 230.913 109.948 230.796 110.682C230.68 111.415 231.163 112.642 231.218 114.027C231.273 115.412 230.635 118.037 230.231 119.233C229.826 120.43 226.459 123.178 226.459 123.178C226.459 123.178 226.401 127.346 224.961 129.811C223.521 132.275 224.786 140.491 224.786 140.491C224.786 140.491 226.5 146.856 228.396 148.83C230.292 150.804 233.44 162.379 233.44 162.379Z" fill="#6E6C79"/>
<path opacity="0.1" d="M192.533 115.861C192.533 115.861 191.638 113.482 190.898 113.294C190.162 113.053 189.442 112.763 188.745 112.426L189.18 111.508C189.18 111.508 191.954 112.156 192.42 112.941C192.886 113.725 192.533 115.861 192.533 115.861Z" fill="black"/>
<path opacity="0.1" d="M177.656 111.096C177.536 111.833 171.067 112.738 171.067 112.738L174.224 109.311L174.307 109.338C175.502 109.76 176.63 110.352 177.656 111.096Z" fill="black"/>
<path d="M158.47 102.387C158.792 102.387 159.053 102.126 159.053 101.804C159.053 101.483 158.792 101.222 158.47 101.222C158.148 101.222 157.887 101.483 157.887 101.804C157.887 102.126 158.148 102.387 158.47 102.387Z" fill="#575988"/>
<path d="M159.262 103.525C159.584 103.525 159.845 103.264 159.845 102.942C159.845 102.62 159.584 102.359 159.262 102.359C158.94 102.359 158.679 102.62 158.679 102.942C158.679 103.264 158.94 103.525 159.262 103.525Z" fill="#575988"/>
<path d="M160.033 104.574C160.355 104.574 160.616 104.313 160.616 103.991C160.616 103.669 160.355 103.408 160.033 103.408C159.711 103.408 159.45 103.669 159.45 103.991C159.45 104.313 159.711 104.574 160.033 104.574Z" fill="#575988"/>
<path d="M160.846 105.712C161.168 105.712 161.429 105.451 161.429 105.13C161.429 104.808 161.168 104.547 160.846 104.547C160.524 104.547 160.263 104.808 160.263 105.13C160.263 105.451 160.524 105.712 160.846 105.712Z" fill="#575988"/>
<path d="M229.658 102.894C229.921 102.894 230.135 102.681 230.135 102.418C230.135 102.155 229.921 101.941 229.658 101.941C229.395 101.941 229.182 102.155 229.182 102.418C229.182 102.681 229.395 102.894 229.658 102.894Z" fill="#575988"/>
<path d="M229.771 103.967C230.034 103.967 230.248 103.754 230.248 103.491C230.248 103.228 230.034 103.015 229.771 103.015C229.508 103.015 229.295 103.228 229.295 103.491C229.295 103.754 229.508 103.967 229.771 103.967Z" fill="#575988"/>
<path d="M229.877 105.04C230.141 105.04 230.354 104.826 230.354 104.563C230.354 104.3 230.141 104.087 229.877 104.087C229.614 104.087 229.401 104.3 229.401 104.563C229.401 104.826 229.614 105.04 229.877 105.04Z" fill="#575988"/>
<path opacity="0.1" d="M193.332 135.638C193.26 135.552 210.516 155.696 222.818 143.199C222.832 143.199 202.75 146.712 193.332 135.638Z" fill="black"/>
<path opacity="0.1" d="M184.287 146.801C184.287 146.801 194.145 146.692 195.283 149.482L195.396 152.429C195.122 152.597 194.81 152.691 194.49 152.704C194.169 152.716 193.851 152.647 193.565 152.501C192.537 152.001 186.482 149.207 184.438 150.743L184.287 146.801Z" fill="black"/>
<path d="M184.476 146.795C184.476 146.795 193.905 146.688 194.992 149.351L195.101 152.159C194.839 152.318 194.541 152.408 194.234 152.42C193.928 152.432 193.623 152.365 193.349 152.227C192.379 151.754 186.574 149.088 184.62 150.555L184.476 146.795Z" fill="#656691"/>
<path opacity="0.1" d="M188.844 125.235C189.941 127.523 191.309 129.672 192.917 131.635C194.669 133.808 196.764 135.681 199.119 137.18C199.119 137.18 189.063 126.565 188.844 125.235Z" fill="black"/>
<path opacity="0.1" d="M185.182 113.903C185.182 113.903 187.099 120.93 191.426 123.175L185.182 113.903Z" fill="black"/>
<path opacity="0.1" d="M182.693 114.716C182.645 114.586 181.449 120.378 188.487 123.285C188.487 123.288 185.511 122.404 182.693 114.716Z" fill="black"/>
<path opacity="0.1" d="M225.51 108.306C225.4 108.306 229.01 110.418 230.004 111.422C230.004 111.422 227.584 108.097 225.51 108.306Z" fill="black"/>
<path d="M203.042 104.265C203.182 104.707 203.354 105.19 203.765 105.41C204.025 105.526 204.308 105.577 204.592 105.561C207.245 105.626 210.005 105.636 212.416 104.532C212.867 104.353 213.268 104.064 213.581 103.693C213.996 103.144 214.051 102.418 214.202 101.746C214.493 100.436 215.183 99.2505 215.663 97.996C216.47 95.8745 216.679 93.5719 216.266 91.3398C216.172 90.6536 215.92 89.9988 215.529 89.4272C214.788 88.4504 213.492 88.0939 212.532 87.333C211.572 86.5721 210.928 85.3725 209.82 84.8138C208.822 84.3099 207.629 84.4196 206.536 84.6492C204.381 85.1026 202.334 85.9648 200.505 87.189C199.891 87.5969 199.219 88.0699 198.489 87.9602C197.847 87.8677 197.367 87.3501 196.939 86.8669C196.468 88.0775 196.295 89.3835 196.435 90.6748C196.467 90.8643 196.467 91.0578 196.435 91.2472C196.353 91.4774 196.223 91.6876 196.054 91.8642C195.43 92.6491 195.067 93.8624 195.742 94.6062C196.037 94.9284 196.476 95.0929 196.771 95.422C197.285 96.0149 197.155 96.8992 197.172 97.6807C197.154 97.9527 197.233 98.2222 197.395 98.4416C197.541 98.5672 197.718 98.653 197.907 98.6908C198.096 98.7286 198.291 98.7172 198.475 98.6575C198.84 98.5309 199.227 98.4784 199.613 98.5033C200.029 98.6203 200.393 98.8768 200.642 99.2299C201.914 100.721 202.459 102.411 203.042 104.265Z" fill="#2D293D"/>
<g opacity="0.1">
<path opacity="0.1" d="M213.845 103.004C213.533 103.374 213.134 103.662 212.683 103.84C210.283 104.954 207.513 104.944 204.856 104.868C204.572 104.883 204.289 104.831 204.029 104.718C203.621 104.498 203.446 104.012 203.306 103.569C202.723 101.719 202.178 100.025 200.906 98.5172C200.655 98.1664 200.292 97.9114 199.877 97.794C199.492 97.7695 199.105 97.8208 198.739 97.9448C198.555 98.0049 198.359 98.0169 198.17 97.9797C197.98 97.9425 197.803 97.8573 197.655 97.7323C197.495 97.5108 197.417 97.2408 197.433 96.968C197.415 96.1865 197.546 95.3022 197.035 94.7127C196.747 94.3699 196.308 94.2191 196.006 93.8935C195.815 93.652 195.693 93.3635 195.652 93.0583C195.611 92.7531 195.653 92.4425 195.773 92.1592C195.338 92.9132 195.173 93.8729 195.739 94.4899C196.03 94.8121 196.473 94.9766 196.767 95.3091C197.282 95.8986 197.151 96.7829 197.169 97.5644C197.151 97.8364 197.23 98.1059 197.391 98.3253C197.538 98.4509 197.714 98.5367 197.903 98.5745C198.092 98.6123 198.288 98.6009 198.471 98.5412C198.837 98.4162 199.224 98.3639 199.61 98.387C200.026 98.504 200.389 98.7605 200.638 99.1136C201.924 100.622 202.466 102.312 203.038 104.166C203.179 104.608 203.35 105.091 203.762 105.314C204.022 105.428 204.305 105.48 204.588 105.465C207.242 105.527 210.002 105.537 212.412 104.437C212.863 104.257 213.263 103.97 213.578 103.6C213.731 103.381 213.847 103.138 213.921 102.88C213.9 102.922 213.876 102.956 213.845 103.004Z" fill="black"/>
<path opacity="0.1" d="M196.455 90.9977C196.568 90.867 196.652 90.714 196.702 90.5486C196.737 90.3605 196.737 90.1678 196.702 89.9797C196.587 88.919 196.684 87.8459 196.987 86.8229L196.935 86.7646C196.465 87.9753 196.292 89.2813 196.431 90.5726C196.453 90.7132 196.461 90.8555 196.455 90.9977Z" fill="black"/>
</g>
<path opacity="0.1" d="M201.694 109.588C201.694 109.588 212.601 110.616 213.516 108.94L201.694 109.588Z" fill="black"/>
<path opacity="0.1" d="M222.619 104.286C222.619 104.286 228.65 104.063 230.063 106.27L222.619 104.286Z" fill="black"/>
<path d="M354.487 218.807C354.487 218.807 356.52 221.463 353.547 225.477C350.575 229.49 348.127 232.877 349.118 235.379C349.118 235.379 353.602 227.927 357.25 227.821C360.898 227.715 358.502 223.283 354.487 218.807Z" fill="#006BBB"/>
<path opacity="0.1" d="M354.487 218.807C354.665 219.062 354.805 219.343 354.902 219.64C358.464 223.821 360.36 227.725 356.938 227.821C353.75 227.914 349.923 233.614 349.008 235.05C349.038 235.166 349.075 235.28 349.118 235.392C349.118 235.392 353.602 227.941 357.25 227.835C360.898 227.729 358.502 223.283 354.487 218.807Z" fill="black"/>
<path d="M358.269 222.19C358.269 223.125 358.162 223.883 358.032 223.883C357.902 223.883 357.799 223.125 357.799 222.19C357.799 221.254 357.929 221.696 358.059 221.696C358.19 221.696 358.269 221.254 358.269 222.19Z" fill="#FFD037"/>
<path d="M359.564 223.307C358.741 223.752 358.025 224.023 357.963 223.91C357.902 223.797 358.519 223.341 359.335 222.882C360.151 222.423 359.832 222.758 359.897 222.882C359.962 223.005 360.384 222.858 359.564 223.307Z" fill="#FFD037"/>
<path d="M343.748 218.807C343.748 218.807 341.715 221.463 344.684 225.477C347.654 229.49 350.108 232.877 349.118 235.379C349.118 235.379 344.633 227.927 340.985 227.821C337.337 227.715 339.733 223.283 343.748 218.807Z" fill="#006BBB"/>
<path opacity="0.1" d="M343.748 218.807C343.57 219.062 343.43 219.343 343.333 219.64C339.771 223.821 337.875 227.725 341.297 227.821C344.485 227.914 348.308 233.614 349.227 235.05C349.197 235.166 349.16 235.28 349.118 235.392C349.118 235.392 344.633 227.941 340.985 227.835C337.337 227.729 339.733 223.283 343.748 218.807Z" fill="black"/>
<path d="M339.967 222.19C339.967 223.125 340.073 223.883 340.203 223.883C340.333 223.883 340.436 223.125 340.436 222.19C340.436 221.254 340.306 221.696 340.176 221.696C340.045 221.696 339.967 221.254 339.967 222.19Z" fill="#FFD037"/>
<path d="M338.671 223.307C339.493 223.752 340.21 224.023 340.272 223.91C340.333 223.797 339.716 223.341 338.9 222.882C338.084 222.423 338.4 222.758 338.338 222.882C338.276 223.005 337.848 222.858 338.671 223.307Z" fill="#FFD037"/>
<path opacity="0.1" d="M349.114 255.708C360.854 255.708 370.371 254.248 370.371 252.448C370.371 250.648 360.854 249.188 349.114 249.188C337.374 249.188 327.857 250.648 327.857 252.448C327.857 254.248 337.374 255.708 349.114 255.708Z" fill="#006BBB"/>
<path d="M360.058 231.794L359.955 232.623L359.815 233.795L359.756 234.285L359.612 235.458L359.551 235.948L359.407 237.116L357.782 250.45C357.634 251.639 355.69 252.568 353.345 252.568H344.89C342.542 252.568 340.601 251.639 340.457 250.45L338.825 237.116L338.684 235.948L338.626 235.458L338.479 234.285L338.42 233.795L338.276 232.623L338.177 231.794C338.095 231.108 339.147 230.553 340.474 230.553H357.775C359.088 230.553 360.144 231.118 360.058 231.794Z" fill="#65617D"/>
<path d="M359.955 232.623L359.811 233.795H338.417L338.276 232.623H359.955Z" fill="#9D9CB5"/>
<path d="M359.753 234.282L359.612 235.458H338.623L338.479 234.282H359.753Z" fill="#9D9CB5"/>
<path d="M359.547 235.944L359.407 237.117H338.825L338.681 235.944H359.547Z" fill="#9D9CB5"/>
</g>
<defs>
<linearGradient id="paint0_linear" x1="209.083" y1="231.029" x2="209.083" y2="46.5146" gradientUnits="userSpaceOnUse">
<stop stop-color="#808080" stop-opacity="0.25"/>
<stop offset="0.54" stop-color="#808080" stop-opacity="0.12"/>
<stop offset="1" stop-color="#808080" stop-opacity="0.1"/>
</linearGradient>
<linearGradient id="paint1_linear" x1="64039.3" y1="144812" x2="60352.9" y2="48823.3" gradientUnits="userSpaceOnUse">
<stop stop-color="#808080" stop-opacity="0.25"/>
<stop offset="0.54" stop-color="#808080" stop-opacity="0.12"/>
<stop offset="1" stop-color="#808080" stop-opacity="0.1"/>
</linearGradient>
<clipPath id="clip0">
<rect width="372" height="282" fill="white"/>
</clipPath>
</defs>
</svg>
