<svg width="73" height="114" viewBox="0 0 73 114" fill="none" xmlns="http://www.w3.org/2000/svg">
<path d="M27.5 79.65V73.95C27.5 71.55 27.65 69.4 27.95 67.5C28.35 65.6 28.9 63.8 29.6 62.1C30.4 60.4 31.4 58.75 32.6 57.15C33.9 55.55 35.5 53.85 37.4 52.05L44.15 45.6C46.05 43.9 47.65 42 48.95 39.9C50.35 37.8 51.05 35.25 51.05 32.25C51.05 28.35 49.8 25.1 47.3 22.5C44.9 19.8 41.45 18.45 36.95 18.45C34.65 18.45 32.55 18.9 30.65 19.8C28.85 20.6 27.25 21.75 25.85 23.25C24.55 24.65 23.55 26.3 22.85 28.2C22.15 30.1 21.75 32.05 21.65 34.05L3.2 32.4C3.8 27.6 5.05 23.35 6.95 19.65C8.95 15.85 11.5 12.65 14.6 10.05C17.7 7.44999 21.25 5.49999 25.25 4.2C29.25 2.8 33.55 2.1 38.15 2.1C42.45 2.1 46.5 2.75 50.3 4.04999C54.2 5.24999 57.6 7.09999 60.5 9.59999C63.5 12 65.85 15 67.55 18.6C69.25 22.2 70.1 26.35 70.1 31.05C70.1 34.25 69.75 37.05 69.05 39.45C68.35 41.85 67.35 44.05 66.05 46.05C64.75 48.05 63.15 50 61.25 51.9C59.45 53.7 57.4 55.6 55.1 57.6C53.1 59.3 51.45 60.8 50.15 62.1C48.95 63.4 47.95 64.7 47.15 66C46.45 67.3 45.95 68.7 45.65 70.2C45.35 71.7 45.2 73.55 45.2 75.75V79.65H27.5ZM24.5 100.5C24.5 97.3 25.65 94.55 27.95 92.25C30.35 89.95 33.2 88.8 36.5 88.8C39.7 88.8 42.5 89.9 44.9 92.1C47.3 94.3 48.5 97 48.5 100.2C48.5 103.4 47.3 106.15 44.9 108.45C42.6 110.75 39.8 111.9 36.5 111.9C34.9 111.9 33.35 111.6 31.85 111C30.45 110.4 29.2 109.6 28.1 108.6C27 107.6 26.1 106.4 25.4 105C24.8 103.6 24.5 102.1 24.5 100.5Z" fill="#006BBB" fill-opacity="0.4"/>
<path d="M27.5 79.65H25.5V81.65H27.5V79.65ZM27.95 67.5L25.9929 67.088L25.9824 67.1378L25.9745 67.1881L27.95 67.5ZM29.6 62.1L27.7904 61.2484L27.7694 61.293L27.7506 61.3385L29.6 62.1ZM32.6 57.15L31.0478 55.8888L31.0233 55.9189L31 55.95L32.6 57.15ZM37.4 52.05L38.7755 53.5019L38.7817 53.496L37.4 52.05ZM44.15 45.6L42.8164 44.1095L42.792 44.1314L42.7683 44.154L44.15 45.6ZM48.95 39.9L47.2859 38.7906L47.2672 38.8186L47.2495 38.8473L48.95 39.9ZM47.3 22.5L45.8052 23.8287L45.8312 23.858L45.8583 23.8862L47.3 22.5ZM30.65 19.8L31.4623 21.6276L31.4843 21.6178L31.5062 21.6075L30.65 19.8ZM25.85 23.25L24.3879 21.8854L24.3844 21.8891L25.85 23.25ZM21.65 34.05L21.4718 36.042L23.5436 36.2273L23.6475 34.1499L21.65 34.05ZM3.2 32.4L1.21544 32.1519L0.958495 34.2075L3.02185 34.392L3.2 32.4ZM6.95 19.65L5.18016 18.7185L5.17547 18.7274L5.17087 18.7364L6.95 19.65ZM14.6 10.05L15.8852 11.5824L14.6 10.05ZM25.25 4.2L25.8682 6.10207L25.8895 6.09513L25.9107 6.08772L25.25 4.2ZM50.3 4.04999L49.6526 5.94232L49.6821 5.9524L49.7118 5.96155L50.3 4.04999ZM60.5 9.59999L59.1941 11.1148L59.2219 11.1388L59.2506 11.1617L60.5 9.59999ZM67.55 18.6L69.3585 17.746L69.3585 17.746L67.55 18.6ZM66.05 46.05L64.3731 44.96V44.96L66.05 46.05ZM55.1 57.6L56.3953 59.1239L56.4039 59.1166L56.4124 59.1092L55.1 57.6ZM50.15 62.1L48.7358 60.6858L48.7075 60.7141L48.6804 60.7434L50.15 62.1ZM47.15 66L45.4467 64.9518L45.4164 65.001L45.3891 65.0518L47.15 66ZM45.65 70.2L47.6112 70.5922H47.6112L45.65 70.2ZM45.2 79.65V81.65H47.2V79.65H45.2ZM27.95 92.25L26.5662 90.806L26.5508 90.8207L26.5358 90.8358L27.95 92.25ZM44.9 92.1L43.5485 93.5743H43.5486L44.9 92.1ZM44.9 108.45L43.5162 107.006L43.5008 107.021L43.4858 107.036L44.9 108.45ZM31.85 111L31.0622 112.838L31.0846 112.848L31.1072 112.857L31.85 111ZM28.1 108.6L29.4453 107.12L28.1 108.6ZM25.4 105L23.5617 105.788L23.5849 105.842L23.6111 105.894L25.4 105ZM29.5 79.65V73.95H25.5V79.65H29.5ZM29.5 73.95C29.5 71.6301 29.6452 69.5872 29.9255 67.8119L25.9745 67.1881C25.6548 69.2128 25.5 71.4699 25.5 73.95H29.5ZM29.9071 67.912C30.2833 66.1249 30.7984 64.4424 31.4494 62.8615L27.7506 61.3385C27.0016 63.1576 26.4167 65.0751 25.9929 67.088L29.9071 67.912ZM31.4096 62.9516C32.1482 61.3822 33.0763 59.8482 34.2 58.35L31 55.95C29.7237 57.6518 28.6518 59.4178 27.7904 61.2484L31.4096 62.9516ZM34.1522 58.4112C35.3853 56.8936 36.9226 55.2573 38.7755 53.5019L36.0245 50.5981C34.0774 52.4427 32.4147 54.2064 31.0478 55.8888L34.1522 58.4112ZM38.7817 53.496L45.5317 47.046L42.7683 44.154L36.0183 50.604L38.7817 53.496ZM45.4836 47.0905C47.5216 45.267 49.2466 43.2206 50.6505 40.9527L47.2495 38.8473C46.0534 40.7794 44.5784 42.533 42.8164 44.1095L45.4836 47.0905ZM50.6141 41.0094C52.2717 38.523 53.05 35.569 53.05 32.25H49.05C49.05 34.931 48.4283 37.077 47.2859 38.7906L50.6141 41.0094ZM53.05 32.25C53.05 27.8792 51.6306 24.1183 48.7417 21.1138L45.8583 23.8862C47.9694 26.0817 49.05 28.8208 49.05 32.25H53.05ZM48.7948 21.1713C45.9252 17.9429 41.87 16.45 36.95 16.45V20.45C41.03 20.45 43.8748 21.657 45.8052 23.8287L48.7948 21.1713ZM36.95 16.45C34.3821 16.45 31.9858 16.9542 29.7938 17.9925L31.5062 21.6075C33.1142 20.8458 34.9179 20.45 36.95 20.45V16.45ZM29.8377 17.9724C27.782 18.886 25.9634 20.1973 24.3879 21.8854L27.3121 24.6146C28.5366 23.3027 29.918 22.314 31.4623 21.6276L29.8377 17.9724ZM24.3844 21.8891C22.8939 23.4943 21.7592 25.3755 20.9733 27.5086L24.7267 28.8914C25.3408 27.2245 26.2062 25.8057 27.3156 24.6109L24.3844 21.8891ZM20.9733 27.5086C20.2041 29.5964 19.7627 31.7457 19.6525 33.9501L23.6475 34.1499C23.7373 32.3543 24.0959 30.6036 24.7267 28.8914L20.9733 27.5086ZM21.8282 32.0579L3.37815 30.4079L3.02185 34.392L21.4718 36.042L21.8282 32.0579ZM5.18456 32.6481C5.76018 28.0431 6.95187 24.0246 8.72913 20.5636L5.17087 18.7364C3.14813 22.6754 1.83982 27.1569 1.21544 32.1519L5.18456 32.6481ZM8.71984 20.5815C10.6064 16.9971 12.9963 14.0054 15.8852 11.5824L13.3148 8.51761C10.0037 11.2946 7.29363 14.7029 5.18016 18.7185L8.71984 20.5815ZM15.8852 11.5824C18.7809 9.15376 22.1024 7.32595 25.8682 6.10207L24.6318 2.29793C20.3976 3.67403 16.6191 5.74623 13.3148 8.51761L15.8852 11.5824ZM25.9107 6.08772C29.6809 4.76813 33.7558 4.1 38.15 4.1V0.0999985C33.3442 0.0999985 28.8191 0.831863 24.5893 2.31228L25.9107 6.08772ZM38.15 4.1C42.2454 4.1 46.0753 4.7185 49.6526 5.94232L50.9474 2.15766C46.9247 0.781494 42.6546 0.0999985 38.15 0.0999985V4.1ZM49.7118 5.96155C53.3654 7.08572 56.5169 8.80688 59.1941 11.1148L61.8059 8.08517C58.6831 5.39311 55.0346 3.41426 50.8882 2.13843L49.7118 5.96155ZM59.2506 11.1617C62.0041 13.3645 64.1667 16.1191 65.7415 19.454L69.3585 17.746C67.5333 13.8809 64.9959 10.6355 61.7494 8.03825L59.2506 11.1617ZM65.7415 19.454C67.2946 22.743 68.1 26.5925 68.1 31.05H72.1C72.1 26.1075 71.2054 21.657 69.3585 17.746L65.7415 19.454ZM68.1 31.05C68.1 34.1106 67.7645 36.7145 67.13 38.89L70.97 40.01C71.7355 37.3855 72.1 34.3894 72.1 31.05H68.1ZM67.13 38.89C66.4821 41.1115 65.5616 43.1316 64.3731 44.96L67.7269 47.14C69.1384 44.9684 70.2179 42.5885 70.97 40.01L67.13 38.89ZM64.3731 44.96C63.158 46.8295 61.6493 48.6722 59.8358 50.4858L62.6642 53.3142C64.6507 51.3278 66.342 49.2705 67.7269 47.14L64.3731 44.96ZM59.8358 50.4858C58.0743 52.2473 56.0592 54.1155 53.7876 56.0908L56.4124 59.1092C58.7408 57.0845 60.8257 55.1527 62.6642 53.3142L59.8358 50.4858ZM53.8047 56.0761C51.7794 57.7976 50.0862 59.3354 48.7358 60.6858L51.5642 63.5142C52.8138 62.2646 54.4206 60.8024 56.3953 59.1239L53.8047 56.0761ZM48.6804 60.7434C47.4062 62.1238 46.3241 63.526 45.4467 64.9518L48.8533 67.0482C49.5759 65.874 50.4938 64.6762 51.6196 63.4566L48.6804 60.7434ZM45.3891 65.0518C44.5918 66.5324 44.0263 68.1206 43.6888 69.8078L47.6112 70.5922C47.8737 69.2794 48.3082 68.0676 48.9109 66.9482L45.3891 65.0518ZM43.6888 69.8078C43.3545 71.4795 43.2 73.4703 43.2 75.75H47.2C47.2 73.6297 47.3455 71.9205 47.6112 70.5922L43.6888 69.8078ZM43.2 75.75V79.65H47.2V75.75H43.2ZM45.2 77.65H27.5V81.65H45.2V77.65ZM26.5 100.5C26.5 97.8401 27.4324 95.5961 29.3642 93.6642L26.5358 90.8358C23.8676 93.5039 22.5 96.7598 22.5 100.5H26.5ZM29.3338 93.694C31.3645 91.7479 33.7199 90.8 36.5 90.8V86.8C32.6801 86.8 29.3355 88.1521 26.5662 90.806L29.3338 93.694ZM36.5 90.8C39.19 90.8 41.5103 91.7059 43.5485 93.5743L46.2514 90.6257C43.4897 88.0941 40.21 86.8 36.5 86.8V90.8ZM43.5486 93.5743C45.5435 95.403 46.5 97.5716 46.5 100.2H50.5C50.5 96.4284 49.0565 93.197 46.2514 90.6257L43.5486 93.5743ZM46.5 100.2C46.5 102.831 45.5397 105.067 43.5162 107.006L46.2838 109.894C49.0603 107.233 50.5 103.969 50.5 100.2H46.5ZM43.4858 107.036C41.5669 108.955 39.2782 109.9 36.5 109.9V113.9C40.3218 113.9 43.6331 112.545 46.3142 109.864L43.4858 107.036ZM36.5 109.9C35.157 109.9 33.8589 109.649 32.5928 109.143L31.1072 112.857C32.8411 113.551 34.643 113.9 36.5 113.9V109.9ZM32.6378 109.162C31.4372 108.647 30.3767 107.967 29.4453 107.12L26.7547 110.08C28.0233 111.233 29.4628 112.153 31.0622 112.838L32.6378 109.162ZM29.4453 107.12C28.5376 106.295 27.7843 105.297 27.1889 104.106L23.6111 105.894C24.4157 107.503 25.4624 108.905 26.7547 110.08L29.4453 107.12ZM27.2383 104.212C26.7503 103.074 26.5 101.843 26.5 100.5H22.5C22.5 102.357 22.8497 104.126 23.5617 105.788L27.2383 104.212Z" fill="#006BBB"/>
</svg>
