<svg width="393" height="288" viewBox="0 0 393 288" fill="none" xmlns="http://www.w3.org/2000/svg">
<g clip-path="url(#clip0)">
<path opacity="0.2" d="M52.0093 145.911C46.8406 147.471 42.0028 151.248 40.7116 156.487C39.2348 162.509 42.6403 168.579 43.1325 174.763C44.7223 195.021 15.8727 209.313 19.9883 229.213C21.6224 237.125 28.2276 242.945 34.7359 247.754C45.1621 255.432 56.7302 262.216 69.541 264.131C88.9852 267.041 109.301 258.488 128.201 263.893C143.444 268.254 155.109 281.035 170.248 285.751C181.772 289.343 194.187 287.928 206.159 286.473C212.615 285.691 219.377 284.788 224.586 280.918C234.27 273.716 234.879 259.491 241.364 249.298C251.378 233.578 273.336 230.491 291.747 233.546C310.159 236.601 328.037 244.122 346.691 243.51C350.677 243.377 354.761 242.837 358.239 240.882C362.467 238.508 365.324 234.324 367.85 230.184C383.636 204.214 392.302 174.55 392.975 144.174C393.084 138.954 392.899 133.509 390.441 128.901C387.334 123.073 381.125 119.587 374.943 117.241C360.099 111.598 343.701 110.675 329.155 104.31C315.126 98.1716 303.763 87.4056 291.546 78.1794C267.198 59.8287 238.978 47.2738 209.036 41.472C202.019 40.1177 194.736 39.1503 187.764 40.7142C179.73 42.516 172.806 47.518 166.581 52.903C150.017 67.228 136.742 84.9026 121.478 100.602C110.949 111.429 99.4826 121.306 87.2139 130.119C81.565 134.186 75.5611 139.014 69.2666 142.021C63.5048 144.77 58.1021 144.077 52.0093 145.911Z" fill="#297AFF"/>
<path d="M125.84 18.5977C125.84 18.5977 110.245 39.2871 121.401 63.4027C132.558 87.5182 101.957 126.265 101.957 126.265" stroke="#535461" stroke-width="2" stroke-miterlimit="10"/>
<path d="M132.833 10.8549C131.595 16.1794 125.667 19.3515 125.667 19.3515C125.667 19.3515 121.754 13.89 122.992 8.56544C124.231 3.24092 127.431 -0.564041 130.158 0.0687754C132.886 0.701592 134.072 5.53034 132.833 10.8549Z" fill="#8ED16F"/>
<path d="M128.852 9.92703C129.241 8.25539 129.048 6.78205 128.421 6.63623C127.794 6.49042 126.97 7.72735 126.58 9.39899C126.191 11.0706 126.383 12.544 127.011 12.6898C127.638 12.8356 128.462 11.5987 128.852 9.92703Z" fill="#8ED16F"/>
<path opacity="0.3" d="M128.852 9.92703C129.241 8.25539 129.048 6.78205 128.421 6.63623C127.794 6.49042 126.97 7.72735 126.58 9.39899C126.191 11.0706 126.383 12.544 127.011 12.6898C127.638 12.8356 128.462 11.5987 128.852 9.92703Z" fill="black"/>
<path d="M130.139 34.5107C124.99 36.3648 119.104 33.1161 119.104 33.1161C119.104 33.1161 121.565 26.8645 126.717 25.0144C131.87 23.1643 136.805 23.8052 137.753 26.409C138.701 29.0129 135.288 32.6566 130.139 34.5107Z" fill="#8ED16F"/>
<path d="M128.692 30.4058C130.307 29.8223 131.439 28.859 131.22 28.2542C131.001 27.6495 129.514 27.6323 127.899 28.2159C126.284 28.7994 125.152 29.7627 125.371 30.3674C125.59 30.9722 127.077 30.9894 128.692 30.4058Z" fill="#8ED16F"/>
<path opacity="0.3" d="M128.692 30.4058C130.307 29.8223 131.439 28.859 131.22 28.2542C131.001 27.6495 129.514 27.6323 127.899 28.2159C126.284 28.7994 125.152 29.7627 125.371 30.3674C125.59 30.9722 127.077 30.9894 128.692 30.4058Z" fill="black"/>
<path d="M128.94 53.3623C123.791 55.2164 117.904 51.9676 117.904 51.9676C117.904 51.9676 120.366 45.7161 125.518 43.866C130.671 42.0159 135.605 42.6568 136.554 45.2606C137.502 47.8644 134.088 51.5122 128.94 53.3623Z" fill="#8ED16F"/>
<path d="M127.553 49.5417C129.169 48.9603 130.303 47.9983 130.085 47.393C129.867 46.7877 128.379 46.7683 126.763 47.3497C125.146 47.931 124.013 48.893 124.231 49.4983C124.449 50.1037 125.936 50.123 127.553 49.5417Z" fill="#8ED16F"/>
<path opacity="0.3" d="M127.553 49.5417C129.169 48.9603 130.303 47.9983 130.085 47.393C129.867 46.7877 128.379 46.7683 126.763 47.3497C125.146 47.931 124.013 48.893 124.231 49.4983C124.449 50.1037 125.936 50.123 127.553 49.5417Z" fill="black"/>
<path d="M134.955 75.4785C129.807 77.3326 123.92 74.0839 123.92 74.0839C123.92 74.0839 126.381 67.8323 131.534 65.9822C136.686 64.1321 141.621 64.773 142.569 67.3768C143.517 69.9806 140.104 73.6365 134.955 75.4785Z" fill="#8ED16F"/>
<path d="M133.57 71.6676C135.187 71.0863 136.321 70.1243 136.102 69.519C135.884 68.9137 134.397 68.8943 132.781 69.4756C131.164 70.057 130.03 71.019 130.249 71.6243C130.467 72.2296 131.954 72.249 133.57 71.6676Z" fill="#8ED16F"/>
<path opacity="0.3" d="M133.57 71.6676C135.187 71.0863 136.321 70.1243 136.102 69.519C135.884 68.9137 134.397 68.8943 132.781 69.4756C131.164 70.057 130.03 71.019 130.249 71.6243C130.467 72.2296 131.954 72.249 133.57 71.6676Z" fill="black"/>
<path d="M131.041 95.7041C125.893 97.5582 120.006 94.3094 120.006 94.3094C120.006 94.3094 122.467 88.0579 127.62 86.2078C132.772 84.3577 137.707 84.9986 138.655 87.6024C139.603 90.2062 136.194 93.854 131.041 95.7041Z" fill="#8ED16F"/>
<path d="M129.668 91.5503C131.283 90.9668 132.415 90.0035 132.196 89.3988C131.977 88.794 130.49 88.7769 128.875 89.3604C127.26 89.9439 126.129 90.9072 126.348 91.512C126.567 92.1167 128.053 92.1339 129.668 91.5503Z" fill="#8ED16F"/>
<path opacity="0.3" d="M129.668 91.5503C131.283 90.9668 132.415 90.0035 132.196 89.3988C131.977 88.794 130.49 88.7769 128.875 89.3604C127.26 89.9439 126.129 90.9072 126.348 91.512C126.567 92.1167 128.053 92.1339 129.668 91.5503Z" fill="black"/>
<path d="M106.893 39.8672C110.694 43.8011 117.412 43.4948 117.412 43.4948C117.412 43.4948 117.965 36.7999 114.164 32.8659C110.363 28.932 105.655 27.3116 103.645 29.2383C101.636 31.165 103.093 35.9333 106.893 39.8672Z" fill="#8ED16F"/>
<path d="M112.834 38.4712C113.297 38.0244 112.706 36.6612 111.512 35.4264C110.319 34.1915 108.976 33.5527 108.513 33.9996C108.049 34.4464 108.641 35.8096 109.834 37.0444C111.028 38.2792 112.371 38.918 112.834 38.4712Z" fill="#8ED16F"/>
<path opacity="0.3" d="M112.834 38.4712C113.297 38.0244 112.706 36.6612 111.512 35.4264C110.319 34.1915 108.976 33.5527 108.513 33.9996C108.049 34.4464 108.641 35.8096 109.834 37.0444C111.028 38.2792 112.371 38.918 112.834 38.4712Z" fill="black"/>
<path d="M104.71 102.339C108.511 106.273 115.229 105.967 115.229 105.967C115.229 105.967 115.782 99.2715 111.981 95.3376C108.18 91.4036 103.471 89.7833 101.462 91.71C99.4524 93.6366 100.909 98.4049 104.71 102.339Z" fill="#8ED16F"/>
<path d="M110.645 100.949C111.108 100.502 110.516 99.1387 109.323 97.9039C108.13 96.6691 106.787 96.0303 106.323 96.4771C105.86 96.9239 106.452 98.2871 107.645 99.522C108.838 100.757 110.181 101.396 110.645 100.949Z" fill="#8ED16F"/>
<path opacity="0.3" d="M110.645 100.949C111.108 100.502 110.516 99.1387 109.323 97.9039C108.13 96.6691 106.787 96.0303 106.323 96.4771C105.86 96.9239 106.452 98.2871 107.645 99.522C108.838 100.757 110.181 101.396 110.645 100.949Z" fill="black"/>
<path d="M109.75 61.9473C114.648 64.3899 120.874 61.8506 120.874 61.8506C120.874 61.8506 119.159 55.3572 114.265 52.9146C109.371 50.472 104.387 50.4962 103.141 53.0113C101.894 55.5265 104.851 59.5047 109.75 61.9473Z" fill="#8ED16F"/>
<path d="M114.869 58.6401C115.157 58.0645 114.143 56.9766 112.606 56.2102C111.069 55.4439 109.589 55.2893 109.302 55.8649C109.014 56.4406 110.028 57.5285 111.565 58.2948C113.102 59.0612 114.582 59.2158 114.869 58.6401Z" fill="#8ED16F"/>
<path opacity="0.3" d="M114.869 58.6401C115.157 58.0645 114.143 56.9766 112.606 56.2102C111.069 55.4439 109.589 55.2893 109.302 55.8649C109.014 56.4406 110.028 57.5285 111.565 58.2948C113.102 59.0612 114.582 59.2158 114.869 58.6401Z" fill="black"/>
<path d="M111.803 83.9424C116.702 86.385 122.928 83.8457 122.928 83.8457C122.928 83.8457 121.213 77.3523 116.318 74.9097C111.424 72.4671 106.441 72.4913 105.194 75.0064C103.947 77.5216 106.925 81.524 111.803 83.9424Z" fill="#8ED16F"/>
<path d="M116.926 80.6382C117.213 80.0625 116.2 78.9746 114.663 78.2083C113.125 77.4419 111.646 77.2873 111.359 77.863C111.071 78.4386 112.084 79.5265 113.621 80.2929C115.159 81.0592 116.638 81.2138 116.926 80.6382Z" fill="#8ED16F"/>
<path opacity="0.3" d="M116.926 80.6382C117.213 80.0625 116.2 78.9746 114.663 78.2083C113.125 77.4419 111.646 77.2873 111.359 77.863C111.071 78.4386 112.084 79.5265 113.621 80.2929C115.159 81.0592 116.638 81.2138 116.926 80.6382Z" fill="black"/>
<path d="M50.7308 63.0684C50.7308 63.0684 79.2132 91.5209 63.1341 133.742C47.055 175.964 90.6965 246.174 90.6965 246.174C90.6965 246.174 90.2285 246.105 89.361 245.952C30.8548 235.638 1.80349 168.801 34.3248 119.151C46.4013 100.691 56.3474 79.0379 50.7308 63.0684Z" fill="#8ED16F"/>
<path d="M0 178.148C0 178.148 32.5012 172.976 35.4628 202.074C38.4244 231.171 97.9595 235.206 97.9595 235.206C97.9595 235.206 97.556 235.472 96.8418 235.948C47.6845 268.193 0.694006 256.48 7.77527 213.678C10.4141 197.761 10.1962 181.779 0 178.148Z" fill="#8ED16F"/>
<g opacity="0.3">
<path opacity="0.3" d="M0 178.148C0 178.148 32.5012 172.976 35.4628 202.074C38.4244 231.171 97.9595 235.206 97.9595 235.206C97.9595 235.206 97.556 235.472 96.8418 235.948C47.6845 268.193 0.694006 256.48 7.77527 213.678C10.4141 197.761 10.1962 181.779 0 178.148Z" fill="white"/>
</g>
<path d="M42.5037 177.789C47.4397 177.789 51.441 167.36 51.441 154.495C51.441 141.631 47.4397 131.202 42.5037 131.202C37.5678 131.202 33.5664 141.631 33.5664 154.495C33.5664 167.36 37.5678 177.789 42.5037 177.789Z" fill="#8ED16F"/>
<path opacity="0.3" d="M42.5037 177.789C47.4397 177.789 51.441 167.36 51.441 154.495C51.441 141.631 47.4397 131.202 42.5037 131.202C37.5678 131.202 33.5664 141.631 33.5664 154.495C33.5664 167.36 37.5678 177.789 42.5037 177.789Z" fill="black"/>
<path d="M41.6863 239.092C44.0389 236.742 41.7013 230.596 36.4651 225.366C31.229 220.135 25.0771 217.8 22.7245 220.15C20.372 222.5 22.7096 228.646 27.9457 233.876C33.1819 239.107 39.3338 241.442 41.6863 239.092Z" fill="#8ED16F"/>
<path opacity="0.3" d="M41.6863 239.092C44.0389 236.742 41.7013 230.596 36.4651 225.366C31.229 220.135 25.0771 217.8 22.7245 220.15C20.372 222.5 22.7096 228.646 27.9457 233.876C33.1819 239.107 39.3338 241.442 41.6863 239.092Z" fill="black"/>
<path d="M292.083 106.998H80.5163C77.9598 106.998 75.508 108.013 73.7003 109.818C71.8925 111.624 70.877 114.073 70.877 116.627V240.502C70.877 243.056 71.8925 245.505 73.7003 247.311C75.508 249.117 77.9598 250.131 80.5163 250.131H292.083C294.639 250.131 297.091 249.117 298.899 247.311C300.707 245.505 301.722 243.056 301.722 240.502V116.627C301.722 114.073 300.707 111.624 298.899 109.818C297.091 108.013 294.639 106.998 292.083 106.998Z" fill="url(#paint0_linear)"/>
<path d="M288.993 108.684H83.6044C78.0757 108.684 73.5938 113.161 73.5938 118.684V238.447C73.5938 243.97 78.0757 248.447 83.6044 248.447H288.993C294.522 248.447 299.004 243.97 299.004 238.447V118.684C299.004 113.161 294.522 108.684 288.993 108.684Z" fill="#297AFF"/>
<path d="M299.004 133.142H73.5938V158.765H299.004V133.142Z" fill="#297AFF"/>
<path opacity="0.3" d="M299.004 133.142H73.5938V158.765H299.004V133.142Z" fill="black"/>
<path d="M277.629 177.789H94.9688V190.212H277.629V177.789Z" fill="#D6D6E3"/>
<path d="M110.125 239.132C119.999 239.132 128.003 231.136 128.003 221.272C128.003 211.408 119.999 203.412 110.125 203.412C100.251 203.412 92.2461 211.408 92.2461 221.272C92.2461 231.136 100.251 239.132 110.125 239.132Z" fill="#297AFF"/>
<path opacity="0.3" d="M110.125 239.132C119.999 239.132 128.003 231.136 128.003 221.272C128.003 211.408 119.999 203.412 110.125 203.412C100.251 203.412 92.2461 211.408 92.2461 221.272C92.2461 231.136 100.251 239.132 110.125 239.132Z" fill="black"/>
<path d="M286.189 74.221C286.477 75.1325 287.09 75.9069 287.911 76.3976C291.62 78.8442 299.681 78.3242 300.65 78.3242C300.855 78.3242 301.126 78.691 301.424 79.3077C302.849 82.242 305.056 90.8435 305.205 92.7782C305.403 95.1201 307.582 106.079 311.149 110.163C311.257 110.287 311.366 110.404 311.471 110.513C314.97 114.024 319.073 110.163 319.073 110.163L319.662 108.119C319.497 108.925 319.311 109.864 319.126 110.916C319.033 111.444 318.94 112.005 318.851 112.581C318.32 115.829 318.04 119.113 318.016 122.404C318.007 123.599 318.058 124.793 318.169 125.983C318.202 126.313 318.238 126.64 318.282 126.958C318.464 128.408 318.553 129.867 318.549 131.328C318.516 140.002 316.301 150.792 316.301 150.792L316.386 150.764C316.333 151.034 316.301 151.167 316.301 151.167L316.43 151.126C316.368 151.527 316.309 151.937 316.253 152.356C315.502 157.797 315.07 164.569 314.865 168.478C314.758 170.541 314.85 172.609 315.139 174.653L319.077 202.348V215.246C319.064 217.201 319.303 219.149 319.787 221.042C321.07 225.916 320.013 242.925 319.42 250.994C319.255 253.195 319.126 254.735 319.089 255.178V255.311L319.202 255.267C319.202 255.36 319.202 255.408 319.202 255.408C319.37 255.336 319.546 255.285 319.727 255.255C318.165 257.673 315.337 261.672 313.162 262.345C311.88 262.735 310.74 263.49 309.882 264.517L309.825 264.594L309.744 264.707C309.476 265.066 309.312 265.493 309.272 265.94C309.241 265.863 309.217 265.784 309.2 265.702C309.034 266.601 309.575 267.424 311.274 267.823C312.264 268.011 313.272 268.092 314.28 268.064C320.171 268.064 330.625 266.255 331.779 264.308V257.593L331.969 257.653V257.714L332.691 257.951L334.672 251.309C337.049 249.551 335.076 218.1 334.672 210.873C334.309 204.287 338.388 178.088 339.11 173.472L339.014 173.356L339.123 172.682C339.268 172.788 339.403 172.907 339.526 173.037C339.763 173.318 339.97 173.624 340.143 173.948C340.484 174.525 340.777 175.129 341.019 175.754C345.005 185.685 346.801 214.086 346.801 216.633V243.34C346.793 245.976 347.16 248.599 347.89 251.131C348.257 252.464 348.539 253.819 348.738 255.186C348.822 255.722 348.895 256.255 348.964 256.762C349.032 257.27 349.101 257.851 349.153 258.326C349.153 258.451 349.182 258.572 349.194 258.685C349.206 258.798 349.194 258.794 349.194 258.85C349.303 259.902 349.359 260.592 349.359 260.592C349.374 260.534 349.402 260.48 349.44 260.434L349.46 260.688C349.488 260.592 349.543 260.506 349.617 260.438C349.781 260.278 349.96 260.132 350.15 260.003V263.397L350.053 263.324V263.909C354.161 267.004 360.846 267.939 365.979 267.903C369.308 267.903 372.003 267.5 372.939 267.033C374.279 266.376 373.544 264.844 372.326 263.671C371.382 262.76 370.151 262.059 369.372 262.147C368.073 262.288 363.631 257.262 361.302 254.509L361.565 254.392L361.936 254.231V209.7C361.936 209.7 362.533 192.118 364.312 174.73C365.157 165.965 364.118 157.121 361.266 148.789L361.21 148.623L361.75 148.708C362.323 148.797 362.63 148.849 362.63 148.849C362.63 148.849 362.63 148.712 362.594 148.446H362.63C362.63 148.446 361.936 140.905 361.928 131.432C361.928 120.695 362.836 107.603 366.592 100.195C368.755 95.9302 369.477 92.5364 369.417 89.86C369.511 87.505 368.832 85.1838 367.484 83.2497C366.918 82.4712 366.149 81.8632 365.261 81.4923L365.184 81.448H365.144C364.495 81.1857 363.802 81.0489 363.102 81.0449H354.988C354.049 81.0457 353.125 80.8026 352.309 80.3396L349.133 78.5419C348.076 76.2323 347.923 73.3705 348.149 70.6861C348.149 70.4725 348.189 70.2588 348.209 70.0492L348.439 69.8074C348.617 69.618 348.782 69.4043 348.944 69.223C348.94 69.382 348.928 69.5408 348.907 69.6986C348.867 69.9525 348.798 70.1016 348.689 70.1339C350.424 69.9082 352.361 69.5656 353.426 68.2274C353.471 68.175 353.511 68.1185 353.551 68.0621C353.866 67.5531 354.127 67.0128 354.33 66.4498C354.479 66.0653 354.679 65.702 354.923 65.3696C355.19 65.023 355.537 64.7408 355.823 64.4103L355.871 64.3539C356.892 63.1447 356.949 61.4115 356.961 59.8315C356.981 55.9943 356.868 51.7701 354.298 48.8922C352.163 46.498 348.758 45.5911 345.526 45.4863C342.294 45.3815 339.07 45.9619 335.842 45.978C333.647 45.978 331 45.9417 329.79 47.7556C329.197 48.6463 329.124 49.8112 328.478 50.6657C328.107 51.1574 327.538 51.5807 327.506 52.1933C327.502 52.476 327.574 52.7546 327.716 52.9995V53.0277C328.499 54.5674 330.161 55.5267 331.896 55.829C331.603 56.1817 331.333 56.5533 331.089 56.9415C330.03 58.6331 329.47 60.5891 329.475 62.5844C329.475 62.8182 329.475 63.0479 329.499 63.2777C329.679 65.9878 330.889 68.5268 332.881 70.3757C332.848 70.6014 332.816 70.8272 332.78 71.0488L332.852 71.1133C333.081 71.3202 333.319 71.5164 333.566 71.7018L333.655 71.7703C333.655 71.9114 333.655 72.0525 333.655 72.1734C333.655 72.4072 333.655 72.645 333.631 72.8747C333.607 73.1045 333.631 73.2456 333.607 73.431L333.554 73.3866L329.612 70.0976L323.273 64.237C323.273 64.237 307.424 52.7133 306.629 58.191C306.533 59.1638 306.802 60.1377 307.384 60.9238C310.293 65.3575 320.296 69.1302 320.296 69.1302C320.296 69.1302 326.259 75.4302 330.25 82.2219C330.109 82.2985 329.967 82.371 329.818 82.4395C326.267 84.0881 321.087 83.3908 321.087 83.3908C315.103 84.3219 314.562 90.8717 314.594 93.5199C314.594 93.6448 314.594 93.7658 314.594 93.8746C314.594 93.9834 314.594 94.0076 314.594 94.0681L306.654 75.4423L306.629 75.3859C306.37 74.7795 305.962 74.2481 305.443 73.8409C304.924 73.4337 304.311 73.1638 303.66 73.0561C298.35 72.1653 285.079 70.3072 286.189 74.221ZM319.432 255.198C319.548 255.171 319.665 255.149 319.783 255.134L319.747 255.19L319.432 255.198Z" fill="url(#paint1_linear)"/>
<path d="M359.106 251.39C359.106 251.39 366.627 260.834 368.366 260.64C370.105 260.447 374.152 264.3 371.84 265.477C369.528 266.654 356.217 267.404 349.648 262.393V254.844L359.106 251.39Z" fill="#ACA9C9"/>
<path d="M321.101 251.966C321.101 251.966 316.663 259.866 313.58 260.833C310.498 261.801 307.794 265.267 311.845 266.23C315.896 267.194 330.366 265.074 331.713 262.76V252.542L321.101 251.966Z" fill="#ACA9C9"/>
<path d="M315.529 174.355L319.362 201.675V214.376C319.351 216.303 319.584 218.223 320.056 220.091C321.307 224.9 320.278 241.676 319.697 249.636C319.508 252.232 319.362 253.893 319.362 253.893C321.868 252.736 332.48 256.396 332.48 256.396L333.553 252.748L334.409 249.846C336.725 248.113 334.812 217.089 334.409 209.942C334.146 205.061 336.325 189.237 337.721 179.752C338.125 177.072 338.452 174.916 338.649 173.618C338.774 172.812 338.843 172.364 338.843 172.364C339.268 172.71 339.622 173.136 339.884 173.618C340.216 174.187 340.501 174.783 340.735 175.399C344.617 185.198 346.384 213.211 346.384 215.706V242.051C346.376 244.65 346.733 247.237 347.445 249.737C347.923 251.56 348.272 253.415 348.49 255.287C348.765 257.379 348.894 259.064 348.894 259.064C349.088 257.907 361.047 252.704 361.047 252.704V208.769C361.047 208.769 361.624 191.437 363.363 174.275C364.11 166.468 363.357 158.59 361.144 151.066C360.664 149.426 360.184 148.035 359.768 146.935C359.062 145.06 358.558 144.024 358.558 144.024H319.161C318.499 144.149 317.95 145.479 317.454 147.499C317.131 148.853 316.849 150.514 316.603 152.336C315.872 157.701 315.453 164.379 315.251 168.241C315.149 170.283 315.242 172.331 315.529 174.355Z" fill="#618FD8"/>
<g opacity="0.1">
<path opacity="0.1" d="M360.353 252.829V208.894C360.353 208.894 360.93 191.562 362.669 174.4C364.408 157.237 357.827 144.146 357.827 144.146H358.598C358.598 144.146 365.155 157.249 363.44 174.4C361.725 191.55 361.124 208.894 361.124 208.894V252.829C361.124 252.829 349.164 258.032 348.971 259.189C348.971 259.189 348.971 258.931 348.91 258.488C351.517 256.678 360.353 252.829 360.353 252.829Z" fill="black"/>
<path opacity="0.1" d="M320.52 253.772C320.156 253.779 319.797 253.853 319.459 253.99V253.796C319.812 253.761 320.166 253.753 320.52 253.772Z" fill="black"/>
<path opacity="0.1" d="M333.735 249.943C336.051 248.209 334.138 217.185 333.735 210.039C333.331 202.892 338.173 172.465 338.173 172.465C338.427 172.66 338.651 172.891 338.839 173.15C338.129 177.697 334.159 203.545 334.51 210.039C334.913 217.169 336.826 248.193 334.51 249.943L332.581 256.492L331.879 256.259L333.735 249.943Z" fill="black"/>
</g>
<path d="M323.414 96.4578L319.379 110.718C319.379 110.718 315.134 114.749 311.664 110.718C308.194 106.688 306.056 95.8814 305.846 93.5678C305.636 91.2542 302.566 79.3073 301.408 79.3073C300.249 79.3073 288.677 80.0772 287.326 75.2766C286.244 71.4152 299.164 73.2613 304.337 74.1279C304.974 74.2362 305.573 74.5036 306.079 74.9053C306.585 75.307 306.981 75.8299 307.23 76.4254L315.163 95.3494C315.163 95.3494 319.363 90.4844 323.414 96.4578Z" fill="#F7C4A7"/>
<path d="M349.454 63.3135C349.454 63.3135 344.439 77.3805 350.806 82.3907C357.173 87.4008 328.037 88.7511 328.037 88.7511L331.991 84.9945C331.991 84.9945 334.788 73.9142 332.859 64.6638L349.454 63.3135Z" fill="#F7C4A7"/>
<path opacity="0.1" d="M343.283 82.3908C343.283 82.3908 348.395 81.1373 348.395 79.791L352.926 82.3908H364.309C364.309 82.3908 372.604 87.014 365.66 100.892C358.716 114.769 361.803 148.857 361.803 148.857C361.803 148.857 337.113 144.423 316.664 151.17C316.664 151.17 319.751 135.946 318.593 127.276C317.435 118.606 320.522 106.466 320.522 106.466L322.257 99.1423C322.257 99.1423 322.16 92.2901 315.022 95.7686C315.022 95.7686 313.961 85.8451 321.292 84.6883C321.292 84.6883 329.766 85.8451 332.288 81.6048C332.288 81.6209 337.884 84.8979 343.283 82.3908Z" fill="black"/>
<path d="M343.281 82.008C343.281 82.008 348.393 80.7544 348.393 79.4082L351.714 81.3147C352.507 81.7688 353.406 82.0078 354.32 82.008H362.281C363.113 82.0056 363.934 82.201 364.676 82.5781C365.417 82.9551 366.058 83.503 366.546 84.1765C368.374 86.744 370.012 91.8066 365.658 100.509C358.714 114.382 361.801 148.474 361.801 148.474C361.801 148.474 337.112 144.04 316.663 150.787C316.663 150.787 319.749 135.564 318.591 126.894C317.433 118.224 320.52 106.111 320.52 106.111L322.255 98.7877C322.255 98.7877 322.158 91.9355 315.02 95.414C315.02 95.414 313.988 85.7646 320.988 84.3861C321.183 84.3429 321.383 84.3293 321.581 84.3458C323.078 84.503 330.054 85.0068 332.29 81.2301C332.286 81.2341 337.882 84.511 343.281 82.008Z" fill="#E14B5A"/>
<path opacity="0.1" d="M362.766 99.5419C362.766 99.5419 356.593 103.395 346.562 99.5419C346.562 99.5419 335.567 95.5112 332.093 87.5949C328.619 79.6787 349.644 88.9452 349.644 88.9452C349.644 88.9452 354.083 88.9452 355.431 87.9819C356.778 87.0185 366.236 95.3016 362.766 99.5419Z" fill="black"/>
<path d="M362.767 98.7714C362.767 98.7714 356.593 102.625 346.562 98.7714C346.562 98.7714 335.567 94.7407 332.093 86.8245C328.619 78.9082 320.521 70.2382 320.521 70.2382C320.521 70.2382 306.439 64.8411 307.206 59.4481C307.973 54.055 323.41 65.4216 323.41 65.4216L329.584 71.2016L349.645 88.1586C349.645 88.1586 354.083 88.1586 355.431 87.1953C356.779 86.232 366.237 94.5311 362.767 98.7714Z" fill="#F7C4A7"/>
<path opacity="0.1" d="M332.674 65.2409L349.261 63.8906C348.409 66.4381 347.828 69.0687 347.53 71.7383C345.602 73.7358 342.966 74.8972 340.189 74.9726C337.412 75.048 334.716 74.0313 332.682 72.1414C333.105 69.8604 333.102 67.521 332.674 65.2409Z" fill="black"/>
<path d="M340.102 74.3945C345.96 74.3945 350.71 69.6502 350.71 63.7978C350.71 57.9454 345.96 53.2012 340.102 53.2012C334.243 53.2012 329.494 57.9454 329.494 63.7978C329.494 69.6502 334.243 74.3945 340.102 74.3945Z" fill="#F7C4A7"/>
<path opacity="0.1" d="M345.925 66.0988C345.304 65.075 346.567 63.7409 346.151 62.6203C345.768 61.5885 344.243 61.4111 343.73 60.4478C343.327 59.6699 343.73 58.7146 343.569 57.8561C343.339 56.7476 342.145 56.0584 341.011 56.0019C339.877 55.9455 338.784 56.3687 337.706 56.7315C335.951 57.324 334.103 57.7795 332.263 57.5699C330.423 57.3603 328.587 56.3607 327.768 54.7202C327.634 54.4812 327.563 54.2121 327.562 53.9382C327.595 53.3336 328.152 52.9185 328.511 52.4348C329.14 51.5924 329.213 50.4436 329.786 49.565C330.956 47.7753 333.526 47.8197 335.665 47.8116C338.812 47.8116 341.943 47.2231 345.09 47.3279C348.237 47.4327 351.546 48.3235 353.632 50.6855C356.134 53.5271 356.247 57.6868 356.226 61.4756C356.226 63.0355 356.162 64.7324 355.165 65.9376C354.875 66.2882 354.52 66.5784 354.241 66.9372C353.636 67.7433 353.475 68.7752 352.906 69.5934C351.897 71.0485 349.928 71.4032 348.173 71.6369C348.689 71.5684 348.262 68.1141 348.173 67.7957C347.834 66.2076 347.467 66.2399 345.925 66.0988Z" fill="black"/>
<path d="M345.925 65.716C345.304 64.6922 346.567 63.358 346.151 62.2375C345.768 61.2057 344.243 61.0283 343.73 60.065C343.327 59.2871 343.73 58.3318 343.569 57.4733C343.339 56.3648 342.145 55.6756 341.011 55.6191C339.877 55.5627 338.784 55.9859 337.706 56.3487C335.951 56.9412 334.103 57.3967 332.263 57.1871C330.423 56.9775 328.587 55.9779 327.768 54.3374C327.634 54.0984 327.563 53.8293 327.562 53.5554C327.595 52.9508 328.152 52.5357 328.511 52.052C329.14 51.2096 329.213 50.0608 329.786 49.1821C330.956 47.3925 333.526 47.4369 335.665 47.4288C338.812 47.4288 341.943 46.8403 345.09 46.9451C348.237 47.0499 351.546 47.9407 353.632 50.3027C356.134 53.1443 356.247 57.304 356.226 61.0928C356.226 62.6527 356.162 64.3496 355.165 65.5548C354.875 65.9054 354.52 66.1956 354.241 66.5544C353.636 67.3605 353.475 68.3924 352.906 69.2106C351.897 70.6657 349.928 71.0204 348.173 71.2541C348.689 71.1856 348.262 67.7313 348.173 67.4129C347.834 65.8047 347.467 65.853 345.925 65.716Z" fill="#281C1C"/>
<path opacity="0.1" d="M362.669 100.025C362.669 100.025 357.46 86.5345 353.409 86.1516C349.358 85.7687 361.124 86.1516 361.124 86.1516L364.981 93.0884L362.669 100.025Z" fill="black"/>
<path d="M363.056 100.025C363.056 100.025 357.847 86.5345 353.796 86.1516C349.745 85.7687 361.511 86.1516 361.511 86.1516L365.368 93.0884L363.056 100.025Z" fill="#E14B5A"/>
<path d="M348.475 255.319C348.749 257.411 348.878 259.096 348.878 259.096C349.072 257.939 361.031 252.735 361.031 252.735V249.603C360.727 249.592 360.421 249.607 360.119 249.648C357.799 249.958 355.649 251.083 353.663 252.284C351.987 253.383 350.255 254.396 348.475 255.319Z" fill="#618FD8"/>
<path opacity="0.3" d="M348.475 255.319C348.749 257.411 348.878 259.096 348.878 259.096C349.072 257.939 361.031 252.735 361.031 252.735V249.603C360.727 249.592 360.421 249.607 360.119 249.648C357.799 249.958 355.649 251.083 353.663 252.284C351.987 253.383 350.255 254.396 348.475 255.319Z" fill="black"/>
<path d="M319.363 253.892C321.869 252.735 332.481 256.395 332.481 256.395L333.554 252.747C331.702 252.373 329.862 251.905 328.054 251.349C327.21 251.105 326.385 250.8 325.585 250.438C325.051 250.153 324.501 249.897 323.939 249.672C322.555 249.196 321.114 249.398 319.694 249.636C319.509 252.231 319.363 253.892 319.363 253.892Z" fill="#618FD8"/>
<path opacity="0.3" d="M319.363 253.892C321.869 252.735 332.481 256.395 332.481 256.395L333.554 252.747C331.702 252.373 329.862 251.905 328.054 251.349C327.21 251.105 326.385 250.8 325.585 250.438C325.051 250.153 324.501 249.897 323.939 249.672C322.555 249.196 321.114 249.398 319.694 249.636C319.509 252.231 319.363 253.892 319.363 253.892Z" fill="black"/>
<path opacity="0.4" d="M371.737 264.876C371.898 264.807 372.042 264.703 372.156 264.57C372.271 264.437 372.354 264.28 372.399 264.111C372.471 264.376 372.443 264.659 372.321 264.906C372.199 265.153 371.992 265.348 371.737 265.453C369.421 266.61 356.114 267.379 349.545 262.369V261.793C356.114 266.803 369.421 266.033 371.737 264.876Z" fill="white"/>
<path opacity="0.4" d="M311.746 265.646C315.78 266.61 330.266 264.489 331.613 262.176V262.752C330.262 265.066 315.797 267.186 311.746 266.223C310.091 265.82 309.563 265.013 309.728 264.131C309.857 264.784 310.462 265.324 311.746 265.646Z" fill="white"/>
<path opacity="0.1" d="M335.277 125.269C335.277 125.269 331.032 123.919 329.874 125.269C328.716 126.619 318.818 129.783 318.818 129.783" fill="black"/>
<path d="M287.25 72.3223H307.889V71.8869H287.25V72.3223Z" fill="#8ED16F"/>
<path d="M287.25 72.7578H307.889V72.3225H287.25V72.7578Z" fill="#8ED16F"/>
<path opacity="0.1" d="M287.25 72.7578H307.889V72.3225H287.25V72.7578Z" fill="black"/>
<path d="M287.25 73.1934H307.889V72.7581H287.25V73.1934Z" fill="#8ED16F"/>
<path d="M287.25 73.624H307.889V73.1887H287.25V73.624Z" fill="#8ED16F"/>
<path opacity="0.1" d="M287.25 73.624H307.889V73.1887H287.25V73.624Z" fill="black"/>
<path d="M287.25 74.0596H307.889V73.6242H287.25V74.0596Z" fill="#8ED16F"/>
<path d="M287.25 74.4912H307.889V74.0559H287.25V74.4912Z" fill="#8ED16F"/>
<path opacity="0.1" d="M287.25 74.4912H307.889V74.0559H287.25V74.4912Z" fill="black"/>
<path d="M287.25 74.9268H307.889V74.4914H287.25V74.9268Z" fill="#8ED16F"/>
<path d="M287.25 75.3574H307.889V74.9221H287.25V75.3574Z" fill="#8ED16F"/>
<path opacity="0.1" d="M287.25 75.3574H307.889V74.9221H287.25V75.3574Z" fill="black"/>
<path d="M287.25 68.8564H307.889V68.4211H287.25V68.8564Z" fill="#8ED16F"/>
<path d="M301.847 58.5501L317.715 71.7334L317.993 71.3987L302.126 58.2154L301.847 58.5501Z" fill="#8ED16F"/>
<path d="M287.38 51.6136L303.248 64.7969L303.527 64.4622L287.659 51.2789L287.38 51.6136Z" fill="#8ED16F"/>
<path d="M287.25 69.2871H307.889V68.8518H287.25V69.2871Z" fill="#8ED16F"/>
<path opacity="0.1" d="M287.25 69.2871H307.889V68.8518H287.25V69.2871Z" fill="black"/>
<path d="M287.25 69.7266H307.889V69.2913H287.25V69.7266Z" fill="#8ED16F"/>
<path d="M287.25 70.1582H307.889V69.7229H287.25V70.1582Z" fill="#8ED16F"/>
<path opacity="0.1" d="M287.25 70.1582H307.889V69.7229H287.25V70.1582Z" fill="black"/>
<path d="M287.25 70.5889H307.889V70.1535H287.25V70.5889Z" fill="#8ED16F"/>
<path d="M287.25 71.0244H307.889V70.5891H287.25V71.0244Z" fill="#8ED16F"/>
<path opacity="0.1" d="M287.25 71.0244H307.889V70.5891H287.25V71.0244Z" fill="black"/>
<path d="M287.25 71.4561H307.889V71.0208H287.25V71.4561Z" fill="#8ED16F"/>
<path d="M287.25 71.8916H307.889V71.4563H287.25V71.8916Z" fill="#8ED16F"/>
<path opacity="0.1" d="M287.25 71.8916H307.889V71.4563H287.25V71.8916Z" fill="black"/>
<path d="M284.633 88.7933L292.027 90.165L294.704 75.7677L287.309 74.396L284.633 88.7933Z" fill="#8ED16F"/>
<path d="M291.288 82.6068C291.599 80.9325 291.173 79.4493 290.336 79.294C289.499 79.1388 288.568 80.3702 288.257 82.0446C287.946 83.7189 288.372 85.202 289.209 85.3573C290.046 85.5125 290.977 84.2811 291.288 82.6068Z" fill="#8ED16F"/>
<path opacity="0.1" d="M291.288 82.6068C291.599 80.9325 291.173 79.4493 290.336 79.294C289.499 79.1388 288.568 80.3702 288.257 82.0446C287.946 83.7189 288.372 85.202 289.209 85.3573C290.046 85.5125 290.977 84.2811 291.288 82.6068Z" fill="black"/>
<path d="M285.898 119.182L293.293 120.554L295.969 106.156L288.575 104.785L285.898 119.182Z" fill="#8ED16F"/>
<path d="M292.55 112.993C292.861 111.318 292.435 109.835 291.598 109.68C290.761 109.524 289.83 110.756 289.519 112.43C289.207 114.105 289.634 115.588 290.471 115.743C291.307 115.898 292.238 114.667 292.55 112.993Z" fill="#8ED16F"/>
<path opacity="0.1" d="M292.55 112.993C292.861 111.318 292.435 109.835 291.598 109.68C290.761 109.524 289.83 110.756 289.519 112.43C289.207 114.105 289.634 115.588 290.471 115.743C291.307 115.898 292.238 114.667 292.55 112.993Z" fill="black"/>
<path d="M259.152 44.487L255.572 51.0947L268.464 58.064L272.044 51.4563L259.152 44.487Z" fill="#8ED16F"/>
<path d="M267.78 53.0388C268.188 52.2904 267.304 51.0212 265.803 50.2038C264.303 49.3863 262.756 49.3303 262.347 50.0786C261.939 50.827 262.824 52.0962 264.324 52.9137C265.824 53.7311 267.371 53.7871 267.78 53.0388Z" fill="#8ED16F"/>
<path opacity="0.1" d="M267.78 53.0388C268.188 52.2904 267.304 51.0212 265.803 50.2038C264.303 49.3863 262.756 49.3303 262.347 50.0786C261.939 50.827 262.824 52.0962 264.324 52.9137C265.824 53.7311 267.371 53.7871 267.78 53.0388Z" fill="black"/>
<path d="M230.845 174.888L227.266 181.496L240.158 188.465L243.737 181.858L230.845 174.888Z" fill="#8ED16F"/>
<path d="M238.175 183.233C238.58 182.485 237.693 181.222 236.194 180.412C234.694 179.601 233.15 179.55 232.745 180.298C232.34 181.046 233.227 182.309 234.726 183.12C236.226 183.93 237.77 183.981 238.175 183.233Z" fill="#8ED16F"/>
<path opacity="0.1" d="M238.175 183.233C238.58 182.485 237.693 181.222 236.194 180.412C234.694 179.601 233.15 179.55 232.745 180.298C232.34 181.046 233.227 182.309 234.726 183.12C236.226 183.93 237.77 183.981 238.175 183.233Z" fill="black"/>
<path d="M213.525 67.277L209.945 73.8848L222.837 80.854L226.417 74.2463L213.525 67.277Z" fill="#8ED16F"/>
<path d="M220.85 75.6151C221.256 74.8672 220.369 73.6039 218.869 72.7934C217.37 71.9829 215.826 71.9321 215.421 72.68C215.016 73.4279 215.903 74.6912 217.402 75.5017C218.902 76.3122 220.445 76.3629 220.85 75.6151Z" fill="#8ED16F"/>
<path opacity="0.1" d="M220.85 75.6151C221.256 74.8672 220.369 73.6039 218.869 72.7934C217.37 71.9829 215.826 71.9321 215.421 72.68C215.016 73.4279 215.903 74.6912 217.402 75.5017C218.902 76.3122 220.445 76.3629 220.85 75.6151Z" fill="black"/>
<path d="M235.232 44.4851L231.652 51.0928L244.545 58.062L248.124 51.4544L235.232 44.4851Z" fill="#8ED16F"/>
<path d="M242.557 52.8231C242.963 52.0752 242.076 50.8119 240.576 50.0014C239.077 49.1909 237.533 49.1401 237.128 49.888C236.723 50.6359 237.61 51.8992 239.109 52.7097C240.608 53.5202 242.152 53.5709 242.557 52.8231Z" fill="#8ED16F"/>
<path opacity="0.1" d="M242.557 52.8231C242.963 52.0752 242.076 50.8119 240.576 50.0014C239.077 49.1909 237.533 49.1401 237.128 49.888C236.723 50.6359 237.61 51.8992 239.109 52.7097C240.608 53.5202 242.152 53.5709 242.557 52.8231Z" fill="black"/>
<path d="M256.904 71.3777L249.428 72.1943L251.021 86.751L258.497 85.9344L256.904 71.3777Z" fill="#8ED16F"/>
<path d="M254.199 82.1418C255.046 82.0493 255.581 80.6021 255.396 78.9092C255.211 77.2163 254.375 75.9189 253.528 76.0114C252.682 76.1038 252.146 77.551 252.332 79.2439C252.517 80.9368 253.353 82.2342 254.199 82.1418Z" fill="#8ED16F"/>
<path opacity="0.1" d="M254.199 82.1418C255.046 82.0493 255.581 80.6021 255.396 78.9092C255.211 77.2163 254.375 75.9189 253.528 76.0114C252.682 76.1038 252.146 77.551 252.332 79.2439C252.517 80.9368 253.353 82.2342 254.199 82.1418Z" fill="black"/>
<path d="M308.166 151.088L300.689 151.904L302.283 166.461L309.759 165.644L308.166 151.088Z" fill="#8ED16F"/>
<path d="M305.463 161.852C306.309 161.759 306.845 160.312 306.66 158.619C306.474 156.926 305.638 155.629 304.792 155.721C303.946 155.814 303.41 157.261 303.595 158.954C303.781 160.647 304.617 161.944 305.463 161.852Z" fill="#8ED16F"/>
<path opacity="0.1" d="M305.463 161.852C306.309 161.759 306.845 160.312 306.66 158.619C306.474 156.926 305.638 155.629 304.792 155.721C303.946 155.814 303.41 157.261 303.595 158.954C303.781 160.647 304.617 161.944 305.463 161.852Z" fill="black"/>
<path d="M227.628 102.3L224.049 108.907L236.941 115.876L240.521 109.269L227.628 102.3Z" fill="#8ED16F"/>
<path d="M234.952 110.643C235.357 109.895 234.47 108.632 232.971 107.822C231.472 107.011 229.928 106.96 229.523 107.708C229.117 108.456 230.004 109.72 231.504 110.53C233.003 111.341 234.547 111.391 234.952 110.643Z" fill="#8ED16F"/>
<path opacity="0.1" d="M234.952 110.643C235.357 109.895 234.47 108.632 232.971 107.822C231.472 107.011 229.928 106.96 229.523 107.708C229.117 108.456 230.004 109.72 231.504 110.53C233.003 111.341 234.547 111.391 234.952 110.643Z" fill="black"/>
<path d="M195.097 93.0183L191.518 99.626L204.41 106.595L207.989 99.9875L195.097 93.0183Z" fill="#8ED16F"/>
<path d="M203.493 101.8C203.901 101.052 203.016 99.7829 201.516 98.9655C200.016 98.148 198.469 98.092 198.06 98.8404C197.652 99.5887 198.536 100.858 200.037 101.675C201.537 102.493 203.084 102.549 203.493 101.8Z" fill="#8ED16F"/>
<path opacity="0.1" d="M203.493 101.8C203.901 101.052 203.016 99.7829 201.516 98.9655C200.016 98.148 198.469 98.092 198.06 98.8404C197.652 99.5887 198.536 100.858 200.037 101.675C201.537 102.493 203.084 102.549 203.493 101.8Z" fill="black"/>
<path d="M184.677 249.291L181.098 255.898L193.99 262.868L197.569 256.26L184.677 249.291Z" fill="#8ED16F"/>
<path d="M192.003 257.631C192.408 256.883 191.521 255.619 190.022 254.809C188.522 253.999 186.979 253.948 186.573 254.696C186.168 255.444 187.055 256.707 188.555 257.517C190.054 258.328 191.598 258.379 192.003 257.631Z" fill="#8ED16F"/>
<path opacity="0.1" d="M192.003 257.631C192.408 256.883 191.521 255.619 190.022 254.809C188.522 253.999 186.979 253.948 186.573 254.696C186.168 255.444 187.055 256.707 188.555 257.517C190.054 258.328 191.598 258.379 192.003 257.631Z" fill="black"/>
<path d="M175.298 251.837L173.926 259.225L188.339 261.896L189.711 254.509L175.298 251.837Z" fill="#8ED16F"/>
<path opacity="0.05" d="M175.298 251.837L173.926 259.225L188.339 261.896L189.711 254.509L175.298 251.837Z" fill="black"/>
<path d="M184.837 257.522C184.993 256.686 183.76 255.756 182.084 255.446C180.407 255.135 178.923 255.561 178.767 256.397C178.612 257.233 179.845 258.163 181.521 258.474C183.197 258.784 184.682 258.358 184.837 257.522Z" fill="#8ED16F"/>
<path opacity="0.1" d="M184.837 257.522C184.993 256.686 183.76 255.756 182.084 255.446C180.407 255.135 178.923 255.561 178.767 256.397C178.612 257.233 179.845 258.163 181.521 258.474C183.197 258.784 184.682 258.358 184.837 257.522Z" fill="black"/>
<path d="M176.647 256.267L175.275 263.654L189.688 266.325L191.06 258.938L176.647 256.267Z" fill="#8ED16F"/>
<path d="M186.183 261.953C186.338 261.117 185.105 260.187 183.429 259.877C181.753 259.566 180.268 259.992 180.113 260.828C179.958 261.664 181.191 262.594 182.867 262.904C184.543 263.215 186.028 262.789 186.183 261.953Z" fill="#8ED16F"/>
<path opacity="0.1" d="M186.183 261.953C186.338 261.117 185.105 260.187 183.429 259.877C181.753 259.566 180.268 259.992 180.113 260.828C179.958 261.664 181.191 262.594 182.867 262.904C184.543 263.215 186.028 262.789 186.183 261.953Z" fill="black"/>
<path d="M199.884 268.282L196.305 274.89L209.197 281.859L212.776 275.251L199.884 268.282Z" fill="#8ED16F"/>
<path d="M207.214 276.622C207.619 275.874 206.732 274.611 205.233 273.8C203.733 272.99 202.189 272.939 201.784 273.687C201.379 274.435 202.266 275.698 203.765 276.509C205.265 277.319 206.809 277.37 207.214 276.622Z" fill="#8ED16F"/>
<path opacity="0.1" d="M207.214 276.622C207.619 275.874 206.732 274.611 205.233 273.8C203.733 272.99 202.189 272.939 201.784 273.687C201.379 274.435 202.266 275.698 203.765 276.509C205.265 277.319 206.809 277.37 207.214 276.622Z" fill="black"/>
<path d="M190.507 270.824L189.135 278.211L203.548 280.882L204.92 273.495L190.507 270.824Z" fill="#8ED16F"/>
<path opacity="0.05" d="M190.507 270.824L189.135 278.211L203.548 280.882L204.92 273.495L190.507 270.824Z" fill="black"/>
<path d="M200.044 276.509C200.2 275.673 198.967 274.744 197.291 274.433C195.614 274.122 194.13 274.548 193.975 275.385C193.819 276.221 195.052 277.15 196.728 277.461C198.404 277.772 199.889 277.346 200.044 276.509Z" fill="#8ED16F"/>
<path opacity="0.1" d="M200.044 276.509C200.2 275.673 198.967 274.744 197.291 274.433C195.614 274.122 194.13 274.548 193.975 275.385C193.819 276.221 195.052 277.15 196.728 277.461C198.404 277.772 199.889 277.346 200.044 276.509Z" fill="black"/>
<path d="M191.856 275.258L190.484 282.646L204.897 285.317L206.269 277.929L191.856 275.258Z" fill="#8ED16F"/>
<path d="M201.398 280.944C201.553 280.108 200.32 279.178 198.644 278.868C196.968 278.557 195.483 278.983 195.328 279.819C195.173 280.655 196.406 281.585 198.082 281.895C199.758 282.206 201.243 281.78 201.398 280.944Z" fill="#8ED16F"/>
<path opacity="0.1" d="M201.398 280.944C201.553 280.108 200.32 279.178 198.644 278.868C196.968 278.557 195.483 278.983 195.328 279.819C195.173 280.655 196.406 281.585 198.082 281.895C199.758 282.206 201.243 281.78 201.398 280.944Z" fill="black"/>
<path d="M222.701 256.043L219.121 262.65L232.013 269.62L235.593 263.012L222.701 256.043Z" fill="#8ED16F"/>
<path d="M230.022 264.381C230.428 263.633 229.541 262.369 228.041 261.559C226.542 260.749 224.998 260.698 224.593 261.446C224.188 262.194 225.075 263.457 226.574 264.267C228.073 265.078 229.617 265.129 230.022 264.381Z" fill="#8ED16F"/>
<path opacity="0.1" d="M230.022 264.381C230.428 263.633 229.541 262.369 228.041 261.559C226.542 260.749 224.998 260.698 224.593 261.446C224.188 262.194 225.075 263.457 226.574 264.267C228.073 265.078 229.617 265.129 230.022 264.381Z" fill="black"/>
<path d="M213.321 258.587L211.949 265.975L226.362 268.646L227.734 261.259L213.321 258.587Z" fill="#8ED16F"/>
<path opacity="0.05" d="M213.321 258.587L211.949 265.975L226.362 268.646L227.734 261.259L213.321 258.587Z" fill="black"/>
<path d="M222.859 264.272C223.014 263.436 221.781 262.506 220.105 262.196C218.429 261.885 216.944 262.311 216.789 263.147C216.634 263.983 217.867 264.913 219.543 265.224C221.219 265.534 222.704 265.108 222.859 264.272Z" fill="#8ED16F"/>
<path opacity="0.1" d="M222.859 264.272C223.014 263.436 221.781 262.506 220.105 262.196C218.429 261.885 216.944 262.311 216.789 263.147C216.634 263.983 217.867 264.913 219.543 265.224C221.219 265.534 222.704 265.108 222.859 264.272Z" fill="black"/>
<path d="M214.671 263.021L213.299 270.408L227.712 273.079L229.084 265.692L214.671 263.021Z" fill="#8ED16F"/>
<path d="M224.212 268.707C224.368 267.871 223.135 266.941 221.459 266.63C219.782 266.32 218.298 266.746 218.142 267.582C217.987 268.418 219.22 269.348 220.896 269.658C222.572 269.969 224.057 269.543 224.212 268.707Z" fill="#8ED16F"/>
<path opacity="0.1" d="M224.212 268.707C224.368 267.871 223.135 266.941 221.459 266.63C219.782 266.32 218.298 266.746 218.142 267.582C217.987 268.418 219.22 269.348 220.896 269.658C222.572 269.969 224.057 269.543 224.212 268.707Z" fill="black"/>
</g>
<defs>
<linearGradient id="paint0_linear" x1="186.3" y1="250.131" x2="186.3" y2="106.998" gradientUnits="userSpaceOnUse">
<stop stop-color="#808080" stop-opacity="0.25"/>
<stop offset="0.54" stop-color="#808080" stop-opacity="0.12"/>
<stop offset="1" stop-color="#808080" stop-opacity="0.1"/>
</linearGradient>
<linearGradient id="paint1_linear" x1="-259242" y1="168724" x2="-259242" y2="45811.2" gradientUnits="userSpaceOnUse">
<stop stop-color="#808080" stop-opacity="0.25"/>
<stop offset="0.54" stop-color="#808080" stop-opacity="0.12"/>
<stop offset="1" stop-color="#808080" stop-opacity="0.1"/>
</linearGradient>
<clipPath id="clip0">
<rect width="393" height="288" fill="white"/>
</clipPath>
</defs>
</svg>
