<?xml version="1.0" standalone="no"?>
<!DOCTYPE svg PUBLIC "-//W3C//DTD SVG 20010904//EN"
 "http://www.w3.org/TR/2001/REC-SVG-20010904/DTD/svg10.dtd">
<svg version="1.0" xmlns="http://www.w3.org/2000/svg"
 width="135.000000pt" height="135.000000pt" viewBox="0 0 135.000000 135.000000"
 preserveAspectRatio="xMidYMid meet">
<metadata>
Created by potrace 1.11, written by Peter Selinger 2001-2013
</metadata>
<g transform="translate(0.000000,135.000000) scale(0.100000,-0.100000)"
fill="#000000" stroke="none">
<path d="M512 1329 c-191 -49 -349 -176 -438 -351 -78 -155 -88 -361 -25 -527
14 -38 18 -66 14 -105 -5 -48 -3 -56 23 -84 20 -22 41 -33 67 -36 26 -3 52
-17 86 -48 85 -76 221 -139 338 -154 310 -41 605 128 718 411 30 77 29 71 40
138 33 202 -26 402 -163 557 -23 26 -31 44 -30 73 1 71 -84 124 -146 92 -23
-12 -32 -11 -69 5 -114 51 -286 63 -415 29z m356 -89 c49 -17 63 -27 68 -47 9
-34 17 -27 -171 -128 -49 -26 -103 -56 -120 -65 -16 -10 -50 -29 -76 -42 l-45
-25 -28 23 -27 24 62 146 62 147 106 -6 c71 -4 127 -13 169 -27z m-308 16 c0
-2 -24 -61 -54 -132 l-54 -129 -52 -3 c-46 -3 -57 -8 -94 -45 l-42 -43 -62 19
-62 18 36 57 c55 85 138 163 223 207 61 31 161 63 161 51z m510 -6 c0 -5 -9
-10 -19 -10 -11 0 -23 -5 -27 -12 -4 -7 -3 -8 4 -4 17 10 52 -12 52 -33 0 -25
-24 -43 -50 -39 -27 4 -26 22 2 23 12 0 23 6 25 13 3 8 -6 12 -27 12 -25 0
-31 3 -26 16 3 9 6 22 6 30 0 9 11 14 30 14 17 0 30 -4 30 -10z m-92 -131 c19
-15 38 -20 71 -18 39 3 47 0 72 -31 16 -18 25 -38 22 -43 -3 -6 -2 -7 4 -4 13
8 69 -92 94 -171 30 -94 32 -290 4 -321 -2 -1 -42 36 -89 84 -57 58 -83 91
-77 99 35 44 14 131 -39 162 -29 18 -31 22 -26 59 18 126 18 137 5 133 -13 -4
-14 -9 -24 -101 -6 -68 -7 -70 -36 -74 -30 -5 -77 -40 -84 -63 -4 -11 -9 -19
-13 -16 -4 2 -35 7 -69 10 -35 4 -80 8 -100 11 -21 2 -64 7 -95 10 -53 6 -58
9 -58 31 0 13 -1 27 -1 31 -1 4 11 15 27 24 54 30 139 76 219 119 44 24 98 54
120 66 49 28 42 28 73 3z m-518 -210 c0 -4 -12 -35 -26 -68 -19 -43 -32 -61
-45 -61 -18 0 -18 2 -2 35 9 19 19 35 22 35 3 0 7 11 7 25 2 21 -2 24 -27 21
-19 -2 -29 1 -29 10 0 7 14 14 33 16 39 4 67 -1 67 -13z m-249 -12 c54 -16 56
-18 57 -52 3 -76 71 -130 152 -123 l47 5 55 -95 56 -95 -29 -30 c-26 -27 -49
-81 -49 -114 0 -7 -4 -13 -9 -13 -5 0 -43 -4 -83 -10 -147 -20 -139 -21 -166
18 l-24 35 62 135 c33 74 58 137 55 140 -10 10 -21 -11 -81 -141 -57 -126 -58
-128 -88 -125 -28 3 -32 9 -55 73 -34 98 -35 240 -3 343 15 46 28 72 35 69 7
-2 37 -12 68 -20z m801 -119 c2 -63 -7 -82 -26 -55 -7 9 -25 17 -40 17 -33 0
-33 14 1 59 50 67 61 63 65 -21z m-356 38 c21 -3 71 -8 109 -12 39 -4 75 -7
82 -7 6 0 15 -17 18 -38 7 -42 45 -86 82 -95 23 -6 62 -2 95 11 11 5 42 -19
107 -84 50 -49 87 -92 83 -94 -4 -3 -27 -8 -52 -12 -65 -10 -92 -14 -116 -19
-12 -2 -45 -7 -74 -11 -29 -4 -62 -9 -74 -11 -68 -14 -76 -14 -76 -1 0 7 -11
29 -25 49 -15 22 -21 39 -15 43 20 13 91 116 87 128 -2 6 -27 -19 -56 -56 -29
-37 -54 -67 -54 -67 -1 0 -23 7 -48 14 -34 10 -58 12 -85 5 -44 -10 -53 -3
-106 89 -55 94 -55 92 -30 113 13 10 23 22 23 26 -2 33 12 44 48 38 21 -3 56
-7 77 -9z m77 -334 c29 -26 22 -70 -20 -108 l-37 -34 37 0 c30 0 37 -4 37 -20
0 -18 -7 -20 -70 -20 -66 0 -70 1 -70 23 0 14 13 31 36 47 49 33 70 66 55 84
-14 16 -33 15 -53 -2 -11 -9 -19 -9 -33 2 -18 13 -17 15 13 33 36 22 76 20
105 -5z m468 -67 c-39 -76 -106 -155 -171 -204 -59 -44 -194 -106 -210 -96 -6
4 -19 26 -30 51 -11 24 -25 44 -30 44 -13 0 -13 -1 10 -55 18 -43 19 -46 2
-53 -37 -15 -206 -4 -272 18 -111 37 -255 131 -243 160 3 8 6 23 7 32 0 18 12
21 196 43 45 5 45 5 61 -34 50 -118 230 -128 299 -16 12 19 23 48 24 65 3 37
7 41 48 46 18 2 44 5 58 8 14 2 70 12 125 21 55 9 101 18 102 19 1 1 13 2 27
4 l25 2 -28 -55z m-1001 -44 c0 -6 -5 -13 -11 -16 -7 -5 -4 -14 7 -27 14 -14
16 -23 8 -36 -13 -21 -78 -30 -72 -10 3 8 16 12 31 10 20 -3 26 0 21 11 -3 8
-15 18 -27 21 -18 5 -19 8 -7 15 12 9 12 11 -3 17 -29 11 -19 24 18 24 19 0
35 -4 35 -9z"/>
<path d="M967 786 c-4 -10 -5 -21 -2 -24 9 -9 17 6 13 25 -3 17 -4 17 -11 -1z"/>
</g>
</svg>
