<?xml version="1.0" standalone="no"?>
<!DOCTYPE svg PUBLIC "-//W3C//DTD SVG 1.1//EN" "http://www.w3.org/Graphics/SVG/1.1/DTD/svg11.dtd" >
<svg xmlns="http://www.w3.org/2000/svg" xmlns:xlink="http://www.w3.org/1999/xlink" version="1.1">
<metadata>
Created by FontForge 20170731 at Wed May 14 19:49:38 2014
 By Aleksey,,,
Copyright (c) 2010 by TypeTogether. All rights reserved.This font is ONLY licensed for use when accessed from the Extensis WebINK font service. Any other use of this font file is illegal under United States and international copyright laws. Please respect the rights of the people who design and license fonts.
</metadata>
<defs>
<font id="AdelleCyrillic" horiz-adv-x="500" >
  <font-face 
    font-family="Adelle Cyrillic"
    font-weight="400"
    font-stretch="normal"
    units-per-em="1000"
    panose-1="2 0 5 3 6 0 0 2 0 4"
    ascent="755"
    descent="-245"
    x-height="514"
    cap-height="724"
    bbox="-137 -236 1034 941"
    underline-thickness="50"
    underline-position="-200"
    unicode-range="U+000D-25CA"
  />
<missing-glyph 
 />
    <glyph glyph-name=".notdef" 
 />
    <glyph glyph-name=".null" horiz-adv-x="0" 
 />
    <glyph glyph-name="nonmarkingreturn" unicode="&#xd;" 
 />
    <glyph glyph-name="NULL" horiz-adv-x="0" 
 />
    <glyph glyph-name="NULL" horiz-adv-x="0" 
 />
    <glyph glyph-name="space" unicode=" " horiz-adv-x="222" 
 />
    <glyph glyph-name="exclam" unicode="!" horiz-adv-x="262" 
d="M94 187l-14 371v166h101v-166l-12 -371h-75zM198 51q0 -63 -66 -63t-66 63t66 63t66 -63z" />
    <glyph glyph-name="quotedbl" unicode="&#x22;" horiz-adv-x="364" 
d="M58 447v259h90v-259h-90zM216 447v259h90v-259h-90z" />
    <glyph glyph-name="numbersign" unicode="#" horiz-adv-x="607" 
d="M322 0l21 139h-121l-21 -139h-72l20 139h-115l15 66h111l23 148h-115l14 67h111l18 123h73l-19 -123h119l19 123h72l-19 -123h115l-13 -67h-112l-21 -148h113l-13 -66h-110l-21 -139h-72zM374 353h-119l-23 -148h121z" />
    <glyph glyph-name="dollar" unicode="$" horiz-adv-x="523" 
d="M468 176q0 -76 -44.5 -118.5t-122.5 -53.5v-84h-71v80q-60 2 -111 13.5t-77 23.5v140h66l16 -69q2 -11 6 -15.5t16 -9.5q11 -5 33 -9.5t51 -6.5v213q-31 9 -61.5 20t-54.5 30t-39 47.5t-15 72.5q0 41 13 71.5t35.5 52.5t54 34.5t67.5 17.5v74h71v-72q51 -2 91 -12.5
t68 -19.5v-152l-67 7l-16 77q-2 11 -6 15.5t-14 7.5q-22 7 -56 9v-215q31 -9 61 -21t53.5 -31t38 -47t14.5 -70zM145 463q0 -40 24 -61t61 -35v189q-40 -8 -62.5 -32t-22.5 -61zM381 165q0 38 -22.5 58.5t-57.5 34.5v-186q42 10 61 35t19 58z" />
    <glyph glyph-name="percent" unicode="%" horiz-adv-x="865" 
d="M204 257q-45 0 -75 14.5t-49 39t-27 56.5t-8 66q0 83 42 135t125 52q85 0 122 -47.5t37 -126.5q0 -84 -42 -136.5t-125 -52.5zM199 -17l377 638h86l-376 -638h-87zM208 318q49 0 66.5 34t17.5 90q0 25 -3.5 46t-13 36.5t-25.5 24.5t-40 9q-25 0 -41.5 -10.5t-26.5 -27
t-14 -38t-4 -43.5q0 -52 17.5 -86.5t66.5 -34.5zM654 -12q-45 0 -75.5 14.5t-49.5 39t-27 56.5t-8 66q0 83 42.5 135t125.5 52q85 0 121.5 -47.5t36.5 -126.5q0 -84 -41.5 -136.5t-124.5 -52.5zM657 49q50 0 67 34.5t17 89.5q0 25 -3.5 46t-13 36.5t-25 24.5t-39.5 9
q-25 0 -41.5 -10.5t-26.5 -27t-14 -38t-4 -43.5q0 -52 17 -86.5t66 -34.5z" />
    <glyph glyph-name="ampersand" unicode="&#x26;" horiz-adv-x="709" 
d="M548 0l-77 93q-45 -56 -99.5 -80.5t-122.5 -24.5q-48 0 -87.5 14t-67.5 40.5t-43.5 63.5t-15.5 83q0 79 44 133t130 77q-21 26 -36.5 59t-15.5 67q0 37 13 65t35.5 46.5t53.5 28t66 9.5q24 0 47.5 -3.5t44 -9t36.5 -11.5t25 -11v-135l-67 3l-12 68q-2 8 -4.5 12t-10.5 6
q-11 5 -25 6.5t-31 1.5q-43 0 -63.5 -18.5t-20.5 -49.5q0 -17 4 -32t14 -31.5t25.5 -37t39.5 -48.5l135 -160q17 48 24 85t10 78h131v-53l-45 -8q-9 -2 -12.5 -5t-5.5 -13q-6 -37 -17 -75.5t-26 -70.5l71 -84q6 -7 11 -10t15 -5l55 -9v-54h-125zM256 341
q-59 -11 -95.5 -47.5t-36.5 -102.5q0 -24 7.5 -47t24 -41t42 -29t61.5 -11q46 0 87 21.5t72 66.5z" />
    <glyph glyph-name="quotesingle" unicode="'" horiz-adv-x="206" 
d="M58 447v259h90v-259h-90z" />
    <glyph glyph-name="parenleft" unicode="(" horiz-adv-x="300" 
d="M202 -158q-28 42 -54.5 90t-47.5 103t-33.5 116.5t-12.5 128.5q0 68 13.5 130.5t35 119.5t50 107t58.5 92l69 -42q-32 -51 -56.5 -100t-41 -98t-25 -100.5t-8.5 -107.5q0 -66 10 -120t27 -102t39.5 -91.5t47.5 -86.5z" />
    <glyph glyph-name="parenright" unicode=")" horiz-adv-x="300" 
d="M96 -158l-70 40q26 43 49 87t40 92.5t27 103t10 118.5q0 57 -9 108t-25.5 100t-40.5 97t-55 99l69 42q29 -41 57 -90.5t49.5 -106.5t35 -120t13.5 -130q0 -68 -12.5 -129t-33.5 -116t-48 -103.5t-56 -91.5z" />
    <glyph glyph-name="asterisk" unicode="*" horiz-adv-x="471" 
d="M88 441l41 50l81 67l-104 13l-62 22l25 71l62 -22l88 -54l-21 102v65h75v-65l-21 -102h-33l-9 -30l26 -22l-48 -91l-42 -52zM325 393l-41 52l-48 91l26 21l-10 31l89 54l61 22l25 -71l-62 -22l-103 -14l80 -66l42 -50z" />
    <glyph glyph-name="plus" unicode="+" horiz-adv-x="570" 
d="M243 128v153h-147v81h147v150h83v-150h147v-81h-147v-153h-83z" />
    <glyph glyph-name="comma" unicode="," horiz-adv-x="185" 
d="M40 -101l30 105q1 7 -5 10l-35 14l22 83q24 -1 44 -3.5t34.5 -9t22.5 -19t8 -32.5q0 -14 -5 -27t-11 -26l-58 -112z" />
    <glyph glyph-name="hyphen" unicode="-" horiz-adv-x="311" 
d="M20 247v89h271v-89h-271z" />
    <glyph glyph-name="period" unicode="." horiz-adv-x="212" 
d="M172 51q0 -63 -66 -63t-66 63t66 63q32 0 49 -15.5t17 -47.5z" />
    <glyph glyph-name="slash" unicode="/" horiz-adv-x="377" 
d="M7 -92l281 847h82l-280 -847h-83z" />
    <glyph glyph-name="zero" unicode="0" horiz-adv-x="574" 
d="M284 -12q-74 0 -121 23.5t-73.5 63.5t-36.5 94t-10 115q0 60 12 114.5t41 96t77.5 65.5t120.5 24t118 -23t72.5 -62t36.5 -91t10 -111q0 -62 -11 -118t-39 -98.5t-75.5 -67.5t-121.5 -25zM287 62q43 0 71.5 16t46 45.5t24.5 72t7 94.5q0 51 -6.5 91.5t-23 68.5t-44 42.5
t-70.5 14.5q-86 0 -120 -59t-34 -169q0 -49 7 -89t24 -68.5t46 -44t72 -15.5z" />
    <glyph glyph-name="one" unicode="1" horiz-adv-x="365" 
d="M30 0v55l101 6q11 1 13.5 5t2.5 15v393q0 11 -3 15t-11 6l-95 18l7 56h193v-488q0 -12 2.5 -15t13.5 -5l88 -7v-54h-312z" />
    <glyph glyph-name="two" unicode="2" horiz-adv-x="477" 
d="M27 0v62l137 134q36 35 66 64t51.5 55.5t33 51t11.5 50.5q0 45 -25.5 70t-86.5 25q-28 0 -49 -4t-34.5 -15.5t-20 -32t-6.5 -52.5l-85 9q0 54 18 87t46.5 50.5t64 23.5t71.5 6q54 0 91.5 -11.5t61.5 -32.5t34.5 -50t10.5 -64q0 -39 -14 -73t-36.5 -64t-51.5 -57.5
t-58 -55.5l-114 -108h208q13 0 15 11l15 85h66v-164h-420z" />
    <glyph glyph-name="three" unicode="3" horiz-adv-x="488" 
d="M312 262q132 -24 132 -155q0 -88 -57.5 -139t-163.5 -51q-71 0 -127.5 24t-88.5 62l54 58q31 -32 68.5 -50t92.5 -18q25 0 48 5.5t41 18.5t29 35.5t11 56.5q0 58 -36 86t-101 28q-33 0 -71 -7v70l58 6q68 6 101 39t33 84q0 42 -23.5 69.5t-83.5 27.5q-27 0 -48.5 -4.5
t-35.5 -16t-21.5 -31.5t-7.5 -52l-85 9q0 53 18.5 85.5t47.5 50.5t65 24.5t72 6.5q53 0 89.5 -12t60 -33t34 -50t10.5 -64q0 -60 -30.5 -100t-84.5 -59v-4z" />
    <glyph glyph-name="four" unicode="4" horiz-adv-x="514" 
d="M317 -67v146h-292v66l230 432l74 -39l-206 -385h195v203l85 5v-208h91v-74h-91v-146h-86z" />
    <glyph glyph-name="five" unicode="5" horiz-adv-x="512" 
d="M157 494l-13 -195q24 17 57 27.5t72 10.5q92 0 144 -51.5t52 -147.5q0 -48 -15 -88.5t-44 -70t-71 -46t-97 -16.5q-72 0 -131 23t-96 62l55 61q32 -33 73 -51t96 -18q25 0 49.5 7.5t44 24.5t31.5 44t12 65q0 37 -11.5 61.5t-29 39.5t-39 21t-41.5 6q-43 0 -72.5 -15
t-52.5 -33l-66 29l21 325h265q8 0 10.5 2t4.5 9l14 54l56 4v-144h-278z" />
    <glyph glyph-name="six" unicode="6" horiz-adv-x="529" 
d="M392 491q0 52 -21.5 69.5t-68.5 17.5q-49 0 -80 -23t-48 -58t-24 -77.5t-8 -81.5q26 21 69 39.5t97 18.5q92 0 135.5 -51.5t43.5 -135.5q0 -102 -56.5 -161.5t-160.5 -59.5q-68 0 -111 27t-67 72.5t-32.5 105t-8.5 124.5q0 50 10 108t38 107.5t78 82.5t129 33
q31 0 62 -5.5t55.5 -21.5t39.5 -44.5t15 -75.5zM145 266q1 -27 5 -63t17.5 -68t39 -54t69.5 -22q60 0 90 37.5t30 103.5q0 63 -23.5 95.5t-80.5 32.5q-22 0 -44 -6.5t-41.5 -16t-35.5 -20.5t-26 -19z" />
    <glyph glyph-name="seven" unicode="7" horiz-adv-x="496" 
d="M158 -67q9 102 33.5 189t57.5 157.5t69.5 124.5t67.5 90h-245q-8 0 -10.5 -2t-4.5 -9l-18 -91l-63 -4v181h443v-65q-43 -43 -83.5 -105t-73 -136t-54 -158t-27.5 -172h-92z" />
    <glyph glyph-name="eight" unicode="8" horiz-adv-x="509" 
d="M352 333q24 -13 45 -29t37 -36t25.5 -45t9.5 -57q0 -44 -17 -77.5t-47 -56t-71 -33.5t-89 -11q-91 0 -148 42t-57 124q0 31 10 57.5t26.5 49t38 42t45.5 36.5q-40 23 -67 57.5t-27 90.5q0 39 15.5 69.5t42 50.5t62 30.5t74.5 10.5q93 0 141.5 -42t48.5 -107q0 -25 -9 -49
t-23 -45t-31.5 -39.5t-34.5 -32.5zM226 306q-49 -35 -75 -71t-26 -75q0 -49 35.5 -76t95.5 -27q57 0 90 29t33 74q0 30 -12.5 51.5t-33.5 38t-49 30t-58 26.5zM286 366q32 29 55.5 60t23.5 69q0 24 -8.5 40t-23.5 25.5t-34.5 14t-40.5 4.5q-45 0 -74 -21.5t-29 -61.5
q0 -25 11 -43.5t29 -33.5t41.5 -28t49.5 -25z" />
    <glyph glyph-name="nine" unicode="9" horiz-adv-x="553" 
d="M112 46q31 -27 67.5 -40.5t75.5 -13.5q50 0 79.5 24t45 59t20 75t5.5 72q-26 -23 -67.5 -41t-98.5 -18q-91 0 -136.5 53.5t-45.5 149.5q0 100 56 159t162 59q70 0 113 -27t67 -72t32.5 -104t8.5 -124q0 -55 -8 -115t-33 -110t-72.5 -82.5t-125.5 -32.5q-52 0 -103.5 15.5
t-86.5 49.5zM401 297q-1 32 -5 70t-17.5 70.5t-39.5 54t-71 21.5q-60 0 -90 -37.5t-30 -103.5t24.5 -103t81.5 -37q24 0 46 6.5t41 16t34.5 21t25.5 21.5z" />
    <glyph glyph-name="colon" unicode=":" horiz-adv-x="212" 
d="M172 51q0 -63 -66 -63t-66 63t66 63q32 0 49 -15.5t17 -47.5zM172 445q0 -63 -66 -63t-66 63t66 63q32 0 49 -15.5t17 -47.5z" />
    <glyph glyph-name="semicolon" unicode=";" horiz-adv-x="185" 
d="M40 -101l30 105q1 7 -5 10l-35 14l22 83q24 -1 44 -3.5t34.5 -9t22.5 -19t8 -32.5q0 -14 -5 -27t-11 -26l-58 -112zM168 445q0 -63 -66 -63t-66 63t66 63q32 0 49 -15.5t17 -47.5z" />
    <glyph glyph-name="less" unicode="&#x3c;" horiz-adv-x="570" 
d="M83 239v100l372 154l27 -76l-316 -125l319 -121l-24 -77z" />
    <glyph glyph-name="equal" unicode="=" horiz-adv-x="570" 
d="M98 159v83h374v-83h-374zM98 321v83h374v-83h-374z" />
    <glyph glyph-name="greater" unicode="&#x3e;" horiz-adv-x="570" 
d="M107 94l-24 77l319 121l-316 125l27 76l371 -154v-100z" />
    <glyph glyph-name="question" unicode="?" horiz-adv-x="475" 
d="M139 186v177q39 3 76 12t66 27.5t47 49.5t18 78q0 54 -32.5 85.5t-94.5 31.5q-33 0 -54 -4.5t-32 -10.5q-5 -3 -7 -7t-4 -15l-10 -57l-71 -5v140q25 10 74 23t108 13q48 0 89 -9.5t70.5 -31.5t46 -59t16.5 -93q0 -52 -15.5 -91t-44 -67t-68 -45t-87.5 -25v-117h-91z
M251 51q0 -63 -66 -63t-66 63t66 63t66 -63z" />
    <glyph glyph-name="at" unicode="@" horiz-adv-x="829" 
d="M610 -138q-24 -11 -74 -23t-125 -12q-80 0 -146 22t-113.5 66.5t-73.5 111t-26 155.5q0 87 28.5 159t79.5 123.5t122.5 80t157.5 28.5q77 0 139.5 -21t107 -61.5t68.5 -99.5t24 -135q0 -72 -15 -122t-41 -81.5t-61.5 -45.5t-77.5 -14q-50 0 -74 20.5t-30 53.5
q-30 -29 -62.5 -51.5t-71.5 -22.5q-53 0 -80.5 35t-27.5 103q0 55 15 104t42.5 86t67.5 59t91 22q37 0 72 -9.5t61 -22.5l-27 -168q-4 -23 -7.5 -51.5t-3.5 -43.5q0 -23 10 -37t36 -14q32 0 53 18.5t33.5 46.5t17.5 61t5 61q0 128 -66.5 196t-202.5 68q-72 0 -129 -25
t-96.5 -69t-60 -102.5t-20.5 -126.5q0 -75 20.5 -130t59 -91t92 -53t119.5 -17q45 0 88.5 8.5t82.5 22.5zM508 329q-11 7 -28.5 10.5t-34.5 3.5q-27 0 -50.5 -15.5t-41 -42.5t-28 -63.5t-10.5 -78.5q0 -38 9 -59t37 -21q14 0 29.5 6.5t31 16.5t29.5 22.5t25 25.5z" />
    <glyph glyph-name="A" unicode="A" horiz-adv-x="713" 
d="M461 0v54l82 9l-54 158h-279l-53 -158l81 -9v-54h-230v53l43 11q12 3 17 6.5t8 12.5l220 641h116l224 -642q3 -9 9 -12t15 -5l45 -11v-54h-244zM351 646l-118 -352h234z" />
    <glyph glyph-name="B" unicode="B" horiz-adv-x="667" 
d="M61 0v54l63 7q11 2 13.5 5.5t2.5 14.5v561q0 11 -2.5 15t-13.5 5l-63 7v55h298q64 0 106 -13.5t67 -37.5t35 -56.5t10 -69.5q0 -36 -10.5 -63.5t-27.5 -48.5t-39 -34.5t-45 -21.5v-3q86 -10 127.5 -57.5t41.5 -122.5q0 -55 -20 -93t-55.5 -60.5t-84.5 -32.5t-108 -10
h-295zM345 73q39 0 72.5 4.5t58 18.5t38.5 39t14 67q0 36 -12.5 61.5t-34.5 41.5t-51.5 23t-64.5 7h-134v-262h114zM319 405q30 0 59.5 5.5t53 19.5t38.5 39.5t15 65.5q0 69 -38 92.5t-113 23.5h-103v-246h88z" />
    <glyph glyph-name="C" unicode="C" horiz-adv-x="690" 
d="M630 41q-41 -27 -106 -40t-134 -13q-91 0 -156 27.5t-106.5 77t-60.5 118.5t-19 151q0 81 22.5 150t67 119t112 78t157.5 28q66 0 124.5 -14.5t96.5 -39.5v-160l-68 4l-17 95q-1 7 -3 11.5t-10 6.5q-26 9 -59 15.5t-68 6.5q-59 0 -107 -19.5t-81.5 -57t-52 -93.5
t-18.5 -130q0 -147 67 -223t185 -76q34 0 72.5 4.5t67.5 16.5q6 2 9 5.5t5 12.5l16 90h64v-151z" />
    <glyph glyph-name="D" unicode="D" horiz-adv-x="767" 
d="M61 0v54l63 7q11 2 13.5 5.5t2.5 14.5v561q0 11 -2.5 15t-13.5 5l-63 7v55h299q94 0 162 -24.5t111.5 -70t64.5 -110.5t21 -146q0 -83 -22.5 -152t-68.5 -118t-117 -76t-168 -27h-282zM342 73q143 0 212.5 76.5t69.5 210.5q0 84 -18.5 140t-53.5 89.5t-86.5 48
t-117.5 14.5h-116v-579h110z" />
    <glyph glyph-name="E" unicode="E" horiz-adv-x="635" 
d="M61 0v54l63 7q11 2 13.5 5.5t2.5 14.5v561q0 11 -2.5 15t-13.5 5l-63 7v55h502v-165l-68 4l-14 77q-3 13 -17 13h-232v-252h267v-72h-267v-258h254q8 0 11 1.5t5 9.5l16 87h67v-169h-524z" />
    <glyph glyph-name="F" unicode="F" horiz-adv-x="603" 
d="M61 0v54l63 7q11 2 13.5 5.5t2.5 14.5v561q0 11 -2.5 15t-13.5 5l-63 7v55h498v-165l-68 4l-14 77q-3 13 -17 13h-228v-249h263v-72h-263v-250q0 -12 2.5 -15t13.5 -5l147 -8v-54h-334z" />
    <glyph glyph-name="G" unicode="G" horiz-adv-x="738" 
d="M674 278q-9 -1 -12.5 -4t-3.5 -13v-232q-23 -11 -52 -19t-60.5 -13t-64.5 -7t-63 -2q-101 0 -171.5 28.5t-114.5 79t-64 120t-20 151.5q0 80 22.5 147.5t67.5 117t112.5 77.5t157.5 28q64 0 124 -14t98 -40v-159l-68 5l-16 93q-2 7 -4 11.5t-10 6.5q-26 9 -60.5 15.5
t-69.5 6.5q-59 0 -107 -20t-81.5 -57.5t-51.5 -92.5t-18 -125q0 -149 72 -226.5t214 -77.5q27 0 63 4.5t60 10.5q7 2 10.5 5t3.5 12v177h-136l11 65h274v-55z" />
    <glyph glyph-name="H" unicode="H" horiz-adv-x="808" 
d="M497 0v54l63 7q11 2 13.5 5.5t2.5 14.5v256h-344v-255q0 -12 2.5 -15t13.5 -5l67 -8v-54h-254v54l63 7q11 2 13.5 5.5t2.5 14.5v562q0 11 -2.5 15t-13.5 5l-63 7v54h254v-54l-67 -8q-11 -2 -13.5 -5t-2.5 -14v-234h344v234q0 11 -2.5 15t-13.5 5l-63 7v54h254v-54l-67 -8
q-11 -2 -13.5 -5t-2.5 -14v-561q0 -12 2.5 -15t13.5 -5l67 -8v-54h-254z" />
    <glyph glyph-name="I" unicode="I" horiz-adv-x="382" 
d="M56 0v54l73 7q11 1 13.5 5t2.5 15v562q0 11 -2.5 15t-13.5 5l-73 7v54h274v-54l-77 -8q-11 -2 -13.5 -5t-2.5 -14v-561q0 -12 2.5 -15t13.5 -5l77 -8v-54h-274z" />
    <glyph glyph-name="J" unicode="J" horiz-adv-x="504" 
d="M291 644q0 11 -3 14.5t-13 4.5l-85 7v54h276v-54l-67 -8q-11 -2 -13.5 -4.5t-2.5 -13.5v-497q0 -81 -39 -120t-127 -39q-28 0 -54.5 3.5t-48 9t-37.5 11.5t-24 11v138l68 -4l10 -69q1 -9 12 -14q8 -3 25.5 -7.5t43.5 -4.5q47 0 63 22t16 69v491z" />
    <glyph glyph-name="K" unicode="K" horiz-adv-x="735" 
d="M451 0v54l69 8l-210 278l-78 -85v-173q0 -12 2.5 -15t13.5 -5l67 -8v-54h-254v54l63 7q11 2 13.5 5.5t2.5 14.5v562q0 11 -2.5 15t-13.5 5l-63 7v54h254v-54l-67 -8q-11 -2 -13.5 -5t-2.5 -14v-286l278 304l-62 8v55h225v-54l-51 -9q-14 -2 -18.5 -5.5t-11.5 -11.5
l-217 -234l246 -330q7 -9 11.5 -11.5t17.5 -4.5l61 -10v-54h-260z" />
    <glyph glyph-name="L" unicode="L" horiz-adv-x="619" 
d="M61 0v54l63 7q11 2 13.5 5.5t2.5 14.5v561q0 11 -2.5 15t-13.5 5l-63 7v55h270v-55l-83 -8q-11 -1 -13.5 -4.5t-2.5 -14.5v-571h254q8 0 11 1.5t5 9.5l16 90h67v-172h-524z" />
    <glyph glyph-name="M" unicode="M" horiz-adv-x="952" 
d="M623 0v54l83 7q11 1 13.5 5t2.5 15v496l-201 -407h-97l-194 406v-494q0 -12 2.5 -15t13.5 -5l87 -8v-54h-272v54l63 7q11 2 13.5 5.5t2.5 14.5v561q0 11 -2.5 15t-13.5 5l-63 7v55h194l220 -475l228 475h192v-54l-67 -8q-11 -2 -13.5 -5t-2.5 -14v-562q0 -10 3 -13.5
t13 -5.5l67 -8v-54h-272z" />
    <glyph glyph-name="N" unicode="N" horiz-adv-x="828" 
d="M586 0l-365 605v-523q0 -12 2.5 -15t13.5 -5l67 -8v-54h-243v54l63 7q11 2 13.5 5.5t2.5 14.5v562q0 11 -2.5 15t-13.5 5l-63 7v55h196l356 -601v519q0 11 -2.5 15t-13.5 5l-63 7v54h242v-54l-67 -8q-11 -2 -13.5 -5t-2.5 -14v-643h-107z" />
    <glyph glyph-name="O" unicode="O" horiz-adv-x="777" 
d="M384 -12q-87 0 -150 28t-104 78t-60.5 119.5t-19.5 152.5q0 80 22.5 147.5t66 117.5t109 78t150.5 28t147 -28t102.5 -76.5t60 -114.5t19.5 -141q0 -88 -21.5 -160t-64 -123t-107 -78.5t-150.5 -27.5zM389 65q54 0 99 18t77 55.5t49.5 94.5t17.5 134q0 145 -63.5 219
t-172.5 74q-55 0 -101 -19t-79.5 -56t-52 -92t-18.5 -127q0 -75 17.5 -131.5t49.5 -94t77 -56.5t100 -19z" />
    <glyph glyph-name="P" unicode="P" horiz-adv-x="651" 
d="M61 0v54l63 7q11 2 13.5 5.5t2.5 14.5v561q0 11 -2.5 15t-13.5 5l-63 7v55h309q69 0 115.5 -17t74.5 -46.5t39.5 -68t11.5 -81.5q0 -64 -19 -109.5t-54.5 -74t-86.5 -41.5t-114 -13h-106v-191q0 -12 2.5 -15t13.5 -5l143 -8v-54h-329zM329 346q38 0 72 5.5t59.5 23
t40.5 49t15 83.5q0 79 -43.5 111.5t-130.5 32.5h-111v-305h98z" />
    <glyph glyph-name="Q" unicode="Q" horiz-adv-x="777" 
d="M583 -164q-17 -10 -44.5 -16.5t-56.5 -6.5q-76 0 -106 33t-30 91q0 16 1 29.5t3 23.5q-78 5 -134.5 35t-93 79.5t-54.5 116t-18 145.5q0 80 22.5 147.5t66 117.5t109 78t150.5 28q86 0 148 -28t102 -76.5t59.5 -114.5t19.5 -141q0 -82 -18.5 -149.5t-55 -117.5t-91 -80.5
t-126.5 -38.5q-3 -20 -3 -42q0 -31 13.5 -48t49.5 -17q20 0 37.5 4t29.5 9zM389 65q55 0 99.5 18t76.5 55.5t49.5 94.5t17.5 134q0 145 -63 219t-172 74q-55 0 -101.5 -19t-80 -56t-52 -92t-18.5 -127q0 -75 17.5 -131.5t49.5 -94t77 -56.5t100 -19z" />
    <glyph glyph-name="R" unicode="R" horiz-adv-x="680" 
d="M413 0v54l79 6l-83 207q-10 24 -24 33t-44 9h-110v-227q0 -12 2.5 -15t13.5 -5l66 -8v-54h-252v54l63 7q11 2 13.5 5.5t2.5 14.5v561q0 11 -2.5 15t-13.5 5l-63 7v55h306q68 0 111.5 -17t69 -45t35.5 -63t10 -71q0 -80 -39 -126.5t-100 -68.5q25 -11 35 -28t21 -45
l68 -175q5 -12 12.5 -16.5t18.5 -6.5l61 -9v-53h-257zM323 381q36 0 67.5 6t55 22.5t37.5 44.5t14 71q0 38 -12 62.5t-36 38.5t-59 19.5t-81 5.5h-78v-270h92z" />
    <glyph glyph-name="S" unicode="S" horiz-adv-x="584" 
d="M440 538l-15 85q-2 11 -4.5 15t-6.5 6q-11 6 -33.5 11.5t-61.5 5.5q-78 0 -115.5 -31t-37.5 -85q0 -31 12.5 -52t33.5 -35.5t48.5 -25t57.5 -19.5q38 -12 75.5 -25.5t68.5 -37t50 -59.5t19 -92q0 -58 -21.5 -98.5t-57.5 -65.5t-84 -36t-102 -11q-34 0 -67 4t-60.5 9.5
t-49 12t-33.5 12.5v164h67l19 -88q2 -10 5.5 -14t14.5 -8t39.5 -10.5t72.5 -6.5q77 0 120 30t43 96q0 33 -12 55.5t-32 37.5t-47 25t-56 19q-38 11 -76.5 23.5t-70 34.5t-51.5 57t-20 92q0 54 19.5 92.5t53.5 63t80 36.5t98 12q63 0 111.5 -12.5t74.5 -22.5v-170z" />
    <glyph glyph-name="T" unicode="T" horiz-adv-x="660" 
d="M165 0v55l103 7q11 1 13.5 5t2.5 15v571h-155q-8 0 -11 -1.5t-5 -9.5l-16 -87h-67v169h600v-169h-67l-16 87q-2 8 -5 9.5t-11 1.5h-155v-571q0 -11 2.5 -14.5t13.5 -4.5l110 -8v-55h-337z" />
    <glyph glyph-name="U" unicode="U" horiz-adv-x="788" 
d="M571 643q0 11 -2.5 15t-13.5 5l-63 7v54h248v-54l-67 -8q-11 -2 -13.5 -5t-2.5 -14v-401q0 -131 -69 -192.5t-198 -61.5q-139 0 -199 65t-60 191v399q0 11 -2.5 15t-13.5 5l-63 7v54h254v-54l-67 -8q-11 -2 -13.5 -5t-2.5 -14v-388q0 -102 42.5 -145.5t130.5 -43.5
q89 0 132 41t43 145v391z" />
    <glyph glyph-name="V" unicode="V" horiz-adv-x="693" 
d="M291 0l-213 642q-3 9 -9 12t-15 5l-45 11l10 54h234v-54l-82 -9l183 -582l187 582l-81 9l10 54h218v-54l-42 -11q-9 -2 -15.5 -6t-9.5 -13l-206 -640h-124z" />
    <glyph glyph-name="W" unicode="W" horiz-adv-x="993" 
d="M628 0l-126 464l-134 -464h-114l-166 641q-2 10 -6.5 13.5t-13.5 5.5l-59 10l10 54h251v-54l-89 -10l134 -561l136 479h103l136 -487l141 569l-91 10l10 54h234v-54l-52 -9q-11 -2 -15 -5.5t-7 -14.5l-161 -641h-121z" />
    <glyph glyph-name="X" unicode="X" horiz-adv-x="699" 
d="M432 0v54l76 9l-167 246l-164 -246l73 -9v-54h-228v52l53 11q15 4 25 19l192 282l-188 278q-5 8 -10 11.5t-14 5.5l-47 11l10 54h229v-54l-75 -9l153 -233l158 233l-74 9l10 54h208v-54l-44 -11q-9 -2 -14 -6.5t-11 -12.5l-183 -267l204 -291q5 -8 10 -11.5t14 -5.5
l52 -11v-54h-248z" />
    <glyph glyph-name="Y" unicode="Y" horiz-adv-x="619" 
d="M159 0v54l95 7q11 1 13.5 5t2.5 15v199l-200 362q-5 8 -10 11.5t-14 5.5l-45 11l10 54h224v-54l-75 -9l159 -299l154 299l-74 9l10 54h209v-54l-42 -11q-8 -2 -14 -6.5t-11 -12.5l-189 -357v-201q0 -12 2.5 -15t13.5 -5l100 -8v-54h-319z" />
    <glyph glyph-name="Z" unicode="Z" horiz-adv-x="644" 
d="M50 0v61l416 592h-300q-8 0 -11 -1.5t-5 -9.5l-19 -93l-68 -3v178h515v-63l-413 -590h320q8 0 11 1.5t5 9.5l19 107h68v-189h-538z" />
    <glyph glyph-name="bracketleft" unicode="[" horiz-adv-x="262" 
d="M62 -143v867h169v-53l-67 -9q-11 -2 -13.5 -5t-2.5 -14v-703q0 -11 2.5 -14.5t13.5 -5.5l67 -9v-54h-169z" />
    <glyph glyph-name="backslash" unicode="\" horiz-adv-x="377" 
d="M293 -92l-280 847h82l281 -847h-83z" />
    <glyph glyph-name="bracketright" unicode="]" horiz-adv-x="262" 
d="M30 -143v54l67 9q11 2 13.5 5.5t2.5 14.5v703q0 11 -2.5 14t-13.5 5l-67 9v53h169v-867h-169z" />
    <glyph glyph-name="asciicircum" unicode="^" horiz-adv-x="550" 
d="M430 299l-158 285l-155 -285h-87l197 365h93l200 -365h-90z" />
    <glyph glyph-name="underscore" unicode="_" 
d="M0 -181v68h500v-68h-500z" />
    <glyph glyph-name="grave" unicode="`" 
d="M311 567l-176 141l61 60l154 -164z" />
    <glyph glyph-name="a" unicode="a" horiz-adv-x="541" 
d="M380 0l-9 65l-3 1q-36 -34 -79.5 -56t-101.5 -22q-47 0 -75 14t-42.5 35t-19 45t-4.5 43q0 75 45.5 112t136.5 45l135 11v53q0 27 -3.5 47.5t-14.5 34t-30.5 20.5t-52.5 7q-23 0 -42 -1.5t-33.5 -9t-22.5 -23t-8 -43.5l-86 9q0 46 19 73t48 41.5t62.5 18.5t63.5 4
q53 0 89.5 -8.5t59 -29t32 -54.5t9.5 -86v-265q0 -12 2.5 -15t13.5 -5l51 -7v-54h-140zM363 230l-113 -10q-64 -6 -87 -26t-23 -59q0 -41 17.5 -58.5t52.5 -17.5q22 0 44.5 8t42.5 19.5t37 25t29 24.5v94z" />
    <glyph glyph-name="b" unicode="b" horiz-adv-x="595" 
d="M84 0q5 28 8.5 67.5t3.5 75.5v519q0 17 -13 21l-59 19l9 53h154v-289q35 23 76.5 40.5t94.5 17.5q42 0 77 -14t59.5 -44t38.5 -77t14 -113q0 -77 -15 -132t-43 -89.5t-67 -50.5t-86 -16q-90 0 -155 62l-3 -2l-5 -48h-89zM187 128q24 -23 60 -44t77 -21q71 0 101 55
t30 150q0 97 -34 138.5t-87 41.5q-44 0 -82.5 -18.5t-64.5 -37.5v-264z" />
    <glyph glyph-name="c" unicode="c" horiz-adv-x="486" 
d="M455 30q-29 -19 -75 -30.5t-96 -11.5q-64 0 -110 19t-76 53.5t-44 83t-14 107.5q0 71 19.5 122.5t54.5 85t83 49.5t105 16q55 0 95 -11.5t57 -19.5v-133l-67 3l-12 66q-1 5 -3 8.5t-9 5.5q-11 4 -29 6.5t-39 2.5q-33 0 -62.5 -10.5t-51 -33.5t-34 -60t-12.5 -91
q0 -52 12 -89t33.5 -60.5t51.5 -34t66 -10.5q38 0 72.5 10t55.5 23z" />
    <glyph glyph-name="d" unicode="d" horiz-adv-x="594" 
d="M425 0l-8 66l-4 1q-35 -33 -76 -56t-100 -23q-43 0 -77.5 14.5t-59.5 45.5t-38.5 80t-13.5 118q0 74 16 126.5t43.5 86.5t66 49.5t83.5 15.5t84.5 -13.5t68.5 -34.5v187q0 16 -13 20l-60 19l9 53h153v-674q0 -12 2.5 -15t13.5 -5l51 -7v-54h-141zM408 395
q-23 19 -60 36.5t-77 17.5q-35 0 -60 -14.5t-40.5 -41t-23 -63.5t-7.5 -82q0 -52 8.5 -87.5t24 -57t37 -30.5t47.5 -9q45 0 81.5 25t69.5 58v248z" />
    <glyph glyph-name="e" unicode="e" horiz-adv-x="511" 
d="M462 33q-38 -21 -83 -33t-99 -12q-68 0 -114 21t-74 57t-40 85t-12 105q0 69 18 119.5t49 83.5t72.5 49t88.5 16q46 0 84 -13t65 -41.5t42 -74t15 -110.5q0 -10 -0.5 -23.5t-1.5 -26.5h-336q1 -38 10 -69t27 -53.5t46.5 -35t69.5 -12.5q42 0 73 8t71 28zM383 304
q-1 43 -10.5 71t-25 45t-36 24t-43.5 7q-25 0 -47.5 -7.5t-40 -24.5t-29 -45t-14.5 -70h246z" />
    <glyph glyph-name="f" unicode="f" horiz-adv-x="406" 
d="M40 0v55l64 6q11 1 13.5 5t2.5 15v354q0 5 -1 7.5t-7 2.5h-72v69h80v76q0 88 44.5 132t138.5 44q31 0 58 -4.5t47.5 -17.5t32.5 -36.5t12 -60.5l-85 -12q0 40 -17 51.5t-52 11.5q-28 0 -45 -7.5t-26.5 -21t-13 -33t-3.5 -43.5v-69q0 -5 1 -7.5t7 -2.5h164v-69h-172v-362
q0 -12 2.5 -15.5t13.5 -4.5l117 -9v-54h-304z" />
    <glyph glyph-name="g" unicode="g" horiz-adv-x="544" 
d="M441 443q16 -20 26.5 -44.5t10.5 -59.5q0 -44 -16 -78.5t-44 -58t-66 -35.5t-82 -12q-53 0 -85 12l-45 -87l123 -7q68 -4 117 -9t81 -19t47.5 -39.5t15.5 -69.5q0 -75 -64 -118t-195 -43q-65 0 -109.5 8.5t-72 24.5t-39.5 38.5t-12 51.5q0 37 17.5 62t43.5 51
q-44 14 -44 54q0 13 5.5 26t16.5 29q12 17 26.5 35.5t28.5 36.5q-33 18 -54 54.5t-21 87.5q0 42 15 77t42.5 60t68 39t91.5 14q27 0 50 -2.5t39 -7.5h178v-64zM389 343q0 51 -31 79.5t-88 28.5q-55 0 -90 -27.5t-35 -86.5q0 -44 28 -75.5t94 -31.5q57 0 89.5 30.5t32.5 82.5
zM166 -5q-14 -14 -29 -35.5t-15 -47.5q0 -41 40 -53.5t114 -13.5q20 0 46.5 2.5t50.5 11t41 25t17 45.5q0 18 -7 28t-20.5 16t-33 8.5t-43.5 4.5z" />
    <glyph glyph-name="h" unicode="h" horiz-adv-x="630" 
d="M375 0v55l48 6q18 1 18 20v233q0 28 -3 52t-12 42t-25.5 28.5t-43.5 10.5q-45 0 -87 -21t-71 -44v-301q0 -12 2.5 -15t13.5 -5l56 -7v-54h-229v55l50 6q11 2 13.5 5.5t2.5 14.5v581q0 17 -13 21l-60 19l9 53h154v-297q35 25 79 45.5t101 20.5q81 0 117.5 -48.5
t36.5 -133.5v-261q0 -12 2.5 -15t13.5 -5l57 -7v-54h-230z" />
    <glyph glyph-name="i" unicode="i" horiz-adv-x="297" 
d="M204 689q0 -64 -64 -64q-31 0 -48 16.5t-17 47.5q0 30 17 46.5t48 16.5t47.5 -16.5t16.5 -46.5zM26 0v55l66 6q11 1 13.5 5t2.5 15v340q0 17 -13 21l-57 19l9 53h152v-433q0 -12 2.5 -15t13.5 -5l64 -7v-54h-253z" />
    <glyph glyph-name="j" unicode="j" horiz-adv-x="284" 
d="M106 421q0 17 -13 21l-64 19l9 53h159v-579q0 -81 -35 -119.5t-109 -38.5q-47 0 -84.5 13.5t-55.5 28.5l36 59q13 -10 37.5 -19.5t52.5 -9.5q40 0 53.5 25t13.5 79v468zM204 689q0 -31 -17 -47.5t-48 -16.5q-30 0 -47 16.5t-17 47.5q0 30 17 46.5t47 16.5q31 0 48 -16.5
t17 -46.5z" />
    <glyph glyph-name="k" unicode="k" horiz-adv-x="591" 
d="M345 0v54l63 8l-125 207l-84 -94v-94q0 -12 2.5 -15t13.5 -5l60 -7v-54h-245v55l62 6q11 1 13.5 5t2.5 15v581q0 17 -13 21l-60 19l9 53h155v-481l212 240h111v-54l-57 -12q-9 -2 -13.5 -4.5t-11.5 -10.5l-91 -102l152 -252q6 -9 11 -11.5t18 -4.5l52 -9v-54h-237z" />
    <glyph glyph-name="l" unicode="l" horiz-adv-x="297" 
d="M30 0v55l62 6q11 1 13.5 5t2.5 15v581q0 17 -13 21l-60 19l9 53h155v-674q0 -12 2.5 -15t13.5 -5l60 -7v-54h-245z" />
    <glyph glyph-name="m" unicode="m" horiz-adv-x="912" 
d="M657 0v55l48 6q18 1 18 20v241q0 24 -3.5 46t-12.5 39t-25.5 27.5t-43.5 10.5q-41 0 -75 -16t-57 -33q3 -27 3 -61v-254q0 -12 2.5 -15t13.5 -5l49 -7v-54h-222v55l48 6q18 1 18 20v242q0 21 -1.5 43t-9 39.5t-23 28.5t-42.5 11q-39 0 -76.5 -19.5t-66.5 -42.5v-302
q0 -12 2.5 -15t13.5 -5l54 -7v-54h-227v55l50 6q11 2 13.5 5.5t2.5 14.5v340q0 17 -13 21l-57 19l9 53h131l8 -59l3 -1q40 31 80 50.5t97 19.5q36 0 70 -14.5t53 -49.5q33 24 77 44t100 20q43 0 71.5 -12.5t45.5 -36.5t24 -58.5t7 -78.5v-257q0 -12 2.5 -15t13.5 -5l57 -7
v-54h-230z" />
    <glyph glyph-name="n" unicode="n" horiz-adv-x="630" 
d="M375 0v55l48 6q18 1 18 20v237q0 24 -3 47t-12.5 41t-26.5 29t-45 11q-43 0 -82.5 -18.5t-72.5 -45.5v-301q0 -12 2.5 -15t13.5 -5l56 -7v-54h-229v55l50 6q11 2 13.5 5.5t2.5 14.5v340q0 17 -13 21l-57 19l9 53h131l8 -59l3 -1q39 28 85 49t100 21q43 0 73 -13.5
t49 -37.5t27.5 -57.5t8.5 -74.5v-260q0 -12 2.5 -15t13.5 -5l57 -7v-54h-230z" />
    <glyph glyph-name="o" unicode="o" horiz-adv-x="568" 
d="M281 -12q-65 0 -111 20t-75 56t-42 85.5t-13 109.5q0 59 15 107.5t46 83.5t78.5 54.5t111.5 19.5t109 -19.5t73.5 -54t41.5 -82t13 -103.5q0 -63 -14.5 -114t-45 -87.5t-77 -56t-110.5 -19.5zM284 61q73 0 111.5 47.5t38.5 150.5q0 99 -36 144t-109 45q-74 0 -114.5 -45
t-40.5 -145q0 -197 150 -197z" />
    <glyph glyph-name="p" unicode="p" horiz-adv-x="605" 
d="M49 -212v55l41 6q11 2 14 5.5t3 14.5v552q0 17 -13 21l-57 19l9 53h132l9 -58l3 -1q42 31 85 50t94 19q42 0 76.5 -14t59.5 -44t38.5 -77t13.5 -113q0 -56 -10.5 -108t-34.5 -92t-64 -64t-99 -24q-43 0 -80 12t-72 43v-173q0 -12 2.5 -15.5t13.5 -4.5l94 -8v-54h-258z
M197 128q26 -25 61.5 -45t75.5 -20q71 0 101 55.5t30 149.5q0 51 -9 85.5t-25 55t-37 29.5t-44 9q-24 0 -47 -6.5t-43 -16t-36 -20t-27 -19.5v-257z" />
    <glyph glyph-name="q" unicode="q" horiz-adv-x="583" 
d="M320 -212v54l75 7q11 1 14 5t3 15v195l-3 1q-32 -30 -72 -53.5t-97 -23.5q-43 0 -78.5 14.5t-61 45t-39 79.5t-13.5 118q0 74 16 126.5t43.5 86.5t65.5 50t82 16q48 0 87.5 -14.5t68.5 -37.5l11 42h86q-5 -38 -7.5 -71.5t-2.5 -67.5v-506q0 -11 2.5 -14.5t13.5 -5.5
l51 -6v-55h-245zM407 395q-23 20 -60 37t-77 17q-35 0 -60 -14.5t-40.5 -41t-22.5 -63t-7 -81.5q0 -52 8.5 -87.5t23.5 -57.5t36.5 -31t47.5 -9q45 0 83 27t68 61v243z" />
    <glyph glyph-name="r" unicode="r" horiz-adv-x="433" 
d="M42 0v55l50 6q11 2 13.5 5.5t2.5 14.5v340q0 17 -13 21l-57 19l9 53h131l10 -69l3 -1q12 14 27.5 28t34.5 25.5t41 19t47 7.5q17 0 37.5 -2.5t34.5 -6.5v-151l-71 3l-12 69q-1 10 -12 10q-17 0 -34.5 -6.5t-33.5 -16.5t-29 -21t-22 -19v-301q0 -12 2.5 -15.5t13.5 -4.5
l92 -8v-54h-265z" />
    <glyph glyph-name="s" unicode="s" horiz-adv-x="460" 
d="M343 371l-12 62q-1 5 -2.5 8t-7.5 5q-11 4 -31.5 7.5t-46.5 3.5q-55 0 -80.5 -21.5t-25.5 -53.5q0 -21 10.5 -35t27.5 -23t40 -15.5t47 -12.5q29 -7 58.5 -16.5t52.5 -26t37.5 -42.5t14.5 -67q0 -43 -17 -73t-45 -48.5t-64.5 -26.5t-76.5 -8q-30 0 -59.5 4t-54.5 9
t-42.5 11t-24.5 10v133l67 -4l12 -69q1 -5 3 -8.5t9 -5.5q10 -4 35 -10t63 -6q51 0 80.5 19t29.5 60q0 23 -10 37.5t-26.5 24t-38.5 15.5t-46 12q-29 7 -58.5 15.5t-53.5 24t-39 41.5t-15 67q0 43 16.5 72.5t44.5 48t63.5 27t74.5 8.5q27 0 52 -3t46 -7.5t36.5 -9.5t23.5 -8
v-129z" />
    <glyph glyph-name="t" unicode="t" horiz-adv-x="412" 
d="M384 19q-30 -12 -65.5 -21.5t-73.5 -9.5q-72 0 -105.5 33.5t-33.5 101.5v312q0 5 -1 7.5t-7 2.5h-73v58q29 4 48.5 12.5t32.5 24.5t20 42t12 64h59v-122q0 -5 1 -7.5t7 -2.5h147v-69h-155v-295q0 -48 14.5 -67.5t57.5 -19.5q23 0 48 6t45 14z" />
    <glyph glyph-name="u" unicode="u" horiz-adv-x="627" 
d="M452 0l-8 68l-2 1q-17 -15 -37 -29.5t-43.5 -26t-51.5 -18.5t-61 -7q-41 0 -69 12.5t-44.5 35.5t-23.5 57t-7 77v254q0 12 -2.5 16.5t-13.5 6.5l-52 13l8 54h151v-323q0 -66 15 -97.5t63 -31.5q26 0 49 8t43.5 20.5t38 28t30.5 30.5v276q0 12 -2.5 16t-13.5 6l-50 13
l8 54h149v-432q0 -20 14 -21l53 -7v-54h-141z" />
    <glyph glyph-name="v" unicode="v" horiz-adv-x="579" 
d="M241 0l-169 433q-4 9 -8 12t-13 5l-43 9l12 55h210v-55l-69 -8l135 -373l137 373l-67 8l11 55h194v-55l-33 -6q-11 -2 -16 -5t-9 -12l-168 -436h-104z" />
    <glyph glyph-name="w" unicode="w" horiz-adv-x="840" 
d="M529 0l-96 396l-110 -396h-110l-141 433q-3 9 -7.5 12t-13.5 5l-43 9l12 55h201v-55l-64 -8l112 -359l115 407h105l97 -406l111 358l-65 8l11 55h189v-55l-36 -6q-13 -2 -17.5 -6t-7.5 -14l-135 -433h-107z" />
    <glyph glyph-name="x" unicode="x" horiz-adv-x="574" 
d="M327 0v54l62 9l-111 145l-115 -145l66 -9v-54h-218v54l53 10q8 2 12.5 5t11.5 11l142 177l-136 174q-7 8 -11 11t-13 6l-44 11l10 55h210v-55l-62 -8l106 -136l110 136l-63 8l10 55h194v-55l-46 -10q-9 -3 -14 -7t-11 -12l-132 -163l145 -185q7 -8 12 -12t14 -6l55 -10
v-54h-237z" />
    <glyph glyph-name="y" unicode="y" horiz-adv-x="582" 
d="M98 -212v55l72 9q9 1 13 5.5t9 15.5l58 133l-180 426q-4 9 -8 12t-13 5l-41 10l12 55h207v-55l-66 -8l133 -336l139 336l-68 8l11 55h198v-55l-34 -5q-9 -2 -15 -5.5t-10 -11.5l-243 -585l97 -10v-54h-271z" />
    <glyph glyph-name="z" unicode="z" horiz-adv-x="488" 
d="M39 0v54l299 393h-198q-6 0 -8 -4t-3 -9l-12 -63l-68 -4v147h400v-56l-297 -391h211q7 0 8.5 4t2.5 9l12 74l69 3v-157h-416z" />
    <glyph glyph-name="braceleft" unicode="{" horiz-adv-x="290" 
d="M251 -147q-44 3 -75.5 10.5t-52 22t-30 37t-9.5 56.5q0 42 6.5 93t6.5 99q0 27 -6.5 44t-18 26.5t-27 13t-33.5 4.5v59q18 1 33.5 4.5t27 13t18 26.5t6.5 44q0 48 -6.5 100.5t-6.5 94.5q0 34 9.5 56.5t30 37t52 22t75.5 10.5l10 -58q-24 -5 -40.5 -10t-26.5 -12.5
t-14.5 -19t-4.5 -30.5q0 -40 6.5 -91t6.5 -101q0 -29 -5.5 -48.5t-15 -33t-21.5 -21.5t-26 -14q14 -6 26 -14t21.5 -21t15 -32.5t5.5 -48.5q0 -50 -6.5 -99t-6.5 -90q0 -19 4.5 -30.5t14.5 -19t26.5 -12.5t40.5 -10z" />
    <glyph glyph-name="bar" unicode="|" horiz-adv-x="280" 
d="M99 -143v898h82v-898h-82z" />
    <glyph glyph-name="braceright" unicode="}" horiz-adv-x="290" 
d="M29 -89q24 5 40.5 10t26.5 12.5t14.5 19t4.5 30.5q0 41 -6.5 90t-6.5 99q0 29 5.5 48.5t15 32.5t22 21t25.5 14q-13 6 -25.5 14t-22 21.5t-15 33t-5.5 48.5q0 50 6.5 101t6.5 91q0 19 -4.5 30.5t-14.5 19t-26.5 12.5t-40.5 10l10 58q44 -3 76 -10.5t52 -22t29.5 -37
t9.5 -56.5q0 -42 -6.5 -94.5t-6.5 -100.5q0 -27 6.5 -44t18 -26.5t27 -13t33.5 -4.5v-59q-18 -1 -33.5 -4.5t-27 -13t-18 -26.5t-6.5 -44q0 -48 6.5 -99t6.5 -93q0 -34 -9.5 -56.5t-29.5 -37t-52 -22t-76 -10.5z" />
    <glyph glyph-name="asciitilde" unicode="~" horiz-adv-x="482" 
d="M466 407q-11 -50 -31.5 -81t-67.5 -31q-27 0 -57.5 7t-60.5 16t-58 16t-50 7q-24 0 -39 -12.5t-32 -40.5l-51 23q19 46 45 76t71 30q29 0 58 -7t57.5 -16t55.5 -16t51 -7t34.5 13t20.5 41z" />
    <glyph glyph-name="uni00A0" unicode="&#xa0;" horiz-adv-x="222" 
 />
    <glyph glyph-name="sterling" unicode="&#xa3;" horiz-adv-x="552" 
d="M50 0l-13 59q29 22 44 43.5t22.5 47t8.5 57.5t1 76v14h-80v71h80v63q0 45 10.5 84.5t35.5 69t66.5 46.5t102.5 17q34 0 65 -5.5t55 -21.5t38.5 -45t14.5 -75l-84 -12q0 51 -21 67.5t-69 16.5q-63 0 -92.5 -34.5t-29.5 -112.5v-58h181v-71h-181q0 -39 -1 -70.5t-7 -59
t-19 -51.5t-37 -48h263q8 0 10.5 2t4.5 9l16 85h66v-164h-451z" />
    <glyph glyph-name="currency" unicode="&#xa4;" horiz-adv-x="570" 
d="M504 7l-90 88q-26 -18 -57.5 -27t-72.5 -9q-42 0 -75 10t-59 28l-90 -90l-57 59l93 93q-14 27 -22 59.5t-8 64.5q0 30 8.5 59.5t23.5 57.5l-92 91l61 61l88 -87q26 20 60.5 30.5t74.5 10.5t74.5 -10.5t60.5 -28.5l84 84l58 -59l-88 -88q14 -25 21.5 -55t7.5 -62
q0 -35 -9 -68t-26 -61l93 -92zM289 136q31 0 55 11.5t40 31.5t24 46.5t8 57.5q0 68 -32.5 106t-97.5 38q-63 0 -95 -40.5t-32 -103.5q0 -31 7.5 -57.5t23 -46.5t40.5 -31.5t59 -11.5z" />
    <glyph glyph-name="brokenbar" unicode="&#xa6;" horiz-adv-x="280" 
d="M99 -143v388h82v-388h-82zM99 408v347h82v-347h-82z" />
    <glyph glyph-name="section" unicode="&#xa7;" horiz-adv-x="548" 
d="M80 19l67 -4l12 -64q1 -5 2.5 -8t8.5 -5q10 -4 36 -10t57 -6q47 0 73.5 19t26.5 61q0 23 -11.5 38t-31 25t-44.5 17t-51 14q-28 8 -54.5 17.5t-47.5 25t-34 40t-13 60.5q0 45 22.5 79t51.5 55q-23 17 -36.5 42t-13.5 63q0 40 15.5 68.5t42 46.5t61 26.5t72.5 8.5
q58 0 100 -10.5t58 -17.5v-129l-67 4l-11 63q-1 10 -13 14q-11 4 -29 7t-46 3q-54 0 -76.5 -22t-22.5 -54q0 -21 10.5 -34.5t28 -23.5t40.5 -16.5t48 -13.5q29 -8 57.5 -18t51.5 -26.5t37.5 -42t14.5 -65.5q0 -45 -22.5 -77t-51.5 -53q22 -16 36 -39.5t14 -58.5
q0 -45 -16 -76t-42.5 -49.5t-61 -26.5t-71.5 -8q-28 0 -57 4t-53.5 9.5t-42.5 11t-24 9.5v127zM211 343q-24 -15 -39 -39t-15 -47q0 -19 7.5 -32.5t20.5 -23t30.5 -16.5t37.5 -13t41.5 -12.5t41.5 -13.5q25 15 39 38.5t14 53.5q0 35 -25.5 51.5t-61.5 27.5q-23 7 -46.5 13
t-44.5 13z" />
    <glyph glyph-name="dieresis" unicode="&#xa8;" 
d="M204 660q0 -25 -15 -40t-41 -15q-25 0 -40.5 15t-15.5 40q0 26 15.5 40.5t40.5 14.5q26 0 41 -14.5t15 -40.5zM406 660q0 -25 -15 -40t-41 -15t-41 15t-15 40q0 26 15 40.5t41 14.5t41 -14.5t15 -40.5z" />
    <glyph glyph-name="copyright" unicode="&#xa9;" horiz-adv-x="762" 
d="M713 319q0 -75 -24.5 -136t-68 -104.5t-104.5 -67.5t-135 -24q-82 0 -144.5 24.5t-104 67t-62.5 101t-21 125.5q0 78 26 139.5t71.5 104t106.5 65t130 22.5q77 0 138 -22.5t103.5 -63.5t65.5 -100t23 -131zM383 38q63 0 113.5 19t85.5 54.5t54 86.5t19 115
q0 66 -20.5 117t-56.5 85.5t-86 52t-109 17.5t-109 -18.5t-87 -54.5t-57.5 -88t-20.5 -118q0 -126 72.5 -197t201.5 -71zM507 144q-20 -12 -52 -18t-62 -6q-51 0 -86.5 14.5t-58 41t-33 62t-10.5 77.5t12 78t36 61.5t59.5 40t83.5 14.5q31 0 62.5 -6.5t49.5 -13.5v-105
l-44 2l-9 49q-1 9 -9 13q-12 5 -25 7.5t-33 2.5q-23 0 -44 -7.5t-36.5 -25t-24.5 -45t-9 -67.5q0 -30 6.5 -56t21 -45.5t37.5 -30.5t56 -11q35 0 52 11q6 4 9 15l12 48h39v-100z" />
    <glyph glyph-name="guillemotleft" unicode="&#xab;" horiz-adv-x="434" 
d="M144 103l-87 156l89 149h82l-75 -137q-4 -7 -4 -10t3 -9l74 -149h-82zM300 103l-87 156l89 149h82l-75 -137q-4 -7 -4 -10t3 -9l74 -149h-82z" />
    <glyph glyph-name="logicalnot" unicode="&#xac;" horiz-adv-x="570" 
d="M390 191v94h-296v81h377v-175h-81z" />
    <glyph glyph-name="uni00AD" unicode="&#xad;" horiz-adv-x="311" 
d="M20 247v89h271v-89h-271z" />
    <glyph glyph-name="registered" unicode="&#xae;" horiz-adv-x="449" 
d="M409 480q0 -41 -13.5 -75t-38 -58t-58.5 -37.5t-75 -13.5q-45 0 -79.5 13.5t-58 37.5t-35 56.5t-11.5 69.5q0 43 14.5 77t39.5 58t58.5 37t72.5 13q85 0 134.5 -48.5t49.5 -129.5zM367 477q0 70 -40 106t-102 36q-30 0 -56 -9.5t-45 -28.5t-30 -45.5t-11 -61.5
q0 -66 38 -102.5t104 -36.5t104 38t38 104zM239 384v21l19 3l-21 40q-4 7 -8 9t-12 2h-14v-46q0 -5 4 -6l16 -2v-21h-80v21l14 2q7 1 7 6v132q0 7 -6 8l-15 2v20h88q39 0 52 -16.5t13 -37.5q0 -39 -37 -52q8 -2 17 -19l20 -36q2 -5 8 -6l17 -3v-21h-82zM216 489
q16 0 28.5 5.5t12.5 24.5q0 17 -9.5 21.5t-25.5 4.5h-19v-56h13z" />
    <glyph glyph-name="macron" unicode="&#xaf;" 
d="M96 611v69h307v-69h-307z" />
    <glyph glyph-name="degree" unicode="&#xb0;" horiz-adv-x="301" 
d="M151 611q24 0 37 15t13 41t-13.5 39.5t-36.5 13.5t-37 -14t-14 -43q0 -23 13 -37.5t38 -14.5zM255 667q0 -49 -28 -77t-76 -28t-76.5 27t-28.5 74q0 51 30.5 78.5t74.5 27.5q45 0 74.5 -26.5t29.5 -75.5z" />
    <glyph glyph-name="plusminus" unicode="&#xb1;" horiz-adv-x="570" 
d="M96 0v80h377v-80h-377zM243 132v149h-147v81h147v150h83v-150h147v-81h-147v-149h-83z" />
    <glyph glyph-name="mu" unicode="&#xb5;" horiz-adv-x="629" 
d="M447 0l-8 66l-4 1q-41 -38 -74 -58.5t-76 -20.5q-35 0 -59.5 12t-38.5 31h-3l9 -207h-93v690h91v-335q0 -24 3 -46t13 -38.5t27.5 -26.5t46.5 -10q23 0 44 9t40.5 22.5t36 29.5t29.5 30v365h91v-432q0 -20 13 -21l54 -7v-54h-142z" />
    <glyph glyph-name="paragraph" unicode="&#xb6;" horiz-adv-x="562" 
d="M380 -133v712h-83v-712h-153v54l67 8q8 1 10.5 4.5t2.5 11.5v225q-100 8 -154.5 68.5t-54.5 160.5q0 68 22 114.5t60 76t88 42.5t107 13h245v-54l-67 -8q-11 -2 -13.5 -5t-2.5 -14v-619q0 -10 3 -12t13 -4l67 -8v-54h-157z" />
    <glyph glyph-name="periodcentered" unicode="&#xb7;" horiz-adv-x="194" 
d="M163 308q0 -63 -66 -63t-66 63t66 63t66 -63z" />
    <glyph glyph-name="cedilla" unicode="&#xb8;" 
d="M147 -180q15 -3 31 -3q38 0 55.5 15t17.5 39q0 21 -15.5 32.5t-54.5 12.5l15 114l58 -8l-9 -66q29 -6 51.5 -25.5t22.5 -56.5q0 -20 -7 -39.5t-23 -35t-41.5 -25.5t-63.5 -10q-11 0 -23 1t-20 3z" />
    <glyph glyph-name="guillemotright" unicode="&#xbb;" horiz-adv-x="433" 
d="M50 103l74 142q4 7 4 10t-3 9l-75 144h82l88 -153l-88 -152h-82zM206 103l74 142q4 7 4 10t-3 9l-75 144h82l88 -153l-88 -152h-82z" />
    <glyph glyph-name="multiply" unicode="&#xd7;" horiz-adv-x="570" 
d="M284 262l-104 -106l-59 58l106 106l-106 107l59 59l104 -106l106 106l58 -59l-105 -107l105 -106l-58 -58z" />
    <glyph glyph-name="divide" unicode="&#xf7;" horiz-adv-x="570" 
d="M343 167q0 -62 -64 -62t-64 62q0 61 64 61t64 -61zM96 281v80h377v-80h-377zM343 473q0 -62 -64 -62t-64 62q0 61 64 61t64 -61z" />
    <glyph glyph-name="florin" unicode="&#x192;" horiz-adv-x="496" 
d="M255 311l-39 -227q-16 -90 -54 -132.5t-120 -42.5q-37 0 -74.5 12t-55.5 26l28 62q17 -11 46 -21t57 -10q34 0 53.5 18.5t27.5 65.5l42 239q1 5 0.5 7.5t-6.5 2.5h-93l12 67h101l19 100q8 42 20.5 74t33.5 53t51 32t73 11q48 0 81.5 -11.5t51.5 -21.5l-22 -128l-61 4
l-1 67q0 5 -1.5 9t-7.5 6q-8 3 -18 5t-27 2q-44 0 -61.5 -27.5t-26.5 -74.5l-16 -90q-1 -5 0 -7.5t7 -2.5h141l-12 -67h-149z" />
    <glyph glyph-name="circumflex" unicode="&#x2c6;" 
d="M375 572l-125 101l-125 -101l-44 38l127 123h84l127 -123z" />
    <glyph glyph-name="caron" unicode="&#x2c7;" 
d="M206 578l-125 121l43 40l124 -101l126 101l44 -39l-128 -122h-84z" />
    <glyph glyph-name="uni02C9" unicode="&#x2c9;" 
d="M96 611v69h307v-69h-307z" />
    <glyph glyph-name="breve" unicode="&#x2d8;" 
d="M417 706q-17 -63 -57.5 -98t-111.5 -35t-109.5 35t-55.5 98l60 21q16 -47 41 -68t67 -21t67.5 21t42.5 69z" />
    <glyph glyph-name="dotaccent" unicode="&#x2d9;" 
d="M315 690q0 -31 -17 -47.5t-48 -16.5q-64 0 -64 64q0 30 16.5 46.5t47.5 16.5t48 -16.5t17 -46.5z" />
    <glyph glyph-name="ring" unicode="&#x2da;" 
d="M349 671q0 -45 -27 -71t-72 -26t-72 25t-27 69q0 48 28.5 73t70.5 25t70.5 -23.5t28.5 -71.5zM250 625q42 0 42 46q0 23 -11 33.5t-31 10.5t-31.5 -11t-11.5 -35q0 -44 43 -44z" />
    <glyph glyph-name="ogonek" unicode="&#x2db;" 
d="M338 -196q-47 -22 -93 -22q-42 0 -66.5 19.5t-24.5 59.5q0 26 11.5 49.5t29 44t37.5 37t36 28.5l58 -16q-13 -11 -28.5 -24.5t-29 -29.5t-22.5 -34t-9 -36q0 -32 31 -32q11 0 23.5 3.5t25.5 8.5z" />
    <glyph glyph-name="tilde" unicode="&#x2dc;" 
d="M402 638q-18 -27 -32 -38.5t-32 -11.5q-19 0 -43 7q-35 9 -70.5 19t-52.5 14q-10 1 -16 -5l-39 -38l-42 30l29 44q15 23 29 32.5t31 9.5q9 0 19 -2t23 -5q16 -4 34.5 -9t36 -9.5t32 -8t21.5 -5.5q9 -3 15 3l36 37l44 -29z" />
    <glyph glyph-name="hungarumlaut" unicode="&#x2dd;" 
d="M110 568l-42 33l135 180l66 -54zM281 568l-43 33l136 180l66 -54z" />
    <glyph glyph-name="uni0394" unicode="&#x394;" horiz-adv-x="670" 
d="M24 0l250 724h114l258 -724h-622zM139 76h390l-199 564z" />
    <glyph glyph-name="uni03A9" unicode="&#x3a9;" horiz-adv-x="815" 
d="M482 0v150q26 11 56.5 32.5t56.5 54.5t43 78t17 103q0 123 -63.5 182.5t-171.5 59.5q-54 0 -99.5 -16t-78.5 -48.5t-51.5 -80.5t-18.5 -113q0 -52 14 -93t37 -72t54 -52.5t64 -34.5v-150h-291v160h65l16 -79q2 -8 5 -9.5t11 -1.5h120v49q-94 36 -142 112t-48 173
q0 74 24 135t68.5 105t108.5 68.5t144 24.5q84 0 146 -23t102 -64t59.5 -98t19.5 -125q0 -54 -15.5 -101t-42 -86t-61.5 -69.5t-75 -51.5v-49h114q8 0 11 1.5t5 9.5l15 79h65v-160h-283z" />
    <glyph glyph-name="uni03BC" unicode="&#x3bc;" horiz-adv-x="629" 
d="M447 0l-8 66l-4 1q-41 -38 -74 -58.5t-76 -20.5q-35 0 -59.5 12t-38.5 31h-3l9 -207h-93v690h91v-335q0 -24 3 -46t13 -38.5t27.5 -26.5t46.5 -10q23 0 44 9t40.5 22.5t36 29.5t29.5 30v365h91v-432q0 -20 13 -21l54 -7v-54h-142z" />
    <glyph glyph-name="pi" unicode="&#x3c0;" horiz-adv-x="666" 
d="M455 0v442h-235v-442h-156v54l49 7q10 1 13 3.5t3 10.5v357q0 11 -2.5 15t-13.5 5l-59 7v55h570v-55l-62 -8q-11 -2 -13.5 -5t-2.5 -14v-351q0 -12 2.5 -15t13.5 -5l49 -7v-54h-156z" />
    <glyph glyph-name="afii10023" unicode="&#x401;" horiz-adv-x="635" 
d="M282 837q0 -26 -15 -40.5t-41 -14.5q-25 0 -40.5 14.5t-15.5 40.5q0 25 15.5 39.5t40.5 14.5q26 0 41 -14.5t15 -39.5zM484 837q0 -26 -15 -40.5t-41 -14.5t-41 14.5t-15 40.5q0 25 15 39.5t41 14.5t41 -14.5t15 -39.5zM61 0v54l63 7q11 2 13.5 5.5t2.5 14.5v561
q0 11 -2.5 15t-13.5 5l-63 7v55h502v-165l-68 4l-14 77q-3 13 -17 13h-232v-252h267v-72h-267v-258h254q8 0 11 1.5t5 9.5l16 87h67v-169h-524z" />
    <glyph glyph-name="afii10051" unicode="&#x402;" horiz-adv-x="811" 
d="M767 203q0 -45 -12 -84t-37 -68t-64.5 -46t-94.5 -17q-45 0 -83.5 9t-56.5 17v138h64l15 -69q2 -9 4.5 -12.5t11.5 -5.5q17 -3 34 -3q57 0 91 32.5t34 104.5q0 41 -13.5 68t-36 43.5t-51.5 23.5t-61 7q-42 0 -77.5 -5t-69.5 -12v-324h-170v54l63 7q11 2 13.5 5.5
t2.5 14.5v572h-145q-8 0 -11 -1.5t-5 -9.5l-16 -87h-67v169h627v-169h-66l-17 85q-3 13 -17 13h-192v-256q29 5 70 12t95 7q112 0 175 -55.5t63 -157.5z" />
    <glyph glyph-name="afii10052" unicode="&#x403;" horiz-adv-x="588" 
d="M240 766l-29 46l188 129l45 -74zM61 0v54l63 7q11 2 13.5 5.5t2.5 14.5v561q0 11 -2.5 15t-13.5 5l-63 7v55h490v-179l-66 3l-17 92q-3 13 -17 13h-219v-571q0 -12 2.5 -15t13.5 -5l146 -8v-54h-333z" />
    <glyph glyph-name="afii10053" unicode="&#x404;" horiz-adv-x="683" 
d="M630 41q-41 -27 -105.5 -40t-132.5 -13q-91 0 -156.5 27t-107 76.5t-61 119.5t-19.5 156q0 81 22 149t66 117t111 76.5t157 27.5q66 0 124.5 -14.5t96.5 -39.5v-160l-68 4l-17 95q-1 7 -3.5 11.5t-10.5 6.5q-26 9 -58.5 15.5t-68.5 6.5q-112 0 -179.5 -65.5t-74.5 -199.5
h311v-72h-311q8 -136 73.5 -199t177.5 -63q35 0 73 4.5t67 16.5q6 2 9 5.5t5 12.5l16 90h64v-151z" />
    <glyph glyph-name="afii10054" unicode="&#x405;" horiz-adv-x="584" 
d="M440 538l-15 85q-2 11 -4.5 15t-6.5 6q-11 6 -33.5 11.5t-61.5 5.5q-78 0 -115.5 -31t-37.5 -85q0 -31 12.5 -52t33.5 -35.5t48.5 -25t57.5 -19.5q38 -12 75.5 -25.5t68.5 -37t50 -59.5t19 -92q0 -58 -21.5 -98.5t-57.5 -65.5t-84 -36t-102 -11q-34 0 -67 4t-60.5 9.5
t-49 12t-33.5 12.5v164h67l19 -88q2 -10 5.5 -14t14.5 -8t39.5 -10.5t72.5 -6.5q77 0 120 30t43 96q0 33 -12 55.5t-32 37.5t-47 25t-56 19q-38 11 -76.5 23.5t-70 34.5t-51.5 57t-20 92q0 54 19.5 92.5t53.5 63t80 36.5t98 12q63 0 111.5 -12.5t74.5 -22.5v-170z" />
    <glyph glyph-name="afii10055" unicode="&#x406;" horiz-adv-x="392" 
d="M56 0v54l73 7q11 1 13.5 5t2.5 15v562q0 11 -2.5 15t-13.5 5l-73 7v54h274v-54l-77 -8q-11 -2 -13.5 -5t-2.5 -14v-561q0 -12 2.5 -15t13.5 -5l77 -8v-54h-274z" />
    <glyph glyph-name="afii10056" unicode="&#x407;" horiz-adv-x="382" 
d="M148 837q0 -26 -15 -40.5t-41 -14.5q-25 0 -40.5 14.5t-15.5 40.5q0 25 15.5 39.5t40.5 14.5q26 0 41 -14.5t15 -39.5zM350 837q0 -26 -15 -40.5t-41 -14.5t-41 14.5t-15 40.5q0 25 15 39.5t41 14.5t41 -14.5t15 -39.5zM56 0v54l73 7q11 1 13.5 5t2.5 15v562
q0 11 -2.5 15t-13.5 5l-73 7v54h274v-54l-77 -8q-11 -2 -13.5 -5t-2.5 -14v-561q0 -12 2.5 -15t13.5 -5l77 -8v-54h-274z" />
    <glyph glyph-name="afii10057" unicode="&#x408;" horiz-adv-x="505" 
d="M291 644q0 11 -3 14.5t-13 4.5l-85 7v54h276v-54l-67 -8q-11 -2 -13.5 -4.5t-2.5 -13.5v-497q0 -81 -39 -120t-127 -39q-28 0 -54.5 3.5t-48 9t-37.5 11.5t-24 11v138l68 -4l10 -69q1 -9 12 -14q8 -3 25.5 -7.5t43.5 -4.5q47 0 63 22t16 69v491z" />
    <glyph glyph-name="afii10058" unicode="&#x409;" horiz-adv-x="1026" 
d="M980 227q0 -61 -19.5 -104t-54 -70.5t-82.5 -40t-104 -12.5h-281v54l63 7q11 2 13.5 5.5t2.5 14.5v572h-209q0 -20 0.5 -40t0.5 -40q0 -89 -4 -168.5t-12 -147.5q-7 -59 -23 -106t-43.5 -81t-68.5 -55t-100 -28l-16 85q35 6 61 17.5t45.5 33t33 54t21.5 78.5q5 28 9 70
t6.5 92.5t3.5 107t0 114.5q0 13 -2.5 17.5t-13.5 6.5l-65 7v54h582v-53l-99 -10q-10 -1 -12.5 -5t-3.5 -15v-212h132q66 0 111.5 -15.5t74 -42.5t41 -64t12.5 -80zM711 73q36 0 68 6.5t55 23.5t36.5 45.5t13.5 73.5q0 72 -41.5 103.5t-113.5 31.5h-120v-284h102z" />
    <glyph glyph-name="afii10059" unicode="&#x40a;" horiz-adv-x="1033" 
d="M232 406h299v237q0 12 -2.5 15t-13.5 5l-63 7v54h285v-53l-99 -10q-10 -1 -12.5 -5t-3.5 -15v-235h124q66 0 112 -14t74.5 -39.5t41.5 -62t13 -81.5q0 -57 -19.5 -97t-54 -64.5t-82.5 -36t-104 -11.5h-275v54l63 7q11 2 13.5 5.5t2.5 14.5v254h-299v-253q0 -12 2.5 -15
t13.5 -5l67 -8v-54h-254v54l63 7q11 2 13.5 5.5t2.5 14.5v562q0 11 -2.5 15t-13.5 5l-63 7v54h254v-54l-67 -8q-11 -2 -13.5 -5t-2.5 -14v-237zM718 73q36 0 68 5.5t55 20t36.5 40.5t13.5 67q0 37 -11 61.5t-31 39.5t-48.5 21t-64.5 6h-114v-261h96z" />
    <glyph glyph-name="afii10060" unicode="&#x40b;" horiz-adv-x="865" 
d="M364 410q38 11 84.5 18t91.5 7q99 0 146.5 -43.5t47.5 -144.5v-166q0 -12 2.5 -15t13.5 -5l64 -7v-54h-238v54l48 7q11 2 14.5 5t3.5 14v147q0 34 -5 59t-18 41.5t-35.5 24.5t-58.5 8t-82 -7.5t-79 -17.5v-254q0 -12 2.5 -15t13.5 -5l64 -7v-54h-254v54l68 9
q8 1 11.5 4.5t3.5 14.5v571h-145q-8 0 -11 -1.5t-5 -9.5l-16 -88h-67v170h627v-170h-66l-17 86q-3 13 -17 13h-192v-243z" />
    <glyph glyph-name="afii10061" unicode="&#x40c;" horiz-adv-x="728" 
d="M330 766l-29 46l188 129l45 -74zM232 405h74q37 0 63 14.5t43 56.5l64 160q20 51 48 76t79 25q14 0 26 -1.5t23 -3.5l-4 -66q-4 1 -8 1t-9 0.5t-10 0.5q-23 0 -40 -12t-31 -49l-51 -141q-16 -43 -42 -63t-48 -27v0q14 -5 25.5 -13t22.5 -21t22.5 -32.5t26.5 -47.5
l94 -173q6 -12 11.5 -17t15.5 -7l66 -11v-54h-158q-15 37 -33.5 75.5t-37 73.5t-35 64.5t-27.5 48.5q-12 22 -22.5 36t-21.5 22t-24.5 11t-32.5 3h-69v-252q0 -12 2.5 -15t13.5 -5l67 -8v-54h-254v54l63 7q11 2 13.5 6t2.5 15v561q0 11 -2.5 15t-13.5 5l-63 7v54h254v-54
l-67 -8q-11 -2 -13.5 -5t-2.5 -14v-238z" />
    <glyph glyph-name="afii10062" unicode="&#x40e;" horiz-adv-x="659" 
d="M357 844q41 0 59 22t30 55l66 -21q-14 -52 -51 -85t-106 -33t-106.5 31t-50.5 87l70 22q8 -35 27.5 -56.5t61.5 -21.5zM381 144q-17 -41 -33.5 -70.5t-37 -48.5t-46.5 -28t-61 -9q-33 0 -69 8.5t-60 22.5l28 68q16 -9 41 -16.5t53 -7.5q22 0 36.5 5.5t25 16.5t18 27.5
t16.5 38.5l-202 481q-5 12 -10.5 18t-17.5 9l-45 11l10 54h223v-54l-74 -9l166 -419h2l165 419l-72 9l10 54h204v-54l-42 -11q-11 -3 -17 -8t-12 -19z" />
    <glyph glyph-name="afii10145" unicode="&#x40f;" horiz-adv-x="777" 
d="M60 0v54l64 7q11 2 13.5 5.5t2.5 14.5v562q0 11 -2.5 14.5t-13.5 5.5l-64 7v54h252v-54l-64 -8q-11 -2 -13.5 -5t-2.5 -15v-571h313v572q0 11 -2.5 14.5t-13.5 5.5l-62 7v54h252v-54l-66 -8q-11 -2 -13.5 -5t-2.5 -15v-561q0 -11 2.5 -14t13.5 -5l66 -8v-54h-263
q-13 0 -14 -13l-17 -144l-61 3l-17 141q-1 13 -13 13h-274z" />
    <glyph glyph-name="afii10017" unicode="&#x410;" horiz-adv-x="713" 
d="M461 0v54l82 9l-54 158h-279l-53 -158l81 -9v-54h-230v53l43 11q12 3 17 6.5t8 12.5l220 641h116l224 -642q3 -9 9 -12t15 -5l45 -11v-54h-244zM351 646l-118 -352h234z" />
    <glyph glyph-name="afii10018" unicode="&#x411;" horiz-adv-x="669" 
d="M61 54l63 7q11 2 13.5 5.5t2.5 14.5v561q0 12 -2.5 15t-13.5 5l-63 7v55h494v-179l-66 4l-17 91q-2 8 -5 10.5t-11 2.5h-225v-252h150q127 0 185 -51t58 -139q0 -57 -18.5 -97t-53 -65.5t-82.5 -37t-107 -11.5h-302v54zM353 73q38 0 70.5 5.5t56 20.5t36.5 41t13 67
q0 37 -12.5 60.5t-34.5 37.5t-52.5 19.5t-65.5 5.5h-133v-257h122z" />
    <glyph glyph-name="afii10019" unicode="&#x412;" horiz-adv-x="668" 
d="M61 0v54l63 7q11 2 13.5 5.5t2.5 14.5v561q0 11 -2.5 15t-13.5 5l-63 7v55h298q64 0 106 -13.5t67 -37.5t35 -56.5t10 -69.5q0 -36 -10.5 -63.5t-27.5 -48.5t-39 -34.5t-45 -21.5v-3q86 -10 127.5 -57.5t41.5 -122.5q0 -55 -20 -93t-55.5 -60.5t-84.5 -32.5t-108 -10
h-295zM345 73q39 0 72.5 4.5t58 18.5t38.5 39t14 67q0 36 -12.5 61.5t-34.5 41.5t-51.5 23t-64.5 7h-134v-262h114zM319 405q30 0 59.5 5.5t53 19.5t38.5 39.5t15 65.5q0 69 -38 92.5t-113 23.5h-103v-246h88z" />
    <glyph glyph-name="afii10020" unicode="&#x413;" horiz-adv-x="588" 
d="M61 0v54l63 7q11 2 13.5 5.5t2.5 14.5v561q0 11 -2.5 15t-13.5 5l-63 7v55h490v-179l-66 3l-17 92q-3 13 -17 13h-219v-571q0 -12 2.5 -15t13.5 -5l146 -8v-54h-333z" />
    <glyph glyph-name="afii10021" unicode="&#x414;" horiz-adv-x="770" 
d="M138 0q-15 0 -16 -13l-18 -132l-67 -3v219h60q30 40 52.5 84t37 100t21.5 127.5t7 167.5v91q0 11 -2.5 15.5t-13.5 6.5l-63 7v54h573v-54l-67 -8q-9 -2 -12.5 -6t-3.5 -16v-569h81v-219l-67 3l-17 132q-1 13 -17 13h-468zM302 563q0 -179 -25.5 -297.5t-83.5 -194.5h341
v582h-232v-90z" />
    <glyph glyph-name="afii10022" unicode="&#x415;" horiz-adv-x="635" 
d="M61 0v54l63 7q11 2 13.5 5.5t2.5 14.5v561q0 11 -2.5 15t-13.5 5l-63 7v55h502v-165l-68 4l-14 77q-3 13 -17 13h-232v-252h267v-72h-267v-258h254q8 0 11 1.5t5 9.5l16 87h67v-169h-524z" />
    <glyph glyph-name="afii10024" unicode="&#x416;" horiz-adv-x="1033" 
d="M562 408h57q35 0 56 11.5t36 52.5l57 156q10 27 20.5 47.5t25.5 34t36 20.5t52 7q20 0 47 -5l-5 -66q-7 1 -14 1.5t-15 0.5q-18 0 -29.5 -6t-20 -18t-15.5 -30.5t-16 -43.5l-34 -100q-15 -43 -35 -63.5t-43 -28.5v0q26 -8 43.5 -27.5t39.5 -61.5l102 -200q6 -12 11.5 -17
t16.5 -7l67 -11v-54h-161q-15 37 -33 76t-36 75t-33.5 66.5t-26.5 49.5q-12 22 -21.5 35.5t-20.5 21t-24.5 10t-32.5 2.5h-51v-253q0 -12 2.5 -15.5t13.5 -5.5l63 -8v-54h-248v54l61 7q11 2 13.5 6.5t2.5 15.5v253h-55q-19 0 -32.5 -2.5t-24 -10t-20.5 -21t-22 -35.5
q-10 -19 -26 -49t-34 -66.5t-35.5 -75.5t-32.5 -76h-158v54l67 11q11 2 16 5.5t11 14.5l91 179q24 48 45 75.5t51 37.5v1q-22 7 -43.5 27.5t-35.5 63.5l-46 137q-12 35 -24.5 48t-42.5 14q-8 0 -14.5 -0.5t-13.5 -1.5l-4 66q13 2 29.5 3.5t27.5 1.5q51 0 77 -21.5t42 -69.5
l44 -131q11 -33 21 -54t22 -32.5t27.5 -16t39.5 -4.5h53v235q0 11 -2.5 15t-13.5 5l-62 7v54h251v-54l-65 -8q-11 -2 -13.5 -5t-2.5 -14v-235z" />
    <glyph glyph-name="afii10025" unicode="&#x417;" horiz-adv-x="578" 
d="M291 737q107 0 166.5 -45.5t59.5 -135.5q0 -67 -40 -112.5t-107 -63.5v-4q79 -11 120.5 -57t41.5 -124q0 -42 -16 -79.5t-48.5 -66t-81 -45t-114.5 -16.5t-125.5 15.5t-91.5 38.5v153h68l18 -91q1 -13 14 -19q27 -11 56 -16t60 -5q35 0 65 8t52.5 24.5t35 42t12.5 61.5
q0 65 -41.5 98t-119.5 33h-99v75h61q86 0 135.5 38.5t49.5 102.5q0 33 -11 55.5t-30 36t-45 19.5t-55 6q-34 0 -60.5 -6.5t-51.5 -15.5q-8 -2 -10 -6.5t-4 -10.5l-16 -92l-68 -4v153q37 24 97 39.5t123 15.5z" />
    <glyph glyph-name="afii10026" unicode="&#x418;" horiz-adv-x="818" 
d="M507 0v54l63 7q11 2 13.5 5.5t2.5 14.5v517l-4 -1l-341 -597h-180v54l63 7q11 2 13.5 5.5t2.5 14.5v562q0 11 -2.5 15t-13.5 5l-63 7v54h254v-54l-67 -8q-11 -2 -13.5 -5t-2.5 -14v-515h4l338 596h187v-54l-67 -8q-11 -2 -13.5 -5t-2.5 -14v-561q0 -12 2.5 -15t13.5 -5
l67 -8v-54h-254z" />
    <glyph glyph-name="afii10027" unicode="&#x419;" horiz-adv-x="818" 
d="M441 844q41 0 59 22t30 55l66 -21q-14 -52 -51 -85t-106 -33t-106.5 31t-50.5 87l70 22q8 -35 27.5 -56.5t61.5 -21.5zM507 0v54l63 7q11 2 13.5 5.5t2.5 14.5v517l-4 -1l-341 -597h-180v54l63 7q11 2 13.5 5.5t2.5 14.5v562q0 11 -2.5 15t-13.5 5l-63 7v54h254v-54
l-67 -8q-11 -2 -13.5 -5t-2.5 -14v-515h4l338 596h187v-54l-67 -8q-11 -2 -13.5 -5t-2.5 -14v-561q0 -12 2.5 -15t13.5 -5l67 -8v-54h-254z" />
    <glyph glyph-name="afii10028" unicode="&#x41a;" horiz-adv-x="728" 
d="M232 405h74q37 0 63 14.5t43 56.5l64 160q20 51 48 76t79 25q14 0 26 -1.5t23 -3.5l-4 -66q-4 1 -8 1t-9 0.5t-10 0.5q-23 0 -40 -12t-31 -49l-51 -141q-16 -43 -42 -63t-48 -27v0q14 -5 25.5 -13t22.5 -21t22.5 -32.5t26.5 -47.5l94 -173q6 -12 11.5 -17t15.5 -7l66 -11
v-54h-158q-15 37 -33.5 75.5t-37 73.5t-35 64.5t-27.5 48.5q-12 22 -22.5 36t-21.5 22t-24.5 11t-32.5 3h-69v-252q0 -12 2.5 -15t13.5 -5l67 -8v-54h-254v54l63 7q11 2 13.5 6t2.5 15v561q0 11 -2.5 15t-13.5 5l-63 7v54h254v-54l-67 -8q-11 -2 -13.5 -5t-2.5 -14v-238z
" />
    <glyph glyph-name="afii10029" unicode="&#x41b;" horiz-adv-x="763" 
d="M451 0v54l61 7q11 2 13.5 5.5t2.5 14.5v572h-219q2 -113 -1 -213t-14 -183q-7 -59 -23 -106t-43.5 -81.5t-68.5 -55.5t-99 -27l-17 82q37 6 64 18.5t45.5 34t31 53.5t20.5 78q5 28 9.5 70t7 92.5t3.5 108t-1 115.5q0 13 -2.5 17.5t-13.5 6.5l-65 7v54h561v-54l-67 -8
q-10 -2 -13 -6t-3 -16v-558q0 -12 2.5 -15t13.5 -5l67 -8v-54h-252z" />
    <glyph glyph-name="afii10030" unicode="&#x41c;" horiz-adv-x="953" 
d="M623 0v54l83 7q11 1 13.5 5t2.5 15v496l-201 -407h-97l-194 406v-494q0 -12 2.5 -15t13.5 -5l87 -8v-54h-272v54l63 7q11 2 13.5 5.5t2.5 14.5v561q0 11 -2.5 15t-13.5 5l-63 7v55h194l220 -475l228 475h192v-54l-67 -8q-11 -2 -13.5 -5t-2.5 -14v-562q0 -10 3 -13.5
t13 -5.5l67 -8v-54h-272z" />
    <glyph glyph-name="afii10031" unicode="&#x41d;" horiz-adv-x="811" 
d="M497 0v54l63 7q11 2 13.5 5.5t2.5 14.5v256h-344v-255q0 -12 2.5 -15t13.5 -5l67 -8v-54h-254v54l63 7q11 2 13.5 5.5t2.5 14.5v562q0 11 -2.5 15t-13.5 5l-63 7v54h254v-54l-67 -8q-11 -2 -13.5 -5t-2.5 -14v-234h344v234q0 11 -2.5 15t-13.5 5l-63 7v54h254v-54l-67 -8
q-11 -2 -13.5 -5t-2.5 -14v-561q0 -12 2.5 -15t13.5 -5l67 -8v-54h-254z" />
    <glyph glyph-name="afii10032" unicode="&#x41e;" horiz-adv-x="776" 
d="M383 -12q-87 0 -150 28t-104 78t-60.5 119.5t-19.5 152.5q0 80 22.5 147.5t66 117.5t109 78t150.5 28t147 -28t102.5 -76.5t60 -114.5t19.5 -141q0 -88 -21.5 -160t-64 -123t-107 -78.5t-150.5 -27.5zM388 65q54 0 99 18t77 55.5t49.5 94.5t17.5 134q0 145 -63.5 219
t-172.5 74q-55 0 -101 -19t-79.5 -56t-52 -92t-18.5 -127q0 -75 17.5 -131.5t49.5 -94t77 -56.5t100 -19z" />
    <glyph glyph-name="afii10033" unicode="&#x41f;" horiz-adv-x="785" 
d="M476 0v54l61 7q11 2 13.5 5.5t2.5 14.5v572h-321v-571q0 -12 2.5 -15t13.5 -5l65 -8v-54h-252v54l63 7q11 2 13.5 5.5t2.5 14.5v562q0 11 -2.5 15t-13.5 5l-63 7v54h667v-54l-67 -8q-11 -2 -13.5 -5t-2.5 -14v-561q0 -12 2.5 -15t13.5 -5l67 -8v-54h-252z" />
    <glyph glyph-name="afii10034" unicode="&#x420;" horiz-adv-x="655" 
d="M61 0v54l63 7q11 2 13.5 5.5t2.5 14.5v561q0 11 -2.5 15t-13.5 5l-63 7v55h309q69 0 115.5 -17t74.5 -46.5t39.5 -68t11.5 -81.5q0 -64 -19 -109.5t-54.5 -74t-86.5 -41.5t-114 -13h-106v-191q0 -12 2.5 -15t13.5 -5l143 -8v-54h-329zM329 346q38 0 72 5.5t59.5 23
t40.5 49t15 83.5q0 79 -43.5 111.5t-130.5 32.5h-111v-305h98z" />
    <glyph glyph-name="afii10035" unicode="&#x421;" horiz-adv-x="683" 
d="M630 41q-41 -27 -106 -40t-134 -13q-91 0 -156 27.5t-106.5 77t-60.5 118.5t-19 151q0 81 22.5 150t67 119t112 78t157.5 28q66 0 124.5 -14.5t96.5 -39.5v-160l-68 4l-17 95q-1 7 -3 11.5t-10 6.5q-26 9 -59 15.5t-68 6.5q-59 0 -107 -19.5t-81.5 -57t-52 -93.5
t-18.5 -130q0 -147 67 -223t185 -76q34 0 72.5 4.5t67.5 16.5q6 2 9 5.5t5 12.5l16 90h64v-151z" />
    <glyph glyph-name="afii10036" unicode="&#x422;" horiz-adv-x="659" 
d="M165 0v55l103 7q11 1 13.5 5t2.5 15v571h-155q-8 0 -11 -1.5t-5 -9.5l-16 -87h-67v169h600v-169h-67l-16 87q-2 8 -5 9.5t-11 1.5h-155v-571q0 -11 2.5 -14.5t13.5 -4.5l110 -8v-55h-337z" />
    <glyph glyph-name="afii10037" unicode="&#x423;" horiz-adv-x="659" 
d="M381 144q-17 -41 -33.5 -70.5t-37 -48.5t-46.5 -28t-61 -9q-33 0 -69 8.5t-60 22.5l28 68q16 -9 41 -16.5t53 -7.5q22 0 36.5 5.5t25 16.5t18 27.5t16.5 38.5l-202 481q-5 12 -10.5 18t-17.5 9l-45 11l10 54h223v-54l-74 -9l166 -419h2l165 419l-72 9l10 54h204v-54
l-42 -11q-11 -3 -17 -8t-12 -19z" />
    <glyph glyph-name="afii10038" unicode="&#x424;" horiz-adv-x="835" 
d="M786 378q0 -71 -23 -117.5t-65.5 -74t-102.5 -38.5t-134 -13v-54q0 -12 2.5 -15t13.5 -5l75 -7v-54h-266v54l72 6q11 1 13.5 5t2.5 15v54q-76 0 -136.5 10t-103 35.5t-65 70t-22.5 115.5q0 67 23 112t66 73t103 40.5t135 13.5v51q0 12 -2.5 15t-13.5 5l-75 8v54h266v-54
l-72 -7q-11 -1 -13.5 -5t-2.5 -15v-51q80 0 140.5 -11t101.5 -37t62 -69.5t21 -109.5zM691 373q0 47 -14 77.5t-42.5 48.5t-72 25.5t-103.5 7.5v-326q58 1 101.5 9t72.5 26.5t43.5 50.5t14.5 81zM142 365q0 -45 14 -75.5t43 -49t73 -26.5t103 -8v324q-57 0 -100.5 -8
t-73 -27t-44.5 -51t-15 -79z" />
    <glyph glyph-name="afii10039" unicode="&#x425;" horiz-adv-x="699" 
d="M432 0v54l76 9l-167 246l-164 -246l73 -9v-54h-228v52l53 11q15 4 25 19l192 282l-188 278q-5 8 -10 11.5t-14 5.5l-47 11l10 54h229v-54l-75 -9l153 -233l158 233l-74 9l10 54h208v-54l-44 -11q-9 -2 -14 -6.5t-11 -12.5l-183 -267l204 -291q5 -8 10 -11.5t14 -5.5
l52 -11v-54h-248z" />
    <glyph glyph-name="afii10040" unicode="&#x426;" horiz-adv-x="774" 
d="M655 -153l-18 139q-1 8 -4 11t-13 3h-560v54l67 8q11 2 13.5 5t2.5 14v561q0 12 -2.5 15t-13.5 5l-67 8v54h252v-54l-61 -7q-11 -2 -13.5 -5.5t-2.5 -14.5v-572h307v571q0 12 -2.5 15t-13.5 5l-64 8v54h251v-54l-63 -7q-11 -2 -13.5 -5.5t-2.5 -14.5v-572h87v-228z" />
    <glyph glyph-name="afii10041" unicode="&#x427;" horiz-adv-x="726" 
d="M369 57l109 7q11 2 13.5 5t2.5 15v212q-35 -11 -83.5 -17.5t-90.5 -6.5q-105 0 -154.5 45t-49.5 142v184q0 12 -2.5 15t-13.5 5l-60 7v54h247v-54l-63 -8q-11 -2 -13.5 -5t-2.5 -14v-164q0 -34 6 -59t20 -41.5t39 -24.5t62 -8q18 0 40 1.5t44 4.5t42 7t33 10v274
q0 12 -3 15t-13 5l-57 7v54h247v-54l-66 -8q-11 -2 -13.5 -5t-2.5 -14v-561q0 -12 2.5 -15t13.5 -5l66 -8v-54h-299v57z" />
    <glyph glyph-name="afii10042" unicode="&#x428;" horiz-adv-x="1064" 
d="M57 54l67 8q11 2 13.5 5t2.5 14v561q0 12 -2.5 15t-13.5 5l-67 8v54h248v-54l-57 -7q-11 -2 -13.5 -5.5t-2.5 -14.5v-572h251v572q0 11 -2.5 15t-13.5 5l-66 7v54h258v-54l-68 -8q-11 -2 -13.5 -5t-2.5 -14v-572h257v571q0 12 -2.5 15t-13.5 5l-60 8v54h247v-54l-63 -7
q-11 -2 -13.5 -5.5t-2.5 -14.5v-563q0 -11 3 -14.5t13 -4.5l64 -7v-54h-947v54z" />
    <glyph glyph-name="afii10043" unicode="&#x429;" horiz-adv-x="1055" 
d="M823 71v571q0 12 -3 15t-14 5l-60 8v54h248v-54l-63 -7q-11 -2 -13.5 -5.5t-2.5 -14.5v-572h87v-228l-66 4l-19 140q-1 13 -16 13h-844v54l67 8q11 2 13.5 5t2.5 14v561q0 12 -2.5 15t-13.5 5l-67 8v54h248v-54l-57 -7q-11 -2 -13.5 -5.5t-2.5 -14.5v-572h246v572
q0 11 -2.5 15t-13.5 5l-66 7v54h259v-54l-69 -8q-11 -2 -13.5 -5t-2.5 -14v-572h253z" />
    <glyph glyph-name="afii10044" unicode="&#x42a;" horiz-adv-x="763" 
d="M168 54l63 7q11 2 13.5 5.5t2.5 14.5v572h-116q-14 0 -17 -13l-17 -91l-66 -4v179h422v-58l-98 -7q-11 -2 -13.5 -5.5t-2.5 -14.5v-210h144q65 0 110 -15t73 -42t40.5 -65t12.5 -85q0 -57 -19 -99t-53.5 -69t-81.5 -40.5t-104 -13.5h-293v54zM452 73q37 0 68 7.5t54 24.5
t36 45t13 69q0 78 -41 108t-113 30h-130v-284h113z" />
    <glyph glyph-name="afii10045" unicode="&#x42b;" horiz-adv-x="971" 
d="M334 73q37 0 68.5 6.5t54.5 23.5t36 46t13 74q0 71 -41.5 102.5t-113.5 31.5h-120v-284h103zM59 724h287v-53l-99 -10q-11 -1 -13.5 -4.5t-2.5 -15.5v-212h132q65 0 110.5 -15t74 -42t41.5 -64t13 -81q0 -61 -19 -104.5t-53.5 -70.5t-82 -39.5t-104.5 -12.5h-282v54l63 7
q11 2 13.5 5.5t2.5 14.5v563q0 11 -2.5 14t-13.5 5l-65 7v54zM642 0v54l73 7q11 1 13.5 5t2.5 15v562q0 11 -2.5 15t-13.5 5l-73 7v54h274v-54l-77 -8q-11 -2 -13.5 -5t-2.5 -14v-561q0 -12 2.5 -15t13.5 -5l77 -8v-54h-274z" />
    <glyph glyph-name="afii10046" unicode="&#x42c;" horiz-adv-x="664" 
d="M59 724h287v-53l-99 -10q-11 -1 -13.5 -4.5t-2.5 -15.5v-212h148q65 0 110.5 -15t74 -42t41.5 -64t13 -81q0 -61 -19 -104.5t-53.5 -70.5t-82 -39.5t-104.5 -12.5h-298v54l63 7q11 2 13.5 5.5t2.5 14.5v563q0 11 -2.5 14t-13.5 5l-65 7v54zM350 73q37 0 68.5 6.5
t54.5 23.5t36 46t13 74q0 71 -41.5 102.5t-113.5 31.5h-136v-284h119z" />
    <glyph glyph-name="afii10047" unicode="&#x42d;" horiz-adv-x="683" 
d="M58 684q42 23 107.5 38t134.5 15q90 0 154 -26t104 -74t58.5 -115.5t18.5 -149.5q0 -85 -21.5 -156t-65.5 -121.5t-111 -78.5t-158 -28q-67 0 -127.5 14t-98.5 39v157h68l17 -95q1 -7 3 -11.5t10 -6.5q26 -9 60.5 -15.5t69.5 -6.5q112 0 180 65t76 200h-308v72h308
q-7 134 -68.5 198t-173.5 64q-37 0 -76 -4.5t-67 -16.5q-6 -2 -9 -5.5t-5 -12.5l-16 -90h-64v151z" />
    <glyph glyph-name="afii10048" unicode="&#x42e;" horiz-adv-x="1062" 
d="M59 0v54l65 7q11 2 13.5 5.5t2.5 14.5v562q0 11 -2.5 15t-13.5 5l-65 7v54h258v-54l-69 -8q-11 -2 -13.5 -5t-2.5 -14v-236h165q5 72 28 132.5t62.5 104.5t96.5 68.5t130 24.5q78 0 134.5 -28t93.5 -76.5t54.5 -114.5t17.5 -141q0 -88 -19.5 -160t-59 -123t-98 -78.5
t-136.5 -27.5q-76 0 -132.5 26t-94 72t-56.5 109.5t-22 139.5h-164v-253q0 -12 2.5 -15t13.5 -5l69 -8v-54h-258zM705 65q97 0 155.5 74t58.5 228q0 145 -55 219t-152 74q-49 0 -89.5 -19t-70 -56.5t-45.5 -93t-16 -128.5q0 -149 57.5 -223.5t156.5 -74.5z" />
    <glyph glyph-name="afii10049" unicode="&#x42f;" horiz-adv-x="710" 
d="M34 54l66 11q14 2 18 6.5t9 15.5l65 147q17 38 34.5 63t52.5 39v1q-34 5 -63.5 18t-52 35.5t-35.5 54.5t-13 74q0 31 8.5 64t30.5 61.5t60 49.5t98 27q27 3 59 3h281v-55l-63 -7q-10 -1 -13 -5t-3 -15v-561q0 -11 2.5 -14.5t13.5 -5.5l63 -7v-54h-250v54l64 8q9 2 12.5 5
t3.5 15v226h-113q-26 0 -40.5 -11.5t-27.5 -37.5q-10 -20 -23.5 -49t-28 -63.5t-30 -72.5t-29.5 -74h-156v54zM482 651h-113q-34 0 -63 -6.5t-50.5 -21.5t-33.5 -40.5t-12 -64.5q0 -43 15.5 -70t41.5 -42t59.5 -20.5t69.5 -5.5h86v271z" />
    <glyph glyph-name="afii10065" unicode="&#x430;" horiz-adv-x="541" 
d="M380 0l-9 65l-3 1q-36 -34 -79.5 -56t-101.5 -22q-47 0 -75 14t-42.5 35t-19 45t-4.5 43q0 75 45.5 112t136.5 45l135 11v53q0 27 -3.5 47.5t-14.5 34t-30.5 20.5t-52.5 7q-23 0 -42 -1.5t-33.5 -9t-22.5 -23t-8 -43.5l-86 9q0 46 19 73t48 41.5t62.5 18.5t63.5 4
q53 0 89.5 -8.5t59 -29t32 -54.5t9.5 -86v-265q0 -12 2.5 -15t13.5 -5l51 -7v-54h-140zM363 230l-113 -10q-64 -6 -87 -26t-23 -59q0 -41 17.5 -58.5t52.5 -17.5q22 0 44.5 8t42.5 19.5t37 25t29 24.5v94z" />
    <glyph glyph-name="afii10066" unicode="&#x431;" horiz-adv-x="560" 
d="M280 -12q-64 0 -108 21t-71.5 61.5t-39.5 99t-12 132.5q0 87 10 154.5t39 117.5t82 82.5t140 47.5q32 6 50 9t28 6t13.5 8t6.5 14l66 3q3 -35 -5.5 -56t-26 -33t-43.5 -17.5t-60 -10.5q-63 -8 -105 -23t-68 -41t-39.5 -66.5t-19.5 -99.5h1q24 48 73.5 77.5t111.5 29.5
q58 0 98.5 -17.5t66 -50t37.5 -78.5t12 -102q0 -60 -13.5 -109t-42.5 -84.5t-74 -55t-107 -19.5zM283 57q140 0 140 194q0 97 -32 138.5t-98 41.5q-71 0 -109.5 -47.5t-38.5 -132.5q0 -95 33.5 -144.5t104.5 -49.5z" />
    <glyph glyph-name="afii10067" unicode="&#x432;" horiz-adv-x="540" 
d="M43 0v55l46 5q8 1 10 3.5t2 10.5v365q0 8 -2 10.5t-10 3.5l-46 5v56h270q47 0 78 -10t49.5 -27t26 -40t7.5 -49q0 -51 -27.5 -79.5t-62.5 -39.5v-2q63 -7 92 -38.5t29 -85.5q0 -39 -14.5 -66.5t-40.5 -44.5t-62 -24.5t-79 -7.5h-266zM296 66q26 0 47.5 3.5t37.5 12.5
t24.5 25t8.5 41q0 47 -31.5 65t-75.5 18h-115v-165h104zM280 294q20 0 39 3t34 12t24 24.5t9 40.5q0 45 -25 59t-72 14h-97v-153h88z" />
    <glyph glyph-name="afii10068" unicode="&#x433;" horiz-adv-x="453" 
d="M43 0v55l46 5q8 1 10 3.5t2 10.5v365q0 8 -2 10.5t-10 3.5l-46 5v56h379v-162l-68 4l-13 84q-1 8 -12 8h-136v-373q0 -8 1.5 -10.5t9.5 -3.5l107 -6v-55h-268z" />
    <glyph glyph-name="afii10069" unicode="&#x434;" horiz-adv-x="592" 
d="M123 0q-9 0 -11 -11l-14 -115l-67 -4v198h47q23 26 38.5 55t26 65t15 82t4.5 107v62q0 8 -2 11t-10 4l-50 5v55h448v-55l-48 -6q-8 -1 -10 -4t-2 -11v-370h63v-198l-67 4l-14 115q-1 5 -3 8t-9 3h-335zM245 378q0 -107 -16.5 -182.5t-57.5 -127.5h225v379h-151v-69z" />
    <glyph glyph-name="afii10070" unicode="&#x435;" horiz-adv-x="511" 
d="M462 33q-38 -21 -83 -33t-99 -12q-68 0 -114 21t-74 57t-40 85t-12 105q0 69 18 119.5t49 83.5t72.5 49t88.5 16q46 0 84 -13t65 -41.5t42 -74t15 -110.5q0 -10 -0.5 -23.5t-1.5 -26.5h-336q1 -38 10 -69t27 -53.5t46.5 -35t69.5 -12.5q42 0 73 8t71 28zM383 304
q-1 43 -10.5 71t-25 45t-36 24t-43.5 7q-25 0 -47.5 -7.5t-40 -24.5t-29 -45t-14.5 -70h246z" />
    <glyph glyph-name="afii10072" unicode="&#x436;" horiz-adv-x="784" 
d="M438 295h35q16 0 27 2.5t19 10t15.5 22t15.5 38.5l30 86q13 36 34.5 53t61.5 17q11 0 28 -2.5t27 -5.5l-5 -57q-16 3 -26 3q-20 0 -29.5 -10t-17.5 -33l-31 -89q-10 -27 -22.5 -41t-29.5 -20v0q17 -5 31 -19t30 -45l63 -124q5 -8 9 -12.5t14 -6.5l53 -8v-54h-139
q-26 64 -48.5 110.5t-41.5 77.5q-9 15 -16 24t-15 14t-17 6.5t-23 1.5h-32v-159q0 -8 2 -10.5t10 -3.5l45 -6v-55h-203v55l47 6q7 1 9.5 4t2.5 11v158h-44q-15 0 -25.5 -2t-18.5 -8t-15.5 -16t-16.5 -26q-18 -32 -39.5 -75.5t-46.5 -106.5h-131v54l54 8q7 1 11.5 4t9.5 13
l60 120q16 31 31 47.5t32 22.5v0q-16 5 -30 20t-25 45l-32 85q-10 26 -18.5 34.5t-25.5 8.5q-9 0 -26 -3l-4 57q8 2 24 5t36 3q24 0 39.5 -7t26 -18t17 -25.5t11.5 -28.5l29 -77q9 -24 16.5 -38.5t16 -22t19 -10t26.5 -2.5h39v131q0 16 -13 20l-46 15l9 53h137v-219z" />
    <glyph glyph-name="afii10073" unicode="&#x437;" horiz-adv-x="453" 
d="M232 524q82 0 128 -33t46 -94q0 -51 -29.5 -83.5t-73.5 -44.5v-3q53 -9 86 -37.5t33 -88.5q0 -70 -56 -111t-150 -41q-54 0 -108 15.5t-89 47.5l41 60q22 -20 62.5 -36t87.5 -16q25 0 47 4.5t38.5 15t26 27t9.5 41.5q0 39 -27.5 58.5t-75.5 19.5h-92v67h55
q61 0 93.5 25.5t32.5 65.5q0 41 -28.5 58t-68.5 17q-23 0 -43 -3.5t-37 -8.5q-8 -2 -11 -14l-12 -62l-66 -4v117q29 17 79.5 29t101.5 12z" />
    <glyph glyph-name="afii10074" unicode="&#x438;" horiz-adv-x="628" 
d="M381 0v55l45 5q8 1 9.5 3.5t1.5 10.5v320h-4l-232 -394h-158v55l46 5q8 1 10 3.5t2 10.5v366q0 8 -2 10.5t-10 3.5l-46 5v55h208v-55l-49 -6q-8 -1 -9.5 -3t-1.5 -10v-329h4l235 403h159v-55l-50 -6q-8 -1 -10 -3t-2 -10v-365q0 -8 2 -10.5t10 -3.5l50 -6v-55h-208z" />
    <glyph glyph-name="afii10075" unicode="&#x439;" horiz-adv-x="628" 
d="M381 0v55l45 5q8 1 9.5 3.5t1.5 10.5v320h-4l-232 -394h-158v55l46 5q8 1 10 3.5t2 10.5v366q0 8 -2 10.5t-10 3.5l-46 5v55h208v-55l-49 -6q-8 -1 -9.5 -3t-1.5 -10v-329h4l235 403h159v-55l-50 -6q-8 -1 -10 -3t-2 -10v-365q0 -8 2 -10.5t10 -3.5l50 -6v-55h-208z
M333 634q42 0 63.5 25.5t32.5 67.5l65 -21q-17 -63 -54.5 -98.5t-108.5 -35.5t-108 35.5t-51 98.5l69 22q8 -42 29 -68t63 -26z" />
    <glyph glyph-name="afii10076" unicode="&#x43a;" horiz-adv-x="549" 
d="M240 291q15 0 25.5 2t19 9.5t16.5 22t18 38.5l26 65q10 24 19 42t21.5 30t29 18t41.5 6q14 -1 26 -3t23 -5l-4 -60q-8 1 -14 1.5t-11 0.5q-20 0 -29 -9t-18 -31l-36 -87q-12 -29 -26.5 -44t-30.5 -20v-1q18 -5 31.5 -19.5t29.5 -45.5l62 -119q5 -9 9.5 -13.5t13.5 -6.5
l53 -8v-54h-136q-10 27 -23 53.5t-25 50t-22.5 43.5t-17.5 33q-9 17 -16 26.5t-15 15t-18 7t-25 1.5h-44v-157q0 -8 1.5 -10t9.5 -3l47 -5v-55h-208v55l46 5q7 1 9.5 3t2.5 10v367q0 8 -2 10.5t-10 3.5l-46 5v55h209v-55l-48 -6q-8 -1 -9.5 -3.5t-1.5 -10.5v-148h47z" />
    <glyph glyph-name="afii10077" unicode="&#x43b;" horiz-adv-x="582" 
d="M333 0v55l42 5q8 1 10.5 4t2.5 11v372h-150q-1 -76 -4.5 -132.5t-8.5 -107.5q-6 -53 -17 -93t-31.5 -67.5t-52 -42.5t-76.5 -19l-18 77q26 2 45 10.5t33.5 27t23.5 50t15 80.5q2 18 4 42.5t3.5 52t3 57t2.5 56.5q0 8 -2 11.5t-10 4.5l-50 5v55h442v-55l-49 -6
q-8 -1 -10 -4t-2 -11v-363q0 -8 1.5 -10.5t10.5 -3.5l49 -6v-55h-207z" />
    <glyph glyph-name="afii10078" unicode="&#x43c;" horiz-adv-x="721" 
d="M457 0v55l61 5q12 1 12 14v323h-2l-129 -270h-90l-129 274h-2v-326q1 -8 2.5 -10.5t9.5 -3.5l64 -6v-55h-211v55l46 5q8 1 10 4t2 11v365q0 8 -2 10.5t-10 3.5l-46 5v55h172l143 -313h1l148 313h171v-55l-47 -5q-8 -1 -11 -4t-3 -14v-362q0 -8 2.5 -10t9.5 -3l49 -6v-55
h-221z" />
    <glyph glyph-name="afii10079" unicode="&#x43d;" horiz-adv-x="632" 
d="M383 0v55l44 5q8 1 10 3.5t2 10.5v157h-246v-156q0 -8 1.5 -10.5t9.5 -3.5l48 -6v-55h-209v55l46 5q8 1 10 4t2 11v365q0 8 -2 10.5t-10 3.5l-46 5v55h209v-55l-45 -6q-14 -1 -14 -14v-139h246v140q0 8 -2 10.5t-10 3.5l-44 5v55h209v-55l-47 -6q-14 -1 -14 -15v-363
q0 -8 1.5 -10.5t9.5 -3.5l50 -6v-55h-209z" />
    <glyph glyph-name="afii10080" unicode="&#x43e;" horiz-adv-x="568" 
d="M281 -12q-65 0 -111 20t-75 56t-42 85.5t-13 109.5q0 59 15 107.5t46 83.5t78.5 54.5t111.5 19.5t109 -19.5t73.5 -54t41.5 -82t13 -103.5q0 -63 -14.5 -114t-45 -87.5t-77 -56t-110.5 -19.5zM284 61q73 0 111.5 47.5t38.5 150.5q0 99 -36 144t-109 45q-74 0 -114.5 -45
t-40.5 -145q0 -197 150 -197z" />
    <glyph glyph-name="afii10081" unicode="&#x43f;" horiz-adv-x="615" 
d="M369 0v54l41 5q8 1 10 4t2 11v372h-229v-372q0 -8 1.5 -10.5t9.5 -3.5l45 -6v-54h-206v54l46 5q8 1 10 3.5t2 10.5v367q0 8 -2 10.5t-10 3.5l-46 5v55h531v-55l-49 -6q-8 -1 -9.5 -3t-1.5 -10v-366q0 -8 1.5 -10.5t9.5 -3.5l49 -6v-54h-205z" />
    <glyph glyph-name="afii10082" unicode="&#x440;" horiz-adv-x="605" 
d="M49 -212v55l41 6q11 2 14 5.5t3 14.5v552q0 17 -13 21l-57 19l9 53h132l9 -58l3 -1q42 31 85 50t94 19q42 0 76.5 -14t59.5 -44t38.5 -77t13.5 -113q0 -56 -10.5 -108t-34.5 -92t-64 -64t-99 -24q-43 0 -80 12t-72 43v-173q0 -12 2.5 -15.5t13.5 -4.5l94 -8v-54h-258z
M197 128q26 -25 61.5 -45t75.5 -20q71 0 101 55.5t30 149.5q0 51 -9 85.5t-25 55t-37 29.5t-44 9q-24 0 -47 -6.5t-43 -16t-36 -20t-27 -19.5v-257z" />
    <glyph glyph-name="afii10083" unicode="&#x441;" horiz-adv-x="486" 
d="M455 30q-29 -19 -75 -30.5t-96 -11.5q-64 0 -110 19t-76 53.5t-44 83t-14 107.5q0 71 19.5 122.5t54.5 85t83 49.5t105 16q55 0 95 -11.5t57 -19.5v-133l-67 3l-12 66q-1 5 -3 8.5t-9 5.5q-11 4 -29 6.5t-39 2.5q-33 0 -62.5 -10.5t-51 -33.5t-34 -60t-12.5 -91
q0 -52 12 -89t33.5 -60.5t51.5 -34t66 -10.5q38 0 72.5 10t55.5 23z" />
    <glyph glyph-name="afii10084" unicode="&#x442;" horiz-adv-x="517" 
d="M126 0v56l75 5q8 1 10 3.5t2 10.5v372h-96q-12 0 -13 -12l-12 -76h-66v155h465v-155h-64l-13 78q-1 10 -11 10h-98v-372q0 -8 2 -10.5t10 -3.5l81 -5v-56h-272z" />
    <glyph glyph-name="afii10085" unicode="&#x443;" horiz-adv-x="582" 
d="M53 -134q15 -7 34.5 -11.5t43.5 -4.5q20 0 33.5 7t24 19.5t19 30.5t17.5 40l25 59l-180 426q-4 9 -8 12t-13 5l-41 10l12 55h208v-55l-66 -8l133 -336h2l136 336l-68 8l11 55h198v-55l-34 -5q-9 -2 -15 -5.5t-10 -11.5l-185 -447q-21 -52 -38.5 -91.5t-38.5 -66.5
t-50 -40.5t-74 -13.5q-25 0 -52 6t-48 17z" />
    <glyph glyph-name="afii10086" unicode="&#x444;" horiz-adv-x="758" 
d="M713 268q0 -65 -15.5 -116t-50 -86.5t-89.5 -55t-133 -21.5v-120q0 -12 2.5 -15.5t13.5 -4.5l63 -7v-54h-246v55l60 6q11 1 13.5 5t2.5 15v119q-85 1 -140.5 21t-88.5 54t-46.5 81t-13.5 104q0 80 24 132.5t64 84t92.5 44.5t108.5 14v139q0 17 -13 21l-59 19l9 53h154
v-231q68 0 121 -13.5t90.5 -43.5t57 -79t19.5 -120zM621 263q0 60 -14.5 96t-40 55.5t-61.5 25.5t-80 7v-382q33 1 68 6t63.5 25t46.5 59t18 108zM138 244q0 -60 18.5 -95.5t47 -54.5t63 -24.5t67.5 -5.5v382q-37 -1 -72.5 -8t-63 -28t-44 -60.5t-16.5 -105.5z" />
    <glyph glyph-name="afii10087" unicode="&#x445;" horiz-adv-x="574" 
d="M327 0v54l62 9l-111 145l-115 -145l66 -9v-54h-218v54l53 10q8 2 12.5 5t11.5 11l142 177l-136 174q-7 8 -11 11t-13 6l-44 11l10 55h210v-55l-62 -8l106 -136l110 136l-63 8l10 55h194v-55l-46 -10q-9 -3 -14 -7t-11 -12l-132 -163l145 -185q7 -8 12 -12t14 -6l55 -10
v-54h-237z" />
    <glyph glyph-name="afii10088" unicode="&#x446;" horiz-adv-x="603" 
d="M500 -125l-14 114q-2 11 -13 11h-431v54l50 6q8 1 10 4t2 11v363q0 8 -2.5 11t-10.5 5l-49 5v55h207v-55l-41 -5q-13 -1 -13 -16v-370h213v371q0 8 -2.5 10.5t-10.5 4.5l-41 5v55h203v-55l-44 -5q-13 -1 -13 -15v-371h65v-198z" />
    <glyph glyph-name="afii10089" unicode="&#x447;" horiz-adv-x="566" 
d="M270 57l89 6q13 0 13 14v125q-11 -3 -27.5 -6t-34.5 -5.5t-36 -3.5t-32 -1q-86 0 -121.5 35.5t-35.5 99.5v119q0 8 -2 11t-10 4l-42 5v54h199v-54l-40 -5q-8 -2 -10.5 -5t-2.5 -11v-103q0 -42 16.5 -63t67.5 -21q12 0 27 1t31 3t30 5t23 6v173q0 8 -1.5 11t-9.5 4l-38 5
v54h199v-55l-46 -5q-8 -1 -10.5 -4t-2.5 -11v-364q0 -8 2.5 -11t10.5 -4l47 -5v-55h-253v57z" />
    <glyph glyph-name="afii10090" unicode="&#x448;" horiz-adv-x="818" 
d="M40 55l49 6q8 1 10 3.5t2 10.5v365q0 8 -2 10t-10 4l-49 5v55h200v-55l-38 -5q-8 -1 -10 -3.5t-2 -10.5v-372h171v372q0 8 -2 10.5t-10 3.5l-42 5v55h199v-55l-44 -5q-8 -1 -9.5 -3.5t-1.5 -10.5v-372h174v371q0 8 -2 10.5t-10 4.5l-40 5v55h200v-55l-47 -5
q-8 -1 -9.5 -3.5t-1.5 -10.5v-366q0 -8 2 -10t9 -3l48 -6v-55h-734v55z" />
    <glyph glyph-name="afii10091" unicode="&#x449;" horiz-adv-x="812" 
d="M40 55l49 6q8 1 10 3.5t2 10.5v365q0 8 -2 10t-10 4l-49 5v55h200v-55l-38 -5q-8 -1 -10 -3.5t-2 -10.5v-372h168v372q0 8 -2 10.5t-10 3.5l-41 5v55h198v-55l-43 -5q-8 -1 -10 -3.5t-2 -10.5v-372h172v371q0 8 -2.5 10.5t-10.5 4.5l-39 5v55h199v-55l-46 -5
q-8 -1 -10 -3.5t-2 -10.5v-372h66v-198l-66 5l-14 116q-1 9 -11 9h-644v55z" />
    <glyph glyph-name="afii10092" unicode="&#x44a;" horiz-adv-x="590" 
d="M133 55l47 6q11 1 11 12v374h-72q-12 0 -15 -13l-10 -77l-67 -3v160h339v-57l-73 -5q-11 -1 -11 -13v-128h101q48 0 81.5 -10.5t54 -30t29.5 -46.5t9 -61q0 -43 -14.5 -73.5t-40.5 -50.5t-61.5 -29.5t-77.5 -9.5h-230v55zM354 66q48 0 79 20.5t31 73.5q0 29 -8.5 46
t-25 26t-39 11.5t-51.5 2.5h-58v-180h72z" />
    <glyph glyph-name="afii10093" unicode="&#x44b;" horiz-adv-x="749" 
d="M101 440q0 8 -2 10.5t-9 3.5l-50 5v55h236v-55l-71 -6q-9 -1 -11 -3.5t-2 -10.5v-130h96q35 0 66.5 -7.5t55.5 -24.5t38 -44.5t14 -68.5q0 -43 -15.5 -74.5t-43 -51t-64.5 -29t-81 -9.5h-215v54l50 6q8 1 8 11v369zM488 0v55l51 5q8 1 10.5 3t2.5 12v364q0 8 -2 11t-10 4
l-53 5v55h224v-55l-56 -6q-8 -1 -10 -4t-2 -11v-363q0 -8 2 -10.5t10 -3.5l56 -6v-55h-223zM258 66q47 0 79 20.5t32 72.5q0 27 -8.5 44t-24 26.5t-36.5 13t-46 3.5h-62v-180h66z" />
    <glyph glyph-name="afii10094" unicode="&#x44c;" horiz-adv-x="505" 
d="M101 440q0 8 -2 10.5t-9 3.5l-50 5v55h236v-55l-71 -6q-8 -1 -10.5 -3t-2.5 -10v-131h106q35 0 67 -7.5t56 -24.5t38 -44.5t14 -68.5q0 -42 -15 -72.5t-41 -51t-62 -30.5t-78 -10h-234v54l50 6q8 1 8 11v369zM268 66q51 0 81 21t30 72q0 27 -8.5 44t-24 26.5t-36.5 13
t-45 3.5h-73v-180h76z" />
    <glyph glyph-name="afii10095" unicode="&#x44d;" horiz-adv-x="540" 
d="M190 292h213q-8 81 -49 121.5t-113 40.5q-26 0 -50 -4t-41 -11q-10 -4 -11 -15l-11 -64h-64v124q29 17 80 28.5t107 11.5q66 0 113 -18.5t77.5 -52t44.5 -81t14 -105.5q0 -60 -16 -111t-49 -88.5t-83.5 -58.5t-119.5 -21q-62 0 -112 17t-75 37l34 67q21 -15 60.5 -31
t89.5 -16q74 0 119.5 40.5t53.5 120.5h-212v69z" />
    <glyph glyph-name="afii10096" unicode="&#x44e;" horiz-adv-x="792" 
d="M525 -12q-54 0 -94 17t-66.5 48t-41 74t-17.5 95h-113v-147q0 -8 1.5 -10.5t9.5 -3.5l56 -6v-55h-223v55l52 5q8 1 10 3.5t2 10.5v365q0 8 -2 11t-10 4l-52 5v55h223v-55l-56 -6q-8 -1 -9.5 -3.5t-1.5 -11.5v-149h112q4 53 20 96.5t44.5 74t70.5 47.5t97 17
q60 0 101 -19.5t66.5 -54t36.5 -82t11 -103.5q0 -63 -13 -114t-40.5 -87.5t-70.5 -56t-103 -19.5zM529 58q64 0 97.5 49t33.5 152q0 99 -31.5 145.5t-95.5 46.5t-100 -46.5t-36 -146.5t34 -150t98 -50z" />
    <glyph glyph-name="afii10097" unicode="&#x44f;" horiz-adv-x="579" 
d="M389 447h-107q-43 0 -72.5 -17.5t-29.5 -66.5q0 -26 9.5 -43t26 -26.5t37.5 -13t44 -3.5h92v170zM28 54l51 8q12 2 15.5 5.5t6.5 11.5l39 88q12 26 25 44.5t39 27.5v0q-24 4 -45 13.5t-37.5 25.5t-26 38t-9.5 51q0 69 42 105t115 41q8 1 16.5 1h17.5h261v-55l-48 -5
q-8 -1 -9 -4.5t-1 -10.5v-367q0 -11 9 -12l49 -6v-54h-204v54l45 6q10 1 10 14v139h-103q-20 0 -30 -8t-19 -27q-15 -32 -35 -80.5t-40 -97.5h-134v54z" />
    <glyph glyph-name="afii10071" unicode="&#x451;" horiz-adv-x="512" 
d="M220 660q0 -25 -15 -40t-41 -15q-25 0 -40.5 15t-15.5 40q0 26 15.5 40.5t40.5 14.5q26 0 41 -14.5t15 -40.5zM422 660q0 -25 -15 -40t-41 -15t-41 15t-15 40q0 26 15 40.5t41 14.5t41 -14.5t15 -40.5zM462 33q-38 -21 -83 -33t-99 -12q-68 0 -114 21t-74 57t-40 85
t-12 105q0 69 18 119.5t49 83.5t72.5 49t88.5 16q46 0 84 -13t65 -41.5t42 -74t15 -110.5q0 -10 -0.5 -23.5t-1.5 -26.5h-336q1 -38 10 -69t27 -53.5t46.5 -35t69.5 -12.5q42 0 73 8t71 28zM383 304q-1 43 -10.5 71t-25 45t-36 24t-43.5 7q-25 0 -47.5 -7.5t-40 -24.5
t-29 -45t-14.5 -70h246z" />
    <glyph glyph-name="afii10099" unicode="&#x452;" horiz-adv-x="602" 
d="M234 -134q20 -8 39 -11t35 -3q43 0 71 22.5t44.5 65.5t23.5 107t7 146q0 69 -6 114t-18.5 70.5t-31.5 35.5t-45 10q-24 0 -47 -6.5t-43.5 -16t-36.5 -20.5t-27 -20v-279q0 -12 2.5 -15t13.5 -5l56 -7v-54h-229v55l50 6q11 2 13.5 5.5t2.5 14.5v486h-68v62h68v33
q0 17 -13 21l-60 19l9 53h154v-126h183v-62h-183v-133q39 28 84 47t97 19q57 0 89.5 -30.5t49.5 -76.5t21.5 -101t4.5 -103q0 -82 -9.5 -157t-34 -131.5t-68 -90t-111.5 -33.5q-23 0 -52.5 4t-52.5 14z" />
    <glyph glyph-name="afii10100" unicode="&#x453;" horiz-adv-x="453" 
d="M183 567l-39 37l155 164l60 -60zM43 0v55l46 5q8 1 10 3.5t2 10.5v365q0 8 -2 10.5t-10 3.5l-46 5v56h379v-162l-68 4l-13 84q-1 8 -12 8h-136v-373q0 -8 1.5 -10.5t9.5 -3.5l107 -6v-55h-268z" />
    <glyph glyph-name="afii10101" unicode="&#x454;" horiz-adv-x="519" 
d="M350 224h-212q17 -164 168 -164q42 0 81 14.5t64 33.5l35 -63q-39 -29 -89 -43t-101 -14q-68 0 -116.5 19.5t-79.5 54.5t-45.5 83.5t-14.5 106.5q0 60 17 110t51 86t85 56t119 20q48 0 93 -10.5t74 -29.5v-128l-67 3l-10 64q-2 7 -4 11t-9 6q-14 5 -34 9t-46 4
q-73 0 -118 -39t-53 -120h212v-70z" />
    <glyph glyph-name="afii10102" unicode="&#x455;" horiz-adv-x="460" 
d="M343 371l-12 62q-1 5 -2.5 8t-7.5 5q-11 4 -31.5 7.5t-46.5 3.5q-55 0 -80.5 -21.5t-25.5 -53.5q0 -21 10.5 -35t27.5 -23t40 -15.5t47 -12.5q29 -7 58.5 -16.5t52.5 -26t37.5 -42.5t14.5 -67q0 -43 -17 -73t-45 -48.5t-64.5 -26.5t-76.5 -8q-30 0 -59.5 4t-54.5 9
t-42.5 11t-24.5 10v133l67 -4l12 -69q1 -5 3 -8.5t9 -5.5q10 -4 35 -10t63 -6q51 0 80.5 19t29.5 60q0 23 -10 37.5t-26.5 24t-38.5 15.5t-46 12q-29 7 -58.5 15.5t-53.5 24t-39 41.5t-15 67q0 43 16.5 72.5t44.5 48t63.5 27t74.5 8.5q27 0 52 -3t46 -7.5t36.5 -9.5t23.5 -8
v-129z" />
    <glyph glyph-name="afii10103" unicode="&#x456;" horiz-adv-x="297" 
d="M204 689q0 -64 -64 -64q-31 0 -48 16.5t-17 47.5q0 30 17 46.5t48 16.5t47.5 -16.5t16.5 -46.5zM26 0v55l66 6q11 1 13.5 5t2.5 15v340q0 17 -13 21l-57 19l9 53h152v-433q0 -12 2.5 -15t13.5 -5l64 -7v-54h-253z" />
    <glyph glyph-name="afii10104" unicode="&#x457;" horiz-adv-x="317" 
d="M7 686q0 26 15.5 40.5t41.5 14.5q25 0 40.5 -14.5t15.5 -40.5t-15.5 -40.5t-40.5 -14.5q-26 0 -41.5 14.5t-15.5 40.5zM163 686q0 26 15.5 40.5t41.5 14.5q25 0 40.5 -14.5t15.5 -40.5t-15.5 -40.5t-40.5 -14.5q-26 0 -41.5 14.5t-15.5 40.5zM36 0v55l66 6q11 1 13.5 5
t2.5 15v340q0 17 -13 21l-57 19l9 53h152v-433q0 -12 2.5 -15t13.5 -5l64 -7v-54h-253z" />
    <glyph glyph-name="afii10105" unicode="&#x458;" horiz-adv-x="285" 
d="M106 421q0 17 -13 21l-64 19l9 53h159v-579q0 -81 -35 -119.5t-109 -38.5q-47 0 -84.5 13.5t-55.5 28.5l36 59q13 -10 37.5 -19.5t52.5 -9.5q40 0 53.5 25t13.5 79v468zM204 689q0 -31 -17 -47.5t-48 -16.5q-30 0 -47 16.5t-17 47.5q0 30 17 46.5t47 16.5q31 0 48 -16.5
t17 -46.5z" />
    <glyph glyph-name="afii10106" unicode="&#x459;" horiz-adv-x="783" 
d="M98 514h456v-55l-72 -6q-7 -1 -9.5 -2.5t-2.5 -9.5v-132h106q35 0 66.5 -7.5t55.5 -24.5t38 -44.5t14 -68.5q0 -42 -14.5 -72.5t-41 -51t-62 -30.5t-77.5 -10h-235v54l50 6q9 1 9 11v376h-141q-1 -74 -4.5 -131.5t-8.5 -108.5q-6 -53 -17 -92.5t-31.5 -67t-52 -43
t-76.5 -19.5l-17 77q25 3 44 11.5t33 26.5t23 49t15 79q2 18 4.5 42.5t4 52.5t3 57.5t2.5 57.5q0 8 -2 11.5t-10 4.5l-50 5v55zM546 66q51 0 81 21t30 72q0 27 -8.5 44t-24 26.5t-36.5 13t-46 3.5h-72v-180h76z" />
    <glyph glyph-name="afii10107" unicode="&#x45a;" horiz-adv-x="803" 
d="M354 0v55l43 5q8 1 10 3t2 10v156h-216v-154q0 -8 1.5 -10.5t9.5 -3.5l47 -6v-55h-208v55l46 5q8 1 10 4t2 11v365q0 8 -2 10.5t-10 3.5l-46 5v55h208v-55l-44 -6q-14 -1 -14 -14v-144h216v146q0 12 -12 13l-43 5v55h230v-55l-71 -6q-8 -1 -10.5 -3t-2.5 -10v-145h91
q37 0 69.5 -6.5t56.5 -22.5t38 -42.5t14 -67.5q0 -81 -53.5 -118.5t-141.5 -37.5h-220zM569 66q47 0 77.5 17.5t30.5 66.5q0 27 -8.5 42.5t-24.5 24t-39 11t-51 2.5h-54v-164h69z" />
    <glyph glyph-name="afii10108" unicode="&#x45b;" horiz-adv-x="630" 
d="M375 0v55l48 6q18 1 18 20v213q0 28 -3 52t-12 42t-25.5 28.5t-43.5 10.5q-45 0 -87 -21t-71 -44v-281q0 -12 2.5 -15t13.5 -5l56 -7v-54h-229v55l50 6q11 2 13.5 5.5t2.5 14.5v485h-70v66h70v30q0 17 -13 21l-60 19l9 53h154v-123h181v-66h-181v-128q35 25 79 45.5
t101 20.5q81 0 117.5 -48.5t36.5 -133.5v-241q0 -12 2.5 -15t13.5 -5l57 -7v-54h-230z" />
    <glyph glyph-name="afii10109" unicode="&#x45c;" horiz-adv-x="549" 
d="M261 567l-39 37l155 164l60 -60zM240 291q15 0 25.5 2t19 9.5t16.5 22t18 38.5l26 65q10 24 19 42t21.5 30t29 18t41.5 6q14 -1 26 -3t23 -5l-4 -60q-8 1 -14 1.5t-11 0.5q-20 0 -29 -9t-18 -31l-36 -87q-12 -29 -26.5 -44t-30.5 -20v-1q18 -5 31.5 -19.5t29.5 -45.5
l62 -119q5 -9 9.5 -13.5t13.5 -6.5l53 -8v-54h-136q-10 27 -23 53.5t-25 50t-22.5 43.5t-17.5 33q-9 17 -16 26.5t-15 15t-18 7t-25 1.5h-44v-157q0 -8 1.5 -10t9.5 -3l47 -5v-55h-208v55l46 5q7 1 9.5 3t2.5 10v367q0 8 -2 10.5t-10 3.5l-46 5v55h209v-55l-48 -6
q-8 -1 -9.5 -3.5t-1.5 -10.5v-148h47z" />
    <glyph glyph-name="afii10110" unicode="&#x45e;" horiz-adv-x="582" 
d="M53 -134q15 -7 34.5 -11.5t43.5 -4.5q20 0 33.5 7t24 19.5t19 30.5t17.5 40l25 59l-180 426q-4 9 -8 12t-13 5l-41 10l12 55h208v-55l-66 -8l133 -336h2l136 336l-68 8l11 55h198v-55l-34 -5q-9 -2 -15 -5.5t-10 -11.5l-185 -447q-21 -52 -38.5 -91.5t-38.5 -66.5
t-50 -40.5t-74 -13.5q-25 0 -52 6t-48 17zM309 634q42 0 63.5 25.5t32.5 67.5l65 -21q-17 -63 -54.5 -98.5t-108.5 -35.5t-108 35.5t-51 98.5l69 22q8 -42 29 -68t63 -26z" />
    <glyph glyph-name="afii10193" unicode="&#x45f;" horiz-adv-x="590" 
d="M43 0v50l47 6q8 1 9.5 4t1.5 11v372q0 8 -1.5 11t-9.5 4l-47 5v50h204v-50l-42 -5q-8 -1 -10 -3.5t-2 -10.5v-376h205v375q0 9 -2.5 11.5t-10.5 3.5l-41 5v50h205v-50l-48 -5q-8 -1 -10 -3.5t-2 -10.5v-374q0 -8 2 -10.5t10 -3.5l48 -6v-50h-199q-9 0 -11 -9l-11 -123
l-59 4l-15 119q-1 9 -10 9h-201z" />
    <glyph glyph-name="afii10050" unicode="&#x490;" horiz-adv-x="547" 
d="M61 0v54l63 7q11 2 13.5 5.5t2.5 14.5v561q0 11 -2.5 15t-13.5 5l-63 7v55h363q10 0 13.5 3.5t5.5 11.5l17 92l66 4v-182h-294v-571q0 -12 2.5 -15.5t13.5 -4.5l146 -8v-54h-333z" />
    <glyph glyph-name="afii10098" unicode="&#x491;" horiz-adv-x="426" 
d="M43 0v50l47 5q8 1 9.5 3.5t1.5 10.5v374q0 8 -2 11t-10 3l-46 5v51h272q11 0 12 9l13 68l67 5v-148h-214v-377q0 -8 1.5 -10.5t9.5 -3.5l106 -6v-50h-267z" />
    <glyph glyph-name="thinspace" unicode="&#x2009;" horiz-adv-x="125" 
 />
    <glyph glyph-name="endash" unicode="&#x2013;" 
d="M0 247v69h499v-69h-499z" />
    <glyph glyph-name="emdash" unicode="&#x2014;" horiz-adv-x="1000" 
d="M0 247v69h999v-69h-999z" />
    <glyph glyph-name="quoteleft" unicode="&#x2018;" horiz-adv-x="180" 
d="M136 553q-43 2 -71 12t-28 47q0 12 4.5 24t10.5 24l51 101l44 -16l-27 -95q-2 -7 5 -10l31 -13z" />
    <glyph glyph-name="quoteright" unicode="&#x2019;" horiz-adv-x="179" 
d="M40 568l27 94q3 8 -4 11l-32 13l20 75q22 -1 40 -3.5t31 -9t20.5 -17.5t7.5 -30q0 -21 -13 -47l-53 -101z" />
    <glyph glyph-name="quotesinglbase" unicode="&#x201a;" horiz-adv-x="180" 
d="M44 -107l27 94q3 8 -5 11l-32 13l20 75q22 -1 40.5 -3.5t31.5 -9t20.5 -17.5t7.5 -30q0 -11 -4.5 -23.5t-10.5 -24.5l-51 -100z" />
    <glyph glyph-name="quotedblleft" unicode="&#x201c;" horiz-adv-x="330" 
d="M136 553q-43 2 -71 12t-28 47q0 12 4.5 24t10.5 24l51 101l44 -16l-27 -95q-2 -7 5 -10l31 -13zM286 553q-43 2 -71 12t-28 47q0 12 4.5 24t10.5 24l51 101l44 -16l-27 -95q-2 -7 5 -10l31 -13z" />
    <glyph glyph-name="quotedblright" unicode="&#x201d;" horiz-adv-x="329" 
d="M40 568l27 94q3 8 -4 11l-32 13l20 75q22 -1 40 -3.5t31 -9t20.5 -17.5t7.5 -30q0 -21 -13 -47l-53 -101zM190 568l27 94q3 8 -4 11l-32 13l20 75q22 -1 40 -3.5t31 -9t20.5 -17.5t7.5 -30q0 -21 -13 -47l-53 -101z" />
    <glyph glyph-name="quotedblbase" unicode="&#x201e;" horiz-adv-x="330" 
d="M44 -107l27 94q3 8 -5 11l-32 13l20 75q22 -1 40.5 -3.5t31.5 -9t20.5 -17.5t7.5 -30q0 -11 -4.5 -23.5t-10.5 -24.5l-51 -100zM194 -107l27 94q3 8 -5 11l-32 13l20 75q22 -1 40.5 -3.5t31.5 -9t20.5 -17.5t7.5 -30q0 -11 -4.5 -23.5t-10.5 -24.5l-51 -100z" />
    <glyph glyph-name="dagger" unicode="&#x2020;" horiz-adv-x="393" 
d="M162 -83v191l-15 212l33 112h33l33 -112l-15 -213v-190h-69zM180 432l-84 -21h-74v75h74l84 -21v-33zM159 561v84h75v-84l-21 -96h-33zM297 411l-84 21v33l84 21h74v-75h-74z" />
    <glyph glyph-name="daggerdbl" unicode="&#x2021;" horiz-adv-x="419" 
d="M226 432l33 -109v-77l-33 -116h-33v-33h33l21 -96v-84h-75v84l21 96l-84 -21h-74v75h74l84 -21l-33 116v77l33 109l-84 -21h-74v75h74l84 -21l-21 96v84h75v-84l-21 -96l84 21h74v-75h-74l-84 21v33h-33v-33h33zM310 76l-84 21v33l84 21h74v-75h-74z" />
    <glyph glyph-name="bullet" unicode="&#x2022;" horiz-adv-x="371" 
d="M323 280q0 -67 -36 -100.5t-102 -33.5t-101.5 33.5t-35.5 100.5t35.5 100.5t101.5 33.5t102 -33.5t36 -100.5z" />
    <glyph glyph-name="ellipsis" unicode="&#x2026;" horiz-adv-x="565" 
d="M166 51q0 -63 -66 -63t-66 63t66 63q32 0 49 -15.5t17 -47.5zM349 51q0 -63 -66 -63t-66 63t66 63q32 0 49 -15.5t17 -47.5zM532 51q0 -63 -66 -63t-66 63t66 63q32 0 49 -15.5t17 -47.5z" />
    <glyph glyph-name="perthousand" unicode="&#x2030;" horiz-adv-x="1078" 
d="M186 295q-40 0 -67 12.5t-43.5 34t-23.5 50t-7 61.5q0 75 37.5 121t110.5 46q75 0 108 -43t33 -115q0 -76 -37.5 -121.5t-110.5 -45.5zM143 -17l377 638h86l-376 -638h-87zM189 352q42 0 56.5 29.5t14.5 77.5q0 45 -13.5 74t-54.5 29q-21 0 -35 -9t-22.5 -24t-12 -33.5
t-3.5 -38.5q0 -45 14 -75t56 -30zM558 -12q-40 0 -67 12.5t-43.5 34t-23.5 50t-7 61.5q0 75 37.5 121t110.5 46q75 0 108 -43t33 -115q0 -76 -37.5 -121.5t-110.5 -45.5zM562 45q41 0 56 29.5t15 77.5q0 45 -14 74t-55 29q-21 0 -34.5 -9t-22 -24t-12 -33.5t-3.5 -38.5
q0 -45 14 -75t56 -30zM885 -12q-40 0 -67 12.5t-43.5 34t-23.5 50t-7 61.5q0 75 37.5 121t110.5 46q75 0 108 -43t33 -115q0 -76 -37.5 -121.5t-110.5 -45.5zM889 45q41 0 56 29.5t15 77.5q0 45 -14 74t-55 29q-21 0 -34.5 -9t-22 -24t-12 -33.5t-3.5 -38.5q0 -45 14 -75
t56 -30z" />
    <glyph glyph-name="guilsinglleft" unicode="&#x2039;" horiz-adv-x="278" 
d="M144 103l-87 156l89 149h82l-75 -137q-4 -7 -4 -10t3 -9l74 -149h-82z" />
    <glyph glyph-name="guilsinglright" unicode="&#x203a;" horiz-adv-x="277" 
d="M50 103l74 142q4 7 4 10t-3 9l-75 144h82l88 -153l-88 -152h-82z" />
    <glyph glyph-name="fraction" unicode="&#x2044;" horiz-adv-x="173" 
d="M-137 -17l358 741h84l-357 -741h-85z" />
    <glyph glyph-name="Euro" unicode="&#x20ac;" horiz-adv-x="531" 
d="M170 348v-18v-26.5t1 -24.5h185l-12 -62h-165q31 -156 160 -156q20 0 40 2.5t31 7.5q8 2 10 6.5t3 10.5l13 74l64 4v-145q-9 -4 -26 -10t-39 -11t-48 -8.5t-53 -3.5q-216 0 -251 229h-84l12 62h66q-1 8 -1 17v19v16.5t1 16.5h-57l12 62h52q11 61 35 106t58.5 74t77 43.5
t89.5 14.5q54 0 95.5 -11.5t61.5 -22.5v-145l-64 4l-13 74q-2 7 -4 10.5t-10 6.5q-11 4 -28.5 7t-41.5 3q-61 0 -105 -39t-59 -125h201l-12 -62h-195z" />
    <glyph glyph-name="afii61352" unicode="&#x2116;" horiz-adv-x="1120" 
d="M526 0l-305 520v-438q0 -12 2.5 -15t13.5 -5l67 -8v-54h-243v54l63 7q11 2 13.5 5.5t2.5 14.5v466q0 11 -2.5 15t-13.5 5l-63 7v55h196l296 -505v423q0 11 -2.5 15t-13.5 5l-63 7v54h242v-54l-67 -8q-11 -2 -13.5 -5t-2.5 -14v-547h-107zM714 183h308v-73h-308v73z
M865 223q-44 0 -75.5 13t-51.5 36.5t-29.5 55.5t-9.5 70q0 77 42 124.5t130 47.5q44 0 75 -12.5t50.5 -34.5t28.5 -53t9 -67q0 -82 -40.5 -131t-128.5 -49zM867 276q43 0 65.5 29.5t22.5 92.5q0 62 -21 89.5t-64 27.5q-44 0 -68.5 -27t-24.5 -90t23 -92.5t67 -29.5z" />
    <glyph glyph-name="trademark" unicode="&#x2122;" horiz-adv-x="830" 
d="M95 348v37l59 5v287h-84l-9 -54h-37v101h320v-101h-37l-8 54h-86v-287l64 -5v-37h-182zM662 348v36l48 5v223l-97 -183h-45l-95 184v-224l51 -5v-36h-147v36l40 5v291l-40 5v39h99l116 -233l119 233h95v-39l-42 -5v-291l44 -5v-36h-146z" />
    <glyph glyph-name="partialdiff" unicode="&#x2202;" horiz-adv-x="553" 
d="M409 352q1 10 1 20v21q0 33 -4.5 69.5t-19 67t-40.5 50.5t-69 20q-42 0 -81.5 -15.5t-68.5 -35.5l-38 59q39 27 91 46t106 19q65 0 106.5 -25t65 -66t32 -93t8.5 -105q0 -60 -9.5 -129.5t-37.5 -128.5t-77.5 -98.5t-129.5 -39.5q-99 0 -148.5 53t-49.5 141q0 51 14 93
t40 72.5t63 47.5t84 17q54 0 95.5 -20t66.5 -40zM401 276q-10 10 -25 21.5t-33 21t-39.5 16t-45.5 6.5q-34 0 -57 -13t-36.5 -34.5t-19.5 -49.5t-6 -57q0 -53 26 -90.5t81 -37.5q44 0 72.5 22t45.5 54.5t25 70.5t12 70z" />
    <glyph glyph-name="product" unicode="&#x220f;" horiz-adv-x="766" 
d="M476 -176v54l63 7q11 2 13.5 5.5t2.5 14.5v747h-344v-746q0 -12 2.5 -15t13.5 -5l67 -8v-54h-254v54l63 7q11 2 13.5 5.5t2.5 14.5v738q0 11 -2.5 15t-13.5 5l-63 7v54h690v-54l-67 -8q-11 -2 -13.5 -5t-2.5 -14v-737q0 -12 2.5 -15t13.5 -5l67 -8v-54h-254z" />
    <glyph glyph-name="summation" unicode="&#x2211;" horiz-adv-x="627" 
d="M23 -176v57l235 400l-218 387v56h528v-165l-68 4l-14 77q-3 13 -17 13h-323l205 -371l-224 -383h350q8 0 11 1.5t5 9.5l16 87h67v-173h-553z" />
    <glyph glyph-name="minus" unicode="&#x2212;" horiz-adv-x="570" 
d="M97 281v81h377v-81h-377z" />
    <glyph glyph-name="radical" unicode="&#x221a;" horiz-adv-x="570" 
d="M276 0l-129 227q-7 12 -18 8l-62 -18l-25 56l135 65l134 -239l174 645l79 -19l-193 -725h-95z" />
    <glyph glyph-name="infinity" unicode="&#x221e;" horiz-adv-x="645" 
d="M323 271q-12 -13 -27.5 -28t-34.5 -27.5t-42 -21t-50 -8.5q-25 0 -49.5 8t-43 24t-30 41.5t-11.5 59.5q0 31 11 56.5t30 43.5t45 27.5t56 9.5q26 0 47 -7.5t39.5 -19t34 -26.5t30.5 -30q14 14 29 28.5t33.5 26.5t40.5 20t48 8q27 0 50.5 -8t41.5 -25t28.5 -42.5
t10.5 -61.5q0 -30 -10.5 -54.5t-28.5 -42t-42.5 -27.5t-51.5 -10q-29 0 -52 8t-41.5 21t-33.5 28t-27 29zM280 323q-24 29 -48.5 49t-55.5 20t-49 -19.5t-18 -49.5q0 -29 14.5 -51t48.5 -22q18 0 33.5 7.5t29 19t25 24t20.5 22.5zM371 323q23 -26 46 -47.5t58 -21.5
q31 0 46.5 21t15.5 48t-13.5 47.5t-46.5 20.5q-15 0 -29.5 -6.5t-28 -17t-25.5 -22t-23 -22.5z" />
    <glyph glyph-name="integral" unicode="&#x222b;" horiz-adv-x="392" 
d="M48 -99q38 -18 74 -18q26 0 43.5 14.5t13.5 55.5l-54 636q-3 39 8 65.5t30.5 42.5t45 23t50.5 7q31 0 55.5 -5.5t47.5 -14.5l-20 -71q-19 10 -37.5 14t-36.5 4q-26 0 -43.5 -15.5t-13.5 -54.5l54 -635q3 -40 -8 -66.5t-30.5 -42.5t-45 -22.5t-50.5 -6.5q-31 0 -55.5 5.5
t-47.5 14.5z" />
    <glyph glyph-name="approxequal" unicode="&#x2248;" horiz-adv-x="570" 
d="M504 497q-5 -22 -12 -41.5t-17.5 -34.5t-26 -23.5t-39.5 -8.5q-27 0 -57.5 7t-60.5 15t-58 15t-50 7q-23 0 -36 -12.5t-30 -38.5l-51 22q20 45 44 73t69 28q29 0 58 -7t57.5 -15t55.5 -15t51 -7q23 0 32 13t18 39zM503 317q-5 -22 -11.5 -41.5t-17 -34t-26.5 -23
t-40 -8.5q-27 0 -57.5 6.5t-60.5 15t-58 15t-50 6.5q-23 0 -36 -12.5t-30 -38.5l-51 22q21 45 45 73t68 28q29 0 58 -7t57.5 -15t55.5 -15t51 -7q23 0 32 13t19 39z" />
    <glyph glyph-name="notequal" unicode="&#x2260;" horiz-adv-x="570" 
d="M271 159l-49 -109h-80l50 109h-94v83h132l36 79h-168v83h206l44 95h76l-43 -95h91v-83h-128l-36 -79h164v-83h-201z" />
    <glyph glyph-name="lessequal" unicode="&#x2264;" horiz-adv-x="570" 
d="M89 251v100l367 150l23 -73l-309 -123l312 -120l-16 -79zM90 0v80h377v-80h-377z" />
    <glyph glyph-name="greaterequal" unicode="&#x2265;" horiz-adv-x="570" 
d="M104 106l-16 78l312 120l-309 122l19 79l371 -154v-100zM103 0v80h377v-80h-377z" />
    <glyph glyph-name="lozenge" unicode="&#x25ca;" horiz-adv-x="570" 
d="M248 -17l-157 324l157 324h74l157 -324l-157 -324h-74zM399 307l-114 236l-114 -236l114 -239z" />
    <glyph glyph-name="breve.cyr" 
d="M250 634q42 0 63.5 25.5t32.5 67.5l65 -21q-17 -63 -54.5 -98.5t-108.5 -35.5t-108 35.5t-51 98.5l69 22q8 -42 29 -68t63 -26z" />
    <glyph glyph-name="hyphen.case" horiz-adv-x="311" 
d="M20 307v89h271v-89h-271z" />
    </font>
</defs>
</svg>
